<?xml version="1.0" encoding="UTF-8"?>
<svg id="Capa_1" data-name="Capa 1" xmlns="http://www.w3.org/2000/svg" viewBox="0 0 763.61 743.01">
  <defs>
    <style>
      .cls-1 {
        opacity: .6;
      }

      .cls-2 {
        fill: #375a64;
      }

      .cls-2, .cls-3, .cls-4, .cls-5, .cls-6, .cls-7, .cls-8, .cls-9, .cls-10, .cls-11, .cls-12, .cls-13 {
        stroke-width: 0px;
      }

      .cls-3 {
        fill: #e1e1e1;
      }

      .cls-4 {
        fill: #ececec;
      }

      .cls-6, .cls-14 {
        opacity: .3;
      }

      .cls-7 {
        fill: #f5f5f5;
      }

      .cls-8 {
        fill: #1a2e35;
      }

      .cls-9 {
        fill: #fff;
      }

      .cls-10 {
        fill: #ff9c6a;
      }

      .cls-11 {
        fill: #024873;
      }

      .cls-12 {
        fill: #bfd6d9;
      }

      .cls-13 {
        fill: #ffc19d;
      }
    </style>
  </defs>
  <path class="cls-7" d="m155.31,171.36c1.16-9.79-10.7-17.84-19.6-18.67-4.25-.4-8.66.36-12.68-1.28-8.72-3.54-12.2-16.67-20.71-20.85-6.36-3.13-13.68-.34-19.85,3.27-6.17,3.62-12.26,8.17-19.15,8.68-5.99.45-12.5-2.14-17.74,1.27-3.91,2.54-5.95,7.79-9.55,10.88-3.52,3.03-8.12,3.67-12.49,3.95-4.37.28-8.89.33-12.87,2.45-3.98,2.12-7.27,7.03-6.45,12.04l151.08-1.74Z"/>
  <g>
    <g>
      <polygon class="cls-4" points="284.21 650.96 299.8 650.96 295.77 519.13 280.17 519.13 284.21 650.96"/>
      <path class="cls-4" d="m289.78,206.23c0,1.81,41.85,113.81,41.85,113.81l-20.92-18.07,30.14,78.28-19.86-23.48,23.41,98.15-11.35-10.24,19.86,69.25-17.02-18.06,17.02,51.79-134.76-8.43,31.92-97.55-19.28,18.07,24.95-71.06-12.77,6.02,29.08-91.53-13.48,7.83,31.21-104.78Z"/>
    </g>
    <path class="cls-7" d="m285.26,406.15s.19.6.67,1.66c.54,1.16,1.24,2.68,2.11,4.54,1.91,3.97,4.52,9.39,7.54,15.68l.33.69.42-.66c1.97-3.1,3.88-6.61,5.5-10.38.6-1.39,1.15-2.78,1.62-4.11l-.82.03c3.72,8.05,7.36,15.06,10.1,20.03,1.37,2.49,2.51,4.47,3.32,5.83.38.61.69,1.12.95,1.55.23.35.36.53.38.52.05-.02-.32-.79-1.04-2.18-.78-1.49-1.81-3.49-3.07-5.92-2.6-5.02-6.13-12.06-9.82-20.1l-.45-.99-.37,1.02c-.48,1.31-1.02,2.69-1.62,4.07-1.61,3.73-3.48,7.22-5.41,10.3l.75.03c-3.14-6.25-5.85-11.63-7.84-15.58-.95-1.83-1.73-3.33-2.33-4.46-.56-1.03-.88-1.59-.92-1.57Z"/>
    <path class="cls-7" d="m270.9,364.34s.31-.41.76-1.21c.52-.92,1.16-2.05,1.94-3.42,1.67-2.91,4.12-6.97,7.29-11.51l-.77-.09c.67,2.2,1.4,4.58,2.15,7.04.48,1.53.94,3.03,1.39,4.48l.31,1.01.5-.95c2.87-5.43,5.36-10.21,7.11-13.65.81-1.62,1.48-2.98,2.02-4.05.46-.96.68-1.49.63-1.51-.05-.02-.37.48-.91,1.4-.6,1.05-1.35,2.37-2.25,3.96-1.89,3.38-4.47,8.13-7.38,13.54l.81.06c-.44-1.45-.9-2.95-1.37-4.48-.76-2.46-1.5-4.83-2.19-7.03l-.26-.84-.51.74c-3.15,4.59-5.51,8.71-7.05,11.69-.77,1.49-1.35,2.68-1.72,3.51-.37.83-.54,1.29-.5,1.3Z"/>
    <path class="cls-7" d="m289.99,278.54c-.09.05.81,1.54,2.38,3.98,1.57,2.44,3.81,5.83,6.4,9.67l.59.87.21-.99c.24-1.11.48-2.27.73-3.45.42-2.04.82-4,1.2-5.81l-.77.13c2.41,3.24,4.5,6,6.01,7.95,1.51,1.95,2.44,3.07,2.53,3.03.08-.04-.7-1.25-2.09-3.26-1.39-2.01-3.39-4.83-5.74-8.09l-.57-.79-.2.92c-.39,1.81-.8,3.77-1.24,5.81-.24,1.18-.48,2.33-.71,3.45l.8-.12c-2.62-3.83-4.96-7.17-6.66-9.55-1.7-2.38-2.77-3.78-2.87-3.74Z"/>
  </g>
  <path class="cls-3" d="m755.56,652.85c0,.25-169.15.45-377.76.45s-377.8-.2-377.8-.45,169.12-.44,377.8-.44,377.76.2,377.76.44Z"/>
  <g>
    <g>
      <polygon class="cls-4" points="76.55 656.35 92.15 656.35 88.11 524.52 72.52 524.52 76.55 656.35"/>
      <path class="cls-4" d="m82.13,211.63c0,1.81,41.85,113.81,41.85,113.81l-20.92-18.07,30.14,78.28-19.86-23.48,23.41,98.15-11.35-10.24,19.86,69.25-17.02-18.06,17.02,51.79-134.76-8.43,31.92-97.55-19.28,18.07,24.95-71.06-12.77,6.02,29.08-91.53-13.48,7.83,31.21-104.78Z"/>
    </g>
    <path class="cls-7" d="m77.61,411.54s.19.6.67,1.66c.54,1.16,1.24,2.68,2.11,4.54,1.91,3.97,4.52,9.39,7.54,15.68l.33.69.42-.66c1.97-3.1,3.88-6.61,5.5-10.38.6-1.39,1.15-2.78,1.62-4.11l-.82.03c3.72,8.05,7.36,15.06,10.1,20.03,1.37,2.49,2.51,4.47,3.32,5.83.38.61.69,1.12.95,1.55.23.35.36.53.38.52.05-.02-.32-.79-1.04-2.18-.78-1.49-1.81-3.49-3.07-5.92-2.6-5.02-6.13-12.06-9.82-20.1l-.45-.99-.37,1.02c-.48,1.31-1.02,2.69-1.62,4.07-1.61,3.73-3.48,7.22-5.41,10.3l.75.03c-3.14-6.25-5.85-11.63-7.84-15.58-.95-1.83-1.73-3.33-2.33-4.46-.56-1.03-.88-1.59-.92-1.57Z"/>
    <path class="cls-7" d="m63.25,369.73s.31-.41.76-1.21c.52-.92,1.16-2.05,1.94-3.42,1.67-2.91,4.12-6.97,7.29-11.51l-.77-.09c.67,2.2,1.4,4.58,2.15,7.04.48,1.53.94,3.03,1.39,4.48l.31,1.01.5-.95c2.87-5.43,5.36-10.21,7.11-13.65.81-1.62,1.48-2.98,2.02-4.05.46-.96.68-1.49.63-1.51-.05-.02-.37.48-.91,1.4-.6,1.05-1.35,2.37-2.25,3.96-1.89,3.38-4.47,8.13-7.38,13.54l.81.06c-.44-1.45-.9-2.95-1.37-4.48-.76-2.46-1.5-4.83-2.19-7.03l-.26-.84-.51.74c-3.15,4.59-5.51,8.71-7.05,11.69-.77,1.49-1.35,2.68-1.72,3.51-.37.83-.54,1.29-.5,1.3Z"/>
    <path class="cls-7" d="m82.34,283.93c-.09.05.81,1.54,2.38,3.98,1.57,2.44,3.81,5.83,6.4,9.67l.59.87.21-.99c.24-1.11.48-2.27.73-3.45.42-2.04.82-4,1.2-5.81l-.77.13c2.41,3.24,4.5,6,6.01,7.95,1.51,1.95,2.44,3.07,2.53,3.03.08-.04-.7-1.25-2.08-3.26-1.39-2.01-3.39-4.83-5.75-8.09l-.57-.79-.2.92c-.39,1.81-.8,3.77-1.24,5.81-.24,1.18-.48,2.33-.71,3.45l.8-.12c-2.62-3.83-4.96-7.17-6.66-9.55s-2.77-3.78-2.87-3.74Z"/>
  </g>
  <g>
    <g>
      <polygon class="cls-4" points="182.21 538.53 154.06 524.82 144.73 483.66 136.87 485.49 143.69 524.37 116.71 508.88 110.8 514.64 146.51 533.92 182.21 548.12 182.21 538.53"/>
      <g>
        <polygon class="cls-4" points="193.59 652.88 172.97 652.88 178.31 478.49 198.93 478.49 193.59 652.88"/>
        <path class="cls-3" d="m182.99,44.71c0,2.39-55.36,150.55-55.36,150.55l27.68-23.9-39.88,103.55,26.27-31.07-30.96,129.84,15.01-13.54-26.27,91.6,22.52-23.9-22.52,68.5,178.27-11.15-42.22-129.04,25.5,23.9-33-93.99,16.89,7.97-38.47-121.08,17.83,10.36-41.28-138.6Z"/>
      </g>
    </g>
    <path class="cls-4" d="m188.97,309.16c.06.02-.25.79-.88,2.2-.71,1.53-1.64,3.55-2.79,6.01-2.53,5.26-5.98,12.42-9.98,20.74l-.44.91-.55-.87c-2.61-4.1-5.13-8.75-7.28-13.73-.8-1.84-1.52-3.68-2.15-5.43l1.09.03c-4.92,10.65-9.73,19.92-13.36,26.5-1.81,3.29-3.32,5.92-4.39,7.71-.5.81-.91,1.49-1.26,2.05-.3.46-.47.7-.5.68-.07-.03.43-1.05,1.38-2.89,1.03-1.98,2.4-4.61,4.07-7.83,3.44-6.65,8.11-15.95,12.99-26.59l.6-1.31.49,1.34c.63,1.74,1.35,3.55,2.14,5.38,2.13,4.94,4.6,9.54,7.15,13.63l-.99.04c4.16-8.27,7.74-15.39,10.37-20.61,1.26-2.42,2.29-4.4,3.08-5.91.74-1.37,1.16-2.1,1.22-2.08Z"/>
    <path class="cls-4" d="m207.96,253.86c-.06.02-.41-.54-1.01-1.6-.69-1.21-1.54-2.72-2.56-4.52-2.21-3.85-5.44-9.22-9.65-15.23l1.02-.12c-.89,2.91-1.85,6.06-2.85,9.31-.63,2.03-1.24,4.01-1.84,5.92l-.41,1.33-.66-1.25c-3.8-7.18-7.09-13.51-9.4-18.05-1.07-2.15-1.96-3.94-2.67-5.36-.6-1.26-.9-1.97-.84-1.99.06-.02.49.63,1.21,1.85.79,1.39,1.79,3.14,2.98,5.24,2.49,4.47,5.92,10.75,9.76,17.91l-1.07.08c.59-1.91,1.2-3.9,1.82-5.93,1.01-3.25,1.99-6.39,2.89-9.3l.34-1.11.68.99c4.16,6.07,7.28,11.52,9.32,15.46,1.02,1.97,1.78,3.55,2.27,4.65.49,1.1.72,1.7.66,1.73Z"/>
    <path class="cls-4" d="m182.71,140.35c.12.06-1.07,2.03-3.15,5.26-2.08,3.23-5.04,7.71-8.47,12.8l-.78,1.16-.28-1.31c-.31-1.47-.64-3-.97-4.56-.55-2.7-1.09-5.29-1.58-7.69l1.01.17c-3.18,4.28-5.95,7.94-7.95,10.51-2,2.57-3.23,4.07-3.34,4.01-.11-.06.92-1.65,2.76-4.32,1.84-2.66,4.48-6.39,7.6-10.7l.76-1.05.26,1.21c.51,2.4,1.06,4.99,1.64,7.68.32,1.56.64,3.09.95,4.56l-1.06-.16c3.47-5.06,6.56-9.48,8.81-12.63s3.67-5.01,3.79-4.95Z"/>
  </g>
  <g>
    <g>
      <polygon class="cls-4" points="559.18 650.96 574.77 650.96 570.73 519.13 555.14 519.13 559.18 650.96"/>
      <path class="cls-4" d="m564.75,206.23c0,1.81,41.85,113.81,41.85,113.81l-20.92-18.07,30.14,78.28-19.86-23.48,23.41,98.15-11.35-10.24,19.86,69.25-17.02-18.06,17.02,51.79-134.76-8.43,31.92-97.55-19.28,18.07,24.95-71.06-12.77,6.02,29.08-91.53-13.48,7.83,31.21-104.78Z"/>
    </g>
    <path class="cls-7" d="m560.23,406.15s.19.6.67,1.66c.54,1.16,1.24,2.68,2.11,4.54,1.91,3.97,4.52,9.39,7.54,15.68l.33.69.42-.66c1.97-3.1,3.88-6.61,5.5-10.38.6-1.39,1.15-2.78,1.62-4.11l-.82.03c3.72,8.05,7.36,15.06,10.1,20.03,1.37,2.49,2.51,4.47,3.32,5.83.38.61.69,1.12.95,1.55.23.35.36.53.38.52.05-.02-.32-.79-1.04-2.18-.78-1.49-1.81-3.49-3.07-5.92-2.6-5.02-6.13-12.06-9.82-20.1l-.45-.99-.37,1.02c-.48,1.31-1.02,2.69-1.62,4.07-1.61,3.73-3.48,7.22-5.41,10.3l.75.03c-3.14-6.25-5.85-11.63-7.84-15.58-.95-1.83-1.73-3.33-2.33-4.46-.56-1.03-.88-1.59-.92-1.57Z"/>
    <path class="cls-7" d="m545.87,364.34s.31-.41.76-1.21c.52-.92,1.16-2.05,1.94-3.42,1.67-2.91,4.12-6.97,7.29-11.51l-.77-.09c.67,2.2,1.4,4.58,2.15,7.04.48,1.53.94,3.03,1.39,4.48l.31,1.01.5-.95c2.87-5.43,5.36-10.21,7.11-13.65.81-1.62,1.48-2.98,2.02-4.05.46-.96.68-1.49.63-1.51-.05-.02-.37.48-.91,1.4-.6,1.05-1.35,2.37-2.25,3.96-1.89,3.38-4.47,8.13-7.38,13.54l.81.06c-.44-1.45-.9-2.95-1.37-4.48-.76-2.46-1.5-4.83-2.19-7.03l-.26-.84-.51.74c-3.15,4.59-5.51,8.71-7.05,11.69-.77,1.49-1.35,2.68-1.72,3.51-.37.83-.54,1.29-.5,1.3Z"/>
    <path class="cls-7" d="m564.96,278.54c-.09.05.81,1.54,2.38,3.98,1.57,2.44,3.81,5.83,6.4,9.67l.59.87.21-.99c.24-1.11.48-2.27.73-3.45.42-2.04.82-4,1.2-5.81l-.77.13c2.41,3.24,4.5,6,6.01,7.95,1.51,1.95,2.44,3.07,2.53,3.03.08-.04-.7-1.25-2.08-3.26-1.39-2.01-3.39-4.83-5.75-8.09l-.57-.79-.2.92c-.39,1.81-.8,3.77-1.24,5.81-.24,1.18-.48,2.33-.71,3.45l.8-.12c-2.62-3.83-4.96-7.17-6.66-9.55-1.7-2.38-2.77-3.78-2.87-3.74Z"/>
  </g>
  <path class="cls-7" d="m498.7,144.39c1.16-9.79-10.7-17.84-19.6-18.67-4.25-.4-8.66.36-12.68-1.28-8.72-3.54-12.2-16.67-20.71-20.85-6.36-3.13-13.68-.34-19.85,3.27-6.17,3.62-12.26,8.17-19.15,8.68-5.99.45-12.5-2.14-17.74,1.27-3.91,2.54-5.95,7.79-9.55,10.88-3.52,3.03-8.12,3.67-12.49,3.95-4.37.28-8.89.33-12.87,2.45-3.98,2.12-7.27,7.03-6.45,12.04l151.08-1.74Z"/>
  <g>
    <g>
      <polygon class="cls-4" points="676.02 556.15 651.77 544.34 643.74 508.89 636.97 510.47 642.84 543.96 619.6 530.62 614.51 535.57 645.26 552.18 676.02 564.42 676.02 556.15"/>
      <g>
        <polygon class="cls-4" points="685.82 654.65 668.06 654.65 672.65 504.44 690.42 504.44 685.82 654.65"/>
        <path class="cls-3" d="m676.69,130.82c0,2.06-47.68,129.67-47.68,129.67l23.84-20.58-34.35,89.19,22.63-26.76-26.67,111.83,12.93-11.66-22.63,78.9,19.4-20.58-19.4,59,153.54-9.61-36.37-111.14,21.96,20.58-28.43-80.96,14.55,6.86-33.13-104.28,15.35,8.92-35.56-119.38Z"/>
      </g>
    </g>
    <path class="cls-4" d="m681.84,358.59c.05.02-.22.68-.76,1.89-.61,1.32-1.42,3.05-2.4,5.18-2.18,4.53-5.15,10.7-8.6,17.87l-.38.79-.48-.75c-2.25-3.54-4.42-7.53-6.27-11.83-.69-1.59-1.31-3.17-1.85-4.68l.94.03c-4.24,9.17-8.38,17.16-11.51,22.82-1.56,2.84-2.86,5.1-3.78,6.64-.43.7-.79,1.28-1.08,1.77-.26.4-.4.6-.43.59-.06-.02.37-.9,1.19-2.49.88-1.7,2.06-3.97,3.5-6.74,2.96-5.72,6.99-13.74,11.19-22.9l.52-1.13.42,1.16c.54,1.5,1.16,3.06,1.84,4.64,1.83,4.25,3.97,8.22,6.16,11.74l-.85.03c3.58-7.12,6.67-13.25,8.93-17.75,1.09-2.09,1.97-3.79,2.65-5.09.63-1.18,1-1.81,1.05-1.79Z"/>
    <path class="cls-4" d="m698.2,310.96c-.05.02-.35-.47-.87-1.38-.59-1.04-1.33-2.34-2.21-3.9-1.9-3.32-4.69-7.94-8.31-13.12l.88-.1c-.77,2.51-1.59,5.22-2.45,8.02-.54,1.75-1.07,3.46-1.58,5.1l-.35,1.15-.57-1.08c-3.27-6.19-6.11-11.64-8.1-15.55-.92-1.85-1.69-3.39-2.3-4.62-.52-1.09-.78-1.69-.72-1.72.06-.02.42.54,1.04,1.59.68,1.2,1.54,2.71,2.57,4.51,2.15,3.85,5.1,9.26,8.41,15.43l-.93.07c.5-1.65,1.03-3.36,1.57-5.11.87-2.8,1.71-5.5,2.49-8.01l.3-.95.58.85c3.59,5.23,6.27,9.93,8.03,13.31.88,1.69,1.53,3.06,1.96,4,.42.95.62,1.47.57,1.49Z"/>
    <path class="cls-4" d="m676.45,213.2c.11.05-.92,1.75-2.71,4.53-1.79,2.78-4.34,6.64-7.3,11.02l-.67,1-.24-1.13c-.27-1.27-.55-2.58-.83-3.93-.48-2.32-.94-4.56-1.36-6.63l.87.14c-2.74,3.69-5.13,6.84-6.85,9.06-1.72,2.22-2.79,3.5-2.88,3.45-.09-.05.79-1.43,2.38-3.72,1.58-2.29,3.86-5.5,6.55-9.22l.65-.9.22,1.04c.44,2.07.92,4.3,1.41,6.62.28,1.34.55,2.66.81,3.93l-.91-.14c2.99-4.36,5.65-8.17,7.59-10.88,1.94-2.71,3.16-4.31,3.27-4.26Z"/>
  </g>
  <path class="cls-7" d="m763.55,64.44c.91-6.59-8.4-12.02-15.39-12.58-3.33-.27-6.8.24-9.96-.86-6.85-2.39-9.58-11.23-16.26-14.05-4.99-2.11-10.74-.23-15.58,2.21-4.84,2.44-9.63,5.5-15.03,5.85-4.7.3-9.81-1.44-13.93.85-3.07,1.71-4.67,5.25-7.5,7.33-2.77,2.04-6.37,2.47-9.8,2.66-3.43.19-6.98.22-10.11,1.65-3.12,1.43-5.71,4.73-5.06,8.11l118.63-1.17Z"/>
  <path class="cls-7" d="m397.84,32.82c.91-6.59-8.4-12.02-15.39-12.58-3.33-.27-6.8.24-9.96-.86-6.85-2.39-9.58-11.23-16.26-14.05-4.99-2.11-10.74-.23-15.58,2.21-4.84,2.44-9.63,5.5-15.03,5.85-4.7.3-9.81-1.44-13.93.85-3.07,1.71-4.67,5.25-7.5,7.33-2.77,2.04-6.37,2.47-9.8,2.66-3.43.19-6.98.22-10.11,1.65-3.12,1.43-5.71,4.73-5.06,8.11l118.63-1.17Z"/>
  <path class="cls-8" d="m754.26,740.4c0,.25-168.57.44-376.46.44s-376.5-.2-376.5-.44,168.53-.44,376.5-.44,376.46.2,376.46.44Z"/>
  <g>
    <path class="cls-8" d="m725.58,740.39c-.11.04-.75-1.27-1.67-3.44-.92-2.17-2.13-5.19-3.44-8.53-1.26-3.16-2.39-6.02-3.39-8.53-.88-2.18-1.48-3.5-1.37-3.56.1-.06.91,1.17,1.94,3.3,1.04,2.12,2.33,5.12,3.64,8.47,1.32,3.35,2.43,6.4,3.2,8.63.77,2.23,1.19,3.62,1.08,3.67Z"/>
    <path class="cls-8" d="m733.45,740.74c-.26.03-1.13-5.7-2.71-12.66-1.57-6.96-3.26-12.51-3.01-12.59.11-.04.68,1.31,1.43,3.54.75,2.23,1.65,5.36,2.45,8.86.79,3.5,1.32,6.71,1.61,9.05.29,2.34.35,3.79.24,3.81Z"/>
    <path class="cls-8" d="m747.4,717.01c.23.12-2.32,5.25-4.92,11.8-2.62,6.54-4.29,12.02-4.55,11.95-.11-.03.16-1.45.78-3.69.62-2.24,1.62-5.3,2.93-8.59,1.32-3.3,2.7-6.2,3.78-8.25,1.09-2.05,1.86-3.27,1.97-3.21Z"/>
  </g>
  <g>
    <path class="cls-8" d="m336.58,740.4c-.21.12-2.71-3.87-5.58-8.91-2.87-5.04-5.02-9.23-4.81-9.35.21-.12,2.71,3.87,5.58,8.91,2.87,5.04,5.02,9.23,4.81,9.35Z"/>
    <path class="cls-8" d="m343.96,740.15c-.24.05-1.46-4.75-2.71-10.73-1.26-5.98-2.08-10.86-1.84-10.91.24-.05,1.45,4.75,2.71,10.73,1.26,5.98,2.08,10.86,1.84,10.91Z"/>
    <path class="cls-8" d="m359.52,720.89c.21.12-2.15,4.53-5.27,9.84-3.12,5.31-5.82,9.51-6.04,9.39-.21-.12,2.15-4.53,5.27-9.84,3.12-5.31,5.82-9.51,6.04-9.39Z"/>
  </g>
  <g>
    <path class="cls-8" d="m45.76,740.4c-.21.12-2.47-3.46-5.03-7.99-2.56-4.54-4.47-8.31-4.25-8.43.21-.12,2.46,3.46,5.03,7.99,2.56,4.53,4.47,8.31,4.25,8.43Z"/>
    <path class="cls-8" d="m49.88,713.9c.24-.03,1.14,5.88,1.99,13.2.86,7.32,1.35,13.27,1.11,13.3-.24.03-1.14-5.88-1.99-13.2-.86-7.32-1.35-13.27-1.11-13.3Z"/>
    <path class="cls-8" d="m65.95,722.32c.23.07-.82,4.18-2.36,9.17-1.54,4.99-2.98,8.98-3.21,8.91s.82-4.18,2.36-9.17c1.54-4.99,2.98-8.98,3.21-8.9Z"/>
  </g>
  <g>
    <path class="cls-2" d="m192.77,683.75c2.6,1.13,4.51,3.53,5.47,6.19.96,2.66,1.04,5.57.73,8.39-.62,5.44-3.71,10.94-7.04,15.29-4.58-4-5.64-10.98-5.95-14.55-.49-5.65,2.04-16.16,6.8-15.31"/>
    <path class="cls-2" d="m197.26,722.6c-.73-3.08.55-6.45,2.91-8.55,2.36-2.1,5.66-2.99,8.81-2.75,1.46.11,3.03.54,3.87,1.74.78,1.12.69,2.69.06,3.9-.63,1.21-1.73,2.12-2.89,2.84-3.97,2.49-8.27,4.17-12.76,2.83"/>
    <path class="cls-8" d="m191.38,739.29s.04-.4.16-1.12c.14-.79.33-1.8.55-3.02.51-2.53,1.16-6.14,3.12-9.66,1.94-3.5,4.65-6.08,6.93-7.36,1.13-.66,2.13-1.05,2.83-1.25.35-.12.63-.16.81-.21.19-.04.29-.05.29-.04.03.09-1.59.38-3.79,1.74-2.2,1.32-4.82,3.87-6.73,7.32-1.92,3.44-2.62,7.01-3.19,9.52-.28,1.27-.5,2.29-.68,3-.17.71-.29,1.09-.31,1.09Z"/>
    <path class="cls-8" d="m191.55,691.92s.03.17.06.49c.02.36.05.83.08,1.4.07,1.22.14,2.98.21,5.16.14,4.36.25,10.39.22,17.05-.03,6.66-.19,12.69-.37,17.05-.09,2.18-.18,3.94-.25,5.16-.04.57-.07,1.04-.1,1.4-.03.32-.05.49-.06.49-.01,0-.02-.17-.02-.49,0-.36.01-.83.02-1.4.03-1.27.07-3.02.13-5.16.11-4.36.23-10.38.26-17.04.03-6.65-.04-12.68-.11-17.04-.03-2.14-.06-3.9-.08-5.17,0-.58,0-1.04,0-1.41,0-.32.01-.49.02-.49Z"/>
    <path class="cls-2" d="m189.32,725.91c-1.04-6.59-5.48-12.54-11.49-15.42-1.53-.73-3.53-1.21-4.79-.07-1.26,1.14-.98,3.19-.36,4.77,2.57,6.59,9.46,11.25,16.54,11.17"/>
    <path class="cls-8" d="m178.57,715.65s.36.13.97.42c.31.15.69.33,1.1.59.41.26.91.51,1.4.88.5.35,1.06.73,1.6,1.2.57.44,1.12.98,1.7,1.55,1.13,1.16,2.27,2.55,3.24,4.16.96,1.62,1.65,3.27,2.13,4.82.22.78.43,1.52.54,2.24.15.71.21,1.38.27,1.99.08.61.06,1.17.08,1.65.02.49,0,.9-.04,1.24-.05.68-.09,1.06-.12,1.05-.09,0,.07-1.51-.2-3.92-.08-.6-.15-1.26-.32-1.95-.12-.7-.34-1.43-.57-2.19-.5-1.52-1.18-3.14-2.12-4.73-.95-1.58-2.06-2.95-3.16-4.11-.56-.57-1.1-1.1-1.65-1.55-.53-.48-1.07-.86-1.55-1.23-1.97-1.41-3.35-2.04-3.31-2.12Z"/>
  </g>
  <g>
    <path class="cls-2" d="m654.29,667.39c3.43,1.49,5.95,4.66,7.22,8.18,1.27,3.52,1.38,7.36.96,11.08-.81,7.19-4.9,14.45-9.3,20.19-6.05-5.28-7.45-14.5-7.86-19.22-.65-7.46,2.7-21.34,8.98-20.23"/>
    <path class="cls-2" d="m660.21,718.7c-.97-4.06.72-8.52,3.84-11.3,3.12-2.78,7.48-3.95,11.64-3.64,1.93.15,4.01.71,5.11,2.29,1.03,1.48.92,3.55.08,5.15s-2.28,2.8-3.81,3.76c-5.25,3.29-10.93,5.51-16.86,3.73"/>
    <path class="cls-8" d="m652.44,740.74s.05-.53.22-1.48c.19-1.04.44-2.38.73-3.99.67-3.34,1.53-8.11,4.12-12.75,2.56-4.63,6.14-8.04,9.15-9.73,1.5-.87,2.81-1.38,3.73-1.65.46-.15.83-.21,1.07-.27.25-.05.38-.07.38-.05.04.12-2.1.5-5,2.29-2.91,1.74-6.37,5.11-8.89,9.66-2.54,4.54-3.45,9.25-4.22,12.57-.37,1.67-.66,3.03-.9,3.96-.23.93-.38,1.44-.42,1.43Z"/>
    <path class="cls-8" d="m652.67,678.18s.04.22.07.64c.03.48.06,1.09.11,1.85.09,1.61.18,3.94.27,6.82.19,5.76.33,13.72.3,22.52-.04,8.8-.25,16.76-.49,22.52-.12,2.88-.23,5.21-.33,6.82-.05.76-.09,1.37-.13,1.85-.03.42-.06.64-.08.64-.02,0-.03-.22-.03-.65,0-.48.02-1.09.03-1.86.04-1.68.1-3.99.17-6.82.14-5.76.3-13.72.34-22.51.04-8.79-.05-16.74-.14-22.5-.04-2.83-.08-5.15-.11-6.82,0-.76,0-1.38-.01-1.86,0-.42.01-.65.03-.65Z"/>
    <path class="cls-2" d="m649.73,723.08c-1.38-8.7-7.24-16.56-15.18-20.37-2.02-.97-4.66-1.6-6.33-.1-1.67,1.51-1.29,4.21-.48,6.31,3.39,8.71,12.5,14.86,21.84,14.75"/>
    <path class="cls-8" d="m635.53,709.53s.47.17,1.28.56c.41.19.91.43,1.45.77.54.34,1.2.67,1.85,1.16.66.47,1.4.96,2.11,1.59.75.59,1.48,1.29,2.25,2.04,1.49,1.54,2.99,3.37,4.28,5.49,1.26,2.13,2.18,4.32,2.82,6.37.29,1.03.57,2.01.71,2.96.2.93.28,1.82.36,2.62.11.8.07,1.54.1,2.18.03.64-.01,1.19-.05,1.64-.07.9-.12,1.4-.16,1.39-.12,0,.09-2-.27-5.18-.1-.79-.2-1.66-.42-2.58-.16-.93-.45-1.89-.75-2.9-.65-2-1.56-4.15-2.8-6.24-1.26-2.08-2.72-3.89-4.17-5.43-.74-.75-1.45-1.46-2.18-2.05-.69-.63-1.41-1.14-2.05-1.62-2.6-1.86-4.42-2.69-4.37-2.8Z"/>
  </g>
  <g>
    <path class="cls-8" d="m667.5,86.07c-.03.07-1.25-.43-3.55-.94-2.3-.5-5.74-.95-9.92-.38-4.15.56-9.07,2.22-13.37,5.77-4.29,3.48-7.97,8.74-9.44,14.98-.01.06-.03.11-.04.17l-.28,1.07-.41-1.02c-2.4-5.93-6.67-10.65-11.3-13.64-4.64-3.05-9.63-4.32-13.8-4.6-4.19-.29-7.59.31-9.86.9-2.28.6-3.48,1.13-3.5,1.06,0-.02.28-.16.86-.41.57-.25,1.43-.58,2.57-.92,2.26-.68,5.7-1.37,9.97-1.14,4.24.22,9.36,1.46,14.13,4.55,4.75,3.03,9.14,7.84,11.61,13.93l-.69.06c.01-.05.03-.11.04-.17,1.51-6.42,5.3-11.8,9.72-15.34,4.43-3.6,9.49-5.26,13.72-5.76,4.26-.51,7.75.02,10.05.61,1.16.29,2.04.59,2.62.83.58.23.88.37.87.39Z"/>
    <path class="cls-8" d="m677.24,20.42c-.02.06-.7-.2-1.97-.46-1.26-.26-3.15-.48-5.43-.16-2.26.32-4.94,1.24-7.27,3.17-2.33,1.9-4.33,4.77-5.13,8.16l-.02.09-.27,1.07-.41-1.02c-1.31-3.23-3.63-5.8-6.15-7.44-2.52-1.67-5.24-2.37-7.52-2.54-2.29-.17-4.15.14-5.4.44-1.25.31-1.92.58-1.94.52,0-.02.15-.11.46-.26.31-.15.78-.34,1.41-.53,1.25-.39,3.14-.79,5.51-.68,2.35.11,5.19.78,7.84,2.49,2.64,1.68,5.08,4.34,6.45,7.73l-.69.06.02-.09c.84-3.57,2.95-6.56,5.41-8.51,2.47-1.99,5.28-2.9,7.63-3.16,2.36-.27,4.29.04,5.56.39.64.17,1.12.35,1.43.49.32.14.48.22.47.24Z"/>
    <path class="cls-8" d="m566.02,16.32s-.68.78-1.91,2.16c-1.23,1.38-2.91,3.48-4.66,6.29-3.52,5.53-7.03,14.35-6.91,24.46,0,.11,0,.21,0,.31l-.72.06c-.75-4.94-2.39-9.46-4.47-13.25-2.07-3.8-4.51-6.88-6.81-9.2-2.3-2.33-4.39-3.97-5.9-5.01-1.51-1.04-2.38-1.57-2.35-1.62.01-.02.24.09.67.32.42.24,1.07.55,1.83,1.07,1.57.97,3.73,2.57,6.11,4.88,2.38,2.3,4.89,5.4,7.03,9.24,2.14,3.83,3.84,8.43,4.61,13.46l-.72.06c0-.1,0-.21,0-.31-.12-10.29,3.54-19.22,7.2-24.75,1.82-2.8,3.58-4.87,4.88-6.2.63-.69,1.19-1.16,1.54-1.5.36-.33.56-.5.58-.48Z"/>
  </g>
  <g>
    <path class="cls-8" d="m216.23,430.95c0,.25-23.87.44-53.32.44s-53.32-.2-53.32-.44,23.87-.44,53.32-.44,53.32.2,53.32.44Z"/>
    <path class="cls-8" d="m184.29,417.45c0,.25-23.87.45-53.32.45s-53.32-.2-53.32-.45,23.87-.44,53.32-.44,53.32.2,53.32.44Z"/>
  </g>
  <g>
    <path class="cls-8" d="m453.69,637.51c0,.25-13.78.44-30.77.44s-30.78-.2-30.78-.44,13.78-.44,30.78-.44,30.77.2,30.77.44Z"/>
    <path class="cls-8" d="m435.25,624.01c0,.25-13.78.44-30.77.44s-30.78-.2-30.78-.44,13.78-.44,30.78-.44,30.77.2,30.77.44Z"/>
  </g>
  <g>
    <g>
      <circle class="cls-12" cx="101.02" cy="55.67" r="25.05"/>
      <path class="cls-12" d="m101.02,80.74c-3.38,0-6.67-.66-9.76-1.97-2.99-1.26-5.67-3.07-7.97-5.37-2.3-2.3-4.11-4.98-5.37-7.97-1.31-3.09-1.97-6.37-1.97-9.76s.66-6.67,1.97-9.76c1.26-2.99,3.07-5.67,5.37-7.97,2.3-2.3,4.98-4.11,7.97-5.37,3.09-1.31,6.38-1.97,9.76-1.97s6.67.66,9.76,1.97c2.99,1.26,5.67,3.07,7.97,5.37,2.3,2.3,4.11,4.98,5.37,7.97,1.31,3.09,1.97,6.37,1.97,9.76s-.66,6.67-1.97,9.76c-1.26,2.99-3.07,5.67-5.37,7.97-2.3,2.3-4.98,4.11-7.97,5.37-3.09,1.31-6.38,1.97-9.76,1.97Z"/>
    </g>
    <g>
      <path class="cls-12" d="m97.45,111.68c-.15,0-.26-4.63-.26-10.33s.12-10.33.26-10.33.26,4.62.26,10.33-.12,10.33-.26,10.33Z"/>
      <path class="cls-12" d="m97.45,111.7s-.14,0-.21-3.05c-.05-1.95-.08-4.54-.08-7.31s.03-5.36.08-7.31c.08-3.05.17-3.05.21-3.05s.13,0,.21,3.05c.05,1.95.08,4.55.08,7.31s-.03,5.35-.08,7.31c-.08,3.05-.17,3.05-.21,3.05Zm0-20.64c-.12.38-.24,4.3-.24,10.28s.12,9.9.24,10.28c.12-.38.24-4.3.24-10.28s-.12-9.9-.24-10.28Z"/>
    </g>
    <g>
      <path class="cls-12" d="m83.02,85.19c.13.07-2.23,4.39-5.26,9.64-3.03,5.25-5.59,9.45-5.72,9.37-.13-.07,2.23-4.39,5.26-9.64,3.03-5.25,5.59-9.45,5.72-9.37Z"/>
      <path class="cls-12" d="m72.04,104.23s-.01,0-.02,0c-.04-.02-.12-.07,1.44-2.91.99-1.82,2.35-4.22,3.82-6.76,1.47-2.54,2.87-4.91,3.95-6.68,1.52-2.49,1.73-2.71,1.79-2.71,0,0,.01,0,.01,0,.04.02.12.07-1.44,2.91-.99,1.82-2.35,4.22-3.82,6.76-2.6,4.5-5.49,9.32-5.73,9.39,0,0,0,0-.01,0Zm10.95-19c-.31.3-2.49,3.84-5.67,9.34-3.18,5.5-5.15,9.17-5.26,9.58.31-.3,2.49-3.84,5.67-9.34,3.18-5.5,5.15-9.17,5.26-9.58Z"/>
    </g>
    <g>
      <path class="cls-12" d="m68.2,75.97c.09.11-2.53,2.35-5.85,4.99-3.32,2.64-6.09,4.69-6.18,4.57-.09-.11,2.53-2.35,5.85-4.99,3.32-2.64,6.09-4.69,6.18-4.57Z"/>
      <path class="cls-12" d="m56.18,85.56s-.02,0-.03-.01c-.03-.03-.08-.11,1.65-1.58,1.11-.94,2.6-2.16,4.21-3.44,2.81-2.23,5.91-4.58,6.18-4.58,0,0,0,0,0,0,.01,0,.02,0,.03.01h0s0,.02,0,.03c-.03.24-3.04,2.75-5.86,4.99-1.61,1.28-3.13,2.46-4.3,3.32-1.5,1.11-1.81,1.26-1.89,1.26Zm11.99-9.57c-.28.07-2.75,1.88-6.13,4.57-3.49,2.78-5.71,4.69-5.84,4.94.27-.07,2.64-1.8,6.13-4.57,3.38-2.69,5.7-4.69,5.84-4.94Zm0,0h0Z"/>
    </g>
    <g>
      <path class="cls-12" d="m122.44,101.5c-.08.01-.3-.97-.66-2.54-.36-1.58-.87-3.75-1.51-6.13-.64-2.38-1.29-4.52-1.77-6.06-.48-1.55-.78-2.5-.7-2.53.07-.02.49.89,1.06,2.41.57,1.52,1.28,3.65,1.92,6.05.64,2.39,1.1,4.59,1.37,6.19.27,1.6.36,2.6.29,2.61Z"/>
      <path class="cls-12" d="m122.44,101.52c-.09,0-.19-.39-.68-2.56-.34-1.47-.86-3.7-1.51-6.13-.67-2.48-1.33-4.65-1.77-6.06v-.03c-.65-2.06-.77-2.5-.69-2.53.03-.01.08-.03.37.64.2.45.45,1.08.72,1.79.39,1.04,1.16,3.2,1.93,6.05.76,2.85,1.18,5.11,1.37,6.2.24,1.43.36,2.53.3,2.63,0,.01-.02.01-.02.01h0s0,0,0,0Zm-4.63-17.25c0,.18.32,1.19.71,2.45v.03c.45,1.41,1.11,3.58,1.78,6.06.65,2.43,1.17,4.66,1.51,6.13.29,1.25.53,2.34.63,2.5.02-.16-.05-1.02-.31-2.57-.18-1.09-.6-3.34-1.37-6.19-.77-2.85-1.53-5.01-1.92-6.04-.55-1.47-.92-2.25-1.02-2.38Z"/>
    </g>
    <g>
      <path class="cls-12" d="m147.84,83.47c-.1.11-3.41-2.63-7.4-6.12-3.99-3.49-7.15-6.41-7.06-6.52.1-.11,3.41,2.63,7.4,6.12,3.99,3.49,7.15,6.41,7.06,6.52Z"/>
      <path class="cls-12" d="m147.83,83.5c-.26,0-4.01-3.15-7.41-6.13-1.93-1.69-3.73-3.3-5.06-4.53-2.09-1.93-2.03-1.99-2-2.03,0,0,.01-.01.03-.01h0c.26,0,4.01,3.15,7.41,6.13,1.93,1.69,3.73,3.29,5.06,4.53,2.09,1.93,2.03,1.99,2,2.03h0s-.01.01-.03.01h0Zm-14.42-12.64c.18.32,2.85,2.81,7.04,6.47,4.19,3.66,7.01,5.97,7.35,6.11-.19-.32-2.85-2.81-7.04-6.47-4.19-3.66-7.01-5.97-7.35-6.11Z"/>
    </g>
    <g>
      <path class="cls-12" d="m157.57,58.7c-.02.08-1.17-.13-3.02-.43-1.86-.31-4.42-.71-7.27-1.03-2.85-.33-5.44-.52-7.32-.64-1.88-.12-3.04-.18-3.04-.26,0-.07,1.17-.14,3.06-.11,1.89.02,4.5.16,7.36.49,2.86.33,5.44.79,7.28,1.19,1.84.4,2.97.73,2.95.8Z"/>
      <path class="cls-12" d="m157.48,58.74c-.22,0-.83-.1-2.34-.35l-.59-.1c-2.54-.42-4.98-.77-7.27-1.03-2.27-.26-4.74-.47-7.31-.64l-.6-.04c-2.07-.13-2.47-.16-2.47-.25,0,0,0-.02.01-.02.09-.08,1.43-.13,3.07-.11,1.3.02,3.99.1,7.36.49,3.38.39,6.01.91,7.28,1.19,1.6.35,2.9.7,2.97.81,0,.01,0,.02,0,.03h0s-.04.03-.11.03Zm-20.51-2.41c.18.06,1.12.12,2.4.2l.6.04c2.58.16,5.04.38,7.32.64,2.28.26,4.73.61,7.27,1.03l.59.1c1.2.2,2.11.35,2.35.35,0,0,.02,0,.03,0-.18-.1-1.21-.39-2.91-.77-1.27-.28-3.9-.8-7.28-1.19-3.37-.39-6.06-.47-7.36-.49-1.74-.02-2.81.03-3.01.09Z"/>
    </g>
    <g>
      <path class="cls-12" d="m157.6,34.34c.03.14-5.39,1.58-12.11,3.22-6.72,1.64-12.2,2.85-12.24,2.71-.03-.14,5.39-1.58,12.11-3.22,6.72-1.64,12.2-2.85,12.23-2.71Z"/>
      <path class="cls-12" d="m133.31,40.3c-.07,0-.08-.02-.08-.03-.01-.05-.03-.13,3.54-1.08,2.29-.61,5.34-1.38,8.59-2.17,3.25-.79,6.32-1.51,8.63-2.02,3.61-.8,3.63-.71,3.64-.67h0s.03.13-3.54,1.08c-2.29.61-5.34,1.38-8.59,2.17-3.25.79-6.31,1.51-8.63,2.02-2.64.58-3.36.7-3.56.7Zm24.24-5.95c-.5,0-5.13,1.01-12.17,2.72-7.04,1.71-11.62,2.96-12.06,3.18.5,0,5.14-1.01,12.17-2.72,7.04-1.71,11.62-2.95,12.06-3.18Z"/>
    </g>
    <g>
      <path class="cls-12" d="m129.3,5.96c.12.08-2.47,4.22-5.79,9.24-3.32,5.03-6.11,9.03-6.23,8.95-.12-.08,2.47-4.22,5.79-9.24,3.32-5.02,6.11-9.03,6.23-8.95Z"/>
      <path class="cls-12" d="m117.27,24.18s-.01,0-.02,0c0,0-.01-.01-.02-.02-.05-.24,2.95-4.95,5.8-9.26,1.61-2.43,3.14-4.7,4.32-6.39,1.81-2.6,1.91-2.6,1.95-2.57h0s.11.07-1.6,2.8c-1.1,1.75-2.58,4.05-4.19,6.48-1.6,2.43-3.14,4.7-4.32,6.39-1.65,2.36-1.88,2.57-1.94,2.57Zm12-18.18c-.32.28-2.7,3.66-6.19,8.92-3.48,5.27-5.66,8.78-5.79,9.19.32-.28,2.7-3.66,6.18-8.92,3.48-5.26,5.66-8.78,5.79-9.19Z"/>
    </g>
    <g>
      <path class="cls-12" d="m101.21.03c.08,0,.07,1.32.04,3.44-.03,2.12-.07,5.05-.07,8.28,0,3.24.05,6.16.09,8.28.03,2.12.05,3.43-.03,3.44-.07,0-.21-1.3-.34-3.42-.13-2.12-.24-5.06-.24-8.3,0-3.24.1-6.18.22-8.3.13-2.12.27-3.43.34-3.43Z"/>
      <path class="cls-12" d="m101.23,23.5s-.08-.04-.17-.94c-.07-.64-.13-1.5-.2-2.51-.09-1.43-.24-4.4-.24-8.3,0-3.88.14-6.87.22-8.3.06-1.01.13-1.87.19-2.51.09-.9.14-.94.17-.94h0c.08,0,.11.32.06,3.47-.03,2-.07,5.02-.07,8.28,0,3.17.05,6.05.08,8.15v.13c.06,3.15.03,3.46-.05,3.46,0,0,0,0,0,0Zm-.02-23.42c-.07.22-.19,1.41-.31,3.37-.09,1.43-.23,4.41-.22,8.3,0,3.9.15,6.87.24,8.3.12,1.96.25,3.15.32,3.37.06-.29.03-2.14,0-3.38v-.13c-.04-2.1-.08-4.98-.09-8.15,0-3.26.04-6.28.07-8.28.02-1.25.04-3.1-.01-3.38Z"/>
    </g>
    <g>
      <path class="cls-12" d="m79.94,26.52c-.12.08-2.76-4.02-5.89-9.14-3.13-5.12-5.57-9.34-5.44-9.41.12-.08,2.76,4.01,5.89,9.14,3.13,5.12,5.57,9.34,5.44,9.41Z"/>
      <path class="cls-12" d="m79.94,26.54c-.06,0-.28-.21-1.84-2.63-1.11-1.73-2.56-4.04-4.07-6.52-2.68-4.39-5.51-9.19-5.45-9.43,0-.01.01-.02.02-.02.04-.02.11-.07,1.85,2.63,1.11,1.73,2.56,4.04,4.07,6.52,1.51,2.48,2.91,4.82,3.94,6.6,1.61,2.78,1.53,2.82,1.49,2.85h0s0,0-.02,0Zm-11.31-18.53c.11.41,2.16,3.99,5.44,9.36,3.28,5.37,5.53,8.82,5.84,9.11-.11-.41-2.16-3.99-5.44-9.36-3.28-5.37-5.53-8.82-5.84-9.11Z"/>
    </g>
    <g>
      <path class="cls-12" d="m67.24,37.32c-.01.07-1.03-.08-2.66-.42-1.63-.34-3.86-.89-6.3-1.61-2.44-.72-4.61-1.47-6.16-2.07-1.55-.6-2.49-1.02-2.47-1.09.03-.07,1.01.23,2.59.74,1.58.51,3.76,1.2,6.19,1.92,2.43.71,4.64,1.32,6.24,1.75,1.6.43,2.59.71,2.58.78Z"/>
      <path class="cls-12" d="m67.15,37.36c-.1,0-.28-.02-.64-.07-.5-.08-1.17-.2-1.94-.37-1.1-.23-3.38-.75-6.3-1.61-2.91-.86-5.11-1.67-6.17-2.07-.74-.28-1.37-.54-1.83-.74-.68-.31-.67-.35-.66-.38.03-.08.38,0,2.62.72,1.27.41,3.63,1.16,6.19,1.92,2.33.69,4.44,1.26,6.24,1.75,2.27.62,2.61.73,2.59.82h0s0,.04-.11.04Zm-17.46-5.22c.13.1.91.47,2.43,1.05,1.05.4,3.25,1.21,6.16,2.07,2.92.86,5.2,1.37,6.3,1.61,1.57.33,2.36.44,2.58.44.01,0,.03,0,.04,0-.18-.11-1.48-.46-2.54-.75-1.79-.49-3.9-1.06-6.24-1.75-2.56-.76-4.92-1.51-6.19-1.92-.99-.31-2.32-.74-2.54-.75Z"/>
    </g>
    <g>
      <path class="cls-12" d="m61.68,56.56c.01.14-3.56.61-7.99,1.03-4.43.43-8.03.65-8.04.51-.01-.14,3.56-.61,7.99-1.03,4.43-.43,8.03-.65,8.04-.51Z"/>
      <path class="cls-12" d="m46.11,58.17c-.27,0-.43-.01-.47-.04-.01,0-.01-.02-.01-.03,0,0,0-.02,0-.03.15-.19,4.24-.67,8.01-1.03,3.77-.36,7.87-.67,8.06-.51.01,0,.01.02.01.03h0s0,.02,0,.03c-.15.19-4.24.67-8.01,1.03-3.08.3-6.38.55-7.59.55Zm-.42-.07c.29.09,3.35-.08,8-.53,4.65-.45,7.69-.86,7.96-1-.28-.09-3.35.08-8,.53-4.65.45-7.69.86-7.96,1Z"/>
    </g>
  </g>
  <g>
    <g>
      <polygon class="cls-13" points="500.46 692.28 513.13 724.96 540.99 718.42 547.12 703.48 537.69 672.48 500.46 692.28"/>
      <g>
        <path class="cls-2" d="m548.54,699.62l.99,2.48s49.52.07,53.13,7.88l-85.25,33.03-9.67-28.34c14.92.86,28.44-3.63,40.81-15.05Z"/>
        <g class="cls-1">
          <path class="cls-9" d="m519.83,720.24c-1.48,1.08-1.91,3.35-.89,4.84,1.02,1.49,3.35,1.92,4.84.86,1.5-1.06,2.1-3.76.92-5.13-1.18-1.37-3.94-1.72-5.14-.34"/>
        </g>
        <g class="cls-1">
          <path class="cls-9" d="m517.41,743.01l-2.33-6.82,82.56-29.16s4.43.15,5.02,2.95l-85.26,33.03Z"/>
        </g>
        <path class="cls-8" d="m549.92,702.22c.15.42-1.86,1.41-3.4,3.52-1.59,2.07-1.96,4.25-2.41,4.24-.41.07-.74-2.62,1.16-5.14,1.88-2.54,4.59-3.03,4.65-2.61Z"/>
        <path class="cls-8" d="m560.27,702.39c.25.36-1.28,1.75-2.03,4.03-.81,2.26-.44,4.27-.86,4.41-.37.22-1.59-2.07-.61-4.89.95-2.82,3.33-3.94,3.49-3.56Z"/>
        <path class="cls-8" d="m569.44,710.94c-.34.23-1.72-1.59-1.52-4.24.18-2.66,1.8-4.3,2.11-4.03.37.25-.43,1.94-.56,4.12-.18,2.18.37,3.95-.03,4.15Z"/>
      </g>
    </g>
    <path class="cls-8" d="m394.41,487.71c.72,1.95,46.45,52.96,56.63,67.84,11.51,16.82,13.94,31.03,14.5,34.36,3.19,19.05,5.56,32.39,14.21,53.23,8.65,20.83,25.7,64.61,25.7,64.61l40.38-10.42s-23.8-101.55-25.96-118.48c-2.16-16.93-5.77-29.95-15.14-45.57-9.37-15.62-50.77-100.41-50.77-100.41l-65.41,27.5,5.86,27.34Z"/>
  </g>
  <g>
    <path class="cls-13" d="m365.08,343.39s13.23.19,15.17,1.4c1.94,1.21,9.73,7.2,9.73,8.62,0,1.41.55,2.36.55,2.36,0,0,4.89,6.75,2.68,9.76-2.21,3-3.83,3.88-3.79,4.78.04.9-.64,4.05-2.51,4.9-1.88.85-4.2,2.3-4.92,3.14-.72.83-1.51,2.43-2.96,3.51-1.45,1.08-4.23,1.98-4.23,1.98,0,0-1.56,2.94-4.36,2.68-2.8-.26-7.91-5.58-9.57-7.57-2.06-2.47-7.32-6.78-8.01-9.03-.69-2.25-1.57-3.94-1.57-3.94l-12.8-12.17,19.97-20.07,6.61,9.66Z"/>
    <path class="cls-10" d="m390.93,356.79c-.2.16-1.91-1.77-4.19-3.95-2.27-2.19-4.27-3.81-4.12-4.02.13-.2,2.41,1.14,4.74,3.38,2.34,2.24,3.77,4.46,3.57,4.59Z"/>
  </g>
  <path class="cls-11" d="m358.07,208.54s-15.21,12.88-18.8,16.11c-3.59,3.23-50.36,42.5-53.46,60.27-1.98,11.37,6.9,20.27,11.57,27.74,3.48,5.58,24.47,43.85,44.13,44.95,1.17.07,7.09,7.31,7.09,7.31l21.35-18.19s-5.12-6.32-8.08-11.94c-8.46-16.03-27.16-41.06-26.58-42.15,4.16-7.78-5.71-5.92-5.71-5.92l40.91-37.51-12.41-40.68Z"/>
  <path class="cls-8" d="m290.46,273.14s-2.96-5.29,0-9.7c2.96-4.41,44.6-38.08,44.6-38.08,0,0,2.04.53,3.52,3.88,1.48,3.35-46.08,45.49-46.08,45.49l-2.04-1.59Z"/>
  <path class="cls-8" d="m305.02,260.62s23.87,26.98,27.39,26.09c3.52-.88,19.99-13.4,20.73-17.45.74-4.06-22.76-32.44-22.76-32.44l-25.35,23.8Z"/>
  <g>
    <path class="cls-8" d="m271.12,88.92c5.25,1.24,9.34,5.49,14.14,8.1,9.01,4.9,19.92,3.59,28.51-.39,8.59-3.97,15.55-10.28,23.24-15.55,7.69-5.28,13.83-10.63,24.96-11.63,19.63-1.76,39.32,15.56,30.38,30.24l-16.49,5.75c-7.57,22.87-23.26,42.53-44.07,55.22-4.13,2.52-8.82,4.84-13.96,4.2-5.14-.64-10.38-5.55-9.29-10.23-8.16,1.67-16.56,3.28-25.11,2.01-8.55-1.28-17.41-6.05-21.21-13.73-3.8-7.67-.43-17.9,7.79-19.38-7.6-4.66-14.11-12.27-14.59-20.54-.48-8.27,7.14-16.09,15.69-14.07Z"/>
    <g>
      <path class="cls-8" d="m434.95,55.89c-10.63-2.89-20.54.35-30.26,5.55-9.71,5.21-17.47,13.74-22.44,23.58-5.22,10.36-7.42,22.39-5.29,33.8,2.13,11.41,8.76,22.08,18.55,28.32,13.37,8.51,31.6,7.77,45.11-.52,13.51-8.29,22.24-23.32,24.37-39.03,1.47-10.82-.04-22.18-5.23-31.79-5.19-9.61-14.22-17.29-24.82-19.91"/>
      <path class="cls-8" d="m400.62,89.66c1.98-3.98,1.82-8.66,2.87-12.98,2.32-9.52,6.74-17.94,16.1-20.83,8.71-2.69,22.97.51,32.73,4.75,6.69,2.91,12.82,7.44,16.88,13.5,5.39,8.05,6.52,18.78,2.92,27.77l-48.7-12c-5,3.38-10.11,6.81-15.93,8.39-1.71.47-3.52.76-5.24.32-1.71-.44-3.29-1.79-3.53-3.54-.27-1.91,1.02-3.65,1.88-5.37Z"/>
      <path class="cls-13" d="m391.19,179.81l8.57-93.38c.49-4.17,4.09-7.28,8.28-7.15l44.01-4.94c13.82.42,20.59,18.44,19.58,32.23-1.12,15.32-3.09,33.99-6.44,45.07-6.74,22.3-24.6,22.81-24.6,22.81,0-.08-.1.87-1.33,9.14,0,0-2.23,17.12-21.28,13.34-12.4-2.46-26.8-17.13-26.8-17.13Z"/>
      <path class="cls-8" d="m463.49,124.34c-.16,1.55-1.6,2.7-3.22,2.56-1.62-.13-2.81-1.5-2.65-3.05.16-1.55,1.6-2.7,3.22-2.57,1.62.13,2.81,1.5,2.66,3.05Z"/>
      <path class="cls-8" d="m466.29,115.68c-.41.33-2.41-1.61-5.55-2.03-3.14-.47-5.67.84-5.96.4-.14-.19.32-.83,1.42-1.43,1.09-.59,2.87-1.07,4.83-.8,1.96.28,3.51,1.23,4.35,2.09.87.87,1.1,1.61.9,1.76Z"/>
      <path class="cls-8" d="m436.1,120.21c-.16,1.55-1.6,2.7-3.22,2.56-1.62-.13-2.81-1.5-2.65-3.05.16-1.55,1.6-2.7,3.22-2.57,1.62.13,2.81,1.5,2.66,3.05Z"/>
      <path class="cls-8" d="m436.2,110.48c-.42.33-2.41-1.61-5.55-2.03-3.14-.47-5.67.84-5.96.4-.14-.19.32-.83,1.42-1.43,1.09-.59,2.87-1.07,4.83-.8,1.96.28,3.51,1.23,4.35,2.09.86.87,1.1,1.61.9,1.75Z"/>
      <path class="cls-8" d="m443.52,136.93c0-.18,2.01-.25,5.23-.22.81.03,1.6-.03,1.81-.56.27-.56.05-1.47-.21-2.45-.49-2.05-1-4.19-1.54-6.44-2.11-9.16-3.52-16.65-3.15-16.73.37-.08,2.38,7.28,4.49,16.43.5,2.26.98,4.41,1.43,6.46.18.95.56,2.06-.01,3.21-.3.57-.95.93-1.48.99-.54.09-.99.03-1.39,0-3.21-.26-5.19-.52-5.18-.7Z"/>
      <path class="cls-10" d="m440.6,174.45s-15.47-1.11-29.41-12.31c0,0,5.52,16.83,28.62,17.81l.79-5.5Z"/>
      <path class="cls-10" d="m441.15,144.33c-.93-1.65-2.8-2.74-4.79-2.8-1.39-.04-2.85.43-3.84,1.43-.98,1-1.37,2.55-.76,3.71.69,1.31,2.42,1.83,3.98,1.61,1.56-.22,2.99-1.03,4.35-1.85.38-.23.76-.46,1.03-.81.26-.34.37-.83.16-1.17"/>
      <path class="cls-8" d="m433.96,137.84c.52.04.06,3.46,2.65,6.28,2.58,2.83,6.28,2.94,6.24,3.42.02.22-.9.55-2.44.38-1.51-.15-3.65-.94-5.23-2.67-1.58-1.73-2.08-3.82-2-5.23.06-1.44.56-2.24.79-2.19Z"/>
      <path class="cls-8" d="m438.9,97.94c-.43.81-3.51-.02-7.26-.08-3.75-.13-6.87.54-7.26-.3-.17-.4.46-1.13,1.78-1.79,1.31-.66,3.32-1.19,5.57-1.13,2.25.06,4.23.69,5.5,1.42,1.28.73,1.87,1.5,1.68,1.88Z"/>
      <path class="cls-8" d="m467.25,101.8c-.65.64-2.72-.4-5.32-.79-2.59-.48-4.88-.18-5.28-.99-.17-.39.27-1.06,1.33-1.61,1.04-.54,2.71-.88,4.49-.58,1.78.3,3.25,1.16,4.05,2.02.82.86,1.02,1.64.73,1.95Z"/>
      <path class="cls-8" d="m393.37,82.23c5.75-12.7,27.01-28.69,40.71-26.1l20.5,15.82c-2.22,7.36-8.79,13.22-16.35,14.58-4.04.73-8.77.5-11.48,3.58-2.77,3.15-1.97,8.29-4.59,11.57-3.63,4.54-11.95,3.32-14.86,8.35-1.27,2.2-1.07,5.02-2.39,7.19-1.75,2.89-9.94,5.86-13.02,4.47-3.08-1.39-2.45-6.84-3.16-9.82-1.21-5.09-.18-7.53.73-10.19,2.15-6.29,1.18-13.39,3.93-19.45Z"/>
      <path class="cls-13" d="m401,125.5c.23-1.7-1.19-5.97-2.83-6.46-4.38-1.31-12.5-2.05-14.13,9.31-2.23,15.53,13.82,14.56,13.91,14.12.07-.34,2.26-11.1,3.04-16.96Z"/>
      <path class="cls-10" d="m394.06,135.9c-.06-.06-.3.15-.78.29-.48.14-1.26.17-2.03-.25-1.55-.84-2.56-3.64-2.24-6.45.16-1.42.65-2.72,1.31-3.76.64-1.07,1.49-1.76,2.33-1.78.85-.07,1.36.51,1.49.97.15.47,0,.76.08.8.04.05.37-.21.34-.87-.02-.32-.15-.71-.47-1.06-.33-.36-.85-.59-1.44-.61-1.21-.09-2.45.86-3.17,2-.79,1.14-1.38,2.6-1.56,4.19-.35,3.14.83,6.3,2.98,7.27,1.05.44,2.01.24,2.53-.06.54-.31.67-.65.62-.69Z"/>
      <path class="cls-8" d="m450.5,66.79c.82,6.49,9.68,15.57,13.43,20.93,7.16,10.22,8.45,13.51,6.32,34.58,4.53-6.91,8.14-13.76,8.65-22.01.51-8.25-1.72-16.77-6.86-23.24-5.14-6.47-13.29-10.65-21.55-10.26"/>
      <path class="cls-2" d="m385.43,81.25c-.02.06.9.38,2.59.92.84.28,1.88.59,3.1.86,1.22.28,2.61.66,4.17.9,3.11.6,6.86,1.02,11.05,1.19,4.19.1,8.8-.08,13.59-.74,4.79-.71,9.27-1.82,13.26-3.09,3.97-1.33,7.46-2.78,10.27-4.23,1.44-.66,2.66-1.42,3.75-2.03,1.1-.6,2.01-1.19,2.74-1.69,1.47-.98,2.26-1.55,2.23-1.6-.04-.05-.9.41-2.42,1.29-.75.45-1.68.99-2.8,1.54-1.11.56-2.34,1.27-3.79,1.89-2.83,1.36-6.31,2.73-10.25,4.01-3.96,1.21-8.4,2.29-13.13,2.99-4.74.65-9.3.86-13.44.8-4.14-.12-7.87-.47-10.96-.98-1.56-.19-2.94-.53-4.17-.76-1.23-.22-2.27-.48-3.12-.7-1.71-.42-2.66-.63-2.68-.57Z"/>
      <path class="cls-2" d="m382.72,92.28c-.02.06.61.28,1.77.62,1.15.35,2.85.75,4.97,1.13,4.23.77,10.22,1.26,16.78.63,6.56-.64,12.35-2.27,16.35-3.84,2.01-.78,3.6-1.49,4.66-2.06,1.07-.55,1.64-.89,1.61-.95-.07-.15-2.47,1-6.5,2.38-4.03,1.39-9.75,2.89-16.22,3.53-6.47.62-12.37.24-16.59-.36-4.22-.59-6.79-1.25-6.83-1.1Z"/>
    </g>
  </g>
  <g>
    <polygon class="cls-13" points="217.04 519.61 183.41 505.93 168.91 531.59 175.96 546.82 207.15 557.52 217.04 519.61"/>
    <g>
      <path class="cls-2" d="m177.9,550.64l-2.57-1.02s-34.64,37.29-43.08,34.45l34.49-87.76,28.24,12.85c-11.07,10.63-17.11,24.02-17.08,41.47Z"/>
      <g class="cls-1">
        <path class="cls-9" d="m182.31,514.33c.21-1.88-1.2-3.82-3.05-4.11-1.84-.29-3.79,1.16-4.03,3.04-.24,1.88,1.39,4.26,3.25,4.34,1.86.08,4.06-1.75,3.85-3.63"/>
      </g>
      <g class="cls-1">
        <path class="cls-9" d="m166.74,496.32l6.79,3.09-35.55,82.98s-3.21,3.23-5.74,1.69l34.49-87.76Z"/>
      </g>
      <path class="cls-8" d="m174.96,549.83c-.42-.19.24-2.41-.29-5.06-.46-2.67-1.86-4.5-1.53-4.83.24-.36,2.5,1.3,3.09,4.53.61,3.22-.91,5.61-1.26,5.36Z"/>
      <path class="cls-8" d="m167.6,557.52c-.45-.07-.43-2.22-1.64-4.39-1.15-2.21-2.93-3.36-2.74-3.78.09-.43,2.68.28,4.13,3.02,1.48,2.72.66,5.32.26,5.16Z"/>
      <path class="cls-8" d="m154.71,558.35c.06-.43,2.4-.17,4.28,1.87,1.89,2.02,2.01,4.41,1.58,4.45-.44.1-1.17-1.7-2.73-3.35-1.53-1.69-3.25-2.53-3.13-2.97Z"/>
    </g>
  </g>
  <path class="cls-8" d="m199.72,511.41s26.24,7.16,44.25,10.51c18.01,3.35,38.69,8.17,53.06,11.89,15.04,3.9,21.73,6.13,21.73,6.13,0,0,3.33,4.46,5.98-13.23,2.65-17.69,10.43-81.56,10.43-81.56l8.64-27.47,51.91-9.09,27.54,36.34s-24.9,80.82-33.37,97.55c-8.48,16.74-20.46,65.47-49.79,57.86-17.32-4.49-152.62-46.98-152.62-46.98l12.26-41.97Z"/>
  <g>
    <path class="cls-6" d="m332.32,468.15l-.23,1.81-.56,4.49,39.75-19.15s.26,18.27,37.66,32.4l4.75-8.26v-24.14l-28.86-22.44h-20.02l-31.8,23.92"/>
    <path class="cls-2" d="m412.65,479.72c.23.08-1.73,6.31-4.37,13.92-2.65,7.61-4.98,13.71-5.21,13.63-.23-.08,1.72-6.31,4.37-13.92,2.65-7.61,4.98-13.71,5.21-13.63Z"/>
    <path class="cls-2" d="m333.15,557.14c-.26.12-1.99-4.63-5.96-9.28-3.91-4.7-8.3-7.21-8.14-7.45.05-.09,1.21.41,2.91,1.54,1.7,1.13,3.89,2.95,5.91,5.33,2.01,2.39,3.43,4.86,4.25,6.73.83,1.87,1.13,3.1,1.02,3.13Z"/>
  </g>
  <g>
    <path class="cls-2" d="m337.71,398.03s-8.65,22.57-8.33,35.3c.32,12.73-4.66,38.23-4.66,38.23,0,0,46.7-25.06,50.17-28.1,0,0-3.44,25.15,36.26,36.87l3.48,1.31,12.18-36.74s7.37-11.28,10.58-20.54c3.2-9.26,7.69-26.33,7.69-26.33l-88.69-25.14-18.66,25.14Z"/>
    <path class="cls-2" d="m445.07,423.49s21.79,30.09,22.11,35.01l-55.44,10.99-5.13-21.12-2.24-21.99,40.7-2.89Z"/>
    <path class="cls-3" d="m360.46,224.59c.57,1.61,11.95,40.89,11.95,40.89l6.83,57.03s-11.51,33.73-21.18,44.78c-30.05,34.32-26.8,43.68-26.8,43.68,0,0,50.83-13.68,75.86-9.92,25.03,3.77,18.2,46.81,54.61,36.58l-.19-35.09s4.58-32.39,5.72-43.68c1.14-11.3-.4-51.96-.4-51.96,0,0,12.51-39.81,12.51-52.72s2.99-13.45-7.32-31.2c-10.31-17.75-25.67-41.43-25.67-41.43l-57.45-4.84-31.86,32.82,3.41,15.06Z"/>
    <path class="cls-8" d="m431.94,431.81c.23.08-2.98,10.66-7.18,23.63-4.2,12.98-7.8,23.44-8.03,23.36s2.98-10.66,7.18-23.64c4.2-12.98,7.79-23.44,8.03-23.36Z"/>
  </g>
  <path class="cls-11" d="m358.5,226.19c-7.57,2.03-14.27,4.38-22.55,0-8.27-4.38-15.18-12.57-15.31-21.93-.11-7.66-.12-21.76,6.02-26.34,6.14-4.57,34.46-9.2,50.29-9.15,60.98.18,68.84,10.19,78.53,15.26,0,0,1.53,6.14-3.68,9.51"/>
  <path class="cls-11" d="m353.29,214.79s1.78,33.6,4.22,46.29c2.44,12.68,12.62,50.7,12.62,50.7,0,0-5.61,2.11-4.77,9.71,0,0-6.07,5.28-6.76,16.89-.69,11.61,2.69,16.69,2.69,16.69l-6.56,13.18,109.96,20.79,1.85-12.42s7.97,5.16,9.41-18.75c1.45-23.91-1.4-41.77-.13-63.73,1.27-21.96,9.46-30.5,7.34-50.35-1.25-11.71-38.14-60.64-38.14-60.64,0,0-53.76-9.15-59.16-3.26-5.4,5.89-32.57,34.89-32.57,34.89Z"/>
  <g class="cls-14">
    <path class="cls-5" d="m470.01,318.34c-26.45-14.87-45.65-39.6-64.12-63.69l-1.92-4.81c1.91,10.07,2.43,24.09,4.34,34.16,1.55,8.17,3.12,16.41,6.26,24.11,3.14,7.7,8,14.93,14.94,19.52,11.9,7.87,28.19,6.58,40.76-.18,1.83-.99,3.84-2.47,3.8-4.55-.05-2.13-2.19-3.51-4.05-4.56Z"/>
  </g>
  <path class="cls-8" d="m350.93,236.58c.06-.02.42,1.01,1.02,2.88.61,1.87,1.41,4.6,2.35,7.99,1.89,6.77,4.19,16.2,6.6,26.64,2.41,10.44,4.65,19.88,6.42,26.67.87,3.29,1.58,6,2.12,8.04.51,1.9.76,2.96.7,2.97-.06.02-.42-1.01-1.03-2.88-.62-1.87-1.43-4.59-2.39-7.97-1.92-6.76-4.26-16.19-6.68-26.63-2.41-10.44-4.61-19.88-6.35-26.68-.85-3.29-1.55-6.01-2.07-8.05-.5-1.9-.74-2.96-.68-2.98Z"/>
  <path class="cls-8" d="m404.27,331.42c-.05.12-2.17-.73-5.59-2.1-3.42-1.36-8.14-3.24-13.49-4.88-5.35-1.64-10.33-2.62-13.97-3.06-3.64-.45-5.92-.49-5.92-.64,0-.06.57-.11,1.6-.13,1.03-.04,2.53,0,4.38.15,3.69.28,8.76,1.18,14.16,2.84,5.4,1.66,10.11,3.64,13.48,5.15,1.68.76,3.03,1.4,3.95,1.87.92.47,1.42.75,1.39.81Z"/>
  <path class="cls-8" d="m472.22,375.27s-.33.23-1,.61c-.67.37-1.71.82-3.1,1.27-2.79.87-7.07,1.34-12.25.79-10.33-1.27-24.31-4.4-39.68-8.09-15.36-3.74-29.23-7.27-39.32-9.59-4.97-1.11-9.04-2.02-11.96-2.67-1.34-.29-2.42-.53-3.26-.71-.74-.17-1.13-.28-1.13-.31,0-.03.4.02,1.16.13.84.14,1.93.32,3.29.55,2.85.51,6.97,1.32,12.03,2.4,10.13,2.17,24.03,5.6,39.39,9.34,15.35,3.69,29.32,6.92,39.54,8.33,5.12.63,9.32.26,12.09-.5,2.77-.78,4.15-1.64,4.2-1.55Z"/>
  <g class="cls-14">
    <path class="cls-5" d="m340.06,227.32c4.06,6.89,12.8,10.15,20.74,9.12,7.93-1.04,15.01-5.76,20.4-11.67,5.39-5.91,9.33-12.97,13.21-19.96,3.51-6.33,7.03-12.67,10.54-19-12.51,5.22-16.77,19.68-26.23,29.4-9.24,9.49-27.8,16.12-38.66,12.12"/>
  </g>
  <path class="cls-8" d="m406.01,185.9c.02.09-1.26.31-3.36,1.27-2.09.96-4.93,2.81-7.71,5.85-2.84,3-5.44,7.2-8.28,11.9-1.44,2.34-2.98,4.8-4.83,7.19-1.84,2.41-4.15,4.58-6.68,6.53-5.13,3.86-10.73,6.45-16.02,8.06-5.3,1.62-10.32,2.24-14.51,2.02-4.2-.21-7.53-1.3-9.53-2.53-1.02-.59-1.73-1.17-2.17-1.59-.44-.43-.66-.67-.64-.69.07-.08.95.89,2.98,1.98,2.01,1.1,5.27,2.07,9.39,2.2,4.11.14,9.04-.54,14.24-2.17,5.2-1.63,10.7-4.21,15.73-7.99,2.48-1.92,4.73-4.02,6.53-6.36,1.82-2.33,3.37-4.76,4.82-7.09,2.87-4.67,5.57-8.9,8.52-11.9,2.9-3.04,5.86-4.86,8.03-5.74,1.09-.44,1.97-.69,2.57-.82.6-.12.92-.17.93-.14Z"/>
  <path class="cls-8" d="m396.16,317.12c-.11.26-5.69-2.36-13.08-3.81-7.38-1.5-13.54-1.22-13.54-1.51,0-.11,1.53-.32,4.02-.33,2.49-.02,5.95.22,9.69.97,3.74.75,7.02,1.86,9.32,2.83,2.3.97,3.63,1.75,3.58,1.85Z"/>
  <path class="cls-8" d="m365.85,320.53c.13.11-1.3,1.65-3.02,4.51-.87,1.42-1.73,3.21-2.52,5.27-.75,2.07-1.39,4.4-1.77,6.91-.35,2.52-.39,4.94-.26,7.13.18,2.19.5,4.15.93,5.77.83,3.23,1.77,5.11,1.62,5.18-.06.03-.32-.42-.75-1.27-.23-.42-.48-.94-.71-1.58-.24-.63-.55-1.34-.76-2.16-.52-1.62-.91-3.62-1.14-5.87-.18-2.25-.16-4.74.2-7.33.39-2.58,1.08-4.98,1.89-7.08.85-2.09,1.8-3.89,2.76-5.3.44-.73.94-1.32,1.34-1.86.4-.54.79-.97,1.13-1.31.66-.69,1.04-1.04,1.08-1Z"/>
  <g class="cls-14">
    <path class="cls-5" d="m351.46,237.46c-1.34,8.3,1.12,16.79,5.81,23.78h0c-1.77-8.02-4.04-15.75-5.81-23.78Z"/>
  </g>
  <g>
    <path class="cls-13" d="m532.37,288.17s9.01-10.55,11.28-11.31c2.28-.76,12.33-3.03,13.47-2.09,1.14.95,2.28,1.14,2.28,1.14,0,0,8.72.57,9.67,4.36.95,3.79.57,5.69,1.33,6.26.76.57,2.84,3.22,2.28,5.31-.57,2.09-.95,4.93-.76,6.07.19,1.14.95,2.84.86,4.74-.1,1.9-1.23,4.74-1.23,4.74,0,0,1.33,3.22-.76,5.31-2.09,2.09-9.8,2.65-12.52,2.66-3.37,0-10.37,1.37-12.65.42-2.28-.95-4.23-1.37-4.23-1.37l-18.4,2.19-2.83-29.56,12.22,1.13Z"/>
    <path class="cls-10" d="m560.49,276.27c0,.26-2.71.33-6,.72-3.29.37-5.94.9-6.01.66-.07-.23,2.53-1.16,5.9-1.54,3.37-.39,6.11-.07,6.1.17Z"/>
  </g>
  <g>
    <path class="cls-11" d="m401.63,243.21c6.82,18.51,13.33,43.38,18.11,57.74,6.51,19.53,26.72,26.8,37.03,27.58,13.21.99,77.58-11.19,77.58-11.19l-2.98-32.39-7.29.18c-1.51-1.44-3.05-1.98-5.08-2.46-13.54-3.19-50.06-.51-50.06-.51,0,0-9.83-39.49-12-58.89-1.72-15.37-1.77-40.45-25.76-41.91-15.62.73-25.72,6.5-29.54,23.25"/>
    <path class="cls-11" d="m401.63,204.6s.04-.23.14-.69c.12-.48.28-1.15.49-2.01.53-1.74,1.27-4.38,3.01-7.47,1.68-3.09,4.53-6.63,9.02-9.16,4.46-2.58,10.36-3.83,16.86-4.18h.02s0,0,0,0c.86.11,1.74.22,2.62.33.89.11,1.79.19,2.67.49.89.25,1.79.5,2.69.76.86.4,1.73.8,2.61,1.21,3.44,1.81,6.48,4.74,8.62,8.4,2.17,3.65,3.55,7.9,4.49,12.35.95,4.46,1.45,9.16,1.93,13.98.85,9.65,2.79,19.78,4.98,30.37,2.21,10.59,4.74,21.65,7.55,33.06l-.44-.32c8.75-.59,17.85-1.01,27.21-1.06,4.68-.01,9.43.06,14.22.4,2.4.19,4.81.4,7.21.87,1.2.22,2.4.44,3.59.88,1.19.41,2.33,1.1,3.25,1.99l-.32-.12c2.31-.06,4.79-.12,7.29-.18h.42s.04.4.04.4c.01.14.03.3.04.46,1,10.94,1.99,21.69,2.93,31.94l.04.4-.39.07c-13.07,2.44-25.78,4.66-38.03,6.63-6.12.98-12.13,1.9-18.02,2.69-5.89.8-11.65,1.51-17.32,1.8-5.73.49-11.24-1.01-16.25-2.81-5-1.95-9.56-4.57-13.44-7.76-3.85-3.22-6.98-7.03-9.21-11.1-2.3-4.07-3.42-8.41-4.69-12.4-4.85-16.11-8.51-29.1-11.35-37.94-1.39-4.43-2.54-7.83-3.32-10.14-.39-1.13-.69-2-.9-2.61-.2-.59-.28-.9-.28-.9,0,0,.13.29.36.87.23.61.55,1.47.97,2.59.82,2.29,2.03,5.68,3.46,10.1,2.94,8.82,6.69,21.79,11.61,37.87,1.29,4,2.43,8.29,4.69,12.27,2.21,4,5.29,7.72,9.09,10.88,3.82,3.13,8.33,5.69,13.26,7.6,4.95,1.77,10.35,3.23,15.95,2.73,5.61-.3,11.37-1.02,17.24-1.83,5.88-.8,11.88-1.72,18-2.71,12.24-1.98,24.94-4.22,38-6.66l-.36.47c-.94-10.24-1.93-21-2.94-31.94-.01-.16-.03-.31-.04-.46l.45.4c-2.5.06-4.98.12-7.29.18h-.19s-.13-.12-.13-.12c-1.66-1.67-4.04-2.24-6.39-2.64-2.34-.46-4.74-.67-7.11-.86-4.76-.34-9.49-.41-14.15-.41-9.33.04-18.42.45-27.15,1.03l-.36.02-.08-.35c-2.8-11.43-5.31-22.5-7.5-33.1-2.16-10.61-4.09-20.78-4.91-30.47-.46-4.83-.95-9.49-1.87-13.91-.92-4.41-2.26-8.59-4.37-12.17-2.08-3.59-5.01-6.43-8.35-8.21-.86-.4-1.7-.8-2.54-1.19-.89-.25-1.77-.5-2.63-.75-.85-.3-1.74-.39-2.62-.5-.87-.11-1.73-.23-2.58-.34h.03c-6.46.31-12.29,1.5-16.69,4.01-4.43,2.46-7.28,5.91-8.97,8.95-1.76,3.04-2.55,5.65-3.12,7.37-.24.86-.43,1.52-.56,1.99-.13.45-.21.67-.21.67Z"/>
  </g>
  <path class="cls-8" d="m460.25,301.11c-.22-.19,3.56-3.59,5.92-9.21,2.44-5.58,2.31-10.66,2.59-10.64.1,0,.28,1.25.14,3.28-.14,2.03-.69,4.83-1.91,7.71-1.24,2.87-2.89,5.2-4.26,6.7-1.37,1.51-2.41,2.24-2.47,2.16Z"/>
  <path class="cls-8" d="m526.48,318.18c-.24.02-1.06-7.32-1.81-16.39-.76-9.07-1.17-16.44-.93-16.46.24-.02,1.06,7.32,1.81,16.39.76,9.07,1.17,16.44.93,16.46Z"/>
</svg>