<?xml version="1.0" encoding="UTF-8"?>
<svg id="Capa_1" data-name="Capa 1" xmlns="http://www.w3.org/2000/svg" viewBox="0 0 437.45 766.89">
  <defs>
    <style>
      .cls-1, .cls-2, .cls-3, .cls-4, .cls-5, .cls-6, .cls-7, .cls-8, .cls-9, .cls-10, .cls-11, .cls-12, .cls-13, .cls-14, .cls-15, .cls-16, .cls-17, .cls-18, .cls-19, .cls-20, .cls-21, .cls-22, .cls-23, .cls-24, .cls-25, .cls-26 {
        stroke-width: 0px;
      }

      .cls-1, .cls-4, .cls-22, .cls-26 {
        fill: #d268cc;
      }

      .cls-1, .cls-23 {
        opacity: .15;
      }

      .cls-2, .cls-11, .cls-12, .cls-19, .cls-21, .cls-25 {
        fill: #fff;
      }

      .cls-2, .cls-22 {
        opacity: .4;
      }

      .cls-3 {
        fill: #ff9a79;
      }

      .cls-5 {
        fill: #375a64;
      }

      .cls-6 {
        fill: #e1e1e1;
      }

      .cls-7 {
        fill: #ececec;
      }

      .cls-8 {
        fill: #ffbea7;
      }

      .cls-9 {
        opacity: .05;
      }

      .cls-10 {
        fill: #37474f;
      }

      .cls-11 {
        opacity: .5;
      }

      .cls-12 {
        opacity: .8;
      }

      .cls-13 {
        fill: #c76668;
      }

      .cls-14 {
        fill: #f5f5f5;
      }

      .cls-15 {
        fill: #f0f0f0;
      }

      .cls-16, .cls-26 {
        opacity: .2;
      }

      .cls-17 {
        fill: #1a2e35;
      }

      .cls-18 {
        fill: #ff9090;
      }

      .cls-27, .cls-25 {
        opacity: .3;
      }

      .cls-20 {
        fill: #fafafa;
      }

      .cls-21 {
        opacity: .7;
      }

      .cls-24 {
        opacity: .1;
      }
    </style>
  </defs>
  <ellipse id="Shadow" class="cls-6" cx="297.71" cy="686.21" rx="139.74" ry="80.68"/>
  <g>
    <g id="Bottom">
      <path class="cls-8" d="m369.92,641.66c-1.67-21.88,1.09-36.59-.82-70.75h0c-.17-8.75-.5-18.13-1.12-26.47-2.07-28.03-6.61-37.62-7.03-43.03,0,0-2.23-53.72-4.15-115.07-.9-28.86-9.68-37.6-16.69-52.91h-83.36c-9.31,37.8-15.26,130.22-14.98,169.18.14,19.86,6.74,113.93,6.91,116.38.6,8.67-1,13.6-2.7,16.86-4.88,9.35-16.98,14.43-26.34,21.09,1.36,3.41,12.61,3.29,18.18.69,8.9-4.15,17.74-10.48,20.77-12.62,7.69-5.42,17.52-9.77,17.64-18.03.02-1.03.31-1.31.26-1.47.15-4.82,11.37-64.38,12.35-80.87.84-14.18-.97-38.24-.97-38.24l12.9-70.07s7.37,45.6,13.36,69.84c4.87,19.73,12.91,53.4,18.4,77.68h0c5.27,27.97,12.83,45.83,14.16,59.84.4,3.34,4.38,36.16,6.02,43.68,1.64,7.52,18.84,7.72,19.94-5.21.73-8.61-2.43-36.39-2.74-40.5Z"/>
      <g>
        <path class="cls-17" d="m203.72,665.66c-.48,0-1.25,4.99,1.31,7.14,2.96,2.48,11.67,6.6,23.26,5.29,11.59-1.31,17.89-4.66,22.57-8.3,4.67-3.65,11.22-8.79,16.47-9.83,4.87-.97,10.18-3.02,11.75-4.43,1.57-1.42,1.43-7.79,1.43-7.79l-76.79,17.93Z"/>
        <path class="cls-10" d="m276.74,623.18s.87.04,1.16,1.51c.34,1.76.66,6.86,1.4,9.75,1.02,4.01,1.64,12.22.96,15.48-.67,3.25-8.63,5.44-13.71,7.23-5.2,1.83-11.22,5.63-16.52,9.71-5.49,4.22-16.97,8.39-24.52,8.41-11.52.04-18.94-3.01-21.2-6.98-2.79-4.91-.53-7.71,12.77-13.42,2.52-1.08,11.37-5.95,14.39-7.72,3.19-1.87,6.25-3.95,9.08-6.29.96-.79,2.04-1.59,2.74-2.6.69-1,1.26-2.08,1.75-3.18,1.01-2.27,1.71-4.65,2.68-6.93.2-.48.42-.96.78-1.35.82-.89,2.01-1.01,3.15-.95,1.51.08,3,.08,4.5.28,2.98.4,5.89,1.25,8.59,2.52.77.36,1.56.68,1.87,1.46.35.89.31,2.02.34,2.96.03.74,0,1.48,0,2.21,0,.31-.15.88.32.75.44-.12.94-1.22,1.12-1.59.38-.82.62-1.7,1.03-2.51.47-.92,1-1.87,1.68-2.65.63-.73,1.32-1.43,2.12-2.01.72-.52,1.64-.78,2.28-1.38.81-.75,1.18-2.1,1.26-2.72Z"/>
        <path class="cls-20" d="m214.93,655.82c16.66,1.26,21.8,11.13,22.44,17.2-4.15,1.35-8.42,2.24-11.86,2.25-11.52.04-19.41-3.01-21.67-6.98-2.64-4.63-.77-8.32,11.1-12.48Z"/>
        <g>
          <path class="cls-15" d="m239.92,656.24c.18,0,.36-.05.52-.17.35-.27.41-.76.13-1.09-2.29-2.73-8.94-6.38-15.01-5.82-.45.04-.78.42-.73.85.04.43.43.74.89.7,5.66-.51,11.77,3.08,13.58,5.24.16.19.39.29.63.29Z"/>
          <path class="cls-15" d="m247.14,652.33c.18,0,.36-.05.52-.17.35-.27.41-.76.13-1.09-2.29-2.73-8.95-6.39-15.01-5.82-.45.04-.78.42-.73.85.04.42.42.74.89.7,5.66-.52,11.77,3.08,13.58,5.24.16.19.39.29.63.29Z"/>
          <path class="cls-15" d="m253.85,647.84c.18,0,.36-.05.52-.17.35-.27.41-.75.13-1.09-2.29-2.73-8.97-6.39-15.01-5.82-.45.04-.78.42-.73.85.04.43.42.74.89.7,5.65-.52,11.77,3.08,13.58,5.24.16.19.39.29.63.29Z"/>
          <path class="cls-15" d="m260.41,643.36c.18,0,.36-.05.51-.16.36-.26.42-.75.14-1.09-3.15-3.87-10.34-6.48-16.4-5.91-.45.04-.78.42-.73.85.04.43.43.73.89.7,5.46-.51,12.16,1.88,14.95,5.32.16.2.39.3.63.3Z"/>
        </g>
      </g>
      <g>
        <path class="cls-17" d="m347.32,693.24c.46,7.49,1.68,12.46,4.47,16.85,2.79,4.39,8.05,5.77,13.38,4.49,5.33-1.29,12.16-4.73,13.69-11.19,1.53-6.46,2.42-10.89,1.21-17.84l-32.75,7.69Z"/>
        <path class="cls-10" d="m369.73,638.99c2.2.16,2.84,10.22,4.11,20.29,1.36,10.8,4.74,15.26,5.95,24.11,1.39,10.11-.37,14.63-4.09,20.75-3.72,6.12-16.88,12.11-23.37,3.36-5.29-7.14-5.51-15.06-5.03-25.15.5-10.44-.26-17.67-.71-25.59-.43-7.57-2.19-15.21-.28-16.05.15,1.11.29,2.52.45,3.62.19,1.34.2,2.75.71,4.04.22.56.71,1.15.91.24.14-.62.07-1.26,0-1.88-.32-2.79,1.15-3.02,1.95-3.23,1.73-.47,8.54-1.27,10.19-1.38,1.68-.11,7.47-.35,8.22.56.51.62.58,1.65.74,2.92.19,1.52.56,2.64.6,2.16.1-1.09-.12-3.92-.15-4.61-.03-.66-.14-1.55-.15-2.21,0-.65-.02-1.3-.06-1.94Z"/>
        <path class="cls-20" d="m380.41,689.25c.38,6.28-1.2,10.58-4.11,15.37-3.72,6.12-17.95,12.13-24.43,3.38-3.23-4.36-4.09-9.51-4.54-14.76,3.89-6.75,26.95-9.72,33.08-3.98Z"/>
        <g>
          <path class="cls-15" d="m352.12,682.24c.09,0,.18-.03.27-.07.09-.04,10.25-4.04,20.14-1.86.44.09.87-.17.98-.58.1-.42-.17-.84-.61-.93-10.46-2.3-20.83,1.8-21.21,1.97-.41.19-.58.65-.38,1.04.15.3.49.47.82.44Z"/>
          <path class="cls-15" d="m372.04,672.77c.31-.03.58-.23.69-.52.14-.41-.08-.85-.51-.99-9.85-3.18-20.78,1.59-21.19,1.8-.4.2-.55.67-.34,1.05.21.38.71.52,1.1.33.09-.04,10.74-4.67,19.91-1.7.11.04.23.05.34.04Z"/>
          <path class="cls-15" d="m371.69,665.66c.3-.03.58-.22.68-.51.15-.41-.07-.85-.49-.99-10.83-3.7-21.2,1.52-21.59,1.74-.38.22-.51.7-.27,1.07.23.37.74.48,1.12.26.08-.05,10.11-5.04,20.19-1.61.12.04.24.05.36.04Z"/>
          <path class="cls-7" d="m371.16,658.66c.3-.03.57-.21.68-.5.16-.4-.05-.85-.48-1-10.15-3.62-21.31,1.72-21.73,1.96-.39.21-.52.69-.3,1.06.22.37.72.51,1.11.28.1-.05,10.92-5.21,20.35-1.85.12.04.25.06.37.05Z"/>
        </g>
      </g>
      <g>
        <path class="cls-10" d="m342.34,333.7c9.88,17.16,19.03,28.89,20.9,81.56,1.81,51,2.77,75.81,2.98,81.96.21,6.15,3.76,16.21,6.08,46.59,2.01,26.44-1.72,81.64-1.72,81.64,0,0-4.08,6-14.57,7.13-10.49,1.14-13.79-3.61-13.79-3.61,0,0-19.11-73.81-23.37-92.06-4.26-18.25-18.07-88.37-18.07-88.37l-10.63,58.68s3.42,16.72,0,43.3c-3.42,26.57-10.65,65.83-10.65,65.83,0,0-6.44,1.79-16.03,1.65-9.6-.14-15.94-4.18-15.94-4.18,0,0-8.72-89.65-8.72-119.77,0-30.12,5.96-115.42,15.92-160.02l87.61-.33Z"/>
        <path class="cls-17" d="m261.57,384.65c2.23,10.02,16.1,15.37,23.73,17.11l9.12,48.18-4.26,57.28,10.63-58.68-9.1-52.62s-18.36.44-30.11-11.27Z"/>
      </g>
    </g>
    <g id="Top">
      <g id="Arm">
        <g>
          <path class="cls-5" d="m207.36,270.62s-20.44-12.72-28.47-18.25c-7.89-5.44-8.41-8.81-11.78-14.45l-14.89-2.6c.38,1.12-.22,1.83-3.82.99-7.2-1.66-19.53-12.66-22.61-14.82-3.09-2.16-3.95,1.99-2.9,5.02,1.06,3.03-.87,10.51.92,15.52,1.91,5.33,3.07,7.71,9.11,12.29,5.63,4.26,13.43,7.64,23.03,15.47,9.6,7.83,15.11,15.63,29.8,26.86,13.93,10.65,18.38,15.44,29.2,7.45l-7.6-33.49Z"/>
          <path class="cls-5" d="m147.64,220c2.29-3.14,3.57.28,7.6,5.24,4.03,4.96,8.49,7.03,11.86,12.68l-14.89-2.6c-.38-1.12-1.74-2.65-2.07-3.48-.64-1.65-4.8-8.7-2.51-11.84Z"/>
        </g>
        <path class="cls-7" d="m204.5,267.42s24.95-22.75,34.42-31.06c8.69-7.63,13.02-11.12,18.07-13.73,6.52-3.37,12.7-3.76,19.35-4.77l-4.06,47.35s-23.68,20.13-41.56,31.83c-8.54,5.59-17.36,11.68-25.64,12.42-4.75-.35-8.67-3.51-16.71-9.51-2.58-1.92-19.44-17.43-19.44-17.43,9.61-5.29,14.24-14.14,14.51-27.47l21.04,12.37Z"/>
      </g>
      <g id="Chest">
        <path id="Chest-2" data-name="Chest" class="cls-4" d="m322.89,214.88c16.76,3.76,21.79,5.39,29.72,7.23,0,0,14.76,41.78,7.66,70.9-1.63,6.7-2.86,25.17-3.98,39.43-.92,11.72-1.24,16.7,0,33.38,0,0-22.42,15.72-69.3,10.92-36.81-3.77-41.23-17.47-41.23-17.47,0,0,.89-50.3,2.58-77.47,2.22-35.69,12.84-57.03,16.99-61.89,1.31-.76,26.29-4.52,26.29-4.52l31.27-.52Z"/>
        <path id="Chest-3" data-name="Chest" class="cls-11" d="m322.89,214.88c16.76,3.76,21.79,5.39,29.72,7.23,0,0,14.76,41.78,7.66,70.9-1.63,6.7-2.86,25.17-3.98,39.43-.92,11.72-1.24,16.7,0,33.38,0,0-22.42,15.72-69.3,10.92-36.81-3.77-41.23-17.47-41.23-17.47,0,0,.89-50.3,2.58-77.47,2.22-35.69,12.84-57.03,16.99-61.89,1.31-.76,26.29-4.52,26.29-4.52l31.27-.52Z"/>
      </g>
      <g id="Coat">
        <path class="cls-14" d="m321.87,212.51l-.07,6.83c-2.09,10.79-4.8,16.88-5.86,37.88-1.08,21.39-.95,48.86-.74,86.95.24,43.98,1.8,121.78,1.8,121.78,0,0,39.46,8.68,55.53-12.81,0,0-2.7-46.65-4.82-79.15-1.46-22.41-3.82-43.64-3.22-50.32,1.49-16.37-1.63-31.44,0-49.23,1.51-16.56,7.26-36.04-11.9-52.33l-30.73-9.6Z"/>
        <path class="cls-23" d="m323.96,293.67c.97-4,2.05-7.95,3.19-11.87,1.15-3.92,2.42-7.78,3.7-11.62,1.26-3.71,2.5-7.43,3.89-11.09l-4.59-15.32-.17-.57.37-.36,5.63-5.55c-.65-2.66-1.31-5.31-1.91-7.98-.65-2.81-1.31-5.61-1.92-8.44.85,2.72,1.65,5.47,2.47,8.21.83,2.73,1.6,5.49,2.38,8.24l.11.38-.26.28-5.31,5.73,4.72,15.07.11.36-.14.38c-1.35,3.78-2.76,7.55-4.08,11.36-1.34,3.8-2.59,7.65-3.86,11.48-1.28,3.83-2.49,7.7-3.6,11.61-1.14,3.9-2.19,7.84-2.91,11.91.36-4.16,1.25-8.21,2.16-12.22Z"/>
        <path class="cls-14" d="m286.42,216.05c-6.91,1.6-14.91,11.06-20.47,31.07-5.55,20-6.31,43.92-7.47,66.02-1.16,22.09-4.01,130.18-4.01,130.18,0,0-7.57.29-14.06-2.07,0,0,4.33-138.44,7.04-166.81,2.77-29.01,9.48-47.46,17.87-54.51,5.79-2.06,9.05-3.29,21.13-6.74l-.03,2.87Z"/>
        <path class="cls-23" d="m253.31,289.25c-.27-3.09-.37-6.18-.51-9.27-.11-3.09-.14-6.18-.19-9.27-.11-6.18-.04-12.35.07-18.52v-.38s.23-.28.23-.28c3.85-4.92,7.75-9.78,11.7-14.6l-1.46-4.67-.14-.45.25-.3c1.67-1.96,3.29-3.97,4.99-5.89,1.69-1.93,3.36-3.89,5.09-5.78-1.48,2.17-7.68,9.99-9.14,11.96l1.36,4.89.18.49-.32.42c-3.81,5.03-7.67,10.01-11.58,14.93-.16,6.03-.54,36.72-.54,36.72Z"/>
      </g>
      <g id="Syringe">
        <path class="cls-4" d="m69.69,341.41c6.05,16.21,24.77,31.67,41.83,34.54,8.53,1.43,15.03-.55,18.63-4.92h0l148.35-179.67-.08-.07c2.94-4.37,3.38-10.69.58-18.19-6.05-16.21-24.77-31.67-41.83-34.54-7.89-1.33-14.05.28-17.78,3.98h0l-148.4,179.64c-3.61,4.37-4.33,11.13-1.31,19.23Z"/>
        <path class="cls-21" d="m69.69,341.41c6.05,16.21,24.77,31.67,41.83,34.54,8.53,1.43,15.03-.55,18.63-4.92h0l148.35-179.67-.08-.07c2.94-4.37,3.38-10.69.58-18.19-6.05-16.21-24.77-31.67-41.83-34.54-7.89-1.33-14.05.28-17.78,3.98h0l-148.4,179.64c-3.61,4.37-4.33,11.13-1.31,19.23Z"/>
        <path class="cls-4" d="m131.47,351.8c6.05,16.21-2.88,27.02-19.94,24.15-17.06-2.87-35.79-18.33-41.83-34.54-6.05-16.21,2.88-27.02,19.94-24.15,17.06,2.87,35.79,18.33,41.83,34.54Z"/>
        <path class="cls-12" d="m131.47,351.8c6.05,16.21-2.88,27.02-19.94,24.15-17.06-2.87-35.79-18.33-41.83-34.54-6.05-16.21,2.88-27.02,19.94-24.15,17.06,2.87,35.79,18.33,41.83,34.54Z"/>
        <path class="cls-4" d="m393.03,35c6.05,16.21-2.88,27.02-19.94,24.15-17.06-2.87-35.79-18.33-41.83-34.54-6.05-16.21,2.88-27.02,19.94-24.15,17.06,2.87,35.79,18.33,41.83,34.54Z"/>
        <path class="cls-21" d="m393.03,35c6.05,16.21-2.88,27.02-19.94,24.15-17.06-2.87-35.79-18.33-41.83-34.54-6.05-16.21,2.88-27.02,19.94-24.15,17.06,2.87,35.79,18.33,41.83,34.54Z"/>
        <path class="cls-26" d="m348.55,47.28c7.46,6.04,16.2,10.47,24.54,11.87,17.06,2.87,25.99-7.95,19.94-24.15-2.96-7.93-8.96-15.66-16.3-21.85l-28.18,34.13Z"/>
        <path class="cls-4" d="m390.14,38.5c6.05,16.21-2.88,27.02-19.94,24.15-17.06-2.87-35.79-18.33-41.83-34.54-6.05-16.21,2.88-27.02,19.94-24.15,17.06,2.87,35.79,18.33,41.83,34.54Z"/>
        <path class="cls-12" d="m390.14,38.5c6.05,16.21-2.88,27.02-19.94,24.15-17.06-2.87-35.79-18.33-41.83-34.54-6.05-16.21,2.88-27.02,19.94-24.15,17.06,2.87,35.79,18.33,41.83,34.54Z"/>
        <path class="cls-4" d="m239.41,158.49c-1.46,1.43-1.87,3.79-.78,6.71,2.02,5.4,8.26,10.56,13.94,11.51,2.84.48,5.01-.18,6.21-1.64h0s110.33-133.63,110.33-133.63h0c1.2-1.46,1.44-3.71.44-6.41-2.02-5.4-8.26-10.56-13.94-11.51-3.07-.52-5.31.33-6.44,2.03l-109.76,132.94Z"/>
        <path class="cls-21" d="m239.41,158.49c-1.46,1.43-1.87,3.79-.78,6.71,2.02,5.4,8.26,10.56,13.94,11.51,2.84.48,5.01-.18,6.21-1.64h0s110.33-133.63,110.33-133.63h0c1.2-1.46,1.44-3.71.44-6.41-2.02-5.4-8.26-10.56-13.94-11.51-3.07-.52-5.31.33-6.44,2.03l-109.76,132.94Z"/>
        <g class="cls-27">
          <g>
            <path class="cls-19" d="m238.24,163.87c.1.43.22.87.39,1.33.17.45.41.9.64,1.35L357.05,23.89c-.48-.14-.97-.29-1.45-.37-.48-.08-.94-.12-1.38-.13l-115.99,140.48Z"/>
            <path class="cls-19" d="m240.56,168.68c.74,1.03,1.6,2,2.56,2.91L362.73,26.71h0c-.51-.37-1.03-.7-1.56-1.02-.07-.04-.13-.08-.2-.12-.52-.3-1.04-.58-1.58-.83h0l-118.84,143.93Z"/>
          </g>
        </g>
        <path class="cls-26" d="m365.12,35.79c-.5,2.98-7.1,10.1-13.71,18.11-3.41,4.13-91.3,110.58-100.95,122.27.71.24,1.42.42,2.12.54,2.84.48,5.01-.18,6.21-1.64h0s110.33-133.63,110.33-133.63c1.2-1.46,1.44-3.71.44-6.41-2.02-5.4-8.26-10.56-13.94-11.51-.23-.04-.44-.05-.66-.08-1.54,0-2.53.07-2.53.07,4.7.37,13.43,7.89,12.69,12.28Z"/>
        <path class="cls-1" d="m238.63,165.2c2.02,5.4,8.26,10.56,13.94,11.51,2.84.48,5.01-.18,6.21-1.64h0s12.47-15.11,12.47-15.11c-5.29-6.54-12.23-12.28-19.65-16.25l-12.2,14.77c-1.46,1.43-1.87,3.79-.78,6.71Z"/>
        <g class="cls-27">
          <g>
            <path class="cls-19" d="m238.24,163.87c.1.43.22.87.39,1.33.17.45.41.9.64,1.35l16.71-20.24c-.71-.46-1.42-.91-2.14-1.33l-15.59,18.89Z"/>
            <path class="cls-19" d="m261.01,149.91c-1-.79-2.03-1.55-3.07-2.28l-17.38,21.06c.74,1.03,1.6,2,2.56,2.91l17.9-21.68Z"/>
          </g>
        </g>
        <path class="cls-9" d="m250.45,176.17c.71.24,1.42.42,2.12.54,2.84.48,5.01-.18,6.21-1.64h0s12.47-15.11,12.47-15.11c-1.2-1.49-2.5-2.93-3.86-4.32-4.8,5.81-11.08,13.42-16.95,20.53Z"/>
        <path class="cls-4" d="m219.47,182.64c-1.46,1.43-1.87,3.79-.78,6.71,2.02,5.4,8.26,10.56,13.94,11.51,2.84.48,5.01-.18,6.21-1.64h0l19.94-24.15h0c1.2-1.46,1.44-3.71.44-6.41-2.02-5.4-8.26-10.56-13.94-11.51-3.07-.52-5.31.33-6.44,2.03l-19.37,23.46Z"/>
        <path class="cls-11" d="m219.47,182.64c-1.46,1.43-1.87,3.79-.78,6.71,2.02,5.4,8.26,10.56,13.94,11.51,2.84.48,5.01-.18,6.21-1.64h0l19.94-24.15h0c1.2-1.46,1.44-3.71.44-6.41-2.02-5.4-8.26-10.56-13.94-11.51-3.07-.52-5.31.33-6.44,2.03l-19.37,23.46Z"/>
        <path class="cls-9" d="m219.47,182.64c-1.46,1.43-1.87,3.79-.78,6.71,2.02,5.4,8.26,10.56,13.94,11.51,2.84.48,5.01-.18,6.21-1.64h0l19.94-24.15h0c1.2-1.46,1.44-3.71.44-6.41-2.02-5.4-8.26-10.56-13.94-11.51-3.07-.52-5.31.33-6.44,2.03l-19.37,23.46Z"/>
        <g class="cls-27">
          <path class="cls-19" d="m246.73,157.52c-.48-.14-.97-.29-1.45-.37-.48-.08-.94-.12-1.38-.13l-18.93,22.93,1.93,1.59,19.83-24.02Z"/>
          <path class="cls-19" d="m249.07,158.38l-19.33,23.41,2.95,2.43,19.73-23.89c-1.07-.77-2.19-1.43-3.34-1.96Z"/>
        </g>
        <path class="cls-24" d="m259.22,168.66c-.25-.67-.56-1.33-.93-1.98-8.32,10.08-19.38,23.48-23.32,28.24.71.24,1.42.42,2.12.54,2.84.48,5.01-.18,6.21-1.64l15.48-18.75h0c1.2-1.46,1.44-3.71.44-6.41Z"/>
        <path class="cls-17" d="m238.11,215.54c14.22,2.39,21.66-6.62,16.63-20.12-5.03-13.5-20.64-26.39-34.86-28.78-14.22-2.39-21.66,6.61-16.63,20.12,5.04,13.51,20.65,26.39,34.86,28.78Z"/>
        <path class="cls-10" d="m236.33,217.69c14.22,2.39,21.66-6.62,16.63-20.12-5.03-13.5-20.64-26.39-34.86-28.78-14.22-2.39-21.66,6.61-16.63,20.12,5.04,13.51,20.65,26.39,34.86,28.78Z"/>
        <path class="cls-14" d="m75.93,326.25c-2.77,3.35-3.12,8.68-.42,15.21,5.41,13.06,21.02,25.94,34.86,28.78,6.92,1.42,12.09.06,14.86-3.28h0l125.08-151.5h0c3.01-3.64,3.61-9.27,1.1-16.02-5.03-13.5-20.64-26.39-34.86-28.78-7.11-1.2-12.53.46-15.54,4.1l-125.08,151.49Z"/>
        <path class="cls-14" d="m131.47,351.8c-6.04-16.21-24.77-31.67-41.83-34.54-2.1-.35-4.07-.49-5.9-.45l-7.8,9.44c-2.77,3.35-3.12,8.68-.42,15.21,5.41,13.06,21.02,25.94,34.86,28.78,6.92,1.42,12.09.06,14.86-3.28l7.79-9.44c-.3-1.82-.82-3.73-1.56-5.72Z"/>
        <path class="cls-5" d="m234.9,219.42c7.11,1.2,12.52-.46,15.53-4.1,3.01-3.64,3.61-9.27,1.1-16.02-5.03-13.5-20.64-26.39-34.86-28.78-7.11-1.2-12.53.46-15.54,4.1-3.01,3.64-3.61,9.27-1.09,16.02,2.52,6.75,2.81,19.25,9.12,24.45,6.31,5.21,18.63,3.13,25.74,4.33Z"/>
        <path class="cls-16" d="m245,207.69c-4.9,4.18-13.14,1.5-21.98,4.81-8.56,3.2-13.04,2.83-16.15.04.66.96,1.41,1.83,2.28,2.55,6.31,5.21,18.63,3.13,25.74,4.33,7.11,1.2,12.52-.46,15.53-4.1,3.01-3.64,3.61-9.27,1.1-16.02-5.03-13.5-20.55-26.44-34.98-28.8,30.78,11.76,33.6,32.8,28.45,37.19Z"/>
        <path class="cls-11" d="m234.9,219.42c7.11,1.2,12.52-.46,15.53-4.1,3.01-3.64,3.61-9.27,1.1-16.02-5.03-13.5-20.64-26.39-34.86-28.78-7.11-1.2-12.53.46-15.54,4.1-3.01,3.64-3.61,9.27-1.09,16.02,2.52,6.75,2.81,19.25,9.12,24.45,6.31,5.21,18.63,3.13,25.74,4.33Z"/>
        <path class="cls-11" d="m221.4,171.87c-1.62-.52-3.24-.94-4.84-1.21-2.02-.34-3.88-.43-5.61-.33l-131.92,159.78,6.97,5.76,135.4-163.99Z"/>
        <path class="cls-11" d="m229.92,175.68c-1.45-.83-2.94-1.57-4.43-2.23l-133.99,162.28,3.73,3.08,134.69-163.13Z"/>
        <path class="cls-24" d="m221.69,171.95c20.68,10.22,21.9,30.24,15.43,38.08-6.61,8.01-100.42,121.63-118.41,143.41l-.55,17.14c3.07-.46,5.48-1.7,7.07-3.63l125.08-151.5c3.01-3.64,3.61-9.27,1.1-16.02-4.43-11.88-16.99-23.37-29.72-27.49Z"/>
        <path class="cls-19" d="m110.37,370.24c13.84,2.84,20.68-5.44,15.28-18.49-5.4-13.05-21.01-25.94-34.86-28.78-13.85-2.85-20.69,5.43-15.28,18.49,5.41,13.06,21.02,25.94,34.86,28.78Z"/>
        <path class="cls-4" d="m72.49,350.49c-1.8,2.19-2.16,5.56-.65,9.61,3.02,8.1,12.39,15.84,20.92,17.27,4.26.72,7.51-.28,9.32-2.46h0l13.29-16.1h0c1.8-2.19,2.16-5.56.65-9.61-3.02-8.1-12.39-15.84-20.92-17.27-4.26-.72-7.51.28-9.32,2.46h0l-13.29,16.1h0Z"/>
        <path class="cls-21" d="m72.49,350.49c-1.8,2.19-2.16,5.56-.65,9.61,3.02,8.1,12.39,15.84,20.92,17.27,4.26.72,7.51-.28,9.32-2.46h0l13.29-16.1h0c1.8-2.19,2.16-5.56.65-9.61-3.02-8.1-12.39-15.84-20.92-17.27-4.26-.72-7.51.28-9.32,2.46h0l-13.29,16.1h0Z"/>
        <path class="cls-11" d="m96.25,332.22c-.38-.09-.77-.23-1.14-.29-1.19-.2-2.28-.25-3.3-.2l-19.01,23.02,2.88,2.38,20.57-24.91Z"/>
        <path class="cls-11" d="m101.24,333.97c-.87-.42-1.74-.78-2.62-1.09l-20.05,24.28,2.1,1.73,20.57-24.92Z"/>
        <path class="cls-22" d="m110.43,353.96c-1.89,2.29-3.35,4.05-10.35,12.54l-4.44,11.1c2.85-.06,5.06-1.02,6.44-2.68l13.29-16.1c1.8-2.19,2.16-5.56.65-9.61-3.02-8.1-12.39-15.84-20.92-17.27-1.19-.2-2.28-.25-3.3-.2,13.78,2.41,22.69,17.31,18.62,22.23Z"/>
        <path class="cls-4" d="m92.76,377.38c8.53,1.43,12.99-3.97,9.97-12.08-3.02-8.1-12.39-15.84-20.92-17.27-8.53-1.43-12.99,3.97-9.97,12.08,3.02,8.1,12.39,15.84,20.92,17.27Z"/>
        <path class="cls-12" d="m92.76,377.38c8.53,1.43,12.99-3.97,9.97-12.08-3.02-8.1-12.39-15.84-20.92-17.27-8.53-1.43-12.99,3.97-9.97,12.08,3.02,8.1,12.39,15.84,20.92,17.27Z"/>
        <path class="cls-4" d="m66.71,377.58c1.43,3.82,5.84,7.47,9.86,8.14,2.01.34,3.55-.13,4.4-1.17h0s13.29-16.09,13.29-16.09c.85-1.03,1.02-2.62.31-4.54-1.43-3.82-5.84-7.47-9.86-8.14-2.01-.34-3.54.13-4.39,1.16h0l-13.29,16.1h0c-.85,1.03-1.03,2.62-.31,4.54Z"/>
        <path class="cls-21" d="m66.71,377.58c1.43,3.82,5.84,7.47,9.86,8.14,2.01.34,3.55-.13,4.4-1.17h0s13.29-16.09,13.29-16.09c.85-1.03,1.02-2.62.31-4.54-1.43-3.82-5.84-7.47-9.86-8.14-2.01-.34-3.54.13-4.39,1.16h0l-13.29,16.1h0c-.85,1.03-1.03,2.62-.31,4.54Z"/>
        <path class="cls-11" d="m87.27,356.61c-.85-.38-1.72-.68-2.57-.82-.19-.03-.35-.02-.53-.04l-14.61,17.7,2.26,1.87,15.44-18.7Z"/>
        <path class="cls-11" d="m90.61,358.68c-.55-.46-1.15-.86-1.75-1.23l-14.76,17.88,1.65,1.36,14.87-18.01Z"/>
        <path class="cls-22" d="m82.57,355.79c3.31-.04,7.3,3.02,8.36,6.49,1.07,3.51-.57,5.06-2.87,7.84-2.3,2.78-5.85,7.09-10.35,12.54l.15,3.17c1.38-.01,2.46-.46,3.12-1.26h0s13.29-16.09,13.29-16.09c.85-1.03,1.02-2.62.31-4.54-1.43-3.82-5.84-7.47-9.86-8.14-.8-.14-1.5-.11-2.14,0Z"/>
        <path class="cls-4" d="m76.57,385.72c4.02.68,6.13-1.87,4.7-5.69-1.42-3.82-5.84-7.47-9.86-8.14-4.02-.68-6.13,1.87-4.7,5.69,1.43,3.82,5.84,7.47,9.86,8.14Z"/>
        <path class="cls-12" d="m76.57,385.72c4.02.68,6.13-1.87,4.7-5.69-1.42-3.82-5.84-7.47-9.86-8.14-4.02-.68-6.13,1.87-4.7,5.69,1.43,3.82,5.84,7.47,9.86,8.14Z"/>
        <path class="cls-5" d="m74.14,380.45c-.35.81-1.28,1.66-2.25,2.91-2.02,2.44-4.92,5.92-8.39,10.1-3.49,4.17-7.48,9.09-11.89,14.26-4.39,5.18-9.07,10.71-13.76,16.24-9.4,11.03-18.8,22.06-25.85,30.33-3.52,4.14-6.46,7.58-8.52,10-1.03,1.21-1.84,2.15-2.39,2.8-.55.65-.95.91-1.06.81h0c-.11-.09.06-.53.6-1.2.53-.66,1.31-1.64,2.3-2.87,1.98-2.48,4.81-6.01,8.2-10.26,6.79-8.49,15.84-19.81,24.89-31.13,4.54-5.64,9.09-11.29,13.35-16.58,4.24-5.31,8.32-10.16,11.75-14.38,3.45-4.2,6.32-7.7,8.33-10.15,1.05-1.19,1.7-2.27,2.43-2.76,1.01-.24,2.23.78,2.26,1.87Z"/>
        <path class="cls-11" d="m75.03,340.14c-3.29-12.34,5.18-16.95,17.17-14.82,11.71,2.09,26.48,14.64,30.22,20.4-7-10.78-19.93-20.35-31.62-22.75-13.37-2.75-20.17,4.89-15.76,17.17Z"/>
        <path class="cls-22" d="m242.18,139.77c15.57,4.71,31.37,18.68,36.83,33.32,2.79,7.5,2.35,13.83-.59,18.19l.09.07-148.35,179.68c3.61-4.38,4.34-11.13,1.31-19.24l136.52-165.35c7.52-9.11,3.09-29.61-25.8-46.68Z"/>
        <path class="cls-25" d="m122.28,336.92c-8.63-9.9-21.03-17.71-32.65-19.67-17.06-2.87-25.99,7.95-19.94,24.15.53,1.41,1.18,2.82,1.89,4.21-3.65-8.11-4.26-19.86,4.97-24.87,9.37-5.09,28.57-.9,45.73,16.17Z"/>
        <path class="cls-2" d="m70.99,322.19l148.4-179.64h0c3.73-3.71,9.88-5.32,17.79-3.99.35.06.71.15,1.08.23-13.7-1.09-17.57,6.45-25.64,16.24l-134.21,162.55c-3.11.87-5.63,2.45-7.42,4.61Z"/>
        <path class="cls-25" d="m71.84,360.11c.09.24.24.48.34.72-1.29-4.23-.66-10.07,5.45-11.17,6.31-1.14,20.62,4.55,26.02,19.79-.07-1.27-.37-2.66-.92-4.14-3.02-8.1-12.39-15.84-20.92-17.27-8.53-1.43-12.99,3.97-9.97,12.08Z"/>
        <path class="cls-25" d="m66.71,377.58c.29.78.73,1.55,1.25,2.29-1.14-2.38-1.37-5.81,1.06-6.88,2.09-.92,8.57.03,12.44,7.73-.06-.23-.1-.45-.19-.69-1.42-3.82-5.84-7.47-9.86-8.14-4.02-.68-6.13,1.87-4.7,5.69Z"/>
        <path class="cls-2" d="m328.37,28.11c.45,1.2.99,2.4,1.57,3.59-10.81-22.88,10.62-31.28,30.35-21.5,20.11,9.97,30.65,29.55,31.69,36.53-.15-2.53-.74-5.29-1.84-8.23-6.05-16.21-24.77-31.67-41.83-34.54-17.06-2.87-25.99,7.95-19.94,24.15Z"/>
        <g>
          <path class="cls-5" d="m219.69,199.96c-10.24-8.44-28.73-18.2-40.82-8.38,2.64-2.78,6.46-4.25,10.26-4.67,11.67-1.1,22.95,4.24,32.21,10.95,0,0-1.66,2.1-1.66,2.1h0Z"/>
          <path class="cls-5" d="m210.12,211.54c-8.52-6.98-19.17-12.8-30.5-12.39-3.72.2-7.52,1.39-10.32,4.01,2.64-2.78,6.46-4.25,10.26-4.67,11.67-1.1,22.95,4.24,32.21,10.95,0,0-1.66,2.1-1.66,2.1h0Z"/>
          <path class="cls-5" d="m201.21,222.34c-10.24-8.44-28.73-18.2-40.82-8.38,2.64-2.78,6.46-4.25,10.26-4.67,11.67-1.1,22.95,4.24,32.22,10.95,0,0-1.66,2.1-1.66,2.1h0Z"/>
          <path class="cls-5" d="m191.95,233.51c-10.24-8.44-28.73-18.2-40.82-8.38,2.64-2.78,6.46-4.25,10.26-4.67,11.67-1.1,22.95,4.24,32.22,10.95,0,0-1.66,2.1-1.66,2.1h0Z"/>
          <path class="cls-5" d="m182.91,244.49c-8.52-6.98-19.17-12.8-30.5-12.39-3.72.2-7.52,1.39-10.32,4.01,2.64-2.78,6.46-4.25,10.26-4.67,11.67-1.1,22.95,4.24,32.21,10.95,0,0-1.66,2.1-1.66,2.1h0Z"/>
          <path class="cls-5" d="m174.01,255.33c-8.52-6.98-19.17-12.8-30.5-12.39-3.72.2-7.52,1.39-10.32,4.01,2.64-2.78,6.46-4.25,10.26-4.67,11.67-1.1,22.95,4.24,32.21,10.95,0,0-1.66,2.1-1.66,2.1h0Z"/>
          <path class="cls-5" d="m164.76,266.45c-8.52-6.98-19.17-12.8-30.5-12.39-3.72.2-7.52,1.39-10.32,4.01,2.64-2.78,6.46-4.25,10.26-4.67,11.67-1.1,22.95,4.24,32.22,10.95,0,0-1.66,2.1-1.66,2.1h0Z"/>
          <path class="cls-5" d="m155.68,277.44c-8.52-6.98-19.17-12.8-30.5-12.39-3.72.2-7.52,1.39-10.32,4.01,2.64-2.78,6.46-4.25,10.26-4.67,11.67-1.1,22.95,4.24,32.21,10.95,0,0-1.66,2.1-1.66,2.1h0Z"/>
          <path class="cls-5" d="m146.61,288.42c-8.52-6.98-19.17-12.8-30.5-12.39-3.72.2-7.52,1.39-10.32,4.01,2.64-2.78,6.46-4.25,10.26-4.67,11.67-1.1,22.95,4.24,32.21,10.95,0,0-1.66,2.1-1.66,2.1h0Z"/>
          <path class="cls-5" d="m137.57,299.4c-8.52-6.98-19.17-12.8-30.5-12.39-3.72.2-7.52,1.39-10.32,4.01,2.64-2.78,6.46-4.25,10.26-4.67,11.67-1.1,22.95,4.24,32.22,10.95,0,0-1.66,2.1-1.66,2.1h0Z"/>
          <path class="cls-5" d="m128.52,310.38c-10.24-8.44-28.73-18.2-40.82-8.38,2.64-2.78,6.46-4.25,10.26-4.67,11.67-1.1,22.95,4.24,32.22,10.95,0,0-1.66,2.1-1.66,2.1h0Z"/>
          <path class="cls-5" d="m119.29,321.52c-8.52-6.98-19.17-12.8-30.5-12.39-3.72.2-7.52,1.39-10.32,4.01,2.64-2.78,6.46-4.25,10.26-4.67,11.67-1.1,22.95,4.24,32.22,10.95,0,0-1.66,2.1-1.66,2.1h0Z"/>
        </g>
      </g>
      <g id="Head">
        <g>
          <g>
            <path class="cls-17" d="m330.8,137.35c.72-4.62-5.53-17.21-24.11-15.73-3.53.28-7.08.65-10.61.38-.53-.04-1.12-.14-1.43-.57-.18-.26-.23-.59-.36-.88-.45-.94-1.74-1.11-2.75-.87-1.01.25-1.98.77-3.02.75s-2.17-.97-1.83-1.96c-4.97.4-9.51,3.29-12.73,7.1-5.62,6.63-8.15,15.58-7.94,24.17.16,6.49,3.11,10.72,9.59,12.08,4.35.92,8.86.59,13.3.21,4.43-.38,8.92-.81,13.31-.1,4.89.79,9.36,3.09,11.96,7.39,1.23,2.04,2.64,3.93,4.25,5.68.26.29,2.2,1.82,2.19,2.19,0,0-.39,9.59-.39,9.59-.03,7.3,1.95,13.19,1.95,13.19,2.3-8.47,6.41-15.68,8.78-21.03,1.58-3.58,4.13-8.57,5.06-12.38,1.32-5.4,3.07-14.16,2.24-19.66-.33-2.16-2.06-9.18-7.43-9.55Z"/>
            <path class="cls-5" d="m314.15,146.06c1.54-.65,2.78-1.91,4.23-2.76,1.28-.75,2.55-1.05,4.04-1.04,1.54.02,3.06.22,4.58-.09,1-.21,2.36-.68,2.54-1.83.03-.16-.09-.48-.3-.43-.7.15-1.31.56-2.03.7-.76.15-1.53.11-2.29,0-1.62-.25-3.26-.62-4.89-.3-1.42.28-2.76.96-3.94,1.78-1.02.72-2.75,1.8-2.85,3.17-.03.43.44,1,.91.8Zm15.14-2.87c-.94,1.86-3.99,1.73-5.7,1.63-1.96-.11-4-.3-5.92.24-3.26.93-5.16,4-7.28,6.42-.64.73.6,1.58,1.28,1.21-.49.26.2-.1.23-.11.27-.14.51-.29.75-.48.37-.29.7-.64,1.02-.99.61-.67,1.15-1.39,1.75-2.06,1.33-1.48,2.86-2.26,4.84-2.46,2.94-.3,8.52.79,9.23-3.22.02-.1-.11-.35-.2-.18Zm-1.83,4.23c-1.34,1.12-3.09.91-4.71,1.12-1.9.25-3.67.91-5.3,1.91-1.43.88-2.65,2.07-3.7,3.37-.56.69-1.08,1.41-1.63,2.11-.52.67-1.12,1.25-.61,2.1.08.13.28.29.45.29,1.73-.08,2.83-2.28,3.8-3.48,1.07-1.32,2.33-2.4,3.8-3.26,1.5-.88,3.17-1.47,4.88-1.78,1.34-.24,2.85-.46,3.43-1.85.08-.2-.16-.73-.42-.52Zm-1.59,5.02c-.43.12-.93.1-1.37.19-.44.09-.87.21-1.31.31-.78.19-1.58.34-2.34.57-1.4.43-2.7,1.16-3.81,2.11-.93.8-1.74,1.77-2.35,2.83-.31.54-.58,1.11-.77,1.71-.07.23-.11.46-.16.7-.09.48.03.92.24,1.34.02.29.03.58.09.87.03.15.27.42.4.2.16-.27.26-.53.44-.78.24-.32.49-.61.66-.98.28-.6.54-1.22.86-1.8.54-.99,1.23-1.9,2.05-2.68,1.04-.98,2.23-1.61,3.54-2.16.7-.29,1.42-.55,2.12-.84.3-.12.59-.26.86-.44.36-.24.58-.61.91-.89.07-.06.07-.3-.06-.26Z"/>
            <path class="cls-8" d="m332.83,190.65c-7.08,3.55-10.4-2.04-10.4-2.04l-.71,30.89c-13.45,18.48-50.04,11.57-35.24-2.33l-.05-9.11s-5.44-.25-9.22-1.88c-5.87-2.52-8.03-5.54-10-12.35-.73-2.53-1.71-10.79-1.83-13.42-.31-7.3-.46-10.53.32-17.56.58-5.21,1.35-11.51,3.26-16.42,1.42-3.65,4.09-9.39,8.71-9.61,1.73-.08,3.46.65,4.72,1.85,1.18,1.12,1.97,2.61,3.2,3.68,2.58,2.25,6.48,2.15,9.75,1.13,3.26-1.02,6.26-2.82,9.59-3.63,3.63-.89,7.56-.53,10.98,1.01.52.23,1.06.53,1.29,1.05.37.85-.26,1.76-.78,2.52-1.77,2.57-2.65,5.73-2.47,8.84.06.98.23,1.97.72,2.82.43.74,1.09,1.32,1.64,1.98,2.44,2.89,2.34,6.32,1.73,9.81-.33,1.88-.51,3.94.46,5.59.82,1.39,2.8,2.24,4.29,1.45,1.7-.89,2.28-3.17,3.53-4.52,1.93-2.04,9.18-3.94,12.4,2.69,3.25,6.75.7,14.28-5.86,17.57Z"/>
            <path class="cls-3" d="m318.29,191.99c-2.1,15.06-15.82,19.28-31.85,19.87l-.03-3.8s6.83.5,13.48-1.47c15.68-4.66,18.4-14.59,18.4-14.59Z"/>
          </g>
          <g>
            <path class="cls-17" d="m297.61,157.65l7,2.94c.77-2-.17-4.28-2.1-5.1-1.93-.81-4.13.15-4.9,2.16Z"/>
            <path class="cls-17" d="m271.46,158.1l7.32-2.22c-.54-2.06-2.62-3.24-4.64-2.62-2.02.61-3.22,2.78-2.68,4.84Z"/>
            <path class="cls-17" d="m302.61,167.13c-.04,1.71-1.46,3.06-3.16,3.02-1.71-.04-3.06-1.46-3.02-3.16.04-1.71,1.46-3.06,3.16-3.02,1.71.04,3.06,1.46,3.02,3.16Z"/>
            <path class="cls-17" d="m279.15,165.63c-.04,1.71-1.46,3.06-3.16,3.02-1.71-.04-3.06-1.46-3.02-3.16.04-1.71,1.46-3.06,3.16-3.02,1.71.04,3.06,1.46,3.02,3.16Z"/>
            <path class="cls-3" d="m288.82,161.84l-1.29,18.57-9.68-1.42c2.87-8.55,6.43-13.05,10.97-17.15Z"/>
          </g>
          <g>
            <path class="cls-13" d="m297.58,184.4l-11.14,2.61c.66,3.18,3.68,5.17,6.76,4.45,3.07-.72,5.04-3.88,4.38-7.06Z"/>
            <path class="cls-18" d="m296.27,186.25c.47-.06.93-.05,1.39,0-.25,2.48-1.97,4.64-4.45,5.22-.62.15-1.23.15-1.83.09-.22-2.57,1.92-4.93,4.89-5.3Z"/>
          </g>
        </g>
      </g>
      <g id="Arm-2" data-name="Arm">
        <g id="Arm-3" data-name="Arm">
          <path class="cls-10" d="m305.13,270.86c-5.71-4.84-8.62-6.75-11.36-7.71-2.74-.96-12.28-5.65-15.98-6.81-2.34-.74-3.54,2.99-.67,5.78,2.21,2.15,8.12,5.16,10.69,6.78,2.57,1.62,7.41,8.3,7.41,8.3l9.91-6.34Z"/>
          <path class="cls-5" d="m377.32,245.14c-5.15-13.02-10.19-16.9-23.59-21.26-14.33,12.34-6.31,46.53-6.31,46.53l8.3,32.34s-24.41-6.27-28.3-9.11c-3.89-2.84-14.03-15.2-17.46-18.92-4.66-5.07-7.16-4.58-9.71-4.36-8.33.73-10.19,1.31-12,2.31-1.82,1-1.8,3.11-1.8,3.11-2.21.14-5.49-.13-6.13,3.44-.43,2.36-.31,2.88-.31,2.88,0,0-.79.03-1.48.73-1.96,2,.72,9.51,2.6,11.42,1.32,1.34,3.3,1.62,5.93,1.43,2.24-.16,1.35-2.49,1.35-2.49l3.1.38c6.42,5.18,6.17,14.66,14.91,17.29,1.85.56,5.7.74,10.71,2.78,18.71,7.6,42.65,29,59.58,31.52,16.53,2.46,18.68-7.2,18.56-17.4-.18-16.29-12.82-69.62-17.95-82.6Z"/>
          <g>
            <path class="cls-10" d="m286.45,275.77l10.52-.33-10.24-.99c-.18.45-.27.88-.28,1.33Z"/>
            <path class="cls-10" d="m280.01,282.08l11.37-.76-11.31-.55c-.07.4-.09.85-.07,1.31Z"/>
            <path class="cls-10" d="m289.43,291.58c-1.23-1.45-1.27-2.26-1.27-2.26,0,0-2.72-.22-3.92-.51-.5-.14-1-.32-1.48-.53-.58-.28-1.17-.61-1.58-1.14.31.6.85,1.08,1.44,1.41.52.31,1.08.53,1.66.7l.56,1.43c-.43.02-.85.15-1.2.38-.52.35-.86.87-1.08,1.41.32-.49.75-.89,1.23-1.16.48-.24,1.05-.31,1.53-.19,2.45.74,3.08,2.03,3.08,2.03l3.1.38s-1.41-1.19-2.07-1.96Z"/>
          </g>
        </g>
        <g>
          <path class="cls-7" d="m352.6,222.11c-4.21,2.43-12.35,16.71-7.37,40.5,4.99,23.79,10.12,39.72,10.12,39.72l-21.6-6.62s3.07,5.31,2.79,15.17c-.35,12.52-7.1,13.06-7.1,13.06,0,0,13.61,9.02,19.87,12.45,13,7.13,27.3,11.44,36.37,9.8,10.32-1.87,10.62-9.9,10.21-21.3-.41-11.4-10.41-52.06-13.13-63.87-2.72-11.82-4.51-32.58-30.18-38.89Z"/>
          <path class="cls-6" d="m355.36,302.33c7.15,1.93,20.76,13.53,22.5,17.54-2.06-8.77-12.08-20.78-24.32-23.59l1.82,6.06Z"/>
        </g>
      </g>
    </g>
  </g>
</svg>