<?xml version="1.0" encoding="UTF-8"?>
<svg id="Capa_1" data-name="Capa 1" xmlns="http://www.w3.org/2000/svg" viewBox="0 0 783.87 709.53">
  <defs>
    <style>
      .cls-1 {
        fill: #375a64;
      }

      .cls-1, .cls-2, .cls-3, .cls-4, .cls-5, .cls-6, .cls-7, .cls-8, .cls-9, .cls-10, .cls-11 {
        stroke-width: 0px;
      }

      .cls-2 {
        fill: #e1e1e1;
      }

      .cls-3 {
        fill: #ececec;
      }

      .cls-12 {
        opacity: .2;
      }

      .cls-5 {
        fill: #1a2e35;
      }

      .cls-13 {
        opacity: .4;
      }

      .cls-6 {
        fill: #fff;
      }

      .cls-14 {
        opacity: .3;
      }

      .cls-7 {
        fill: #ff9c6a;
      }

      .cls-8 {
        fill: #fafafa;
      }

      .cls-9 {
        fill: #024873;
      }

      .cls-10 {
        fill: #e8505b;
      }

      .cls-11 {
        fill: #ffc19d;
      }
    </style>
  </defs>
  <path class="cls-2" d="m783.87,531.15c0,.25-168.99.45-377.41.45s-377.44-.2-377.44-.45,168.96-.45,377.44-.45,377.41.2,377.41.45Z"/>
  <g>
    <path class="cls-3" d="m665.98,399.09c.56-.54,4.44,2.23,9.53,7.96,2.55,2.85,5.31,6.49,8.08,10.73,2.72,4.28,5.41,9.18,7.76,14.55,2.31,5.39,4.04,10.71,5.31,15.61,1.21,4.93,1.97,9.43,2.3,13.24.7,7.63.07,12.35-.71,12.39-1.83.13-3.49-18.33-12.51-38.81-8.77-20.58-21.1-34.43-19.76-35.67Z"/>
    <path class="cls-3" d="m704.3,488.9c-.79.11-2.99-10-5.02-26.55-2.07-16.55-3.76-39.54-4.43-64.93-.69-25.41-.4-48.39.1-65.01.52-16.63,1.3-26.9,2.14-26.9.85,0,1.6,10.28,2.18,26.89.61,16.61,1,39.55,1.69,64.86.67,25.3,1.67,48.16,2.63,64.72.92,16.55,1.59,26.82.71,26.94Z"/>
    <path class="cls-3" d="m741.36,344.53c.79.45-2.41,7.51-6.6,19.3-4.28,11.75-9.54,28.24-14.71,46.64-5.06,18.43-9.06,35.28-11.45,47.56-2.49,12.26-3.39,19.96-4.3,19.94-.78,0-1.4-7.95.03-20.6,1.33-12.65,4.71-29.88,9.83-48.54,5.23-18.62,11.22-35.12,16.6-46.65,5.3-11.57,9.93-18.06,10.6-17.66Z"/>
    <path class="cls-2" d="m656.6,467.78v20.22c0,23.83,19.32,43.15,43.15,43.15h0c23.83,0,43.15-19.32,43.15-43.15v-20.22h-86.3Z"/>
    <path class="cls-8" d="m743.68,484.88c0,.34-19.5.61-43.54.61s-43.54-.27-43.54-.61,19.49-.61,43.54-.61,43.54.27,43.54.61Z"/>
    <path class="cls-8" d="m743.68,490.5c0,.34-19.5.61-43.54.61s-43.54-.27-43.54-.61,19.49-.61,43.54-.61,43.54.27,43.54.61Z"/>
  </g>
  <g>
    <rect class="cls-2" x="573.99" width="165.05" height="172.05"/>
    <rect class="cls-3" x="562.82" width="165.05" height="172.05"/>
    <rect class="cls-8" x="585" y="23.13" width="120.68" height="125.8"/>
    <path class="cls-2" d="m585,149.76c.08.1-1.08,1.4-3.02,3.42-1.94,2.02-4.65,4.77-7.69,7.76-3.04,2.99-5.82,5.66-7.87,7.57-2.05,1.9-3.36,3.03-3.45,2.95-.09-.09,1.06-1.38,3-3.41,1.94-2.02,4.66-4.77,7.7-7.77,3.04-3,5.83-5.67,7.88-7.58,2.05-1.9,3.35-3.03,3.43-2.93Z"/>
    <path class="cls-2" d="m705.68,149.45c.1-.08,1.4,1.08,3.42,3.02,2.02,1.94,4.77,4.65,7.76,7.69,2.99,3.04,5.66,5.82,7.57,7.87,1.9,2.05,3.03,3.36,2.95,3.45-.09.09-1.38-1.06-3.41-3-2.02-1.94-4.77-4.66-7.77-7.7-3-3.04-5.67-5.83-7.58-7.88-1.9-2.05-3.03-3.35-2.93-3.43Z"/>
    <path class="cls-2" d="m705.35,23.46c-.08-.1,1.08-1.4,3.02-3.42,1.94-2.02,4.65-4.77,7.69-7.76,3.04-2.99,5.82-5.66,7.87-7.57,2.05-1.9,3.36-3.03,3.45-2.95.09.09-1.06,1.38-3,3.41-1.94,2.02-4.66,4.77-7.7,7.77-3.04,3-5.83,5.67-7.88,7.58-2.05,1.9-3.35,3.03-3.43,2.93Z"/>
    <path class="cls-2" d="m584.67,23.77c-.1.08-1.4-1.08-3.42-3.02-2.02-1.94-4.77-4.65-7.76-7.69-2.99-3.04-5.66-5.82-7.57-7.87-1.9-2.05-3.03-3.36-2.95-3.45.09-.09,1.38,1.06,3.41,3,2.02,1.94,4.77,4.66,7.77,7.7,3,3.04,5.67,5.83,7.58,7.88,1.9,2.05,3.03,3.35,2.93,3.43Z"/>
    <path class="cls-2" d="m705.35,148.92s-.01-.21-.02-.61c0-.42-.01-1-.02-1.75-.01-1.56-.03-3.83-.05-6.78-.02-5.95-.06-14.61-.1-25.63-.05-22.03-.12-53.42-.2-91.02l.39.39c-35.13.02-76.39.04-120.33.06h-.01l.45-.45c-.02,46.17-.05,89.37-.06,125.8l-.39-.39c36.08.08,66.11.15,87.16.2,10.52.04,18.79.08,24.47.1,2.81.02,4.98.03,6.47.04.72,0,1.27.02,1.67.02.38,0,.58.02.58.02,0,0-.17.01-.54.02-.39,0-.93.01-1.63.02-1.48.01-3.61.03-6.39.04-5.65.02-13.89.06-24.38.1-21.11.05-51.23.12-87.41.2h-.39s0-.39,0-.39c-.02-36.43-.04-79.62-.06-125.8v-.45s.45,0,.45,0h.01c43.95.02,85.21.04,120.33.06h.4s0,.39,0,.39c-.08,37.7-.15,69.19-.2,91.27-.04,10.98-.08,19.61-.1,25.54-.02,2.92-.04,5.16-.05,6.71,0,.74-.02,1.3-.02,1.71,0,.38-.02.56-.02.56Z"/>
    <g>
      <path class="cls-3" d="m616.85,75.68s-2.58,31.15,31.15,31.15c0-16.62-13.71-29.74-31.15-31.15Z"/>
      <path class="cls-3" d="m678.57,75.7s-31.15-2.58-31.15,31.15c16.62,0,29.74-13.71,31.15-31.15Z"/>
      <path class="cls-2" d="m646.5,58.66s-25.44,22.84,1.39,48.17c12.48-13.22,11.42-33.96-1.39-48.17Z"/>
    </g>
  </g>
  <g>
    <rect class="cls-2" x="93.28" y="56.53" width="139.96" height="145.9"/>
    <g>
      <rect class="cls-8" x="83.8" y="56.53" width="139.96" height="145.9"/>
      <path class="cls-2" d="m223.81,202.47H83.76V56.49h140.05v145.98Zm-139.96-.09h139.87V56.57H83.85v145.81Z"/>
    </g>
    <rect class="cls-8" x="102.62" y="76.14" width="102.33" height="106.67"/>
    <path class="cls-2" d="m102.62,183.52c.08.1-.89,1.21-2.53,2.94-1.63,1.72-3.93,4.06-6.5,6.59-2.58,2.54-4.94,4.8-6.69,6.4-1.74,1.6-2.87,2.55-2.96,2.46-.09-.09.88-1.2,2.51-2.92,1.63-1.72,3.94-4.06,6.52-6.61,2.58-2.54,4.95-4.81,6.7-6.41,1.75-1.6,2.86-2.55,2.94-2.45Z"/>
    <path class="cls-2" d="m204.95,183.26c.1-.08,1.21.89,2.94,2.53,1.72,1.63,4.06,3.93,6.59,6.5,2.54,2.57,4.8,4.94,6.4,6.69,1.6,1.74,2.55,2.87,2.46,2.96-.09.09-1.2-.88-2.92-2.51-1.72-1.63-4.06-3.94-6.61-6.52-2.54-2.58-4.81-4.95-6.41-6.7-1.6-1.74-2.55-2.86-2.45-2.94Z"/>
    <path class="cls-2" d="m204.67,76.43c-.08-.1.89-1.21,2.53-2.94,1.63-1.72,3.93-4.06,6.5-6.59,2.58-2.54,4.94-4.8,6.69-6.4,1.74-1.6,2.87-2.55,2.96-2.46.09.09-.88,1.2-2.51,2.92-1.63,1.72-3.94,4.06-6.52,6.61-2.58,2.54-4.95,4.81-6.7,6.41-1.74,1.6-2.86,2.55-2.94,2.45Z"/>
    <path class="cls-2" d="m102.34,76.69c-.1.08-1.21-.89-2.94-2.53-1.72-1.63-4.06-3.93-6.59-6.5-2.54-2.58-4.8-4.94-6.4-6.69-1.6-1.74-2.55-2.87-2.46-2.96.09-.09,1.2.88,2.92,2.51,1.72,1.63,4.06,3.94,6.61,6.52,2.54,2.58,4.81,4.95,6.41,6.7,1.6,1.74,2.55,2.86,2.45,2.94Z"/>
    <path class="cls-2" d="m204.67,182.81s-.01-.18-.02-.52c0-.36-.01-.85-.02-1.49-.01-1.34-.03-3.26-.05-5.76-.02-5.05-.06-12.4-.1-21.74-.05-18.68-.12-45.3-.2-77.16l.39.39c-29.79.02-64.77.04-102.04.06h0l.45-.45c-.02,39.15-.05,75.78-.06,106.67l-.39-.39c30.58.08,56.04.15,73.89.2,8.92.04,15.93.08,20.76.1,2.38.02,4.21.03,5.49.05.6,0,1.07.02,1.42.02.32,0,.49.01.49.02,0,0-.14.01-.45.02-.34,0-.79.01-1.38.02-1.26.01-3.07.03-5.42.05-4.8.02-11.79.06-20.67.1-17.91.05-43.46.12-74.14.2h-.39s0-.39,0-.39c-.02-30.89-.04-67.52-.06-106.67v-.45s.45,0,.45,0h0c37.27.02,72.25.04,102.04.06h.4s0,.39,0,.39c-.08,31.97-.15,58.67-.2,77.42-.04,9.3-.08,16.62-.1,21.65-.02,2.46-.04,4.36-.05,5.68,0,.62-.02,1.09-.02,1.45,0,.32-.01.48-.02.47Z"/>
    <rect class="cls-3" x="136.71" y="112.41" width="34.15" height="34.15"/>
  </g>
  <g>
    <g>
      <ellipse class="cls-3" cx="382.92" cy="642.03" rx="368.49" ry="67.5"/>
      <path class="cls-8" d="m523.53,642.03s.06-.57-.64-1.28c-.65-.71-1.94-1.44-3.7-2.13-3.54-1.37-9.04-2.63-16.16-3.78-14.27-2.3-35.13-4.17-60.96-5.34-25.82-1.16-56.62-1.64-90.79-.85-17.08.42-35.01,1.15-53.55,2.56-9.27.72-18.69,1.6-28.19,2.9-4.75.66-9.52,1.41-14.27,2.44-2.37.52-4.73,1.1-7.03,1.88-1.14.39-2.28.83-3.32,1.39-1.01.53-2.11,1.33-2.16,2.21.03.88,1.14,1.68,2.14,2.21,1.05.56,2.18,1,3.32,1.39,2.3.78,4.66,1.36,7.03,1.88,4.74,1.03,9.52,1.78,14.27,2.44,9.51,1.3,18.93,2.18,28.2,2.9,18.54,1.42,36.47,2.15,53.56,2.56,34.17.79,64.97.3,90.8-.85,25.82-1.17,46.68-3.04,60.95-5.34,7.13-1.15,12.62-2.41,16.16-3.78,1.76-.69,3.05-1.41,3.7-2.13.69-.71.6-1.3.64-1.28-.01-.03.12.59-.57,1.34-.65.75-1.94,1.51-3.7,2.23-3.55,1.44-9.04,2.75-16.17,3.96-14.28,2.41-35.15,4.38-60.98,5.63-25.84,1.24-56.65,1.79-90.84,1.05-17.1-.39-35.04-1.11-53.61-2.51-9.28-.72-18.72-1.59-28.25-2.89-4.77-.66-9.56-1.41-14.34-2.45-2.39-.52-4.78-1.11-7.13-1.91-1.17-.4-2.34-.85-3.46-1.45-.56-.31-1.11-.64-1.61-1.1-.48-.45-.99-1.07-1-1.91.03-.84.54-1.46,1.02-1.9.5-.46,1.05-.79,1.61-1.1,1.12-.6,2.29-1.05,3.46-1.45,2.35-.79,4.74-1.38,7.13-1.91,4.78-1.03,9.57-1.79,14.34-2.45,9.53-1.3,18.97-2.18,28.25-2.89,18.56-1.41,36.5-2.12,53.6-2.51,34.19-.74,65-.19,90.84,1.05,25.83,1.25,46.71,3.23,60.98,5.63,7.13,1.21,12.63,2.52,16.17,3.96,1.76.72,3.05,1.48,3.7,2.23.69.75.56,1.37.57,1.34Z"/>
      <path class="cls-8" d="m607.31,642.03c-.07.02.09-.87-.73-2.22-.83-1.33-2.65-2.87-5.35-4.29-5.41-2.86-14.12-5.49-25.48-7.88-22.75-4.78-56.25-8.66-97.74-11.09-41.5-2.4-91.03-3.43-145.97-1.85-27.46.84-56.29,2.32-86.05,5.21-14.87,1.47-29.99,3.28-45.19,5.93-7.59,1.35-15.22,2.89-22.73,5.01-3.75,1.07-7.48,2.28-11.05,3.88-1.77.8-3.52,1.71-5.06,2.86-1.49,1.13-2.98,2.62-3,4.41,0,1.79,1.47,3.3,2.97,4.42,1.54,1.16,3.28,2.06,5.05,2.87,3.56,1.6,7.3,2.81,11.05,3.88,7.52,2.12,15.14,3.66,22.74,5.02,15.2,2.66,30.32,4.46,45.2,5.94,29.77,2.89,58.6,4.37,86.06,5.21,54.95,1.59,104.49.56,145.98-1.85,41.49-2.43,74.98-6.31,97.73-11.09,11.36-2.39,20.06-5.02,25.47-7.88,2.71-1.41,4.53-2.95,5.35-4.28.82-1.35.66-2.24.73-2.22,0,0,0,.2-.04.6-.05.39-.22.98-.61,1.67-.81,1.37-2.64,2.95-5.34,4.4-5.41,2.93-14.12,5.62-25.49,8.07-22.76,4.89-56.26,8.87-97.77,11.38-41.51,2.49-91.07,3.58-146.04,2.04-27.48-.82-56.33-2.28-86.13-5.16-14.89-1.47-30.03-3.27-45.27-5.93-7.61-1.35-15.26-2.9-22.83-5.03-3.78-1.08-7.54-2.3-11.17-3.93-1.81-.82-3.6-1.75-5.22-2.97-.82-.59-1.58-1.31-2.22-2.14-.63-.83-1.12-1.88-1.11-3.01,0-1.13.49-2.18,1.13-3,.65-.82,1.4-1.54,2.23-2.13,1.63-1.22,3.42-2.14,5.23-2.96,3.63-1.63,7.4-2.84,11.17-3.92,7.56-2.13,15.21-3.67,22.82-5.03,15.24-2.66,30.37-4.46,45.26-5.93,29.79-2.88,58.63-4.34,86.11-5.16,54.97-1.54,104.52-.45,146.03,2.04,41.51,2.52,75.01,6.49,97.77,11.38,11.36,2.45,20.07,5.14,25.49,8.07,2.71,1.44,4.53,3.03,5.35,4.4.39.69.56,1.27.61,1.67.03.4.04.6.04.6Z"/>
      <path class="cls-8" d="m711.27,642.03c-.08.02.11-1.24-.83-3.36-.91-2.12-3.28-4.77-7.03-7.25-7.51-5.04-20.13-9.71-36.71-13.93-33.23-8.43-82.52-15.28-143.63-19.57-61.12-4.24-134.16-6.07-215.14-3.31-40.48,1.46-82.95,4.04-126.74,9.1-21.88,2.58-44.1,5.74-66.37,10.41-11.12,2.36-22.27,5.09-33.16,8.82-5.43,1.88-10.83,4.01-15.86,6.83-2.5,1.42-4.92,3.01-7,4.98-2.03,1.95-3.74,4.45-3.78,7.24.01,2.79,1.71,5.3,3.73,7.26,2.07,1.97,4.49,3.57,6.99,4.99,5.03,2.82,10.43,4.95,15.86,6.84,10.9,3.74,22.05,6.47,33.17,8.83,22.27,4.67,44.51,7.83,66.39,10.41,43.8,5.06,86.28,7.65,126.76,9.11,80.99,2.76,154.03.93,215.15-3.31,61.11-4.29,110.39-11.14,143.62-19.57,16.58-4.22,29.2-8.89,36.7-13.93,3.75-2.48,6.12-5.13,7.03-7.25.94-2.12.75-3.38.83-3.36,0,0,0,.29-.05.88,0,.3-.09.65-.2,1.08-.08.43-.26.91-.5,1.44-.89,2.15-3.26,4.85-7.02,7.36-7.51,5.11-20.14,9.84-36.72,14.12-33.23,8.55-82.53,15.49-143.66,19.87-61.14,4.32-134.21,6.22-215.23,3.5-40.5-1.44-83.01-4-126.84-9.06-21.9-2.58-44.16-5.74-66.47-10.41-11.15-2.37-22.32-5.1-33.28-8.86-5.46-1.9-10.9-4.04-16.01-6.91-2.54-1.45-5.02-3.08-7.18-5.13-2.1-2.04-3.98-4.74-4.01-7.92.05-3.17,1.95-5.86,4.05-7.89,2.16-2.05,4.64-3.67,7.18-5.11,5.11-2.86,10.54-5,16.01-6.9,10.95-3.75,22.13-6.48,33.27-8.85,22.31-4.67,44.56-7.83,66.46-10.41,43.82-5.05,86.32-7.62,126.81-9.06,81.01-2.72,154.07-.82,215.21,3.5,61.13,4.37,110.43,11.32,143.67,19.87,16.58,4.28,29.22,9.01,36.73,14.12,3.75,2.51,6.12,5.21,7.02,7.36.23.53.42,1.01.5,1.44.11.42.2.78.2,1.08.04.59.05.88.05.88Z"/>
    </g>
    <path class="cls-2" d="m397.94,600.56c-28.54-1.86-57.19-3.73-85.79-2.53-28.6,1.2-57.35,5.59-82.69,15.58-9.96,3.93-20.18,9.65-21.95,17.97-1.9,8.97,7.14,17.47,17.87,21.72,22.11,8.78,49.41,4.17,72.42-3.21,23-7.38,45.18-17.45,70.06-19.45,20.67-1.66,41.39,2.47,60.91,7.81,19.52,5.35,38.5,11.97,58.69,15.65,20.2,3.68,42.27,4.2,61.06-2.46,10.04-3.56,19.5-10.07,20.08-18.38.41-5.89-3.86-11.55-9.77-15.45-5.91-3.9-13.32-6.28-20.75-8.26-47.63-12.7-99.65-11.16-150.17-9.47"/>
    <path class="cls-2" d="m43.56,639.08c-4.01,2.92-8.01,5.85-12.02,8.77-1.2.88-2.54,2.06-2.34,3.53.25,1.84,2.59,2.44,4.44,2.54,12.89.69,21.7-.68,33.14-6.64.99-.51,4.33-2.3,5.78-3.4.89-.67,4.64-3.53,3.95-4.4-.74-.92-2.1-.97-3.29-.95-10.27.23-19.4.3-29.67.54"/>
  </g>
  <g>
    <path class="cls-10" d="m518.65,258.43c-.24-4.26-2.59-8.56-6.48-10.32-3.39-1.54-7.49-.97-10.71.89-3.22,1.86-5.65,4.88-7.43,8.14-4.67,8.56-5.23,18.67-6.21,28.37-.97,9.7-3.32,17.89-8.45,27.45l35.64-42.45c2.27-3.62,3.86-7.81,3.62-12.08Z"/>
    <g class="cls-12">
      <path class="cls-4" d="m518.65,258.43c-.24-4.26-2.59-8.56-6.48-10.32-3.39-1.54-7.49-.97-10.71.89-3.22,1.86-5.65,4.88-7.43,8.14-4.67,8.56-5.23,18.67-6.21,28.37-.97,9.7-3.32,17.89-8.45,27.45l35.64-42.45c2.27-3.62,3.86-7.81,3.62-12.08Z"/>
    </g>
  </g>
  <path class="cls-11" d="m477.83,235.23c2.1,1.8,71.51,81.43,71.51,81.43l-37.58,29.8-47.7-59.43,13.76-51.8Z"/>
  <path class="cls-11" d="m271.01,262.17c-1.85,2.05-57.92,76.61-57.92,76.61l35.1,38.04,43.08-65.04-20.26-49.62Z"/>
  <g>
    <path class="cls-10" d="m271.67,311.54c4.1,1.88,6.41,6.25,7.96,10.49s2.7,8.78,5.61,12.22c2.91,3.45,8.34,5.34,11.99,2.7,3.47-2.5,3.65-7.75,2.08-11.74-1.9-4.81-5.75-8.67-10.18-11.33-4.43-2.66-9.44-4.22-14.46-5.42"/>
    <g class="cls-12">
      <path class="cls-4" d="m271.67,311.54c4.1,1.88,6.41,6.25,7.96,10.49s2.7,8.78,5.61,12.22c2.91,3.45,8.34,5.34,11.99,2.7,3.47-2.5,3.65-7.75,2.08-11.74-1.9-4.81-5.75-8.67-10.18-11.33-4.43-2.66-9.44-4.22-14.46-5.42"/>
    </g>
  </g>
  <g>
    <g>
      <g>
        <path class="cls-1" d="m597.92,462.23c-.75-.25-2.07-.49-3.83-.74l-139.9-58.66h-139.1l-137.14,54.18c-13.91,4.64-33.78,31.79-22.52,64.25.31.9.64,1.78.98,2.64,9,22.58,34.02,34.32,57.5,28.05,18.94-5.06,46.17-12.48,74.18-20.15l3.14-.08,87.25-24.76c13.67,3.78,42.38,11.7,74.29,20.47h.01s0,0,0,0c38.8,10.66,82.31,22.56,109.17,29.74,23.48,6.28,48.5-5.47,57.5-28.05.34-.86.67-1.73.98-2.64,11.26-32.46-8.61-59.61-22.52-64.25Z"/>
        <path class="cls-5" d="m377.4,507.27s.16-.08.47-.18c.37-.11.83-.26,1.42-.44,1.32-.39,3.17-.93,5.54-1.62,4.92-1.4,11.99-3.41,20.89-5.94l-.23.41c-3.6-13.23-8.4-30.83-13.93-51.17l.49.37c-4.63,0-9.42.01-14.34.02-4.92.07-9.96.44-15.12.66-10.33.56-21.12,1.15-32.19,1.76-39.77,2.31-75.74,5-101.76,7.11-12.96,1.07-23.46,1.94-30.81,2.55-3.58.29-6.39.52-8.38.68-.91.06-1.63.11-2.18.15-.49.03-.75.03-.75.01,0-.02.25-.06.74-.13.55-.07,1.26-.15,2.17-.26,1.98-.21,4.78-.51,8.36-.89,7.26-.73,17.78-1.76,30.78-2.9,26.01-2.31,61.97-5.12,101.76-7.43,11.08-.6,21.87-1.17,32.2-1.73,5.17-.21,10.23-.57,15.16-.63,4.93,0,9.72.02,14.36.02h.39s.1.37.1.37c5.41,20.37,10.09,38,13.61,51.25l.09.32-.32.09c-8.94,2.4-16.04,4.31-20.97,5.64-2.39.62-4.25,1.11-5.58,1.45-.59.14-1.07.26-1.44.35-.33.07-.49.1-.5.09Z"/>
        <path class="cls-5" d="m332.09,449.99c-.16.25-4.02-1.95-8.22-5.46-4.21-3.5-7.07-6.9-6.85-7.1.23-.22,3.42,2.8,7.56,6.25,4.14,3.46,7.68,6.05,7.5,6.32Z"/>
        <path class="cls-5" d="m581.43,467.29s-.66.02-1.92-.04c-1.35-.08-3.18-.19-5.48-.33-4.86-.33-11.72-.8-20.15-1.38-17.11-1.15-40.57-2.73-66.49-4.47-25.94-1.57-49.42-2.99-66.53-4.02-8.44-.5-15.3-.91-20.16-1.2-2.3-.16-4.13-.28-5.48-.37-1.25-.1-1.91-.17-1.91-.21,0-.04.66-.04,1.92-.02,1.35.04,3.18.09,5.49.16,4.87.2,11.74.49,20.18.84,17.04.79,40.58,2.04,66.56,3.7,25.98,1.66,49.48,3.41,66.48,4.79,8.42.72,15.27,1.31,20.13,1.73,2.3.23,4.12.41,5.47.54,1.25.14,1.9.22,1.9.26Z"/>
        <path class="cls-5" d="m379.71,464.62c-.2-.21,2.1-2.31,5.74-3.22,3.63-.94,6.66-.2,6.58.08-.04.33-2.93.11-6.31,1-3.39.84-5.83,2.42-6.02,2.14Z"/>
        <path class="cls-5" d="m383.51,473.46c-.04-.31,2.5-.86,5.67-1.24,3.17-.38,5.77-.44,5.81-.13.04.31-2.5.86-5.67,1.24-3.17.38-5.77.44-5.81.13Z"/>
        <path class="cls-5" d="m385.22,483.72c0-.33,3.11-.42,6.72-1.48,3.62-1.03,6.29-2.62,6.47-2.34.18.22-2.34,2.32-6.16,3.41-3.81,1.12-7.07.7-7.03.41Z"/>
        <path class="cls-5" d="m388.62,494.77c-.01-.33,2.97-.57,6.35-1.86,3.4-1.25,5.8-3.03,6.01-2.78.21.2-2.01,2.48-5.62,3.82-3.6,1.36-6.77,1.1-6.74.82Z"/>
        <path class="cls-5" d="m452.37,444.7c.23.22-2.1,2.94-4.71,6.47-2.62,3.52-4.54,6.55-4.82,6.39-.26-.14,1.25-3.46,3.92-7.05,2.66-3.6,5.4-6.02,5.6-5.81Z"/>
      </g>
      <path class="cls-11" d="m392.52,448.06l-33.33-5.04s-3.04-7.85-8.18-8.25c-5.14-.39-9.88,5.27-13.63,4.91-3.75-.35-48.5-15.39-51.05,4.88l18.61,7.67"/>
      <path class="cls-11" d="m501.86,466.43l-99.19,21.27-8.91-34.06,36.7-1.78s4.4-7.18,9.52-6.65c5.12.53,8.78,6.95,12.53,7.27,3.75.32,50.47-6.46,49.35,13.94Z"/>
    </g>
    <path class="cls-6" d="m313.42,406.28s-.28.16-.86.43c-.61.28-1.46.68-2.55,1.18-2.24,1.04-5.58,2.51-9.9,4.37-8.63,3.73-21.21,8.87-36.82,15.07-15.6,6.23-34.23,13.5-54.69,22.13-10.23,4.3-21.2,8.36-31.64,14.38l-1.94,1.16c-.16.1-.3.19-.36.25-.05.05,0,.02-.01-.05-.01-.12-.03-.11-.03-.11.15.1.54.22.88.28,1.43.26,2.98.32,4.5.37,3.06.09,6.15.05,9.26-.02,6.23-.15,12.55-.43,18.95-.76,25.59-1.36,49.95-3.19,72.09-4.87,22.13-1.77,42.07-3.36,58.82-4.7,16.71-1.39,30.25-2.52,39.64-3.3,4.65-.38,8.28-.67,10.78-.88,1.21-.09,2.14-.16,2.81-.21.63-.04.96-.04.96-.04,0,0-.32.06-.95.13-.66.07-1.6.17-2.8.3-2.5.24-6.12.6-10.77,1.05-9.39.85-22.92,2.07-39.62,3.58-16.73,1.46-36.66,3.15-58.81,4.89-22.15,1.72-46.5,3.58-72.11,4.94-6.4.33-12.73.61-18.98.75-3.12.06-6.23.1-9.31.01-1.55-.06-3.08-.11-4.64-.39-.4-.09-.78-.14-1.26-.46-.13-.13-.29-.27-.3-.59,0-.25.15-.46.24-.54.2-.22.4-.32.56-.42l1.96-1.16c10.54-6.06,21.54-10.11,31.77-14.38,20.49-8.59,39.15-15.8,54.78-21.95,15.64-6.13,28.26-11.18,36.92-14.8,4.3-1.82,7.65-3.24,9.96-4.22,1.11-.47,1.97-.84,2.59-1.1.59-.24.89-.35.89-.35Z"/>
    <path class="cls-6" d="m450.62,406.28s.22.07.64.24c.46.19,1.07.45,1.85.78,1.67.72,4.05,1.75,7.1,3.06,6.22,2.65,15.14,6.44,26.15,11.13,22.18,9.26,52.75,22.03,86.51,36.13,8.47,3.46,16.77,6.9,24.34,11.13.95.53,1.88,1.06,2.8,1.62.46.28.92.52,1.41.92.12.13.24.22.35.38.09.21.23.37.16.69-.03.32-.22.42-.36.6-.15.1-.29.17-.44.26-2.21.74-4.29.67-6.39.78-4.17.09-8.24-.05-12.21-.22-15.86-.76-30.1-2.08-42.05-3.17-11.95-1.12-21.6-2.15-28.27-2.89-3.29-.38-5.87-.68-7.68-.89-.84-.11-1.5-.2-1.99-.26-.45-.06-.68-.1-.68-.12,0-.02.23,0,.69.03.49.04,1.16.1,2,.17,1.81.17,4.39.41,7.69.72,6.73.62,16.39,1.51,28.29,2.6,11.95,1.01,26.19,2.26,42.02,2.97,3.96.16,8.02.29,12.15.19,2.03-.09,4.24-.1,6.05-.72l.25-.14s.1-.08.04-.06c.04.05-.06-.12-.22-.26-.34-.27-.82-.55-1.28-.82-.91-.55-1.84-1.08-2.78-1.6-7.52-4.19-15.78-7.61-24.25-11.06-33.79-14.11-64.37-26.91-86.42-36.38-11.03-4.73-19.92-8.64-26.04-11.39-3.02-1.38-5.38-2.46-7.03-3.21-.77-.36-1.37-.65-1.82-.86-.41-.2-.61-.31-.61-.32Z"/>
  </g>
  <g>
    <g>
      <g>
        <g>
          <path class="cls-11" d="m377.32,206.68h0c17.24,1.21,31.62-13,30.6-30.25-.42-7.2-.78-12.69-.78-12.69,0,0,22.7-3.53,22.98-26.22.28-22.7-3.65-74.81-3.65-74.81h0c-26.27-11.29-56.6-7.48-79.26,9.96l-3.36,2.59,6.89,104.73c.94,14.29,12.29,25.69,26.58,26.7Z"/>
          <path class="cls-7" d="m407.18,163.4s-14.34,1.17-29.59-8.41c0,0,6.99,16.33,29.64,14.29l-.05-5.88Z"/>
        </g>
        <g>
          <path class="cls-11" d="m346.64,98.76c-.39-.17-15.59-4.61-15.1,10.9.5,15.52,15.97,11.82,15.98,11.37s-.89-22.28-.89-22.28Z"/>
          <path class="cls-7" d="m342.6,115.31c-.07-.05-.26.2-.71.42-.44.22-1.2.38-2.02.11-1.66-.55-3.12-3.11-3.29-5.9-.08-1.41.17-2.77.63-3.89.44-1.15,1.15-1.97,1.97-2.14.81-.22,1.42.26,1.62.69.22.43.13.74.22.76.04.04.32-.27.18-.91-.07-.31-.27-.67-.64-.95-.38-.29-.93-.43-1.51-.35-1.19.12-2.24,1.26-2.75,2.5-.58,1.25-.89,2.77-.8,4.35.2,3.12,1.89,6,4.16,6.57,1.1.25,2-.11,2.46-.49.47-.4.54-.75.48-.77Z"/>
        </g>
        <g>
          <g>
            <path class="cls-5" d="m375.39,96.34c.4-.42,2.86,1.39,6.35,1.39,3.48.04,6.04-1.75,6.42-1.33.19.19-.22.95-1.34,1.76-1.1.81-2.97,1.59-5.14,1.58-2.17-.01-4-.81-5.05-1.63-1.07-.82-1.44-1.59-1.24-1.78Z"/>
            <path class="cls-5" d="m409.68,95.69c.4-.42,2.86,1.39,6.35,1.38,3.48.04,6.04-1.75,6.42-1.33.19.19-.22.95-1.34,1.76-1.1.81-2.97,1.59-5.14,1.59-2.17-.01-4-.81-5.05-1.63-1.07-.82-1.43-1.59-1.24-1.78Z"/>
            <path class="cls-5" d="m400.55,121.14c-.02-.2,2.15-.57,5.66-1.02.89-.09,1.73-.27,1.88-.88.21-.64-.16-1.6-.59-2.64-.84-2.16-1.71-4.41-2.63-6.78-3.66-9.66-6.3-17.59-5.91-17.74.39-.14,3.67,7.57,7.33,17.22.88,2.38,1.72,4.65,2.52,6.82.34,1.01.92,2.16.46,3.5-.24.67-.89,1.15-1.46,1.3-.57.17-1.07.18-1.51.21-3.54.19-5.73.21-5.74,0Z"/>
            <path class="cls-5" d="m390.28,123.55c.57-.03.57,3.75,3.81,6.44,3.23,2.7,7.27,2.27,7.3,2.8.05.24-.9.74-2.6.78-1.67.06-4.11-.48-6.09-2.12-1.98-1.65-2.83-3.85-2.96-5.4-.14-1.58.28-2.52.54-2.5Z"/>
          </g>
          <path class="cls-5" d="m388.79,85.16c-.34.95-3.83.5-7.92.99-4.1.41-7.4,1.61-7.94.76-.24-.41.33-1.3,1.67-2.22,1.32-.92,3.43-1.79,5.89-2.06,2.46-.27,4.71.12,6.2.73,1.5.61,2.26,1.35,2.11,1.8Z"/>
          <path class="cls-5" d="m420.89,88.49c-.61.79-3.02-.03-5.91-.07-2.89-.14-5.34.53-5.9-.3-.25-.4.14-1.2,1.21-1.95,1.05-.75,2.81-1.36,4.8-1.3,1.98.06,3.71.78,4.71,1.59,1.02.81,1.36,1.63,1.09,2.02Z"/>
        </g>
      </g>
      <path class="cls-5" d="m437.53,48.37c.24-2.81-.8-5.83-3.09-7.49-2.29-1.65-5.84-1.55-7.7.58,1.07-3.79-2.03-8.16-5.96-8.41-3.7-.24-6.86,2.56-10.43,3.54-3.49.96-7.24.13-10.6-1.22-3.36-1.35-6.5-3.22-9.9-4.46-7.09-2.59-15.2-2.27-22.06.89-6.86,3.15-12.4,9.09-15.05,16.16-4.96-1.55-10.6.97-13.66,5.17-3.06,4.2-3.85,9.73-3.24,14.89.41,3.49,1.42,6.86,2.6,10.18,0,.29-.03.58-.02.87.23,12.48,1.65,27.14,6.97,27.22,9.28.14,7.07-17.34,7.07-17.34,11.39-4.4,7.15-21.46,9.99-24.05,2.85-2.59,8.8-8.6,32.65,3.58,9.26,4.73,21.57,4.58,28.29,3.06.2-.04.4-.07.59-.12.04-.01.1-.02.14-.03.07-.02.13-.06.2-.08,2.14-.56,4.21-1.39,6.11-2.59,2.16-1.37,4.12-3.22,5.04-5.6.92-2.39.57-5.36-1.3-7.1,1.76-2.21,3.14-4.82,3.38-7.63Z"/>
    </g>
    <path class="cls-1" d="m414.87,18.66s.17.19.42.61c.28.41.58,1.06.92,1.93.65,1.74,1.12,4.51.48,7.81-.63,3.25-2.52,7.14-6.27,9.7-3.79,2.53-8.98,3.02-13.97,2.26-5.04-.73-9.57-2.37-13.8-3.23-4.21-.93-8.14-1.08-11.29-.28-3.17.72-5.44,2.18-6.76,3.41-1.32,1.25-1.82,2.15-1.9,2.1-.03-.02.09-.24.33-.67.25-.42.67-1.01,1.32-1.69,1.28-1.34,3.6-2.95,6.85-3.78,3.24-.92,7.33-.82,11.61.08,4.3.83,8.85,2.44,13.76,3.15,4.87.74,9.81.27,13.38-2.06,3.54-2.35,5.43-6.02,6.1-9.14.69-3.16.34-5.85-.19-7.57-.53-1.74-1.1-2.6-1.01-2.65Z"/>
    <path class="cls-5" d="m408.98,22.89c.04-.08,1.23,1.04,1.46,3.48.1,1.19-.07,2.66-.77,4.11-.69,1.45-1.95,2.79-3.53,3.71-1.59.92-3.33,1.36-4.9,1.41-1.58.06-2.98-.21-4.1-.55-2.25-.72-3.4-1.64-3.35-1.72.07-.14,1.33.57,3.52,1.1,2.15.52,5.44.72,8.38-1.02,1.44-.85,2.58-2.03,3.24-3.31.67-1.28.89-2.61.87-3.7-.05-2.24-.98-3.43-.82-3.51Z"/>
  </g>
  <path class="cls-10" d="m488.46,396.54s1.45,10.8-9.46,16.7l-24.81-10.4-30.58,2.06,12.06-32.75s34.36,4.21,39.22,8.1c4.86,3.89,13.96,11.15,13.57,16.3Z"/>
  <g class="cls-13">
    <path class="cls-4" d="m488.46,396.54s1.45,10.8-9.46,16.7l-24.81-10.4-30.58,2.06,12.06-32.75s34.36,4.21,39.22,8.1c4.86,3.89,13.96,11.15,13.57,16.3Z"/>
  </g>
  <g class="cls-12">
    <path class="cls-4" d="m488.46,396.54s1.45,10.8-9.46,16.7l-24.81-10.4-30.58,2.06,12.06-32.75s34.36,4.21,39.22,8.1c4.86,3.89,13.96,11.15,13.57,16.3Z"/>
  </g>
  <g class="cls-12">
    <path class="cls-4" d="m488.22,397.34s1.45,10.8-9.46,16.7l-24.81-10.4-30.58,2.06,12.06-32.75s34.36,4.21,39.22,8.1c4.86,3.89,13.96,11.15,13.57,16.3Z"/>
  </g>
  <g>
    <path class="cls-9" d="m514.22,249.37l-2.48-2.15-52.47-41.09c-16.2-17.22-27.98-22.4-50.77-25.1-3.72-.44,2.13.27,0,0-17.48,5.38-40.89,5.9-58.37.49h0c-8.11.34-14.82,2.84-21.71,4.16-21.71,4.16-33.32,19.5-41.68,34.58l-42,70.48,1.8,2.78c5.86,9.07,14.6,15.91,24.81,19.43h0l2.82,1.41c9.73,4.86,18.66,11.77,24.78,20.76h0l18.5-32.31-5.2,51.8-3.59,50.87c26.09,7.11,47.85,10.12,75.91,9.68,36.59.16,87.47-44.38,103.9-18.62.24-13.2-16.38-31.27-20.98-40.02-14.3-27.2-11.61-38.19-12.65-58.6l24.55,15.04,4.4-8.61c3.72-7.28,10.82-23.47,13.47-36.09,0,0,2.89-23.57,16.97-18.88Z"/>
    <path class="cls-9" d="m317.57,250.62c.07,0,.14.76.19,2.13.06,1.37.1,3.35.14,5.8.07,4.9.1,11.67.06,19.14-.04,7.48-.12,14.24-.24,19.14-.06,2.45-.12,4.43-.19,5.8-.07,1.37-.14,2.13-.21,2.13-.07,0-.14-.76-.19-2.13-.06-1.37-.1-3.35-.14-5.8-.07-4.9-.1-11.67-.06-19.14.03-7.47.12-14.24.24-19.14.06-2.45.12-4.43.19-5.8.07-1.37.14-2.13.21-2.13Z"/>
    <path class="cls-9" d="m457.81,332.77c-.07,0-.22-1.17-.43-3.29-.21-2.3-.48-5.33-.8-9-.63-7.6-1.44-18.1-2.26-29.71-.82-11.61-1.51-22.12-1.96-29.73-.19-3.67-.35-6.71-.48-9.02-.09-2.13-.11-3.31-.03-3.32.07,0,.22,1.17.43,3.29.21,2.3.48,5.33.8,9,.63,7.6,1.44,18.1,2.26,29.71.82,11.6,1.51,22.11,1.96,29.73.19,3.67.35,6.71.48,9.02.09,2.13.11,3.31.03,3.32Z"/>
  </g>
  <g class="cls-12">
    <path class="cls-4" d="m343.52,183.35c11.14,15.66,25.69,28.89,42.34,38.49,6.1,3.52,12.66,6.61,19.67,7.18,12.08.98,23.49-5.61,32.87-13.3,3.71-3.04,7.38-6.48,8.95-11.01,1.58-4.52.35-10.37-3.89-12.6-2.92-1.54-6.54-1.05-9.54.31-3,1.37-5.55,3.52-8.25,5.42-12.08,8.51-27.65,11.88-42.17,9.14-14.52-2.74-27.79-11.57-35.93-23.89"/>
  </g>
  <g>
    <path class="cls-6" d="m416.01,308.47c-.16.02.05-2.68-1.11-7.3-.54-2.31-1.64-5.04-3.36-7.93-1.73-2.88-4.22-5.88-7.6-8.42-3.37-2.52-7.62-4.66-12.52-5.52-4.87-.83-10.36-.67-15.59,1.32-2.63.92-5.17,2.3-7.5,4.04-1.2.83-2.26,1.86-3.36,2.86-1,1.1-2.04,2.18-2.9,3.44-3.65,4.85-5.7,11.09-5.76,17.51.06,6.43,2.11,12.67,5.76,17.52.86,1.25,1.91,2.33,2.9,3.44,1.1,1,2.16,2.03,3.36,2.86,2.33,1.75,4.87,3.13,7.5,4.04,5.23,1.99,10.72,2.15,15.59,1.32,4.9-.86,9.15-3,12.52-5.52,3.38-2.54,5.87-5.55,7.6-8.42,1.72-2.89,2.81-5.62,3.36-7.93,1.16-4.62.95-7.31,1.11-7.3.02,0,.02.16.02.49,0,.38-.02.85-.03,1.43,0,.63-.04,1.41-.19,2.33-.12.92-.24,1.98-.57,3.14-.5,2.35-1.56,5.14-3.26,8.1-1.72,2.95-4.22,6.04-7.65,8.67-3.42,2.61-7.75,4.84-12.77,5.75-4.98.88-10.62.75-16.01-1.27-2.71-.93-5.33-2.34-7.73-4.13-1.24-.85-2.33-1.91-3.47-2.94-1.03-1.13-2.11-2.25-3-3.53-3.76-4.99-5.89-11.42-5.95-18.04.06-6.62,2.19-13.05,5.95-18.04.89-1.29,1.97-2.4,3-3.53,1.14-1.02,2.22-2.09,3.47-2.94,2.4-1.79,5.02-3.2,7.73-4.13,5.38-2.02,11.02-2.16,16.01-1.27,5.02.92,9.35,3.14,12.77,5.75,3.43,2.63,5.93,5.72,7.65,8.67,1.71,2.96,2.77,5.75,3.26,8.1.33,1.16.45,2.22.57,3.14.16.91.19,1.69.19,2.33.01.59.02,1.06.03,1.43,0,.32,0,.49-.02.49Z"/>
    <path class="cls-6" d="m384.99,338.51c-.25,0-.45-13.45-.45-30.05s.2-30.05.45-30.05.45,13.45.45,30.05-.2,30.05-.45,30.05Z"/>
    <path class="cls-6" d="m409.77,326.78s-.75-.45-2.02-1.39c-1.39-1.06-3.16-2.42-5.29-4.05-4.44-3.45-10.53-8.26-17.23-13.62-.18-.15-.36-.29-.53-.42l.59-.02c-6.14,5.77-11.71,10.93-15.76,14.63-1.94,1.75-3.56,3.2-4.83,4.34-1.15,1.01-1.81,1.55-1.85,1.5s.53-.67,1.61-1.75c1.22-1.19,2.77-2.72,4.63-4.55,3.94-3.82,9.44-9.06,15.58-14.83l.29-.27.31.25c.17.13.35.28.53.42,6.69,5.36,12.72,10.25,17.06,13.82,2.05,1.72,3.77,3.15,5.11,4.27,1.19,1.02,1.83,1.61,1.8,1.66Z"/>
  </g>
  <g class="cls-12">
    <path class="cls-4" d="m360.2,388.87c25.51,4.87,53.01-6.02,68.54-26.83,2.5-3.35,4.8-7.47,3.76-11.53-1.08-4.24-5.71-6.88-10.08-6.77-4.37.11-8.4,2.45-11.69,5.33-7.97,6.99-12.54,17.22-20.48,24.24-7.07,6.25-16.67,9.56-26.1,8.99-1.46-.09-2.92-.06-4.36.17-1.9.3-3.34,2.01-3.34,3.47,0,1.73,1.36,2.46,3.75,2.93"/>
  </g>
  <g class="cls-12">
    <polygon class="cls-4" points="452.67 266.22 454.83 297.92 479.38 312.96 484.51 303.39 452.67 266.22"/>
  </g>
  <path class="cls-5" d="m514.69,249.88c-.04.12-1-.51-2.94-.58-1.89-.09-4.79.56-7.43,2.78-2.69,2.16-4.59,5.99-5.81,10.39-1.2,4.44-2.34,9.44-3.95,14.55-3.11,10.26-6.83,19.25-9.81,25.6-1.48,3.18-2.79,5.7-3.71,7.44-.94,1.72-1.49,2.66-1.54,2.63-.06-.03.38-1.02,1.23-2.79.82-1.78,2.04-4.34,3.44-7.54,2.82-6.4,6.43-15.38,9.52-25.6,1.61-5.1,2.75-10.03,4.02-14.52,1.28-4.46,3.3-8.44,6.2-10.66,2.82-2.26,5.89-2.85,7.86-2.64,1,.08,1.74.35,2.22.54.47.23.71.36.69.39Z"/>
  <path class="cls-5" d="m298.94,335.13c-.06.04-.66-.75-1.8-2.15-1.14-1.39-2.8-3.39-5.08-5.65-2.28-2.25-5.17-4.75-8.79-6.95-3.58-2.26-7.78-4.31-12.17-6.55-4.38-2.26-8.5-4.54-12.04-6.96-3.56-2.4-6.48-4.96-8.69-7.35-2.18-2.41-3.65-4.61-4.49-6.22-.47-.78-.71-1.44-.92-1.87-.19-.44-.28-.67-.25-.68.19-.12,1.68,3.7,6.13,8.34,2.23,2.29,5.15,4.77,8.69,7.09,3.52,2.36,7.62,4.6,11.98,6.85,4.37,2.23,8.6,4.31,12.2,6.65,3.65,2.27,6.56,4.88,8.8,7.21,2.24,2.34,3.84,4.42,4.9,5.89.53.74.92,1.32,1.17,1.72.25.4.37.62.35.64Z"/>
  <path class="cls-5" d="m438.07,345.66s-.08.36-.31,1c-.25.64-.56,1.61-1.1,2.8-1.01,2.41-2.69,5.81-5.21,9.74-4.97,7.85-13.96,17.76-26.74,24.36-12.78,6.59-26.07,8.19-35.35,7.68-4.67-.22-8.42-.82-10.96-1.4-1.28-.25-2.25-.56-2.91-.72-.66-.18-1-.29-1-.33,0-.03.37.02,1.04.15.68.11,1.65.36,2.94.56,2.55.47,6.29.96,10.92,1.1,9.2.33,22.3-1.34,34.91-7.85,12.6-6.51,21.56-16.21,26.62-23.9,2.57-3.86,4.33-7.19,5.43-9.54.59-1.16.95-2.1,1.25-2.72.29-.62.45-.94.48-.93Z"/>
  <g class="cls-12">
    <path class="cls-4" d="m300.49,331.49c2-25.29,7.77-50.28,17.08-73.88l-.04,45.03-17.04,28.85Z"/>
  </g>
  <g>
    <path class="cls-5" d="m342.62,182.44c7.63,16.34,27.78,25.62,45.49,29.03,17.71,3.41,36.92-2.15,50.07-14.49,11.15-10.46,17.7-24.94,28.07-36.17,17.69-19.16,46.66-27.02,71.61-19.44l1.37-24.71c-8.46-5.48-30.23-7.47-40.2-5.97-19.62,2.96-37.97,13.7-50.15,29.36-10.93,14.06-17.37,32.13-31.87,42.47-10.48,7.47-23.47,7.53-36.16,5.38-12.69-2.15-21.24-13.74-31.04-22.08l-7.19,16.62Z"/>
    <path class="cls-5" d="m349.72,165.84c6.61,8.39,16.63,14,27.23,15.26,10.6,1.26,21.66-1.86,30.04-8.48,2.27-1.79,5.16-3.94,7.72-2.61,1.98,1.03,2.47,3.59,2.73,5.81.61,5.12,1.09,10.78-1.92,14.96-2.89,4.01-8.14,5.44-13.02,6.25-11.57,1.91-23.83,1.79-34.55-2.98-10.71-4.76-17.32-16.53-18.25-28.22"/>
    <path class="cls-1" d="m422.05,178.35s-.17.24-.57.64c-.4.39-.97,1-1.78,1.68-1.6,1.39-4.06,3.29-7.42,5.1-3.36,1.79-7.64,3.52-12.64,4.36-4.98.87-10.66.88-16.35-.51-5.72-1.35-10.68-4.02-15-6.55-2.16-1.29-4.18-2.52-6.06-3.76-1.86-1.25-3.52-2.54-4.94-3.8-2.87-2.52-4.83-4.95-5.97-6.75-.58-.9-.97-1.63-1.2-2.14-.23-.51-.34-.78-.31-.8.07-.04.59,1.02,1.81,2.74,1.22,1.71,3.22,4.04,6.1,6.46,1.43,1.22,3.09,2.45,4.94,3.66,1.85,1.19,3.92,2.41,6.07,3.67,4.32,2.48,9.21,5.08,14.79,6.39,5.56,1.36,11.11,1.37,16,.57,4.91-.78,9.13-2.41,12.48-4.1,3.35-1.71,5.84-3.51,7.5-4.8,1.64-1.33,2.52-2.11,2.57-2.05Z"/>
    <path class="cls-1" d="m451.97,178.49c-.13.22-4.62-2.22-10.17-5.2-5.54-2.99-10.05-5.4-9.94-5.63.11-.22,4.8,1.83,10.37,4.83,5.56,2.99,9.86,5.79,9.74,6Z"/>
    <path class="cls-1" d="m464.1,162.68c-.12.22-5.12-2.31-11.16-5.64-6.04-3.34-10.84-6.22-10.72-6.44.12-.22,5.12,2.31,11.16,5.64,6.04,3.33,10.84,6.22,10.72,6.43Z"/>
    <path class="cls-1" d="m475.83,149.6c-.09.09-1.18-.89-2.89-2.51-1.97-1.87-4.2-3.99-6.66-6.33-2.48-2.32-4.73-4.43-6.71-6.28-1.71-1.61-2.75-2.64-2.67-2.74.08-.09,1.27.76,3.09,2.25,1.83,1.49,4.28,3.64,6.9,6.11,2.62,2.47,4.9,4.8,6.5,6.54,1.6,1.74,2.52,2.87,2.43,2.96Z"/>
    <path class="cls-1" d="m477.6,117.04c.11-.06,1.04,1.32,2.5,3.57,1.64,2.53,3.57,5.52,5.7,8.81,2.17,3.28,4.12,6.25,5.79,8.76,1.48,2.24,2.37,3.65,2.27,3.73-.1.07-1.17-1.2-2.79-3.36-1.62-2.15-3.77-5.19-6.02-8.63-2.25-3.44-4.17-6.63-5.49-8.98-1.32-2.35-2.06-3.84-1.96-3.91Z"/>
    <path class="cls-1" d="m504.92,111.88c.13-.02.48,1.47,1.02,3.89.62,2.76,1.34,5.93,2.13,9.44.86,3.49,1.63,6.66,2.31,9.4.6,2.41.95,3.9.82,3.94-.12.04-.68-1.4-1.44-3.77-.76-2.37-1.7-5.67-2.57-9.37-.87-3.69-1.5-7.07-1.88-9.53-.38-2.46-.51-3.99-.39-4.01Z"/>
    <path class="cls-1" d="m526.32,111.58c.27.01.16,5.88.52,13.1.34,7.22,1.03,13.05.76,13.08-.12.02-.44-1.42-.79-3.78-.35-2.36-.7-5.63-.88-9.26-.18-3.63-.15-6.92-.03-9.3.11-2.38.3-3.84.42-3.84Z"/>
    <path class="cls-1" d="m436.4,198.3c-.17.18-4.25-3.51-9.1-8.24-4.85-4.73-8.64-8.71-8.47-8.89s4.25,3.51,9.1,8.24c4.85,4.73,8.64,8.71,8.47,8.89Z"/>
    <path class="cls-1" d="m411.83,210.96c-.24.07-1.94-4.86-3.79-11.01-1.85-6.16-3.16-11.2-2.92-11.28.24-.07,1.93,4.86,3.79,11.01,1.85,6.15,3.16,11.2,2.92,11.27Z"/>
    <path class="cls-1" d="m384.47,210.59c-.25-.05.5-4.63,1.66-10.22,1.16-5.59,2.3-10.08,2.54-10.03.24.05-.5,4.62-1.66,10.22-1.16,5.59-2.3,10.08-2.54,10.03Z"/>
    <path class="cls-1" d="m363.85,202.73c-.23-.07.97-4.26,3.31-9.07,2.33-4.82,4.87-8.35,5.07-8.22.22.14-1.95,3.85-4.25,8.61-2.31,4.75-3.88,8.76-4.13,8.67Z"/>
    <path class="cls-1" d="m358.15,176.43c.22.11-1.41,3.73-3.99,7.88-2.57,4.15-5.1,7.22-5.29,7.07-.21-.15,1.97-3.43,4.52-7.55,2.56-4.11,4.53-7.52,4.76-7.4Z"/>
    <path class="cls-1" d="m381.17,181.67c.25.06.09,1.45-.08,3.13-.18,1.68-.32,3.07-.57,3.08-.24.01-.52-1.41-.33-3.17.18-1.76.75-3.1.98-3.03Z"/>
    <path class="cls-1" d="m398.17,189.78c-.24.04-.88-2.44-1.21-5.58-.33-3.13-.23-5.7.02-5.71.25,0,.55,2.51.88,5.61.32,3.1.56,5.63.31,5.67Z"/>
    <path class="cls-1" d="m410.39,171.36c.26-.01.59,3.12,1.24,6.94.63,3.82,1.33,6.89,1.08,6.96-.23.07-1.34-2.93-1.98-6.82-.65-3.88-.59-7.08-.35-7.09Z"/>
  </g>
  <g>
    <path class="cls-11" d="m252.42,374.4l109.29-63.31c8.32-4.82,13.6-13.55,14.02-23.15l2.89-66.5c.08-1.82-1.29-3.38-3.1-3.55h0c-1.64-.15-3.15.9-3.59,2.48l-13.96,49.9-130.02,55.07c-14.61,6.19-20.95,23.44-13.83,37.62h0c7.1,14.13,24.63,19.37,38.32,11.44Z"/>
    <path class="cls-7" d="m357.95,270.27s-.42.26-1.25.66c-.91.43-2.13,1.01-3.66,1.74-3.28,1.5-7.89,3.61-13.55,6.2-11.47,5.17-27.37,12.19-45.06,19.67-17.69,7.47-33.82,13.97-45.54,18.53-5.86,2.28-10.62,4.1-13.92,5.32-1.59.58-2.86,1.04-3.81,1.39-.87.31-1.34.46-1.35.43-.01-.03.43-.23,1.28-.6.93-.39,2.18-.9,3.74-1.55,3.35-1.35,8.04-3.25,13.81-5.58,11.66-4.71,27.74-11.3,45.43-18.77,17.68-7.47,33.62-14.39,45.15-19.42,5.71-2.48,10.35-4.5,13.67-5.93,1.56-.66,2.8-1.19,3.73-1.58.86-.35,1.31-.52,1.33-.49Z"/>
    <g>
      <path class="cls-5" d="m217.19,368.71c-.01-.08,1.46-.25,4.02-.87,1.28-.33,2.82-.81,4.5-1.63,1.68-.82,3.46-1.99,5.36-3.41,1.89-1.42,3.98-2.99,6.17-4.71,2.18-1.73,4.45-3.67,6.84-5.7,4.79-4.03,10.11-8.62,16.72-11.83,6.54-3.3,13.43-4.95,19.71-5.59,6.31-.57,12.04-.09,16.72.86,4.69.95,8.33,2.3,10.77,3.36,1.23.52,2.13,1.04,2.76,1.35.62.32.94.51.93.53-.01.03-.36-.1-1.01-.37-.65-.25-1.58-.71-2.81-1.18-2.47-.95-6.11-2.2-10.76-3.06-4.64-.86-10.3-1.26-16.51-.66-6.19.68-12.95,2.33-19.39,5.57-6.48,3.15-11.77,7.66-16.59,11.66-2.41,2.02-4.7,3.94-6.91,5.66-2.23,1.71-4.32,3.24-6.25,4.64-1.93,1.39-3.78,2.55-5.52,3.35-1.74.79-3.33,1.23-4.64,1.51-1.31.27-2.34.41-3.04.47-.7.07-1.07.09-1.07.06Z"/>
      <g>
        <path class="cls-5" d="m238.14,358.45c.08,0,.11.61.38,1.66.27,1.04.87,2.52,2.17,3.94,1.29,1.39,3.2,2.85,5.57,3.66,2.38.79,5.32.81,7.99-.3.27-.11.52-.24.76-.35l-.21.57c-1.08-2.61-2.87-4.74-4.81-6.21-1.94-1.49-4.04-2.29-5.84-2.69-3.65-.76-5.98-.1-5.99-.28-.01-.05.54-.25,1.6-.42,1.05-.16,2.62-.25,4.52.08,1.89.33,4.13,1.11,6.21,2.64,2.08,1.51,4,3.75,5.15,6.53l.17.4-.38.17c-.26.12-.53.27-.82.38-2.9,1.21-6.06,1.15-8.61.26-2.56-.93-4.46-2.49-5.78-4.03-1.31-1.56-1.86-3.18-2.03-4.29-.17-1.12-.08-1.74-.03-1.73Z"/>
        <path class="cls-5" d="m238.14,358.45c.13-.22,2.54.95,5.4,2.6,2.86,1.65,5.07,3.16,4.95,3.38s-2.54-.95-5.4-2.6c-2.86-1.65-5.07-3.16-4.95-3.38Z"/>
      </g>
      <g>
        <path class="cls-5" d="m254.6,344.92c.08-.02.24.57.75,1.53.5.95,1.43,2.25,3.01,3.34,1.57,1.05,3.76,2.04,6.26,2.28,2.49.22,5.36-.43,7.71-2.13.23-.16.45-.35.66-.51l-.07.61c-1.65-2.3-3.88-3.96-6.1-4.94-2.23-1-4.46-1.3-6.3-1.27-3.73.09-5.85,1.27-5.9,1.1-.02-.05.47-.37,1.46-.77.99-.39,2.49-.84,4.42-.96,1.92-.11,4.27.13,6.65,1.15,2.37.99,4.75,2.73,6.51,5.17l.25.35-.33.26c-.23.18-.46.38-.71.56-2.55,1.85-5.64,2.51-8.32,2.23-2.71-.32-4.92-1.41-6.55-2.6-1.64-1.22-2.54-2.67-2.96-3.71-.42-1.05-.47-1.67-.43-1.68Z"/>
        <path class="cls-5" d="m254.6,344.92c.07-.24,2.69.34,5.85,1.29,3.16.95,5.66,1.92,5.59,2.16-.07.24-2.69-.34-5.85-1.29-3.16-.95-5.66-1.92-5.59-2.16Z"/>
      </g>
      <g>
        <path class="cls-5" d="m225.72,366.11c-.05-.06.42-.46,1.09-1.31.66-.85,1.46-2.23,1.8-4.12.31-1.87.3-4.27-.5-6.64-.83-2.36-2.6-4.71-5.12-6.14-.25-.15-.51-.26-.74-.39l.58-.18c-1.41,2.45-2,5.17-1.98,7.6.01,2.45.65,4.6,1.44,6.27,1.62,3.36,3.57,4.8,3.44,4.92-.03.04-.53-.27-1.3-1.01-.77-.73-1.8-1.92-2.69-3.63-.9-1.7-1.64-3.95-1.7-6.53-.07-2.57.53-5.45,2.02-8.07l.22-.38.37.19c.25.13.54.26.8.42,2.73,1.56,4.62,4.1,5.46,6.66.83,2.6.75,5.06.34,7.04-.44,2-1.38,3.42-2.15,4.23-.78.82-1.33,1.12-1.36,1.08Z"/>
        <path class="cls-5" d="m225.72,366.11c-.25.03-.8-2.59-1.24-5.86-.44-3.27-.59-5.95-.35-5.98.25-.03.8,2.59,1.24,5.86.44,3.27.59,5.95.35,5.98Z"/>
      </g>
      <g>
        <path class="cls-5" d="m266.46,338.92c-.02-.08.53-.22,1.42-.66.88-.44,2.09-1.26,3.12-2.69,1-1.41,1.95-3.41,2.23-5.68.26-2.28-.27-4.91-1.77-7.1-.15-.22-.31-.42-.46-.61l.61.09c-2.14,1.46-3.71,3.46-4.67,5.47-.97,2.02-1.3,4.05-1.32,5.74,0,3.42,1.02,5.39.85,5.44-.05.02-.34-.44-.69-1.35-.34-.91-.72-2.31-.79-4.08-.07-1.76.21-3.93,1.2-6.1.97-2.16,2.62-4.31,4.9-5.87l.36-.25.25.33c.16.21.34.43.5.67,1.64,2.39,2.18,5.25,1.86,7.71-.36,2.48-1.41,4.49-2.55,5.97-1.16,1.48-2.52,2.27-3.49,2.63-.97.36-1.55.39-1.56.34Z"/>
        <path class="cls-5" d="m266.46,338.92c-.24-.08.34-2.47,1.28-5.35.95-2.88,1.9-5.15,2.14-5.07.24.08-.34,2.47-1.28,5.35-.94,2.88-1.9,5.15-2.14,5.07Z"/>
      </g>
      <g>
        <path class="cls-5" d="m280.47,335.3c.08.02-.06.57-.11,1.56-.05.98.09,2.44.84,4.03.75,1.56,2.03,3.36,3.88,4.71,1.86,1.33,4.42,2.15,7.06,1.9.26-.02.52-.07.76-.1l-.37.49c-.23-2.58-1.21-4.93-2.51-6.74-1.29-1.83-2.91-3.11-4.38-3.95-2.98-1.67-5.2-1.73-5.16-1.91,0-.05.55-.08,1.52.06.97.14,2.37.49,3.95,1.3,1.57.8,3.33,2.1,4.74,4.01,1.42,1.89,2.49,4.38,2.75,7.14l.04.43-.41.05c-.26.03-.54.09-.83.11-2.89.27-5.65-.65-7.64-2.13-2-1.52-3.24-3.42-3.97-5.13-.72-1.73-.76-3.31-.6-4.32.16-1.03.42-1.54.46-1.53Z"/>
        <path class="cls-5" d="m280.47,335.3c.18-.17,2,1.5,4.05,3.72,2.06,2.23,3.57,4.17,3.39,4.34-.18.17-2-1.5-4.05-3.72-2.05-2.23-3.57-4.17-3.39-4.34Z"/>
      </g>
      <g>
        <path class="cls-5" d="m290.6,334.9c-.01-.21,2.06.55,4.81-.87,1.32-.71,2.83-1.88,3.92-3.52,1.08-1.66,1.7-3.9,1.39-6.16-.03-.22-.08-.44-.11-.65l.5.35c-2.22.29-4.21,1.22-5.74,2.4-1.54,1.18-2.59,2.62-3.27,3.91-1.35,2.63-1.34,4.56-1.51,4.53-.05,0-.11-.47-.03-1.32.08-.85.33-2.08.97-3.49.64-1.4,1.7-2.98,3.32-4.28,1.6-1.3,3.73-2.33,6.13-2.65l.43-.06.07.41c.04.23.1.47.13.72.34,2.51-.37,4.96-1.59,6.75-1.26,1.8-2.87,2.94-4.34,3.64-1.49.69-2.86.77-3.75.66-.9-.11-1.36-.32-1.34-.37Z"/>
        <path class="cls-5" d="m290.6,334.9c-.18-.18,1.19-1.83,3.05-3.69,1.86-1.86,3.51-3.23,3.69-3.05.18.18-1.19,1.83-3.05,3.69-1.86,1.86-3.51,3.23-3.69,3.05Z"/>
      </g>
      <g>
        <path class="cls-5" d="m246.39,350.63c-.05-.06.42-.46,1.09-1.31.66-.85,1.46-2.23,1.8-4.12.31-1.87.3-4.27-.5-6.64-.83-2.36-2.6-4.71-5.12-6.14-.25-.15-.51-.26-.74-.39l.58-.18c-1.41,2.45-2,5.17-1.98,7.6.01,2.45.65,4.6,1.44,6.27,1.62,3.36,3.57,4.8,3.44,4.92-.03.04-.53-.27-1.3-1.01-.77-.73-1.8-1.92-2.69-3.63-.9-1.7-1.64-3.95-1.7-6.53-.07-2.57.53-5.45,2.02-8.07l.22-.38.37.19c.25.13.54.26.8.42,2.73,1.56,4.62,4.1,5.46,6.65.83,2.6.75,5.06.34,7.04-.43,2-1.38,3.42-2.15,4.23-.78.82-1.33,1.12-1.36,1.08Z"/>
        <path class="cls-5" d="m246.39,350.63c-.25.03-.81-2.59-1.24-5.86-.44-3.27-.59-5.95-.35-5.98.25-.03.8,2.59,1.24,5.86.44,3.27.59,5.95.35,5.98Z"/>
      </g>
    </g>
  </g>
  <g>
    <path class="cls-11" d="m516.1,355.8l-111.32-49.76c-8.47-3.79-14.43-11.63-15.8-20.81l-9.48-63.56c-.26-1.74.9-3.38,2.62-3.72h0c1.56-.31,3.11.54,3.7,2.02l18.44,46.5,130.39,39.76c16.32,5.27,22.63,20.46,17.08,34.72h0c-5.39,14.29-21.7,21.08-35.63,14.85Z"/>
    <path class="cls-7" d="m404.27,266.46s.47.09,1.32.34c.94.29,2.18.66,3.74,1.14,3.33,1.05,8,2.51,13.72,4.32,11.58,3.66,27.58,8.69,45.31,14.08,17.73,5.39,33.84,10.09,45.51,13.45,5.77,1.66,10.47,3.01,13.82,3.97,1.56.46,2.81.83,3.75,1.11.85.26,1.3.42,1.29.45,0,.03-.47-.06-1.34-.27-.95-.24-2.21-.55-3.8-.95-3.29-.84-8.04-2.1-13.9-3.7-11.72-3.2-27.86-7.81-45.6-13.2-17.73-5.39-33.71-10.53-45.24-14.34-5.69-1.92-10.32-3.48-13.63-4.59-1.54-.54-2.77-.97-3.69-1.3-.84-.31-1.28-.48-1.27-.51Z"/>
    <g>
      <path class="cls-5" d="m549.35,346.78s-.36.05-1.03.06c-.68,0-1.68-.02-2.96-.15-1.28-.14-2.86-.4-4.61-.98-1.75-.59-3.64-1.51-5.64-2.66-2-1.15-4.16-2.4-6.47-3.82-2.3-1.42-4.7-3.04-7.21-4.73-5.03-3.35-10.56-7.15-17.1-9.52-6.5-2.46-13.16-3.37-19.17-3.4-6.03.05-11.42,1.01-15.79,2.29-4.38,1.29-7.74,2.85-10.02,4.02-1.14.58-1.98,1.11-2.58,1.42-.59.32-.91.48-.93.45-.02-.03.27-.23.83-.61.57-.36,1.39-.94,2.51-1.57,2.24-1.26,5.6-2.93,10-4.32,4.4-1.38,9.85-2.42,15.97-2.52,6.1-.02,12.88.88,19.49,3.38,6.67,2.42,12.25,6.29,17.25,9.68,2.5,1.71,4.87,3.35,7.14,4.79,2.27,1.43,4.43,2.73,6.39,3.9,1.96,1.17,3.8,2.11,5.49,2.73,1.69.61,3.23.92,4.49,1.11,2.53.34,3.96.35,3.95.44Z"/>
      <g>
        <path class="cls-5" d="m528.2,339.04s.2.58.15,1.67c-.05,1.08-.41,2.69-1.51,4.33-1.11,1.61-2.78,3.3-5.15,4.46-2.35,1.11-5.39,1.49-8.3.62-.29-.08-.57-.19-.83-.28l-.39-.13.12-.42c.83-2.79,2.45-5.13,4.29-6.79,1.85-1.68,3.92-2.66,5.71-3.16,1.79-.51,3.31-.58,4.33-.53,1.03.05,1.58.19,1.57.24,0,.18-2.3-.22-5.72.89-1.69.56-3.62,1.55-5.33,3.17-1.71,1.6-3.21,3.83-3.98,6.44l-.27-.55c.24.08.5.18.76.26,2.67.8,5.49.48,7.69-.51,2.19-1.01,3.88-2.61,4.97-4.07,1.1-1.49,1.54-2.97,1.69-4,.15-1.03.12-1.63.2-1.63Z"/>
        <path class="cls-5" d="m528.2,339.04c.15.2-1.82,1.88-4.4,3.76-2.58,1.87-4.79,3.23-4.93,3.02-.15-.2,1.82-1.88,4.4-3.76,2.58-1.87,4.79-3.23,4.93-3.02Z"/>
      </g>
      <g>
        <path class="cls-5" d="m511.03,327.71s.06.61-.24,1.66c-.29,1.04-1.02,2.53-2.47,3.86-1.45,1.31-3.47,2.58-6.03,3.16-2.55.55-5.59.22-8.22-1.3-.26-.15-.51-.32-.74-.47l-.35-.22.22-.38c1.45-2.52,3.56-4.43,5.74-5.63,2.19-1.21,4.43-1.69,6.28-1.77,1.86-.08,3.35.2,4.34.48.99.29,1.49.55,1.48.6-.03.18-2.19-.74-5.77-.45-1.77.16-3.88.68-5.92,1.86-2.04,1.17-4,2.99-5.36,5.36l-.14-.6c.22.13.44.29.68.43,2.42,1.4,5.23,1.73,7.6,1.27,2.36-.48,4.37-1.65,5.77-2.82,1.41-1.2,2.18-2.54,2.56-3.5.39-.97.49-1.56.57-1.54Z"/>
        <path class="cls-5" d="m511.03,327.71c.1.23-2.21,1.42-5.14,2.65-2.94,1.23-5.4,2.04-5.5,1.81-.1-.23,2.21-1.42,5.15-2.65,2.94-1.23,5.4-2.04,5.49-1.81Z"/>
      </g>
      <g>
        <path class="cls-5" d="m540.9,345.14s-.58-.19-1.41-.9c-.82-.7-1.88-1.97-2.5-3.84-.59-1.86-.92-4.22-.39-6.8.55-2.54,2.11-5.18,4.58-6.95.24-.18.5-.33.73-.48l.35-.23.25.35c1.7,2.36,2.57,5.07,2.75,7.55.2,2.49-.29,4.73-.98,6.45-.69,1.73-1.56,2.97-2.23,3.76-.67.78-1.12,1.13-1.15,1.1-.15-.1,1.58-1.69,2.79-5.07.59-1.68.99-3.81.75-6.16-.22-2.34-1.07-4.88-2.67-7.09l.6.12c-.21.14-.45.28-.67.44-2.27,1.63-3.74,4.05-4.29,6.4-.54,2.35-.3,4.66.18,6.42.51,1.78,1.41,3.03,2.13,3.78.72.75,1.22,1.09,1.17,1.15Z"/>
        <path class="cls-5" d="m540.9,345.14c-.25,0-.38-2.59-.29-5.78.09-3.19.37-5.76.62-5.75.25,0,.38,2.59.29,5.78-.09,3.18-.37,5.76-.62,5.75Z"/>
      </g>
      <g>
        <path class="cls-5" d="m499.04,323.15s-.56.08-1.53-.16c-.96-.24-2.35-.87-3.62-2.17-1.24-1.31-2.45-3.12-3.05-5.48-.56-2.33-.33-5.14,1.01-7.6.13-.24.28-.47.41-.69l.21-.36.38.21c2.36,1.27,4.16,3.17,5.31,5.15,1.16,1.98,1.65,4.04,1.76,5.74.12,1.71-.11,3.09-.35,4-.24.92-.48,1.38-.53,1.37-.17-.03.61-2.03.25-5.31-.19-1.62-.71-3.53-1.85-5.37-1.12-1.84-2.83-3.59-5.03-4.78l.59-.15c-.12.2-.26.41-.37.63-1.22,2.24-1.46,4.82-.99,6.98.49,2.15,1.61,3.97,2.7,5.22,1.13,1.27,2.37,1.94,3.26,2.27.9.34,1.44.42,1.42.5Z"/>
        <path class="cls-5" d="m499.04,323.15c-.23.1-1.38-1.98-2.58-4.65-1.2-2.67-1.98-4.91-1.75-5.02.23-.1,1.38,1.98,2.58,4.65,1.2,2.67,1.98,4.91,1.75,5.02Z"/>
      </g>
      <g>
        <path class="cls-5" d="m485.23,321.08s.34.45.6,1.42c.26.96.38,2.48-.14,4.22-.54,1.72-1.53,3.66-3.3,5.33-1.76,1.63-4.33,2.79-7.13,2.82-.28,0-.55-.02-.81-.02h-.42s0-.45,0-.45c-.03-2.68.75-5.18,1.92-7.14,1.17-1.98,2.72-3.41,4.15-4.33,1.44-.93,2.75-1.41,3.66-1.64.92-.23,1.44-.25,1.45-.2.06.16-2.07.46-4.76,2.36-1.32.95-2.74,2.34-3.8,4.23-1.06,1.87-1.76,4.22-1.73,6.72l-.42-.44c.23,0,.48.03.74.02,2.55-.02,4.93-1.07,6.58-2.53,1.64-1.48,2.68-3.33,3.25-4.9.56-1.6.54-3.01.4-3.95-.14-.95-.33-1.46-.26-1.49Z"/>
        <path class="cls-5" d="m485.23,321.08c.2.15-1.05,2.17-2.8,4.52-1.75,2.34-3.33,4.12-3.53,3.97-.2-.15,1.05-2.17,2.8-4.52,1.75-2.34,3.33-4.12,3.53-3.97Z"/>
      </g>
      <g>
        <path class="cls-5" d="m475.45,321.72s-.4.3-1.25.5c-.84.2-2.17.26-3.67-.25-1.49-.52-3.14-1.46-4.54-3.06-1.36-1.6-2.29-3.88-2.21-6.33,0-.24.03-.48.05-.71l.03-.41h.43c2.34.08,4.49.85,6.16,1.95,1.69,1.09,2.87,2.5,3.62,3.78.76,1.29,1.12,2.45,1.28,3.26.16.81.16,1.27.1,1.27-.16.05-.35-1.81-1.92-4.19-.78-1.18-1.94-2.45-3.53-3.42-1.58-.98-3.59-1.67-5.74-1.72l.46-.4c-.01.2-.04.42-.04.63-.07,2.2.75,4.29,1.95,5.77,1.21,1.47,2.78,2.44,4.12,2.99,2.79,1.08,4.7.15,4.71.36Z"/>
        <path class="cls-5" d="m475.45,321.72c-.16.19-1.89-.95-3.86-2.55-1.97-1.6-3.45-3.06-3.29-3.25.16-.19,1.89.95,3.86,2.55,1.97,1.6,3.45,3.06,3.29,3.25Z"/>
      </g>
      <g>
        <path class="cls-5" d="m519.49,332.36s-.58-.19-1.41-.9c-.82-.7-1.88-1.97-2.5-3.84-.59-1.86-.92-4.22-.39-6.8.55-2.54,2.11-5.18,4.58-6.95.24-.18.5-.33.73-.48l.35-.23.25.35c1.7,2.36,2.57,5.07,2.75,7.55.2,2.49-.29,4.73-.98,6.45-.69,1.73-1.56,2.97-2.23,3.76-.67.78-1.12,1.13-1.15,1.1-.15-.1,1.58-1.69,2.79-5.07.59-1.68.99-3.81.75-6.16-.22-2.34-1.07-4.88-2.67-7.09l.6.12c-.21.14-.45.28-.67.44-2.27,1.63-3.74,4.05-4.29,6.4-.54,2.35-.3,4.66.18,6.42.51,1.78,1.41,3.03,2.13,3.78.72.75,1.22,1.09,1.17,1.15Z"/>
        <path class="cls-5" d="m519.49,332.36c-.25,0-.38-2.59-.29-5.78.09-3.19.37-5.76.62-5.75.25,0,.38,2.59.29,5.78-.09,3.18-.37,5.76-.62,5.75Z"/>
      </g>
    </g>
  </g>
  <g>
    <g>
      <g>
        <path class="cls-5" d="m52.95,593.73s.09-.27.32-.77c.25-.54.6-1.27,1.03-2.2.88-1.94,2.02-4.89,3.03-8.81,2.01-7.83,2.71-19.79-.26-34.01-1.38-7.12-3.6-14.75-6.31-22.84-2.67-8.11-5.77-16.71-8.3-26-2.5-9.27-4.48-19.35-4.1-29.9.38-10.58,3.51-21.13,6.96-31.64,3.44-10.52,6.99-20.81,8.05-31.16,1.2-10.33-1.01-20.47-5.71-28.78-4.56-8.4-10.29-15.58-14.58-23.02-4.36-7.41-7.08-15.04-8.76-22.13-3.26-14.3-2.12-26.34-.56-34.28,1.69-7.98,3.58-12.11,3.58-12.11.02,0-.05.28-.21.8-.18.57-.42,1.34-.72,2.32-.63,2.04-1.45,5.09-2.22,9.06-1.43,7.92-2.43,19.89.89,34.02,1.71,7.01,4.45,14.54,8.79,21.85,4.28,7.35,10.04,14.5,14.69,23,4.8,8.4,7.11,18.87,5.89,29.36-1.07,10.52-4.65,20.88-8.08,31.39-3.44,10.5-6.54,20.95-6.93,31.34-.39,10.39,1.54,20.37,4,29.6,2.49,9.25,5.55,17.85,8.19,25.98,2.68,8.12,4.87,15.81,6.2,22.98,2.89,14.32,2.06,26.4-.09,34.26-1.09,3.93-2.3,6.87-3.24,8.79-.48.91-.85,1.63-1.13,2.16-.26.48-.4.73-.42.72Z"/>
        <g>
          <path class="cls-10" d="m38.91,361.95s-8.71-27.87,6.92-44.18c.55-.57,1.51-.3,1.66.48.83,4.6,1.88,18.62-8.57,43.7Z"/>
          <path class="cls-5" d="m44.13,327.05c.15.03-.1,1.99-.59,5.14-.57,3.54-1.24,7.7-1.99,12.29-.73,4.59-1.39,8.75-1.95,12.29-.48,3.15-.76,5.1-.92,5.09-.14-.01-.13-1.99.16-5.18.29-3.18.85-7.56,1.64-12.37.79-4.81,1.62-9.14,2.31-12.26.68-3.12,1.2-5.03,1.35-5Z"/>
        </g>
        <g>
          <path class="cls-10" d="m49.15,427.67s5.33-28.71,26.78-35.82c.75-.25,1.48.44,1.24,1.2-1.41,4.46-7.05,17.33-28.02,34.62Z"/>
          <path class="cls-5" d="m70.08,399.27c.12.1-1.02,1.71-2.92,4.27-2.16,2.86-4.7,6.22-7.5,9.93-2.79,3.72-5.32,7.08-7.47,9.95-1.89,2.56-3.06,4.15-3.19,4.06-.12-.08.82-1.82,2.56-4.51,1.74-2.68,4.29-6.29,7.24-10.17,2.94-3.88,5.71-7.32,7.77-9.75,2.06-2.44,3.41-3.88,3.53-3.79Z"/>
        </g>
        <g>
          <path class="cls-10" d="m43.35,499.68s-3.24-29.02,15.22-42.05c.65-.46,1.54,0,1.53.79-.06,4.68-1.71,18.63-16.75,41.26Z"/>
          <path class="cls-5" d="m55.13,466.42c.14.06-.48,1.93-1.56,4.93-1.24,3.37-2.69,7.32-4.3,11.69-1.59,4.37-3.03,8.32-4.26,11.69-1.07,3-1.72,4.86-1.88,4.82-.14-.04.26-1.98,1.14-5.05.89-3.07,2.28-7.26,3.97-11.83,1.69-4.57,3.34-8.66,4.6-11.59,1.26-2.93,2.14-4.71,2.27-4.65Z"/>
        </g>
        <g>
          <path class="cls-10" d="m59.51,572.12s-2.2-29.11,16.72-41.48c.66-.43,1.54.05,1.51.84-.23,4.67-2.37,18.56-18.22,40.64Z"/>
          <path class="cls-5" d="m72.47,539.3c.14.06-.55,1.92-1.73,4.88-1.36,3.32-2.95,7.22-4.71,11.52-1.75,4.31-3.33,8.21-4.68,11.53-1.18,2.96-1.89,4.79-2.05,4.75-.13-.04.33-1.97,1.32-5.01,1-3.04,2.54-7.18,4.39-11.68,1.85-4.51,3.65-8.53,5.01-11.42,1.37-2.89,2.3-4.63,2.44-4.57Z"/>
        </g>
        <g>
          <path class="cls-10" d="m26.39,337.46S.51,323.95,0,301.36c-.02-.79.86-1.29,1.51-.83,3.85,2.66,14.5,11.82,24.88,36.94Z"/>
          <path class="cls-5" d="m5.37,309.12c.13-.08,1.34,1.48,3.22,4.05,2.1,2.91,4.57,6.32,7.3,10.09,2.74,3.76,5.21,7.16,7.32,10.06,1.89,2.56,3.07,4.14,2.95,4.25-.11.09-1.5-1.32-3.56-3.77-2.05-2.45-4.75-5.94-7.6-9.9-2.85-3.95-5.32-7.6-7.05-10.29-1.73-2.69-2.71-4.4-2.59-4.48Z"/>
        </g>
        <g>
          <path class="cls-10" d="m54.18,397.31s-26.65-11.92-28.53-34.44c-.07-.79.78-1.34,1.46-.92,4,2.42,15.2,10.92,27.08,35.36Z"/>
          <path class="cls-5" d="m31.48,370.29c.12-.09,1.42,1.39,3.46,3.84,2.27,2.77,4.94,6.03,7.89,9.63,2.96,3.59,5.64,6.83,7.92,9.6,2.04,2.44,3.32,3.95,3.2,4.06-.1.1-1.58-1.22-3.78-3.55-2.2-2.32-5.11-5.64-8.19-9.42-3.08-3.77-5.77-7.27-7.66-9.84-1.89-2.58-2.98-4.23-2.86-4.32Z"/>
        </g>
        <g>
          <path class="cls-10" d="m38.84,464.06s-18.3-22.75-9.72-43.65c.3-.73,1.3-.83,1.72-.16,2.46,3.98,8.56,16.64,8,43.81Z"/>
          <path class="cls-5" d="m30.94,429.67c.15-.03.63,1.89,1.33,5,.76,3.51,1.66,7.62,2.64,12.17,1,4.54,1.91,8.65,2.68,12.15.71,3.1,1.15,5.02,1,5.07-.14.04-.85-1.81-1.75-4.88-.9-3.07-1.98-7.35-3-12.11-1.03-4.76-1.83-9.1-2.33-12.25-.51-3.15-.72-5.12-.58-5.15Z"/>
        </g>
        <g>
          <path class="cls-10" d="m56.97,542.61s-26.45-12.36-27.95-34.91c-.05-.79.8-1.32,1.47-.9,3.96,2.49,15.01,11.17,26.48,35.81Z"/>
          <path class="cls-5" d="m34.73,515.22c.12-.09,1.4,1.42,3.4,3.9,2.23,2.81,4.84,6.11,7.73,9.76,2.9,3.64,5.52,6.93,7.76,9.73,2,2.48,3.25,4,3.13,4.11-.1.1-1.56-1.25-3.72-3.61-2.16-2.36-5.01-5.73-8.03-9.56-3.02-3.82-5.65-7.36-7.49-9.97-1.84-2.61-2.9-4.28-2.78-4.37Z"/>
        </g>
        <g>
          <path class="cls-5" d="m109.65,427.83s.04.22.03.64c-.01.51-.03,1.12-.05,1.87-.08,1.75-.18,4.12-.31,7.08-.34,6.22-.82,14.9-1.39,25.28v.02s0,.04,0,.04c-1.89,10.56-7.27,22.27-14.5,33.64-5.3,8.37-10.86,15.99-15.65,23.07-4.82,7.06-8.9,13.6-11.73,19.4-2.86,5.79-4.52,10.76-5.49,14.23-.46,1.74-.81,3.1-1.02,4.04-.22.93-.35,1.41-.39,1.41-.04,0,.02-.5.17-1.45.13-.95.42-2.33.82-4.1.85-3.53,2.41-8.58,5.21-14.46,2.77-5.89,6.81-12.52,11.6-19.62,4.76-7.13,10.29-14.76,15.56-23.09,7.19-11.31,12.54-22.84,14.5-33.24v.06c.72-10.37,1.33-19.04,1.77-25.26.24-2.95.43-5.31.57-7.06.07-.74.14-1.35.19-1.86.05-.42.09-.64.11-.63Z"/>
          <g>
            <path class="cls-10" d="m93.9,494.23s11.2-26.96-2.89-44.63c-.49-.62-1.48-.44-1.69.33-1.25,4.51-3.56,18.37,4.58,44.3Z"/>
            <path class="cls-5" d="m91.86,459c.15-.02.49,1.93.89,5.1.4,3.17.84,7.56,1.19,12.41.35,4.86.51,9.27.51,12.47,0,3.2-.17,5.17-.31,5.17-.16,0-.27-1.97-.46-5.15-.24-3.58-.52-7.78-.83-12.42-.32-4.64-.62-8.84-.87-12.42-.2-3.18-.27-5.16-.12-5.17Z"/>
            <g class="cls-14">
              <path class="cls-4" d="m93.9,494.23s11.2-26.96-2.89-44.63c-.49-.62-1.48-.44-1.69.33-1.25,4.51-3.56,18.37,4.58,44.3Z"/>
            </g>
          </g>
          <g>
            <path class="cls-10" d="m59.21,559.2s8.98-27.78-6.5-44.24c-.54-.58-1.51-.32-1.66.46-.88,4.59-2.05,18.6,8.16,43.78Z"/>
            <path class="cls-5" d="m54.32,524.26c.15-.03.65,1.89,1.3,5.01.65,3.13,1.45,7.46,2.19,12.28.74,4.82,1.26,9.2,1.52,12.39.25,3.19.25,5.17.11,5.18-.16.01-.43-1.94-.87-5.09-.53-3.55-1.15-7.71-1.83-12.31-.7-4.6-1.33-8.76-1.87-12.31-.46-3.16-.69-5.12-.54-5.15Z"/>
            <g class="cls-14">
              <path class="cls-4" d="m59.21,559.2s8.98-27.78-6.5-44.24c-.54-.58-1.51-.32-1.66.46-.88,4.59-2.05,18.6,8.16,43.78Z"/>
            </g>
          </g>
          <g>
            <path class="cls-10" d="m108.17,461.28s23.92-16.74,21.5-39.21c-.08-.79-1.01-1.16-1.6-.63-3.47,3.13-12.86,13.6-19.9,39.84Z"/>
            <g class="cls-14">
              <path class="cls-4" d="m108.17,461.28s23.92-16.74,21.5-39.21c-.08-.79-1.01-1.16-1.6-.63-3.47,3.13-12.86,13.6-19.9,39.84Z"/>
            </g>
            <path class="cls-5" d="m125.34,430.45c.14.07-.62,1.9-1.99,4.78-1.36,2.89-3.34,6.83-5.66,11.11-2.31,4.29-4.54,8.1-6.26,10.8-1.72,2.7-2.92,4.27-3.04,4.2-.13-.09.83-1.81,2.38-4.59,1.72-3.15,3.73-6.84,5.96-10.92,2.22-4.09,4.22-7.79,5.93-10.95,1.54-2.79,2.54-4.5,2.67-4.43Z"/>
          </g>
          <g>
            <path class="cls-10" d="m68.85,531.66s28.85-4.5,36.58-25.73c.27-.75-.4-1.49-1.16-1.27-4.5,1.28-17.53,6.54-35.41,27Z"/>
            <g class="cls-14">
              <path class="cls-4" d="m68.85,531.66s28.85-4.5,36.58-25.73c.27-.75-.4-1.49-1.16-1.27-4.5,1.28-17.53,6.54-35.41,27Z"/>
            </g>
            <path class="cls-5" d="m97.85,511.55c.09.12-1.39,1.43-3.89,3.42-2.5,1.99-6.01,4.66-9.97,7.49-3.96,2.83-7.65,5.27-10.37,6.94-2.73,1.66-4.51,2.55-4.58,2.43-.08-.14,1.54-1.26,4.15-3.08,2.93-2.07,6.36-4.5,10.16-7.18,3.79-2.7,7.22-5.14,10.15-7.21,2.61-1.83,4.26-2.92,4.35-2.8Z"/>
          </g>
        </g>
      </g>
      <polygon class="cls-1" points="34.72 584.75 42.99 639.02 76.04 638.96 87.17 584.75 34.72 584.75"/>
    </g>
    <path class="cls-5" d="m82.33,605.68s-.09.08-.28.2c-.19.11-.47.31-.87.5-.79.39-2.02.87-3.69,1.1-1.66.23-3.78.18-6.08-.57-2.27-.74-4.76-2.21-6.53-4.74-.85-1.28-1.44-2.84-1.53-4.54-.12-1.66.53-3.68,2.24-4.67,1.71-.99,3.91-.63,5.54.46,1.7,1.1,2.69,3.03,3.17,4.98.47,1.98.53,4.05.41,6.13-.13,2.09-.52,4.23-1.34,6.27-.8,2.04-2.09,3.98-3.83,5.46-1.73,1.48-3.96,2.54-6.36,2.66-2.4.11-4.7-.72-6.61-1.92-1.93-1.21-3.57-2.75-4.93-4.46-1.35-1.72-2.37-3.77-2.5-5.96-.1-2.15.65-4.4,2.35-5.75,1.71-1.39,4.15-1.29,5.86-.36,1.76.89,3.07,2.58,3.38,4.42.63,3.72-1.54,7.08-4.18,8.59-2.7,1.54-5.64,1.59-7.98,1.15-2.37-.46-4.24-1.39-5.68-2.22-1.45-.85-2.49-1.62-3.18-2.16-.69-.54-1.04-.84-1.02-.87.02-.03.4.23,1.13.72.73.48,1.8,1.21,3.25,2,1.45.77,3.31,1.64,5.6,2.03,2.26.38,5.07.27,7.56-1.21,2.43-1.41,4.38-4.59,3.77-7.9-.28-1.62-1.44-3.08-3-3.86-1.54-.81-3.57-.86-4.97.3-1.41,1.13-2.11,3.12-2,5.05.12,1.94,1.05,3.84,2.33,5.46,1.3,1.62,2.89,3.11,4.71,4.24,1.82,1.13,3.93,1.88,6.1,1.78,2.16-.1,4.2-1.06,5.82-2.44,1.62-1.39,2.83-3.17,3.59-5.11.78-1.93,1.16-3.98,1.3-5.99.12-2.02.07-4.03-.36-5.88-.43-1.83-1.33-3.56-2.8-4.52-1.43-.97-3.33-1.26-4.72-.47-1.41.8-2,2.46-1.92,3.99.07,1.54.6,3.02,1.37,4.22,1.63,2.39,3.99,3.87,6.16,4.62,2.19.77,4.25.87,5.87.7,3.29-.37,4.84-1.58,4.88-1.45Z"/>
  </g>
</svg>