<?xml version="1.0" encoding="UTF-8"?>
<svg id="Capa_1" data-name="Capa 1" xmlns="http://www.w3.org/2000/svg" viewBox="0 0 799.48 595.79">
  <defs>
    <style>
      .cls-1 {
        opacity: .3;
      }

      .cls-1, .cls-2, .cls-3, .cls-4, .cls-5, .cls-6, .cls-7, .cls-8, .cls-9, .cls-10, .cls-11, .cls-12, .cls-13, .cls-14, .cls-15, .cls-16, .cls-17, .cls-18, .cls-19, .cls-20, .cls-21, .cls-22, .cls-23, .cls-24 {
        stroke-width: 0px;
      }

      .cls-1, .cls-2, .cls-3, .cls-14, .cls-16, .cls-19, .cls-21, .cls-24 {
        isolation: isolate;
      }

      .cls-1, .cls-2, .cls-25, .cls-14, .cls-16, .cls-18, .cls-21, .cls-24 {
        fill: #fff;
      }

      .cls-2, .cls-3, .cls-13 {
        opacity: .2;
      }

      .cls-4 {
        fill: #007cff;
      }

      .cls-5, .cls-8 {
        fill: #04c4d9;
      }

      .cls-5, .cls-14 {
        opacity: .7;
      }

      .cls-6 {
        fill: #e1e1e1;
      }

      .cls-7 {
        fill: #ececec;
      }

      .cls-9 {
        fill: #fd897b;
      }

      .cls-25 {
        font-family: MontserratAlternates-ExtraBold, 'Montserrat Alternates';
        font-size: 19.19px;
        font-weight: 700;
      }

      .cls-11 {
        fill: #f5f5f5;
      }

      .cls-12 {
        fill: #f0f0f0;
      }

      .cls-15 {
        fill: #1a2e35;
      }

      .cls-16 {
        opacity: .5;
      }

      .cls-17 {
        fill: #e7e7e7;
      }

      .cls-19 {
        opacity: .1;
      }

      .cls-20 {
        fill: #fafafa;
      }

      .cls-21 {
        opacity: .6;
      }

      .cls-22 {
        fill: #024873;
      }

      .cls-23 {
        fill: #fd5652;
      }

      .cls-24 {
        opacity: .4;
      }
    </style>
  </defs>
  <rect class="cls-7" y="523.58" width="799.48" height=".4"/>
  <rect class="cls-7" x="666.42" y="549.31" width="52.96" height=".4"/>
  <rect class="cls-7" x="515.71" y="553.65" width="13.9" height=".4"/>
  <rect class="cls-7" x="634.13" y="534.46" width="30.69" height=".4"/>
  <rect class="cls-7" x="83.88" y="537.15" width="69.06" height=".4"/>
  <rect class="cls-7" x="167.18" y="537.15" width="10.13" height=".4"/>
  <rect class="cls-7" x="210.22" y="543.9" width="149.78" height=".4"/>
  <path class="cls-7" d="m378.98,452.26H70.22c-5.03,0-9.13-4.09-9.13-9.13V9.13c0-5.03,4.09-9.13,9.13-9.13h308.76c5.03,0,9.13,4.09,9.13,9.13v434.01c0,5.03-4.09,9.13-9.13,9.13ZM70.22.4c-4.81,0-8.73,3.91-8.73,8.73v434.01c0,4.81,3.91,8.73,8.73,8.73h308.76c4.81,0,8.73-3.91,8.73-8.73V9.13c0-4.81-3.91-8.73-8.73-8.73H70.22Z"/>
  <path class="cls-7" d="m724.83,452.26h-308.76c-5.03,0-9.13-4.09-9.13-9.13V9.13c0-5.03,4.09-9.13,9.13-9.13h308.76c5.03,0,9.13,4.09,9.13,9.13v434.01c0,5.03-4.09,9.13-9.13,9.13ZM416.07.4c-4.81,0-8.73,3.91-8.73,8.73v434.01c0,4.81,3.91,8.73,8.73,8.73h308.76c4.81,0,8.73-3.91,8.73-8.73V9.13c0-4.81-3.91-8.73-8.73-8.73h-308.76Z"/>
  <path class="cls-6" d="m640.21,336.46c-.01-.35-1.17-34.66-6.76-40.09-5.43-5.28-11.66-.2-11.92.02l-.56-.67c.07-.06,7.1-5.8,13.09.02,5.83,5.67,6.97,39.26,7.02,40.68l-.87.03Z"/>
  <path class="cls-6" d="m640.69,343.2c-.04-.41-3.81-41.19,11.08-58.29l.66.57c-14.65,16.81-10.91,57.22-10.87,57.63l-.87.09Z"/>
  <path class="cls-6" d="m640.14,338.89l-.87-.06c.03-.46,2.91-46.36-8.01-56.41l.59-.64c11.23,10.33,8.42,55.21,8.29,57.11Z"/>
  <path class="cls-6" d="m641.56,338.86h-.87c.01-1.27.36-31.01,8.81-35.85,1.88-1.08,3.72-1.26,5.47-.53,5.11,2.11,7.64,11.2,7.75,11.59l-.84.23c-.02-.09-2.52-9.06-7.24-11.01-1.49-.61-3.07-.45-4.7.48-8.02,4.59-8.37,34.79-8.37,35.1Z"/>
  <path class="cls-6" d="m638.27,338.88l-.87-.05c.01-.23,1.27-23.5-5.01-31.7-1.52-1.99-3.17-2.93-4.92-2.81-4.11.29-7.56,6.31-7.6,6.37l-.76-.43c.15-.26,3.71-6.49,8.3-6.81,2.05-.15,3.96.92,5.67,3.15,6.48,8.45,5.24,31.31,5.18,32.28Z"/>
  <path class="cls-6" d="m639.65,342.05c-.17-2.26-4.11-55.38,2.82-64.75l.7.52c-6.73,9.1-2.69,63.61-2.65,64.16l-.87.07Z"/>
  <path class="cls-7" d="m656.85,307.86s-4.15,1.53-2.92,5.14c1.23,3.61,14.37,9.56,14.37,9.56,0,0,5.5-5.04.45-13.24-5.05-8.2-11.78-4.06-11.9-1.47Z"/>
  <path class="cls-7" d="m638.8,300.98s4.42-.19,4.67,3.63c.25,3.81-9.58,14.35-9.58,14.35,0,0-7.02-2.54-5.51-12.05,1.51-9.51,9.32-8.28,10.41-5.93Z"/>
  <path class="cls-7" d="m635.05,282.74s2.95-.32,2.71-2.11c-.24-1.8-11.46-6.42-18.08,1.06,0,0,4.24,7.28,10.37,7.38,6.13.1,5-6.32,5-6.32Z"/>
  <path class="cls-7" d="m640.55,278.38s-2.67,1.29-3.42-.36c-.75-1.65,6.33-11.51,15.9-8.67,0,0,.25,8.42-4.9,11.75-5.15,3.32-7.59-2.72-7.59-2.72Z"/>
  <path class="cls-7" d="m626.59,306.41s2.03-1.64-.16-2.44-12.97-.57-13.08,10.1c0,0,12.55,2.09,14.1-1.98,1.55-4.07-.86-5.67-.86-5.67Z"/>
  <path class="cls-7" d="m652.18,282.47s-2.03-1.64.16-2.44c2.2-.8,12.97-.57,13.08,10.1,0,0-12.55,2.09-14.1-1.98-1.55-4.07.86-5.67.86-5.67Z"/>
  <path class="cls-7" d="m645.54,291.07s-.18-2,1.43-1.21c1.61.78,7.23,6.84,1.41,12.59,0,0-7.84-5.8-6.42-8.83,1.41-3.02,3.58-2.55,3.58-2.55Z"/>
  <path class="cls-7" d="m624.77,293.91s1.22-1.59-.56-1.79c-1.78-.2-9.76,1.93-7.9,9.9,0,0,9.73-.73,10.14-4.04.42-3.31-1.67-4.07-1.67-4.07Z"/>
  <polygon class="cls-12" points="657.62 368.44 624.26 368.44 620.66 331.91 661.22 331.91 657.62 368.44"/>
  <rect class="cls-17" x="618.88" y="327.88" width="44.13" height="8.06"/>
  <path class="cls-11" d="m264.54,513.87h31.34l-16.47-159.96c-.7-6.77-5.87-12.26-11.55-12.26h-136.74l20.05,172.22h113.38Z"/>
  <path class="cls-12" d="m165.15,513.87h-31.34l-16.47-159.96c-.7-6.77,3.34-12.26,9.02-12.26h10.77c5.68,0,10.85,5.49,11.55,12.26l16.47,159.96Z"/>
  <path class="cls-17" d="m176.7,513.68l-5.68-77.37c-.25-3.46-2.49-6.23-5.38-6.67l-2.33-.36c-3.87-.59-6.88-4.32-7.22-8.95l-1.04-14.11c-.42-5.78,3.4-10.76,8.27-10.76h-52.37c-4.87,0-8.69,4.97-8.27,10.76l1.04,14.11c.34,4.64,3.34,8.36,7.22,8.95l2.34.36c2.89.44,5.13,3.22,5.38,6.67l5.68,77.37c.41,5.64,4.38,9.97,9.13,9.97h52.37c-4.75,0-8.71-4.33-9.13-9.97Z"/>
  <path class="cls-17" d="m320.82,416.94c.89-12.15,9.43-21.47,19.66-21.47h-45.6c-10.23,0-18.76,9.32-19.66,21.47l-4.5,61.33h45.6l4.5-61.33Z"/>
  <path class="cls-12" d="m360.73,395.47h-20.25c-10.23,0-18.76,9.32-19.66,21.47l-4.5,61.33h-108.59l-4.5-61.33c-.89-12.15-9.43-21.47-19.66-21.47h-20.25c-4.87,0-8.69,4.97-8.27,10.76l1.04,14.11c.34,4.64,3.34,8.36,7.22,8.95l2.33.36c2.89.44,5.13,3.22,5.38,6.67l5.68,77.37c.41,5.64,4.38,9.97,9.13,9.97h152.41c4.75,0,8.71-4.33,9.13-9.97l5.68-77.37c.25-3.46,2.49-6.23,5.38-6.67l2.34-.35c3.87-.59,6.88-4.32,7.22-8.95l1.04-14.11c.42-5.78-3.4-10.76-8.27-10.76Z"/>
  <rect class="cls-17" x="540.93" y="376.25" width="121.21" height="130.47"/>
  <rect class="cls-17" x="665.42" y="366.54" width="15.24" height="157.1"/>
  <rect class="cls-20" x="560.23" y="386.52" width="9.93" height="48.76"/>
  <rect class="cls-11" x="601.41" y="386.52" width="9.93" height="48.76"/>
  <rect class="cls-11" x="570.16" y="389.94" width="9.93" height="45.33"/>
  <rect class="cls-20" x="591.48" y="389.94" width="9.93" height="45.33"/>
  <rect class="cls-7" x="585.06" y="386.52" width="6.42" height="48.76"/>
  <rect class="cls-20" x="580.09" y="389.94" width="4.97" height="45.33"/>
  <rect class="cls-7" x="611.34" y="386.52" width="9.93" height="48.76"/>
  <rect class="cls-17" x="621.27" y="389.94" width="9.93" height="45.33"/>
  <rect class="cls-17" x="642.59" y="389.94" width="9.93" height="45.33"/>
  <rect class="cls-20" x="636.17" y="386.52" width="6.42" height="48.76"/>
  <rect class="cls-7" x="631.2" y="389.94" width="4.97" height="45.33"/>
  <rect class="cls-20" x="652.52" y="387.67" width="4.97" height="47.6"/>
  <rect class="cls-20" x="647.55" y="451.86" width="9.93" height="48.76" transform="translate(1305.04 952.49) rotate(180)"/>
  <rect class="cls-20" x="606.38" y="451.86" width="9.93" height="48.76" transform="translate(1222.68 952.49) rotate(180)"/>
  <rect class="cls-12" x="637.62" y="455.29" width="9.93" height="45.33" transform="translate(1285.18 955.91) rotate(180)"/>
  <rect class="cls-7" x="616.31" y="455.29" width="9.93" height="45.33" transform="translate(1242.55 955.91) rotate(180)"/>
  <rect class="cls-20" x="626.24" y="451.86" width="6.42" height="48.76" transform="translate(1258.9 952.49) rotate(180)"/>
  <rect class="cls-11" x="632.66" y="455.29" width="4.97" height="45.33" transform="translate(1270.28 955.91) rotate(180)"/>
  <rect class="cls-7" x="596.44" y="451.86" width="9.93" height="48.76" transform="translate(1202.82 952.49) rotate(180)"/>
  <rect class="cls-11" x="586.51" y="455.29" width="9.93" height="45.33" transform="translate(1182.96 955.91) rotate(180)"/>
  <rect class="cls-17" x="565.2" y="455.29" width="9.93" height="45.33" transform="translate(1140.32 955.91) rotate(180)"/>
  <rect class="cls-20" x="575.13" y="451.86" width="6.42" height="48.76" transform="translate(1156.67 952.49) rotate(180)"/>
  <rect class="cls-20" x="553.81" y="451.86" width="6.42" height="48.76" transform="translate(1114.04 952.49) rotate(180)"/>
  <rect class="cls-7" x="581.55" y="455.29" width="4.97" height="45.33" transform="translate(1168.06 955.91) rotate(180)"/>
  <rect class="cls-12" x="560.23" y="453.02" width="4.97" height="47.6" transform="translate(1125.43 953.64) rotate(180)"/>
  <path class="cls-12" d="m661.54,366.54h-124.44v148.3h120.38v8.8h8.13v-157.1h-4.06Zm-4.06,134.08h-112.71v-57.17h112.71v57.17Zm0-65.29h-112.71v-54.57h112.71v54.57Z"/>
  <rect class="cls-17" x="419.52" y="376.25" width="121.21" height="130.47" transform="translate(960.26 882.96) rotate(180)"/>
  <rect class="cls-17" x="424.19" y="513.25" width="15.24" height="10.4" transform="translate(863.61 1036.89) rotate(180)"/>
  <rect class="cls-20" x="526.72" y="386.52" width="9.93" height="48.76" transform="translate(1063.38 821.79) rotate(180)"/>
  <rect class="cls-11" x="485.54" y="386.52" width="9.93" height="48.76" transform="translate(981.02 821.79) rotate(180)"/>
  <rect class="cls-11" x="516.79" y="389.94" width="9.93" height="45.33" transform="translate(1043.51 825.22) rotate(180)"/>
  <rect class="cls-20" x="495.47" y="389.94" width="9.93" height="45.33" transform="translate(1000.88 825.22) rotate(180)"/>
  <rect class="cls-7" x="505.41" y="386.52" width="6.42" height="48.76" transform="translate(1017.23 821.79) rotate(180)"/>
  <rect class="cls-20" x="511.82" y="389.94" width="4.97" height="45.33" transform="translate(1028.61 825.22) rotate(180)"/>
  <rect class="cls-7" x="482.16" y="386.52" width="9.93" height="48.76" transform="translate(974.25 821.79) rotate(180)"/>
  <rect class="cls-17" x="472.23" y="389.94" width="9.93" height="45.33" transform="translate(954.38 825.22) rotate(180)"/>
  <rect class="cls-17" x="450.91" y="389.94" width="9.93" height="45.33" transform="translate(911.75 825.22) rotate(180)"/>
  <rect class="cls-20" x="460.84" y="386.52" width="6.42" height="48.76" transform="translate(928.1 821.79) rotate(180)"/>
  <rect class="cls-7" x="467.26" y="389.94" width="4.97" height="45.33" transform="translate(939.49 825.22) rotate(180)"/>
  <rect class="cls-11" x="445.94" y="387.67" width="4.97" height="47.6" transform="translate(896.86 822.95) rotate(180)"/>
  <rect class="cls-20" x="441.28" y="451.86" width="9.93" height="48.76"/>
  <rect class="cls-20" x="482.46" y="451.86" width="9.93" height="48.76"/>
  <rect class="cls-11" x="451.21" y="455.29" width="9.93" height="45.33"/>
  <rect class="cls-7" x="472.53" y="455.29" width="9.93" height="45.33"/>
  <rect class="cls-20" x="466.11" y="451.86" width="6.42" height="48.76"/>
  <rect class="cls-11" x="461.14" y="455.29" width="4.97" height="45.33"/>
  <rect class="cls-7" x="485.84" y="451.86" width="9.93" height="48.76"/>
  <rect class="cls-11" x="495.77" y="455.29" width="9.93" height="45.33"/>
  <rect class="cls-17" x="517.09" y="455.29" width="9.93" height="45.33"/>
  <rect class="cls-20" x="510.67" y="451.86" width="6.42" height="48.76"/>
  <rect class="cls-20" x="530.68" y="451.86" width="6.42" height="48.76"/>
  <rect class="cls-7" x="505.71" y="455.29" width="4.97" height="45.33"/>
  <rect class="cls-7" x="527.02" y="453.02" width="4.97" height="47.6"/>
  <path class="cls-12" d="m416.07,366.54v157.1h8.13v-8.8h120.38v-148.3h-128.5Zm8.13,76.91h112.71v57.17h-112.71v-57.17Zm0-62.69h112.71v54.57h-112.71v-54.57Z"/>
  <rect class="cls-6" x="147.32" y="76.98" width="179.39" height="198.4" transform="translate(474.02 352.36) rotate(180)"/>
  <rect class="cls-12" x="141.59" y="76.98" width="186.05" height="198.4" transform="translate(469.23 352.36) rotate(180)"/>
  <rect class="cls-18" x="149.46" y="83.31" width="170.61" height="182.95" transform="translate(469.53 349.57) rotate(180)"/>
  <rect class="cls-6" x="149.46" y="83.31" width="4.93" height="182.95" transform="translate(303.85 349.57) rotate(180)"/>
  <rect class="cls-6" x="234.72" y="134.02" width="4.93" height="166.64" transform="translate(19.85 454.53) rotate(-90)"/>
  <rect class="cls-12" x="149.46" y="206.59" width="173.26" height="8.28" transform="translate(472.18 421.46) rotate(180)"/>
  <rect class="cls-6" x="588.14" y="74.79" width="49.58" height="70.15" transform="translate(722.8 -503.06) rotate(90)"/>
  <rect class="cls-7" x="591.38" y="78.09" width="43.11" height="63.55" transform="translate(722.8 -503.06) rotate(90)"/>
  <rect class="cls-6" x="563.82" y="137.07" width="49.58" height="70.15" transform="translate(760.75 -416.46) rotate(90)"/>
  <rect class="cls-7" x="567.05" y="140.37" width="43.11" height="63.55" transform="translate(760.75 -416.46) rotate(90)"/>
  <rect class="cls-6" x="519.91" y="71.49" width="44.64" height="63.16" transform="translate(1084.46 206.15) rotate(180)"/>
  <rect class="cls-7" x="522.82" y="74.46" width="38.82" height="57.22" transform="translate(1084.46 206.15) rotate(180)"/>
  <rect class="cls-6" x="494.52" y="147.36" width="49.58" height="70.15" transform="translate(1038.61 364.87) rotate(180)"/>
  <rect class="cls-7" x="497.75" y="150.66" width="43.11" height="63.55" transform="translate(1038.61 364.87) rotate(180)"/>
  <rect class="cls-6" x="457.88" y="87.78" width="38.82" height="54.93" transform="translate(362.04 592.54) rotate(-90)"/>
  <rect class="cls-7" x="460.41" y="90.37" width="33.76" height="49.76" transform="translate(362.04 592.54) rotate(-90)"/>
  <ellipse id="_Path_" data-name="&amp;lt;Path&amp;gt;" class="cls-11" cx="399.74" cy="577.68" rx="310.02" ry="18.11"/>
  <path class="cls-4" d="m435.33,295.43h212.71c2.51,0,4.54,2.04,4.54,4.54v276.23h-221.8v-276.23c0-2.51,2.04-4.54,4.54-4.54Z"/>
  <polygon class="cls-4" points="430.78 373.32 430.78 576.21 311.45 576.21 311.45 504.08 430.78 373.32"/>
  <path class="cls-8" d="m435.33,295.43h212.71c2.51,0,4.54,2.04,4.54,4.54v276.23h-221.8v-276.23c0-2.51,2.04-4.54,4.54-4.54Z"/>
  <polygon class="cls-22" points="430.78 373.32 430.78 576.21 311.45 576.21 311.45 504.08 430.78 373.32"/>
  <path class="cls-19" d="m430.78,373.32s30.71,54.11,43.58,109.1l47-186.99h24.95l-44.38,183.48,44.38-12.28,6.24-172.15,30.16.95-5.79,168.27,45.4-168.27h21.09c5.06,0,9.16,4.1,9.16,9.16v271.61h-221.8v-202.88Z"/>
  <rect class="cls-15" x="569.69" y="281.74" width="6.34" height="223.05" transform="translate(-26.59 41.86) rotate(-4.09)"/>
  <rect class="cls-1" x="569.69" y="281.74" width="6.34" height="223.04" transform="translate(-26.59 41.86) rotate(-4.09)"/>
  <path class="cls-3" d="m568.07,281.8l4.35,60.87c-2.25-1.14-4.47-2.32-6.61-3.5l-4.07-56.92,6.33-.45Z"/>
  <path class="cls-15" d="m622.07,279.35c-1.63,8.52-5.09,16.43-9.98,23.27-4.1,5.68-9.14,10.62-14.96,14.58-6.88,4.67-14.85,7.94-23.5,9.36-.4.07-.78.13-1.18.19-1.42.21-2.85.37-4.3.47-5.28.37-10.47.04-15.42-.92-8.5-1.63-16.43-5.09-23.26-10-5.68-4.07-10.62-9.11-14.58-14.93-4.67-6.89-7.96-14.85-9.37-23.51-.31-1.8-.53-3.64-.67-5.5-.37-5.28-.04-10.44.9-15.41,1.63-8.52,5.1-16.41,10.01-23.27,2.75-3.84,5.96-7.36,9.55-10.42,1.72-1.49,3.5-2.87,5.38-4.14,6.91-4.7,14.86-7.97,23.53-9.39,1.79-.3,3.62-.52,5.49-.65,5.28-.38,10.45-.06,15.42.9,8.5,1.63,16.41,5.09,23.26,10,5.66,4.08,10.63,9.12,14.58,14.95,4.69,6.91,7.94,14.88,9.36,23.53.31,1.79.53,3.61.67,5.47.38,5.28.04,10.47-.92,15.42Z"/>
  <path class="cls-21" d="m564.12,268.15h0s0,0,0,0c0-.01.01-.02.03-.02l.46-.03c-.12-.02-.25-.03-.37-.05,0,0,0,0,0,0,23.39-19.1,44.24-16.04,58.11-9.59-1.42-8.66-4.69-16.62-9.36-23.52-22.08,4.08-44.88,28.56-48.9,33.04.15-.17.26-.3.3-.35l-.29.24c3.03-30.06,19.93-42.64,34.3-47.87-6.84-4.91-14.76-8.37-23.26-10-12.74,18.52-11.53,52-11.2,57.97,0,0,0,0,0-.02,0,0,0,0,0,0l-.03-.47c-.02.13-.03.26-.04.39-19.12-23.4-16.06-44.25-9.61-58.11-8.66,1.42-16.62,4.69-23.52,9.38,4.07,21.93,28.24,44.54,32.96,48.8-.14-.11-.22-.18-.27-.22.08.1.16.19.24.29-30.05-3.03-42.63-19.93-47.87-34.3-4.91,6.86-8.37,14.76-10,23.28,18.53,12.76,52.06,11.52,57.97,11.18,0,0,0,0,0,0,0,.01-.01.02-.03.02h0l-.46.03c.13.02.26.03.38.05,0,0,0,0,0,0-23.39,19.11-44.24,16.06-58.11,9.62,1.42,8.66,4.7,16.62,9.37,23.51,21.92-4.07,44.53-28.24,48.79-32.96-.11.14-.18.22-.22.27.1-.08.21-.16.31-.26,0,0,0,0,0,0,0,0,0,.01,0,.02-3.02,30.07-19.94,42.65-34.3,47.89,6.84,4.91,14.76,8.37,23.26,9.99,12.73-18.49,11.54-51.91,11.2-57.93v-.03s0,.01,0,.02c0,0,0,0,.01,0,0,0,0,0,0,.01l.03.46c.02-.12.03-.25.05-.37,0,0,0,0,0-.01,0,0,0,0,0,0,19.09,23.39,16.04,44.23,9.61,58.09,8.66-1.42,16.62-4.69,23.51-9.36-4.08-22.08-28.56-44.86-33.04-48.89.17.15.3.26.35.3-.08-.11-.18-.21-.26-.32,0,0,0,0,0,0,0,0,0,0,0,0,30.09,3.04,42.65,19.96,47.91,34.33,4.89-6.86,8.36-14.75,9.99-23.28-18.52-12.74-52.01-11.54-57.96-11.2Zm-.06.15s0,0,0,0c0,0,0,0,0,0h0s0,0,0,0h-.01Zm.06-.15h0s0,0,0,0c0-.01.01-.02.03-.02l.46-.03c-.12-.02-.25-.03-.37-.05,0,0,0,0,0,0,23.39-19.1,44.24-16.04,58.11-9.59-1.42-8.66-4.69-16.62-9.36-23.52-22.08,4.08-44.88,28.56-48.9,33.04.15-.17.26-.3.3-.35l-.29.24c3.03-30.06,19.93-42.64,34.3-47.87-6.84-4.91-14.76-8.37-23.26-10-12.74,18.52-11.53,52-11.2,57.97,0,0,0,0,0-.02,0,0,0,0,0,0l-.03-.47c-.02.13-.03.26-.04.39-19.12-23.4-16.06-44.25-9.61-58.11-8.66,1.42-16.62,4.69-23.52,9.38,4.07,21.93,28.24,44.54,32.96,48.8-.14-.11-.22-.18-.27-.22.08.1.16.19.24.29-30.05-3.03-42.63-19.93-47.87-34.3-4.91,6.86-8.37,14.76-10,23.28,18.53,12.76,52.06,11.52,57.97,11.18,0,0,0,0,0,0,0,.01-.01.02-.03.02h0l-.46.03c.13.02.26.03.38.05,0,0,0,0,0,0-23.39,19.11-44.24,16.06-58.11,9.62,1.42,8.66,4.7,16.62,9.37,23.51,21.92-4.07,44.53-28.24,48.79-32.96-.11.14-.18.22-.22.27.1-.08.21-.16.31-.26,0,0,0,0,0,0,0,0,0,.01,0,.02-3.02,30.07-19.94,42.65-34.3,47.89,6.84,4.91,14.76,8.37,23.26,9.99,12.73-18.49,11.54-51.91,11.2-57.93v-.03s0,.01,0,.02c0,0,0,0,.01,0,0,0,0,0,0,.01l.03.46c.02-.12.03-.25.05-.37,0,0,0,0,0-.01,0,0,0,0,0,0,19.09,23.39,16.04,44.23,9.61,58.09,8.66-1.42,16.62-4.69,23.51-9.36-4.08-22.08-28.56-44.86-33.04-48.89.17.15.3.26.35.3-.08-.11-.18-.21-.26-.32,0,0,0,0,0,0,0,0,0,0,0,0,30.09,3.04,42.65,19.96,47.91,34.33,4.89-6.86,8.36-14.75,9.99-23.28-18.52-12.74-52.01-11.54-57.96-11.2Z"/>
  <path class="cls-10" d="m505.51,277.87c1.42,8.66,4.7,16.62,9.37,23.51,3.96,5.82,8.9,10.87,14.57,14.94,3.73,2.67,7.78,4.91,12.07,6.67-2.51-1.27-4.91-2.76-7.19-4.39-5.48-3.94-10.27-8.8-14.09-14.42-4.51-6.66-7.68-14.35-9.05-22.72-.3-1.74-.5-3.52-.63-5.32-.36-5.09-.05-10.09.86-14.89,1.58-8.22,4.93-15.86,9.66-22.48,3.94-5.48,8.81-10.25,14.44-14.08,6.66-4.54,14.36-7.68,22.73-9.07,1.73-.29,3.49-.5,5.29-.63,5.1-.36,10.11-.06,14.9.86,8.22,1.58,15.86,4.93,22.48,9.67,5.47,3.94,10.27,8.81,14.09,14.44,1.84,2.73,3.46,5.62,4.81,8.67-1.7-4.9-4.01-9.5-6.86-13.7-3.96-5.82-8.92-10.88-14.59-14.95-6.84-4.91-14.76-8.37-23.26-10-4.96-.95-10.14-1.28-15.42-.9-1.86.13-3.7.35-5.48.66-8.66,1.42-16.62,4.69-23.52,9.38-5.82,3.96-10.87,8.9-14.94,14.57-4.91,6.86-8.37,14.76-10,23.28-.95,4.96-1.28,10.13-.9,15.41.13,1.86.35,3.7.66,5.5Z"/>
  <path class="cls-10" d="m600.64,238.61c-.83-1.15-1.83-2.16-2.77-3.23-1.03-.97-2-2.02-3.12-2.89-2.14-1.88-4.56-3.4-7.02-4.8-4.95-2.69-10.23-4.85-15.78-6.08-5.53-1.23-11.32-1.5-16.95-.55-2.8.49-5.59,1.19-8.23,2.25-2.65,1.02-5.25,2.24-7.66,3.78-2.41,1.53-4.69,3.26-6.74,5.26-2.09,1.94-3.96,4.12-5.62,6.43-6.66,9.27-10.09,20.74-9.74,32.16.19,5.7,1.35,11.43,3.73,16.68,1.16,2.64,2.63,5.14,4.41,7.42,1.76,2.29,3.78,4.4,6.07,6.17,9.17,7.16,21.35,9.79,32.73,7.82,5.71-.96,11.19-3.36,15.84-6.86,1.21-.81,2.23-1.88,3.32-2.84,1.05-1.01,1.98-2.15,2.94-3.24,1.75-2.33,3.34-4.8,4.5-7.47,2.48-5.28,3.54-11.2,3.27-17.02-.3-5.81-1.92-11.68-5.3-16.61-.8-1.26-1.8-2.37-2.79-3.49-1.09-1.02-2.15-2.09-3.4-2.92-1.17-.94-2.53-1.6-3.83-2.34-1.36-.63-2.76-1.19-4.2-1.58-5.75-1.63-11.92-1.36-17.57.56-2.81,1.01-5.5,2.43-7.83,4.39-2.32,1.94-4.25,4.24-5.86,6.73-1.59,2.51-2.8,5.28-3.55,8.21-.75,2.92-.98,6.1-.22,9.19.71,3.08,2.37,5.94,4.58,8.17.58.51,1.19.99,1.79,1.49.3.24.59.5.91.72l.98.58,1.97,1.15c.7.31,1.42.67,2.14.9,2.87,1.02,5.81,1.56,8.78,1.73,2.97.16,6.01-.07,8.99-.95,2.93-.89,6.03-2.52,7.94-5.44,1.97-2.88,2.37-6.33,2.08-9.42-.33-3.14-1.39-6.3-3.65-8.87-1.13-1.27-2.6-2.36-4.31-2.96-1.54-.55-6.64-1.78-11.24,2.35-.5.37-.94.83-1.3,1.33-.04.05-.08.09-.13.14h.03c-.76,1.11-1.19,2.46-1.09,3.91.24,3.4,3.19,5.95,6.59,5.71,3.4-.24,5.95-3.19,5.71-6.59-.08-1.09-.46-2.08-1.02-2.93,1.33.2,2.53.85,3.52,1.96,1.47,1.62,2.36,3.98,2.62,6.38.25,2.42-.09,4.87-1.32,6.65-1.15,1.84-3.28,3.06-5.62,3.8-4.76,1.42-10.4,1.04-15.21-.58-.62-.18-1.15-.47-1.73-.71l-1.65-.95-.83-.47c-.26-.17-.49-.39-.73-.58l-1.45-1.17c-1.73-1.74-2.98-3.86-3.56-6.22-.61-2.35-.47-4.93.14-7.4.61-2.48,1.63-4.91,3.01-7.13,1.4-2.2,3.09-4.24,5.04-5.9,1.93-1.67,4.25-2.91,6.68-3.82,4.9-1.73,10.41-2.02,15.43-.62,1.26.32,2.47.81,3.65,1.34,1.12.64,2.31,1.19,3.33,2,1.1.7,2.01,1.64,2.97,2.5.86.98,1.75,1.93,2.46,3.03,3,4.29,4.54,9.58,4.86,14.89.29,5.33-.63,10.74-2.87,15.6-4.17,9.93-13.71,17.07-24.32,18.94-10.56,1.94-22.15-.47-30.68-7.06-2.15-1.62-4.04-3.57-5.7-5.69-1.68-2.11-3.08-4.44-4.19-6.91-2.28-4.92-3.43-10.35-3.66-15.79-.42-10.91,2.78-22.01,9.1-30.95,1.58-2.23,3.35-4.34,5.34-6.21,1.94-1.92,4.12-3.61,6.41-5.09,2.29-1.49,4.77-2.68,7.32-3.68,2.54-1.04,5.2-1.73,7.89-2.23,5.39-.96,10.97-.75,16.35.4,5.39,1.15,10.56,3.21,15.45,5.81,2.4,1.33,4.75,2.79,6.83,4.59,1.1.83,2.03,1.85,3.05,2.78.91,1.03,1.89,2,2.71,3.11,3.46,4.29,5.97,9.31,7.67,14.56,3.36,10.55,3.27,22.11.26,32.77-2.99,10.67-9.31,20.49-18.26,27.14-8.8,6.75-19.47,11.36-30.62,12.06-5.55.35-11.19-.32-16.47-2.11-5.29-1.77-10.19-4.64-14.45-8.25,4.23,3.65,9.12,6.56,14.41,8.38,5.29,1.83,10.94,2.56,16.53,2.25,11.22-.62,22-5.16,30.94-11.9,9.1-6.64,15.61-16.55,18.73-27.35,3.14-10.79,3.34-22.52,0-33.34-1.69-5.38-4.23-10.55-7.75-15Z"/>
  <path class="cls-13" d="m572.45,326.76c-1.42.21-2.85.37-4.3.47-5.28.37-10.47.04-15.42-.92-8.5-1.63-16.43-5.09-23.26-10-5.68-4.07-10.62-9.11-14.58-14.93-4.67-6.89-7.96-14.85-9.37-23.51-.31-1.8-.53-3.64-.67-5.5-.37-5.28-.04-10.44.9-15.41,1.63-8.52,5.1-16.41,10.01-23.27,2.75-3.84,5.96-7.36,9.55-10.42,6.34,2.65,15.01,7.47,21.2,15.57,0,0,26.45-19.13,47.55,3.82,18.56,20.2,15.1,53.45-21.62,84.11Z"/>
  <rect class="cls-15" x="390.91" y="276.65" width="6.34" height="223.05" transform="translate(-1.79 1.82) rotate(-.26)"/>
  <rect class="cls-2" x="390.91" y="276.66" width="6.34" height="223.04" transform="translate(-1.78 1.81) rotate(-.26)"/>
  <path class="cls-3" d="m396.74,276.65l.28,61.02c-2.17-1.29-4.3-2.61-6.36-3.93l-.26-57.06,6.34-.03Z"/>
  <path class="cls-15" d="m393.76,318.67v-.03l-.02.03c-4.23.01-10.48-2.84-17.26-7.59-4.36-3.06-8.95-6.91-13.32-11.27h-.01c-14.85-14.77-27.33-35.41-21.4-51.44,4.82-13.03,14.54-18.07,24.38-18.11,5.49-.01,11.02,1.51,15.75,4.07,5.1,2.75,9.29,6.7,11.53,11.19,4.7-9.66,18.28-16.87,30.77-15.29h.04c8.53,1.09,16.55,6.31,20.88,17.67,10.65,27.98-35.18,70.7-51.35,70.77Z"/>
  <path class="cls-24" d="m445.11,247.89c-4.33-11.35-12.33-16.56-20.87-17.66t-.03,0h-.02c-12.5-1.58-26.07,5.64-30.78,15.28-4.33-8.67-15.88-15.31-27.28-15.25-9.85.05-19.57,5.09-24.39,18.11-5.93,16.03,6.56,36.67,21.4,51.43h.02c11.16,11.13,23.64,18.89,30.59,18.86v-.03s.02.03.02.03c16.18-.07,62-42.78,51.34-70.77Zm-51.38,64.63c-3.97,2.29-35.84-20.4-44.25-41.18-8.41-20.78,3.44-37.6,20.36-36.8,16.92.8,23.49,17.04,23.49,17.04,0,0,15.32-24.28,32.63-13.81,7.02,4.25,11.95,12.2,11.72,22.24-.57-1.91-1.31-3.76-2.26-5.52-1.42-2.58-3.26-4.96-5.48-6.97-2.26-1.96-4.87-3.62-7.8-4.55-5.86-2.03-12.55-.83-17.69,2.25-4.5,2.63-8.09,6.32-11.11,10.31-2.53-2.78-5.3-5.2-8.45-7.3-1.92-1.24-3.93-2.39-6.12-3.24-1.06-.48-2.21-.78-3.33-1.14-1.16-.24-2.31-.56-3.5-.66l-1.79-.17c-.61-.03-1.26-.02-1.89.02-1.28.09-2.55.39-3.77.82-2.43.93-4.52,2.57-6.05,4.51-3.09,3.92-4.3,8.68-4.51,13.28-.19,4.63.69,9.26,2.48,13.53.89,2.12,2.07,4.21,3.39,6.02,1.27,1.85,2.65,3.61,4.08,5.31,5.76,6.78,12.27,12.79,19.45,18.05,1.79,1.32,3.66,2.56,5.64,3.73,1.03.57,2,1.13,3.36,1.6l.55.17.28.08.14.04.25.02c.34.02.73.02,1.02-.02l.68-.17c.83-.27,1.4-.59,1.96-.91,2.13-1.31,3.8-2.77,5.49-4.27,1.66-1.5,3.24-3.05,4.78-4.63,3.07-3.17,6-6.45,8.78-9.86,2.77-3.42,5.45-6.92,7.74-10.83.56-1,1.12-1.99,1.58-3.12.25-.54.45-1.15.63-1.8.2-.71.25-1.29.32-1.89.26-2.4.05-4.89-.74-7.23-.8-2.33-2.18-4.52-4.06-6.22-1.87-1.72-4.28-2.83-6.74-3.31-.62-.14-1.24-.21-1.86-.25-.6-.08-1.27-.04-1.95.02-.69.02-1.31.18-1.93.34-.64.13-1.22.36-1.79.59-2.29.93-4.24,2.24-6.05,3.65-3.07,2.49-5.69,5.27-8.12,8.29-3.11-2.64-6.33-5.08-9.9-7.2-2.09-1.18-4.24-2.32-6.89-2.83-1.3-.21-2.92-.29-4.42.59-.73.45-1.31,1.02-1.73,1.81-.23.37-.3.76-.43,1.15-.07.37-.11.74-.15,1.11-.05,1.44.29,2.67.67,3.84.38,1.18.87,2.27,1.41,3.34,1.07,2.12,2.31,4.11,3.64,6.03,2.67,3.83,5.66,7.4,8.95,10.71,1.65,1.65,3.38,3.24,5.32,4.65.99.69,2.01,1.36,3.3,1.82,1.39.5,2.86.26,4.05-.14,2.42-.85,4.35-2.31,6.12-3.87,1.77-1.57,3.34-3.33,4.73-5.21,1.37-1.9,2.65-3.88,3.34-6.23.15-.59.28-1.2.25-1.87-.03-.65-.24-1.41-.81-1.94-1.18-.88-2.54-.99-3.76-.77-2.43.49-4.47,1.73-6.39,3.04-1.86,1.31-3.58,2.77-5.2,4.34-1.62-.66-3.21-1.44-4.68-2.38-.76-.49-1.5-1.02-2.15-1.64-.65-.61-1.26-1.3-1.63-2.13.34.84.91,1.57,1.54,2.22.63.66,1.35,1.23,2.1,1.75,1.49,1.06,3.1,1.94,4.78,2.7l.14.06.13-.12c1.7-1.52,3.52-2.92,5.42-4.17,1.9-1.22,3.96-2.33,6.1-2.68,1.05-.18,2.15.08,2.81.59.56.54.46,1.66.14,2.65-.66,2.03-1.96,3.93-3.32,5.68-1.4,1.75-2.96,3.38-4.68,4.81-1.7,1.42-3.6,2.69-5.58,3.3-.99.29-1.95.39-2.75.05-.88-.34-1.8-.97-2.67-1.62-1.75-1.34-3.39-2.89-4.95-4.52-3.11-3.26-5.95-6.81-8.44-10.55-1.24-1.87-2.38-3.8-3.32-5.78-.47-.99-.89-1.99-1.19-2.99-.3-.99-.52-2.01-.47-2.86.1-1.62,1.26-2.19,3.23-1.81,1.91.39,3.91,1.44,5.78,2.57,3.76,2.33,7.33,5.22,10.61,8.23l1.41,1.29,1.21-1.53c2.57-3.24,5.58-6.35,8.81-8.9,1.63-1.25,3.36-2.35,5.13-3.05,1.8-.72,3.4-.84,5.32-.44,1.81.38,3.51,1.18,4.83,2.43,1.33,1.23,2.32,2.82,2.9,4.58.58,1.76.72,3.67.5,5.54-.06.47-.12.96-.22,1.29-.12.38-.26.81-.46,1.25-.37.87-.88,1.76-1.38,2.65-2.13,3.53-4.75,6.95-7.44,10.25-2.71,3.3-5.58,6.5-8.56,9.55-1.49,1.52-3.02,3.01-4.59,4.42-1.56,1.39-3.21,2.77-4.8,3.74-.38.23-.79.42-.99.48,0,0,0,0,0,0h-.03s-.23-.09-.23-.09c-.71-.24-1.65-.75-2.52-1.24-1.76-1.05-3.53-2.22-5.24-3.49-6.82-5.07-13.24-10.86-18.72-17.3-1.36-1.61-2.67-3.27-3.85-4.98-1.23-1.69-2.19-3.39-2.99-5.25-1.57-3.68-2.35-7.73-2.2-11.71.16-3.96,1.25-7.95,3.54-10.91,1.14-1.47,2.6-2.6,4.24-3.27,1.69-.63,3.44-.78,5.48-.5,7.94.92,15.27,6.33,20.52,12.48l1.67,1.96,1.4-2.05c3.05-4.47,6.64-8.67,11.18-11.42,4.47-2.78,9.97-3.86,14.97-2.26,2.5.73,4.8,2.11,6.82,3.79,1.99,1.73,3.69,3.82,5.02,6.12,1.31,2.32,2.27,4.84,2.83,7.45.58,2.48.23,5.15-.42,7.75-.07.29-.17.57-.25.86-4.87,12.48-17.32,26.75-41.45,40.68Z"/>
  <path class="cls-13" d="m393.77,318.66v-.03s-.01.03-.01.03c-6.95.03-19.44-7.73-30.59-18.85.67.53,22.39,17.7,30.58,17.09,8.32-.61,37.44-21.98,45.83-43.58,8.39-21.58,3.13-37.56-15.34-43.09,8.54,1.1,16.55,6.31,20.87,17.66,10.66,27.99-35.16,70.69-51.34,70.77Z"/>
  <path class="cls-2" d="m356.87,287.45s-17.21-19.83-10.21-40.58c7-20.75,35.26-14.71,38.7-6.04,0,0-17.64-11.55-28.11,1.51-10.47,13.06-.38,45.11-.38,45.11Z"/>
  <path class="cls-13" d="m393.76,318.67v-.03l-.02.03c-4.23.01-10.48-2.84-17.26-7.59-20.36-41.23-5.41-65.74,5.4-76.76,5.1,2.75,9.29,6.7,11.53,11.19,4.7-9.66,18.28-16.87,30.77-15.29h.04c8.53,1.09,16.55,6.31,20.88,17.67,10.65,27.98-35.18,70.7-51.35,70.77Z"/>
  <rect class="cls-15" x="471.63" y="286.56" width="6.34" height="223.05" transform="translate(17.16 -19.62) rotate(2.41)"/>
  <rect class="cls-2" x="363.28" y="394.91" width="223.04" height="6.34" transform="translate(57.1 855.72) rotate(-87.59)"/>
  <path class="cls-3" d="m482.66,286.79l-2.57,60.97c-2.1-1.39-4.17-2.81-6.17-4.23l2.4-57.01,6.34.27Z"/>
  <circle class="cls-15" cx="479.41" cy="288.8" r="33.53" transform="translate(-70.65 392.12) rotate(-41.7)"/>
  <path class="cls-15" d="m515.86,290.34c-.11,2.72-.52,5.36-1.2,7.89-.4,1.48-1.78,2.48-3.3,2.41l-64.79-2.73c-1.53-.06-2.82-1.18-3.09-2.68-.46-2.58-.65-5.24-.53-7.96.11-2.73.53-5.38,1.21-7.91.4-1.47,1.78-2.47,3.3-2.41l64.78,2.73c1.53.06,2.81,1.17,3.09,2.68.47,2.58.66,5.25.54,7.99Z"/>
  <path class="cls-2" d="m453.65,274.82s6.46-18.92,30.81-18.02c0,0-15.57,3.64-21.66,18.41l-9.16-.39Z"/>
  <path class="cls-2" d="m515.86,290.34c-.11,2.72-.52,5.36-1.2,7.89-.4,1.48-1.78,2.48-3.3,2.41l-64.79-2.73c-1.53-.06-2.82-1.18-3.09-2.68-.46-2.58-.65-5.24-.53-7.96.11-2.73.53-5.38,1.21-7.91.4-1.47,1.78-2.47,3.3-2.41l64.78,2.73c1.53.06,2.81,1.17,3.09,2.68.47,2.58.66,5.25.54,7.99Z"/>
  <path class="cls-2" d="m447.23,279.03l59.03,2.49s-33.66,6.99-60.36,5.87c0,0,.17-5.37,1.33-8.35Z"/>
  <rect class="cls-15" x="433.82" y="284.8" width="6.34" height="223.05"/>
  <rect class="cls-1" x="433.81" y="284.81" width="6.34" height="223.04"/>
  <path class="cls-3" d="m440.16,284.81v61.02c-2.16-1.3-4.29-2.63-6.34-3.96v-57.06h6.34Z"/>
  <path class="cls-4" d="m377.77,270.9c0-5.29.7-10.42,2-15.3,2.23-8.38,6.25-16.01,11.64-22.51,4.47-5.37,9.85-9.94,15.94-13.47,7.22-4.18,15.39-6.88,24.13-7.67,1.8-.18,3.65-.27,5.52-.27,5.29,0,10.44.69,15.32,2,8.37,2.23,16.01,6.25,22.49,11.64,5.37,4.47,9.95,9.86,13.49,15.95,4.17,7.22,6.86,15.39,7.66,24.13.18,1.8.27,3.64.27,5.5,0,5.29-.69,10.44-2.01,15.32-2.23,8.38-6.25,16.01-11.62,22.51-4.48,5.37-9.86,9.94-15.95,13.47-7.2,4.17-15.38,6.86-24.12,7.66-1.8.18-3.65.27-5.52.27-5.29,0-10.44-.69-15.32-2.01-8.37-2.22-16.01-6.24-22.49-11.62-5.37-4.47-9.94-9.85-13.47-15.94-4.17-7.2-6.88-15.38-7.67-24.12-.18-1.82-.27-3.67-.27-5.53Z"/>
  <path class="cls-21" d="m496.21,270.91c0,5.29-.69,10.44-2.01,15.32-2.23,8.38-6.25,16.01-11.62,22.51-2.29,2.75-4.82,5.28-7.56,7.57-2.62,2.2-5.43,4.17-8.4,5.9-7.2,4.17-15.38,6.86-24.12,7.66-1.8.18-3.65.27-5.52.27-5.29,0-10.44-.7-15.32-2.01-8.37-2.22-16.01-6.24-22.49-11.62-1.82-1.52-3.55-3.13-5.18-4.86-3.18-3.34-5.96-7.05-8.3-11.08-4.17-7.2-6.88-15.38-7.67-24.12-.18-1.82-.27-3.67-.27-5.53,0-5.29.7-10.42,2-15.3.77-2.88,1.75-5.68,2.93-8.35,2.23-5.13,5.18-9.89,8.71-14.15,4.47-5.37,9.85-9.94,15.94-13.47,7.22-4.18,15.39-6.88,24.13-7.67,1.8-.18,3.65-.27,5.52-.27,5.29,0,10.44.7,15.32,2,8.37,2.23,16.01,6.25,22.49,11.64,3.48,2.9,6.64,6.18,9.37,9.8,1.49,1.95,2.87,4.01,4.11,6.15,4.17,7.22,6.86,15.39,7.66,24.13.18,1.8.27,3.64.27,5.5Z"/>
  <path class="cls-4" d="m399.18,316.5c14.7-4.2,32.47-15.54,37.63-45.32.01-.03.03-.07.03-.12v-.04s.01-.03.01-.06c0,0,.01-.01.01-.03v-.09s.01,0,.01-.01h0v-.04s.03-.1.03-.16c.03-.13.04-.27.07-.4v.71s0,.07-.01.1v.1c-.09,6.03-1.29,39.45-15.3,56.99-8.37-2.22-16.01-6.24-22.49-11.62Z"/>
  <path class="cls-4" d="m436.99,271.6v-.46s0-.06.01-.09t0-.03s-.01-.06,0-.09v-.04s-.01-.07,0-.1v-.04h0c.09-5.94,1.26-39.48,15.3-57.06,8.37,2.23,16.01,6.25,22.49,11.64-14.71,4.2-32.47,15.54-37.63,45.32-.01.03-.03.07-.03.12h0v.04s-.01.06-.01.09c0,0-.01,0-.01.01h0v.07s-.01.03-.01.04v.03c-.01.06-.03.12-.03.18-.03.12-.04.25-.07.37Z"/>
  <path class="cls-4" d="m379.77,255.59c2.23-8.38,6.25-16.01,11.64-22.51,4.2,14.71,15.54,32.47,45.31,37.63.03.01.07.03.12.03,0,.01.02,0,.02,0,.01,0,.03.01.04.01h.07s.01.01.03.01h.06s.03.01.04.01.03.01.04,0c.04.01.1.03.16.03.12.03.25.04.37.07h-.68s-.01,0-.01,0c-.03,0-.07,0-.1-.01h-.07c-5.91-.09-39.45-1.24-57.03-15.29Z"/>
  <path class="cls-4" d="m436.3,270.89h.47s.04,0,.06.01c.02-.01.03-.01.04,0,.03-.01.07-.01.1,0h.01s0,.01.01,0c.03-.01.07-.01.1,0h.07c5.96.09,39.45,1.27,57.02,15.3-2.23,8.38-6.25,16.01-11.62,22.51-4.21-14.71-15.54-32.49-45.34-37.66-.03,0-.07-.01-.12-.01h-.01s0-.01-.01,0c-.01-.01-.04-.01-.07-.01t-.01-.01h-.03s-.04-.01-.07-.01h-.06s-.1-.03-.16-.03c-.12-.03-.25-.04-.38-.07Z"/>
  <path class="cls-4" d="m378.03,276.42c13.37,7.41,33.95,11.93,58.64-5.46.03-.01.06-.04.09-.07.02,0,.03,0,.03-.01h.02s.04-.03.06-.06h.03s.04-.03.06-.06t.03-.01h.01c.06-.04.1-.09.16-.12l.31-.22s-.16.16-.33.33c-.02.03-.02.01-.02.01-.01.01-.03.03-.04.04-.01,0-.01.01-.03.03-.01.03-.04.04-.06.06t-.01.01s-.01,0-.01,0h0s-.04.07-.07.09h-.01s-.03.04-.04.06c-.04.04-.09.09-.12.1-4.58,4.41-28.86,26.9-51.01,29.4-4.17-7.2-6.88-15.38-7.67-24.12Z"/>
  <path class="cls-4" d="m436.48,271.4s.12-.12.24-.25c.03-.01.07-.06.12-.1.01-.01.03-.03.04-.04h0s.01-.01.01-.01c.03-.01.04-.04.07-.07h0s0,0,.01-.01t.01-.01s.04-.03.06-.06h.01s0-.01.01-.03c.01,0,.03-.01.04-.03h0s0,0,.02-.03c4.33-4.18,28.82-26.97,51.13-29.47,4.17,7.22,6.86,15.39,7.66,24.13-13.37-7.42-33.95-11.96-58.64,5.43-.03.03-.06.04-.09.07-.02,0-.03,0-.03.01-.02,0-.03.01-.03.01l-.04.04s-.03.01-.04.01h0s-.03.03-.04.04h-.01s-.01.01-.03.03h-.01s-.1.07-.15.1c-.1.09-.22.16-.33.24Z"/>
  <path class="cls-4" d="m431.48,211.95c-7.42,13.37-11.96,33.95,5.44,58.66.01.03.04.06.07.09,0,.01,0,.03.01.03h0s.03.04.04.06c0,.01.01.03.01.04h.01s.01.04.04.06h0s.03.04.03.04c.03.04.06.09.09.13.07.12.16.22.24.34-.04-.04-.16-.16-.33-.33-.03-.01-.03-.03-.03-.03,0-.01-.01-.01-.03-.03,0-.01-.01-.01-.03-.03-.03-.01-.04-.04-.06-.06h0s-.01,0-.01-.01h0s-.01-.01-.01-.01c-.03-.03-.06-.04-.07-.07h0s-.01-.01-.01-.01h0s-.03-.03-.04-.06c0,0-.02.01-.02,0-.03-.03-.06-.06-.09-.1-4.41-4.58-26.9-28.86-29.4-51.03,7.22-4.18,15.39-6.88,24.13-7.67Z"/>
  <path class="cls-4" d="m436.49,270.41s.12.12.25.24c.03.04.06.07.09.1,0,.01.02,0,.02,0,.01.03.03.04.04.04h0s0,.03.01.01h0s.04.06.07.09c0,0,0,.01.01,0h0s0,.03.01.01h0s.03.06.06.07h0s.01.01.03.03c0,0,0,.01.01.03h.01s0,.01.03.03c4.18,4.33,26.97,28.8,29.47,51.12-7.2,4.17-15.38,6.86-24.12,7.66,7.41-13.37,11.93-33.94-5.44-58.63-.03-.03-.04-.06-.07-.09,0-.01-.01-.01-.01-.01,0-.01-.01-.03-.01-.04-.01-.03-.04-.06-.06-.07h0s-.01-.01-.01-.01c0-.01-.01-.03-.03-.04,0-.01-.01-.01-.03-.03v-.03h-.01c-.03-.06-.07-.1-.1-.16-.07-.1-.15-.21-.22-.31Z"/>
  <path class="cls-10" d="m378.04,276.43c.8,8.74,3.5,16.92,7.67,24.12,3.53,6.09,8.1,11.47,13.47,15.94,3.53,2.93,7.41,5.46,11.56,7.51-2.41-1.45-4.7-3.11-6.86-4.89-5.19-4.32-9.61-9.51-13.03-15.39-4.02-6.96-6.64-14.86-7.41-23.3-.18-1.76-.25-3.55-.25-5.35,0-5.1.67-10.07,1.92-14.79,2.16-8.09,6.05-15.47,11.24-21.74,4.32-5.19,9.52-9.6,15.41-13.01,6.96-4.05,14.88-6.64,23.32-7.42,1.74-.16,3.52-.25,5.32-.25,5.12,0,10.08.67,14.8,1.92,8.09,2.16,15.47,6.05,21.74,11.25,5.18,4.32,9.61,9.52,13.03,15.41,1.64,2.85,3.05,5.86,4.18,8.99-1.35-5.01-3.33-9.76-5.87-14.15-3.53-6.09-8.12-11.49-13.49-15.95-6.48-5.38-14.12-9.4-22.49-11.64-4.88-1.3-10.03-2-15.32-2-1.86,0-3.71.09-5.52.27-8.74.8-16.92,3.49-24.13,7.67-6.09,3.53-11.47,8.1-15.94,13.47-5.38,6.49-9.4,14.12-11.64,22.51-1.3,4.88-2,10.01-2,15.3,0,1.86.09,3.71.27,5.53Z"/>
  <path class="cls-10" d="m475.72,244.06c-.75-1.21-1.68-2.29-2.53-3.42-.96-1.04-1.85-2.16-2.91-3.11-2-2.02-4.3-3.72-6.66-5.29-4.75-3.04-9.86-5.57-15.31-7.19-5.43-1.62-11.19-2.31-16.87-1.76-2.83.29-5.66.79-8.37,1.66-2.72.83-5.39,1.86-7.91,3.22-2.51,1.35-4.91,2.92-7.1,4.76-2.23,1.79-4.24,3.83-6.07,6.02-7.3,8.77-11.54,19.97-12.01,31.38-.22,5.7.53,11.5,2.53,16.91.97,2.71,2.26,5.32,3.87,7.72,1.59,2.41,3.46,4.66,5.62,6.59,8.64,7.8,20.59,11.29,32.09,10.13,5.76-.55,11.4-2.55,16.29-5.71,1.27-.73,2.35-1.72,3.51-2.6,1.12-.94,2.13-2,3.16-3.02,1.91-2.2,3.68-4.55,5.02-7.13,2.85-5.09,4.33-10.92,4.48-16.74.12-5.82-1.08-11.79-4.1-16.94-.71-1.31-1.63-2.49-2.53-3.68-1.02-1.09-1.99-2.24-3.18-3.15-1.1-1.02-2.41-1.77-3.65-2.6-1.31-.72-2.66-1.39-4.08-1.88-5.62-2.04-11.79-2.21-17.56-.69-2.87.81-5.66,2.03-8.12,3.82-2.45,1.77-4.54,3.92-6.33,6.3-1.77,2.39-3.17,5.07-4.12,7.94-.95,2.86-1.41,6.02-.87,9.15.49,3.12,1.94,6.09,3.99,8.47.54.55,1.12,1.08,1.68,1.61.29.26.56.54.86.78l.94.65,1.88,1.29c.68.35,1.36.77,2.07,1.05,2.79,1.23,5.68,1.97,8.63,2.35,2.95.37,6,.36,9.04-.3,2.99-.68,6.2-2.08,8.31-4.86,2.17-2.73,2.81-6.15,2.75-9.25-.1-3.15-.94-6.38-3.01-9.11-1.03-1.35-2.43-2.54-4.09-3.26-1.5-.66-6.5-2.25-11.37,1.55-.53.34-.99.76-1.4,1.24-.05.05-.09.08-.14.13h.03c-.84,1.06-1.37,2.37-1.37,3.83,0,3.4,2.76,6.16,6.16,6.16s6.16-2.76,6.16-6.16c0-1.09-.31-2.11-.81-3,1.31.3,2.47,1.03,3.37,2.2,1.35,1.72,2.07,4.14,2.16,6.55.08,2.43-.44,4.85-1.79,6.54-1.28,1.76-3.49,2.82-5.88,3.39-4.85,1.08-10.45.29-15.13-1.67-.6-.23-1.12-.55-1.68-.83l-1.58-1.07-.79-.53c-.25-.19-.46-.42-.69-.63l-1.36-1.27c-1.6-1.86-2.7-4.06-3.1-6.45-.44-2.39-.12-4.95.67-7.37.79-2.43,1.98-4.78,3.51-6.89,1.55-2.1,3.38-4.01,5.45-5.53,2.05-1.52,4.44-2.6,6.94-3.33,5.02-1.37,10.52-1.27,15.43.48,1.23.41,2.4.98,3.54,1.59,1.08.72,2.22,1.35,3.18,2.23,1.04.78,1.89,1.77,2.79,2.71.79,1.04,1.61,2.05,2.24,3.2,2.69,4.49,3.85,9.88,3.78,15.2-.09,5.34-1.39,10.67-3.97,15.35-4.87,9.61-14.9,16.05-25.61,17.16-10.67,1.19-22.06-2.05-30.1-9.23-2.03-1.77-3.78-3.85-5.28-6.09-1.52-2.22-2.75-4.65-3.68-7.19-1.92-5.07-2.68-10.56-2.52-16.01.35-10.91,4.34-21.76,11.29-30.22,1.73-2.11,3.65-4.09,5.77-5.81,2.07-1.78,4.37-3.3,6.76-4.62,2.39-1.32,4.95-2.33,7.56-3.15,2.6-.86,5.31-1.36,8.03-1.66,5.45-.57,11,.03,16.28,1.56,5.29,1.53,10.31,3.96,14.99,6.9,2.3,1.5,4.54,3.12,6.49,5.06,1.03.91,1.9,1.99,2.84,2.99.83,1.09,1.74,2.13,2.48,3.29,3.14,4.53,5.29,9.71,6.61,15.07,2.6,10.77,1.68,22.29-2.07,32.71-3.74,10.43-10.74,19.77-20.15,25.77-9.26,6.1-20.23,9.94-31.4,9.85-5.56-.05-11.14-1.12-16.28-3.28-5.15-2.14-9.83-5.35-13.83-9.26,3.96,3.94,8.62,7.2,13.77,9.39,5.14,2.2,10.73,3.33,16.33,3.43,11.24.19,22.32-3.58,31.71-9.66,9.55-5.97,16.75-15.39,20.63-25.94,3.9-10.54,4.93-22.23,2.37-33.25-1.31-5.49-3.46-10.82-6.66-15.51Z"/>
  <path class="cls-13" d="m496.21,270.91c0,5.29-.69,10.44-2.01,15.32-2.23,8.38-6.25,16.01-11.62,22.51-2.29,2.75-4.82,5.28-7.56,7.57-4.38-8.99-7.64-18.93-8.8-29.62-4.27-39.58,11.95-49.33,17.95-51.56,1.49,1.95,2.87,4.01,4.11,6.15,4.17,7.22,6.86,15.39,7.66,24.13.18,1.8.27,3.64.27,5.5Z"/>
  <path class="cls-13" d="m394,311.63c-3.18-3.34-5.96-7.05-8.3-11.08-4.17-7.2-6.88-15.38-7.67-24.12-.18-1.82-.27-3.67-.27-5.53,0-5.29.7-10.42,2-15.3.77-2.88,1.75-5.68,2.93-8.35,5.84,7.05,13.99,20.64,15.07,42.56.37,7.51-1.14,14.89-3.76,21.83Z"/>
  <rect class="cls-15" x="515.25" y="284.91" width="6.34" height="223.05" transform="translate(47.62 -55.52) rotate(6.42)"/>
  <rect class="cls-2" x="406.9" y="393.27" width="223.04" height="6.34" transform="translate(66.46 867.24) rotate(-83.57)"/>
  <path class="cls-3" d="m534.05,285.97l-6.83,60.64c-2-1.53-3.97-3.1-5.86-4.65l6.39-56.7,6.3.71Z"/>
  <path class="cls-4" d="m526.21,327.36v-.03s-.01.03-.01.03c-6.91-.78-18.4-9.94-28.19-22.28v-.02c-13.03-16.39-23.03-38.35-15.27-53.58,6.3-12.37,16.55-16.25,26.33-15.14,11.33,1.28,22.03,9.21,25.32,18.33,5.79-9.03,20.11-14.62,32.35-11.59h.02s.01,0,.03,0c8.35,2.09,15.7,8.2,18.67,19.97,7.32,29.04-43.16,66.12-59.23,64.31Z"/>
  <path class="cls-21" d="m526.89,321.25c-4.21,1.81-33.22-24.43-39.16-46.05-5.93-21.62,7.8-36.95,24.5-34.18,16.71,2.76,21.35,19.66,21.35,19.66,0,0,18.05-22.33,34.02-9.92,15.97,12.42,16.72,45.76-40.71,70.49Z"/>
  <path class="cls-4" d="m575.89,273.9c-.22-2.91-.88-5.8-1.96-8.54-1.11-2.73-2.66-5.3-4.64-7.56-2.01-2.21-4.42-4.16-7.22-5.42-5.58-2.7-12.37-2.29-17.83.17-4.78,2.08-8.77,5.33-12.24,8.95-2.19-3.06-4.66-5.78-7.54-8.23-1.76-1.46-3.63-2.84-5.7-3.93-1-.6-2.11-1.03-3.18-1.52-1.12-.38-2.23-.83-3.4-1.06l-1.75-.38c-.6-.1-1.25-.17-1.88-.2-1.28-.06-2.58.09-3.84.38-2.52.64-4.79,2.02-6.53,3.77-3.52,3.53-5.28,8.12-6.03,12.67-.73,4.58-.4,9.28.89,13.73.64,2.2,1.57,4.42,2.66,6.37,1.05,1.99,2.21,3.89,3.43,5.75,4.93,7.41,10.7,14.13,17.22,20.2,1.62,1.52,3.34,2.97,5.17,4.36.95.69,1.85,1.36,3.15,1.98l.53.23.26.11.13.05.25.05c.33.06.72.11,1.02.1l.7-.09c.86-.17,1.46-.42,2.05-.68,2.27-1.06,4.1-2.31,5.95-3.6,1.82-1.3,3.57-2.65,5.29-4.04,3.42-2.79,6.71-5.71,9.87-8.77,3.15-3.08,6.22-6.24,8.95-9.85.67-.93,1.34-1.85,1.94-2.91.31-.51.58-1.09.84-1.71.28-.68.4-1.26.54-1.84.53-2.36.62-4.85.1-7.27-.52-2.41-1.63-4.74-3.3-6.65-1.65-1.93-3.92-3.31-6.31-4.08-.6-.21-1.2-.36-1.82-.46-.59-.15-1.26-.19-1.94-.21-.69-.06-1.32.03-1.96.11-.65.06-1.25.21-1.84.38-2.38.66-4.47,1.73-6.43,2.92-3.34,2.11-6.27,4.57-9.03,7.28-2.78-2.98-5.69-5.78-9-8.3-1.93-1.41-3.94-2.8-6.51-3.62-1.27-.36-2.86-.63-4.46.07-.78.36-1.42.87-1.92,1.59-.27.34-.38.72-.56,1.09-.12.36-.2.73-.28,1.09-.21,1.42-.02,2.68.22,3.9.24,1.21.6,2.36,1.01,3.48.82,2.23,1.82,4.35,2.91,6.42,2.21,4.11,4.76,8.01,7.64,11.68,1.45,1.83,2.98,3.61,4.74,5.24.91.8,1.83,1.58,3.06,2.19,1.32.66,2.81.59,4.03.33,2.5-.56,4.59-1.79,6.53-3.13,1.94-1.36,3.7-2.91,5.31-4.62,1.58-1.73,3.09-3.55,4.04-5.8.22-.57.42-1.16.47-1.83.05-.65-.07-1.43-.58-2.02-1.07-1.01-2.41-1.28-3.65-1.2-2.47.21-4.64,1.2-6.7,2.28-2,1.08-3.88,2.33-5.67,3.71-1.53-.84-3.02-1.8-4.37-2.91-.7-.57-1.37-1.18-1.94-1.88-.58-.69-1.1-1.44-1.37-2.31.24.88.72,1.66,1.28,2.38.55.72,1.2,1.37,1.88,1.98,1.36,1.22,2.85,2.29,4.43,3.24l.13.08.14-.1c1.86-1.31,3.84-2.49,5.87-3.51,2.03-.99,4.2-1.85,6.37-1.96,1.06-.06,2.13.33,2.73.91.5.6.26,1.7-.17,2.65-.89,1.94-2.4,3.68-3.96,5.26-1.59,1.58-3.34,3.01-5.21,4.23-1.86,1.21-3.89,2.26-5.93,2.63-1.02.17-1.99.16-2.74-.27-.83-.44-1.68-1.17-2.46-1.92-1.58-1.53-3.03-3.27-4.39-5.07-2.71-3.6-5.12-7.46-7.16-11.46-1.01-2-1.92-4.05-2.63-6.12-.35-1.04-.65-2.08-.83-3.11-.19-1.02-.29-2.06-.13-2.9.29-1.6,1.51-2.03,3.42-1.42,1.85.61,3.71,1.88,5.44,3.23,3.46,2.75,6.67,6.04,9.58,9.41l1.25,1.44,1.38-1.37c2.93-2.92,6.28-5.66,9.79-7.81,1.77-1.05,3.61-1.94,5.45-2.43,1.87-.5,3.47-.44,5.33.18,1.75.59,3.35,1.58,4.51,2.97,1.17,1.38,1.98,3.08,2.35,4.89.37,1.81.28,3.73-.15,5.56-.11.46-.23.94-.37,1.26-.16.37-.35.78-.61,1.18-.47.82-1.08,1.65-1.68,2.47-2.53,3.26-5.52,6.35-8.59,9.31-3.08,2.96-6.3,5.8-9.62,8.49-1.66,1.34-3.35,2.64-5.08,3.86-1.71,1.2-3.51,2.38-5.2,3.15-.4.18-.83.33-1.04.36,0,0,0,0,0,0h-.03s-.22-.12-.22-.12c-.67-.32-1.56-.93-2.36-1.53-1.63-1.25-3.25-2.62-4.79-4.08-6.19-5.83-11.89-12.33-16.57-19.36-1.17-1.76-2.27-3.56-3.25-5.4-1.03-1.83-1.78-3.62-2.36-5.56-1.13-3.84-1.44-7.95-.82-11.89.62-3.91,2.17-7.75,4.79-10.42,1.3-1.33,2.88-2.28,4.6-2.75,1.75-.43,3.5-.37,5.5.15,7.78,1.84,14.43,8.06,18.92,14.79l1.43,2.14,1.63-1.88c3.55-4.09,7.6-7.84,12.44-10.04,4.76-2.24,10.35-2.67,15.13-.5,2.4,1.02,4.52,2.66,6.33,4.56,1.78,1.95,3.22,4.22,4.27,6.67,1.03,2.45,1.69,5.07,1.95,7.73.28,2.53-.37,5.14-1.32,7.64-.97,2.51-2.33,4.91-3.8,7.23-1.46,2.33-3.1,4.57-4.84,6.74-3.46,4.35-7.33,8.41-11.36,12.3-4.05,3.87-8.31,7.54-12.77,10.95-2.24,1.7-4.51,3.35-6.88,4.86-1.18.76-2.4,1.47-3.65,2.11-1.26.59-2.57,1.26-4,1.25,1.43.07,2.79-.54,4.08-1.08,1.29-.59,2.55-1.25,3.77-1.96,2.45-1.42,4.83-2.96,7.13-4.59,4.6-3.28,9.01-6.83,13.23-10.59,4.2-3.78,8.25-7.75,11.93-12.06,3.68-4.3,7.09-8.93,9.37-14.29,1.08-2.68,1.92-5.63,1.65-8.71Z"/>
  <path class="cls-13" d="m575.89,273.9c-.22-2.91-.88-5.8-1.96-8.54-1.11-2.73-2.66-5.3-4.64-7.56-2.01-2.21-4.42-4.16-7.22-5.42-5.58-2.7-12.37-2.29-17.83.17-4.78,2.08-8.77,5.33-12.24,8.95-2.19-3.06-4.66-5.78-7.54-8.23-1.76-1.46-3.63-2.84-5.7-3.93-1-.6-2.11-1.03-3.18-1.52-1.12-.38-2.23-.83-3.4-1.06l-1.75-.38c-.6-.1-1.25-.17-1.88-.2-1.28-.06-2.58.09-3.84.38-2.52.64-4.79,2.02-6.53,3.77-3.52,3.53-5.28,8.12-6.03,12.67-.73,4.58-.4,9.28.89,13.73.64,2.2,1.57,4.42,2.66,6.37,1.05,1.99,2.21,3.89,3.43,5.75,4.93,7.41,10.7,14.13,17.22,20.2,1.62,1.52,3.34,2.97,5.17,4.36.95.69,1.85,1.36,3.15,1.98l.53.23.26.11.13.05.25.05c.33.06.72.11,1.02.1l.7-.09c.86-.17,1.46-.42,2.05-.68,2.27-1.06,4.1-2.31,5.95-3.6,1.82-1.3,3.57-2.65,5.29-4.04,3.42-2.79,6.71-5.71,9.87-8.77,3.15-3.08,6.22-6.24,8.95-9.85.67-.93,1.34-1.85,1.94-2.91.31-.51.58-1.09.84-1.71.28-.68.4-1.26.54-1.84.53-2.36.62-4.85.1-7.27-.52-2.41-1.63-4.74-3.3-6.65-1.65-1.93-3.92-3.31-6.31-4.08-.6-.21-1.2-.36-1.82-.46-.59-.15-1.26-.19-1.94-.21-.69-.06-1.32.03-1.96.11-.65.06-1.25.21-1.84.38-2.38.66-4.47,1.73-6.43,2.92-3.34,2.11-6.27,4.57-9.03,7.28-2.78-2.98-5.69-5.78-9-8.3-1.93-1.41-3.94-2.8-6.51-3.62-1.27-.36-2.86-.63-4.46.07-.78.36-1.42.87-1.92,1.59-.27.34-.38.72-.56,1.09-.12.36-.2.73-.28,1.09-.21,1.42-.02,2.68.22,3.9.24,1.21.6,2.36,1.01,3.48.82,2.23,1.82,4.35,2.91,6.42,2.21,4.11,4.76,8.01,7.64,11.68,1.45,1.83,2.98,3.61,4.74,5.24.91.8,1.83,1.58,3.06,2.19,1.32.66,2.81.59,4.03.33,2.5-.56,4.59-1.79,6.53-3.13,1.94-1.36,3.7-2.91,5.31-4.62,1.58-1.73,3.09-3.55,4.04-5.8.22-.57.42-1.16.47-1.83.05-.65-.07-1.43-.58-2.02-1.07-1.01-2.41-1.28-3.65-1.2-2.47.21-4.64,1.2-6.7,2.28-2,1.08-3.88,2.33-5.67,3.71-1.53-.84-3.02-1.8-4.37-2.91-.7-.57-1.37-1.18-1.94-1.88-.58-.69-1.1-1.44-1.37-2.31.24.88.72,1.66,1.28,2.38.55.72,1.2,1.37,1.88,1.98,1.36,1.22,2.85,2.29,4.43,3.24l.13.08.14-.1c1.86-1.31,3.84-2.49,5.87-3.51,2.03-.99,4.2-1.85,6.37-1.96,1.06-.06,2.13.33,2.73.91.5.6.26,1.7-.17,2.65-.89,1.94-2.4,3.68-3.96,5.26-1.59,1.58-3.34,3.01-5.21,4.23-1.86,1.21-3.89,2.26-5.93,2.63-1.02.17-1.99.16-2.74-.27-.83-.44-1.68-1.17-2.46-1.92-1.58-1.53-3.03-3.27-4.39-5.07-2.71-3.6-5.12-7.46-7.16-11.46-1.01-2-1.92-4.05-2.63-6.12-.35-1.04-.65-2.08-.83-3.11-.19-1.02-.29-2.06-.13-2.9.29-1.6,1.51-2.03,3.42-1.42,1.85.61,3.71,1.88,5.44,3.23,3.46,2.75,6.67,6.04,9.58,9.41l1.25,1.44,1.38-1.37c2.93-2.92,6.28-5.66,9.79-7.81,1.77-1.05,3.61-1.94,5.45-2.43,1.87-.5,3.47-.44,5.33.18,1.75.59,3.35,1.58,4.51,2.97,1.17,1.38,1.98,3.08,2.35,4.89.37,1.81.28,3.73-.15,5.56-.11.46-.23.94-.37,1.26-.16.37-.35.78-.61,1.18-.47.82-1.08,1.65-1.68,2.47-2.53,3.26-5.52,6.35-8.59,9.31-3.08,2.96-6.3,5.8-9.62,8.49-1.66,1.34-3.35,2.64-5.08,3.86-1.71,1.2-3.51,2.38-5.2,3.15-.4.18-.83.33-1.04.36,0,0,0,0,0,0h-.03s-.22-.12-.22-.12c-.67-.32-1.56-.93-2.36-1.53-1.63-1.25-3.25-2.62-4.79-4.08-6.19-5.83-11.89-12.33-16.57-19.36-1.17-1.76-2.27-3.56-3.25-5.4-1.03-1.83-1.78-3.62-2.36-5.56-1.13-3.84-1.44-7.95-.82-11.89.62-3.91,2.17-7.75,4.79-10.42,1.3-1.33,2.88-2.28,4.6-2.75,1.75-.43,3.5-.37,5.5.15,7.78,1.84,14.43,8.06,18.92,14.79l1.43,2.14,1.63-1.88c3.55-4.09,7.6-7.84,12.44-10.04,4.76-2.24,10.35-2.67,15.13-.5,2.4,1.02,4.52,2.66,6.33,4.56,1.78,1.95,3.22,4.22,4.27,6.67,1.03,2.45,1.69,5.07,1.95,7.73.28,2.53-.37,5.14-1.32,7.64-.97,2.51-2.33,4.91-3.8,7.23-1.46,2.33-3.1,4.57-4.84,6.74-3.46,4.35-7.33,8.41-11.36,12.3-4.05,3.87-8.31,7.54-12.77,10.95-2.24,1.7-4.51,3.35-6.88,4.86-1.18.76-2.4,1.47-3.65,2.11-1.26.59-2.57,1.26-4,1.25,1.43.07,2.79-.54,4.08-1.08,1.29-.59,2.55-1.25,3.77-1.96,2.45-1.42,4.83-2.96,7.13-4.59,4.6-3.28,9.01-6.83,13.23-10.59,4.2-3.78,8.25-7.75,11.93-12.06,3.68-4.3,7.09-8.93,9.37-14.29,1.08-2.68,1.92-5.63,1.65-8.71Z"/>
  <path class="cls-13" d="m526.21,327.36v-.03s-.01.03-.01.03c-6.91-.78-18.4-9.94-28.19-22.28.6.6,20.18,20.19,28.39,20.53,8.34.36,39.75-17.47,50.6-37.95,10.85-20.46,7.48-36.94-10.22-44.59,8.35,2.09,15.7,8.2,18.67,19.97,7.32,29.04-43.16,66.12-59.23,64.31Z"/>
  <path class="cls-2" d="m493.19,292.06s-14.79-21.7-5.42-41.49c9.37-19.79,36.74-10.5,39.14-1.49,0,0-16.17-13.53-28.09-1.77-11.92,11.76-5.63,44.76-5.63,44.76Z"/>
  <rect class="cls-15" x="364.34" y="286.3" width="6.34" height="223.05" transform="translate(-53.91 57.62) rotate(-8.36)"/>
  <rect class="cls-21" x="364.34" y="286.31" width="6.34" height="223.04" transform="translate(-53.91 57.62) rotate(-8.36)"/>
  <path class="cls-3" d="m354.44,287.03l8.87,60.38c-2.33-.97-4.63-1.98-6.85-3l-8.29-56.46,6.28-.92Z"/>
  <circle class="cls-4" cx="351.62" cy="289.61" r="33.53"/>
  <circle class="cls-3" cx="351.62" cy="289.61" r="33.53"/>
  <path class="cls-4" d="m387.73,284.31c.4,2.69.49,5.36.29,7.98-.11,1.53-1.28,2.77-2.79,2.99l-64.16,9.42c-1.51.22-2.99-.63-3.54-2.06-.94-2.45-1.62-5.03-2.01-7.72-.4-2.71-.49-5.38-.29-8,.12-1.52,1.28-2.76,2.79-2.98l64.15-9.42c1.51-.22,2.98.63,3.53,2.05.94,2.45,1.63,5.04,2.02,7.74Z"/>
  <path class="cls-2" d="m323.71,280.68s2.81-19.79,26.9-23.46c0,0-14.62,6.48-17.84,22.13l-9.07,1.33Z"/>
  <path class="cls-2" d="m318.19,286.02l58.45-8.59s-31.77,13.16-58.2,17.04c0,0-.83-5.3-.26-8.45Z"/>
  <path class="cls-18" d="m320.66,499.37h303.08c1.05,0,1.9.85,1.9,1.9v70.09h-306.87v-70.09c0-1.05.85-1.9,1.9-1.9Z"/>
  <rect class="cls-4" x="311.45" y="504.08" width="221.8" height="72.12"/>
  <rect class="cls-8" x="311.45" y="504.08" width="221.8" height="72.12"/>
  <polygon class="cls-4" points="652.59 373.32 652.59 576.21 533.25 576.21 533.25 504.08 652.59 373.32"/>
  <polygon class="cls-5" points="652.59 373.32 652.59 576.21 533.25 576.21 533.25 504.08 652.59 373.32"/>
  <polygon class="cls-19" points="652.59 431.48 635.23 494.12 600.72 474.76 600.72 528.63 558.02 521.61 576.93 557.81 558.02 576.21 652.59 576.21 652.59 431.48"/>
  <polygon class="cls-22" points="358.74 512.45 380.81 521.3 404.36 512.45 428.98 521.3 472.73 512.45 479.35 523.58 517.95 514.98 502.43 534.46 526.11 544.3 504.72 549.31 517.95 570.14 470.32 559.39 462.29 572.44 435.4 559.39 412.12 567.69 400.57 559.58 363.16 570.14 367.48 555.88 321.41 566.85 335.06 547.45 319.41 537.35 337.47 531.43 328.64 514.98 354.33 521.3 358.74 512.45"/>
  <text class="cls-25" transform="translate(379.76 549.78)"><tspan x="0" y="0">AZUCAR</tspan></text>
  <path class="cls-22" d="m172.38,192.58h-37.02c-5.58,0-10.11,4.53-10.11,10.11v28.92c0,5.58,4.53,10.11,10.11,10.11h13.61l8.1,11.91,1.7-11.91h13.61c5.58,0,10.11-4.53,10.11-10.11v-28.92c0-5.58-4.53-10.11-10.11-10.11Z"/>
  <path class="cls-21" d="m139.91,207.15c3.67-5.8,10.52-3.47,14.01,1.11,3.61-4.5,10.51-6.66,14.04-.77,5.95,9.93-6.67,18.9-12.62,22.4-.67.4-1.23.73-1.7.99-.46-.27-1.01-.62-1.67-1.03-5.86-3.65-18.25-12.93-12.07-22.71Z"/>
  <path class="cls-9" d="m206.18,360.59s25.62-2.89,27.76-4.87c2.14-1.99,13.65-32.57,13.65-32.57,0,0,5.85-4.88,6.43-6.06.59-1.18,0-12.59,0-12.59l-20.47,11.02,6.82,7.07s-11.5,20.56-12.28,21.95c-.78,1.39-18.05,3.8-18.05,3.8l-3.87,12.25Z"/>
  <path class="cls-3" d="m206.18,360.59s25.62-2.89,27.76-4.87c2.14-1.99,13.65-32.57,13.65-32.57,0,0,5.85-4.88,6.43-6.06.59-1.18,0-12.59,0-12.59l-20.47,11.02,6.82,7.07s-11.5,20.56-12.28,21.95c-.78,1.39-18.05,3.8-18.05,3.8l-3.87,12.25Z"/>
  <rect class="cls-15" x="264.7" y="280.39" width="6.34" height="223.05" transform="translate(-133.83 138.96) rotate(-23.45)"/>
  <rect class="cls-21" x="264.69" y="280.4" width="6.34" height="223.04" transform="translate(-133.83 138.96) rotate(-23.45)"/>
  <path class="cls-3" d="m226.4,288.35l24.28,55.99c-2.5-.33-4.98-.71-7.4-1.11l-22.71-52.35,5.82-2.52Z"/>
  <circle class="cls-4" cx="224.34" cy="291.57" r="33.53" transform="translate(-59.2 57.17) rotate(-12.84)"/>
  <circle class="cls-21" cx="224.34" cy="291.57" r="33.53" transform="translate(-59.2 57.17) rotate(-12.84)"/>
  <path class="cls-4" d="m257.82,277.05c1.08,2.5,1.87,5.05,2.36,7.62.29,1.5-.52,3-1.92,3.61l-59.5,25.81c-1.4.61-3.05.17-3.95-1.07-1.54-2.12-2.87-4.44-3.95-6.93-1.09-2.51-1.87-5.07-2.36-7.65-.28-1.5.52-3,1.92-3.61l59.48-25.8c1.4-.61,3.04-.17,3.95,1.06,1.55,2.12,2.88,4.44,3.97,6.95Z"/>
  <path class="cls-2" d="m195.07,290.22s-2.44-19.84,19.87-29.66c0,0-12.42,10.07-11.46,26.01l-8.41,3.65Z"/>
  <path class="cls-14" d="m257.82,277.05c1.08,2.5,1.87,5.05,2.36,7.62.29,1.5-.52,3-1.92,3.61l-59.5,25.81c-1.4.61-3.05.17-3.95-1.07-1.54-2.12-2.87-4.44-3.95-6.93-1.09-2.51-1.87-5.07-2.36-7.65-.28-1.5.52-3,1.92-3.61l59.48-25.8c1.4-.61,3.04-.17,3.95,1.06,1.55,2.12,2.88,4.44,3.97,6.95Z"/>
  <path class="cls-2" d="m191.13,296.82l54.2-23.51s-27.24,20.98-51.75,31.61c0,0-2.19-4.9-2.45-8.1Z"/>
  <polygon class="cls-22" points="215.41 346.27 218.29 371.37 214.04 371.28 195.96 370.87 193.06 356.05 191.64 348.78 215.41 346.27"/>
  <path class="cls-3" d="m214.04,371.28l-18.08-.41-2.9-14.82.03-.34c2.36.14,15.45,1.41,20.94,15.56Z"/>
  <path class="cls-9" d="m236.79,451.64s21.99,37.39,21.88,57.22c-.12,19.84-8.92,60.84-8.92,60.84l-10.91.18s2.71-49.84,2.05-58.6c-.65-8.76-23.69-42.97-23.69-42.97l19.6-16.67Z"/>
  <path class="cls-9" d="m192.2,451.64s3.98,40.69,0,60.12c-3.98,19.43-20.6,57.94-20.6,57.94l-10.74-1.95s12.36-48.36,13.42-57.08c1.06-8.72-7.52-55.61-7.52-55.61l25.42-3.42Z"/>
  <path class="cls-15" d="m220.53,482.06c-9.68-13.65-21.78-21.97-21.78-21.97.1,10.63-.33,17.71-1.36,26.99l-34.08,2.88c-3.22-34.53-10.87-62.56-10.87-62.56l62.93-20.26,4.79,10.7s15.65,17.04,34.84,52.28l-34.46,11.94Z"/>
  <path class="cls-8" d="m190.65,572.09c-4.54-.52-10.39-3.62-13.71-6.25,1.63-7.93.68-8.31-1.29-7.93-2.37.45-5.48,5.26-5.48,5.26-8.16-3.9-11.42,1.37-11.42,1.37-3.76,12.27-3.02,11.13,2.19,12.12,4.52.21,6.68.08,12.38.39,3.49.21,10.38.95,15.2.48,4.82-.47,4.23-5.22,2.15-5.45Z"/>
  <path class="cls-8" d="m267.54,572.09c-4.54-.52-10.39-3.62-13.71-6.25,1.63-7.93.68-8.31-1.29-7.93-2.37.45-5.48,5.26-5.48,5.26-8.16-3.9-11.42,1.37-11.42,1.37-3.76,12.27-3.02,11.13,2.19,12.12,4.52.21,6.68.08,12.38.39,3.49.21,10.38.95,15.2.48,4.82-.47,4.23-5.22,2.15-5.45Z"/>
  <path class="cls-22" d="m217.2,411.35l-64.77,16.04s-3.8-14.95-7.32-37.25c-1.14-7.26-2.26-15.3-3.19-23.87-.33-2.84-.62-5.74-.89-8.68,0,0,19.92-12.58,53.25-8.41,0,0,10.97,35.18,22.92,62.16Z"/>
  <path class="cls-16" d="m172.66,373.32l-5.69-7.28s13.64,5.09,13.33,4.5c-.31-.59,2.46-9.36,2.46-9.36l7.8,8.92,6.91-8.01-.66,6.84,4.13.23,1.48,5.47-1.66,3.02,2.97,5.13-2.58.8-1.56,8.32-8.96-4.76-4.4,9.5-4.91-8.27-13.47,1.9,3.95-8.77-7.61-6.2,8.48-1.99Z"/>
  <path class="cls-15" d="m187.3,385.58c-10.53-.92-16.78-9.23-16.78-9.23.71.03,1.42.04,2.14.04,9.66,0,20.07-2.77,24.13-3.96,1.12-.33,1.76-.53,1.76-.53,1.32,5.75-.72,14.58-11.25,13.68Z"/>
  <path class="cls-4" d="m178.83,383.08s5.36,2.15,8.02,6.99c4.09,7.46,10.29,8.04,13.82,4.46,3.24-3.29,1.76-11.55-2.92-15.76-3.03-2.72-8.99.4-8.99.4,0,0-5.08-2.09-9.92,3.9Z"/>
  <path class="cls-8" d="m178.83,383.08s5.36,2.15,8.02,6.99c4.09,7.46,10.29,8.04,13.82,4.46,3.24-3.29,1.76-11.55-2.92-15.76-3.03-2.72-8.99.4-8.99.4,0,0-5.08-2.09-9.92,3.9Z"/>
  <path class="cls-3" d="m188.76,379.17c2.77,1.46,4.75,3.88,5.92,7.24,0,0,1.68-.73.58-4.02-1.1-3.29-6.5-3.22-6.5-3.22Z"/>
  <path class="cls-18" d="m196.79,372.43v2.42c-6.58,3.45-22.15,3.92-22.15,3.92l-1.98-2.38c9.66,0,20.07-2.77,24.13-3.96Z"/>
  <path class="cls-3" d="m196.11,359.08c-5.92,9.51-17.07,14.24-17.07,14.24l-3.7,11.41-31.93-6.26c-.53-3.92-1.03-8-1.49-12.2,2.53-3.16,6.02-5.6,10.51-6.48,14.08-2.72,26.62,3.16,26.62,3.16l5.06-3.88h12Z"/>
  <path class="cls-9" d="m178.83,341.06c-.33,2.21-.08,4.72,1.62,7.09.25.35.53.7.84,1.04.44.47.96.93,1.54,1.4,0,0,.46,6.37-4.8,7.02-10.57,1.32-17.98-5.29-17.98-5.29,0,0,4.04-5.94,1.49-14.27-.64-2.13-1.71-4.39-3.37-6.75l15.9,2.49,7.23,1.13s-1.95,2.66-2.48,6.14Z"/>
  <path class="cls-3" d="m178.83,341.06c-.33,2.21-.08,4.72,1.62,7.09.25.35.53.7.84,1.04-8.65.21-15.91-6.64-19.75-11.13-.64-2.13-1.71-4.39-3.37-6.75l15.9,2.49,7.23,1.13s-1.95,2.66-2.48,6.14Z"/>
  <path class="cls-15" d="m181.41,289.89s18.18,10.99,2.25,28.07c-18,19.3-2.25-28.07-2.25-28.07Z"/>
  <path class="cls-9" d="m145.29,317.73c2.73,12.39,11.81,25.23,22.47,25.59,19.56.66,26.48-4.08,26.52-18.53.1-13.01-7.35-32.48-23.65-33.9-16.3-1.42-29.12,9.64-25.34,26.83Z"/>
  <path class="cls-15" d="m184.52,297.95s-8.22-7.17-18.44,2.35c0,0-7.31,3.8-4.4,12.15,2.91,8.35-6.38,14.47-5.1,25.89,0,0-12.06.3-17.53-24.33-3.98-17.95,10.74-27.27,26.96-29.31,13.58-1.71,24.56,6.65,18.52,13.25Z"/>
  <path class="cls-15" d="m174.42,317.16c.29,1.58,1.38,2.72,2.42,2.52,1.04-.21,1.62-1.64,1.33-3.22-.29-1.58-1.38-2.7-2.42-2.52-1.04.19-1.62,1.64-1.33,3.22Z"/>
  <path class="cls-15" d="m186.97,314.18c.28,1.51,1.32,2.61,2.31,2.41.99-.2,1.55-1.57,1.28-3.08-.28-1.51-1.32-2.58-2.31-2.41-.99.18-1.55,1.57-1.28,3.08Z"/>
  <path class="cls-15" d="m177.49,308.37c.1-.12.16-.26.19-.41,0-.4-.33-.72-.73-.73-2.34-.07-4.56,1.01-5.95,2.89-.22.33-.13.78.21,1h0c.34.2.77.11,1-.21h0c1.14-1.48,2.93-2.3,4.79-2.21.21-.04.38-.17.5-.34Z"/>
  <path class="cls-15" d="m189.9,306.72c.14-.06.27-.15.36-.27.19-.35.05-.79-.29-.99-2.02-1.18-4.49-1.29-6.61-.3-.35.19-.49.63-.3.98h0c.2.34.63.47.98.3h0c1.7-.76,3.67-.63,5.26.35.2.06.42.04.6-.06Z"/>
  <path class="cls-23" d="m184.83,316.48l-.4,7.02c1.69.12,3.52-.32,4.99-1.2-1.94-1.72-3.48-3.68-4.59-5.82Z"/>
  <path class="cls-9" d="m160.52,323.27s-4.56-7.14-8.13-4.07c-3.57,3.07-.68,15.75,5.21,14.79,5.89-.97,6.26-7.02,2.92-10.71Z"/>
  <path class="cls-15" d="m185.69,328.12c-.94,1.91-1.92,5.52-1.92,5.52-.34-.03-.69-.06-1.03-.11-4.64-.52-6.62-2.29-7.41-4.09-.43-.99-.49-2-.43-2.82.06-.94.31-1.6.31-1.6,2.29,1.74,6.58,2.56,8.89,2.89.96.15,1.58.2,1.58.2Z"/>
  <path class="cls-18" d="m184.11,327.92l-.61,1.61c-4.37-.5-7.37-1.43-8.59-2.91.06-.94.31-1.6.31-1.6,2.29,1.74,6.58,2.56,8.89,2.89Z"/>
  <path class="cls-23" d="m182.75,333.53c-4.64-.52-6.62-2.29-7.41-4.09,1.57.24,3.44.7,5.03,1.59,1.22.68,1.93,1.6,2.37,2.5Z"/>
  <path class="cls-15" d="m163.75,303.16v4.77c2.54-.83,5-1.53,7.36-2.13l1.22-7.64,1.62,6.95c2.64-.61,5.11-1.09,7.36-1.46v-6.65c1.76,2.37,2.54,4.78,2.88,6.2,6.19-.88,10.09-.94,10.09-.94,0,0,1.35-12.87-12.97-17.78-14.32-4.91-28.87,4-28.87,4-24.67,8.23-14.05,31.54-14.05,31.54,7.88-5.23,16.08-8.92,23.7-11.52l1.66-5.32Z"/>
  <path class="cls-9" d="m159.95,352.63s30.25,1.21,34.6-1.12,19.98-22.46,19.98-22.46l6.6,3.8s-12.29,21.7-20.37,27.49c-8.07,5.79-32.59,6.13-32.59,6.13l-8.23-13.84Z"/>
  <path class="cls-22" d="m141.26,355.28c-8.01,12.21,13.6,24.12,33.98,25.5l2.88-28.05s-32.21-4.54-36.86,2.55Z"/>
  <path class="cls-9" d="m214.13,336.75c-2.08-.55-4.79-13.61-3.91-15.92,1.37-3.61,3.57-6.48,4.72-6.46,1.15.01,14.65,7.29,15.11,8.78.45,1.49-8.96,15.44-15.91,13.61Z"/>
</svg>