<?xml version="1.0" encoding="UTF-8"?>
<svg id="Capa_1" data-name="Capa 1" xmlns="http://www.w3.org/2000/svg" viewBox="0 0 785.24 779.57">
  <defs>
    <style>
      .cls-1 {
        fill: #ff735d;
      }

      .cls-1, .cls-2, .cls-3, .cls-4, .cls-5, .cls-6, .cls-7, .cls-8, .cls-9, .cls-10, .cls-11, .cls-12, .cls-13, .cls-14, .cls-15 {
        stroke-width: 0px;
      }

      .cls-2 {
        fill: #375a64;
      }

      .cls-3 {
        fill: #e1e1e1;
      }

      .cls-4 {
        fill: #ececec;
      }

      .cls-5 {
        fill: #04c4d9;
      }

      .cls-7 {
        opacity: .3;
      }

      .cls-8 {
        fill: #f5f5f5;
      }

      .cls-9, .cls-16, .cls-17 {
        fill: none;
      }

      .cls-10 {
        fill: #1a2e35;
      }

      .cls-11 {
        fill: #fff;
      }

      .cls-12 {
        fill: #ff9c6a;
      }

      .cls-13 {
        fill: #fafafa;
      }

      .cls-18 {
        opacity: .1;
      }

      .cls-14 {
        fill: #024873;
      }

      .cls-16 {
        stroke: #e1e1e1;
        stroke-width: 4px;
      }

      .cls-16, .cls-17 {
        stroke-miterlimit: 10;
      }

      .cls-17 {
        stroke: #ff735d;
      }

      .cls-15 {
        fill: #ffc19d;
      }
    </style>
  </defs>
  <path class="cls-3" d="m664.51,589.66s-.02-.15-.03-.41c0-.3-.02-.69-.03-1.16-.02-1.07-.04-2.55-.06-4.46-.03-3.91-.08-9.53-.15-16.61l.27.27c-19.54.04-50.62.1-85.58.17.19-.19-.44.44.43-.44h0v.72s0,.73,0,.73v1.45c0,.97,0,1.93,0,2.89,0,1.92,0,3.82,0,5.71,0,3.78,0,7.5,0,11.14l-.43-.43c24.37.08,45.7.15,60.99.19,7.62.05,13.73.09,18,.12,2.08.02,3.7.04,4.87.06.52.01.94.02,1.27.03.29,0,.44.02.45.03,0,0-.12.02-.4.03-.32,0-.72.02-1.22.03-1.14.01-2.74.03-4.78.06-4.25.03-10.33.07-17.9.12-15.37.05-36.8.12-61.29.19h-.43s0-.43,0-.43c0-3.64,0-7.36,0-11.14,0-1.89,0-3.79,0-5.71,0-.96,0-1.92,0-2.89v-1.45s0-.73,0-.73v-.71h0v-.02c.87-.87.24-.24.44-.44,34.96.07,66.04.13,85.58.17h.27s0,.27,0,.27c-.06,7.15-.11,12.83-.15,16.77-.03,1.88-.05,3.35-.06,4.4-.01.46-.02.82-.03,1.12,0,.25-.02.37-.03.36Z"/>
  <path class="cls-3" d="m110.36,739.77s-.02-.15-.03-.41c0-.3-.02-.69-.03-1.16-.02-1.07-.04-2.55-.06-4.46-.03-3.91-.08-9.53-.15-16.61l.27.27c-19.54.04-50.62.1-85.58.17.19-.19-.44.44.43-.44h0v.72s0,.73,0,.73v1.45c0,.97,0,1.93,0,2.89,0,1.92,0,3.82,0,5.71,0,3.78,0,7.5,0,11.14l-.43-.43c24.37.08,45.7.15,60.99.19,7.62.05,13.73.09,18,.12,2.08.02,3.7.04,4.87.06.52.01.94.02,1.27.03.29,0,.44.02.45.03,0,0-.12.02-.4.03-.32,0-.72.02-1.22.03-1.14.01-2.74.03-4.78.06-4.25.03-10.33.07-17.9.12-15.37.05-36.8.12-61.29.19h-.43s0-.43,0-.43c0-3.64,0-7.36,0-11.14,0-1.89,0-3.79,0-5.71,0-.96,0-1.92,0-2.89v-1.45s0-.73,0-.73v-.71h0v-.02c.87-.87.25-.24.44-.44,34.96.07,66.04.13,85.58.17h.27s0,.27,0,.27c-.06,7.15-.11,12.83-.15,16.77-.03,1.88-.05,3.35-.06,4.4-.01.46-.02.82-.03,1.12,0,.25-.02.37-.03.36Z"/>
  <g>
    <path class="cls-3" d="m407.86,198.63s-.02-.15-.03-.41c0-.3-.02-.69-.03-1.16-.02-1.07-.04-2.55-.06-4.46-.03-3.91-.08-9.53-.15-16.61l.27.27c-19.54.04-50.62.1-85.58.17.19-.19-.44.44.43-.44h0v.72s0,.73,0,.73v1.45c0,.97,0,1.93,0,2.89,0,1.92,0,3.82,0,5.71,0,3.78,0,7.5,0,11.14l-.43-.43c24.37.08,45.7.15,60.99.19,7.62.05,13.73.09,18,.12,2.08.02,3.7.04,4.87.06.52.01.94.02,1.27.03.29,0,.44.02.45.03,0,0-.12.02-.4.03-.32,0-.72.02-1.22.03-1.14.01-2.74.03-4.78.06-4.25.03-10.33.07-17.9.12-15.37.05-36.8.12-61.29.19h-.43s0-.43,0-.43c0-3.64,0-7.36,0-11.14,0-1.89,0-3.79,0-5.71,0-.96,0-1.92,0-2.89v-1.45s0-.73,0-.73v-.71h0v-.02c.87-.87.24-.24.44-.44,34.96.07,66.04.13,85.58.17h.27s0,.27,0,.27c-.06,7.15-.11,12.83-.15,16.77-.03,1.88-.05,3.35-.06,4.4-.01.46-.02.82-.03,1.12,0,.25-.02.37-.03.36Z"/>
    <path class="cls-3" d="m419.46,175.99s-.02-.16-.03-.43c0-.32-.02-.72-.03-1.2-.02-1.11-.05-2.63-.08-4.54-.04-3.97-.1-9.58-.17-16.47l.31.31c-13.32.03-31.45.07-51.42.12-.39.39.53-.53.43-.43h0v.74s0,.74,0,.74v1.48c0,.98,0,1.96,0,2.94,0,1.95,0,3.87,0,5.76,0,3.79-.01,7.46-.02,10.98l-.41-.41c14.85.08,27.63.15,36.79.2,4.52.05,8.14.09,10.72.11,1.2.02,2.16.04,2.89.05.66.02,1.02.03,1.03.05.02.02-.3.03-.93.05-.71.01-1.64.03-2.8.05-2.55.03-6.14.07-10.62.11-9.23.05-22.11.12-37.07.2h-.41s0-.42,0-.42c0-3.52-.01-7.19-.02-10.98,0-1.89,0-3.82,0-5.76,0-.97,0-1.95,0-2.94v-1.48s0-.74,0-.74v-.72h0v-.02c-.1.09.83-.83.44-.44,19.97.05,38.1.09,51.42.12h.32s0,.31,0,.31c-.07,6.97-.13,12.65-.17,16.66-.03,1.88-.06,3.37-.08,4.47-.02,1.01-.04,1.53-.07,1.51Z"/>
  </g>
  <rect class="cls-4" x="24.33" y="513.73" width="77.96" height="20.63"/>
  <rect class="cls-4" x="510.62" y="433.88" width="77.96" height="20.63"/>
  <g>
    <rect class="cls-3" x="35.32" y="14.02" width="196.2" height="324.77"/>
    <rect class="cls-4" x="28.8" y="14.02" width="196.2" height="324.77"/>
    <rect class="cls-13" x="37.15" y="20.6" width="179.49" height="311.6"/>
    <g>
      <rect class="cls-4" x="71.32" y="61.09" width="110.37" height="230.62"/>
      <path class="cls-3" d="m71.32,210.1c-.26-21.54,19.12-42.57,40.45-45.58,10.17-1.43,20.98.58,30.49-3.31,16.97-6.96,22.36-29.5,39.44-36.18l.78,166.69h-111.15v-81.61Z"/>
    </g>
  </g>
  <g>
    <rect class="cls-3" x="601.05" y="22.68" width="153.77" height="222.88"/>
    <rect class="cls-8" x="593.34" y="22.68" width="153.77" height="222.88"/>
    <g>
      <rect class="cls-11" x="612.45" y="46.82" width="115.56" height="174.6"/>
      <path class="cls-3" d="m728.01,221.42s-.02-.3-.02-.85c0-.58-.01-1.4-.02-2.48-.01-2.19-.03-5.41-.05-9.58-.02-8.37-.06-20.56-.1-35.97-.05-30.79-.11-74.39-.19-125.73l.38.38c-35.3.01-74.43.02-115.54.03h-.01l.42-.42c-.03,65.87-.06,126.6-.08,174.6l-.33-.33c35.19.07,64.04.13,84.11.18,10.04.04,17.88.06,23.24.08,2.66.02,4.7.03,6.1.04,1.38.01,2.11.04,2.11.04,0,0-.68.02-2.04.04-1.38,0-3.4.02-6.04.04-5.34.02-13.16.05-23.16.08-20.12.04-49.04.1-84.32.18h-.33s0-.33,0-.33c-.02-48-.05-108.73-.08-174.6v-.42s.42,0,.42,0h.01c41.12.01,80.24.02,115.54.03h.38v.38c-.08,51.44-.14,95.13-.19,125.98-.04,15.37-.08,27.53-.1,35.88-.02,4.14-.04,7.32-.05,9.5,0,1.06-.02,1.87-.02,2.43,0,.54-.02.81-.02.81Z"/>
    </g>
    <path class="cls-3" d="m747.54,22.68c.09.07-.95,1.59-2.74,3.98-1.79,2.39-4.32,5.64-7.21,9.15-2.89,3.51-5.6,6.62-7.6,8.84-2,2.21-3.3,3.53-3.38,3.45-.09-.08,1.05-1.53,2.93-3.84,2.06-2.5,4.6-5.58,7.4-8.98,2.8-3.4,5.34-6.48,7.4-8.99,1.9-2.29,3.11-3.69,3.21-3.62Z"/>
    <g>
      <path class="cls-11" d="m728.59,220.86c5.74,9.13,12.51,17.6,20.16,25.21"/>
      <path class="cls-3" d="m748.75,246.07c-.08.08-1.45-1.11-3.51-3.2-2.07-2.08-4.8-5.08-7.6-8.57-2.8-3.5-5.12-6.83-6.69-9.3-1.58-2.47-2.44-4.07-2.35-4.13.1-.07,1.14,1.42,2.84,3.8,1.69,2.38,4.08,5.63,6.86,9.11,2.78,3.48,5.43,6.52,7.38,8.69,1.95,2.18,3.17,3.51,3.08,3.6Z"/>
    </g>
    <g>
      <path class="cls-11" d="m593.32,245.39c6.71-8.28,13.43-16.57,20.14-24.85"/>
      <path class="cls-3" d="m613.46,220.54c.18.15-4.18,5.83-9.75,12.69-5.56,6.86-10.22,12.31-10.4,12.16-.18-.15,4.18-5.83,9.75-12.69,5.56-6.86,10.22-12.31,10.39-12.16Z"/>
    </g>
    <path class="cls-3" d="m593.34,22.68c.18-.14,4.56,5.09,9.78,11.69,5.22,6.6,9.3,12.06,9.12,12.21-.18.14-4.56-5.09-9.78-11.69-5.22-6.6-9.3-12.06-9.12-12.21Z"/>
    <rect class="cls-3" x="653.31" y="82.27" width="38.69" height="109.86"/>
  </g>
  <g>
    <rect class="cls-4" x="676.15" y="326.12" width="77.96" height="20.63"/>
    <path class="cls-3" d="m721.15,368.47s-.02-.13-.02-.37c0-.28-.01-.62-.03-1.06-.01-.97-.03-2.32-.06-4.06-.03-3.56-.08-8.68-.13-15.13l.24.24c-17.8.04-46.11.09-77.96.16.18-.18-.4.4.39-.4h0v2.64c0,.88,0,1.76,0,2.63,0,1.75,0,3.48,0,5.2,0,3.44,0,6.83,0,10.14l-.39-.39c22.2.07,41.63.13,55.56.18,6.94.05,12.51.08,16.4.11,1.89.02,3.37.04,4.43.05.48.01.86.02,1.16.03.26,0,.4.02.41.03,0,0-.11.02-.36.03-.29,0-.65.01-1.11.02-1.04.01-2.49.03-4.35.05-3.87.03-9.41.06-16.31.11-14,.04-33.52.11-55.83.18h-.39s0-.39,0-.39c0-3.32,0-6.7,0-10.14,0-1.72,0-3.46,0-5.2,0-.87,0-1.75,0-2.63v-1.32s0-.66,0-.66v-.64h0v-.02c.79-.79.22-.22.4-.4,31.85.06,60.16.12,77.96.16h.24s0,.24,0,.24c-.06,6.51-.1,11.68-.13,15.28-.02,1.71-.04,3.05-.06,4-.01.42-.02.75-.03,1.02,0,.23-.02.34-.02.33Z"/>
  </g>
  <path class="cls-10" d="m785.24,779.12c0,.25-175.8.45-392.6.45s-392.64-.2-392.64-.45,175.76-.45,392.64-.45,392.6.2,392.6.45Z"/>
  <path class="cls-10" d="m663.01,713.91s-9.38-64.46-8.6-101.97c.78-37.51-.05-79.7-.05-79.7h4.32s-2.93,74.45.26,119.35c3.18,44.87,11.57,62.32,11.57,62.32h-7.5"/>
  <path class="cls-2" d="m690.94,459.71c-.87-2.2-1.94-4.5-3.94-5.76-2.74-1.74-6.33-1.01-9.39.07-13.06,4.62-24.63,28.96-29.9,41.76l17.33,58.4c31.28-29.02,36.7-67.1,25.9-94.46Z"/>
  <path class="cls-10" d="m685.99,456.31s-.06.27-.25.76c-.22.56-.5,1.26-.85,2.13-.76,1.84-1.83,4.51-3.1,7.83-2.55,6.63-5.8,15.9-8.71,26.35-2.89,10.45-4.89,20.07-6.12,27.07-.62,3.5-1.08,6.34-1.38,8.3-.15.92-.27,1.67-.37,2.26-.09.52-.15.79-.18.78-.02,0-.01-.28.03-.8.06-.6.14-1.35.24-2.28.21-1.98.6-4.83,1.16-8.35,1.1-7.03,3.03-16.7,5.93-27.18,2.91-10.47,6.25-19.75,8.93-26.34,1.34-3.3,2.48-5.95,3.31-7.75.4-.84.72-1.53.97-2.08.23-.47.36-.71.38-.7Z"/>
  <path class="cls-2" d="m657.34,568.17c-16.25-8.98-25.82-25.86-26.71-44.4-.62-12.96,3.36-25.68,7.87-37.84.39-1.06.86-2.19,1.84-2.75,1.36-.77,3.07-.08,4.43.69,11.8,6.72,18.96,19.54,22.76,32.58,2.53,8.68,3.84,17.83,2.67,26.79-1.17,8.96-6.29,18.71-12.85,24.93"/>
  <path class="cls-10" d="m657.34,568.17s-.05-.27-.06-.78c-.01-.59-.03-1.33-.04-2.24,0-1.95-.08-4.76-.24-8.23-.31-6.95-1.22-16.52-3.02-26.98-1.8-10.46-3.99-19.83-5.6-26.6-.79-3.31-1.45-6.03-1.92-8.02-.2-.89-.37-1.61-.5-2.19-.11-.5-.15-.77-.13-.77.02,0,.11.25.27.74.17.57.37,1.28.63,2.15.53,1.87,1.27,4.59,2.14,7.96,1.74,6.74,4.01,16.11,5.81,26.6,1.8,10.49,2.63,20.11,2.82,27.08.1,3.48.1,6.31.02,8.25-.04.91-.07,1.65-.09,2.24-.03.51-.06.78-.08.78Z"/>
  <path class="cls-6" d="m657.34,568.17c-16.25-8.98-25.82-25.86-26.71-44.4-.62-12.96,3.36-25.68,7.87-37.84.39-1.06.86-2.19,1.84-2.75,1.36-.77,3.07-.08,4.43.69,11.8,6.72,18.96,19.54,22.76,32.58,2.53,8.68,3.84,17.83,2.67,26.79-1.17,8.96-6.29,18.71-12.85,24.93"/>
  <path class="cls-2" d="m675.66,666.81c15.99,3.51,29.15,14.79,44.58,20.27,10.21,3.63,21.75,4.91,29.9,12.05-1.96-4.94-6.59-8.22-11.09-11.04-12.69-7.92-26.27-14.41-40.41-19.29-7.26-2.51-15.13-4.6-22.53-2.54"/>
  <path class="cls-2" d="m652.55,681.05c-20.02-.32-41.11-17.37-61.04-18.39,20.86-6.73,50.72-1.23,61.04,18.39"/>
  <path class="cls-2" d="m660.37,633.02c10.17-3.66,21.33-3.84,32.01-2.18,10.68,1.66,21,5.08,31.25,8.49-1.03-6.95-6.65-12.17-11.94-16.8-3.98-3.48-7.99-6.98-12.55-9.65-4.56-2.66-9.77-4.47-15.05-4.25-6.37.27-12.43,3.56-16.61,8.37-4.18,4.82-6.42,9.66-7.11,16"/>
  <path class="cls-2" d="m619.27,610.91c-12.6-10.76-31.7-9.71-48.27-9.34,25.47,12.18,52.92,28.87,74.85,46.65.67-11.71-10.67-23.72-26.59-37.31Z"/>
  <path class="cls-6" d="m619.27,610.91c-12.6-10.76-31.7-9.71-48.27-9.34,25.47,12.18,52.92,28.87,74.85,46.65.67-11.71-10.67-23.72-26.59-37.31Z"/>
  <path class="cls-2" d="m666.04,596.05c6.34-4.23,12.75-8.25,19.38-11.27,6.63-3.01,12.82-7.82,19.23-11.29,8.31-4.5,15.51-10.75,23.13-16.33,7.63-5.58,16-10.61,25.34-12.09-7.61-1.57-15.56-.71-23.06,1.33-7.5,2.05-14.62,5.25-21.7,8.44-9.83,4.43-19.84,8.97-27.87,16.16-8.04,7.19-15.3,14.29-14.45,25.04"/>
  <path class="cls-10" d="m719.88,681.05s-.23-.07-.63-.27c-.47-.24-1.05-.54-1.75-.91-1.51-.8-3.67-1.99-6.4-3.36-1.35-.71-2.84-1.46-4.47-2.22-1.61-.8-3.35-1.58-5.2-2.38-3.7-1.58-7.83-3.23-12.33-4.3-4.49-1.1-8.96-1.34-12.84-.32-1.96.47-3.8.94-5.44,1.63-1.65.67-3.11,1.45-4.39,2.26-2.57,1.62-4.36,3.33-5.52,4.56-1.16,1.24-1.72,2-1.78,1.96-.02-.01.1-.22.36-.59.25-.38.66-.91,1.21-1.56,1.11-1.3,2.88-3.1,5.45-4.8,1.28-.85,2.77-1.67,4.44-2.38,1.67-.72,3.56-1.23,5.52-1.72,3.97-1.08,8.62-.85,13.16.27,4.57,1.09,8.72,2.77,12.43,4.39,1.85.82,3.6,1.63,5.2,2.45,1.62.79,3.11,1.56,4.44,2.3,2.7,1.43,4.83,2.69,6.3,3.57.67.41,1.23.75,1.68,1.02.38.24.57.38.56.4Z"/>
  <path class="cls-10" d="m637.61,671.13s.46.09,1.25.37c.8.27,1.92.75,3.26,1.42,2.69,1.33,6.24,3.6,9.57,6.78,3.32,3.2,5.73,6.65,7.16,9.29.72,1.32,1.25,2.42,1.55,3.2.31.78.46,1.22.42,1.24-.12.05-.86-1.65-2.4-4.19-1.53-2.54-3.96-5.88-7.22-9.03-3.27-3.13-6.71-5.42-9.31-6.85-2.6-1.44-4.33-2.11-4.28-2.23Z"/>
  <path class="cls-10" d="m593.31,609.9s.3.06.85.25c.62.22,1.42.5,2.4.86,1.07.39,2.33.86,3.79,1.4,1.48.55,3.08,1.36,4.89,2.16,7.21,3.27,16.8,8.78,26.07,16.61,4.57,3.98,8.7,8.02,12.16,11.97,3.44,3.96,6.36,7.68,8.63,10.93,2.29,3.24,4.02,5.94,5.21,7.8.56.88,1.02,1.59,1.37,2.15.31.49.46.76.44.77-.02.01-.21-.22-.56-.69-.35-.47-.86-1.16-1.48-2.08-1.26-1.82-3.06-4.47-5.39-7.66-2.32-3.2-5.26-6.88-8.71-10.79-3.46-3.91-7.59-7.91-12.13-11.86-9.21-7.78-18.7-13.32-25.82-16.7-1.79-.83-3.38-1.66-4.83-2.25-1.43-.58-2.68-1.08-3.73-1.51-.97-.4-1.75-.73-2.35-.98-.54-.23-.81-.36-.8-.39Z"/>
  <path class="cls-10" d="m690.42,621.76s-.58-.03-1.6-.21c-.55-.1-1.16-.21-1.84-.34-.72-.14-1.55-.14-2.46-.24-3.6-.26-8.85.04-13.76,2.72-2.48,1.25-4.56,2.95-6.26,4.65-1.73,1.68-3.04,3.44-4.03,4.98-2.01,3.08-2.63,5.3-2.75,5.25-.04-.01.07-.58.41-1.56.37-.97.94-2.38,1.92-3.96.95-1.6,2.24-3.42,3.99-5.17,1.72-1.76,3.84-3.52,6.4-4.82,5.07-2.76,10.5-2.98,14.14-2.59.92.13,1.77.17,2.48.35.68.17,1.29.32,1.83.46,1,.26,1.55.43,1.54.48Z"/>
  <path class="cls-10" d="m710.54,559.33s-.25.18-.76.47c-.58.31-1.32.72-2.23,1.21-1.94,1.05-4.74,2.59-8.13,4.59-3.38,2.03-7.36,4.52-11.6,7.55-4.22,3.04-8.76,6.56-12.95,10.85-2.07,2.16-3.97,4.41-5.3,6.86-1.31,2.52-2.57,4.95-3.72,7.29-2.32,4.67-4.2,8.97-5.56,12.66-1.36,3.7-2.2,6.77-2.71,8.92-.51,2.14-.7,3.35-.77,3.34-.02,0,0-.31.08-.89.07-.58.19-1.43.42-2.51.42-2.17,1.2-5.29,2.5-9.03,1.31-3.74,3.16-8.08,5.45-12.78,1.14-2.35,2.38-4.8,3.69-7.32,1.38-2.56,3.31-4.84,5.41-7.03,4.24-4.34,8.82-7.87,13.08-10.89,4.28-3.01,8.3-5.47,11.73-7.45,3.44-1.95,6.28-3.43,8.26-4.4.94-.45,1.7-.81,2.3-1.1.53-.24.81-.36.82-.34Z"/>
  <path class="cls-10" d="m654.39,619.96s-.19-.59-.4-1.69c-.23-1.24-.53-2.78-.88-4.63-.76-3.9-1.93-9.27-3.79-15.03-1.84-5.77-4.08-10.79-5.72-14.41-.78-1.71-1.43-3.14-1.95-4.29-.46-1.02-.69-1.59-.64-1.61s.36.51.89,1.49c.53.98,1.28,2.41,2.16,4.19,1.76,3.57,4.09,8.59,5.94,14.4,1.87,5.8,2.97,11.22,3.6,15.16.31,1.97.54,3.57.65,4.67.13,1.11.17,1.72.12,1.73Z"/>
  <path class="cls-2" d="m652.94,574.4c-.5-7.56-2.97-14.92-6.51-21.62-9.72-18.38-27.98-32-48.37-36.07,14.93,22.25,29.85,44.5,44.78,66.74l5.78,11.91c3.95-6.47,4.82-13.4,4.32-20.97Z"/>
  <rect class="cls-14" x="613.05" y="705.93" width="104.13" height="18.46"/>
  <polygon class="cls-14" points="620.83 720.73 629.69 777.99 698.82 777.99 709.4 720.73 620.83 720.73"/>
  <path class="cls-10" d="m717.12,724.41c0,.2-23.49.37-52.45.37s-52.46-.16-52.46-.37,23.48-.37,52.46-.37,52.45.16,52.45.37Z"/>
  <path class="cls-3" d="m542.37,47.19c-.27,0-.55-.01-.83-.04-3.84-.4-7.66-2.63-11.05-6.44-1.54-1.73-3.74-2.72-6.03-2.72h-114.17c-2.53,0-4.96.98-6.86,2.75-3.05,2.86-7.75,6.26-12.82,6.26-6.42,0-11.03-5.72-12.75-11.39l5.44-1.65c.9,2.96,3.59,7.36,7.32,7.36,2.5,0,5.67-1.68,8.93-4.73,2.95-2.76,6.77-4.29,10.74-4.29h114.17c3.91,0,7.66,1.69,10.28,4.63,1.7,1.91,4.36,4.25,7.4,4.57,3.03.32,6.71-6.83,8.17-12.12l5.48,1.51c-.47,1.71-4.74,16.31-13.41,16.31Z"/>
  <rect class="cls-3" x="457.35" width="14.83" height="749.22" transform="translate(929.53 749.22) rotate(180)"/>
  <g>
    <path class="cls-3" d="m405.11,758.26h114.88c0-4.99-4.05-9.04-9.04-9.04h-96.81c-4.99,0-9.04,4.05-9.04,9.04h0Z"/>
    <path class="cls-10" d="m500.14,766.58c0,7.09,5.75,12.84,12.84,12.84s12.84-5.75,12.84-12.84-5.75-12.84-12.84-12.84-12.84,5.75-12.84,12.84Z"/>
    <circle class="cls-10" cx="406.11" cy="766.58" r="12.84" transform="translate(-117.29 74.75) rotate(-9.2)"/>
    <circle class="cls-10" cx="462.55" cy="766.66" r="12.84" transform="translate(-122.96 89.24) rotate(-9.73)"/>
  </g>
  <path class="cls-10" d="m467.37,36.54c0-.27,13.11-.49,29.27-.49s29.28.22,29.28.49-13.11.49-29.28.49-29.27-.22-29.27-.49Z"/>
  <path class="cls-10" d="m467.64,36.4c-.15.24-1.08-.35-.93-1.55.21-1.2,1.28-1.48,1.35-1.21.12.24-.29.73-.37,1.36-.11.62.14,1.21-.05,1.41Z"/>
  <path class="cls-10" d="m457.22,75.21c-.27,0-.49-12.96-.49-28.94s.22-28.95.49-28.95.49,12.96.49,28.95-.22,28.94-.49,28.94Z"/>
  <path class="cls-8" d="m352.5,123.07c.16,2.38.43,4.92,2.06,6.78,2.32,2.64,6.5,2.99,10.21,3.12,12.24.45,24.47.91,36.71,1.36,3.63.13,7.79.08,10.19-2.42,1.72-1.8,4.51-6.43,4.71-8.81,1.93-22.33,1.35-42.75-1.3-65.02-.77-6.43-1.99-13.02-5.75-18.5-3.76-5.48-8.5-9.51-17.72-11.37-17.21-2.57-31.65,2.16-35.43,11.43-3.35,8.2-2.82,15.89-3.28,24.63-1.03,19.59-1.75,39.23-.4,58.8Zm25.46-89.41c.75-1.3,2.98-1.86,3.9-1.63h0c2.12,0,4.14,1.48,4.6,3.37.46,1.89-.67,4.01-2.59,4.84-1.92.84-4.42.32-5.76-1.18-1.34-1.5-1.12-3.68-.14-5.4Z"/>
  <g>
    <path class="cls-9" d="m352.5,123.07c.16,2.38.43,4.92,2.06,6.78,2.32,2.64,6.5,2.99,10.21,3.12,12.24.45,24.47.91,36.71,1.36,3.63.13,7.79.08,10.19-2.42,1.72-1.8,4.51-6.43,4.71-8.81,1.93-22.33,1.35-42.75-1.3-65.02-.77-6.43-1.99-13.02-5.75-18.5-3.76-5.48-8.5-9.51-17.72-11.37-17.21-2.57-31.65,2.16-35.43,11.43-3.35,8.2-2.82,15.89-3.28,24.63-1.03,19.59-1.75,39.23-.4,58.8Zm25.46-89.41c.75-1.3,2.98-1.86,3.9-1.63h0c2.12,0,4.14,1.48,4.6,3.37.46,1.89-.67,4.01-2.59,4.84-1.92.84-4.42.32-5.76-1.18-1.34-1.5-1.12-3.68-.14-5.4Z"/>
    <path class="cls-10" d="m377.96,33.66c.07.04-.1.4-.29,1.08-.17.67-.39,1.71,0,2.84.34,1.12,1.51,2.15,3.05,2.48,1.52.36,3.42-.03,4.51-1.47,1.1-1.35,1.1-3.24.13-4.4-.92-1.2-2.34-1.76-3.5-1.8h-.03s-.06-.01-.06-.01c-1.14-.2-2.28.26-2.88.59-.63.37-.86.73-.93.69-.05-.02.07-.49.71-1.01.65-.47,1.67-1.12,3.28-.96h-.09c1.36-.05,3.05.51,4.21,1.94.58.7.98,1.67.96,2.69,0,1.02-.39,2.04-1.04,2.87-1.36,1.79-3.75,2.22-5.49,1.74-1.79-.42-3.19-1.75-3.51-3.15-.35-1.39.03-2.5.31-3.16.32-.68.6-.98.65-.95Z"/>
    <path class="cls-10" d="m352.5,123.07s-.05-.26-.1-.78c-.05-.57-.11-1.33-.19-2.31-.15-2.03-.33-5.03-.48-8.9-.31-7.74-.35-18.95.17-32.78.22-6.92.72-14.47.92-22.61.16-4.07.51-8.33,1.72-12.56.61-2.09,1.32-4.24,2.62-6.16,1.29-1.9,2.99-3.54,4.95-4.8,3.93-2.55,8.57-3.97,13.35-4.63,4.79-.7,9.75-.61,14.74,0,4.97.66,10.02,2.41,14.13,5.73,4.03,3.35,7.14,7.89,8.83,12.98,1.73,5.08,2.26,10.36,2.83,15.45.56,5.12,1,10.17,1.33,15.14.65,9.95.82,19.57.53,28.73-.14,4.58-.38,9.04-.7,13.37-.09,1.08-.18,2.15-.26,3.22-.03,1.04-.27,2.24-.69,3.21-.83,1.99-1.9,3.79-3.12,5.47-.61.82-1.3,1.66-2.2,2.25-.88.59-1.87.96-2.85,1.2-1.98.48-3.95.48-5.85.44-3.77-.15-7.39-.29-10.85-.43-6.9-.28-13.16-.54-18.65-.76-2.74-.12-5.3-.22-7.65-.32-2.35-.09-4.53-.27-6.42-.81-1.89-.52-3.45-1.51-4.37-2.73-.93-1.22-1.26-2.5-1.46-3.5-.34-2.02-.27-3.1-.27-3.1.02,0,.05.26.11.78.06.52.14,1.29.35,2.28.23.97.58,2.21,1.49,3.36.9,1.15,2.4,2.06,4.25,2.54,1.84.5,3.99.65,6.33.72,2.36.07,4.91.16,7.65.24,5.5.18,11.75.39,18.66.62,3.46.12,7.08.24,10.85.37,1.87.04,3.79.02,5.64-.44.92-.23,1.81-.58,2.59-1.11.78-.52,1.39-1.27,1.99-2.07,1.17-1.61,2.22-3.4,2.99-5.29.4-.98.58-1.87.62-2.97.08-1.06.17-2.13.25-3.21.3-4.32.53-8.76.66-13.33.27-9.13.08-18.72-.58-28.64-.33-4.96-.78-10-1.34-15.1-.57-5.1-1.11-10.3-2.79-15.24-1.63-4.93-4.66-9.32-8.52-12.54-3.91-3.18-8.81-4.89-13.64-5.54-4.88-.61-9.79-.71-14.47-.03-4.68.64-9.21,2.02-12.99,4.46-1.89,1.2-3.5,2.76-4.72,4.54-1.21,1.77-1.92,3.86-2.53,5.91-1.19,4.12-1.55,8.31-1.73,12.35-.23,8.13-.77,15.7-1.04,22.6-.61,13.82-.67,25.01-.48,32.74.09,3.87.21,6.87.29,8.9.04.98.07,1.75.1,2.31.02.52.02.79,0,.79Z"/>
  </g>
  <g class="cls-18">
    <path class="cls-5" d="m363.03,125.11l38.57,1.53c3.48.14,6.45-2.29,6.67-5.47l1.18-48.91h-52.54v47.01c0,3.13,2.7,5.71,6.13,5.84Z"/>
  </g>
  <path class="cls-10" d="m400.85,38.66s.21.17.52.55c.32.38.79.95,1.3,1.75,1.06,1.57,2.41,4,3.54,7.22,1.13,3.21,1.98,7.2,2.49,11.65.51,4.46.73,9.37.95,14.51.39,10.31.27,19.65-.02,26.4-.14,3.37-.32,6.1-.46,7.99-.16,1.88-.27,2.92-.34,2.92-.07,0-.08-1.05-.04-2.94.04-2.06.09-4.75.15-7.99.11-6.74.12-16.06-.27-26.34-.21-5.14-.41-10.04-.86-14.45-.45-4.42-1.22-8.35-2.25-11.53-2.05-6.41-4.91-9.63-4.71-9.74Z"/>
  <path class="cls-10" d="m358.21,87.74c-.13.01-.45-2.08-.75-5.48-.3-3.4-.54-8.12-.52-13.34.03-5.22.31-9.94.64-13.34.33-3.4.67-5.49.8-5.48.14.01.04,2.12-.11,5.52-.15,3.4-.32,8.1-.35,13.29-.02,5.19.11,9.89.23,13.29.12,3.4.2,5.51.06,5.53Z"/>
  <path class="cls-10" d="m364.3,125.79c0-.13,2.53-.16,6.6-.09,4.07.07,9.69.23,15.9.48,3.09.13,6.03.26,8.75.38,2.68.15,5.08.15,7.02-.29,1.94-.42,3.37-1.24,4.22-1.95.86-.71,1.19-1.26,1.26-1.21.05.02-.18.65-1,1.49-.82.83-2.28,1.81-4.31,2.34-2.02.56-4.53.61-7.21.52-2.72-.09-5.66-.2-8.75-.3-6.21-.24-11.82-.52-15.89-.76-4.06-.25-6.57-.47-6.57-.6Z"/>
  <rect class="cls-11" x="365.37" y="97.49" width="32.87" height="10.97" transform="translate(763.6 205.95) rotate(180)"/>
  <path class="cls-10" d="m370.81,102.87c0-.27,4.78-.49,10.68-.49s10.68.22,10.68.49-4.78.49-10.68.49-10.68-.22-10.68-.49Z"/>
  <path class="cls-11" d="m363.54,83.56c.04-.06.62.23,1.65.81,1.03.57,2.5,1.44,4.29,2.55,3.59,2.22,8.45,5.44,13.64,9.25,5.19,3.82,9.71,7.5,12.9,10.26,1.59,1.38,2.86,2.53,3.71,3.34.85.81,1.3,1.29,1.26,1.34-.09.11-2.12-1.53-5.42-4.15-3.29-2.62-7.87-6.21-13.04-10.01-5.17-3.8-9.96-7.1-13.44-9.46-3.48-2.36-5.65-3.82-5.57-3.94Z"/>
  <path class="cls-11" d="m377.86,85.56c.15-.22,3.95,2.09,8.49,5.16,4.54,3.07,8.1,5.75,7.95,5.97-.15.22-3.95-2.09-8.49-5.16-4.54-3.07-8.1-5.75-7.94-5.97Z"/>
  <path class="cls-3" d="m379.64,39.69s-4.84-9.45-5.99-18.21l5.62-.65s3.53,13.32,6.26,17.03l-5.89,1.83Z"/>
  <g>
    <path class="cls-10" d="m370.5,706.46l8.59,72.08-19.49.19-27.67-72.21,38.57-.06Z"/>
    <path class="cls-2" d="m83,355.94c-.19-24.13,18.4-44.32,42.58-46.23,50.45-3.98,132.47-9,173.26-3.56,15.29,2.04,27.63,13.42,30.9,28.42l25.41,116.63,107.35,1.43s33.4-.76,42.78,17.03c9.63,18.26,8.14,49.63,6.15,67.18-1.32,11.68-18.02,170.59-18.02,170.59l-407.65-.63-2.77-350.85Z"/>
    <path class="cls-10" d="m283.24,707.07l-27.31,72.43-19.49-.19,8.52-72.32,38.28.09Z"/>
    <polygon class="cls-10" points="489.4 706.72 495.74 776.59 476.25 776.4 451.85 706.64 489.4 706.72"/>
    <path class="cls-10" d="m130.16,706.52l-27.67,72.6-19.49-.19,8.59-72.47,38.57.06Z"/>
  </g>
  <g>
    <path class="cls-16" d="m350.57,432.13s51.43,11.4,48.76-23.98c-2.67-35.38-32.4-47.06-32.39-74.77.01-27.7,11.85-34.24,32.62-42.82,10.58-4.37,17.55-22.34-3.29-34.51-21.64-12.64-28.78-8.95-26.04-54.09,2.73-45.14,14.69-43.86,12.05-71.23"/>
    <path class="cls-17" d="m352.17,432.44s49.83,11.09,47.16-24.29c-2.67-35.38-32.4-47.06-32.39-74.77.01-27.7,11.85-34.24,32.62-42.82,10.58-4.37,17.55-22.34-3.29-34.51-21.64-12.64-28.78-8.95-26.04-54.09,2.73-45.14,14.69-43.86,12.05-71.23"/>
  </g>
  <path class="cls-2" d="m293.94,593.89c.07.21,11.45-3.4,25.42-8.07,13.97-4.67,25.24-8.62,25.17-8.83-.07-.21-11.45,3.4-25.42,8.07-13.97,4.66-25.24,8.62-25.17,8.83Z"/>
  <path class="cls-15" d="m245.03,524.39l42.86-5.82s82.24-12.61,127.46-18.22c12.7-1.57,24.98-.56,27.78,0,16.61,3.34,27.17,31.55,29.37,56.73,1.11,12.65,2.83,173.22,2.83,173.22l-36.23-.09-17.78-96.37-5.97-61.82-69.2,17.71-90.65-.32c-11.21-8.76-10.47-65.02-10.47-65.02Z"/>
  <path class="cls-2" d="m415.4,547.41s-.07.83.02,2.32c.09,1.49.28,3.64.57,6.29.58,5.3,1.53,12.6,2.69,20.65,1.16,8.05,2.3,15.32,3.19,20.58.44,2.63.83,4.75,1.11,6.21.29,1.46.48,2.27.54,2.26.06,0-.03-.83-.22-2.31-.22-1.62-.51-3.73-.86-6.25-.78-5.42-1.81-12.63-2.96-20.6-1.13-7.97-2.15-15.18-2.92-20.6-.33-2.52-.61-4.62-.83-6.25-.18-1.48-.27-2.29-.33-2.29Z"/>
  <path class="cls-2" d="m404.64,554.16c-.09.03.12,1.21.83,3.02.71,1.81,2,4.2,3.91,6.49,1.92,2.28,4.06,3.97,5.71,4.98,1.66,1.02,2.79,1.43,2.83,1.35.14-.22-4.21-2.36-7.92-6.85-3.77-4.44-5.12-9.09-5.36-8.99Z"/>
  <path class="cls-15" d="m434.4,702.7l5.54,32.42-2.38,14.43-.73,16.41c-.23,5.12,3.57,9.47,8.47,9.71l86.56,2.46c1.22.03,2.37-.65,2.91-1.78,1.25-2.64,2.6-7.53-2.49-10.65-6.03-3.7-56.95-35.4-56.95-35.4l-.72-29.69-40.22,2.09Z"/>
  <path class="cls-10" d="m477.27,779.12s-1.52-25.25,15.68-36.58l1.43-.57s38.57,22.48,41.34,25.86c4.86,5.95,1.27,10.84,1.27,10.84l-59.7.45Z"/>
  <rect class="cls-1" x="430.93" y="773.79" width="48.6" height="3.4"/>
  <path class="cls-15" d="m314.25,445.4s6.19,31.66,19.06,36.81c12.87,5.15,89.21,4.09,89.21,4.09l3.31-22.55-70.43-16.81-7.24-32.51-37.12,2.56,3.21,28.4Z"/>
  <path class="cls-15" d="m410.53,463.16s7.55-2.8,15.64-3.8c8.09-1,24.23.61,25.39.86,1.15.25,16.18,9.21,16.18,9.21l9.77,12.53s-1.7,4.65-5.82-.04c-4.12-4.69-7.43-7.48-7.43-7.48l-10.85-4.25,9.32,7.47,8.32,17.9s-3.25,3.61-6.36,0c-3.11-3.6-8.62-10.16-8.62-10.16l4.69,12.54s-2.06,3.26-4.69.8c-2.63-2.47-4.23-4.44-4.23-4.44,0,0-1.4,4.01-3.92.78-2.52-3.24-5.48-5.55-5.48-5.55l-10.4-3.74s-11.07,1.4-16.07-.37c-5-1.77-5.43-22.26-5.43-22.26Z"/>
  <path class="cls-12" d="m344.89,458.66c-.22,0,.65-3.96,4.05-7.37,3.36-3.45,7.3-4.38,7.31-4.16.11.26-3.49,1.52-6.67,4.79-3.22,3.22-4.43,6.85-4.69,6.74Z"/>
  <path class="cls-15" d="m417.89,469.93c2.4,4.58,7.56,7.56,12.72,7.38,2.86-.1,5.72-1.09,8.52-.5,3.89.82,6.53,4.4,10.03,6.28,1.6.86,3.97,1.18,4.94-.36.65-1.03.31-2.39-.13-3.53-2.65-6.83-8.49-12.34-15.47-14.58"/>
  <path class="cls-12" d="m438.51,464.62s.24.02.67.14c.44.11,1.06.33,1.86.65,1.58.64,3.8,1.8,6.17,3.77,2.35,1.96,4.81,4.79,6.56,8.48.4.93.88,1.86,1.07,3,.09.56.1,1.18-.11,1.78-.21.6-.66,1.14-1.24,1.43-1.18.6-2.47.4-3.59.02-1.16-.42-2.11-1.1-3.06-1.79-1.89-1.4-3.53-2.95-5.39-3.96-1.84-1.06-3.88-1.26-5.84-1.02-1.96.2-3.86.62-5.7.55-1.84-.04-3.51-.49-4.94-1.07-2.88-1.2-4.72-3.03-5.75-4.38-.52-.68-.86-1.26-1.06-1.66-.2-.4-.29-.62-.26-.64.07-.04.5.8,1.59,2.08,1.09,1.25,2.93,2.94,5.72,4.01,1.38.52,2.98.91,4.72.92,1.73.04,3.58-.39,5.6-.63,1.01-.11,2.08-.16,3.18-.01,1.09.16,2.17.54,3.17,1.08,2,1.07,3.67,2.66,5.5,4.01.91.66,1.86,1.32,2.83,1.67.97.35,2.09.46,2.88.04.82-.4,1.1-1.37.92-2.31-.14-.95-.59-1.88-.97-2.79-1.65-3.59-3.98-6.38-6.22-8.35-4.56-3.96-8.39-4.84-8.28-5.03Z"/>
  <polygon class="cls-3" points="336.4 434.42 351.07 427.52 353.11 436.64 338.8 443.6 336.4 434.42"/>
  <path class="cls-15" d="m198.8,524.04l33.69-10.8s86.45-8.73,131.67-14.34c12.7-1.57,21.79.04,24.59.6,16.61,3.34,22.2,23.29,25.05,35.66,2.85,12.38,7.61,198.23,7.61,198.23l-38.75,2.58-19.69-74.65c-5.03-17.09-8.21-34.67-9.49-52.44l-2.12-29.42-57.86,11.22-81.88-.62c-11.21-8.76-12.81-66.05-12.81-66.05Z"/>
  <path class="cls-2" d="m347.28,550.34s-.07.83.02,2.32c.09,1.49.28,3.64.57,6.29.58,5.3,1.53,12.6,2.69,20.65,1.16,8.05,2.31,15.32,3.19,20.58.44,2.63.83,4.75,1.11,6.21.29,1.46.48,2.27.54,2.26.06-.01-.03-.83-.22-2.31-.22-1.63-.51-3.73-.86-6.25-.78-5.42-1.81-12.63-2.96-20.6-1.13-7.97-2.15-15.18-2.92-20.6-.33-2.52-.61-4.62-.83-6.25-.18-1.48-.27-2.29-.33-2.29Z"/>
  <path class="cls-2" d="m336.53,557.09c-.09.03.12,1.21.83,3.02.71,1.81,2,4.2,3.91,6.49,1.92,2.28,4.06,3.97,5.71,4.98,1.66,1.02,2.79,1.43,2.83,1.35.14-.22-4.21-2.36-7.92-6.85-3.77-4.44-5.12-9.09-5.37-8.99Z"/>
  <path class="cls-15" d="m375.53,701.87l7.53,35.98-1.15,17.77-.76,10.35c-.23,5.12,3.57,9.47,8.47,9.71l86.35,1.84c1.22.03,3.18-1.42,3.73-2.56,1.26-2.64,1.99-6.13-3.1-9.25-6.03-3.7-55.18-32.31-55.18-32.31l-1.62-32.96-44.27,1.43Z"/>
  <path class="cls-10" d="m421.42,778.73s-2.41-25.38,14.79-36.71l1.42-.57s38.57,22.48,41.34,25.86c4.86,5.95,1.64,11.81,1.64,11.81l-59.19-.39Z"/>
  <rect class="cls-10" x="374.2" y="773.27" width="48.6" height="5.86"/>
  <path class="cls-10" d="m480.24,778.15c-.07-.02.15-.83.32-2.32.13-1.46.22-3.73-.94-6.11-.57-1.17-1.46-2.33-2.68-3.28-1.22-.93-2.7-1.81-4.2-2.78-3.05-1.9-6.38-3.98-9.87-6.16-6.93-4.33-13.19-8.25-17.93-11.22-2.16-1.39-3.97-2.56-5.39-3.47-1.26-.84-1.95-1.32-1.91-1.38.03-.05.78.33,2.1,1.08,1.46.85,3.32,1.93,5.54,3.23,4.65,2.76,11.05,6.64,18.07,11,3.51,2.18,6.84,4.28,9.84,6.22,1.5.99,2.94,1.87,4.22,2.89,1.28,1.03,2.21,2.31,2.79,3.58,1.16,2.59.94,4.94.71,6.42-.13.75-.29,1.33-.42,1.71-.13.38-.21.57-.24.57Z"/>
  <path class="cls-14" d="m339.57,499.67l-22.11-32.05c4.47-24.07,9.13-33.88,11.57-45.84,6.6-33.47-6.88-70.48-6.88-70.48l-6.64-31.33-28-8.53-38.57-.9-37.01,6.62-11.26,133.33c-7.28,42.04-1.58,67.25-1.86,73.57l140.76-24.37Z"/>
  <path class="cls-14" d="m208.16,590.55l136.32.11-.84,16.98s18.74,12,48.84,8.19c22.17-2.81,51.43-11.79,65.3-16.32,5.22-1.71,10.86-1.57,16,.37l8.16,3.09-9.81-66.07s-7.54-42.26-43.1-40.86c-35.57,1.4-36.34,4.43-36.34,4.43,0,0-9.19-5.89-22.09-5.54-12.9.35-172.09,11.23-172.09,11.23-.77,33.91-.96,63.62,9.66,84.4Z"/>
  <path class="cls-10" d="m342.79,499.05c.05.24-16.43,3.62-36.79,7.54-20.37,3.92-36.92,6.9-36.97,6.66-.05-.24,16.42-3.62,36.8-7.54,20.36-3.92,36.92-6.9,36.96-6.65Z"/>
  <path class="cls-10" d="m425.62,594s-.12-.35-.26-1.03c-.15-.77-.34-1.76-.57-2.97-.47-2.7-1.13-6.41-1.92-10.95-1.56-9.36-3.67-22.1-6.01-36.17-1.14-7.06-2.43-13.76-4.5-19.57-2.02-5.83-4.9-10.66-7.94-14.18-3.03-3.54-6.16-5.74-8.44-7-2.28-1.26-3.68-1.7-3.64-1.79.01-.03.36.07,1.02.29.66.21,1.61.59,2.79,1.19,2.35,1.18,5.6,3.34,8.75,6.89,3.15,3.53,6.15,8.43,8.24,14.32,2.15,5.88,3.47,12.64,4.61,19.7,2.24,14.09,4.26,26.84,5.75,36.21.68,4.55,1.24,8.28,1.64,10.99.16,1.22.3,2.22.4,3,.08.69.11,1.05.08,1.05Z"/>
  <path class="cls-14" d="m315.51,319.96s13.63,1.57,23.29,20.54c9.66,18.98,22.95,72.85,22.95,72.85l-48.92,3.93,2.68-97.32Z"/>
  <path class="cls-10" d="m325.62,429.81c-.21-.07,1.49-3.98,2.42-10.71.53-3.35.69-7.4.67-11.87-.08-4.49-.5-9.41-1.16-14.55-1.39-10.28-3.45-19.47-4.92-26.12-.7-3.22-1.28-5.87-1.72-7.88-.39-1.87-.58-2.9-.52-2.92.06-.01.36,1,.86,2.84.49,1.84,1.19,4.51,2,7.82,1.62,6.62,3.79,15.81,5.19,26.14.66,5.17,1.06,10.13,1.1,14.66-.03,4.52-.25,8.61-.86,11.98-.14.84-.27,1.64-.4,2.41-.19.74-.37,1.45-.54,2.11-.32,1.32-.62,2.45-1,3.34-.66,1.8-1.06,2.77-1.11,2.75Z"/>
  <path class="cls-10" d="m336.33,574.15c.22-.11,2.53,4.1,5.14,9.4,2.62,5.31,4.56,9.69,4.34,9.8-.22.11-2.52-4.1-5.14-9.41-2.62-5.3-4.56-9.69-4.34-9.8Z"/>
  <path class="cls-7" d="m312.83,590.55s-2.16-62.3-8.8-82.14c-6.64-19.84-40.23-31.66-40.23-31.66l-14.1,7.05,36.29,106.6,26.83.14Z"/>
  <path class="cls-7" d="m397.31,502.69s14.26-.62,20.58,13.58c6.32,14.2,21.92,88.79,21.92,88.79l-13.98,3.88-10.02-72.28s-.16-20.32-18.5-33.97Z"/>
  <polygon class="cls-7" points="208.85 443.6 214.24 422.09 221.58 422.09 229.37 371.74 211.37 407.67 203.45 443.6 208.85 443.6"/>
  <path class="cls-14" d="m213.62,316.84s-24.11,1.88-34.32,28.31c-8.69,22.51-23.83,56.2-23.83,56.2l60.71,16.08s12.66-40.76,17.31-64.97c4.04-21-17.58-33.33-19.86-35.61Z"/>
  <path class="cls-15" d="m166.23,404.2s-11.1,34.21-10.42,53.29c0,.19.01.38.02.57.63,13.99,12.29,24.93,26.29,24.93h105.25l-4.66-25.39-78.18-15.73,5.55-26.06-43.84-11.61Z"/>
  <path class="cls-12" d="m191.62,450.94c-.21-.06,1.54-3.77,5.62-6.47,4.06-2.74,8.15-2.95,8.12-2.73.06.27-3.78.86-7.63,3.47-3.88,2.56-5.89,5.88-6.12,5.72Z"/>
  <path class="cls-15" d="m282.71,457.6s9.6,1.79,18.65,5.79c9.05,4,24.84,15.74,25.89,16.72,1.05.97,11.09,19.67,11.09,19.67l2.36,19.14s-7.19,2.89-8.55-4.55c-1.36-7.44-2.58-11.96-2.58-11.96l-6.62-10.76,3.53,11.68-.98,22.02s-5.63,1.73-6.62-3.96c-.99-5.69-2.64-12.25-2.64-12.25l-2.93,15.98s-4.18,2.11-5.38-2.1c-1.2-4.21-1.64-7.26-1.64-7.26,0,0-3.96,3.3-4.57-1.64-.61-4.94-2.24-9.2-2.24-9.2l-8.5-10.38s-12.4-5.45-16.49-10.4c-4.1-4.96,8.22-26.55,8.22-26.55Z"/>
  <path class="cls-12" d="m297.4,488.57c.07-.08,1.52.96,3.68,2.87,1.08.96,2.33,2.16,3.58,3.63,1.22,1.48,2.48,3.26,3.16,5.47.99,4.41.88,8.46.34,11.34-.27,1.43-.66,2.56-.99,3.3-.33.75-.59,1.12-.64,1.09-.15-.06.64-1.68,1-4.5.38-2.78.36-6.82-.57-10.98-.62-2.01-1.79-3.73-2.94-5.2-1.17-1.46-2.36-2.68-3.37-3.69-2.04-2.01-3.34-3.23-3.25-3.34Z"/>
  <path class="cls-12" d="m308.48,485.98c.09-.07,1.11.97,2.53,2.85,1.41,1.88,3.23,4.63,4.57,8.01.66,1.69,1.11,3.38,1.36,4.93.21,1.56.27,3,.14,4.18-.23,2.38-.86,3.74-.93,3.71-.16-.04.24-1.45.3-3.75.05-1.15-.07-2.52-.32-4.01-.29-1.49-.74-3.1-1.38-4.74-1.3-3.27-2.99-6.02-4.26-7.97-1.27-1.95-2.11-3.13-2.01-3.22Z"/>
  <path class="cls-10" d="m155.47,401.35s.42.06,1.22.23c.86.2,2.02.47,3.49.82,3.11.76,7.51,1.85,13.01,3.2,11.14,2.81,26.68,6.74,44.58,11.26l-.53.34c1.4-6.83,3.29-13.99,5.14-21.43,2.9-11.55,5.8-22.52,8.12-32.55,1.1-5.01,1.67-9.88,1.61-14.43-.06-4.55-.84-8.77-2.21-12.38-2.81-7.26-7.91-11.61-11.73-13.51-3.9-1.94-6.43-1.91-6.39-2.05,0-.02.15,0,.45.02.29.03.73.06,1.3.16,1.13.21,2.81.61,4.79,1.56,3.93,1.84,9.21,6.19,12.17,13.59,1.44,3.67,2.27,7.97,2.36,12.6.09,4.63-.46,9.55-1.55,14.62-2.28,10.08-5.15,21.05-8.06,32.6-1.85,7.42-3.75,14.62-5.16,21.37l-.1.46-.44-.11c-17.87-4.64-33.38-8.67-44.5-11.56-5.47-1.46-9.85-2.62-12.94-3.45-1.45-.4-2.6-.72-3.46-.96-.78-.23-1.19-.36-1.18-.38Z"/>
  <g>
    <path class="cls-2" d="m97.68,348.4s10.67-5.2,13.2,9.28c2.54,14.48,20.05,120.64,20.05,120.64l108.87-.86s38.05-4.04,53.66,35.26c10.92,27.49,7.01,124.33,7.01,124.33l-2.06,67.7-196.86-.03s-6.08-141.9-7.1-205c-1.02-63.1-3.18-131.92,3.21-151.33Z"/>
    <path class="cls-10" d="m301.56,706.99c-.25,0-.45-31.39-.45-70.09s.2-70.1.45-70.1.45,31.38.45,70.1-.2,70.09-.45,70.09Z"/>
    <path class="cls-10" d="m234.11,706.99c-.25,0-.45-46.95-.45-104.84s.2-104.85.45-104.85.45,46.94.45,104.85-.2,104.84-.45,104.84Z"/>
  </g>
  <path class="cls-10" d="m232.04,293.74c-7.39,2.45-13.28,8.96-14.98,16.56-1.29,5.76.38,12.82,5.71,15.35,3.15,1.49,6.86,1.1,10.23.2,5.27-1.4,10.34-4.04,13.85-8.22,3.5-4.18,5.24-10.02,3.75-15.26-1.16-4.05-4.23-7.52-8.12-9.15-3.89-1.63-8.51-1.4-12.22.62"/>
  <path class="cls-10" d="m238.55,275.91c-1.78-1.74-4.19-3.62-6.5-2.7-1.1.43-1.87,1.42-2.5,2.42-4.2,6.57-4.52,15.44-.79,22.3,3.73,6.86,11.34,11.42,19.14,11.47l3.53-20.94c-4.29-4.18-8.58-8.36-12.88-12.55Z"/>
  <path class="cls-10" d="m330.77,255.34c-.93-6.67-3.12-13.08-4.7-19.62-1.88-7.79-2.89-15.78-5.21-23.45-2.31-7.67-6.12-15.18-12.43-20.12-6.31-4.93-19.28-10.07-35.46-1.38l-10.45,13.85c9.52,29.05,23.34,56.69,40.88,81.73.97,1.38,2.06,2.85,3.67,3.36,2.22.7,4.52-.63,6.47-1.91,5.41-3.55,11.01-7.29,14.29-12.87,3.41-5.8,3.86-12.93,2.93-19.59Z"/>
  <path class="cls-15" d="m254.98,209.45l28.01-11.29,7.33.82c16.49-.02,27.96,18.12,28.13,31.48.19,14.84-.16,32.97-2.47,43.92-4.64,22.02-21.79,23.99-21.79,23.99,0-.03.2,6.01.38,13.4.32,13.27-10.51,24.13-23.78,23.86h0c-12.65-.26-22.79-10.56-22.84-23.22l-.35-95.39c.12-4.06,3.33-7.34,7.38-7.57Z"/>
  <path class="cls-10" d="m309.85,246.67c-.02,1.51-1.32,2.73-2.89,2.73-1.57,0-2.83-1.21-2.81-2.71.02-1.51,1.32-2.73,2.89-2.74,1.57,0,2.83,1.21,2.81,2.72Z"/>
  <path class="cls-10" d="m312.6,238.04c-.37.35-2.45-1.35-5.51-1.5-3.06-.19-5.39,1.27-5.7.88-.16-.17.24-.83,1.25-1.49,1-.66,2.68-1.27,4.59-1.17,1.91.11,3.48.89,4.36,1.65.91.77,1.19,1.46,1.01,1.62Z"/>
  <path class="cls-10" d="m293.89,262.01c0-.17,1.91-.41,5.02-.65.79-.04,1.53-.16,1.69-.69.21-.56-.07-1.42-.41-2.34-.64-1.93-1.31-3.95-2.02-6.07-2.79-8.64-4.76-15.73-4.41-15.84.35-.11,2.89,6.81,5.68,15.45.67,2.13,1.31,4.16,1.92,6.1.25.9.71,1.94.25,3.09-.24.57-.84.97-1.34,1.08-.51.13-.95.11-1.34.12-3.11.01-5.04-.07-5.04-.25Z"/>
  <path class="cls-12" d="m294.19,298.37s-14.98.21-29.33-9.42c0,0,7.15,15.78,29.47,14.82l-.14-5.4Z"/>
  <path class="cls-10" d="m311.76,226.44c-.57.67-2.65-.16-5.18-.32-2.53-.25-4.71.23-5.17-.52-.2-.36.17-1.04,1.15-1.66.96-.61,2.53-1.07,4.27-.93,1.74.14,3.22.85,4.07,1.61.86.76,1.12,1.49.86,1.82Z"/>
  <path class="cls-10" d="m276.75,246.49c-.07,1.51,1.14,2.81,2.71,2.91,1.57.1,2.9-1.03,2.97-2.53.07-1.5-1.14-2.81-2.71-2.91-1.57-.1-2.9,1.03-2.97,2.53Z"/>
  <path class="cls-10" d="m271.72,237.68c.35.38,2.53-1.19,5.6-1.15,3.06,0,5.3,1.61,5.63,1.24.17-.16-.19-.84-1.16-1.57-.96-.72-2.59-1.43-4.5-1.45-1.91-.01-3.53.67-4.46,1.38-.95.71-1.28,1.38-1.11,1.55Z"/>
  <path class="cls-10" d="m272.59,224.53c.53.7,2.65,0,5.19,0,2.54-.09,4.69.53,5.19-.19.22-.35-.11-1.05-1.04-1.72-.92-.67-2.46-1.23-4.21-1.19-1.75.03-3.27.65-4.16,1.35-.91.7-1.21,1.42-.98,1.76Z"/>
  <path class="cls-10" d="m281.28,197.02l-1.52-1.22c-7.09-2.86-17.94-1.89-24.03,2.73-6.09,4.63-9.89,11.86-11.28,19.38-.7,3.77-.57,8.44-.03,13.1-.05-.02-.09-.04-.14-.06-4.28-1.33-9.5-17.5-12.89-4.93-2.79,10.33-6.03,31.23-3.21,41.55,2.82,10.32,10.04,19.99,19.71,24.56.57-16.22,1.51-31.28,2.08-47.5.05-1.54.08-3.1-.03-4.63,10.52-13.83,21.24-29.22,31.36-42.99Z"/>
  <path class="cls-10" d="m285.18,189.08l-.88,1.44c-3.95-3.57-9.7-4.92-15.03-4.29-5.89.71-11.34,3.52-16.23,6.89-9.12,6.27-16.95,14.84-20.81,25.21-3.87,10.37-9.98,62.73,13.99,62.72,0,0,8.38-8.16,13.36-22.52,1.96-5.65,3.84-19.48,7-24.55,7.64-12.25,12.21-23.51,17.82-36.25l2.03.34s30.18,22.68,34.06,44.36c0,0,3.59-58.84-35.31-53.36Z"/>
  <path class="cls-12" d="m288.22,266.67c-.55-.09-2.12-.34-2.65-.17-.91.28-.43,1.37-.8,2.25-.48,1.14-.83,2.33-1.06,3.55-.12.64-.19,1.32.08,1.91.46,1,1.72,1.33,2.82,1.3,1.96-.04,3.46.2,4.85-1.18,1.39-1.38,1.99-4.25,2.71-6.33l.05-.36c-2-.32-4-.64-6.01-.96Z"/>
  <path class="cls-10" d="m291.13,274.77c.06.07-.15.41-.76.72-.6.31-1.54.56-2.71.61-1.17.09-2.78-.21-4.04-1.49-.67-.7-.89-1.78-.8-2.68.08-.92.36-1.77.63-2.57.43-1.1.89-2.17,1.31-3.15l.21-.5.54.1c2.62.48,4.73,1.03,6.31,1.27,1.56.28,2.5.43,2.5.6,0,.16-.96.33-2.59.29-1.62,0-3.93-.4-6.45-.77l.75-.4c-.38.96-.78,1.97-1.2,3.02-.57,1.58-.93,3.1-.21,3.9.37.44.92.78,1.45,1,.54.23,1.04.3,1.59.34,2.17.21,3.35-.41,3.46-.29Z"/>
  <path class="cls-2" d="m247.4,284.52s-.32.15-.93.3c-.31.07-.68.18-1.13.23-.49.04-.99.08-1.53.12-2.25.11-5.57-.69-8.23-3.01-2.69-2.28-4.19-5.15-5.06-7.21-.87-2.09-1.13-3.46-1.06-3.49.11-.04.56,1.28,1.53,3.27.97,1.97,2.51,4.7,5.07,6.86,2.53,2.2,5.58,3.02,7.76,3.05.52,0,1.01,0,1.49-.01.44-.02.81-.09,1.12-.11.62-.06.97-.07.98-.02Z"/>
  <path class="cls-2" d="m242.12,307.6s-.29.13-.84.22c-.54.08-1.35.17-2.36.05-1.01-.11-2.16-.55-3.32-1.14-.58-.29-1.18-.62-1.79-.97-.59-.34-1.29-.7-1.88-1.21-2.37-2.05-3.46-4.71-4.07-6.56-.59-1.9-.62-3.14-.53-3.15.12-.02.33,1.17,1.02,2.97.71,1.76,1.86,4.28,4.04,6.17.53.47,1.15.79,1.77,1.15.6.34,1.18.67,1.75.99,1.12.61,2.16,1.06,3.09,1.23,1.87.31,3.11.1,3.11.25Z"/>
  <path class="cls-2" d="m228.77,246.81s.25-.14.74-.34c.57-.22,1.29-.5,2.17-.84.95-.34,2.1-.79,3.4-1.4,1.3-.6,2.82-1.19,4.41-2.07.8-.41,1.64-.85,2.51-1.3.87-.46,1.73-1.01,2.65-1.54,1.85-1.03,3.7-2.34,5.68-3.67,3.86-2.79,7.91-6.13,11.78-10.04,3.83-3.95,7.08-8.07,9.78-12,1.28-2.01,2.55-3.88,3.54-5.76.51-.93,1.05-1.8,1.48-2.68.43-.88.84-1.73,1.24-2.54.84-1.6,1.4-3.13,1.97-4.45.58-1.31,1-2.47,1.32-3.43.32-.89.59-1.61.8-2.19.19-.5.3-.76.33-.75.02,0-.04.28-.18.79-.18.59-.4,1.33-.67,2.24-.28.97-.66,2.16-1.21,3.49-.53,1.34-1.07,2.89-1.88,4.52-.39.82-.79,1.69-1.21,2.58-.43.89-.96,1.78-1.46,2.72-.98,1.9-2.23,3.81-3.51,5.84-2.69,3.98-5.96,8.15-9.82,12.13-3.9,3.94-8,7.3-11.91,10.08-2,1.32-3.88,2.62-5.76,3.64-.93.52-1.8,1.07-2.69,1.52-.89.44-1.74.86-2.55,1.26-1.61.85-3.15,1.41-4.48,1.98-1.32.58-2.49.98-3.46,1.29-.9.29-1.64.53-2.22.72-.51.16-.78.23-.79.2Z"/>
  <path class="cls-2" d="m266.44,231.05s-.38.48-1.16,1.25c-.77.78-1.95,1.84-3.44,3.11-2.98,2.54-7.35,5.78-12.54,8.77-5.2,2.98-10.2,5.12-13.89,6.43-1.85.65-3.36,1.13-4.42,1.41-1.06.29-1.65.42-1.66.37-.01-.05.55-.28,1.57-.65,1.03-.36,2.51-.91,4.32-1.63,3.63-1.42,8.55-3.62,13.71-6.58,5.15-2.97,9.52-6.12,12.58-8.54,1.53-1.21,2.75-2.21,3.58-2.92.84-.7,1.32-1.07,1.35-1.04Z"/>
  <path class="cls-2" d="m327.72,242c-.06.01-.32-.94-.85-2.66-.52-1.71-1.36-4.17-2.6-7.12-2.46-5.89-6.88-13.68-13.56-20.81-6.7-7.12-13.65-12.67-18.65-16.67-2.45-1.94-4.47-3.53-5.97-4.71-.64-.52-1.18-.95-1.61-1.3-.36-.3-.55-.47-.53-.49.02-.02.23.11.62.37.46.32,1.01.71,1.69,1.19,1.46,1.05,3.56,2.58,6.12,4.53,5.1,3.9,12.12,9.4,18.87,16.57,6.75,7.2,11.15,15.13,13.51,21.11,1.19,2.99,1.96,5.49,2.4,7.24.24.87.36,1.56.47,2.02.09.46.13.71.11.72Z"/>
</svg>