<?xml version="1.0" encoding="UTF-8"?>
<svg xmlns="http://www.w3.org/2000/svg" xmlns:xlink="http://www.w3.org/1999/xlink" viewBox="0 0 799.48 595.79">
  <defs>
    <style>
      .cls-1, .cls-2, .cls-3, .cls-4, .cls-5, .cls-6, .cls-7, .cls-8, .cls-9, .cls-10, .cls-11, .cls-12, .cls-13, .cls-14, .cls-15, .cls-16, .cls-17, .cls-18, .cls-19, .cls-20, .cls-21, .cls-22, .cls-23, .cls-24, .cls-25, .cls-26, .cls-27 {
        stroke-width: 0px;
      }

      .cls-1, .cls-15, .cls-16, .cls-17, .cls-21 {
        fill: #024873;
      }

      .cls-1, .cls-28 {
        opacity: .3;
      }

      .cls-2, .cls-14, .cls-25, .cls-26 {
        fill: #fff;
      }

      .cls-2, .cls-20 {
        opacity: .4;
      }

      .cls-3, .cls-19, .cls-24 {
        fill: #007cff;
      }

      .cls-4, .cls-16, .cls-24 {
        opacity: .5;
      }

      .cls-4, .cls-27 {
        fill: #bfd6d9;
      }

      .cls-5 {
        fill: #ececec;
      }

      .cls-6 {
        fill: #ff8b7b;
      }

      .cls-29 {
        isolation: isolate;
      }

      .cls-7, .cls-17, .cls-19, .cls-26 {
        opacity: .3;
      }

      .cls-8 {
        fill: #f5f5f5;
      }

      .cls-9 {
        fill: #f0f0f0;
      }

      .cls-10 {
        fill: none;
      }

      .cls-11, .cls-15, .cls-25 {
        opacity: .2;
      }

      .cls-12 {
        fill: #1a2e35;
      }

      .cls-13, .cls-20, .cls-22 {
        fill: #e7e7e7;
      }

      .cls-18 {
        fill: #fafafa;
      }

      .cls-30 {
        clip-path: url(#clippath);
      }

      .cls-22 {
        mix-blend-mode: multiply;
        opacity: .7;
      }

      .cls-23 {
        fill: #ff5551;
      }
    </style>
    <clipPath id="clippath">
      <path class="cls-10" d="m332.35,359.51c.69,15.76-24.19,52.2,6.52,73.33,3.61,31.84,8.13,63.18,16.62,115.38h160.29c-6.59-45.16-5.16-96.61,16.05-198.21,4.92-23.56-11.65-46.18-35.59-48.59-6.4-.64-13.17-1.18-20.11-1.52-26.97-1.3-49.07-2.16-72.79,0-7.86.72-15.98,1.71-23.74,2.8-28,3.93-48.49,28.56-47.25,56.81Z"/>
    </clipPath>
  </defs>
  <g class="cls-29">
    <g id="Capa_1" data-name="Capa 1">
      <g>
        <g>
          <rect class="cls-5" y="523.58" width="799.48" height=".4"/>
          <rect class="cls-5" x="666.42" y="549.31" width="52.96" height=".4"/>
          <rect class="cls-5" x="515.71" y="553.65" width="13.9" height=".4"/>
          <rect class="cls-5" x="634.13" y="534.46" width="30.69" height=".4"/>
          <rect class="cls-5" x="83.88" y="537.15" width="69.06" height=".4"/>
          <rect class="cls-5" x="167.18" y="537.15" width="10.13" height=".4"/>
          <rect class="cls-5" x="210.22" y="543.9" width="149.78" height=".4"/>
          <path class="cls-5" d="m378.98,452.26H70.22c-5.03,0-9.13-4.09-9.13-9.13V9.13c0-5.03,4.09-9.13,9.13-9.13h308.76c5.03,0,9.13,4.09,9.13,9.13v434.01c0,5.03-4.09,9.13-9.13,9.13ZM70.22.4c-4.81,0-8.73,3.91-8.73,8.73v434.01c0,4.81,3.91,8.73,8.73,8.73h308.76c4.81,0,8.73-3.91,8.73-8.73V9.13c0-4.81-3.91-8.73-8.73-8.73H70.22Z"/>
          <path class="cls-5" d="m724.83,452.26h-308.76c-5.03,0-9.13-4.09-9.13-9.13V9.13c0-5.03,4.09-9.13,9.13-9.13h308.76c5.03,0,9.13,4.09,9.13,9.13v434.01c0,5.03-4.09,9.13-9.13,9.13ZM416.07.4c-4.81,0-8.73,3.91-8.73,8.73v434.01c0,4.81,3.91,8.73,8.73,8.73h308.76c4.81,0,8.73-3.91,8.73-8.73V9.13c0-4.81-3.91-8.73-8.73-8.73h-308.76Z"/>
        </g>
        <g>
          <path class="cls-13" d="m578.19,313.74h13.9c-.09-9.63.05-34.05.98-90.03,1.69-101.46,4.92-107.64,4.92-107.64l-16.52,50.07c-3.89,11.78-6.22,24.04-6.78,36.43-1.75,39.03,5.07,70.21,3.48,111.16Z"/>
          <path class="cls-13" d="m567.64,151.05c-18.54-28.06-55.56-42.7-93.39-56.49-14.85-5.41,26.84,61.73,57.14,92.17,23.54,23.64,46.3,23.12,53.14,46.49,1.31-27.13-.92-57.99-16.9-82.17Z"/>
          <path class="cls-13" d="m588.87,133.03c14.53-32.81,51.26-75.37,92.53-105.36,16.21-11.77-23.78,89.28-51.99,130.68-21.96,32.24-42.45,51.86-45.64,74.86-13.84-28.77-9.44-67.37,5.09-100.18Z"/>
          <g>
            <path class="cls-9" d="m587.5,344.08h0c-16.31,0-29.79-12.73-30.73-29.01l-2.72-27.83h66.9l-2.72,27.83c-.94,16.29-14.42,29.01-30.73,29.01Z"/>
            <polygon class="cls-9" points="625.28 287.39 549.72 287.39 547.55 277.5 627.44 277.5 625.28 287.39"/>
            <polygon class="cls-9" points="621.56 304.34 553.44 304.34 551.49 294.45 623.51 294.45 621.56 304.34"/>
          </g>
        </g>
        <g>
          <rect class="cls-13" x="122.71" y="46.1" width="355.53" height="226.89" transform="translate(600.94 319.08) rotate(180)"/>
          <rect class="cls-9" x="114.01" y="46.1" width="360.17" height="226.89" transform="translate(588.18 319.08) rotate(180)"/>
          <rect class="cls-13" x="122.71" y="272.99" width="355.53" height="16.17" transform="translate(600.94 562.14) rotate(180)"/>
          <path class="cls-9" d="m107.6,272.99h344c4.46,0,8.08,3.62,8.08,8.08h0c0,4.46-3.62,8.08-8.08,8.08H107.6c-4.46,0-8.08-3.62-8.08-8.08h0c0-4.46,3.62-8.08,8.08-8.08Z"/>
          <rect class="cls-18" x="192.82" y="-8.36" width="202.53" height="335.81" transform="translate(453.63 -134.55) rotate(90)"/>
          <polygon class="cls-14" points="438.69 260.81 367.2 58.28 333.46 58.28 404.94 260.81 438.69 260.81"/>
          <path class="cls-9" d="m456.35,192.09c-.48,0-.87-.39-.87-.87v-125.02c0-.48.39-.87.87-.87s.87.39.87.87v125.02c0,.48-.39.87-.87.87Z"/>
          <polygon class="cls-14" points="397.7 260.81 326.21 58.28 313.05 58.28 384.54 260.81 397.7 260.81"/>
          <polygon class="cls-14" points="325.33 260.81 253.84 58.28 220.09 58.28 291.58 260.81 325.33 260.81"/>
          <polygon class="cls-14" points="235.62 260.81 164.13 58.28 150.98 58.28 222.46 260.81 235.62 260.81"/>
          <rect class="cls-13" x="25.69" y="158.77" width="202.53" height="1.55" transform="translate(286.5 32.58) rotate(90)"/>
          <polygon class="cls-20" points="111.13 78.44 466.66 78.44 467.78 63.01 112.25 63.01 111.13 78.44"/>
          <polygon class="cls-20" points="111.13 89.74 466.66 89.74 467.78 74.31 112.25 74.31 111.13 89.74"/>
          <polygon class="cls-20" points="111.13 103.29 466.66 103.29 467.78 87.86 112.25 87.86 111.13 103.29"/>
          <polygon class="cls-20" points="111.13 118.37 466.66 118.37 467.78 102.94 112.25 102.94 111.13 118.37"/>
          <polygon class="cls-20" points="111.13 136.45 466.66 136.45 467.78 121.01 112.25 121.01 111.13 136.45"/>
          <polygon class="cls-20" points="111.13 156.78 466.66 156.78 467.78 141.34 112.25 141.34 111.13 156.78"/>
        </g>
        <g>
          <circle class="cls-8" cx="138.12" cy="469.33" r="54.24" transform="translate(-71.14 27.11) rotate(-8.92)"/>
          <path class="cls-22" d="m135.05,427.61c-4.65-.2-8.34-2.2-8.24-4.47.1-2.27,3.94-3.96,8.59-3.76,4.65.2,8.34,2.2,8.24,4.47s-3.94,3.96-8.59,3.76Z"/>
          <path class="cls-22" d="m111.73,435.79c-3.91,2.52-8.08,3-9.31,1.09-1.23-1.91.94-5.51,4.86-8.02,3.91-2.52,8.08-3,9.31-1.09,1.23,1.91-.94,5.51-4.86,8.02Z"/>
          <path class="cls-22" d="m128.13,446.3c-4.24,1.91-8.63,1.35-9.8-1.25-1.17-2.6,1.31-6.26,5.55-8.17,4.24-1.91,8.63-1.35,9.8,1.25,1.17,2.6-1.31,6.26-5.55,8.17Z"/>
        </g>
        <g>
          <rect class="cls-13" x="205.19" y="344.08" width="67.37" height="179.49" transform="translate(477.74 867.65) rotate(180)"/>
          <polygon class="cls-9" points="217.98 523.57 205.19 523.57 205.19 476.14 231.4 476.14 217.98 523.57"/>
          <rect class="cls-13" x="589.55" y="344.08" width="67.37" height="179.49" transform="translate(1246.47 867.65) rotate(180)"/>
          <rect class="cls-9" x="205.19" y="344.08" width="395.54" height="166.55" transform="translate(805.91 854.71) rotate(180)"/>
          <polygon class="cls-9" points="587.93 523.57 600.72 523.57 600.72 476.14 574.51 476.14 587.93 523.57"/>
          <path class="cls-13" d="m588.81,490.58h-119.73v-128.14h119.73v128.14Zm-117.25-2.48h114.77v-123.18h-114.77v123.18Z"/>
          <path class="cls-13" d="m462.82,490.58h-119.73v-128.14h119.73v128.14Zm-117.25-2.48h114.77v-123.18h-114.77v123.18Z"/>
          <path class="cls-13" d="m336.82,490.58h-119.73v-128.14h119.73v128.14Zm-117.25-2.48h114.77v-123.18h-114.77v123.18Z"/>
        </g>
        <ellipse id="_Path_" data-name="&amp;lt;Path&amp;gt;" class="cls-8" cx="399.74" cy="577.68" rx="310.02" ry="18.11"/>
        <path class="cls-12" d="m413,96.74c-23.98-9.24-48.31,13.84-46.36,56.68,1.45,31.92-29.14,28.49-13.15,56.97,15.99,28.48,4.14,47.74-12.79,42.57,12.79,16.12,50.58,3.68,50.7-22.61.11-26.29,64.78,12.08,64.78,12.08,0,0-13.15,23.02,23.45,17.73,36.6-5.29,68.44-79.05,68.58-111.79.09-21.7-23.1-31.73-34.82-29.59-.36-27.72-111.59-79.24-100.39-22.03Z"/>
        <path class="cls-12" d="m348.71,251.68c-5.25,0-9.44-2.11-9.68-2.23l.73-1.42c.07.04,7.35,3.68,14.34,1.14,4.25-1.55,7.57-5.06,9.85-10.44l1.47.62c-2.47,5.81-6.1,9.62-10.79,11.32-2.02.73-4.04,1-5.92,1Z"/>
        <path class="cls-12" d="m355.59,189.43l-1.25-1c8.84-11.01,7.88-21.06,6.77-32.68-1.01-10.58-2.16-22.58,4.32-37.23,7.27-16.44,17.1-26.21,28.45-28.27,9.47-1.71,19.51,2.28,28.29,11.24l-1.14,1.12c-8.4-8.57-17.94-12.41-26.86-10.79-10.8,1.96-20.23,11.41-27.27,27.34-6.31,14.26-5.18,26.04-4.19,36.43,1.1,11.48,2.13,22.32-7.11,33.84Z"/>
        <path class="cls-6" d="m224.31,365.56l-5.92-18.29c-1.57-4.84-4.49-9.14-8.43-12.37l-6.88-5.66c-4.7-2.22-10.29-1.31-14.04,2.3l-10.86,10.43c-4.71,4.53-5.16,11.93-1.01,16.99l4.65,5.68s14,21.68,31.88,28.56l3.57-3.95c5.81-6.42,8.4-15.14,7.03-23.69Z"/>
        <path class="cls-6" d="m390.46,352.95l-.89,2.64-.82,2.34-1.65,4.56c-1.1,3.01-2.31,5.94-3.49,8.87-2.38,5.86-4.97,11.59-7.65,17.29-2.66,5.7-5.53,11.31-8.52,16.86-3,5.55-6.05,11.08-9.39,16.47-6.6,10.82-13.75,21.42-21.73,31.55-8.01,10.12-16.6,19.95-26.38,28.93-1.22,1.12-2.42,2.26-3.66,3.36l-3.79,3.27-.95.82-.47.41-1.17.98c-1.95,1.57-4.28,3.11-7,4.36-2.71,1.26-5.78,2.19-8.82,2.62-3.04.45-6.02.42-8.66.09-5.35-.69-9.23-2.36-12.33-3.96-3.06-1.63-5.39-3.35-7.38-4.98-3.96-3.28-6.72-6.38-9.22-9.38-4.88-6.01-8.54-11.68-11.86-17.39-3.28-5.71-6.18-11.37-8.91-17.01-5.37-11.33-10.01-22.65-14.15-34.11-4.16-11.49-7.85-22.87-10.97-34.85-1.89-7.26,2.46-14.68,9.72-16.57,5.95-1.55,12,1.09,15.04,6.09l.16.27c11.98,19.76,23.85,40.09,36.46,58.48,3.12,4.6,6.32,9.06,9.57,13.18,3.22,4.1,6.48,8.03,9.49,10.81,1.46,1.37,2.89,2.47,3.61,2.78.35.18.49.08.06-.2-.46-.29-1.52-.92-3.93-1.29-1.18-.17-2.67-.21-4.25,0-1.58.21-3.23.69-4.61,1.32-1.38.62-2.48,1.33-3.29,1.96l-.3.24-.12.1.08-.09.34-.35.67-.69,2.7-2.75,2.63-2.86c6.98-7.66,13.51-16.02,19.63-24.81,6.03-8.87,11.84-18.04,17.1-27.63,5.36-9.53,10.29-19.39,14.96-29.36,2.33-4.99,4.53-10.05,6.7-15.08l3.12-7.55,1.49-3.72,1.29-3.35.41-1.08c5.38-14.01,21.09-21.01,35.1-15.63,13.62,5.23,20.6,20.3,16.02,34Z"/>
        <path class="cls-12" d="m332.35,359.51c.69,15.76-24.19,52.2,6.52,73.33,3.61,31.84,8.13,63.18,16.62,115.38h160.29c-6.59-45.16-5.16-96.61,16.05-198.21,4.92-23.56-11.65-46.18-35.59-48.59-6.4-.64-13.17-1.18-20.11-1.52-26.97-1.3-49.07-2.16-72.79,0-7.86.72-15.98,1.71-23.74,2.8-28,3.93-48.49,28.56-47.25,56.81Z"/>
        <g class="cls-30">
          <path class="cls-25" d="m331.8,338.3c7.43,7.77,18.52,10.7,23.98,8.28,5.46-2.42-1.14-4.93-7.05-5.24-5.9-.31,3.44-2.54,13.4-1.46,9.96,1.08,9.1-5.95-1.58-7.78s.15-2.68,9.03-2.04c8.88.64,9.86-5.71-.84-7.95-10.7-2.24,19.71-.66,9.6-11.24-10.11-10.58-15.39,14.12-15.44,5.13-.05-9-7.84-9.79-9.26-2.62-1.42,7.17-5.08,15.51-4.64,6.63.44-8.88-7.73-11.28-8.88-3.15-1.15,8.13-6.1,14.96-5.02,10.22,1.08-4.74-.28-10.56-4.5-6.85-4.22,3.72-6.22,10.3,1.2,18.07Z"/>
          <path class="cls-25" d="m416.57,348.1c-7.51-7.69-18.63-10.5-24.06-8.02-5.44,2.48,1.19,4.92,7.1,5.16,5.91.25-3.41,2.58-13.38,1.6-9.97-.98-9.04,6.05,1.66,7.77,10.7,1.72-.12,2.68-9.01,2.13-8.89-.54-9.8,5.81.93,7.94,10.72,2.13-19.7.87-9.48,11.34,10.22,10.47,15.24-14.29,15.39-5.29.14,9,7.94,9.7,9.28,2.52,1.34-7.18,4.91-15.56,4.57-6.68-.34,8.88,7.84,11.2,8.91,3.06,1.07-8.14,5.94-15.02,4.91-10.27-1.03,4.75.39,10.56,4.58,6.8,4.19-3.76,6.11-10.36-1.39-18.05Z"/>
          <path class="cls-25" d="m309.89,388.76c7.43,7.77,18.52,10.7,23.98,8.28s-1.14-4.93-7.05-5.24,3.44-2.54,13.4-1.46c9.96,1.08,9.1-5.95-1.58-7.78-10.68-1.83.15-2.68,9.03-2.04,8.88.64,9.86-5.71-.84-7.95-10.7-2.24,19.71-.66,9.6-11.24-10.11-10.58-15.39,14.12-15.44,5.13-.05-9-7.84-9.79-9.26-2.62-1.42,7.17-5.08,15.51-4.64,6.63.44-8.88-7.73-11.28-8.88-3.15-1.15,8.13-6.1,14.96-5.02,10.22,1.08-4.74-.28-10.56-4.5-6.85-4.22,3.72-6.22,10.3,1.2,18.07Z"/>
          <path class="cls-25" d="m394.66,398.56c-7.51-7.69-18.63-10.5-24.06-8.02-5.43,2.48,1.19,4.92,7.1,5.16,5.91.25-3.41,2.58-13.38,1.6-9.97-.98-9.04,6.05,1.66,7.77,10.7,1.72-.12,2.68-9.01,2.13-8.89-.54-9.8,5.81.93,7.94,10.72,2.13-19.7.87-9.48,11.34,10.22,10.47,15.24-14.29,15.39-5.29.14,9,7.94,9.7,9.28,2.52,1.34-7.18,4.91-15.56,4.57-6.68-.34,8.88,7.84,11.2,8.91,3.06,1.07-8.14,5.94-15.02,4.91-10.27s.39,10.56,4.58,6.8c4.19-3.76,6.11-10.36-1.39-18.05Z"/>
          <path class="cls-25" d="m443.02,352.87c7.43,7.77,18.52,10.7,23.98,8.28,5.46-2.42-1.14-4.93-7.05-5.24-5.9-.31,3.44-2.54,13.4-1.46,9.96,1.08,9.1-5.95-1.58-7.78-10.68-1.83.15-2.68,9.03-2.04,8.88.64,9.86-5.71-.84-7.95-10.7-2.24,19.71-.66,9.6-11.24-10.11-10.58-15.39,14.12-15.44,5.13-.05-9-7.84-9.79-9.26-2.62-1.42,7.17-5.08,15.51-4.64,6.63.44-8.88-7.72-11.28-8.88-3.15-1.15,8.13-6.1,14.96-5.02,10.22,1.08-4.74-.28-10.56-4.5-6.85-4.22,3.72-6.22,10.3,1.2,18.07Z"/>
          <path class="cls-25" d="m527.79,362.67c-7.51-7.69-18.63-10.5-24.06-8.02-5.43,2.48,1.19,4.92,7.1,5.16,5.91.25-3.41,2.58-13.38,1.6-9.97-.98-9.04,6.05,1.66,7.77,10.7,1.72-.12,2.68-9.01,2.13-8.89-.54-9.8,5.81.93,7.94,10.72,2.13-19.7.87-9.48,11.34,10.22,10.47,15.24-14.29,15.39-5.29.14,9,7.94,9.7,9.28,2.52,1.34-7.18,4.91-15.56,4.57-6.68-.34,8.88,7.84,11.2,8.91,3.06,1.07-8.14,5.94-15.02,4.91-10.27-1.03,4.75.39,10.56,4.58,6.8,4.19-3.76,6.11-10.36-1.39-18.05Z"/>
          <path class="cls-25" d="m421.1,403.33c7.43,7.77,18.52,10.7,23.98,8.28s-1.14-4.93-7.05-5.24c-5.9-.31,3.44-2.54,13.4-1.46,9.96,1.08,9.1-5.95-1.58-7.78-10.68-1.83.15-2.68,9.03-2.04,8.88.64,9.86-5.71-.84-7.95-10.7-2.24,19.71-.66,9.6-11.24-10.11-10.58-15.39,14.12-15.44,5.13-.05-9-7.84-9.79-9.26-2.62s-5.08,15.51-4.64,6.63c.44-8.88-7.72-11.28-8.88-3.15-1.15,8.13-6.1,14.96-5.02,10.22,1.08-4.74-.28-10.56-4.5-6.85s-6.22,10.3,1.2,18.07Z"/>
          <path class="cls-25" d="m371.54,452.83c-7.51-7.69-18.63-10.5-24.06-8.02-5.43,2.48,1.19,4.92,7.1,5.16,5.91.25-3.41,2.58-13.38,1.6-9.97-.98-9.04,6.05,1.66,7.77,10.7,1.72-.12,2.68-9.01,2.13-8.89-.54-9.8,5.81.93,7.94,10.72,2.13-19.7.87-9.48,11.34,10.22,10.47,15.24-14.29,15.39-5.29.14,9,7.94,9.7,9.28,2.52,1.34-7.18,4.91-15.56,4.57-6.68-.34,8.88,7.84,11.2,8.91,3.06,1.07-8.14,5.94-15.02,4.91-10.27-1.03,4.75.39,10.56,4.58,6.8,4.19-3.76,6.11-10.36-1.39-18.05Z"/>
          <path class="cls-25" d="m349.62,503.29c-7.51-7.69-18.63-10.5-24.06-8.02-5.43,2.48,1.19,4.92,7.1,5.16,5.91.25-3.41,2.58-13.38,1.6-9.97-.98-9.04,6.05,1.66,7.77,10.7,1.72-.12,2.68-9.01,2.13s-9.8,5.81.93,7.94c10.72,2.13-19.7.87-9.48,11.34,10.22,10.47,15.24-14.29,15.39-5.29.14,9,7.94,9.7,9.28,2.52,1.34-7.18,4.91-15.56,4.57-6.68-.34,8.88,7.84,11.2,8.91,3.06,1.07-8.14,5.94-15.02,4.91-10.27-1.03,4.75.39,10.56,4.58,6.8,4.19-3.76,6.11-10.36-1.39-18.05Z"/>
          <path class="cls-25" d="m397.98,457.6c7.43,7.77,18.52,10.7,23.98,8.28,5.46-2.42-1.14-4.93-7.05-5.24-5.9-.31,3.44-2.54,13.4-1.46,9.96,1.08,9.1-5.95-1.58-7.78-10.68-1.83.15-2.68,9.03-2.04,8.88.64,9.86-5.71-.84-7.95-10.7-2.24,19.71-.66,9.6-11.24-10.11-10.58-15.39,14.12-15.44,5.13-.05-9-7.84-9.79-9.26-2.62-1.42,7.17-5.08,15.51-4.64,6.63.44-8.88-7.73-11.28-8.88-3.15-1.15,8.13-6.1,14.96-5.02,10.22,1.08-4.74-.28-10.56-4.5-6.85-4.22,3.72-6.22,10.3,1.2,18.07Z"/>
          <path class="cls-25" d="m376.07,508.06c7.43,7.77,18.52,10.7,23.98,8.28,5.46-2.42-1.14-4.93-7.05-5.24-5.9-.31,3.44-2.54,13.4-1.46,9.96,1.08,9.1-5.95-1.58-7.78-10.68-1.83.15-2.68,9.03-2.04,8.88.64,9.86-5.71-.84-7.95-10.7-2.24,19.71-.66,9.6-11.24-10.11-10.58-15.39,14.12-15.44,5.13-.05-9-7.84-9.79-9.26-2.62-1.42,7.17-5.08,15.51-4.64,6.63.44-8.88-7.73-11.28-8.88-3.15-1.15,8.13-6.1,14.96-5.02,10.22,1.08-4.74-.28-10.56-4.5-6.85-4.22,3.72-6.22,10.3,1.2,18.07Z"/>
          <path class="cls-25" d="m483.02,469.36c-7.51-7.69-18.63-10.5-24.06-8.02-5.43,2.48,1.19,4.92,7.1,5.16,5.91.25-3.41,2.58-13.38,1.6-9.97-.98-9.04,6.05,1.66,7.77,10.7,1.72-.12,2.68-9.01,2.13-8.89-.54-9.8,5.81.93,7.94,10.72,2.13-19.7.87-9.48,11.34,10.22,10.47,15.24-14.29,15.39-5.29.14,9,7.94,9.7,9.28,2.52,1.34-7.18,4.91-15.56,4.57-6.68-.34,8.88,7.84,11.2,8.91,3.06,1.07-8.14,5.94-15.02,4.91-10.27-1.03,4.75.39,10.56,4.58,6.8,4.19-3.76,6.11-10.36-1.39-18.05Z"/>
          <path class="cls-25" d="m461.11,519.81c-7.51-7.69-18.63-10.5-24.06-8.02-5.43,2.48,1.19,4.92,7.1,5.16,5.91.25-3.41,2.58-13.38,1.6-9.97-.98-9.04,6.05,1.66,7.77,10.7,1.72-.12,2.68-9.01,2.13-8.89-.54-9.8,5.81.93,7.94,10.72,2.13-19.7.87-9.48,11.34,10.22,10.47,15.24-14.29,15.39-5.29.14,9,7.94,9.7,9.28,2.52,1.34-7.18,4.91-15.56,4.57-6.68-.34,8.88,7.84,11.2,8.91,3.06,1.07-8.14,5.94-15.02,4.91-10.27-1.03,4.75.39,10.56,4.58,6.8,4.19-3.76,6.11-10.36-1.39-18.05Z"/>
          <path class="cls-25" d="m509.47,474.13c7.43,7.77,18.52,10.7,23.98,8.28,5.46-2.42-1.14-4.93-7.05-5.24-5.9-.31,3.44-2.54,13.4-1.46,9.96,1.08,9.1-5.95-1.58-7.78-10.68-1.83.15-2.68,9.03-2.04,8.88.64,9.86-5.71-.84-7.95-10.7-2.24,19.71-.66,9.6-11.24-10.11-10.58-15.39,14.12-15.44,5.13-.05-9-7.84-9.79-9.26-2.62-1.42,7.17-5.08,15.51-4.64,6.63.44-8.88-7.72-11.28-8.88-3.15-1.15,8.13-6.1,14.96-5.02,10.22,1.08-4.74-.28-10.56-4.5-6.85-4.22,3.72-6.22,10.3,1.2,18.07Z"/>
          <path class="cls-25" d="m349.3,558.72c7.43,7.77,18.52,10.7,23.98,8.28,5.46-2.42-1.14-4.93-7.05-5.24-5.9-.31,3.44-2.54,13.4-1.46,9.96,1.08,9.1-5.95-1.58-7.78-10.68-1.83.15-2.68,9.03-2.04,8.88.64,9.86-5.71-.84-7.95-10.7-2.24,19.71-.66,9.6-11.24-10.11-10.58-15.39,14.12-15.44,5.13-.05-9-7.84-9.79-9.26-2.62-1.42,7.17-5.08,15.51-4.64,6.63.44-8.88-7.73-11.28-8.88-3.15-1.15,8.13-6.1,14.96-5.02,10.22,1.08-4.74-.28-10.56-4.5-6.85-4.22,3.72-6.22,10.3,1.2,18.07Z"/>
          <path class="cls-25" d="m487.55,524.58c7.43,7.77,18.52,10.7,23.98,8.28,5.46-2.42-1.14-4.93-7.05-5.24-5.9-.31,3.44-2.54,13.4-1.46,9.96,1.08,9.1-5.95-1.58-7.78-10.68-1.83.15-2.68,9.03-2.04,8.88.64,9.86-5.71-.84-7.95-10.7-2.24,19.71-.66,9.6-11.24-10.11-10.58-15.39,14.12-15.44,5.13-.05-9-7.84-9.79-9.26-2.62-1.42,7.17-5.08,15.51-4.64,6.63.44-8.88-7.72-11.28-8.88-3.15-1.15,8.13-6.1,14.96-5.02,10.22,1.08-4.74-.28-10.56-4.5-6.85s-6.22,10.3,1.2,18.07Z"/>
          <path class="cls-25" d="m505.87,413.13c-7.51-7.69-18.63-10.5-24.06-8.02-5.43,2.48,1.19,4.92,7.1,5.16,5.91.25-3.41,2.58-13.38,1.6s-9.04,6.05,1.66,7.77c10.7,1.72-.12,2.68-9.01,2.13-8.89-.54-9.8,5.81.93,7.94,10.72,2.13-19.7.87-9.48,11.34,10.22,10.47,15.24-14.29,15.39-5.29.14,9,7.94,9.7,9.28,2.52,1.34-7.18,4.91-15.56,4.57-6.68-.34,8.88,7.84,11.2,8.91,3.06,1.07-8.14,5.94-15.02,4.91-10.27-1.03,4.75.39,10.56,4.58,6.8,4.19-3.76,6.11-10.36-1.39-18.05Z"/>
          <path class="cls-25" d="m510.4,277.89c-7.51-7.69-18.63-10.5-24.06-8.02-5.43,2.48,1.19,4.92,7.1,5.16,5.91.25-3.41,2.58-13.38,1.6-9.97-.98-9.04,6.05,1.66,7.77,10.7,1.72-.12,2.68-9.01,2.13-8.89-.54-9.8,5.81.93,7.94,10.72,2.13-19.7.87-9.48,11.34,10.22,10.47,15.24-14.29,15.39-5.29.14,9,7.94,9.7,9.28,2.52,1.34-7.18,4.91-15.56,4.57-6.68-.34,8.88,7.84,11.2,8.91,3.06,1.07-8.14,5.94-15.02,4.91-10.27-1.03,4.75.39,10.56,4.58,6.8,4.19-3.76,6.11-10.36-1.39-18.05Z"/>
        </g>
        <path class="cls-11" d="m495.23,342.07c-2.86,23.68,7.23,65.97,21.15,97.62,2.43-19.78,6.06-42.2,11.1-68.16l-32.25-29.45Z"/>
        <path class="cls-14" d="m483.53,300.34c-2.43-.16-4.91-.3-7.4-.43-26.96-1.31-49.07-2.16-72.79,0-2.05.19-4.13.4-6.2.62-5.24,8.52-15.85,31.13-1.62,57.53l3.21,5.98,4.56-5.04c32.59-35.99,73.41-55.15,73.83-55.36l6.41-3.31h0Z"/>
        <path class="cls-6" d="m468.92,217.94c-4.59,23.42-9.17,66.33,7.21,81.96,0,0-42.68,18.64-76.39,55.89-16.46-30.55,3.6-55.88,3.6-55.88,26.12-6.24,25.44-25.61,20.89-43.81l44.68-38.15Z"/>
        <path class="cls-11" d="m450.7,233.51l-26.45,22.56c1.09,4.31,1.94,8.67,2.24,12.92,9.98-1.44,23.68-12.39,24.74-22.84.53-5.21.31-10.22-.54-12.64Z"/>
        <path class="cls-6" d="m493.62,174.99c-9.14,38.09-12.21,54.4-34.78,70.78-33.95,24.64-77.8,5.2-80.01-34.83-1.98-36.02,13.29-92.26,52.96-101.03,39.08-8.64,70.96,26.99,61.82,65.08Z"/>
        <path class="cls-12" d="m496.92,127.1c-38.02,32.52-75.06-21.2-97.18,5.25-12.79-11.38,23.25-40.7,44.94-41.76,21.69-1.07,68.67,13.86,52.24,36.51Z"/>
        <path class="cls-21" d="m406.3,126.92s-4.07-11.27-1.76-18.32c-6.05,2.51-8.13,22.85-4.8,23.76,4.66,1.27,6.56-5.44,6.56-5.44Z"/>
        <path class="cls-12" d="m491.06,123.99c-39.8,14.57-22.16,91.08,12.08,86.48,34.24-4.59,28.61-79.38-12.08-86.48Z"/>
        <path class="cls-12" d="m437.17,175.4c-.56,3.13-2.67,5.38-4.72,5.02-2.05-.36-3.26-3.2-2.7-6.33.56-3.13,2.67-5.38,4.72-5.02,2.05.36,3.26,3.2,2.7,6.33Z"/>
        <path class="cls-12" d="m398.52,169.13c-.56,3.13-2.67,5.38-4.72,5.02-2.05-.36-3.26-3.2-2.7-6.33.56-3.13,2.67-5.38,4.72-5.02,2.05.36,3.26,3.2,2.7,6.33Z"/>
        <path class="cls-12" d="m396.69,163.13l-7.14-3.5s2.82,6.56,7.14,3.5Z"/>
        <path class="cls-23" d="m408.35,176.17s-7.71,12.55-14.72,18.03c3.45,4.6,10.8,4.08,10.8,4.08l3.92-22.1Z"/>
        <path class="cls-12" d="m420.41,213.05c-1.68,0-3.45-.15-5.34-.48-.51-.09-.85-.57-.76-1.08.09-.51.56-.84,1.08-.76,13.74,2.44,21.88-6.03,21.96-6.12.35-.38.95-.4,1.32-.04.38.35.4.95.04,1.32-.31.33-6.86,7.16-18.32,7.16Z"/>
        <path class="cls-6" d="m496.28,212.02c-5.91,6.18-13.48,8.77-19.69,8.44-9.33-.5-10.41-11.28-4.81-19.97,5.04-7.82,15.97-16.98,23.89-12.24,7.81,4.67,7.37,16.69.61,23.77Z"/>
        <g>
          <path class="cls-6" d="m439.49,210.24c-.46-7.4,2.33-13.76,6.18-17.55-1.34.11-2.68.74-3.93,1.95-3.36,3.26-5.81,8.78-5.42,15.21.35,5.67,4.23,10.77,9.01,11.94-3.27-2.63-5.57-6.92-5.84-11.54Z"/>
          <path class="cls-11" d="m439.49,210.24c-.46-7.4,2.33-13.76,6.18-17.55-1.34.11-2.68.74-3.93,1.95-3.36,3.26-5.81,8.78-5.42,15.21.35,5.67,4.23,10.77,9.01,11.94-3.27-2.63-5.57-6.92-5.84-11.54Z"/>
        </g>
        <path class="cls-12" d="m449.95,162.75c-.47-.16-.87-.51-1.09-.99-3.46-7.59-10.25-8.69-10.33-8.7-1.01-.16-1.72-1.11-1.57-2.13.15-1.02,1.11-1.72,2.13-1.57.36.06,8.88,1.43,13.17,10.85.43.94.01,2.05-.93,2.48-.45.21-.95.22-1.38.07Z"/>
        <path class="cls-12" d="m385.87,151.71c-.46.03-.94-.11-1.32-.43-.79-.66-.9-1.84-.24-2.63,6.62-7.94,15.2-7.03,15.57-6.99,1.03.12,1.76,1.05,1.64,2.08-.12,1.02-1.05,1.75-2.07,1.64-.34-.04-7-.65-12.26,5.67-.34.41-.82.63-1.31.67Z"/>
        <path class="cls-12" d="m435.33,169.4l-7.14-3.5s2.82,6.56,7.14,3.5Z"/>
        <path class="cls-6" d="m468.81,542.44c-2.01-8.43-7.73-15.49-15.56-19.2l-17.67-8.38c-5.23-2.48-11.35-2.22-16.34.7l-7.95,4.64c-4.49,2.62-6.9,7.75-6.04,12.88l2.47,14.86c1.07,6.45,6.92,11,13.44,10.44l7.32-.62s25.8.71,41.58-10.14l-1.24-5.18Z"/>
        <path class="cls-6" d="m525.86,319.6l1.66,2.19,1.45,1.96,2.79,3.86c1.84,2.55,3.54,5.15,5.27,7.74,3.44,5.17,6.66,10.43,9.78,15.76,3.14,5.32,6.1,10.74,8.94,16.23,2.85,5.49,5.59,11.05,8.15,16.72,10.23,22.64,18.36,46.73,22.4,72.4.41,3.24.95,6.43,1.24,9.71l.49,4.89.08.91.1,1.63c.05,1.09.07,2.19,0,3.24-.06,1.05-.14,2.13-.27,3.16-.15,1-.32,2-.52,2.99-.85,3.82-2.17,7.25-3.63,10.01-1.46,2.8-3.05,5.18-4.64,7.19-3.21,4.05-6.4,7.02-9.5,9.6-6.2,5.06-12.12,8.63-17.98,11.83-5.89,3.11-11.7,5.73-17.48,8.14-5.77,2.44-11.58,4.46-17.35,6.41-5.77,1.97-11.57,3.67-17.37,5.27-5.79,1.64-11.62,3.01-17.45,4.35-2.92.65-5.86,1.24-8.8,1.82-2.97.58-5.85,1.05-8.99,1.58-7.39,1.25-14.39-3.72-15.65-11.11-1.03-6.04,2.11-11.82,7.33-14.42l.51-.25c20.07-9.97,40.77-20.04,59-31.21,4.55-2.77,8.93-5.64,12.88-8.59,3.97-2.87,7.61-5.88,10.02-8.55,1.19-1.3,2.01-2.52,2.23-3.13.32-.61-.32-.43-.91,1.66-.08.28-.14.56-.18.85-.06.31-.12.66-.14,1,0,.33-.05.7-.04,1.07,0,.19.01.37.03.55l.02.14c0,.05-.01-.05-.01-.07l-.04-.23-.68-3.7c-.41-2.46-1.06-4.94-1.57-7.4-4.74-19.76-12.49-39.48-22.04-58.58-4.71-9.59-9.97-18.99-15.42-28.27-2.75-4.63-5.6-9.2-8.47-13.71l-4.37-6.67-2.18-3.25-1.98-2.86-.67-.97c-8.55-12.33-5.48-29.26,6.85-37.81,11.99-8.31,28.36-5.59,37.12,5.9Z"/>
        <path class="cls-12" d="m217.98,274.66c-.95-.04-1.76.7-1.8,1.65l-.86,19.92c-.06,1.33-1.41,2.19-2.64,1.69l-3.21-1.33c-.74-.31-1.22-1.05-1.18-1.85l.88-20.46c.04-.95-.7-1.76-1.65-1.8-.95-.04-1.76.7-1.8,1.65l-.88,20.46c-.03.8-.57,1.5-1.34,1.74l-3.32,1.04c-1.27.4-2.54-.58-2.49-1.91l.86-19.92c.04-.95-.7-1.76-1.65-1.8-.95-.04-1.76.7-1.8,1.65l-.98,22.65c-.2,4.75,2.33,8.98,6.2,11.19,2.01,1.15,3.14,3.38,2.91,5.68-1.27,12.62-4.36,42.86-6.8,63.25-3.15,26.34.87,31.09,5.18,31.28,4.31.19,8.72-4.2,7.85-30.72-.68-20.53-1.16-50.92-1.34-63.6-.03-2.32,1.28-4.44,3.38-5.41,4.04-1.86,6.93-5.86,7.14-10.61l.98-22.65c.04-.95-.7-1.76-1.65-1.8Z"/>
        <g>
          <path class="cls-27" d="m189.36,252.17c-5.92,18.47,21.54,45.05,44.11,30.27-16.66-13.42-44.11-30.27-44.11-30.27Z"/>
          <path class="cls-4" d="m194.46,255.36c-3.21,14.04,16.77,33.02,33.72,22.98-11.68-8.83-26.17-18.2-33.72-22.98Z"/>
        </g>
        <g>
          <rect class="cls-21" x="89.72" y="544.14" width="620.05" height="20.25"/>
          <rect class="cls-15" x="89.72" y="553.13" width="620.05" height="2.28"/>
          <g>
            <polygon class="cls-21" points="684.89 572.31 114.59 572.31 98.6 564.39 700.88 564.39 684.89 572.31"/>
            <polygon class="cls-16" points="684.89 572.31 114.59 572.31 98.6 564.39 700.88 564.39 684.89 572.31"/>
          </g>
        </g>
        <g>
          <g>
            <path class="cls-3" d="m198.82,488.32c-5.55-5.13-22.01,3.18-21.02-7.25.99-10.43-10.11-2.89-11.64-13.13-1.52-10.23,13.34-7.24,7.04-15.18-6.3-7.94-1.28-18.29,8.39-18.41,9.66-.12,6.91,12.3,15.24,6.68,9.15-6.19,16.69-.72,16.73,7.52.04,8.24,7.65,3.61,10.74,12.26,4.06,11.38-14.56,12.61-10.88,19.37,3.68,6.77-5.47,16.59-14.6,8.14Z"/>
            <path class="cls-2" d="m198.82,488.32c-5.55-5.13-22.01,3.18-21.02-7.25.99-10.43-10.11-2.89-11.64-13.13-1.52-10.23,13.34-7.24,7.04-15.18-6.3-7.94-1.28-18.29,8.39-18.41,9.66-.12,6.91,12.3,15.24,6.68,9.15-6.19,16.69-.72,16.73,7.52.04,8.24,7.65,3.61,10.74,12.26,4.06,11.38-14.56,12.61-10.88,19.37,3.68,6.77-5.47,16.59-14.6,8.14Z"/>
          </g>
          <path class="cls-3" d="m197.82,484.17c-6.19-7.88-18.39,3.79-17.55-5.05.84-8.84-11.15-3.51-10.12-12.22,1.03-8.71,14.14-9.04,6.92-13.7-7.22-4.66-3.04-15.56,5.15-15.66,8.19-.1,6.86,11.32,13.91,6.55,7.75-5.24,14.14-.61,14.18,6.37.03,6.98,7.17,3.27,11.01,10.04,6.66,11.74-15.73,9.88-9.95,17.9,3.81,5.3-5.57,15.93-13.55,5.76Z"/>
          <path class="cls-2" d="m197.24,481.78c-5.06-6.89-15.78,2.72-14.82-4.79.97-7.51-9.41-3.31-8.29-10.7,1.12-7.39,12.3-7.31,6.28-11.48-6.02-4.17-2.15-13.35,4.83-13.21,6.98.14,5.53,9.84,11.67,5.97,6.75-4.25,12.07-.12,11.91,5.83-.17,5.95,6.02,2.99,9.11,8.87,5.35,10.2-13.69,7.98-8.98,14.98,3.1,4.62-5.19,13.42-11.71,4.53Z"/>
        </g>
        <g>
          <g>
            <path class="cls-3" d="m168.83,474.36c.77,14.38,14.15,42.74,47.45,32.92-1.9-19.65-18.69-32.55-47.45-32.92Z"/>
            <path class="cls-7" d="m168.83,474.36c.77,14.38,14.15,42.74,47.45,32.92-1.9-19.65-18.69-32.55-47.45-32.92Z"/>
          </g>
          <g>
            <path class="cls-3" d="m173.36,478.05c3.4,3.31,7.53,5.98,11.53,8.71,4.06,2.67,8.21,5.23,12.37,7.77,4.16,2.54,8.38,4.97,12.58,7.44l12.51,7.5.03.02c.3.18.4.57.22.88-.15.26-.46.36-.73.29-4.82-1.41-9.27-3.58-13.6-5.91-4.32-2.35-8.51-4.94-12.67-7.55-4.15-2.64-8.2-5.43-12.15-8.38-1.98-1.47-3.94-2.97-5.8-4.61-1.87-1.62-3.71-3.32-5.28-5.33-.22-.28-.17-.68.11-.89.25-.2.61-.17.84.05l.04.04Z"/>
            <path class="cls-3" d="m184.13,488.4s-.07,0-.1,0c-.35-.06-.58-.38-.53-.73.81-4.96-.79-8.04-.81-8.07-.16-.31-.05-.7.26-.86.31-.17.69-.05.86.26.07.14,1.83,3.46.95,8.88-.05.31-.32.54-.63.54Z"/>
            <path class="cls-3" d="m183.03,499.5c-.33,0-.61-.25-.64-.58-.03-.35.23-.66.58-.69.08,0,7.7-.71,9.9-4.58.18-.31.57-.41.87-.24.31.17.41.56.24.87-2.53,4.44-10.56,5.18-10.9,5.21-.02,0-.04,0-.05,0Z"/>
            <path class="cls-3" d="m201.97,499.87c-.1,0-.2-.02-.3-.08-.31-.17-.43-.55-.26-.86,2.6-4.87-1.61-11.5-1.65-11.57-.19-.3-.11-.69.19-.88.3-.19.69-.11.88.19.19.3,4.66,7.32,1.71,12.86-.11.21-.34.34-.56.34Z"/>
            <path class="cls-3" d="m203.2,506.53c-.34,0-.62-.26-.64-.6-.02-.35.25-.65.6-.67.03,0,2.64-.18,5.63-2.35.29-.21.68-.14.89.14.21.28.14.68-.14.89-3.32,2.41-6.19,2.59-6.31,2.59-.01,0-.02,0-.03,0Z"/>
          </g>
        </g>
        <g>
          <g>
            <path class="cls-3" d="m264.82,450.64c-19.71.96-58.65,19.11-45.41,64.79,26.94-2.47,44.71-25.39,45.41-64.79Z"/>
            <path class="cls-7" d="m264.82,450.64c-19.71.96-58.65,19.11-45.41,64.79,26.94-2.47,44.71-25.39,45.41-64.79Z"/>
          </g>
          <g>
            <path class="cls-3" d="m259.73,456.82c-4.55,4.64-8.25,10.27-11.98,15.76-3.69,5.55-7.25,11.19-10.75,16.88-3.51,5.68-6.86,11.45-10.27,17.19l-10.36,17.09-.02.04c-.25.41-.79.55-1.2.3-.35-.21-.5-.62-.39-1,1.93-6.61,4.98-12.66,8.18-18.59,3.26-5.91,6.82-11.62,10.43-17.31,3.66-5.65,7.47-11.22,11.54-16.61,2.04-2.7,4.13-5.35,6.38-7.9,2.23-2.55,4.57-5.06,7.33-7.19.38-.29.93-.22,1.22.16.27.35.23.84-.07,1.14l-.05.05Z"/>
            <path class="cls-3" d="m250.43,472.73c-1.28,0-2.68-.1-4.22-.36-.47-.08-.8-.53-.72-1.01.08-.48.52-.8,1.01-.72,6.79,1.14,11.02-1.04,11.07-1.06.42-.22.95-.06,1.18.36.23.42.07.95-.36,1.18-.15.08-3.06,1.6-7.96,1.6Z"/>
            <path class="cls-3" d="m237.79,485.09c-.15,0-.3-.04-.43-.12-6.07-3.5-7.03-14.5-7.07-14.97-.04-.48.32-.9.8-.94.47-.04.9.32.94.8,0,.11.93,10.56,6.2,13.6.42.24.56.77.32,1.19-.16.28-.45.44-.76.44Z"/>
            <path class="cls-3" d="m236,498.06c-1.98,0-4-.39-5.9-1.41-.42-.23-.58-.76-.35-1.18.23-.43.76-.58,1.18-.35,6.67,3.6,15.77-2.13,15.86-2.19.41-.26.95-.14,1.21.26.26.41.14.95-.26,1.21-.31.2-5.81,3.66-11.73,3.66Z"/>
            <path class="cls-3" d="m224.74,506.59c-.27,0-.54-.13-.71-.36-3.28-4.56-3.5-8.5-3.51-8.67-.02-.48.35-.89.83-.91.51-.03.89.35.92.83,0,.04.23,3.62,3.19,7.74.28.39.19.94-.2,1.22-.15.11-.33.16-.51.16Z"/>
          </g>
        </g>
        <g>
          <path class="cls-3" d="m198.24,477.31c15.92,15.19,56.63.32,52.73-30.03-21.94,10.36-52.73,30.03-52.73,30.03Z"/>
          <path class="cls-25" d="m204.02,473.68c12.74,10.23,42-.77,40.15-23.03-14.79,7.55-31.53,17.7-40.15,23.03Z"/>
        </g>
        <g>
          <path class="cls-3" d="m240.19,534.5c-15.05,16.05-56.53,3.49-54.33-27.03,22.49,9.11,54.33,27.03,54.33,27.03Z"/>
          <path class="cls-25" d="m234.22,531.19c-12.15,10.93-41.98,1.58-41.37-20.75,15.19,6.71,32.47,15.91,41.37,20.75Z"/>
        </g>
        <g>
          <g>
            <path class="cls-3" d="m280.91,471.87c-4.7,3.62.8,16.06-7.75,14.59-8.55-1.47-3.24,7.06-11.83,7.42-8.59.36-4.88-10.12-11.98-6.16s-15.24-.41-14.53-7.37c.71-6.96,10.75-4.08,6.79-10.48-4.36-7.03.8-12.06,7.61-11.49,6.82.57,3.62-5.24,11.03-6.84,9.75-2.1,9.22,11.38,15.12,9.23,5.9-2.16,13.27,5.13,5.52,11.09Z"/>
            <path class="cls-2" d="m280.91,471.87c-4.7,3.62.8,16.06-7.75,14.59-8.55-1.47-3.24,7.06-11.83,7.42-8.59.36-4.88-10.12-11.98-6.16s-15.24-.41-14.53-7.37c.71-6.96,10.75-4.08,6.79-10.48-4.36-7.03.8-12.06,7.61-11.49,6.82.57,3.62-5.24,11.03-6.84,9.75-2.1,9.22,11.38,15.12,9.23,5.9-2.16,13.27,5.13,5.52,11.09Z"/>
          </g>
          <path class="cls-3" d="m277.4,472.29c-7.04,3.88,1.6,13.5-5.64,12.26-7.24-1.25-3.83,7.77-10.95,6.4-7.12-1.37-6.3-10.82-10.75-5.97-4.46,4.85-13.13,1.06-12.53-4.84.6-5.9,9.93-4.11,6.58-9.53-3.69-5.96.68-10.22,6.45-9.74,5.78.48,3.3-4.92,9.22-7.19,10.27-3.94,6.86,12.03,13.98,8.45,4.7-2.36,12.71,5.16,3.64,10.17Z"/>
          <path class="cls-2" d="m275.37,472.54c-6.12,3.14.93,11.55-5.2,10.31-6.13-1.24-3.52,6.53-9.54,5.19-6.02-1.34-5.02-9.38-8.97-5.35-3.95,4.03-11.22.58-10.52-4.43.7-5.01,8.6-3.26,5.91-7.96-2.95-5.17.9-8.69,5.81-8.14,4.91.55,2.97-4.12,8.09-5.91,8.88-3.11,5.46,10.42,11.65,7.55,4.08-1.9,10.67,4.71,2.78,8.75Z"/>
        </g>
        <g>
          <g>
            <path class="cls-3" d="m221.18,517.19c5.91-4.58,1.08-19.11,10.82-17.84,9.74,1.27,4.64-8.61,14.66-9.52,10.02-.91,4.4,11.79,13.13,6.67,8.73-5.12,17.64-.38,15.95,7.96-1.69,8.34-13,5.48-9.2,12.88,4.18,8.13-2.43,14.43-10.28,14.13-7.84-.29-4.86,6.46-13.67,8.78-11.58,3.05-9.28-13.05-16.4-10.15-7.12,2.91-14.76-5.37-5.02-12.91Z"/>
            <path class="cls-2" d="m221.18,517.19c5.91-4.58,1.08-19.11,10.82-17.84,9.74,1.27,4.64-8.61,14.66-9.52,10.02-.91,4.4,11.79,13.13,6.67,8.73-5.12,17.64-.38,15.95,7.96-1.69,8.34-13,5.48-9.2,12.88,4.18,8.13-2.43,14.43-10.28,14.13-7.84-.29-4.86,6.46-13.67,8.78-11.58,3.05-9.28-13.05-16.4-10.15-7.12,2.91-14.76-5.37-5.02-12.91Z"/>
          </g>
          <path class="cls-3" d="m225.31,516.49c8.66-5.03-.18-16.01,8.08-14.94,8.25,1.08,5.42-9.48,13.52-8.25,8.09,1.23,5.96,12.55,11.74,6.51,5.78-6.04,15.37-2,13.94,5.06-1.43,7.07-12.05,5.47-8.83,11.74,3.54,6.89-2.06,12.22-8.71,11.98-6.65-.25-4.45,6.06-11.61,9.1-12.42,5.28-6.46-13.96-15.18-9.29-5.75,3.08-14.12-5.43-2.95-11.92Z"/>
          <path class="cls-2" d="m227.7,516.08c7.5-4.09.36-13.72,7.33-12.59,6.97,1.13,4.9-7.99,11.73-6.73,6.82,1.26,4.66,10.9,9.75,5.87,5.09-5.03,13.1-1.33,11.66,4.69-1.44,6.02-10.39,4.38-7.86,9.83,2.78,5.99-2.14,10.42-7.77,10.04-5.63-.38-3.97,5.08-10.13,7.5-10.7,4.21-5.04-12.12-12.58-8.34-4.98,2.49-11.8-5.01-2.13-10.28Z"/>
        </g>
        <g class="cls-28">
          <path class="cls-17" d="m166.06,470.79v11.35c0,34.1,27.9,62,62,62h0c34.1,0,62-27.9,62-62v-11.35h-124.01Z"/>
          <path class="cls-16" d="m291.59,470.79h-127.06c-1.97,0-3.58-1.61-3.58-3.58h0c0-1.97,1.61-3.58,3.58-3.58h127.06c1.97,0,3.58,1.61,3.58,3.58h0c0,1.97-1.61,3.58-3.58,3.58Z"/>
        </g>
        <ellipse class="cls-26" cx="203.97" cy="509.11" rx="18.74" ry="34.18" transform="translate(-314.16 329.27) rotate(-49.03)"/>
        <path class="cls-26" d="m244.94,510.07c-4.79,2.1-10.79-1.05-13.42-7.04-2.62-5.99-.87-12.54,3.92-14.64,4.79-2.1,10.79,1.05,13.42,7.04,2.62,5.99.87,12.54-3.92,14.64Z"/>
        <path class="cls-1" d="m672.1,479.54h-59.34l6.03,60.86c.21,2.12,1.99,3.74,4.13,3.74h39.03c2.13,0,3.92-1.62,4.13-3.74l6.03-60.86Z"/>
        <g>
          <path class="cls-19" d="m624.26,530.77l-4.44-44.83s11.73,6.88,23.08,3.53c11.36-3.35,22.13-3.53,22.13-3.53l-4.44,44.83c-.39,3.96-3.72,6.98-7.7,6.98h-20.94c-3.98,0-7.31-3.02-7.7-6.98Z"/>
          <path class="cls-24" d="m641.96,489.47c-11.36-3.35-22.13-3.53-22.13-3.53,0,0,11.4,6.67,22.61,3.65-.16-.04-.32-.07-.47-.11Z"/>
        </g>
        <path class="cls-1" d="m672.79,481.14h-60.72c-1.22,0-2.23-.95-2.29-2.17l-1.5-27.07c-.07-1.32.98-2.42,2.29-2.42h63.72c1.32,0,2.37,1.11,2.29,2.42l-1.5,27.07c-.07,1.22-1.07,2.17-2.29,2.17Z"/>
      </g>
    </g>
  </g>
</svg>