<?xml version="1.0" encoding="UTF-8"?>
<svg id="Capa_1" data-name="Capa 1" xmlns="http://www.w3.org/2000/svg" viewBox="0 0 707.13 753.76">
  <defs>
    <style>
      .cls-1 {
        fill: #375a64;
      }

      .cls-1, .cls-2, .cls-3, .cls-4, .cls-5, .cls-6, .cls-7, .cls-8, .cls-9, .cls-10, .cls-11 {
        stroke-width: 0px;
      }

      .cls-2 {
        fill: #e1e1e1;
      }

      .cls-3 {
        fill: #ececec;
      }

      .cls-12 {
        opacity: .2;
      }

      .cls-5 {
        fill: #f5f5f5;
      }

      .cls-6 {
        fill: #1a2e35;
      }

      .cls-7 {
        fill: #fff;
      }

      .cls-8 {
        fill: #ff9c6a;
      }

      .cls-9 {
        fill: #024873;
      }

      .cls-10 {
        fill: #bfd6d9;
      }

      .cls-11 {
        fill: #ffc19d;
      }
    </style>
  </defs>
  <rect class="cls-2" x="538.22" y="266.12" width="16.33" height="16.33"/>
  <rect class="cls-2" x="529.14" y="434.71" width="16.33" height="16.33"/>
  <rect class="cls-2" x="546.62" y="481.58" width="24.65" height="24.65"/>
  <rect class="cls-2" x="142.52" y="449.02" width="24.65" height="24.65"/>
  <rect class="cls-2" x="115.83" y="427.55" width="15.92" height="15.92"/>
  <rect class="cls-2" x="159.21" y="523.91" width="15.92" height="15.92"/>
  <rect class="cls-2" x="96.55" y="312.2" width="11.52" height="11.52"/>
  <rect class="cls-2" x="589.96" y="291.32" width="6.09" height="6.09"/>
  <rect class="cls-2" x="528.57" y="239.98" width="9.42" height="9.42"/>
  <rect class="cls-2" x="576.33" y="426.44" width="9.42" height="9.42"/>
  <rect class="cls-2" x="146.85" y="278.93" width="16" height="16"/>
  <g>
    <path class="cls-5" d="m0,273.71c.51,0,55.31.93,55.31.93l-26.95-34.66L0,273.71Z"/>
    <rect class="cls-5" x="16.31" y="300.89" width="9.37" height="9.37"/>
    <rect class="cls-5" x="25.26" y="311.15" width="9.37" height="9.37"/>
    <rect class="cls-5" x="16.31" y="323.78" width="7.2" height="7.2"/>
    <rect class="cls-5" x="33.73" y="303.13" width="7.2" height="7.2"/>
    <rect class="cls-5" x="11.17" y="311.96" width="5.14" height="5.14"/>
    <path class="cls-5" d="m31.28,340.04h-6.04v-6.04h6.04v6.04Zm-5.14-.89h4.25v-4.25h-4.25v4.25Z"/>
    <rect class="cls-5" x="34.76" y="320.02" width="5.14" height="5.14"/>
    <path class="cls-5" d="m40.26,269.18l-26.39.32-1.7,33.77h28.84l-.76-34.09Zm-9.28,28.1h-5.14v-5.14h5.14v5.14Z"/>
  </g>
  <g>
    <path class="cls-3" d="m13.1,606.57c.83.01,89.54,1.56,89.54,1.56l-43.63-58.01-45.91,56.45Z"/>
    <rect class="cls-3" x="39.51" y="652.06" width="15.17" height="15.69"/>
    <rect class="cls-3" x="54" y="669.24" width="15.17" height="15.69"/>
    <rect class="cls-3" x="39.51" y="690.38" width="11.66" height="12.05"/>
    <rect class="cls-3" x="67.7" y="655.82" width="11.66" height="12.05"/>
    <rect class="cls-3" x="31.19" y="670.6" width="8.32" height="8.61"/>
    <path class="cls-3" d="m63.73,717.59h-9.77v-10.1h9.77v10.1Zm-8.32-1.5h6.88v-7.11h-6.88v7.11Z"/>
    <rect class="cls-3" x="69.37" y="684.09" width="8.32" height="8.61"/>
    <path class="cls-3" d="m78.28,599l-42.72.53-2.74,56.53h46.69l-1.22-57.06Zm-15.03,47.04h-8.32v-8.61h8.32v8.61Z"/>
  </g>
  <g>
    <path class="cls-2" d="m32.89,104.24c.86.01,92.43,1.55,92.43,1.55l-45.04-57.92-47.39,56.36Z"/>
    <rect class="cls-2" x="60.15" y="149.66" width="15.66" height="15.66"/>
    <rect class="cls-2" x="75.11" y="166.82" width="15.66" height="15.66"/>
    <rect class="cls-2" x="60.15" y="187.91" width="12.03" height="12.03"/>
    <rect class="cls-2" x="89.25" y="153.42" width="12.03" height="12.03"/>
    <rect class="cls-2" x="51.56" y="168.17" width="8.59" height="8.59"/>
    <path class="cls-2" d="m85.15,215.09h-10.09v-10.09h10.09v10.09Zm-8.59-1.5h7.1v-7.1h-7.1v7.1Z"/>
    <rect class="cls-2" x="90.97" y="181.64" width="8.59" height="8.59"/>
    <path class="cls-2" d="m100.18,96.68l-44.1.53-2.83,56.44h48.19l-1.26-56.96Zm-15.51,46.96h-8.59v-8.59h8.59v8.59Z"/>
  </g>
  <g>
    <path class="cls-5" d="m525.09,589.91c.74.01,79.39,1.34,79.39,1.34l-38.68-49.75-40.71,48.41Z"/>
    <rect class="cls-5" x="548.51" y="628.93" width="13.45" height="13.45"/>
    <rect class="cls-5" x="561.36" y="643.66" width="13.45" height="13.45"/>
    <rect class="cls-5" x="548.51" y="661.78" width="10.34" height="10.34"/>
    <rect class="cls-5" x="573.5" y="632.15" width="10.34" height="10.34"/>
    <rect class="cls-5" x="541.13" y="644.83" width="7.38" height="7.38"/>
    <path class="cls-5" d="m569.99,685.12h-8.66v-8.66h8.66v8.66Zm-7.38-1.28h6.1v-6.1h-6.1v6.1Z"/>
    <rect class="cls-5" x="574.98" y="656.39" width="7.38" height="7.38"/>
    <path class="cls-5" d="m582.89,583.42l-37.88.45-2.43,48.48h41.39l-1.08-48.93Zm-13.33,40.34h-7.38v-7.38h7.38v7.38Z"/>
  </g>
  <g>
    <path class="cls-5" d="m499.7,73.82c.74.01,79.39,1.33,79.39,1.33l-38.68-49.75-40.71,48.41Z"/>
    <rect class="cls-5" x="523.11" y="112.83" width="13.45" height="13.45"/>
    <rect class="cls-5" x="535.96" y="127.56" width="13.45" height="13.45"/>
    <rect class="cls-5" x="523.11" y="145.69" width="10.34" height="10.34"/>
    <rect class="cls-5" x="548.11" y="116.06" width="10.34" height="10.34"/>
    <rect class="cls-5" x="515.73" y="128.73" width="7.38" height="7.38"/>
    <path class="cls-5" d="m544.59,169.03h-8.66v-8.66h8.66v8.66Zm-7.38-1.28h6.1v-6.1h-6.1v6.1Z"/>
    <rect class="cls-5" x="549.59" y="140.29" width="7.38" height="7.38"/>
    <path class="cls-5" d="m557.49,67.32l-37.88.45-2.43,48.48h41.39l-1.08-48.93Zm-13.33,40.34h-7.38v-7.38h7.38v7.38Z"/>
  </g>
  <g>
    <path class="cls-3" d="m605.15,347.67c.85.01,91.57,1.54,91.57,1.54l-44.62-57.38-46.95,55.84Z"/>
    <rect class="cls-3" x="632.16" y="392.67" width="15.52" height="15.52"/>
    <rect class="cls-3" x="646.98" y="409.66" width="15.52" height="15.52"/>
    <rect class="cls-3" x="632.16" y="430.56" width="11.92" height="11.92"/>
    <rect class="cls-3" x="660.99" y="396.39" width="11.92" height="11.92"/>
    <rect class="cls-3" x="623.65" y="411" width="8.51" height="8.51"/>
    <path class="cls-3" d="m656.93,457.48h-9.99v-9.99h9.99v9.99Zm-8.51-1.48h7.03v-7.03h-7.03v7.03Z"/>
    <rect class="cls-3" x="662.69" y="424.34" width="8.51" height="8.51"/>
    <path class="cls-3" d="m671.82,340.18l-43.69.52-2.81,55.91h47.75l-1.25-56.44Zm-15.37,46.52h-8.51v-8.51h8.51v8.51Z"/>
  </g>
  <path class="cls-6" d="m707.13,753.35c0,.23-157.22.42-351.12.42s-351.15-.19-351.15-.42,157.19-.42,351.15-.42,351.12.19,351.12.42Z"/>
  <g>
    <path class="cls-6" d="m451.33,753.35l-218.14-.12c-26.24-.01-47.5-20.29-47.49-45.29l.11-521.16c0-25.02,21.29-45.29,47.55-45.27l218.15.12c26.24.02,47.49,20.29,47.49,45.29l-.11,521.16c0,25.02-21.29,45.29-47.55,45.27Z"/>
    <path class="cls-7" d="m449.83,159.94l-42.29-.02-123.52-.07h-14.87s-37.02-.03-37.02-.03c-18.38,0-33.29,14.19-33.3,31.71l-.1,508.69c0,17.51,14.89,31.71,33.26,31.72l217.71.12c18.38.01,33.29-14.19,33.3-31.71l.1-508.69c0-17.51-14.89-31.71-33.26-31.72Z"/>
  </g>
  <g>
    <g>
      <rect class="cls-9" x="419.4" y="204.96" width="14.41" height="13.12"/>
      <rect class="cls-9" x="272.33" y="203.75" width="6.06" height="4.78"/>
      <rect class="cls-9" x="413.41" y="194.91" width="6.06" height="4.78"/>
      <rect class="cls-9" x="361.35" y="170.64" width="9.24" height="8.55"/>
      <rect class="cls-9" x="256.33" y="218.3" width="17.98" height="15.85"/>
      <rect class="cls-9" x="327.36" y="183.47" width="5.8" height="4.78"/>
      <g>
        <polygon class="cls-9" points="405.69 194.99 290.68 194.99 289.35 454.4 405.69 454.4 405.69 194.99"/>
        <rect class="cls-9" x="340.8" y="192.55" width="12.51" height="10.32"/>
        <rect class="cls-9" x="377.17" y="192.71" width="12.01" height="17"/>
        <rect class="cls-9" x="391.15" y="192.46" width="7.94" height="14.33"/>
        <rect class="cls-9" x="292.44" y="193.24" width="10.72" height="15.28"/>
        <rect class="cls-9" x="314.32" y="194.29" width="5.84" height="10.67"/>
        <rect class="cls-9" x="359.71" y="188.53" width="11.39" height="9.4"/>
      </g>
      <g>
        <path class="cls-9" d="m343.77,123.63c0,2.71-2.16,4.91-4.84,4.91s-4.84-2.2-4.84-4.91,2.16-4.91,4.84-4.91,4.84,2.2,4.84,4.91Z"/>
        <ellipse class="cls-9" cx="247.67" cy="102.79" rx="4.84" ry="4.91"/>
        <g>
          <path class="cls-9" d="m291.66,197.76l-1.6-.03,1.3-82.84h-55.91l1.28-1.35c.37-.39,9.05-9.53,11.07-11.04l.96,1.29c-1.34,1-6.29,6.07-9.58,9.5h53.8l-1.32,84.47Z"/>
          <path class="cls-9" d="m262.48,92.72c0,2.48-2.15,4.5-4.8,4.5s-4.8-2.01-4.8-4.5,2.15-4.5,4.8-4.5,4.8,2.01,4.8,4.5Z"/>
          <path class="cls-9" d="m271.41,81.45c0,2.48-2.15,4.5-4.8,4.5s-4.8-2.01-4.8-4.5,2.15-4.5,4.8-4.5,4.8,2.01,4.8,4.5Z"/>
          <ellipse class="cls-9" cx="299.57" cy="55.22" rx="4.16" ry="4.5"/>
          <path class="cls-9" d="m343.3,59.78c0,2.48-1.99,4.5-4.45,4.5s-4.45-2.01-4.45-4.5,1.99-4.5,4.45-4.5,4.45,2.01,4.45,4.5Z"/>
          <path class="cls-9" d="m352.52,23.04c0,2.48-1.98,4.5-4.43,4.5s-4.43-2.01-4.43-4.5,1.98-4.5,4.43-4.5,4.43,2.01,4.43,4.5Z"/>
          <ellipse class="cls-9" cx="376.06" cy="30.73" rx="4.35" ry="4.5"/>
          <path class="cls-9" d="m422.44,72.38c0,2.48-1.86,4.5-4.16,4.5s-4.16-2.01-4.16-4.5,1.86-4.5,4.16-4.5,4.16,2.01,4.16,4.5Z"/>
          <path class="cls-9" d="m360.08,83.35c0,2.48-1.93,4.5-4.32,4.5s-4.32-2.01-4.32-4.5,1.93-4.5,4.32-4.5,4.32,2.01,4.32,4.5Z"/>
          <path class="cls-9" d="m379.33,81.87c0,2.48-1.93,4.5-4.32,4.5s-4.32-2.01-4.32-4.5,1.93-4.5,4.32-4.5,4.32,2.01,4.32,4.5Z"/>
          <ellipse class="cls-9" cx="432.49" cy="88.53" rx="4.16" ry="4.5"/>
          <path class="cls-9" d="m365.71,13.47c0,2.48-1.98,4.5-4.43,4.5s-4.43-2.01-4.43-4.5,1.98-4.5,4.43-4.5,4.43,2.01,4.43,4.5Z"/>
          <path class="cls-9" d="m321.8,204.16h-1.6v-52.78c-1.34-1-8.21-5.14-12.5-7.69l-.39-.23v-40.72l-31.89-.36-14.38-9.82.91-1.32,13.98,9.55,32.99.37v41.39c12.89,7.65,12.89,7.91,12.89,8.48v53.13Z"/>
          <path class="cls-9" d="m340.87,200.61h-1.6v-54.69s-15.45-10.84-15.45-10.84v-47.97l-34.6-22.72c-6.6,6.16-16.17,15.15-16.69,15.76l-1.23-1.03c.71-.85,15.59-14.75,17.28-16.33l.46-.43,36.38,23.89v48l15.46,10.84v55.53Z"/>
          <polygon class="cls-9" points="339.74 124.63 338.14 124.63 338.14 74.57 360.63 60.02 360.63 17.72 362.23 17.72 362.23 60.89 339.74 75.44 339.74 124.63"/>
          <polygon class="cls-9" points="339.65 59.78 338.04 59.78 338.04 37.36 347.29 32.78 347.29 23.04 348.89 23.04 348.89 33.78 339.65 38.36 339.65 59.78"/>
          <polygon class="cls-9" points="354.83 201.99 353.23 201.99 353.23 140.91 366.1 129.56 366.1 121.68 355.32 111.92 355.32 86.68 356.92 86.68 356.92 111.21 367.7 120.97 367.7 130.29 354.83 141.63 354.83 201.99"/>
          <rect class="cls-9" x="375.57" y="81.87" width="1.6" height="125.41"/>
          <polygon class="cls-9" points="390.97 209.31 389.37 209.31 389.66 101.39 410.83 87.97 433.01 87.97 433.01 89.58 411.3 89.58 391.26 102.28 390.97 209.31"/>
          <polygon class="cls-9" points="405.84 221.11 404.24 221.11 404.24 112.45 454.98 111.16 433.53 91.57 434.61 90.38 459 112.66 405.84 114.02 405.84 221.11"/>
          <path class="cls-9" d="m419.35,73.37l-18.94-3.5-22.87-23.47-.04-.24c-.63-3.42-2.7-14.63-2.7-15.44h1.6-.8.8c.03.69,1.61,9.4,2.63,14.9l22.17,22.76,18.44,3.41-.29,1.58Z"/>
          <polygon class="cls-9" points="302.42 54.14 301.93 52.61 314.87 48.5 325.17 38.25 316.59 32.44 348.05 0 360.61 11.41 359.54 12.6 348.12 2.23 319.07 32.18 327.68 38.01 315.72 49.91 302.42 54.14"/>
        </g>
      </g>
    </g>
    <rect class="cls-9" x="421.62" y="234.15" width="12.19" height="12.19"/>
    <path class="cls-9" d="m250.31,214.87h-13.79v-13.79h13.79v13.79Zm-12.19-1.6h10.59v-10.59h-10.59v10.59Z"/>
  </g>
  <g>
    <rect class="cls-6" x="137.44" y="353.74" width="24.38" height="24.38"/>
    <rect class="cls-6" x="527.2" y="356.93" width="24.38" height="24.38"/>
    <rect class="cls-6" x="509.4" y="308.43" width="6.09" height="6.09"/>
    <rect class="cls-1" x="441.56" y="291.27" width="11.82" height="11.82"/>
    <rect class="cls-1" x="431.4" y="279.95" width="7.21" height="7.21"/>
    <path class="cls-1" d="m464.4,257.64h-8.81v-8.81h8.81v8.81Zm-7.21-1.6h5.61v-5.61h-5.61v5.61Z"/>
    <path class="cls-6" d="m532.46,328.03h-11.02v-11.02h11.02v11.02Zm-9.42-1.6h7.81v-7.81h-7.81v7.81Z"/>
    <path class="cls-6" d="m113.81,352.69h-11.02v-11.02h11.02v11.02Zm-9.42-1.6h7.81v-7.81h-7.81v7.81Z"/>
    <rect class="cls-1" x="224.8" y="327.72" width="16" height="16"/>
    <rect class="cls-1" x="240.79" y="301.2" width="8.13" height="8.13"/>
    <rect class="cls-6" x="153.57" y="246.72" width="8.13" height="8.13"/>
    <rect class="cls-6" x="556.54" y="387.64" width="8.13" height="8.13"/>
    <rect class="cls-6" x="130.33" y="394.55" width="8.13" height="8.13"/>
    <rect class="cls-1" x="217.73" y="281.42" width="13.84" height="13.84"/>
    <path class="cls-1" d="m268.29,275.59h-12.6v-12.6h12.6v12.6Zm-10.99-1.6h9.39v-9.39h-9.39v9.39Z"/>
  </g>
  <polygon class="cls-9" points="285.55 416.43 215.68 449.78 229.4 621.67 227.79 732.05 444.04 732.17 442.85 636.94 449.01 598.53 477.9 449.78 396.27 414.28 379.9 403.24 298.51 403.43 285.55 416.43"/>
  <g class="cls-12">
    <path class="cls-4" d="m227.44,688.8c3.61,4.57,10.47,4.74,16.17,3.6,19.2-3.83,36.7-17.69,56.14-15.33,12.43,1.51,24.53,9.64,36.56,6.18,4.15-1.19,7.9-3.72,12.17-4.31,6.24-.87,12.19,2.49,17.78,5.4,23.61,12.26,50.47,18.22,77.05,17.08l10.92-29.09-97.86-25.37-78.4-4.48-50.54,29.54v16.79Z"/>
  </g>
  <path class="cls-6" d="m332.05,732.05c-.23,0,.94-59.53,2.62-132.93,1.68-73.43,3.23-132.93,3.46-132.92.23,0-.94,59.51-2.62,132.94-1.68,73.4-3.23,132.91-3.46,132.91Z"/>
  <path class="cls-9" d="m474.83,449.78h0s18.4,5,28.1,45.01c4.08,16.85,25.36,157.19,22.47,176.7-2.89,19.5-32.43,39.35-76.57,33.23-24.37-3.38-66.29-24.78-66.29-24.78l32.34-43.12h31.06l12.28-9.21-9.91-38.03s19.3-127.46,26.52-139.8Z"/>
  <path class="cls-6" d="m502.93,629.53c-.08.13-2.33-1.35-6.19-3.28-3.86-1.87-9.46-4.2-16.01-4.74-3.26-.26-6.39,0-9.17.53-.69.16-1.36.31-2.02.46-.65.17-1.26.4-1.86.58-1.22.34-2.28.87-3.28,1.26-3.92,1.79-6.08,3.41-6.18,3.26-.03-.05.5-.46,1.49-1.17.97-.74,2.5-1.64,4.45-2.63,1-.44,2.07-1,3.3-1.38.61-.2,1.23-.45,1.89-.64.67-.17,1.36-.34,2.06-.51,2.84-.6,6.05-.88,9.39-.61,6.71.56,12.38,3.02,16.21,5.05,1.91,1.05,3.42,1.96,4.41,2.67,1,.69,1.54,1.09,1.51,1.14Z"/>
  <path class="cls-6" d="m425.45,636.94s.47-.08,1.35-.11c1-.03,2.27-.06,3.82-.1,3.42-.04,8.08-.09,13.61-.15l-.19.06c3.67-2.36,7.84-5.05,12.3-7.91l-.1.09c.83-.97,1.68-2.04,2.67-3,1.81-1.88,3.78-3.52,5.81-4.9,2-1.42,4.1-2.55,6.14-3.51,4.11-1.88,8.08-2.91,11.45-3.38,3.38-.47,6.14-.41,8.04-.28.95.07,1.68.2,2.17.26.49.08.75.13.75.16,0,.07-1.05-.01-2.93-.1-1.88-.04-4.61,0-7.93.53-3.31.54-7.19,1.61-11.21,3.49-1.99.97-4.04,2.08-6,3.49-1.98,1.36-3.91,2.97-5.68,4.81-.97.94-1.79,1.98-2.61,2.94l-.05.06-.05.03c-4.47,2.83-8.67,5.49-12.35,7.82l-.09.06h-.1c-5.53-.06-10.19-.11-13.61-.15-1.55-.04-2.82-.07-3.82-.1-.88-.04-1.35-.07-1.35-.11Z"/>
  <path class="cls-6" d="m338.13,466.2s.03.08,0,.23c0,.08-.05.18-.16.26-.12.07-.27.05-.42.01-.59-.19-1.29-.74-2.13-1.48-1.68-1.5-3.92-3.9-6.61-7.01-5.38-6.21-12.57-15.26-20.62-25.93l.6.05c-.77.91-1.37,2.26-1.95,3.52-.58,1.28-1.13,2.61-1.66,3.97-1.07,2.72-2.1,5.54-3.1,8.42-1.7,5-3.32,9.91-4.44,14.58l-.24.99-.51-.87c-7.1-12.11-10.03-24.19-10.99-32.74-.5-4.3-.59-7.75-.55-10.12,0-1.18.07-2.1.1-2.71.04-.62.07-.94.09-.94.02,0,.04.32.05.94.02.62,0,1.53.04,2.71.05,2.36.22,5.79.79,10.05,1.1,8.48,4.11,20.43,11.18,32.39l-.74.12c1.12-4.75,2.74-9.65,4.44-14.67,1-2.89,2.04-5.72,3.12-8.45.54-1.37,1.09-2.7,1.69-4.01.63-1.3,1.13-2.57,2.14-3.76l.3-.35.3.4c8,10.69,15.11,19.79,20.37,26.08,2.63,3.14,4.8,5.59,6.41,7.14.8.77,1.47,1.34,1.99,1.55.27.12.44,0,.47-.16.04-.13.04-.21.06-.21Z"/>
  <path class="cls-6" d="m396.27,414.28s.05.3.07.87c.02.57.07,1.42.05,2.51.02,2.19-.13,5.39-.48,9.37-.65,7.98-2.53,19.08-4.54,31.84l-.15.94-.57-.76c-2.88-3.81-5.65-8.09-8.51-12.47-2.25-3.44-4.47-6.78-6.78-9.88l.56.09c-11.09,8-21.05,14.7-27.53,20.31-3.29,2.73-5.84,5.03-7.57,6.63-.82.76-1.47,1.37-1.98,1.85-.45.42-.69.63-.71.61s.19-.26.61-.72c.42-.46,1.05-1.11,1.88-1.95,1.67-1.67,4.17-4.03,7.43-6.83,6.41-5.74,16.32-12.54,27.41-20.58l.32-.23.24.32c2.34,3.11,4.58,6.46,6.83,9.91,2.86,4.39,5.61,8.65,8.45,12.45l-.72.18c2.06-12.78,4.04-23.82,4.83-31.77.42-3.97.65-7.14.72-9.33.06-1.09.05-1.94.08-2.51.02-.57.04-.87.07-.87Z"/>
  <path class="cls-6" d="m437.83,535.41c-.02.23-12.72-.75-28.35-2.18-15.64-1.43-28.3-2.78-28.28-3.01s12.71.74,28.35,2.18c15.63,1.43,28.29,2.78,28.27,3.01Z"/>
  <g>
    <path class="cls-6" d="m297.33,342.08c-4.66-13.76-9.27-27.63-11.49-41.99-2.22-14.36-1.97-29.36,2.92-43.04.74-2.07,7.11-16.01,9.31-15.82,1.57.14-2.3,13.11-1.49,14.46,7.72,12.89,9.97,28.48,8.94,43.47-1.02,14.99-3.97,28.5-8.19,42.92"/>
    <path class="cls-11" d="m415.65,281.01c-1.33-33.93-28.5-61.13-62.42-62.53l-3.37-.14c-36.44.62-56.27,31.92-54.64,68.32l3.4,120.53,39.48,54.71,41.72-45.3c-.02-10.26,0-13.36.08-13.36,0,0,35.17-3.99,37.05-38.91.91-16.87-.06-51.76-1.29-83.33Z"/>
    <path class="cls-8" d="m379.9,403.24s-22.08.38-44.94-15.33c0,0,9.86,26.72,44.85,25.01l.08-9.69Z"/>
    <path class="cls-6" d="m399.34,312.27c-.01,2.64-2.26,4.8-5.02,4.84-2.75.03-4.97-2.07-4.96-4.71.02-2.64,2.26-4.8,5.01-4.84,2.76-.03,4.98,2.08,4.96,4.72Z"/>
    <path class="cls-6" d="m407.59,296.13c-.65.62-4.31-2.33-9.68-2.54-5.36-.29-9.42,2.31-9.97,1.63-.27-.3.4-1.45,2.17-2.63,1.74-1.17,4.67-2.27,8.02-2.11,3.34.16,6.11,1.5,7.67,2.83,1.6,1.34,2.11,2.53,1.79,2.81Z"/>
    <path class="cls-6" d="m351.48,312.27c-.02,2.64-2.26,4.8-5.02,4.84-2.75.03-4.97-2.07-4.96-4.71.02-2.64,2.26-4.8,5.02-4.84,2.76-.04,4.98,2.08,4.96,4.71Z"/>
    <path class="cls-6" d="m356.05,296.13c-.65.63-4.32-2.33-9.68-2.54-5.36-.28-9.42,2.32-9.97,1.63-.27-.3.4-1.45,2.17-2.63,1.74-1.17,4.67-2.26,8.01-2.11,3.34.16,6.11,1.51,7.67,2.83,1.59,1.34,2.11,2.54,1.79,2.81Z"/>
    <path class="cls-6" d="m372.46,337.25c-.01-.31,3.35-.75,8.79-1.21,1.38-.08,2.69-.3,2.96-1.23.36-.98-.15-2.48-.75-4.1-1.15-3.37-2.36-6.91-3.62-10.61-5.02-15.1-8.59-27.49-7.98-27.69.61-.2,5.17,11.88,10.19,26.98,1.2,3.72,2.36,7.27,3.45,10.66.45,1.58,1.27,3.38.49,5.41-.41,1.01-1.45,1.71-2.34,1.91-.89.23-1.66.22-2.34.23-5.45.07-8.83-.05-8.84-.35Z"/>
    <path class="cls-6" d="m356.04,284.33c-.73,1.35-5.29-.2-10.94-.47-5.64-.4-10.41.6-10.91-.83-.21-.68.81-1.89,2.87-2.94,2.04-1.06,5.12-1.86,8.5-1.66,3.38.2,6.3,1.35,8.14,2.64,1.85,1.29,2.66,2.61,2.34,3.25Z"/>
    <path class="cls-6" d="m408.49,275.87c-1.15,1.19-5.49-.19-10.75-.39-5.25-.35-9.73.56-10.73-.74-.43-.63.3-1.83,2.28-2.94,1.95-1.1,5.18-1.96,8.79-1.77,3.61.19,6.71,1.38,8.51,2.68,1.83,1.3,2.4,2.58,1.89,3.16Z"/>
    <path class="cls-11" d="m297,312.65c-.58-.28-23.71-8.09-23.94,15.83-.22,23.92,23.84,19.21,23.88,18.52.05-.69.05-34.35.05-34.35Z"/>
    <path class="cls-8" d="m289.73,337.87c-.1-.08-.42.29-1.13.6-.69.31-1.87.51-3.12.03-2.52-.95-4.61-4.98-4.68-9.29-.04-2.18.44-4.25,1.22-5.95.75-1.74,1.89-2.95,3.16-3.17,1.27-.28,2.16.49,2.45,1.17.31.67.16,1.15.28,1.19.07.06.52-.4.33-1.39-.09-.48-.37-1.04-.93-1.51-.57-.47-1.41-.72-2.3-.63-1.85.11-3.52,1.79-4.39,3.67-.97,1.88-1.55,4.21-1.51,6.65.11,4.82,2.53,9.35,5.98,10.39,1.68.46,3.09-.04,3.82-.6.75-.58.88-1.12.79-1.16Z"/>
    <path class="cls-6" d="m400.2,241.37c3.87-2.13-7.74-14.68-17.25-19-14.37-6.53-36.33-10.56-49.59-6.81-15.96,4.52-29.23,12.45-37.25,26.97-8.02,14.52-11.04,31.45-10.59,48.03.14,5.06.66,10.33,3.36,14.61,3.34,5.29,9.75,8.63,9.46,15.92-.1,2.67.66,5.36,2.48,7.3,4.37,4.66,9.73.29,12.19-4.1,5.26-9.37,5.85-20.55,6.32-31.28.33-7.63.65-15.42-1.5-22.75-1.17-3.99-3.05-7.76-3.99-11.8-.95-4.05-.82-8.64,1.7-11.94.41-.54,1.09-1.21,1.94-1.96,6.78-5.93,16.26-7.71,24.75-4.7,13.47,4.77,36.47,11.9,42.48,7.33,8.65-6.57,10.72-10.86,10.72-10.86l4.75,5.02Z"/>
    <path class="cls-6" d="m355.59,340.58c.82-.05.86,5.44,5.58,9.32,4.71,3.89,10.56,3.25,10.61,4.01.08.34-1.3,1.07-3.77,1.15-2.42.09-5.97-.67-8.86-3.04-2.88-2.38-4.13-5.56-4.32-7.82-.22-2.3.39-3.66.76-3.63Z"/>
  </g>
  <path class="cls-9" d="m215.68,449.78s-20.66,16.71-26,41.2c-5.34,24.48-34.67,137.17-35.4,153.79-.72,16.61,0,52.01,30.7,52.73,30.7.72,108.43-35.11,108.43-35.11l-14.82-44.95-48.46,1.33-14.45-168.98Z"/>
  <path class="cls-4" d="m278.59,617.43s-.41.08-1.19.15c-.86.07-1.99.15-3.41.26-3.05.2-7.32.47-12.55.81-5.33.31-11.63.69-18.61,1.1-3.51.2-7.18.41-10.99.62-3.8.19-7.75.45-11.69,1.16-2.09.39-4.14.17-6.1-.07-1.97-.25-3.88-.6-5.76-.78-3.74-.24-7.42.13-10.79.96-6.77,1.67-12.21,5.14-16.17,8.57-4,3.45-6.57,6.93-8.23,9.36-.83,1.22-1.43,2.21-1.82,2.88-.4.67-.63,1.01-.65,1-.03-.01.15-.38.51-1.08.34-.71.9-1.72,1.69-2.98,1.6-2.5,4.11-6.07,8.12-9.63,3.97-3.53,9.47-7.13,16.38-8.88,3.44-.86,7.17-1.27,11.05-1.03,1.93.18,3.84.53,5.79.77,1.94.23,3.93.43,5.84.07,4.03-.73,7.99-.97,11.81-1.15,3.81-.2,7.49-.39,10.99-.57,6.99-.35,13.29-.66,18.62-.92,5.23-.23,9.5-.42,12.56-.55,1.42-.04,2.55-.08,3.42-.11.78-.02,1.19,0,1.19.02Z"/>
  <path class="cls-9" d="m231.44,618.72s-.08-.38-.17-1.1c-.08-.81-.18-1.85-.31-3.15-.27-2.84-.64-6.77-1.1-11.6-.94-9.79-2.41-23.3-4.05-38.22-1.64-14.93-3.01-28.45-3.81-38.26-.4-4.9-.69-8.88-.83-11.62-.06-1.31-.12-2.36-.16-3.17-.03-.72-.03-1.11,0-1.11.03,0,.08.38.17,1.1.08.8.18,1.85.31,3.15.27,2.84.64,6.77,1.1,11.6.94,9.79,2.41,23.3,4.05,38.23,1.64,14.92,3.01,28.45,3.81,38.26.4,4.9.69,8.88.83,11.63.06,1.31.12,2.36.16,3.17.03.72.03,1.11,0,1.11Z"/>
  <path class="cls-9" d="m290.46,663.71s-.24.18-.74.46c-.58.32-1.31.71-2.19,1.19-1.91,1.02-4.72,2.41-8.23,4.05-7.01,3.28-16.86,7.47-27.95,11.56-11.08,4.1-21.27,7.38-28.71,9.5-3.72,1.06-6.76,1.85-8.86,2.35-.98.22-1.78.4-2.43.54-.56.12-.85.16-.86.13,0-.03.28-.13.82-.3.64-.19,1.43-.41,2.39-.69,2.08-.6,5.08-1.47,8.78-2.6,7.39-2.26,17.53-5.62,28.59-9.71,11.06-4.08,20.93-8.17,27.99-11.31,3.53-1.57,6.38-2.87,8.33-3.8.91-.42,1.66-.77,2.26-1.04.52-.23.8-.34.81-.31Z"/>
  <path class="cls-6" d="m465.64,485.05s.01.14,0,.4c-.03.31-.06.69-.1,1.16-.11,1.09-.27,2.57-.47,4.45-.42,3.86-1.09,9.45-1.95,16.35-1.74,13.79-4.36,32.82-7.57,53.78-3.21,20.97-6.36,39.92-8.7,53.62-1.19,6.79-2.15,12.32-2.83,16.22-.34,1.86-.62,3.33-.82,4.4-.09.46-.17.84-.23,1.14-.06.26-.09.39-.11.38-.01,0,0-.14.02-.4.04-.31.09-.69.15-1.15.16-1.08.38-2.56.66-4.43.62-3.91,1.49-9.45,2.57-16.26,2.19-13.72,5.25-32.68,8.46-53.65,3.21-20.96,5.92-39.96,7.81-53.73.93-6.83,1.68-12.39,2.22-16.31.26-1.87.47-3.35.63-4.43.07-.46.13-.84.18-1.15.05-.26.08-.39.09-.39Z"/>
  <path class="cls-6" d="m465.04,706.13s-.31.02-.89-.03c-.67-.06-1.51-.14-2.53-.24-2.2-.21-5.36-.63-9.26-1.25-7.79-1.25-18.49-3.52-29.98-7.15-5.74-1.82-11.14-3.79-15.99-5.74-4.82-2-9.13-3.89-12.66-5.67-1.78-.85-3.36-1.68-4.74-2.42-1.39-.72-2.58-1.37-3.53-1.93-.89-.52-1.61-.94-2.19-1.28-.5-.3-.75-.47-.74-.5.01-.03.3.1.82.35.6.3,1.35.68,2.26,1.14.97.52,2.18,1.12,3.58,1.8,1.4.69,2.99,1.49,4.79,2.3,3.55,1.7,7.87,3.53,12.69,5.48,4.84,1.9,10.23,3.84,15.95,5.66,11.45,3.62,22.09,5.97,29.83,7.37,3.87.69,7.02,1.21,9.2,1.51,1.01.16,1.84.29,2.51.39.57.1.87.16.87.19Z"/>
  <g class="cls-12">
    <path class="cls-4" d="m390.91,459.65c-5.69-6.87-9.5-15.7-14.34-23.19-13.4,7.9-26.14,18.08-38.44,29.74,11.17-6.44,22.53-12.32,33.37-19.3,6.76,8.75,13.52,17.51,20.28,26.26.43-8.49.86-16.97,1.28-25.45-.72,3.98-1.44,7.97-2.16,11.95Z"/>
  </g>
  <g>
    <g class="cls-12">
      <path class="cls-4" d="m450.05,593.39c.25-1.14.48-2.31.72-3.47-.46,1.16-.92,2.31-1.39,3.47h.66Z"/>
    </g>
    <g class="cls-12">
      <path class="cls-4" d="m463.62,498.34c-3.65,28.23-6.98,63.21-12.84,91.59,5.62-14.06,11.08-28.24,14.18-43.05,3.35-16.03,3.81-32.99-1.34-48.53Z"/>
    </g>
  </g>
  <g>
    <g class="cls-12">
      <path class="cls-4" d="m239.85,582.97c-.25-1.14-.48-2.31-.72-3.47.46,1.16.92,2.31,1.39,3.47h-.66Z"/>
    </g>
    <g class="cls-12">
      <path class="cls-4" d="m226.28,487.92c3.65,28.23,6.98,63.21,12.84,91.59-5.62-14.06-11.08-28.24-14.18-43.05-3.35-16.03-3.81-32.99,1.34-48.53Z"/>
    </g>
  </g>
  <g>
    <path class="cls-11" d="m283.9,589.57s-9.77,5-11.2,9.05c-1.43,4.05,0,8.34,0,8.34l5.28,17.4v18.11s4.25,18.38,8.3,20.25c4.05,1.87,11.2,1.67,15.97-5.96,4.77-7.63,6.43-13.82,6.43-13.82l8.34-34.55,2.38-17.63-22.64,11.68-6.36,8.8-6.27-9.99s5.11-5,4.7-8.1c-.41-3.1-4.94-3.57-4.94-3.57Z"/>
    <path class="cls-8" d="m278.62,602.63c.03-.24,1.33-.22,2.86-.55,1.53-.31,2.71-.84,2.84-.64.13.18-.97,1.11-2.67,1.46-1.69.36-3.07-.05-3.03-.27Z"/>
  </g>
  <g>
    <path class="cls-6" d="m288.85,650.51l1.63-73.45c.12-5.28,4.17-9.53,9.19-9.64l125.38-2.76c6.18-.14,10.8,5.93,9.31,12.24l-18.81,79.94c-1.06,4.52-4.99,7.65-9.42,7.49l-108.19-3.73c-5.15-.18-9.2-4.68-9.08-10.09Z"/>
    <path class="cls-7" d="m368.05,586.85l-.99-.16c-3.42-.21-6.31,3.85-4.99,7.02,1.32,3.16,6.24,3.96,8.5,1.38,2.26-2.58.8-7.35-2.51-8.24Z"/>
    <path class="cls-1" d="m420.87,572.93c0,.23-26.81.88-59.89,1.44-33.09.57-59.9.84-59.91.61,0-.23,26.81-.88,59.89-1.44,33.08-.57,59.9-.84,59.9-.61Z"/>
  </g>
  <g>
    <path class="cls-11" d="m322.63,589.84s6.96-6.96,15.24-2.32c8.28,4.64,36.1,24.51,45.71,27.16,9.6,2.65,19.21,4.64,26.5,0,7.29-4.64,12.59-10.6,12.92-16.56.33-5.96,3.97-18.88,11.92-19.21l3.97,2.98s-1.66,19.21-1.66,27.49-7.29,19.87-7.29,19.87l-5.35,9.16,2.7,10.05s-3.31,15.24-11.59,23.18c-8.28,7.95-24.58,8.28-24.58,8.28l-52.92-33.12-49.35-14.57s1.32-6.62,7.95-6.96c6.62-.33,17.55,4.14,17.55,4.14l-25.5-19.38s1.32-6.96,9.27-5.96c7.95.99,36.43,17.58,36.43,17.58l-29.15-29.17s-.66-7.62,6.29-7.95c6.96-.33,10.93,5.3,10.93,5.3Z"/>
    <path class="cls-8" d="m363.74,622.14s-.67-.31-1.81-1.01c-1.13-.69-2.75-1.72-4.74-3.02-3.97-2.6-9.42-6.25-15.24-10.58-5.82-4.33-10.86-8.56-14.24-11.91-1.7-1.66-3-3.09-3.85-4.11-.84-1.03-1.28-1.62-1.24-1.66.04-.04.57.48,1.48,1.44.92.95,2.27,2.3,4.02,3.9,3.46,3.22,8.54,7.36,14.34,11.67,5.79,4.32,11.19,8.04,15.07,10.76,1.83,1.29,3.37,2.38,4.59,3.24,1.08.78,1.66,1.23,1.63,1.28Z"/>
    <path class="cls-8" d="m346.16,629.37c-.1.19-3.61-1.44-7.5-4.19-3.9-2.74-6.61-5.5-6.46-5.66.16-.18,3.1,2.27,6.94,4.98,3.84,2.72,7.13,4.66,7.02,4.87Z"/>
    <path class="cls-8" d="m338.24,642.58c-.11.2-6.25-2.93-13.72-7-7.47-4.07-13.43-7.53-13.32-7.73.11-.2,6.25,2.93,13.72,7,7.47,4.07,13.43,7.53,13.32,7.73Z"/>
  </g>
  <g>
    <path class="cls-1" d="m424.88,361.13c.38,0,40.59.68,40.59.68l-19.78-25.43-20.81,24.75Z"/>
    <rect class="cls-1" x="437.31" y="381.07" width="6.88" height="6.88"/>
    <rect class="cls-1" x="444.19" y="388.33" width="6.28" height="6.12"/>
    <rect class="cls-1" x="437.62" y="397.04" width="5.28" height="5.28"/>
    <rect class="cls-1" x="450.47" y="382.72" width="5.28" height="5.28"/>
    <rect class="cls-1" x="433.22" y="388.33" width="3.77" height="3.77"/>
    <path class="cls-1" d="m449.08,410.28h-5.38v-5.38h5.38v5.38Zm-3.77-1.6h2.17v-2.17h-2.17v2.17Z"/>
    <rect class="cls-1" x="450.74" y="394.83" width="3.77" height="3.77"/>
    <path class="cls-1" d="m455.69,357.81l-21.09.23v24.78h21.16l-.07-25.01Zm-6.74,20.62h-3.77v-3.77h3.77v3.77Z"/>
  </g>
  <g>
    <path class="cls-10" d="m288.54,520.58c.42,0,45.31.76,45.31.76l-22.08-28.39-23.23,27.63Z"/>
    <rect class="cls-10" x="301.91" y="542.84" width="7.68" height="7.68"/>
    <rect class="cls-10" x="309.24" y="551.25" width="7.68" height="7.68"/>
    <rect class="cls-10" x="301.91" y="561.59" width="5.9" height="5.9"/>
    <rect class="cls-10" x="316.17" y="544.69" width="5.9" height="5.9"/>
    <rect class="cls-10" x="297.69" y="551.92" width="4.21" height="4.21"/>
    <rect class="cls-10" x="317.01" y="558.52" width="4.21" height="4.21"/>
    <path class="cls-10" d="m321.53,516.88l-21.62.26-1.39,27.66h23.62l-.62-27.92Zm-7.6,23.02h-4.21v-4.21h4.21v4.21Z"/>
  </g>
  <g>
    <path class="cls-1" d="m212.82,406.84c.61.01,66.08,1.11,66.08,1.11l-32.2-41.4-33.88,40.29Z"/>
    <rect class="cls-1" x="232.31" y="439.31" width="11.2" height="11.2"/>
    <rect class="cls-1" x="243.51" y="450.63" width="9.6" height="9.6"/>
    <rect class="cls-1" x="232.31" y="462.35" width="8.6" height="8.6"/>
    <rect class="cls-1" x="253.11" y="441.99" width="8.6" height="8.6"/>
    <rect class="cls-1" x="226.17" y="451.57" width="6.14" height="6.14"/>
    <path class="cls-1" d="m250.64,482.22h-7.75v-7.75h7.75v7.75Zm-6.14-1.6h4.54v-4.54h-4.54v4.54Z"/>
    <rect class="cls-1" x="253.11" y="461.15" width="6.14" height="6.14"/>
    <path class="cls-1" d="m261.83,402.02l-34.19-.19-.26,40.32h34.45v-40.14Zm-11.99,32.99h-6.14v-6.14h6.14v6.14Z"/>
  </g>
  <g>
    <path class="cls-10" d="m402.16,460.57c.49,0,53.27.9,53.27.9l-25.95-33.38-27.31,32.48Z"/>
    <rect class="cls-10" x="417.87" y="486.74" width="9.03" height="9.03"/>
    <rect class="cls-10" x="426.49" y="496.63" width="9.03" height="9.03"/>
    <rect class="cls-10" x="417.87" y="508.78" width="6.94" height="6.94"/>
    <rect class="cls-10" x="434.64" y="488.91" width="6.94" height="6.94"/>
    <rect class="cls-10" x="412.92" y="497.41" width="4.95" height="4.95"/>
    <path class="cls-10" d="m432.65,524.82h-6.56v-6.56h6.56v6.56Zm-4.95-1.6h3.35v-3.35h-3.35v3.35Z"/>
    <rect class="cls-10" x="435.63" y="505.17" width="4.95" height="4.95"/>
    <path class="cls-10" d="m440.94,456.21l-25.41.3-1.63,32.52h27.77l-.73-32.83Zm-7.46,27.33h-4.95v-4.95h4.95v4.95Z"/>
  </g>
  <g>
    <path class="cls-10" d="m4.36,404.85c.61.01,66.08,1.11,66.08,1.11l-32.2-41.4-33.88,40.29Z"/>
    <rect class="cls-10" x="23.85" y="437.32" width="11.2" height="11.2"/>
    <rect class="cls-10" x="35.05" y="448.64" width="9.6" height="9.6"/>
    <rect class="cls-10" x="23.85" y="460.36" width="8.6" height="8.6"/>
    <rect class="cls-10" x="44.65" y="440" width="8.6" height="8.6"/>
    <rect class="cls-10" x="17.71" y="449.58" width="6.14" height="6.14"/>
    <rect class="cls-10" x="35.23" y="473.29" width="6.14" height="6.14"/>
    <rect class="cls-10" x="44.65" y="459.17" width="6.14" height="6.14"/>
    <path class="cls-10" d="m53.37,400.03l-34.19-.19-.26,40.32h34.45v-40.14Zm-11.99,32.99h-6.14v-6.14h6.14v6.14Z"/>
  </g>
  <g>
    <path class="cls-10" d="m614.39,636.19c.47,0,51.06.86,51.06.86l-24.88-31.99-26.18,31.14Z"/>
    <rect class="cls-10" x="629.45" y="661.28" width="8.65" height="8.65"/>
    <rect class="cls-10" x="638.1" y="670.03" width="7.42" height="7.42"/>
    <rect class="cls-10" x="629.45" y="679.08" width="6.65" height="6.65"/>
    <rect class="cls-10" x="645.52" y="663.35" width="6.65" height="6.65"/>
    <rect class="cls-10" x="624.7" y="670.75" width="4.75" height="4.75"/>
    <rect class="cls-10" x="638.24" y="689.07" width="4.75" height="4.75"/>
    <rect class="cls-10" x="645.52" y="678.16" width="4.75" height="4.75"/>
    <path class="cls-10" d="m652.26,632.46l-26.42-.14-.2,31.16h26.62v-31.02Zm-9.27,25.49h-4.75v-4.75h4.75v4.75Z"/>
  </g>
  <g>
    <path class="cls-10" d="m609.05,157.5c.61.01,66.08,1.11,66.08,1.11l-32.2-41.4-33.88,40.29Z"/>
    <rect class="cls-10" x="628.54" y="189.97" width="11.2" height="11.2"/>
    <rect class="cls-10" x="639.74" y="201.3" width="9.6" height="9.6"/>
    <rect class="cls-10" x="628.54" y="213.02" width="8.6" height="8.6"/>
    <rect class="cls-10" x="649.34" y="192.66" width="8.6" height="8.6"/>
    <rect class="cls-10" x="622.4" y="202.24" width="6.14" height="6.14"/>
    <rect class="cls-10" x="639.92" y="225.94" width="6.14" height="6.14"/>
    <rect class="cls-10" x="649.34" y="211.82" width="6.14" height="6.14"/>
    <path class="cls-10" d="m658.05,152.69l-34.19-.19-.26,40.32h34.45v-40.14Zm-11.99,32.99h-6.14v-6.14h6.14v6.14Z"/>
  </g>
</svg>