<?xml version="1.0" encoding="UTF-8"?>
<svg id="Capa_1" data-name="Capa 1" xmlns="http://www.w3.org/2000/svg" viewBox="0 0 784.09 476.51">
  <defs>
    <style>
      .cls-1 {
        fill: #ff735d;
      }

      .cls-1, .cls-2, .cls-3, .cls-4, .cls-5, .cls-6, .cls-7, .cls-8, .cls-9, .cls-10, .cls-11, .cls-12, .cls-13, .cls-14 {
        stroke-width: 0px;
      }

      .cls-2 {
        fill: #375a64;
      }

      .cls-3 {
        fill: #e1e1e1;
      }

      .cls-4 {
        fill: #ececec;
      }

      .cls-5 {
        fill: #04c4d9;
      }

      .cls-6 {
        fill: #f5f5f5;
      }

      .cls-7 {
        fill: #1a2e35;
      }

      .cls-8 {
        fill: #fff;
      }

      .cls-9 {
        fill: #ff9c6a;
      }

      .cls-10 {
        fill: #fafafa;
      }

      .cls-11 {
        fill: #c27460;
      }

      .cls-12 {
        fill: #7c4235;
      }

      .cls-13 {
        fill: #191f40;
      }

      .cls-14 {
        fill: #ffc19d;
      }
    </style>
  </defs>
  <g>
    <g>
      <path class="cls-3" d="m324.89,362c-4.35-2.73-9.34-4.45-14.45-4.97-2.36-.24-4.94-.17-6.84,1.26-.4.3-.79.75-.7,1.25.07.36.37.63.67.85,5.88,4.49,14.78,5.05,21.33,1.62"/>
      <path class="cls-3" d="m324.52,361.59c-3.27-2.55-6.56-5.12-9.34-8.21-2.77-3.09-5.02-6.76-5.85-10.82-.25-1.23-.33-2.64.46-3.62,7.44,5.81,13.29,13.33,14.73,22.66"/>
      <path class="cls-3" d="m324.81,361.95c-.56-4.07-.76-8.26.17-12.26.93-4,3.11-7.83,6.53-10.11,1.29,3.01.73,6.47-.17,9.61-1.4,4.85-3.6,9.48-6.47,13.63"/>
      <path class="cls-3" d="m332.11,375.02c-4.43.54-8.29,2.87-11.59,5.87-3.31,2.99-5.66,7.03-6.63,11.38,4.34-.27,8.03-3.33,10.7-6.77,2.67-3.43,4.52-7.2,7.46-10.42"/>
      <path class="cls-3" d="m333.69,377.11c-3.57-8.79-2.27-19.37,3.3-27.04,2.52,8.97,1.6,19.11-3.3,27.04"/>
      <path class="cls-3" d="m343.33,388.59c-4.02-.25-8.1.71-11.59,2.72-3.49,2.01-6.37,5.06-8.17,8.66-.25.49-.46,1.11-.13,1.55.28.38.84.42,1.31.39,3.9-.25,7.35-2.6,10.2-5.27,2.85-2.67,5.33-5.75,8.48-8.06"/>
      <path class="cls-3" d="m343.02,387.96c-2.07-6.63-2.2-13.86-.37-20.56.72-2.65,1.94-5.43,4.39-6.68.21-.11.45-.2.67-.12.21.08.33.29.42.49.87,1.82,1.12,3.88,1.03,5.9-.09,2.01-.51,4-.92,5.97-.77,3.65-1.18,7.57-3.18,10.72-.48.75-.89,1.55-1.27,2.35-.38.8-.38,1.08-.73,1.72"/>
      <path class="cls-3" d="m368.54,391.76c-1.89-7.19.12-15.91,4.65-21.8.33-.43.78-.9,1.32-.85.83.08,1.05,1.19,1.01,2.03-.33,7.35-2.78,14.59-6.98,20.62"/>
      <path class="cls-3" d="m370.84,393.33c8.74,2.27,18.76.06,26.02-5.29-4.31-2.18-9.38-2.81-14.09-1.73s-9.01,3.18-11.94,7.02"/>
      <path class="cls-3" d="m372.78,388.55c4.89-7.98,14.27-13.18,23.62-13.66-1.08,3.8-4.2,6.76-7.72,8.54-3.52,1.79-7.46,2.56-11.34,3.32-1.51.29-3.58.62-4.56,1.8"/>
      <path class="cls-3" d="m369.02,365.32c1.32-4.54,2.66-9.12,3.02-13.83.36-4.71-.31-9.64-2.75-13.68-4.57,8.84-5.03,19.18-.4,27.99"/>
      <path class="cls-3" d="m384.41,357.54c5.34-9.71,16.25-17.47,27.28-18.56-4.26,10.6-15.86,18.79-27.28,18.56"/>
      <path class="cls-3" d="m381.05,359.44c7.97,1.21,14.76,6.3,22.21,9.39,1.59.66,3.31,1.19,5.02.96,1.71-.22,3.4-1.37,3.78-3.05.32-1.4-.32-2.88-1.32-3.9-1-1.02-2.33-1.66-3.65-2.21-8.11-3.38-16.81-3.46-25.36-1.41"/>
      <path class="cls-3" d="m376.44,365.03c1.8.52,2.42,1.45,3.85,2.67,4.85,4.13,10.66,7.12,16.84,8.65.64.16,1.49.22,1.81-.36.28-.51-.07-1.12-.44-1.57-2.59-3.24-6.28-5.46-10.17-6.9-3.89-1.45-7.25-3.19-11.89-2.82"/>
      <path class="cls-3" d="m371.23,331.27c6.48,6.05,15.61,9.16,24.44,8.31.4-.04.84-.1,1.11-.4.61-.67-.12-1.7-.84-2.26-7.18-5.6-15.89-7.92-24.71-5.65"/>
      <path class="cls-3" d="m377.4,329.01c8.57-6.42,20.32-8.36,30.49-5.03-3.84,3.78-9.17,5.82-14.53,6.38-5.36.56-10.73-.04-15.96-1.35"/>
      <path class="cls-3" d="m374.95,313.5c-.71-7.17-.25-12.83-.75-20.04-.04-.58-.16-1.27-.7-1.48-.75-.29-1.37.63-1.62,1.4-2.14,6.64-.97,14.26,3.06,19.96"/>
      <path class="cls-3" d="m374.43,314.29c4.86-3.01,8.51-6.93,11.88-11.54,2.35-3.21,4.32-7.06,3.79-11-3.29-.07-6.43,1.75-8.57,4.26-2.14,2.5-3.42,5.63-4.37,8.79-.95,3.16-1.62,6.4-2.73,9.5"/>
      <path class="cls-3" d="m386.1,311.05c10.67-3.94,20.62-9.81,29.23-17.24-3.49-1.41-7.49-.56-10.98.84-7.98,3.22-14.49,8.65-18.4,16.31"/>
      <path class="cls-3" d="m377.72,318.21c5.4.59,10.88.97,16.23.08,5.26-.88,10.24-2.97,15.15-5.04.41-.17.85-.38,1.03-.78.19-.44-.01-.97-.37-1.3-.36-.32-.83-.48-1.29-.61-5.35-1.5-11.12-.8-16.38.98-5.26,1.77-9.57,3.88-14.38,6.66"/>
      <path class="cls-3" d="m346.9,331.51c-3.68-7.43-3.44-16.1-.26-23.76,2.24,3.41,2.51,7.76,2.1,11.82-.41,4.06-1.65,8.24-1.73,12.32"/>
      <path class="cls-3" d="m332.19,324.1c-9.19-.18-18.39,3.74-24.63,10.49,4.59.72,9.31-.46,13.49-2.5,4.17-2.04,7.88-4.9,11.56-7.74"/>
      <path class="cls-3" d="m322.3,320.79c-4.5-.36-8.82-.92-13.15.4-4.32,1.32-8.26,4.33-10.02,8.5,4.21.47,8.47-.58,12.33-2.33,3.86-1.75,7.36-4.17,10.84-6.57"/>
      <path class="cls-3" d="m336.95,320.94c-4.05-2.65-8.2-5.35-12.91-6.45-4.71-1.1-10.17-.29-13.45,3.26,3.81,2.24,8.44,2.5,12.86,2.5,4.42,0,9.84-.05,14.01,1.42"/>
      <path class="cls-3" d="m336.97,321.15c-6.92-6.79-9.54-18.99-6.76-28.28,5.44,8.26,7.87,18.45,6.76,28.28"/>
      <path class="cls-3" d="m355.99,301.91c1.3-3.03,2.22-6.21,3.39-9.3,1.17-3.09,2.62-6.12,4.84-8.57,2.21-2.45,5.27-4.28,8.57-4.44-2.06,9.34-8.27,17.69-16.62,22.36"/>
      <path class="cls-3" d="m352.55,305.92c-2.16-2.97-4.65-7-7.58-9.22-2.93-2.22-6.74-3.56-10.31-2.71,3.63,6.49,10.5,11.07,17.89,11.93"/>
      <path class="cls-3" d="m353.23,302.16c-1.41-3.6-2.84-7.23-3.41-11.05-.57-3.82-.22-7.9,1.73-11.23,3.8,7.18,5.02,14.88,1.88,22.37"/>
      <path class="cls-3" d="m356.02,279.88c2.15-7.11,8.66-12.35,15.7-14.76.89-.3,1.83-.56,2.75-.41.93.14,1.83.78,2.03,1.69.26,1.21-.74,2.29-1.68,3.1-5.48,4.68-11.91,8.24-18.79,10.38"/>
      <path class="cls-3" d="m356.1,274.06c.27-4.59.56-9.24,2.05-13.59,1.49-4.35,4.37-8.42,8.55-10.33.71,4.63-1.33,9.24-3.8,13.23-2.47,3.99-5.44,7.75-6.92,12.2"/>
      <path class="cls-3" d="m355.99,277.21c-1.78-5.18-1.96-11.77-5.07-16.29-2.17-3.16-5.65-5.31-7.52-8.65-1.24,3.12-.86,6.72.44,9.82,1.3,3.1,3.45,5.77,5.74,8.22,2.3,2.45,4.26,4.3,6.4,6.89"/>
      <path class="cls-3" d="m356.02,429.9c-.14,0-.26-34.59-.27-77.24,0-42.67.09-77.25.23-77.25s.26,34.58.27,77.25c0,42.66-.09,77.24-.23,77.24Z"/>
      <path class="cls-3" d="m386.25,326.3s-.45.21-1.3.49c-.93.32-2.14.72-3.58,1.21-3.02,1.03-7.16,2.52-11.66,4.36-4.45,1.91-8.66,3.46-11.05,5.54-1.2,1.02-1.88,2.13-2.22,2.94-.34.81-.4,1.31-.45,1.3-.02,0-.01-.13.01-.36.04-.23.1-.58.25-1.01.29-.85.96-2.04,2.17-3.13,1.2-1.1,2.88-2.08,4.79-2.98,1.92-.89,4.04-1.83,6.3-2.76,4.51-1.85,8.69-3.29,11.74-4.23,1.52-.48,2.77-.83,3.63-1.06.86-.23,1.35-.34,1.36-.3Z"/>
      <path class="cls-3" d="m396.15,301.96s-.11.15-.36.39c-.29.28-.66.62-1.11,1.04-1.03.94-2.43,2.21-4.14,3.76-3.58,3.19-8.43,7.51-13.79,12.28-5.38,4.79-10.04,9.37-13.26,12.82-1.61,1.72-2.89,3.15-3.75,4.14-.4.46-.74.84-1,1.14-.23.26-.36.39-.37.38-.01-.01.09-.16.3-.44.21-.28.51-.69.93-1.21.82-1.04,2.06-2.5,3.64-4.26,3.17-3.52,7.79-8.15,13.19-12.95,5.4-4.78,10.32-9.07,13.89-12.17,1.75-1.5,3.19-2.74,4.25-3.64.47-.39.86-.71,1.17-.97.27-.22.42-.33.43-.31Z"/>
      <path class="cls-3" d="m370.94,324.31c-.14-.06.98-2.66,2.1-5.94,1.13-3.28,1.66-6.05,1.81-6.03.13.01-.19,2.87-1.33,6.19-.56,1.66-1.19,3.12-1.67,4.16-.49,1.04-.84,1.65-.9,1.63Z"/>
      <path class="cls-3" d="m356.05,345.24s-.32-.32-.83-.96c-.56-.72-1.28-1.64-2.13-2.72-1.79-2.31-4.25-5.49-7.02-8.98-2.77-3.49-5.31-6.61-7.15-8.87-.87-1.08-1.6-1.98-2.17-2.69-.51-.64-.78-1-.75-1.03.03-.02.34.3.9.9.55.6,1.34,1.48,2.29,2.59,1.91,2.21,4.5,5.3,7.27,8.79,2.77,3.49,5.2,6.71,6.91,9.08.86,1.18,1.54,2.15,2,2.82.46.68.7,1.06.67,1.08Z"/>
      <path class="cls-3" d="m349.43,336.73c-.08.09-1.85-2.01-2.78-5.2-.68-2.25-.71-4.3-.63-5.24l.22.02c-.1.4-.17.61-.21.61-.04,0-.04-.23,0-.64l.22.02c.08.93.22,2.92.89,5.1.89,3.09,2.43,5.26,2.3,5.34Z"/>
      <path class="cls-3" d="m340.87,325.97c-.06.07-.63-.65-1.94-1.13-1.29-.5-3.24-.61-5.38-.43-2.14.16-4.05.54-5.42.87-1.37.34-2.2.61-2.23.54-.02-.06.77-.44,2.14-.88,1.36-.43,3.3-.87,5.48-1.03,2.16-.19,4.21-.02,5.55.6,1.36.6,1.85,1.44,1.81,1.45Z"/>
      <path class="cls-3" d="m338.84,323.36c-.04.08-1.13-.45-2.97-1.08-1.84-.63-4.45-1.29-7.41-1.53-2.96-.22-5.64.04-7.56.38-1.91.34-3.07.7-3.1.62-.01-.03.27-.15.79-.34.52-.19,1.28-.41,2.24-.63,1.92-.44,4.65-.76,7.66-.54,3.01.23,5.66.97,7.49,1.69.92.36,1.64.69,2.12.96.48.26.74.42.73.45Z"/>
      <path class="cls-3" d="m355.99,312.33c-.13.03-1.1-3.33-2.17-7.52-1.06-4.19-1.82-7.61-1.68-7.65.13-.03,1.1,3.33,2.17,7.52,1.06,4.19,1.82,7.61,1.68,7.65Z"/>
      <path class="cls-3" d="m356.13,312.33c-.15.05-.77-2.2-2.4-4.5-1.58-2.35-3.61-3.53-3.53-3.65.03-.05.58.15,1.36.7.78.54,1.75,1.46,2.58,2.66,1.69,2.4,2.11,4.78,1.99,4.79Z"/>
      <path class="cls-3" d="m356.02,411.46c-.05,0-.16-.83-.55-2.3-.39-1.47-1.11-3.55-2.31-5.99-2.39-4.88-6.74-11.07-12.26-17.28-2.74-3.13-5.39-6.08-7.65-8.9-2.26-2.82-4.11-5.51-5.47-7.89-1.36-2.38-2.24-4.42-2.76-5.85-.25-.72-.44-1.28-.54-1.67-.11-.39-.16-.59-.14-.6.04-.01.3.79.87,2.2.57,1.41,1.5,3.41,2.88,5.75,1.38,2.34,3.26,4.99,5.52,7.78,2.26,2.8,4.92,5.73,7.67,8.86,5.54,6.22,9.88,12.49,12.2,17.45,1.17,2.48,1.85,4.6,2.18,6.1.16.75.27,1.33.31,1.73.05.4.07.61.05.61Z"/>
      <path class="cls-3" d="m383.33,380.61s-.51.3-1.43.8c-.92.52-2.22,1.31-3.71,2.45-1.49,1.14-3.16,2.64-4.88,4.45-1.71,1.81-3.47,3.91-5.27,6.16-3.6,4.51-6.96,8.51-8.98,11.7-1.02,1.58-1.77,2.91-2.25,3.85-.49.93-.75,1.46-.79,1.44-.02,0,.03-.15.13-.41.11-.26.25-.64.48-1.12.44-.97,1.14-2.33,2.13-3.95,1.96-3.26,5.29-7.31,8.89-11.82,1.8-2.25,3.59-4.36,5.33-6.16,1.75-1.8,3.46-3.29,5-4.41,1.54-1.12,2.88-1.88,3.83-2.34.47-.24.86-.38,1.12-.49.26-.11.4-.15.4-.14Z"/>
      <path class="cls-3" d="m383.87,390.62c0,.07-1.16.21-3.03.44-1.86.24-4.46.55-7.18,1.41-2.71.88-4.96,2.23-6.42,3.37-1.48,1.14-2.18,2.09-2.25,2.04-.02-.02.12-.28.45-.7.32-.42.85-.99,1.58-1.61,1.44-1.24,3.72-2.67,6.49-3.57,2.78-.88,5.41-1.14,7.29-1.29,1.89-.14,3.06-.15,3.06-.09Z"/>
      <path class="cls-3" d="m365.88,396.78c-.16-.09,1.21-2.17,2.26-4.97.99-2.83,1.22-5.31,1.4-5.28.06,0,.06.63-.05,1.62-.12.99-.36,2.37-.88,3.82-.53,1.45-1.22,2.66-1.75,3.51-.54.84-.92,1.33-.98,1.3Z"/>
      <path class="cls-3" d="m392.18,353.75s-.16.1-.48.26c-.38.17-.85.38-1.42.65-.62.27-1.38.61-2.23,1.05-.85.44-1.85.9-2.89,1.52-.53.3-1.08.61-1.65.94-.57.33-1.14.72-1.74,1.1-1.22.74-2.44,1.65-3.74,2.58-2.55,1.93-5.22,4.22-7.8,6.86-2.55,2.67-4.75,5.42-6.59,8.03-.88,1.33-1.75,2.58-2.45,3.82-.36.62-.73,1.19-1.04,1.78-.31.58-.6,1.14-.88,1.68-.59,1.06-1.01,2.07-1.42,2.94-.42.87-.73,1.63-.98,2.26-.24.58-.44,1.06-.6,1.44-.14.33-.22.5-.24.49-.02,0,.03-.19.15-.53.13-.39.3-.88.51-1.48.22-.64.51-1.43.9-2.31.39-.88.79-1.91,1.36-2.99.27-.55.56-1.11.86-1.71.3-.59.67-1.18,1.02-1.8.69-1.26,1.55-2.53,2.42-3.87,1.84-2.64,4.04-5.43,6.61-8.12,2.6-2.66,5.31-4.96,7.89-6.88,1.32-.92,2.55-1.83,3.79-2.56.61-.37,1.19-.76,1.77-1.08.58-.32,1.14-.62,1.68-.92,1.06-.61,2.07-1.04,2.94-1.46.87-.43,1.64-.74,2.27-.98.59-.23,1.08-.41,1.46-.56.34-.12.51-.18.52-.16Z"/>
      <path class="cls-3" d="m370.56,368.23s.2-.85,1.19-1.77c.97-.92,2.73-1.78,4.79-1.84,2.05-.05,3.83.52,5.04.98,1.22.48,1.93.87,1.91.93-.03.07-.79-.2-2.02-.59-1.23-.38-2.97-.87-4.91-.82-1.93.06-3.61.8-4.57,1.61-.99.8-1.34,1.55-1.42,1.5Z"/>
      <path class="cls-3" d="m367.33,371.56c-.14-.08,1.08-1.86,1.36-4.42.32-2.56-.46-4.58-.3-4.62.05-.02.33.45.56,1.29.24.84.39,2.06.24,3.39-.16,1.33-.59,2.48-1.01,3.24-.42.76-.79,1.16-.84,1.12Z"/>
    </g>
    <path class="cls-3" d="m332.13,416.42c.75,13.22,4.73,26.66,10.85,40.25h26.64c5.84-13.46,9.55-26.88,10.21-40.25h-47.71Z"/>
    <path class="cls-10" d="m375.52,437.81c0,.14-8.77.25-19.59.25s-19.59-.11-19.59-.25,8.77-.25,19.59-.25,19.59.11,19.59.25Z"/>
    <path class="cls-10" d="m374.93,442.6c0,.14-8.22.25-18.36.25s-18.37-.11-18.37-.25,8.22-.25,18.37-.25,18.36.11,18.36.25Z"/>
    <path class="cls-10" d="m343.42,425.1c.14,0,.25,2.75.25,6.14s-.11,6.14-.25,6.14-.25-2.75-.25-6.14.11-6.14.25-6.14Z"/>
    <path class="cls-10" d="m357.69,425.1c.14,0,.25,2.85.25,6.35s-.11,6.36-.25,6.36-.25-2.84-.25-6.36.11-6.35.25-6.35Z"/>
    <path class="cls-10" d="m371.09,424.99c.14,0,.25,2.9.25,6.48s-.11,6.48-.25,6.48-.25-2.9-.25-6.48.11-6.48.25-6.48Z"/>
    <path class="cls-10" d="m378.99,425.1c0,.14-10.29.25-22.98.25s-22.98-.11-22.98-.25,10.29-.25,22.98-.25,22.98.11,22.98.25Z"/>
  </g>
  <g>
    <rect class="cls-4" x="458.88" y="315.85" width="44.15" height="11.68"/>
    <path class="cls-3" d="m482.89,339.45s0-.08-.01-.21c0-.16,0-.35-.01-.6,0-.55-.02-1.32-.03-2.3-.02-2.02-.04-4.91-.08-8.57l.14.14c-10.08.02-26.11.05-44.15.09.1-.1-.23.22.22-.22h0v.75s0,.75,0,.75c0,.5,0,.99,0,1.49,0,.99,0,1.97,0,2.95,0,1.95,0,3.87,0,5.74l-.22-.22c12.57.04,23.57.07,31.46.1,3.93.03,7.08.05,9.29.06,1.07.01,1.91.02,2.51.03.27,0,.49.01.66.01.15,0,.23,0,.23.01,0,0-.06,0-.2.01-.16,0-.37,0-.63.01-.59,0-1.41.02-2.46.03-2.19.01-5.33.04-9.24.06-7.93.02-18.98.06-31.62.1h-.22s0-.22,0-.22c0-1.88,0-3.8,0-5.74,0-.97,0-1.96,0-2.95,0-.49,0-.99,0-1.49v-.75s0-.38,0-.38v-.35h0v-.02h0c.45-.45.13-.13.23-.23,18.03.04,34.07.07,44.15.09h.14s0,.14,0,.14c-.03,3.69-.06,6.62-.08,8.65-.01.97-.03,1.73-.03,2.27,0,.24-.01.42-.01.57,0,.13,0,.19-.01.19Z"/>
  </g>
  <rect class="cls-6" x="193.14" width="44.15" height="11.68"/>
  <rect class="cls-6" x="679.55" y="29.25" width="44.15" height="11.68"/>
  <path class="cls-3" d="m65.43,70.23s0-.08-.01-.21c0-.16,0-.35-.01-.6,0-.55-.02-1.32-.03-2.3-.02-2.02-.04-4.91-.08-8.57l.14.14c-10.08.02-26.11.05-44.15.09.1-.1-.23.22.22-.22h0v.75s0,.75,0,.75c0,.5,0,.99,0,1.49,0,.99,0,1.97,0,2.95,0,1.95,0,3.87,0,5.74l-.22-.22c12.57.04,23.57.07,31.46.1,3.93.03,7.08.05,9.29.06,1.07.01,1.91.02,2.51.03.27,0,.49.01.66.01.15,0,.23,0,.23.01,0,0-.06,0-.2.01-.16,0-.37,0-.63.01-.59,0-1.41.02-2.46.03-2.19.01-5.33.04-9.24.06-7.93.03-18.98.06-31.62.1h-.22s0-.22,0-.22c0-1.88,0-3.8,0-5.74,0-.97,0-1.96,0-2.95,0-.49,0-.99,0-1.49v-.75s0-.38,0-.38v-.35h0v-.02h0c.45-.45.13-.13.23-.23,18.03.04,34.07.07,44.15.09h.14s0,.14,0,.14c-.03,3.69-.06,6.62-.08,8.65-.01.97-.03,1.73-.03,2.27,0,.24-.01.43-.01.57,0,.13,0,.19-.01.19Z"/>
  <path class="cls-3" d="m640.81,207.65s0-.08-.01-.21c0-.16,0-.35-.01-.6,0-.55-.02-1.32-.03-2.3-.02-2.02-.04-4.91-.08-8.57l.14.14c-10.08.02-26.11.05-44.15.09.1-.1-.23.22.22-.22h0v.75s0,.75,0,.75c0,.5,0,1,0,1.49,0,.99,0,1.97,0,2.95,0,1.95,0,3.87,0,5.74l-.22-.22c12.57.04,23.57.07,31.46.1,3.93.03,7.08.05,9.29.06,1.07.01,1.91.02,2.51.03.27,0,.49.01.66.01.15,0,.23,0,.23.01,0,0-.06,0-.2.01-.16,0-.37,0-.63.01-.59,0-1.41.02-2.46.03-2.19.01-5.33.04-9.24.06-7.93.03-18.98.06-31.62.1h-.22s0-.22,0-.22c0-1.88,0-3.8,0-5.74,0-.97,0-1.96,0-2.95,0-.49,0-.99,0-1.49v-.75s0-.38,0-.38v-.35h0v-.02h0c.45-.45.13-.13.23-.23,18.03.04,34.07.07,44.15.09h.14s0,.14,0,.14c-.03,3.69-.06,6.62-.08,8.65-.01.97-.03,1.73-.03,2.27,0,.24-.01.42-.01.57,0,.13,0,.19-.01.19Z"/>
  <path class="cls-3" d="m546.5,17.53s0-.08-.01-.21c0-.16,0-.35-.01-.6,0-.55-.02-1.32-.03-2.3-.02-2.02-.04-4.91-.08-8.57l.14.14c-10.08.02-26.11.05-44.15.09.1-.1-.23.22.22-.22h0v.75s0,.75,0,.75c0,.5,0,1,0,1.49,0,.99,0,1.97,0,2.95,0,1.95,0,3.87,0,5.74l-.22-.22c12.57.04,23.57.07,31.46.1,3.93.03,7.08.05,9.29.06,1.07.01,1.91.02,2.51.03.27,0,.49.01.66.01.15,0,.23,0,.23.01,0,0-.06,0-.2.01-.16,0-.37,0-.63.01-.59,0-1.41.02-2.46.03-2.19.01-5.33.04-9.24.06-7.93.03-18.98.06-31.61.1h-.22s0-.22,0-.22c0-1.88,0-3.8,0-5.74,0-.97,0-1.96,0-2.95,0-.49,0-.99,0-1.49v-.75s0-.38,0-.38v-.35h0v-.02h0c.45-.45.13-.13.23-.23,18.03.04,34.07.07,44.15.09h.14s0,.14,0,.14c-.03,3.69-.06,6.62-.08,8.65-.01.97-.03,1.73-.03,2.27,0,.24-.01.42-.01.57,0,.13,0,.19-.01.19Z"/>
  <path class="cls-3" d="m569.82,422.27s0-.08-.01-.21c0-.16,0-.35-.01-.6,0-.55-.02-1.32-.03-2.3-.02-2.02-.04-4.91-.08-8.57l.14.14c-10.08.02-26.11.05-44.15.09.1-.1-.23.22.22-.22h0v.75s0,.75,0,.75c0,.5,0,1,0,1.49,0,.99,0,1.97,0,2.95,0,1.95,0,3.87,0,5.74l-.22-.22c12.57.04,23.57.07,31.46.1,3.93.03,7.08.05,9.29.06,1.07.01,1.91.02,2.51.03.27,0,.49.01.66.01.15,0,.23,0,.23.01,0,0-.06,0-.2.01-.16,0-.37,0-.63.01-.59,0-1.41.02-2.46.03-2.19.01-5.33.04-9.24.06-7.93.03-18.98.06-31.62.1h-.22s0-.22,0-.22c0-1.88,0-3.8,0-5.74,0-.97,0-1.96,0-2.95,0-.49,0-.99,0-1.49v-.75s0-.38,0-.38v-.35h0v-.02h0c.45-.45.13-.13.23-.23,18.03.04,34.07.07,44.15.09h.14s0,.14,0,.14c-.03,3.69-.06,6.62-.08,8.65-.01.97-.03,1.73-.03,2.27,0,.24-.01.42-.01.57,0,.13,0,.19-.01.19Z"/>
  <g>
    <rect class="cls-4" x="574.1" y="333.33" width="44.15" height="11.68"/>
    <path class="cls-3" d="m598.1,356.93s0-.08-.01-.21c0-.16,0-.35-.01-.6,0-.55-.02-1.32-.03-2.3-.02-2.02-.04-4.91-.08-8.57l.14.14c-10.08.02-26.11.05-44.15.09.1-.1-.23.22.22-.22h0v1.5c0,.5,0,1,0,1.49,0,.99,0,1.97,0,2.95,0,1.95,0,3.87,0,5.74l-.22-.22c12.57.04,23.57.07,31.46.1,3.93.03,7.08.05,9.29.06,1.07.01,1.91.02,2.51.03.27,0,.49.01.66.01.15,0,.23,0,.23.01,0,0-.06,0-.2.01-.16,0-.37,0-.63.01-.59,0-1.41.02-2.46.03-2.19.01-5.33.04-9.24.06-7.93.03-18.98.06-31.62.1h-.22s0-.22,0-.22c0-1.88,0-3.8,0-5.74,0-.97,0-1.96,0-2.95,0-.49,0-.99,0-1.49v-1.48h0v-.02h0c.45-.45.13-.13.23-.23,18.03.04,34.07.07,44.15.09h.14s0,.14,0,.14c-.03,3.69-.06,6.62-.08,8.65-.01.97-.03,1.73-.03,2.27,0,.24-.01.42-.01.57,0,.13,0,.19-.01.19Z"/>
  </g>
  <g>
    <rect class="cls-4" x="735.95" y="120.34" width="44.15" height="11.68"/>
    <path class="cls-3" d="m759.96,143.94s0-.08-.01-.21c0-.16,0-.35-.01-.6,0-.55-.02-1.32-.03-2.3-.02-2.02-.04-4.91-.08-8.57l.14.14c-10.08.02-26.11.05-44.15.09.1-.1-.23.22.22-.22h0v1.5c0,.5,0,.99,0,1.49,0,.99,0,1.97,0,2.95,0,1.95,0,3.87,0,5.74l-.22-.22c12.57.04,23.57.07,31.46.1,3.93.03,7.08.05,9.29.06,1.07.01,1.91.02,2.51.03.27,0,.49.01.66.01.15,0,.23,0,.23.01s-.06,0-.2.01c-.16,0-.37,0-.63.01-.59,0-1.41.02-2.46.03-2.19.01-5.33.04-9.24.06-7.93.03-18.98.06-31.62.1h-.22s0-.22,0-.22c0-1.88,0-3.8,0-5.74,0-.97,0-1.96,0-2.95,0-.49,0-.99,0-1.49v-.75s0-.38,0-.38v-.35h0v-.02h0c.45-.45.13-.13.23-.23,18.03.04,34.07.07,44.15.09h.14s0,.14,0,.14c-.03,3.69-.06,6.62-.08,8.65-.01.97-.03,1.73-.03,2.27,0,.24-.01.43-.01.58,0,.13,0,.19-.01.19Z"/>
  </g>
  <g>
    <path class="cls-3" d="m735.21,404.31s0-.08-.01-.23c0-.17,0-.38-.02-.65,0-.59-.02-1.42-.04-2.48-.02-2.18-.05-5.31-.08-9.26l.15.15c-10.89.02-28.22.06-47.71.1.11-.11-.25.24.24-.24h0v.4s0,.41,0,.41v.81c0,.54,0,1.08,0,1.61,0,1.07,0,2.13,0,3.19,0,2.11,0,4.18,0,6.21l-.24-.24c13.59.04,25.47.08,34,.11,4.25.03,7.65.05,10.04.07,1.16.01,2.06.02,2.71.03.29,0,.53.01.71.02.16,0,.25.01.25.02,0,0-.07.01-.22.02-.18,0-.4,0-.68.02-.64,0-1.53.02-2.66.03-2.37.02-5.76.04-9.98.07-8.57.03-20.51.06-34.16.11h-.24s0-.24,0-.24c0-2.03,0-4.1,0-6.21,0-1.05,0-2.12,0-3.19,0-.53,0-1.07,0-1.61v-.81s0-.41,0-.41v-.38h0v-.02h0c.49-.49.14-.14.25-.25,19.49.04,36.81.07,47.71.1h.15s0,.15,0,.15c-.03,3.99-.06,7.15-.08,9.35-.02,1.05-.03,1.86-.04,2.45,0,.26-.01.46-.02.62,0,.14,0,.21-.01.2Z"/>
    <path class="cls-3" d="m741.67,391.69s-.01-.09-.02-.24c0-.18-.01-.4-.02-.67-.01-.62-.03-1.47-.04-2.53-.02-2.21-.05-5.34-.09-9.18l.17.17c-7.43.02-17.53.04-28.66.07-.22.22.29-.3.24-.24h0v.41s0,.41,0,.41v.83c0,.55,0,1.09,0,1.64,0,1.08,0,2.16,0,3.21,0,2.11,0,4.16,0,6.12l-.23-.23c8.27.04,15.4.08,20.51.11,2.52.03,4.54.05,5.97.06.67.01,1.21.02,1.61.03.37,0,.57.02.58.03,0,0-.17.02-.52.03-.39,0-.91.02-1.56.03-1.42.02-3.42.04-5.92.06-5.14.03-12.32.07-20.66.11h-.23s0-.23,0-.23c0-1.96,0-4.01,0-6.12,0-1.06,0-2.13,0-3.21,0-.54,0-1.09,0-1.64v-.83s0-.41,0-.41v-.39h0v-.02h0c-.05.05.46-.46.25-.25,11.13.03,21.24.05,28.66.07h.18s0,.17,0,.17c-.04,3.89-.07,7.05-.09,9.29-.02,1.05-.03,1.88-.04,2.49-.01.56-.03.85-.04.84Z"/>
  </g>
  <g>
    <path class="cls-3" d="m257.01,422.55s0-.08-.01-.23c0-.17,0-.38-.02-.65,0-.59-.02-1.42-.04-2.48-.02-2.18-.05-5.31-.08-9.26l.15.15c-10.89.02-28.22.06-47.71.1.11-.11-.25.24.24-.24h0v1.62c0,.54,0,1.08,0,1.61,0,1.07,0,2.13,0,3.19,0,2.11,0,4.18,0,6.21l-.24-.24c13.59.04,25.47.08,34,.11,4.25.03,7.65.05,10.04.07,1.16.01,2.06.02,2.71.03.29,0,.53.01.71.02.16,0,.25.01.25.02,0,0-.07.01-.22.02-.18,0-.4,0-.68.02-.64,0-1.53.02-2.66.03-2.37.02-5.76.04-9.98.07-8.57.03-20.51.06-34.16.11h-.24s0-.24,0-.24c0-2.03,0-4.1,0-6.21,0-1.05,0-2.12,0-3.19,0-.53,0-1.07,0-1.61v-.81s0-.41,0-.41v-.38h0v-.02h0c.49-.49.14-.14.25-.25,19.49.04,36.81.07,47.71.1h.15s0,.15,0,.15c-.03,3.99-.06,7.15-.08,9.35-.02,1.05-.03,1.86-.04,2.45,0,.26-.01.46-.02.62,0,.14,0,.21-.01.2Z"/>
    <path class="cls-3" d="m263.47,409.92s-.01-.09-.02-.24c0-.18-.01-.4-.02-.67-.01-.62-.03-1.47-.04-2.53-.02-2.21-.05-5.34-.09-9.18l.17.17c-7.43.02-17.53.04-28.66.07-.22.22.29-.3.24-.24h0v.41s0,.41,0,.41v.83c0,.55,0,1.09,0,1.64,0,1.08,0,2.16,0,3.21,0,2.11,0,4.16,0,6.12l-.23-.23c8.28.04,15.4.08,20.51.11,2.52.03,4.54.05,5.97.06.67.01,1.2.02,1.61.03.37,0,.57.02.58.03,0,0-.17.02-.52.03-.39,0-.91.02-1.56.03-1.42.02-3.42.04-5.92.06-5.14.03-12.32.07-20.66.11h-.23s0-.23,0-.23c0-1.96,0-4.01,0-6.12,0-1.06,0-2.13,0-3.21,0-.54,0-1.09,0-1.64v-.83s0-.41,0-.41v-.39h0v-.02h0c-.05.05.46-.46.25-.25,11.13.03,21.24.05,28.66.07h.18s0,.17,0,.17c-.04,3.89-.07,7.05-.09,9.29-.02,1.05-.03,1.88-.04,2.49-.01.56-.02.85-.04.84Z"/>
  </g>
  <g>
    <path class="cls-3" d="m621.79,102.09s0-.08-.01-.23c0-.17,0-.38-.02-.65,0-.59-.02-1.42-.04-2.48-.02-2.18-.05-5.31-.08-9.26l.15.15c-10.89.02-28.22.06-47.71.1.11-.11-.25.24.24-.24h0v.4s0,.41,0,.41v.81c0,.54,0,1.08,0,1.61,0,1.07,0,2.13,0,3.19,0,2.11,0,4.18,0,6.21l-.24-.24c13.59.04,25.47.08,34,.11,4.25.03,7.65.05,10.04.07,1.16.01,2.06.02,2.71.03.29,0,.53.01.71.02.16,0,.25.01.25.02,0,0-.07.01-.22.02-.18,0-.4,0-.68.02-.64,0-1.53.02-2.66.03-2.37.02-5.76.04-9.98.07-8.57.03-20.51.06-34.16.11h-.24s0-.24,0-.24c0-2.03,0-4.1,0-6.21,0-1.05,0-2.12,0-3.19,0-.53,0-1.07,0-1.61v-1.6h0v-.02h0c.49-.49.14-.14.25-.25,19.49.04,36.81.07,47.71.1h.15s0,.15,0,.15c-.03,3.99-.06,7.15-.08,9.35-.02,1.05-.03,1.86-.04,2.45,0,.26-.01.46-.02.62,0,.14,0,.21-.01.2Z"/>
    <path class="cls-3" d="m628.26,89.47s-.01-.09-.02-.24c0-.18-.01-.4-.02-.67-.01-.62-.03-1.47-.04-2.53-.02-2.21-.05-5.34-.09-9.18l.17.17c-7.43.02-17.53.04-28.66.07-.22.22.29-.3.24-.24h0v.41s0,.41,0,.41v.83c0,.55,0,1.09,0,1.64,0,1.08,0,2.16,0,3.21,0,2.11,0,4.16,0,6.12l-.23-.23c8.27.04,15.4.08,20.51.11,2.52.03,4.54.05,5.97.06.67.01,1.21.02,1.61.03.37,0,.57.02.58.03,0,0-.17.02-.52.03-.39,0-.91.02-1.56.03-1.42.02-3.42.04-5.92.06-5.14.03-12.32.07-20.66.11h-.23s0-.23,0-.23c0-1.96,0-4.01,0-6.12,0-1.06,0-2.13,0-3.21,0-.54,0-1.09,0-1.64v-.83s0-.41,0-.41v-.39h0v-.02h0c-.05.05.46-.46.25-.25,11.13.03,21.24.05,28.66.07h.18s0,.17,0,.17c-.04,3.89-.07,7.05-.09,9.29-.02,1.05-.03,1.88-.04,2.49-.01.56-.03.85-.04.84Z"/>
  </g>
  <g>
    <rect class="cls-4" x="137.53" y="240.75" width="44.15" height="11.68"/>
    <path class="cls-3" d="m161.54,264.35s0-.08-.01-.21c0-.16,0-.35-.01-.6,0-.55-.02-1.32-.03-2.3-.02-2.02-.04-4.91-.08-8.57l.14.14c-10.08.02-26.11.05-44.15.09.1-.1-.23.22.22-.22h0v.75s0,.75,0,.75c0,.5,0,.99,0,1.49,0,.99,0,1.97,0,2.95,0,1.95,0,3.87,0,5.74l-.22-.22c12.57.04,23.57.07,31.46.1,3.93.03,7.08.05,9.29.06,1.07.01,1.91.02,2.51.03.27,0,.49.01.66.01.15,0,.23,0,.23.01,0,0-.06,0-.2.01-.16,0-.37,0-.63.01-.59,0-1.41.02-2.46.03-2.19.01-5.33.04-9.24.06-7.93.03-18.98.06-31.62.1h-.22s0-.22,0-.22c0-1.88,0-3.8,0-5.74,0-.97,0-1.96,0-2.95,0-.49,0-.99,0-1.49v-.75s0-.38,0-.38v-.35h0v-.02h0c.45-.45.13-.13.23-.23,18.03.04,34.07.07,44.15.09h.14s0,.14,0,.14c-.03,3.69-.06,6.62-.08,8.65-.01.97-.03,1.73-.03,2.27,0,.24-.01.43-.01.58,0,.13,0,.19-.01.19Z"/>
  </g>
  <g>
    <path class="cls-3" d="m47.95,396.84s0-.08-.01-.23c0-.17,0-.38-.02-.65,0-.59-.02-1.42-.04-2.48-.02-2.18-.05-5.31-.08-9.26l.15.15c-10.89.02-28.22.06-47.71.1.11-.11-.25.24.24-.24H.49v.4s0,.41,0,.41v.81c0,.54,0,1.08,0,1.61,0,1.07,0,2.13,0,3.19,0,2.11,0,4.18,0,6.21l-.24-.24c13.59.04,25.47.08,34,.11,4.25.03,7.65.05,10.04.07,1.16.01,2.06.02,2.71.03.29,0,.53.01.71.02.16,0,.25.01.25.02,0,0-.07.01-.22.02-.18,0-.4,0-.68.02-.64,0-1.53.02-2.66.03-2.37.02-5.76.04-9.98.07-8.57.03-20.51.06-34.16.11H0s0-.24,0-.24c0-2.03,0-4.1,0-6.21,0-1.05,0-2.12,0-3.19,0-.53,0-1.07,0-1.61v-.81s0-.41,0-.41v-.38h0v-.02h0c.49-.49.14-.14.25-.25,19.49.04,36.81.07,47.71.1h.15s0,.15,0,.15c-.03,3.99-.06,7.15-.08,9.35-.02,1.05-.03,1.86-.04,2.45,0,.26-.01.46-.02.62,0,.14,0,.21-.01.2Z"/>
    <path class="cls-3" d="m54.42,384.22s-.01-.09-.02-.24c0-.18-.01-.4-.02-.67-.01-.62-.03-1.47-.04-2.53-.02-2.21-.05-5.34-.09-9.18l.17.17c-7.43.02-17.53.04-28.66.07-.22.22.29-.3.24-.24h0v.41s0,.41,0,.41v.83c0,.55,0,1.09,0,1.64,0,1.08,0,2.16,0,3.21,0,2.11,0,4.16,0,6.12l-.23-.23c8.28.04,15.4.08,20.51.11,2.52.03,4.54.05,5.97.06.67.01,1.21.02,1.61.03.37,0,.57.02.58.03,0,0-.17.02-.52.03-.39,0-.91.02-1.56.03-1.42.02-3.42.04-5.92.06-5.14.03-12.32.07-20.66.11h-.23s0-.23,0-.23c0-1.96,0-4.01,0-6.12,0-1.06,0-2.13,0-3.21,0-.54,0-1.09,0-1.64v-.83s0-.41,0-.41v-.39h0v-.02h0c-.05.05.46-.46.25-.25,11.13.03,21.24.05,28.66.07h.18s0,.17,0,.17c-.04,3.89-.07,7.05-.09,9.29-.02,1.05-.03,1.88-.04,2.49-.01.56-.03.85-.04.84Z"/>
  </g>
  <g>
    <path class="cls-3" d="m411.84,227.34s0-.08-.01-.23c0-.17,0-.38-.02-.65,0-.59-.02-1.42-.04-2.48-.02-2.18-.05-5.31-.08-9.26l.15.15c-10.89.02-28.22.06-47.71.1.11-.11-.25.24.24-.24h0v.4s0,.41,0,.41v.81c0,.54,0,1.08,0,1.61,0,1.07,0,2.13,0,3.19,0,2.11,0,4.18,0,6.21l-.24-.24c13.59.04,25.47.08,34,.11,4.25.03,7.65.05,10.04.07,1.16.01,2.06.02,2.71.03.29,0,.53.01.71.02.16,0,.25.01.25.02,0,0-.07.01-.22.02-.18,0-.4,0-.68.02-.64,0-1.53.02-2.66.03-2.37.02-5.76.04-9.98.07-8.57.03-20.51.06-34.16.11h-.24s0-.24,0-.24c0-2.03,0-4.1,0-6.21,0-1.05,0-2.12,0-3.19,0-.53,0-1.07,0-1.61v-.81s0-.41,0-.41v-.38h0v-.02h0c.49-.49.14-.14.25-.25,19.49.04,36.81.07,47.71.1h.15s0,.15,0,.15c-.03,3.99-.06,7.15-.08,9.35-.02,1.05-.03,1.86-.04,2.45,0,.26-.01.46-.02.62,0,.14,0,.21-.01.2Z"/>
    <path class="cls-3" d="m418.31,214.71s-.01-.09-.02-.24c0-.18-.01-.4-.02-.67-.01-.62-.03-1.47-.04-2.53-.02-2.21-.05-5.34-.09-9.18l.17.17c-7.43.02-17.53.04-28.66.07-.22.22.29-.3.24-.24h0v.41s0,.41,0,.41v.83c0,.55,0,1.09,0,1.64,0,1.08,0,2.16,0,3.21,0,2.11,0,4.16,0,6.12l-.23-.23c8.27.04,15.4.08,20.51.11,2.52.03,4.54.05,5.97.06.67.01,1.21.02,1.61.03.37,0,.57.02.58.03s-.17.02-.52.03c-.39,0-.91.02-1.56.03-1.42.02-3.42.04-5.92.06-5.14.03-12.32.07-20.66.11h-.23s0-.23,0-.23c0-1.96,0-4.01,0-6.12,0-1.06,0-2.13,0-3.21,0-.54,0-1.09,0-1.64v-.83s0-.41,0-.41v-.39h0v-.02h0c-.05.05.46-.46.25-.25,11.13.03,21.24.05,28.66.07h.18s0,.17,0,.17c-.04,3.89-.07,7.05-.09,9.29-.02,1.05-.03,1.88-.04,2.49-.01.56-.03.85-.04.84Z"/>
  </g>
  <g>
    <rect class="cls-4" x="287.67" y="58.86" width="44.15" height="11.68"/>
    <path class="cls-3" d="m319.49,82.46s0-.08-.01-.21c0-.16,0-.35-.01-.6,0-.55-.02-1.32-.03-2.3-.02-2.02-.04-4.91-.08-8.57l.14.14c-10.08.02-26.11.05-44.15.09.1-.1-.23.22.22-.22h0v.75s0,.75,0,.75c0,.5,0,.99,0,1.49,0,.99,0,1.97,0,2.95,0,1.95,0,3.87,0,5.74l-.22-.22c12.57.04,23.57.07,31.46.1,3.93.03,7.08.05,9.29.06,1.07.01,1.91.02,2.51.03.27,0,.49.01.66.01.15,0,.23,0,.23.01,0,0-.06,0-.2.01-.16,0-.37,0-.63.01-.59,0-1.41.02-2.46.03-2.19.01-5.33.04-9.24.06-7.93.02-18.98.06-31.62.1h-.22s0-.22,0-.22c0-1.88,0-3.8,0-5.74,0-.97,0-1.96,0-2.95,0-.49,0-.99,0-1.49v-.75s0-.38,0-.38v-.35h0v-.02h0c.45-.45.13-.13.23-.23,18.03.04,34.07.07,44.15.09h.14s0,.14,0,.14c-.03,3.69-.06,6.62-.08,8.65-.01.97-.03,1.73-.03,2.27,0,.24-.01.42-.01.57,0,.13,0,.19-.01.19Z"/>
  </g>
  <g>
    <g>
      <rect class="cls-8" x="115.04" y="33.83" width="100.1" height="139.36"/>
      <path class="cls-3" d="m215.14,173.19s0-.23-.01-.67c0-.45,0-1.1-.01-1.96,0-1.73-.01-4.28-.03-7.6-.01-6.64-.03-16.34-.06-28.62-.03-24.53-.06-59.34-.11-100.51l.21.21c-30.21,0-64.23.01-100.08.02h-.01l.24-.24c-.02,52.15-.03,100.4-.04,139.36l-.19-.19c30.36.04,55.36.08,72.78.1,8.72.02,15.54.04,20.19.05,2.32,0,4.1.02,5.3.02,1.2,0,1.83.02,1.83.02,0,0-.6.01-1.79.02-1.2,0-2.96.01-5.27.02-4.64.01-11.44.03-20.14.05-17.45.02-42.49.06-72.9.1h-.19s0-.19,0-.19c-.01-38.96-.03-87.21-.04-139.36v-.24s.24,0,.24,0h.01c35.86,0,69.87.02,100.08.02h.21v.21c-.04,41.23-.08,76.09-.11,100.65-.02,12.25-.04,21.94-.06,28.57-.01,3.3-.02,5.84-.03,7.56,0,.85,0,1.49-.01,1.94,0,.43-.01.65-.01.65Z"/>
    </g>
    <rect class="cls-6" x="125.13" y="107.5" width="77.99" height="5.02"/>
    <rect class="cls-6" x="143.06" y="105.6" width="43.94" height="9.08"/>
    <g>
      <path class="cls-3" d="m158.12,67.44c4.48,0,6.54,2.71,6.54,7.15v14.51c0,4.4-2.06,7.11-6.54,7.11h-6.74v-28.78h6.74Zm-.04,25.86c2.3,0,3.41-1.44,3.41-4.07v-14.8c0-2.63-1.11-4.07-3.45-4.07h-3.45v22.94h3.49Z"/>
      <path class="cls-3" d="m167.41,74.39c0-4.4,2.18-7.24,6.58-7.24s6.62,2.84,6.62,7.24v14.88c0,4.36-2.18,7.24-6.62,7.24s-6.58-2.88-6.58-7.24v-14.88Zm3.17,15.05c0,2.63,1.11,4.15,3.41,4.15s3.41-1.52,3.41-4.15v-15.21c0-2.59-1.07-4.15-3.41-4.15s-3.41,1.56-3.41,4.15v15.21Z"/>
    </g>
    <g>
      <path class="cls-3" d="m160.15,122.27v31.38h-3.5v-31.38h3.5Z"/>
      <path class="cls-3" d="m168.31,153.65v-28.19h-5.78v-3.18h15.06v3.18h-5.78v28.19h-3.5Z"/>
    </g>
    <polygon class="cls-6" points="127.74 69.82 131.53 83.53 134.87 79.74 140.44 89.21 136.75 72.92 133.31 76.84 127.74 69.82"/>
    <polygon class="cls-6" points="202.26 68.44 198.46 82.15 195.12 78.36 189.56 87.82 193.24 71.54 196.69 75.45 202.26 68.44"/>
    <polygon class="cls-4" points="164.56 40.6 159.62 56.96 165.44 55.26 165.02 68.44 171.72 49.54 165.71 51.3 164.56 40.6"/>
    <polygon class="cls-4" points="186.49 92.73 185.59 92.73 185.59 55.81 145.75 55.81 145.75 92.73 144.85 92.73 144.85 54.9 186.49 54.9 186.49 92.73"/>
    <polygon class="cls-4" points="186.49 159.42 144.85 159.42 144.85 121.59 145.75 121.59 145.75 158.51 185.59 158.51 185.59 121.59 186.49 121.59 186.49 159.42"/>
    <rect class="cls-4" x="134.09" y="92.73" width="8.98" height="34.51" rx="3" ry="3"/>
    <rect class="cls-4" x="187" y="92.73" width="8.98" height="34.51" rx="3" ry="3"/>
    <g>
      <rect class="cls-4" x="130.39" y="104.74" width="3.7" height="9.61"/>
      <rect class="cls-4" x="195.91" y="104.74" width="3.7" height="9.61"/>
    </g>
    <rect class="cls-6" x="106.9" y="35.8" width="28" height="5.03" transform="translate(1.67 81.55) rotate(-37.52)"/>
    <rect class="cls-6" x="194.62" y="166.97" width="28" height="5.03" transform="translate(-60.07 162.09) rotate(-37.51)"/>
  </g>
  <path class="cls-7" d="m738.65,456.55c0,.16-160.94.3-359.42.3s-359.46-.13-359.46-.3,160.9-.3,359.46-.3,359.42.13,359.42.3Z"/>
  <g>
    <path class="cls-8" d="m453.61,91.74l-2.62-9.38c3.19-5.37,4.83-11.78,4.27-18.57-1.25-15.34-13.82-27.68-29.18-28.63-19.29-1.2-34.99,15.01-33.18,34.26,1.46,15.43,14.36,27.63,29.85,28.26,7.92.32,15.19-2.3,20.85-6.84h-.01s10,.91,10,.91Z"/>
    <path class="cls-7" d="m453.61,91.74s-.24-.04-.67-.08c-.47-.05-1.11-.12-1.93-.21-1.71-.17-4.18-.43-7.39-.75l.1.23h.01c.05-.08.03-.17-.03-.22-.05-.04-.13-.04-.18,0-3.14,2.47-7.79,5.17-13.91,6.25-3.04.57-6.42.63-9.93.12-3.51-.51-7.16-1.65-10.62-3.58-3.46-1.92-6.71-4.63-9.37-8.03-2.66-3.39-4.7-7.49-5.76-11.99-2.16-8.95-.04-19.6,6.69-27.27l1.27-1.43,1.38-1.3c.88-.91,1.96-1.59,2.92-2.38,2.07-1.39,4.23-2.65,6.52-3.5,4.55-1.8,9.41-2.46,14.04-2.08,4.63.41,9,1.86,12.75,4.02,3.76,2.16,6.9,5.02,9.3,8.18,4.82,6.37,6.57,13.77,6.31,19.92-.23,6.22-2.24,11.2-4.25,14.63,0,.04,0,.07-.01.11.87,2.99,1.55,5.3,2.02,6.91.23.77.41,1.37.54,1.81.12.41.2.63.2.63,0,0-.04-.19-.14-.58-.11-.43-.27-1.02-.46-1.78-.43-1.64-1.06-4-1.88-7.05v.11c2.06-3.43,4.15-8.45,4.43-14.76.32-6.24-1.42-13.78-6.3-20.28-2.43-3.23-5.62-6.16-9.45-8.37-3.82-2.22-8.28-3.71-13-4.14-4.72-.4-9.69.27-14.34,2.1-2.35.87-4.55,2.15-6.67,3.58-.99.81-2.08,1.5-2.99,2.43l-1.42,1.33-1.29,1.46c-6.88,7.84-9.04,18.73-6.81,27.86,1.1,4.59,3.19,8.76,5.91,12.22,2.72,3.46,6.05,6.2,9.57,8.15,3.53,1.95,7.26,3.1,10.83,3.59,3.57.5,7,.41,10.08-.19,6.2-1.15,10.88-3.94,14.01-6.47l-.21-.2h-.01c-.05.08-.04.17.03.22.02.02.05.03.08.03,3.25.25,5.77.45,7.5.58.81.06,1.44.1,1.89.14.42.03.63.04.62.03Z"/>
  </g>
  <polygon class="cls-13" points="423.6 81.53 407.05 70.67 410.84 64.89 421.94 72.18 435.51 53.89 441.06 58.01 423.6 81.53"/>
  <path class="cls-11" d="m670.41,181.98c.27.59-10.2,44.77-13.25,52.57-3.05,7.81-31.36,46.74-31.36,46.74l-8.11-3.13s19.03-43.65,21.06-48.86c2.03-5.21,4.99-50.25,5.39-51.74.4-1.49,17.49-14.7,26.26,4.42Z"/>
  <path class="cls-11" d="m616.87,279.51c-.47.39-7.05,11.84-7.04,12.93,0,1.09-.61,7.87-.22,9.54.39,1.66,3.7,7.07,4.61,6.61.91-.46,2.01-1.77,1.35-2.92l4.42,1.49s.73-2.1-.58-3.2l2.18-.13s-.12-2.29-1.49-2.74c-1.37-.45-.87.03-.87.03l-.8-1.92s1.31-4.88,2.27-5.87c.96-1,3.07-1.57,3.87-4.32.79-2.75.12-6.07.61-6.68.49-.61,1.84-3.52,1.84-3.52,0,0-6.09-4.68-6.4-4.82-.31-.14-3.76,5.52-3.76,5.52Z"/>
  <path class="cls-12" d="m620.35,293.77s-.02.36-.2.98c-.19.61-.51,1.49-1.06,2.51-.56,1.01-1.3,2.16-2.41,3.27-.56.54-1.44,1.04-2.41.79-.48-.12-.9-.48-1.11-.93-.22-.45-.27-.94-.22-1.41.08-.98.68-1.76,1.19-2.38.53-.64,1.02-1.22,1.31-1.87.59-1.31.62-2.69.75-3.82.11-1.14.28-2.07.51-2.68.23-.61.44-.9.47-.89.05.02-.1.35-.25.95-.16.61-.25,1.51-.31,2.64-.08,1.12-.05,2.53-.67,4.01-.59,1.5-2.24,2.5-2.41,4.09-.1.78.24,1.56.9,1.73.66.18,1.38-.16,1.88-.64,1.04-1.01,1.83-2.13,2.41-3.08,1.16-1.93,1.53-3.31,1.63-3.27Z"/>
  <path class="cls-12" d="m619.09,304.09c-.08.13-1.09-.18-2.36-.86-.68-.5-.81-1.16-1.04-1.49-.19-.36-.41-.5-.38-.58.01-.07.37-.04.71.33.35.34.59.96,1.04,1.25,1.12.59,2.11,1.2,2.02,1.35Z"/>
  <path class="cls-3" d="m683.5,449.92l.47-18.93,17.4-2.69-1.15,14.21,1.4,7.87s-3.58,4.49-4.29,4.28c-.71-.21-13.83-4.75-13.83-4.75Z"/>
  <g>
    <path class="cls-7" d="m658.85,460.95s6.98,2.7,13.19,2.7c6.21,0,15.49-1.4,18.91-1.88,3.41-.48,13.06,1.51,14.03-1.84.97-3.35-3.03-16.37-3.03-16.37,0,0-3.05,3.52-6.43,3.1-3.38-.42-9.82-2.74-9.82-2.74,0,0-2.48-4.67-4.41-5.01-1.93-.34-1.75,5.25-1.75,5.25,0,0-5.31,6.24-8.7,7.41-3.39,1.16-3.59,2.15-7.41,1.93-3.81-.22-5.76,1.02-5.76,1.02,0,0-2.01,2.97-1.21,4.16.8,1.2,2.39,2.27,2.39,2.27Z"/>
    <path class="cls-2" d="m656.42,458.61c.69,1.33,2.41,2.39,2.41,2.39,0,0,6.98,2.7,13.19,2.7,6.21,0,15.49-1.4,18.91-1.88,3.41-.48,13.06,1.51,14.03-1.84.28-.92.3-1.88.09-2.88,0,0-10.09,1.83-14.85,1.35s-15.2,2.01-20.58,1.51c-5.38-.49-11.33-2.31-11.33-2.31l-1.69-1.1c-.28.77-.59,1.29-.18,2.06Z"/>
    <path class="cls-8" d="m672.12,450.73c.09,0,.07.88.51,1.82.42.95,1.09,1.51,1.03,1.58-.03.07-.86-.42-1.32-1.45-.47-1.03-.3-1.97-.22-1.95Z"/>
    <path class="cls-8" d="m675.45,448.24c.1,0,.14,1.04.76,2.13.6,1.1,1.48,1.68,1.42,1.76-.02.08-1.04-.42-1.7-1.6-.67-1.17-.57-2.3-.49-2.28Z"/>
    <path class="cls-8" d="m677.88,445.8c.08-.04.47.72,1.11,1.53.63.82,1.27,1.37,1.22,1.45-.05.07-.8-.4-1.47-1.25-.67-.85-.94-1.69-.86-1.72Z"/>
    <path class="cls-8" d="m695.94,454.51s-.49.1-1.3.15c-.8.04-1.91.06-3.14,0-1.23-.05-2.33-.16-3.13-.26-.8-.11-1.28-.21-1.28-.25.01-.09,1.98.1,4.42.2,2.44.1,4.42.07,4.42.16Z"/>
  </g>
  <path class="cls-3" d="m755.77,264.5l-9.35,27.85-17.42-2.56,5.28-13.24.98-7.93s2.9-14.74,3.52-14.33c.62.41,16.99,10.21,16.99,10.21Z"/>
  <g>
    <path class="cls-7" d="m782.36,256.93s-5.97-4.52-11.94-6.23c-5.97-1.71-15.28-2.92-18.69-3.4-3.41-.48-12.13-5.05-14-2.1-1.86,2.96-1.6,16.57-1.6,16.57,0,0,3.9-2.54,7.04-1.21,3.13,1.33,8.68,5.34,8.68,5.34,0,0,1.1,5.17,2.86,6.03s3.13-4.56,3.13-4.56c0,0,6.83-4.54,10.4-4.72,3.57-.18,4.05-1.08,7.65.19,3.61,1.26,5.81.61,5.81.61,0,0,2.75-2.3,2.31-3.67-.44-1.37-1.67-2.84-1.67-2.84Z"/>
    <path class="cls-2" d="m784.05,259.85c-.29-1.46-1.66-2.97-1.66-2.97,0,0-5.97-4.52-11.94-6.23-5.97-1.71-15.28-2.92-18.69-3.4-3.41-.48-12.13-5.05-14-2.1-.52.81-.81,1.72-.88,2.75,0,0,10.21,1.02,14.65,2.79,4.44,1.78,15.16,2.26,20.2,4.21,5.04,1.96,10.26,5.35,10.26,5.35l1.32,1.52c.48-.66.92-1.07.74-1.93Z"/>
    <path class="cls-8" d="m766.79,263.09c-.09-.03.17-.86.01-1.89-.14-1.03-.63-1.75-.55-1.81.05-.06.71.64.87,1.76.17,1.12-.26,1.98-.33,1.94Z"/>
    <path class="cls-8" d="m762.89,264.57c-.09-.02.15-1.04-.15-2.26-.28-1.22-.96-2.02-.88-2.08.04-.07.89.7,1.19,2.01.32,1.31-.09,2.37-.16,2.33Z"/>
    <path class="cls-8" d="m759.88,266.25c-.09.01-.26-.82-.65-1.77-.38-.96-.85-1.67-.77-1.73.06-.05.66.6,1.06,1.61.41,1,.44,1.89.36,1.89Z"/>
    <path class="cls-8" d="m744.93,252.9s.5.03,1.29.22c.78.18,1.86.47,3.02.86,1.16.39,2.2.79,2.94,1.11.74.32,1.18.55,1.16.59-.04.08-1.88-.64-4.2-1.41-2.31-.77-4.23-1.29-4.21-1.37Z"/>
  </g>
  <path class="cls-7" d="m686.97,99.97c-1.78-3.04-.32-7.23,2.54-9.3,2.85-2.07,6.66-2.37,10.14-1.82,5.39.85,10.74,3.89,12.9,8.9,2.16,5.01-.05,11.88-5.24,13.55,2.19,1.07,4.49,2.24,5.81,4.29,1.32,2.05,1.14,5.27-1,6.45-2.44,1.34-5.31-.66-7.36-2.53,1.19,1.63.48,4.16-1.18,5.31-1.66,1.15-3.93,1.11-5.8.34-1.87-.77-3.41-2.15-4.84-3.58"/>
  <g>
    <path class="cls-1" d="m694.56,103.87c-.49-1.49-1-3-1.92-4.27-.92-1.27-2.33-2.27-3.9-2.31-.74-.02-1.54.23-1.93.86-.38.63-.07,1.65.66,1.74l.12.16c1.29,1.76,2.62,3.49,3.98,5.2.34.43.7.87,1.18,1.14s1.12.33,1.56,0c.73-.54.53-1.67.24-2.53Z"/>
    <path class="cls-7" d="m696.45,109.76c-3.92-7.65-10.25-12.94-18.62-14.89-4.72-1.1-6.9-.54-10.51-.36-3.61.18-7.09,1.35-9.75,3.8-3.16,2.91-6.02,6.32-7.38,10.39-1.4,4.19-2.8,8.4-3.4,12.77-.61,4.37-.37,8.96,1.41,12.99l10.53,4.27c6,1.51,13.53,11,19.72,10.9,6.19-.11,13.55-8.64,16.62-14.31,4.1-7.56,5.31-17.91,1.39-25.56Z"/>
    <g>
      <path class="cls-11" d="m654.48,158.15c.9-3.82,2.07-8.61,2.07-8.59,0,0-8.71-2.91-8.71-14.88,0-5.95,1.81-15.43,3.54-23.13,1.56-6.93,9.52-15.12,18.1-13.29l3.91.38,13.34,8.95c2.08.56,3.39,2.63,3.01,4.75l-10.89,51.87-12.15,12.15-13.32-12.32,1.11-5.88Z"/>
      <path class="cls-12" d="m665.58,135.71c.05-.62-.17-1.23-.52-1.68-.7-.92-1.93-1.26-2.98-.82-1.05.43-1.86,1.62-1.94,2.86h0c.36.82,1.04,1.46,1.9,1.73.13.04.27.08.4.1.66.13,1.38.05,1.99-.33.61-.38,1.09-1.08,1.15-1.84Z"/>
      <g>
        <path class="cls-7" d="m652.5,120.69c-.15.79.39,1.57,1.2,1.74.82.18,1.6-.32,1.76-1.1.15-.79-.39-1.57-1.2-1.74-.82-.18-1.61.32-1.76,1.1Z"/>
        <path class="cls-7" d="m653.16,115.97c.15.22,1.42-.43,3.03-.17,1.61.24,2.66,1.26,2.87,1.09.1-.07-.03-.46-.49-.91-.45-.45-1.25-.95-2.26-1.11-1-.15-1.91.08-2.45.38-.56.3-.78.63-.7.73Z"/>
        <path class="cls-7" d="m660.7,130.67c.02-.09-.95-.42-2.54-.89-.4-.11-.78-.25-.81-.54-.05-.31.19-.73.47-1.18.55-.93,1.12-1.91,1.72-2.94,2.4-4.19,4.21-7.66,4.04-7.76-.17-.1-2.25,3.22-4.65,7.42-.58,1.04-1.14,2.02-1.67,2.97-.23.44-.58.93-.47,1.58.06.33.33.6.58.71.25.12.48.16.68.21,1.62.35,2.63.52,2.65.43Z"/>
        <path class="cls-12" d="m656.55,149.56s7.77,1.76,16.3-1.68c0,0-5.45,7.43-16.97,4.48l.67-2.8Z"/>
        <path class="cls-7" d="m665.26,132.54c-.26-.06-.54,1.69-2.24,2.69-1.69,1.01-3.53.51-3.58.76-.04.11.36.41,1.14.55.77.15,1.93.08,2.97-.53,1.03-.62,1.59-1.57,1.76-2.28.18-.72.06-1.19-.06-1.19Z"/>
        <path class="cls-7" d="m654,112.81c.21.44,1.48.37,2.91.72,1.43.3,2.56.92,2.93.62.17-.15.07-.56-.36-1.03-.43-.47-1.22-.97-2.2-1.2-.98-.22-1.91-.12-2.5.12-.6.24-.86.57-.77.78Z"/>
        <path class="cls-7" d="m670.48,124.24c-.13.79-.9,1.34-1.73,1.22-.83-.12-1.4-.85-1.27-1.64.13-.79.9-1.34,1.73-1.22.83.12,1.4.85,1.27,1.65Z"/>
        <path class="cls-7" d="m674.85,120.01c-.22.16-1.18-.9-2.79-1.21-1.6-.34-2.93.26-3.07.03-.07-.1.19-.42.77-.69.58-.27,1.51-.46,2.5-.26,1,.2,1.76.74,2.17,1.21.42.48.51.86.41.93Z"/>
        <path class="cls-7" d="m674.99,114.7c-.39.3-1.55-.32-3.03-.63-1.47-.36-2.79-.3-3-.74-.09-.21.18-.53.8-.77.61-.24,1.57-.34,2.59-.11,1.01.23,1.83.74,2.28,1.21.45.48.55.89.37,1.04Z"/>
      </g>
      <g>
        <path class="cls-11" d="m683.56,131.3c.14-.87,1.47-2.76,2.35-2.76,2.35,0,6.45.85,5.56,6.68-1.22,7.97-8.97,5.1-8.94,4.87.02-.18.54-5.8,1.03-8.8Z"/>
        <path class="cls-12" d="m685.18,137.52s.12.12.34.26c.21.14.6.27,1.03.18.89-.18,1.8-1.41,2.06-2.84.13-.72.08-1.44-.09-2.05-.15-.62-.47-1.08-.88-1.22-.41-.16-.75.05-.88.25-.14.21-.11.37-.16.38-.03.02-.15-.16-.04-.48.06-.15.18-.33.39-.45.21-.13.51-.16.8-.09.61.14,1.07.79,1.26,1.46.22.68.29,1.48.14,2.29-.3,1.6-1.35,2.98-2.55,3.13-.58.06-1.02-.18-1.24-.4-.22-.23-.23-.42-.2-.43Z"/>
      </g>
    </g>
    <path class="cls-7" d="m686.23,128.63l-2.45,1.64c-6.84-10.12-19.24-34.45-18.56-33.01,0,0,6.44-1.15,12.62,1.33,6.18,2.48,17.66,8.32,15.83,15.85-1.82,7.53-7.44,14.2-7.44,14.2Z"/>
    <path class="cls-2" d="m698.04,129.37s0-.17-.02-.48c-.03-.31-.11-.78-.27-1.36-.32-1.15-1.07-2.78-2.49-4.41-1.39-1.66-3.47-3.21-5.93-4.61-2.45-1.43-5.27-2.73-7.91-4.61-2.67-1.84-4.95-3.95-6.83-6.03-1.87-2.09-3.34-4.16-4.45-5.98-1.1-1.82-1.86-3.37-2.36-4.45-.23-.51-.41-.93-.55-1.25-.13-.29-.2-.43-.22-.43-.01,0,.03.16.14.46.11.3.26.74.48,1.29.46,1.1,1.17,2.68,2.26,4.53,1.08,1.85,2.54,3.95,4.41,6.08,1.89,2.11,4.18,4.26,6.88,6.12,2.68,1.9,5.52,3.2,7.95,4.6,2.45,1.37,4.51,2.88,5.9,4.48,1.42,1.57,2.19,3.14,2.55,4.26.36,1.13.4,1.8.44,1.79Z"/>
    <path class="cls-2" d="m695.48,130.11s.22-.63.07-1.78c-.14-1.15-.75-2.8-2.16-4.34-1.38-1.58-3.56-2.85-6.01-3.99-2.46-1.13-5.11-2.47-7.6-4.35-2.48-1.87-4.62-3.95-6.3-6.06-1.7-2.1-2.98-4.17-3.93-5.98-.96-1.8-1.53-3.36-1.95-4.42-.17-.51-.32-.92-.43-1.25-.1-.28-.16-.43-.18-.43s.02.16.1.45c.09.33.21.76.36,1.27.38,1.08.91,2.67,1.85,4.5.92,1.84,2.19,3.95,3.89,6.08,1.68,2.14,3.84,4.26,6.35,6.15,2.51,1.9,5.22,3.26,7.68,4.36,2.45,1.12,4.59,2.33,5.95,3.84,1.39,1.48,2.03,3.06,2.21,4.17.2,1.12.04,1.76.09,1.76Z"/>
  </g>
  <g>
    <path class="cls-1" d="m666.16,208.91c-.07.26-27.2-3.31-27.2-3.31,0,0,2.27-22.47,4.36-29.19,1.95-6.3,15.33-13.1,21.3-7.36,5.97,5.74,5.8,12.93,5.8,12.93l-4.26,26.93Z"/>
    <path class="cls-7" d="m665.77,209.41c-1.89,0-7.79-.73-26.88-3.24l-.55-.07.06-.55c.09-.92,2.3-22.61,4.38-29.3,1.19-3.84,6.48-7.98,12.04-9.41,4.23-1.09,7.85-.45,10.2,1.81,6.08,5.85,5.99,13.05,5.98,13.35l-4.28,27.07c-.06.2-.1.35-.94.35Zm-26.18-4.3c9.62,1.26,23.45,3.02,26.09,3.22l4.18-26.44h0s.06-6.94-5.64-12.43c-2.76-2.66-6.9-2.1-9.12-1.53-5.21,1.34-10.15,5.14-11.23,8.64-1.86,6-3.91,25.04-4.28,28.53Z"/>
  </g>
  <path class="cls-5" d="m653.44,160.62s-15.03,18.34-16.78,27.29c-1.75,8.95,4.83,32.45,4.83,32.45l2.84,13.96,43.39-7.47.63-31.39-3.24-35.78-4.46-4.08-27.21,5.02Z"/>
  <path class="cls-11" d="m687.72,232.72v-5.87s-5.95-6.81-21.05-4.74c-15.1,2.07-21.5,10.6-21.5,10.6l3.07,9.72,15.32,1.73,24.16-11.45Z"/>
  <path class="cls-7" d="m750.44,280.82c-.29.83-11.44,50.18-13.72,61.49s-20.3,32.54-35.74,12.68c-15.44-19.85-31.27-54.72-31.27-54.72l41.67-12.98,4.74,19.45,19.17-32.81,15.15,6.89Z"/>
  <path class="cls-2" d="m712.74,344.54s-.23-.5-.55-1.44c-.16-.47-.35-1.05-.51-1.73-.17-.68-.4-1.45-.56-2.33-.38-1.74-.67-3.83-.85-6.18-.14-2.35-.14-4.94.11-7.64.27-2.7.77-5.25,1.35-7.52.62-2.27,1.31-4.27,2.01-5.91.32-.83.69-1.54.99-2.18.29-.64.58-1.17.83-1.6.49-.86.77-1.33.81-1.31.1.05-.96,1.97-2.24,5.25-.64,1.64-1.29,3.63-1.87,5.89-.55,2.26-1.02,4.77-1.29,7.44-.25,2.67-.26,5.23-.15,7.55.14,2.32.39,4.4.72,6.13.63,3.46,1.31,5.55,1.2,5.58Z"/>
  <path class="cls-7" d="m656.29,271.09s-.12,57.01,16.04,89.81c3.64,7.39,6.29,11.96,6.32,18.6.03,6.64,2.15,58.46,2.15,58.46h20.82s6.4-35.34,6.1-44.64c-.3-9.3-5.45-28.97-6.05-36.41-.61-7.44-8.47-51.55-8.47-51.55l-11.99-29.71-24.92-4.56Z"/>
  <path class="cls-7" d="m687.55,232.31c1.71.12,3.16,9.38,3.8,10.31s21.14,8.28,22.76,28.44c0,0,0,8.66-3.85,18.55l1.06,18.51-38.89,9.01s-6.41-20.09-8.98-35.24c0,0-5.45-5.87-9.62-16.08-4.17-10.2-5.77-24.11-5.77-24.11,0,0,12.59-11.34,39.48-9.38Z"/>
  <path class="cls-2" d="m659.56,273.75s.04.09.1.27c.06.21.14.47.23.79.21.75.49,1.77.85,3.06.75,2.65,1.92,6.47,3.58,11.11,1.68,4.63,3.93,10.06,6.74,15.94,2.81,5.88,6.21,12.19,10.05,18.66,3.84,6.48,7.72,12.51,11.33,17.94.91,1.36,1.79,2.68,2.65,3.97.85,1.28,1.73,2.52,2.44,3.8,1.44,2.53,2.73,4.9,4.27,6.81,3.02,3.9,6.8,5.69,9.42,6.39.66.16,1.25.3,1.77.43.52.1.97.15,1.32.21.33.05.6.1.82.13.18.03.28.06.28.07,0,.01-.1,0-.28,0-.22-.02-.49-.04-.82-.08-.36-.04-.81-.07-1.34-.15-.53-.11-1.13-.24-1.8-.38-2.66-.64-6.56-2.41-9.68-6.35-1.59-1.93-2.91-4.32-4.36-6.82-.71-1.26-1.57-2.47-2.44-3.76-.87-1.28-1.76-2.6-2.67-3.95-3.63-5.43-7.54-11.46-11.38-17.94-3.84-6.48-7.24-12.82-10.04-18.73-2.8-5.91-5.01-11.37-6.65-16.03-1.62-4.67-2.73-8.52-3.41-11.19-.31-1.31-.56-2.34-.74-3.09-.07-.33-.13-.59-.18-.81-.04-.18-.05-.28-.04-.28Z"/>
  <path class="cls-11" d="m688.48,163.52c.64.15,29.96,34.37,34.26,41.57,4.3,7.2,21.46,50.63,21.46,50.63l-11.77,5.09s-22.25-39.61-25.12-44.41c-2.86-4.8-36.62-34.77-37.56-36-.93-1.23-1.76-21.68,18.73-16.88Z"/>
  <path class="cls-11" d="m731.48,258.76l.94,3.04s-1.3,5.9-1.44,9.75c-.14,3.85.88,8.99.83,9.67-.06.68,3.9,4.03,5.38,3.7,1.48-.33,1.65-2.45.55-3.76-1.1-1.3-1.06-4.48-1.06-4.48l1.16-2.04s7.71,3.21,9.47,2.92c1.77-.29,2.63-2.24,2.63-2.24,0,0,3.35.63,3.65-1.4l.3-2.03s1.75.81,2.09-1.49c.34-2.3-.42-2.97-.42-2.97,0,0,3.07-.38,1.36-3.4-1.71-3.02-11.32-6.91-12.19-7.81-.87-.9-1.31-2.07-1.31-2.07l-11.93,4.61Z"/>
  <path class="cls-5" d="m710.03,180.3l-19.79,20.53s-17.54-16.66-22.29-21.84c-5.64-6.15.13-20.18,8.22-21.96,8.09-1.78,13.85,4.95,13.85,4.95l20.01,18.32Z"/>
  <path class="cls-7" d="m710.03,180.3s-.15-.11-.4-.33c-.27-.24-.64-.56-1.09-.96-.97-.87-2.35-2.1-4.09-3.67-3.52-3.18-8.53-7.71-14.59-13.18h0s-.02-.02-.02-.02c-1.75-1.86-4.07-3.52-6.78-4.43-1.35-.45-2.81-.7-4.29-.69-1.49-.02-3,.32-4.38.95-2.79,1.32-4.95,3.93-6.46,6.83-1.43,2.95-2.31,6.39-1.74,9.78.31,1.6.99,3.08,2.04,4.27,1.11,1.2,2.25,2.35,3.37,3.49,2.26,2.27,4.49,4.46,6.66,6.58,4.36,4.21,8.44,8.15,12.15,11.73h-.35c5.96-6.1,10.92-11.18,14.41-14.76,1.73-1.76,3.1-3.15,4.07-4.13.46-.46.82-.82,1.09-1.09.25-.25.39-.37.4-.37.01,0-.1.13-.32.37-.25.27-.59.64-1.02,1.09-.94.99-2.26,2.4-3.94,4.18-3.48,3.65-8.4,8.82-14.33,15.06l-.17.18-.18-.17c-3.74-3.54-7.85-7.46-12.21-11.68-2.18-2.11-4.41-4.3-6.68-6.57-1.13-1.14-2.27-2.29-3.39-3.5-1.13-1.28-1.87-2.88-2.19-4.57-.6-3.58.33-7.11,1.8-10.15,1.56-2.99,3.78-5.68,6.74-7.08,2.98-1.38,6.3-1.18,9.09-.25,2.81.97,5.15,2.66,6.97,4.62l-.02-.02c6.04,5.6,11.02,10.22,14.53,13.47,1.69,1.58,3.03,2.83,3.97,3.72.43.41.76.73,1.02.97.23.22.34.33.33.33Z"/>
  <path class="cls-12" d="m645.17,232.72c.16-.05.93,1.92,1.73,4.4.8,2.48,1.33,4.53,1.17,4.58-.16.05-.93-1.92-1.73-4.4-.8-2.48-1.33-4.53-1.17-4.58Z"/>
  <path class="cls-14" d="m410.15,276.84c.66-1.5,0-16.5,0-16.5h18.72l-.72,7.29,3.8,9.21-11.77,4.26-10.03-4.26Z"/>
  <path class="cls-7" d="m388.84,305.73s8.78.58,15.74-1.61c6.96-2.18,16.87-7.01,20.53-8.75,3.66-1.73,15.17-2.89,15.08-6.99-.09-4.1-9.15-17.29-9.15-17.29,0,0-2.19,5.01-6.12,5.73-3.93.72-11.96.38-11.96.38,0,0-4.42-4.37-6.71-4.06-2.29.3-.12,6.5-.12,6.5,0,0-3.76,8.87-7.15,11.36-3.39,2.49-3.27,3.67-7.62,4.76-4.35,1.09-6.09,3.16-6.09,3.16,0,0-1.21,4.03.11,5.09,1.31,1.06,3.47,1.71,3.47,1.71Z"/>
  <path class="cls-2" d="m385.3,303.96c1.23,1.24,3.55,1.83,3.55,1.83,0,0,8.78.58,15.74-1.61,6.96-2.18,16.87-7.01,20.53-8.75s15.17-2.89,15.08-6.99c-.01-1.12-.32-2.21-.91-3.26,0,0-10.67,5.6-16.17,6.73-5.51,1.13-16.33,7.59-22.54,8.92-6.21,1.34-13.52,1.39-13.52,1.39l-2.28-.64c-.04.96-.21,1.65.52,2.37Z"/>
  <path class="cls-8" d="m400.13,289.62c.11-.03.39.96,1.21,1.86.81.92,1.75,1.31,1.71,1.41-.01.1-1.11-.17-1.99-1.17-.89-.99-1.03-2.11-.93-2.11Z"/>
  <path class="cls-8" d="m402.99,285.66c.11-.04.52,1.12,1.6,2.12,1.06,1.02,2.25,1.36,2.21,1.47,0,.1-1.32-.11-2.47-1.2-1.16-1.08-1.44-2.38-1.35-2.39Z"/>
  <path class="cls-8" d="m404.85,282.06c.08-.07.78.64,1.78,1.32,1,.69,1.91,1.09,1.87,1.19-.03.09-1.04-.16-2.08-.89-1.05-.72-1.65-1.57-1.57-1.63Z"/>
  <path class="cls-8" d="m428.15,285.49s-.52.29-1.4.62c-.88.33-2.13.74-3.52,1.11-1.39.37-2.67.65-3.6.81-.93.16-1.51.22-1.52.17-.02-.11,2.26-.58,5.02-1.33,2.77-.74,4.98-1.47,5.01-1.37Z"/>
  <path class="cls-14" d="m591.18,264.16c.47.55,5.74,15.24,5.5,16.51-.24,1.26-.93,9.28-1.73,11.14-.8,1.85-5.77,7.45-6.74,6.73-.96-.72-1.97-2.48-.97-3.67l-5.46.81s-.42-2.6,1.34-3.6l-2.51-.6s.61-2.64,2.3-2.88c1.69-.24,1.01.22,1.01.22l1.33-2.07s-.51-5.94-1.42-7.3c-.91-1.36-3.25-2.46-3.6-5.83-.35-3.36,1.12-7.08.68-7.89-.44-.81-1.41-4.48-1.41-4.48,0,0,8.06-4.18,8.45-4.27.39-.09,3.23,7.2,3.23,7.2Z"/>
  <path class="cls-9" d="m584.16,280.02c.11-.02.24,1.66,1.18,4.16.47,1.23,1.15,2.7,2.16,4.1.49.67,1.26,1.23,2.1,1.15.84-.06,1.41-.93,1.45-1.87.09-.95-.34-1.83-.8-2.67-.46-.83-.95-1.69-1.16-2.61-.41-1.83-.1-3.47.04-4.79.17-1.33.23-2.4.17-3.14-.05-.74-.16-1.14-.11-1.16.02,0,.21.38.34,1.13.13.75.13,1.87.01,3.21-.09,1.33-.34,2.95.07,4.61.2.83.66,1.61,1.14,2.46.46.83.99,1.85.88,2.99-.05.55-.21,1.11-.54,1.57-.33.47-.88.79-1.45.83-1.15.08-2.06-.67-2.59-1.4-1.05-1.51-1.68-3-2.12-4.29-.43-1.29-.63-2.38-.73-3.13-.09-.75-.09-1.17-.06-1.18Z"/>
  <path class="cls-9" d="m591.21,290.51c.12.11-.67,1.14-1.65,2.38-.99,1.24-1.8,2.25-1.94,2.16-.14-.09.47-1.26,1.47-2.52,1-1.27,2-2.13,2.12-2.01Z"/>
  <path class="cls-9" d="m590.37,282.36c.07-.03.36.36.73,1.07.36.7.84,1.74.9,3.02.04,1.31-.47,2.32-.59,3.06-.16.74-.06,1.21-.14,1.23-.06.03-.34-.45-.27-1.29.03-.83.46-1.87.41-2.98-.04-1.13-.43-2.14-.69-2.87-.27-.73-.43-1.2-.35-1.24Z"/>
  <path class="cls-9" d="m583.49,292.29c-.07-.16,1.21-.64,2.65-1.1.61-.26,1.01-.94,1.47-1.26.46-.36.87-.34.87-.26.02.09-.27.2-.59.57-.16.18-.34.43-.56.71-.22.27-.52.61-.95.79-1.6.52-2.84.7-2.9.56Z"/>
  <path class="cls-14" d="m532.44,137.73l4.7,3.13s11.14,3.08,15.39,10.01c4.25,6.93,7.65,19.06,8.77,26,1.12,6.93,6.71,17.47,9.62,26.96,0,0,12.52,23.8,16.33,50.19l2.01,6.31-8.34,5.37s-16.44-27.97-18.9-34.66c-2.46-6.69-3.85-9.68-6.76-17.28-2.91-7.6-14.31-21.7-14.76-25.72l1.34-11.63s-6.71-9.39-9.39-18.34c-2.68-8.95,0-21.47,0-21.47"/>
  <path class="cls-14" d="m482.8,132.37l-8.05,3.35s-19.45.82-24.81,18.26l-5.61,11.95,4.04,23.69,6.71,2.01,9.84-19.46,2.35.22s9.06-12.97,12.64-20.8c3.58-7.83,2.91-19.23,2.91-19.23Z"/>
  <path class="cls-13" d="m459.04,189.28c-.57-.71-17.44-17.28-17.44-17.28,0,0,7.99-18.44,9.66-21.31,1.67-2.87,5.52-11.14,21.13-15.42l11.37-3.21-4.8,33.82-11.71,6.51-8.21,16.88Z"/>
  <path class="cls-13" d="m482.8,132.37l12.56-2.2,26.02,1.5,8.6,3.61,13.42,39.14s-8.72,34.44-8.72,35.11-10.16,46.2-10.16,46.2c0,0,9.32,2.21-3.28,8.27-23.57-7.64-44.28-17.39-53.99-35.24l-4.06-14.85,4.06-10.07v-31.44l15.55-40.03Z"/>
  <path class="cls-13" d="m543.4,198.64l22.01-13.25s-7.91-33.73-17.95-40.44c-10.03-6.71-17.48-9.68-17.48-9.68l7.75,52.78,5.67,10.59Z"/>
  <path class="cls-7" d="m542.68,165.73c.16.02-.62,6.77-1.75,15.06-1.13,8.3-2.17,15-2.33,14.98-.16-.02.62-6.76,1.75-15.06,1.13-8.29,2.17-15,2.33-14.98Z"/>
  <path class="cls-7" d="m466.76,159.29c.16,0,.49,9.83.73,21.95.24,12.13.3,21.96.14,21.97-.16,0-.49-9.82-.73-21.95-.24-12.13-.3-21.96-.14-21.96Z"/>
  <path class="cls-3" d="m491.69,108.29c-1.36-4.65-2.7-9.33-3.24-14.14-.54-4.81-.24-9.8,1.58-14.29.28-.68,2.59-5.23,3.32-5.13.52.07-.95,4.33-.7,4.79,2.39,4.4,2.92,9.62,2.37,14.6-.55,4.98-1.72,9.43-3.33,14.18"/>
  <path class="cls-14" d="m491.14,133.34l.63-43.53c-.03-12.14,7.01-22.28,19.15-21.98l1.12.09c11.27.94,19.94,10.38,19.91,21.69-.03,10.53-.2,22.16-.74,27.76-1.11,11.6-12.88,12.43-12.88,12.43-.03,0-.08,1.03-.22,4.45l-7.37,11.41h0l-19.6-12.32Z"/>
  <path class="cls-9" d="m518.33,129.81s-7.36-.18-14.75-5.73c0,0,2.91,9.03,14.58,8.96l.16-3.22Z"/>
  <path class="cls-7" d="m527.71,99.81c-.04.88-.82,1.57-1.74,1.54-.92-.03-1.63-.76-1.58-1.64.04-.88.82-1.57,1.74-1.54.92.03,1.63.76,1.59,1.64Z"/>
  <path class="cls-7" d="m529.05,94.54c-.22.2-1.4-.84-3.19-.98-1.78-.17-3.17.64-3.34.4-.09-.1.16-.48.76-.85.6-.37,1.59-.69,2.7-.59,1.11.1,2.01.59,2.51,1.05.51.47.67.87.56.96Z"/>
  <path class="cls-7" d="m511.64,98.87c-.04.88-.82,1.57-1.74,1.54-.92-.03-1.63-.76-1.58-1.64.04-.88.82-1.57,1.74-1.54.92.03,1.63.76,1.59,1.64Z"/>
  <path class="cls-7" d="m511.52,93.49c-.22.2-1.4-.84-3.19-.98-1.78-.17-3.17.64-3.34.4-.09-.1.15-.48.76-.84.6-.37,1.59-.69,2.7-.59,1.11.1,2.01.59,2.51,1.05.51.47.67.87.56.96Z"/>
  <path class="cls-7" d="m516.77,107.74c0-.1,1.13-.2,2.94-.28.46,0,.9-.06,1-.37.13-.32-.01-.83-.19-1.38-.34-1.14-.69-2.33-1.06-3.58-1.46-5.1-2.47-9.27-2.27-9.33.21-.06,1.56,4.03,3.01,9.12.35,1.26.68,2.45,1,3.6.13.53.38,1.14.09,1.81-.15.33-.51.55-.8.6-.3.06-.56.05-.78.04-1.82-.05-2.94-.14-2.94-.24Z"/>
  <path class="cls-3" d="m512.56,87.96c-.28.44-1.97-.19-4.08-.41-2.1-.26-3.89-.04-4.06-.53-.07-.23.32-.61,1.09-.92.77-.31,1.92-.5,3.18-.36,1.26.15,2.34.6,3.02,1.07.68.47.98.93.85,1.14Z"/>
  <path class="cls-3" d="m529.57,89.3c-.4.38-1.82-.14-3.57-.28-1.74-.19-3.25.05-3.56-.4-.14-.22.13-.61.8-.95.66-.34,1.75-.58,2.95-.47,1.2.11,2.22.55,2.8,1.01.59.46.76.89.59,1.08Z"/>
  <path class="cls-14" d="m492,98.49c-.19-.1-7.78-3.03-8.19,4.93-.41,7.96,7.67,6.73,7.69,6.5.03-.23.5-11.44.5-11.44Z"/>
  <path class="cls-9" d="m489.22,106.79s-.14.09-.38.19c-.23.09-.63.14-1.04-.03-.82-.35-1.46-1.72-1.43-3.16.02-.73.2-1.41.49-1.97.27-.57.67-.96,1.1-1.01.43-.08.71.19.8.42.1.23.04.38.08.4.02.02.18-.12.13-.46-.02-.16-.11-.35-.29-.52-.18-.17-.46-.26-.76-.24-.62.01-1.2.55-1.51,1.16-.35.61-.58,1.38-.6,2.19-.03,1.61.71,3.15,1.85,3.54.55.18,1.03.03,1.28-.15.26-.18.31-.36.28-.38Z"/>
  <path class="cls-3" d="m527.35,76.21c1.32-.66-2.37-4.99-5.48-6.57-4.69-2.38-11.95-4.03-16.41-2.96-5.38,1.28-9.91,3.74-12.78,8.46-2.87,4.72-4.12,10.31-4.2,15.84-.02,1.69.08,3.45.91,4.91,1.04,1.81,3.12,3.01,2.93,5.43-.07.89.14,1.79.72,2.47,1.39,1.61,3.24.23,4.12-1.19,1.88-3.04,2.24-6.76,2.54-10.33.22-2.54.43-5.13-.18-7.59-.33-1.34-.91-2.62-1.16-3.99-.26-1.36-.15-2.89.73-3.95.14-.17.38-.39.67-.63,2.34-1.88,5.52-2.34,8.31-1.22,4.42,1.78,11.97,4.47,14.04,3.04,2.97-2.07,3.72-3.47,3.72-3.47l1.51,1.74Z"/>
  <path class="cls-7" d="m511.11,108.61c.27,0,.21,1.82,1.73,3.18,1.51,1.36,3.47,1.23,3.48,1.49.02.12-.45.34-1.27.33-.81,0-1.98-.31-2.91-1.14-.93-.83-1.3-1.91-1.33-2.66-.04-.77.18-1.21.3-1.2Z"/>
  <path class="cls-7" d="m519.42,275.32s-4.61,30.16-6.8,43.55c-2.19,13.39-4.66,30.79-5.84,44.68-1.2,14.16-.35,19.13-.77,36.58-.42,17.45-8.46,44.25-8.46,44.25h-19.03c0-1.22-2.35-38.53-2.35-49.93s.56-13.28-1.63-21.4c-2.19-8.12-2.81-18.66-2.38-35.71.44-17.05-4.91-51.43-4.91-51.43l1.75-55.61s33.3,20.7,42.94,26.38c9.64,5.68,9.76,4.43,9.76,4.43l-2.29,14.21Z"/>
  <path class="cls-7" d="m496.04,439.72c2.37,3.5,4,8.32,4.16,13.07.07,2.11.01,4.39-1.19,6.1-.95,1.36-2.55,2.22-3.2,3.75-.74,1.72-.07,3.74-.32,5.61-.33,2.45-3.46,4.86-5.64,5.85-2.19.99-4.16.87-6.55,1.05-3.45.25-6.49.27-9.28-1.85-2.13-1.61-3.3-4.37-3.34-7.1-.05-2.73.94-5.41,2.44-7.65,1.29-1.92,2.96-3.59,3.89-5.72,1.04-2.39,2.13-7.4,2.63-10.56,0,0,1.05-1.48,5.81-1.62s6.88,5.05,8.46,3.69c1.58-1.37,2.14-4.63,2.14-4.63Z"/>
  <path class="cls-2" d="m470.77,469.35c2.07,1.52,4.31,2.66,6.81,3.14,2.61.5,5.04.47,7.55.06,1.49-.24,3.75-1.04,4.87-2.08,1.82-1.68,2.49-2.5,2.96-3.98.5-1.57.09-3.34.63-4.89.6-1.73,2.22-2.81,3.4-4.18,1.57-1.83,3.04-4.66,2.89-7.11,1.54,2.18,1.9,5.61.5,8.02-1.11,1.9-3.17,3.1-4.1,5.1-.82,1.75.04,3.55-.49,5.4-.75,2.6-3.56,4.87-5.98,5.9-2.42,1.03-5.11,1.2-7.72,1.05-2.17-.12-4.36-.47-6.33-1.41s-3.72-2.54-4.52-4.62"/>
  <path class="cls-8" d="m485.08,459.44c-.08.16-1.73-.67-3.93-.97-2.2-.33-4.01,0-4.04-.18-.05-.14,1.8-.75,4.13-.41,2.33.33,3.93,1.44,3.84,1.56Z"/>
  <path class="cls-8" d="m485.99,456.21c-.08.16-1.73-.67-3.93-.97-2.2-.33-4.01,0-4.04-.18-.05-.14,1.8-.75,4.13-.41,2.33.33,3.93,1.44,3.84,1.56Z"/>
  <path class="cls-8" d="m487.94,453.1c-.08.16-1.73-.67-3.93-.97-2.2-.33-4.01,0-4.04-.18-.05-.14,1.8-.75,4.13-.41,2.33.33,3.93,1.44,3.84,1.56Z"/>
  <path class="cls-8" d="m483.34,449.34s.1-.4.4-1.06c.3-.66.75-1.62,1.52-2.69.4-.51.81-1.14,1.6-1.53.38-.19.96-.23,1.38.12.4.32.58.84.55,1.34-.1.99-.65,1.78-1.28,2.52-.66.72-1.47,1.33-2.42,1.74-.95.43-2.14.45-3.03-.04-.9-.45-1.55-1.19-2.05-1.9-.25-.36-.47-.72-.68-1.07-.1-.17-.23-.36-.29-.62-.03-.13-.02-.31.07-.46.09-.15.26-.25.4-.26.28-.04.5.05.67.12.18.07.35.14.51.23.33.17.63.35.89.55,1.08.81,1.64,1.78,1.92,2.45.27.69.29,1.1.26,1.11-.05.01-.15-.38-.47-1.01-.33-.62-.92-1.5-1.95-2.21-.25-.18-.54-.34-.85-.48-.29-.12-.69-.31-.9-.27-.07.03-.08.02-.06.14.03.12.12.27.23.45.21.34.43.69.68,1.03.48.67,1.08,1.32,1.86,1.7.77.4,1.69.39,2.54.01,1.68-.74,3.13-2.25,3.39-3.75.03-.35-.1-.7-.33-.9-.23-.19-.55-.2-.85-.07-.61.27-1.06.86-1.46,1.33-.79,1-1.28,1.92-1.65,2.54-.36.63-.57.97-.6.95Z"/>
  <path class="cls-8" d="m495.94,449.64c.16.01.17,1.08-.39,2.23-.55,1.16-1.39,1.82-1.5,1.7-.12-.12.46-.9.96-1.96.51-1.06.76-2,.93-1.98Z"/>
  <path class="cls-7" d="m431.43,163.33s-19.23-2.31-19.94,22.81c-.6,21.54-2.98,79.57-2.98,79.57l22.48-1.72s8.1-34.91,8.52-49.11c.43-14.21-3.4-26.79-3.4-26.79l-4.68-24.76Z"/>
  <path class="cls-7" d="m469,230.3s-10.73-43.72-20.76-59.57c-4.72-7.46-16.82-7.4-16.82-7.4,0,0-2.13,88.08,2.98,97.01,5.11,8.93,15.32,19.08,28.09,22.32l4.68,3.25,1.83-55.61Z"/>
  <path class="cls-2" d="m464.44,249.39s.17.46.38,1.31c.21.85.48,2.09.79,3.62.62,3.07,1.37,7.33,1.98,12.07.62,4.74.99,9.05,1.17,12.18.09,1.56.15,2.83.16,3.7.02.88,0,1.36-.03,1.36-.04,0-.11-.48-.2-1.35-.09-.99-.21-2.23-.35-3.69-.29-3.11-.73-7.41-1.34-12.13-.62-4.73-1.29-8.99-1.81-12.07-.24-1.45-.44-2.67-.61-3.65-.14-.86-.2-1.35-.16-1.35Z"/>
  <path class="cls-2" d="m439.42,178.27s.09.26.21.77c.12.57.29,1.31.49,2.24.21.97.46,2.16.67,3.56.22,1.4.52,2.98.71,4.75.23,1.77.46,3.7.61,5.79.21,2.08.28,4.32.38,6.67.11,4.71.02,9.89-.45,15.3-.5,5.41-1.32,10.53-2.26,15.14-.52,2.3-.98,4.48-1.55,6.5-.51,2.03-1.08,3.89-1.62,5.59-.5,1.71-1.07,3.21-1.54,4.55-.46,1.34-.9,2.47-1.29,3.39-.36.87-.65,1.58-.88,2.12-.21.48-.32.73-.34.72-.02,0,.06-.27.23-.77.2-.55.45-1.26.77-2.15.35-.93.76-2.07,1.19-3.41.43-1.34.98-2.85,1.45-4.56.51-1.7,1.06-3.56,1.54-5.59.55-2.01.99-4.2,1.49-6.49.91-4.6,1.71-9.7,2.2-15.09.46-5.39.57-10.55.49-15.23-.09-2.34-.14-4.57-.33-6.65-.12-2.08-.33-4.01-.53-5.78-.16-1.77-.43-3.35-.62-4.75-.18-1.4-.39-2.59-.57-3.57-.16-.93-.28-1.68-.38-2.26-.08-.52-.11-.79-.09-.8Z"/>
  <path class="cls-14" d="m421.52,196.98c-.48-.56-1.17-.92-1.87-1.15.86.11,1.67-.69,1.74-1.56.07-.87-.45-1.7-1.16-2.21-.71-.51-1.57-.74-2.43-.9-.86-.16-2.46-.47-3.28-.75l-6.19-.74c-1.11.33-1.51,3.6-.12,4.34-.81.21-1.26.08-1.84.68-.58.6-.91,1.47-.75,2.29.16.82.89,1.53,1.73,1.54-1.14.6-1.82,1.96-1.62,3.23.12.76.55,1.46,1.15,1.94.3.24.64.42,1.01.55.13.04.28.11.42.11.07,0,.13-.03.19-.05.29-.13.54-.3.84-.41.11-.04.23-.08.34-.11.52-.15,1.07-.21,1.61-.21.25,0,.52.06.77.02.17-.03.31-.13.46-.18,1-.34,2.15-.17,3.18-.06,1.16.12,2.39.19,3.42-.35,1.03-.54,1.72-1.91,1.12-2.91.71.2,1.5-.32,1.74-1.02.24-.7,0-1.5-.49-2.07Z"/>
  <path class="cls-14" d="m407.21,207.22c-.07.71.02,1.5.52,2.02.59.61,1.84.81,2.69.8.26-.98.33-1.49.58-2.47.05-.21.01-.38.15-.55.36-.44,1.45-.29,1.99-.43.94-.26,1.47-1.4,1.2-2.34-.28-.94-1.21-1.59-2.18-1.7-.97-.11-1.95.25-2.74.82-1.23.9-2.06,2.33-2.22,3.85Z"/>
  <path class="cls-9" d="m407.12,198.68c.02-.19,2.99.02,6.63.46,3.64.44,6.57.94,6.55,1.13-.02.18-2.99-.02-6.63-.46-3.64-.44-6.57-.94-6.55-1.13Z"/>
  <path class="cls-9" d="m408.1,193.97c0-.18,2.72-.23,6.03.29,3.31.51,5.88,1.39,5.83,1.56-.05.19-2.67-.39-5.93-.9-3.26-.51-5.93-.76-5.92-.95Z"/>
  <path class="cls-9" d="m408.41,189.51c.01-.19,2.27-.11,4.97.42,2.7.53,4.84,1.1,4.81,1.28-.03.19-2.25-.08-4.94-.61-2.68-.53-4.85-.9-4.84-1.09Z"/>
  <path class="cls-9" d="m407.86,205.82c-.08,0-.15-.49.21-1.15.34-.66,1.19-1.38,2.26-1.68,1.08-.29,2-.35,2.76-.27.82.14,1.01.75.91.76-.08.05-.34-.3-.95-.28-.6.04-1.59.18-2.52.44-.95.27-1.66.8-2.06,1.3-.4.49-.5.91-.6.89Z"/>
  <path class="cls-14" d="m247,358.43s9.04,15.35,11.46,21.1c1.54,3.67,8.26,20.44,10.36,26.49,2.1,6.05,16.3,42.07,16.3,42.07l17.71-1.82s-10.51-48.28-12.87-58.79c-2.37-10.52-10.36-29.04-10.36-29.04h-32.6Z"/>
  <path class="cls-14" d="m174.96,351.3c-.22.9-4.05,19.8-3.15,33.29.9,13.5,7.42,60.96,7.42,60.96h13.95s3.37-37.34,4.95-47.13c1.57-9.79.22-27.11,0-29.81-.22-2.7.75-10.8.75-10.8l-23.92-6.52Z"/>
  <path class="cls-7" d="m194.83,237.3s-17.3,27.34-21.11,70.25c-3.81,42.91-4.57,48.48-4.57,48.48l40.32,3.93,10.63-51.52,7.61,51.37,54.88-1.84s-12.31-51.45-14.38-63.57c-2.08-12.11-7.96-27.41-7.96-27.41l-.69-7.2-35.13-2.42-29.59-20.07Z"/>
  <path class="cls-7" d="m325.74,460.02s-6.98,2.7-13.19,2.7c-6.21,0-15.49-1.4-18.91-1.88-3.41-.48-13.06,1.52-14.03-1.84-.98-3.35,3.03-16.37,3.03-16.37,0,0,3.05,3.52,6.43,3.1s9.82-2.74,9.82-2.74c0,0,2.48-4.67,4.41-5.01,1.93-.34,1.75,5.25,1.75,5.25,0,0,5.31,6.24,8.7,7.41,3.39,1.16,3.59,2.15,7.41,1.93,3.81-.22,5.76,1.02,5.76,1.02,0,0,2.01,2.97,1.21,4.16-.8,1.2-2.39,2.27-2.39,2.27Z"/>
  <path class="cls-2" d="m328.17,457.68c-.69,1.33-2.41,2.39-2.41,2.39,0,0-6.98,2.7-13.19,2.7-6.21,0-15.49-1.4-18.91-1.88-3.41-.48-13.06,1.51-14.03-1.84-.28-.92-.3-1.88-.09-2.88,0,0,10.09,1.83,14.85,1.35s15.2,2.01,20.58,1.51c5.38-.49,11.33-2.31,11.33-2.31l1.69-1.1c.28.77.59,1.29.18,2.06Z"/>
  <path class="cls-8" d="m312.47,449.8c-.09,0-.07.88-.51,1.82-.42.95-1.09,1.51-1.03,1.58.03.07.86-.42,1.32-1.45.47-1.03.3-1.97.22-1.95Z"/>
  <path class="cls-8" d="m309.14,447.31c-.1,0-.14,1.04-.76,2.13-.6,1.1-1.48,1.68-1.42,1.76.02.08,1.04-.42,1.7-1.6.67-1.17.57-2.3.49-2.28Z"/>
  <path class="cls-8" d="m306.71,444.87c-.08-.04-.47.72-1.11,1.53-.63.82-1.27,1.37-1.22,1.45.05.07.8-.4,1.47-1.25.67-.85.94-1.69.86-1.72Z"/>
  <path class="cls-8" d="m288.65,453.58s.49.1,1.3.15c.8.04,1.91.06,3.14,0,1.23-.05,2.33-.16,3.13-.26.8-.11,1.28-.21,1.28-.25-.01-.09-1.98.1-4.42.2-2.44.1-4.42.07-4.42.16Z"/>
  <path class="cls-7" d="m193.54,440.4c2.37,3.5,4,8.32,4.16,13.07.07,2.11.01,4.39-1.19,6.1-.95,1.36-2.55,2.22-3.2,3.75-.74,1.72-.07,3.74-.32,5.61-.33,2.45-3.46,4.86-5.64,5.85-2.19.99-4.16.87-6.55,1.05-3.45.25-6.49.27-9.28-1.85-2.13-1.61-3.3-4.37-3.34-7.1-.05-2.73.94-5.41,2.44-7.65,1.29-1.92,2.96-3.59,3.89-5.72,1.04-2.39,2.13-7.4,2.63-10.56,0,0,1.05-1.48,5.81-1.62,4.77-.14,6.88,5.05,8.46,3.69,1.58-1.37,2.14-4.63,2.14-4.63Z"/>
  <path class="cls-2" d="m168.28,470.03c2.07,1.52,4.31,2.66,6.81,3.14,2.61.5,5.04.47,7.55.06,1.49-.24,3.75-1.04,4.87-2.08,1.82-1.68,2.5-2.5,2.96-3.98.5-1.57.09-3.34.63-4.89.6-1.73,2.22-2.81,3.4-4.18,1.57-1.83,3.04-4.66,2.89-7.11,1.54,2.18,1.9,5.61.5,8.02-1.11,1.9-3.17,3.1-4.1,5.1-.82,1.75.04,3.55-.49,5.4-.75,2.6-3.56,4.87-5.98,5.9-2.42,1.03-5.11,1.2-7.72,1.05-2.17-.12-4.36-.47-6.33-1.41-1.97-.94-3.71-2.54-4.52-4.62"/>
  <path class="cls-8" d="m182.58,460.13c-.08.16-1.73-.67-3.93-.97-2.2-.33-4.01,0-4.04-.18-.05-.14,1.8-.75,4.13-.41,2.33.33,3.93,1.44,3.84,1.56Z"/>
  <path class="cls-8" d="m183.5,456.89c-.08.16-1.73-.67-3.93-.97-2.2-.33-4.01,0-4.04-.18-.05-.14,1.8-.75,4.13-.41,2.33.33,3.93,1.44,3.84,1.56Z"/>
  <path class="cls-8" d="m185.44,453.78c-.08.16-1.73-.67-3.93-.97-2.2-.33-4.01,0-4.04-.18-.05-.14,1.8-.75,4.13-.41,2.33.33,3.93,1.44,3.84,1.56Z"/>
  <path class="cls-8" d="m180.85,450.02s.1-.4.4-1.06c.3-.66.75-1.62,1.52-2.69.4-.51.81-1.14,1.6-1.53.38-.19.97-.23,1.38.12.4.32.58.84.55,1.34-.1.99-.65,1.78-1.28,2.52-.66.72-1.47,1.33-2.42,1.74-.95.43-2.14.45-3.03-.04-.9-.45-1.55-1.19-2.05-1.9-.25-.36-.47-.72-.68-1.07-.1-.17-.23-.36-.29-.62-.03-.13-.02-.31.07-.46.09-.15.26-.25.4-.26.28-.04.5.05.67.12.18.07.35.14.52.23.33.17.63.35.89.55,1.08.81,1.64,1.78,1.92,2.45.27.69.3,1.1.26,1.11-.05.01-.15-.38-.47-1.01-.33-.62-.92-1.5-1.95-2.21-.25-.18-.54-.34-.85-.48-.29-.12-.69-.31-.9-.27-.07.03-.08.02-.06.14.03.12.12.27.23.45.21.34.43.69.68,1.03.48.67,1.08,1.32,1.86,1.7.77.4,1.69.39,2.54.01,1.68-.74,3.13-2.25,3.39-3.75.03-.35-.1-.7-.33-.9-.23-.19-.55-.2-.85-.07-.61.27-1.06.86-1.46,1.33-.79,1-1.28,1.92-1.65,2.54-.36.63-.57.97-.6.95Z"/>
  <path class="cls-8" d="m193.45,450.32c.16.01.17,1.08-.39,2.23-.55,1.16-1.39,1.82-1.5,1.7-.12-.12.46-.9.96-1.96.51-1.06.76-2,.93-1.98Z"/>
  <path class="cls-14" d="m337.8,111.34c-5.01,0-34.06,15.69-42.11,22.94-5.49,4.95-26.07,22.94-26.07,22.94l13.66,11.08,14.69,1.29.85-4.86,13.42-11.65s19.02-10.55,25.42-19.06l43.56,10.31,6.96-10.57s-35.71-22.43-50.4-22.43Z"/>
  <path class="cls-14" d="m381.77,145.89s.86,8.1,1.6,11.3c.74,3.19,3.32,5.77,3.32,7.86s.61,3.44.61,3.44c0,0,2.58.25,2.82-2.82.25-3.07,0-8.47,0-8.47,0,0,4.17,6.26,7.12,7.61,2.95,1.35,9.7,1.6,9.82.37.12-1.23.98-1.32-1.23-2.26-2.21-.94-4.54-1.55-4.54-1.55l-4.05-3.44s3.81,1.84,5.77,2.21,7.74,1.35,8.1.49c.37-.86.49-2.45-.98-3.44,0,0,2.09-.49,2.09-1.84s-.86-2.58-1.6-2.46c-.74.12-5.16-.86-5.53-.98s-4.42-3.32-4.42-3.32l.25-.74s2.7,2.95,4.17,2.82c1.47-.12,4.05-.12,4.05-.86s.25-2.58-1.6-2.58-2.7-1.35-2.7-1.35l-3.68-1.96s-3.68-5.28-5.65-7.24-7.92-3.32-7.92-3.32l-6.44,10.45.61,2.08Z"/>
  <path class="cls-9" d="m392.64,142.53c.06-.03.57.71,1.02,2.08.45,1.36.76,3.4.38,5.59-.38,2.19-1.35,4.01-2.23,5.14-.88,1.15-1.61,1.67-1.66,1.62-.07-.07.55-.7,1.32-1.86.77-1.16,1.63-2.91,1.99-5,.36-2.09.13-4.03-.2-5.38-.33-1.36-.7-2.15-.62-2.2Z"/>
  <path class="cls-14" d="m307.58,200.38l45.08-17.17c11.35-3.9,18.54-13.77,14.32-25.01l-.45-1.02c-4.53-10.22-16.16-15.26-26.71-11.56-9.82,3.44-20.63,7.37-25.69,9.68-10.47,4.8-7.44,16.06-7.44,16.06,0,.02-6.49,2.64-9.63,3.87l-2.71,8.35h0l13.24,16.79Z"/>
  <path class="cls-9" d="m306.69,171.37s2.55,6.81,10.13,11.91c0,0-9.38.21-13.09-10.72l2.96-1.2Z"/>
  <path class="cls-7" d="m332.83,154.1c-.81.32-1.2,1.27-.87,2.12.32.85,1.24,1.27,2.04.95.81-.32,1.2-1.27.88-2.12-.32-.85-1.24-1.27-2.05-.95Z"/>
  <path class="cls-7" d="m336.16,149.93c-.11.27,1.23,1.04,1.95,2.66.74,1.61.43,3.16.71,3.25.13.05.4-.3.54-.98.15-.68.13-1.71-.32-2.71-.45-1.01-1.2-1.69-1.8-2.01-.6-.33-1.03-.34-1.08-.21Z"/>
  <path class="cls-7" d="m338.66,168.87c-.81.32-1.2,1.27-.87,2.12.32.85,1.24,1.27,2.04.95.81-.32,1.2-1.27.88-2.12-.32-.85-1.24-1.27-2.04-.95Z"/>
  <path class="cls-7" d="m342.82,165.96c-.11.27,1.24,1.04,1.95,2.66.74,1.61.43,3.16.71,3.25.13.05.4-.3.54-.98.15-.68.13-1.7-.32-2.71-.45-1.01-1.2-1.69-1.8-2.01-.6-.33-1.03-.34-1.08-.21Z"/>
  <path class="cls-7" d="m327.81,165.67c.1-.03-.18-1.12-.69-2.84-.14-.43-.23-.86.02-1.05.26-.23.78-.25,1.35-.27,1.17-.06,2.4-.11,3.69-.17,5.23-.29,9.46-.69,9.45-.9-.01-.21-4.27-.15-9.5.14-1.29.08-2.51.16-3.68.23-.54.05-1.19.02-1.72.5-.26.25-.35.65-.3.95.04.3.14.54.21.75.64,1.68,1.08,2.7,1.18,2.67Z"/>
  <path class="cls-7" d="m347.65,163.19c-.32.4.81,1.78,1.7,3.67.93,1.88,1.3,3.62,1.81,3.62.24,0,.47-.49.51-1.31.04-.82-.15-1.96-.7-3.09-.55-1.13-1.32-1.99-1.98-2.47-.66-.48-1.19-.61-1.34-.42Z"/>
  <path class="cls-7" d="m340.89,147.75c-.23.5.72,1.66,1.42,3.25.74,1.57,1,3.05,1.52,3.2.25.06.53-.31.62-1.05.1-.73-.03-1.82-.52-2.91-.5-1.08-1.24-1.89-1.85-2.28-.62-.4-1.08-.42-1.2-.2Z"/>
  <path class="cls-14" d="m344.48,185.81c.16.14,5.35,6.29-1.95,9.25-7.3,2.96-8.77-4.98-8.56-5.08.2-.1,10.52-4.17,10.52-4.17Z"/>
  <path class="cls-9" d="m337.63,191.09s-.04.16-.05.42c-.01.25.07.64.37.96.6.66,2.08.81,3.41.31.67-.25,1.25-.65,1.68-1.09.44-.44.68-.94.59-1.35-.07-.42-.41-.6-.65-.61-.24-.01-.37.09-.4.06-.03-.01.06-.21.38-.27.16-.03.36-.01.57.1.21.12.39.35.47.63.19.58-.12,1.3-.59,1.79-.46.52-1.1.98-1.86,1.27-1.49.55-3.17.36-3.91-.58-.34-.46-.36-.95-.28-1.24.09-.3.24-.4.26-.38Z"/>
  <path class="cls-7" d="m328.83,171.24c-.08-.26-1.77.4-3.53-.58-1.76-.97-2.27-2.84-2.51-2.77-.11.02-.17.53.1,1.29.26.75.93,1.75,2,2.35,1.08.59,2.2.59,2.92.38.73-.21,1.07-.56,1.02-.67Z"/>
  <path class="cls-7" d="m343.62,127.03c.48-.06.96.11,1.34.4.83.63,1.16,1.62,1.56,2.55.98,2.3,2.51,4.35,4.4,5.99.07-.87.24-1.72.58-2.52.7-1.66,2.22-3.07,4.02-3.17.34-.02.72.03.93.29.34.41.04,1.02-.19,1.5-.77,1.58-.88,2.8-.06,4.35.51.97,1.14,1.85,1.95,2.44.05.02.09.03.14.05.55.22,1.07.44,1.58.65,0,0,0,0,0,0h0c3.84,1.63,6.69,3.22,8.66,5.26,2.89,2.98,5.9,8.7,6.44,12.81.54,4.11-1.11,8.68-4.71,10.74,2.61,1.36,3.87,4.5,3.89,7.45l.05.05c.15,3.24-2.18,6.06-4.72,8.07-.14.11-.28.21-.42.32-1.12,1.57-1.89,3.4-2.16,5.32-.05.34-.11.73-.42.89-.3.16-.66,0-.95-.18-.76-.48-1.4-1.14-1.88-1.9-.58.54-1.12,1.11-1.6,1.75-.41.54-.9,1.18-1.58,1.13-.52-.04-.93-.52-1.05-1.03-.13-.51-.03-1.04.06-1.56-.63.62-1.25,1.25-1.88,1.87-.59-.95-.94-2.04-1.05-3.16-2.94.5-8.11,2.08-10.22,2.14-.82-1.92-.81-2.48-1.53-3.32-.93-1.09-2.97.3-3.01-1.6-.02-.97,2.63-3.55,3.37-4.18,4.9-4.17,10.71-7.26,16.9-9,.77-1.68,1.21-3.51,1.3-5.35l-.06.17c-.18-3.41-.54-7.2-3.09-9.45-1.98-1.75-4.79-2.11-7.27-3.01-4.71-1.71-7.99-4.48-10.08-9.03-3.39.9-8.71,2.92-11.78,3.99l4.97-5.02h-.03c.27-.34.55-.66.84-.97l.08-.1h.01c.46-.5.94-.99,1.36-1.55-.01,0-.02-.01-.04-.02-2.1-1.04-.88-4.34,1.39-3.77.45.11.89.29,1.28.54-1-.46-1.79-1.43-1.89-2.53-.1-1.1.58-2.26,1.63-2.59.72-.23,1.54.02,2.07.53-.64-1.27-.9-2.74-.71-4.15.12-.93.53-1.95,1.58-2.08Z"/>
  <path class="cls-2" d="m367.67,165.51s-.1.56-.54,1.47c-.44.9-1.37,2.09-2.88,3.09-.75.5-1.62.98-2.6,1.38-.98.41-2.07.76-3.21,1.13-1.14.38-2.34.78-3.53,1.35-.59.28-1.18.61-1.75.99-.55.38-1.15.81-1.48,1.48-.28.54-.22,1.23.11,1.71.31.5.79.85,1.32,1.04,1.08.36,2.17.12,3.13-.08l-.12-.21c-.66.69-1.3,1.4-1.71,2.21-.42.81-.53,1.74-.28,2.54.12.4.34.76.64,1.02.3.27.68.4,1.04.45.36.04.73-.01,1.04-.16.31-.15.56-.39.69-.68l-.15-.07c-.6,1.21-.75,2.28-.78,3-.02.36,0,.64.01.82.02.19.03.28.04.28,0,0,0-.1,0-.28,0-.19,0-.46.03-.82.06-.7.23-1.76.84-2.93l-.15-.07c-.23.51-.89.81-1.56.72-.33-.05-.67-.17-.93-.41-.26-.24-.46-.57-.57-.93-.22-.74-.11-1.61.29-2.37.39-.77,1.02-1.45,1.68-2.14l.28-.29-.4.08c-.96.19-2.02.41-2.99.08-.47-.17-.91-.5-1.18-.93-.28-.43-.33-.99-.09-1.46.29-.59.85-1,1.39-1.38.55-.38,1.13-.7,1.71-.98,1.17-.56,2.36-.96,3.5-1.35,1.14-.38,2.22-.74,3.21-1.16.99-.41,1.87-.91,2.62-1.43,1.52-1.03,2.44-2.27,2.86-3.2.42-.94.45-1.52.45-1.52Z"/>
  <path class="cls-2" d="m343.8,136.71s-.02.04-.04.12c-.02.09-.05.21-.09.35-.04.15-.08.34-.11.57-.03.23-.07.49-.08.79-.07,1.18.11,2.97,1.04,4.91.91,1.92,2.58,4,5.01,5.47,2.4,1.51,5.43,2.46,8.64,2.93,1.61.25,3.19.34,4.7.54,1.51.19,2.95.5,4.22,1.06,1.27.55,2.37,1.34,3.12,2.31.39.48.65,1.02.85,1.55.19.54.28,1.08.32,1.6.07,1.05-.14,2-.43,2.77-.3.78-.7,1.39-1.07,1.84-.78.89-1.4,1.17-1.38,1.2,0,0,.04-.01.11-.05.08-.05.18-.11.31-.18.26-.17.63-.46,1.04-.9.39-.45.82-1.06,1.13-1.86.31-.79.54-1.76.48-2.84-.03-.54-.13-1.1-.31-1.66-.2-.55-.47-1.12-.87-1.61-.77-1.01-1.9-1.84-3.2-2.41-1.3-.58-2.77-.9-4.29-1.09-1.52-.2-3.1-.3-4.7-.54-3.19-.47-6.17-1.4-8.55-2.88-2.4-1.44-4.04-3.46-4.97-5.34-.94-1.9-1.14-3.65-1.11-4.82.04-1.18.24-1.82.2-1.83Z"/>
  <path class="cls-2" d="m348.1,133.83s-.06.17-.11.49c-.06.32-.1.79-.11,1.37-.02.58.03,1.27.14,2.04.13.76.33,1.58.63,2.42.31.83.7,1.59,1.1,2.25.41.65.83,1.21,1.22,1.64.39.43.73.76.98.96.25.21.39.31.4.3.03-.04-.51-.5-1.24-1.39-.37-.44-.76-1-1.15-1.64-.38-.65-.75-1.4-1.06-2.21-.3-.82-.5-1.62-.64-2.37-.12-.74-.19-1.42-.2-2-.02-1.14.08-1.85.03-1.86Z"/>
  <path class="cls-5" d="m257.2,165.56c9.4-8.55,25.53-21.75,25.53-21.75,0,0,2.13,3,9.86,9.87,6.5,5.78,14.19,9.29,14.19,9.29l-5.95,8.65s.63,1.62-1.25,3.2c-2.75,2.31-2.95,8.02-1.43,12.57,2.1,6.29,16.81,11.23,16.81,11.23,0,0,4.91,9.21,6.06,12.45,1.14,3.24,4.34,13.51,4.34,13.51l-23.55,15.54-17.49,3.37-14.79,7.31v4.73l-4.15,2.4-2.87,13.49s-29.41,7.11-44.47-2.7c-16.4-10.68-28.99-24-28.99-24,0,0,20.82-30.16,25.06-35.43,0,0,34.22-35.66,43.09-43.72Z"/>
  <path class="cls-7" d="m292.59,172.89c-.08-.13,1.59-1.2,3.96-1.65,2.37-.47,4.32-.1,4.29.05-.01.18-1.91.08-4.18.53-2.27.43-4,1.22-4.07,1.06Z"/>
  <path class="cls-7" d="m260.46,237.65c.15-.09,1.95,2.51,4.45,5.49,2.49,2.99,4.73,5.23,4.61,5.35-.1.12-2.55-1.95-5.07-4.97-2.53-3.01-4.13-5.79-3.99-5.87Z"/>
  <path class="cls-7" d="m250.96,250.88c.06-.15,3.31,1,7.26,2.56,3.95,1.57,7.1,2.96,7.04,3.11s-3.31-.99-7.26-2.56c-3.95-1.57-7.1-2.96-7.04-3.11Z"/>
  <path class="cls-14" d="m265.38,281.75c.57,0,37.87-8.5,37.87-8.5l-.71-25.28-.74-10.46,23.55-9.09s-.68-2.37,0,11.5l.65,8.7s-1.94,27.49-3.08,32.82c-1.14,5.34-3.61,9.62-10.44,10.4-6.06.7-47.1,3.05-47.1,3.05v-13.16Z"/>
  <path class="cls-14" d="m265.38,281.75s-.16-7.91-2.17-9.77c-2.01-1.86-10.87-6.8-12.56-5.18-1.69,1.62-.92,1.71,1.1,2.55,2.02.84,8.29,3.41,7.24,3.41s-10.43-5.46-10.93-3.04c-.5,2.42,2.29,3.2,2.29,3.2,0,0-1.08,1.7,2.01,4.8,3.1,3.1,6.63,4.04,6.63,4.04,0,0-6.78-2.31-7.24,0-.46,2.31,1.39,2.78,3.87,3.71,2.48.93,5.11,2.32,5.11,2.32,0,0,2,8.76,3.4,8.64,1.4-.12,4.81-1.51,4.81-1.51l-3.56-13.16Z"/>
  <path class="cls-5" d="m301.8,237.51v13.29l25.68-3.85s.09-15.46-3.42-26.51l-22.25,17.08Z"/>
  <path class="cls-7" d="m322.01,225.39c0,.11-1.27.11-3.28.46-2,.34-4.73,1.13-7.45,2.62-2.72,1.5-4.84,3.38-6.21,4.89-1.37,1.51-2.06,2.58-2.15,2.52-.03-.02.11-.31.4-.8.28-.5.77-1.19,1.43-1.99,1.31-1.61,3.45-3.59,6.24-5.13,2.79-1.53,5.62-2.27,7.67-2.51,1.03-.12,1.87-.16,2.45-.13.58.02.9.05.9.09Z"/>
  <path class="cls-7" d="m77.56,284.19c1.04.65,2.08,13.89,1.53,24.43-.72,13.72-5.28,39.45-5.28,39.45l-33.2,27.51s-1.59-35.7-1.33-40.94c.26-5.23-5.4-18.06-6.94-19.8s-12.86-10.28-16.03-21.17c-5.2-17.84-1.06-27.71-1.06-27.71l10.06-25.57,32.74,9.93,19.52,33.88Z"/>
  <path class="cls-7" d="m77.24,278.27s6.99,51.13-6.44,87.95c-2.89,7.92-3.23,16.13-3.35,23.87-.1,6.64-3.91,55.04-3.91,55.04l-24.02,1.97s-6.93-37.41-7.06-46.72c-.13-9.31.55-29.45.88-36.91.33-7.47-.16-57.87-.16-57.87l20.37-24.58,23.69-2.75Z"/>
  <g>
    <path class="cls-7" d="m52.05,120.6c2.23-1.19,3.73-3.64,3.79-6.17.05-2.53-1.34-5.04-3.52-6.33l-8.49-2.2c-.44,10.78-.96,21.57-1.55,32.34,2.22-.27,4.5-.81,6.24-2.21,1.74-1.4,2.78-3.88,1.95-5.95,1.76-.74,3.1-2.42,3.41-4.31.31-1.89-.4-3.91-1.83-5.18Z"/>
    <g>
      <g>
        <path class="cls-14" d="m10.96,117.19l.04-3.83,23.14-3.65c7.12-.53,14.56,6.82,14.79,13.95.25,7.92.24,17.61-.88,23.48-2.26,11.8-11.4,13.03-11.4,13.03v11.74c-.14,6.85-5.95,8.18-12.8,8.05h0c-6.7-.13-12.09-5.54-12.18-12.24l-.71-50.52Z"/>
        <g>
          <path class="cls-7" d="m45.53,132.93c0,.8-.68,1.47-1.52,1.49-.84.02-1.52-.62-1.53-1.42,0-.8.67-1.47,1.51-1.49.84-.02,1.52.62,1.53,1.42Z"/>
          <path class="cls-7" d="m45.95,127.91c-.19.19-1.32-.7-2.96-.74-1.63-.07-2.86.73-3.03.53-.08-.09.12-.44.65-.81.53-.36,1.42-.7,2.44-.67,1.02.04,1.87.44,2.35.84.49.4.65.77.56.85Z"/>
        </g>
        <g>
          <path class="cls-7" d="m30.31,132.93c0,.8-.68,1.47-1.52,1.49-.84.02-1.52-.62-1.53-1.42,0-.8.68-1.47,1.51-1.49.84-.02,1.52.62,1.53,1.42Z"/>
          <path class="cls-7" d="m29.93,127.79c-.2.19-1.32-.7-2.96-.74-1.63-.07-2.86.73-3.03.53-.08-.09.12-.44.65-.81.53-.36,1.42-.7,2.44-.67,1.02.04,1.87.44,2.35.84.49.4.65.77.55.85Z"/>
        </g>
        <path class="cls-7" d="m35.72,140.74c0-.09,1.02-.24,2.67-.4.42-.03.82-.1.9-.38.11-.3-.05-.76-.24-1.25-.36-1.02-.74-2.1-1.14-3.22-1.57-4.59-2.7-8.35-2.52-8.41.19-.06,1.61,3.61,3.19,8.19.38,1.13.74,2.21,1.08,3.24.14.48.4,1.03.17,1.65-.12.31-.44.53-.71.59-.27.07-.51.07-.71.08-1.66.04-2.69.01-2.7-.08Z"/>
        <path class="cls-9" d="m36.65,160.19s-8.4.23-16.16-4.77c0,0,3.85,8.62,16.17,7.91v-3.14Z"/>
      </g>
      <path class="cls-7" d="m29.38,121.61c-.16.45-1.8.23-3.72.47-1.93.19-3.48.76-3.73.36-.11-.19.16-.61.78-1.04.62-.43,1.61-.84,2.77-.97,1.15-.13,2.21.06,2.91.34.71.28,1.06.63.99.85Z"/>
      <path class="cls-7" d="m45.54,122.67c-.35.35-1.57-.14-3.07-.27-1.49-.18-2.79.03-3.05-.38-.11-.2.12-.55.7-.86.57-.31,1.51-.52,2.54-.41,1.03.11,1.9.52,2.39.94.5.42.65.82.49.99Z"/>
    </g>
    <path class="cls-7" d="m53.42,113.16c2.44-1.54,3.67-4.69,3.11-7.52-.56-2.83-2.8-5.21-5.53-6.13-.56-.19-1.13-.3-1.71-.38-1.1-.69-2.36-1.11-3.65-1.17-.13-1.53-1.46-2.76-2.94-3.21-1.47-.45-3.06-.26-4.57.03-1.46-1.93-3.86-3.11-6.28-3.08-2.42.03-4.79,1.27-6.2,3.24-1.66-1.05-3.82-1.28-5.65-.58-1.84.7-3.3,2.3-3.84,4.18-1.72,0-3.42.73-4.59,1.98-.44.47-.8,1.01-1.07,1.6-.56.67-.98,1.46-1.2,2.31-2.89.23-5.52,2.39-6.31,5.18-.79,2.79.33,6.01,2.68,7.71-1.48,1.37-2.27,3.46-2.06,5.47.21,2.01,1.42,3.89,3.15,4.92-.76,2.12-.6,4.55.44,6.55.45.86,1.14,1.69,2.03,2.01.04.16.09.31.17.45.67,1.13,2.44.71,3.49-.08,2.57-1.91,4.01-5,4.82-8.1.81-3.1,1.09-6.32,1.87-9.43.02-.07.04-.14.06-.22.33-1.3.96-2.49,1.81-3.5.91.68,1.79,1.38,2.79,1.91,3.54,1.9,8.32,1.11,11.06-1.84,2.38,2.13,5.52,3.39,8.71,3.5,3.19.11,6.37-.39,8.88-2.36.48-.37,1.13-1.04,1.45-1.95.2-.57-.34-1.31-.91-1.5Z"/>
    <path class="cls-14" d="m12.38,132.93c-.15-.09-6.29-2.64-6.8,3.85-.51,6.49,6.12,5.66,6.14,5.48.03-.19.65-9.33.65-9.33Z"/>
    <path class="cls-9" d="m9.93,139.65s-.12.07-.32.14c-.19.07-.52.1-.85-.05-.67-.31-1.16-1.44-1.1-2.61.03-.59.2-1.15.44-1.6.24-.46.57-.77.92-.8.35-.05.58.17.64.36.07.19.02.31.06.33.02.02.15-.1.12-.37-.02-.13-.08-.29-.22-.43-.15-.14-.37-.22-.61-.21-.5,0-.99.42-1.26.92-.3.49-.5,1.11-.53,1.78-.06,1.31.51,2.59,1.43,2.93.45.15.84.05,1.05-.09.21-.14.26-.29.24-.3Z"/>
    <path class="cls-2" d="m56.24,104.56s.02.05.05.16c.03.1.06.26.09.47.05.42.08,1.06-.12,1.84-.2.77-.63,1.7-1.49,2.46-.84.75-2.1,1.33-3.54,1.28l.12-.1c-.37,1.86-1.34,3.86-2.96,5.53-.81.82-1.8,1.57-2.96,2.02-1.15.49-2.49.56-3.77.38-1.27-.18-2.47-.57-3.57-1.08-1.09-.51-2.12-1.13-2.92-1.95h.2c-1.74,1.49-3.7,2.48-5.59,2.78-1.9.28-3.6-.12-4.87-.64-1.29-.53-2.17-1.22-2.73-1.72-.28-.25-.48-.46-.61-.61-.13-.15-.2-.22-.19-.23.02-.02.29.28.86.76.57.47,1.47,1.12,2.74,1.62,1.26.49,2.93.86,4.77.57,1.83-.31,3.75-1.3,5.45-2.75l.1-.09.1.1c.75.77,1.76,1.38,2.83,1.88,1.08.5,2.25.88,3.49,1.05,1.25.18,2.51.11,3.62-.36,1.12-.43,2.07-1.15,2.87-1.95,1.59-1.61,2.55-3.57,2.93-5.38l.02-.1h.1c1.36.06,2.58-.47,3.4-1.18.84-.71,1.28-1.61,1.49-2.35.21-.75.21-1.38.18-1.79-.03-.42-.09-.63-.07-.64Z"/>
    <path class="cls-2" d="m10.23,104.13s-.4.76-.69,2.2c-.29,1.41-.36,3.61.72,5.84l.05.1-.08.07c-.79.61-1.47,1.49-1.87,2.54-.41,1.05-.53,2.28-.24,3.46.38,1.55,1.38,2.86,2.58,3.61l.12.07-.07.12c-.76,1.31-1.04,2.75-.98,4.01.03,1.27.37,2.36.76,3.2.81,1.7,1.77,2.36,1.72,2.41,0,0-.06-.04-.16-.12-.1-.09-.26-.21-.44-.4-.36-.37-.85-.96-1.27-1.81-.42-.85-.79-1.97-.84-3.27-.07-1.3.2-2.79.98-4.17l.05.19c-1.26-.78-2.31-2.15-2.72-3.78-.31-1.24-.18-2.54.26-3.63.43-1.1,1.15-2.02,1.98-2.65l-.04.16c-1.09-2.32-.98-4.57-.64-5.99.17-.72.39-1.27.55-1.63.08-.18.16-.31.21-.4.05-.09.08-.13.09-.13Z"/>
    <path class="cls-7" d="m8.28,141.83c.05.02-.2.44-.2,1.16,0,.35.1.79.4,1.13.29.33.81.56,1.31.46.5-.1.81-.58.88-1.02.08-.45-.02-.88-.15-1.22-.27-.67-.54-1.07-.49-1.1.02-.01.34.33.68,1.01.16.34.31.81.23,1.34-.04.26-.13.54-.31.77-.18.24-.46.43-.77.49-.63.13-1.24-.16-1.58-.57-.35-.42-.42-.92-.41-1.31.06-.79.39-1.18.41-1.16Z"/>
  </g>
  <g>
    <path class="cls-9" d="m29.35,145.14c.04-.62.34-1.19.75-1.59.82-.81,2.09-.97,3.07-.39.98.58,1.61,1.86,1.52,3.1h0c-.47.76-1.24,1.3-2.12,1.44-.14.02-.28.04-.41.04-.67.03-1.37-.15-1.92-.61-.55-.46-.92-1.22-.88-1.99Z"/>
    <path class="cls-7" d="m30.11,142.05c.26-.02.3,1.75,1.83,2.99,1.53,1.24,3.42,1.01,3.43,1.26.03.11-.42.35-1.21.38-.78.04-1.93-.2-2.87-.95-.94-.76-1.35-1.78-1.42-2.5-.08-.74.11-1.18.23-1.17Z"/>
  </g>
  <path class="cls-5" d="m20.21,257.6c-7.07-5.68.83-12.33,1.61-19.73.43-4.04-15.66-35.1-17.49-47.32s2.51-21.98,5.97-25.03c3.46-3.05,26.71,1.49,26.71,1.49,0,0,31.33,21.8,35.21,35.54,4.7,16.65,2.32,34.93,2.32,34.93l-13.92,14.99-40.41,5.12Z"/>
  <path class="cls-3" d="m117.73,309.48l4.79-22.85-24.46-3.97.38,16.91-2.2,9.22s3.93,5.57,4.79,5.37,16.7-4.67,16.7-4.67Z"/>
  <path class="cls-7" d="m141.95,336.13s-8.78,1.3-15.97-.32c-7.18-1.62-17.56-5.67-21.38-7.11-3.82-1.44-15.5-1.66-15.75-5.79-.25-4.13,7.78-18.15,7.78-18.15,0,0,2.61,4.86,6.63,5.26,4.02.4,12.07-.61,12.07-.61,0,0,4.09-4.76,6.42-4.64,2.33.12.65,6.53.65,6.53,0,0,4.52,8.61,8.13,10.84s3.59,3.43,8.06,4.17c4.47.74,6.39,2.68,6.39,2.68,0,0,1.55,3.96.31,5.13-1.24,1.17-3.36,2.01-3.36,2.01Z"/>
  <path class="cls-2" d="m145.37,334.05c-1.14,1.35-3.42,2.14-3.42,2.14,0,0-8.78,1.3-15.97-.32-7.18-1.62-17.56-5.67-21.38-7.11-3.82-1.44-15.5-1.66-15.75-5.79-.08-1.13.14-2.25.65-3.36,0,0,11.2,4.76,16.83,5.44,5.63.68,17.06,6.29,23.41,7.13,6.35.83,13.72.28,13.72.28l2.24-.83c.12.96.35,1.64-.33,2.43Z"/>
  <path class="cls-8" d="m129.27,320.84c-.11-.02-.31.99-1.06,1.97-.74.99-1.66,1.46-1.61,1.56.02.09,1.1-.26,1.91-1.34.82-1.07.86-2.21.76-2.2Z"/>
  <path class="cls-8" d="m126.06,317.08c-.11-.03-.44,1.17-1.44,2.26-.99,1.11-2.15,1.56-2.1,1.66,0,.1,1.32-.22,2.38-1.41,1.08-1.18,1.26-2.52,1.16-2.51Z"/>
  <path class="cls-8" d="m123.89,313.62c-.09-.07-.73.71-1.69,1.48-.95.78-1.83,1.26-1.78,1.36.03.09,1.03-.25,2.02-1.06,1-.81,1.53-1.71,1.45-1.77Z"/>
  <path class="cls-8" d="m100.73,318.98s.54.25,1.46.51c.92.26,2.2.57,3.63.83,1.43.26,2.74.43,3.69.51.95.08,1.54.09,1.54.04.01-.11-2.32-.4-5.16-.93-2.85-.52-5.13-1.07-5.16-.97Z"/>
  <path class="cls-7" d="m90.4,460.46s-8.25,3.28-15.61,3.35c-7.36.07-18.39-1.49-22.44-2.02-4.05-.53-15.47,1.94-16.66-2.03-1.19-3.97,3.41-19.45,3.41-19.45,0,0,3.66,4.13,7.66,3.6,4-.53,11.61-3.36,11.61-3.36,0,0,2.89-5.57,5.18-5.99,2.29-.42,2.13,6.2,2.13,6.2,0,0,6.37,7.35,10.4,8.69,4.03,1.34,4.28,2.51,8.8,2.21,4.52-.31,6.84,1.15,6.84,1.15,0,0,2.41,3.5,1.48,4.92-.93,1.43-2.81,2.72-2.81,2.72Z"/>
  <path class="cls-2" d="m93.25,457.66c-.8,1.58-2.84,2.86-2.84,2.86,0,0-8.25,3.28-15.61,3.35-7.36.07-18.39-1.49-22.44-2.02-4.05-.53-15.47,1.94-16.66-2.03-.34-1.08-.38-2.22-.14-3.42,0,0,11.99,2.06,17.63,1.44,5.64-.63,18.05,2.21,24.42,1.57,6.38-.65,13.41-2.87,13.41-2.87l1.99-1.33c.34.91.71,1.52.23,2.44Z"/>
  <path class="cls-8" d="m74.55,448.49c-.11,0-.08,1.04-.58,2.16-.49,1.13-1.28,1.8-1.21,1.89.04.09,1.01-.5,1.55-1.74.55-1.23.33-2.34.24-2.32Z"/>
  <path class="cls-8" d="m70.57,445.57c-.11,0-.16,1.24-.88,2.53-.7,1.31-1.74,2.01-1.67,2.1.03.09,1.23-.51,2-1.92.78-1.39.65-2.74.55-2.71Z"/>
  <path class="cls-8" d="m67.66,442.7c-.1-.04-.55.86-1.3,1.82-.74.97-1.49,1.64-1.43,1.73.05.08.95-.48,1.72-1.5.78-1.01,1.1-2.02,1-2.05Z"/>
  <path class="cls-8" d="m46.34,453.23c0,.05.59.12,1.54.16.95.04,2.27.05,3.72-.03,1.45-.07,2.76-.21,3.71-.35.94-.14,1.52-.26,1.51-.31-.01-.11-2.35.14-5.24.28-2.89.15-5.24.13-5.24.24Z"/>
  <path class="cls-7" d="m97.24,204.95c5.84-2.49,15.46-3.04,19.78-1.63,2.46.8,4.93,2.32,6.86,4.62,5.1,6.08,4.25,22.78,3.94,36.79-.26,11.67-5.3,53.15-5.3,53.15l-26.48.51s.46-8.88-.25-19.31c-.53-7.82-2.99-13.12-2.99-13.12,0,0-2.43,7.08-6.04,15.26-3.61,8.18-15.82,28.02-30.47,28.69-19.28.89-36.47-25.83-32.99-35.18,4.91-13.2,18.7-26.08,32.45-36.37,10.87-8.13,17.78-13.4,26.41-21.85,5.07-4.97,10.63-9.66,15.08-11.56Z"/>
  <path class="cls-2" d="m96.15,225.4s-.21.56-.68,1.51c-.24.47-.53,1.05-.82,1.75-.3.69-.67,1.46-.99,2.35-.71,1.75-1.4,3.9-2.02,6.32-.58,2.43-1.07,5.14-1.32,8.01-.22,2.88-.19,5.63-.01,8.12.21,2.49.55,4.72.96,6.57.17.93.41,1.75.59,2.48.17.73.36,1.35.52,1.86.31,1.01.46,1.58.42,1.6-.04.01-.26-.53-.64-1.53-.19-.5-.42-1.11-.62-1.84-.21-.73-.49-1.55-.68-2.48-.47-1.85-.85-4.1-1.09-6.61-.21-2.52-.26-5.3-.03-8.21.25-2.91.76-5.64,1.38-8.09.66-2.44,1.4-4.59,2.16-6.34.35-.89.75-1.65,1.08-2.34.32-.69.64-1.26.91-1.71.53-.92.85-1.42.88-1.4Z"/>
  <path class="cls-2" d="m27.09,294.78c.1-.05.8,1.65,2.49,4.04,1.67,2.38,4.49,5.39,8.37,7.59,3.88,2.2,7.91,3.07,10.81,3.28,2.92.23,4.73-.05,4.74.06,0,.04-.44.14-1.26.24-.82.1-2.02.18-3.51.12-2.95-.11-7.1-.93-11.08-3.18-3.97-2.25-6.81-5.39-8.42-7.86-.82-1.24-1.37-2.31-1.7-3.07-.33-.76-.48-1.19-.44-1.21Z"/>
  <path class="cls-14" d="m121.13,217.48l-60.45-6.46-14.8-24.87s-13.46-19.4-25.21-20.54c-11.75-1.15-13.03,9.93-12.83,16.82.2,6.88,8.27,19.28,8.27,19.28,0,0,29.42,34.69,35.2,36.03,5.77,1.34,67.23-7.25,67.23-7.25l2.59-13Z"/>
  <path class="cls-14" d="m117.04,216.72s7.01-3.56,9.86-3.87c2.85-.3,6.48,3.49,6.64,3.87.16.38,0,1.36,0,1.36,0,0,.63,5.84.55,6.44s-2.05,8.03-3.71,10.23c-1.66,2.2-4.34,3.19-4.34,3.19,0,0-6.63-2.2-9-4.32s-4.26-3.18-4.26-3.18l-2.61-.08,1.11-12.83,5.76-.82Z"/>
  <path class="cls-14" d="m129.49,212.8c.28-.32.75-.45,1.19-.4.43.05.84.24,1.21.45.5.28.98.61,1.32,1.05.35.44.55,1.01.45,1.56-.1.54-.55,1.04-1.12,1.12-.46.07-.92-.13-1.34-.34-.41-.2-.82-.41-1.16-.71-.34-.3-.71-.8-.76-1.23-.16-.66-.07-1.18.21-1.5Z"/>
  <path class="cls-9" d="m129.49,212.8c.05.03-.32.53-.02,1.46v.02c.11.49.61,1.1,1.34,1.46.75.38,1.72.92,2.29.2.52-.57.26-1.48-.22-2-.48-.55-1.13-.92-1.64-1.17-.52-.25-.98-.25-1.28-.16-.3.09-.44.23-.47.19-.03-.02.05-.23.39-.41.32-.18.91-.25,1.53-.02.6.24,1.27.56,1.89,1.2.3.32.56.74.65,1.24.1.49-.02,1.1-.39,1.51-.39.5-1.14.67-1.67.49-.54-.15-.93-.39-1.33-.61-.81-.47-1.37-1.17-1.45-1.89v.02c-.1-.51-.03-.96.1-1.22.13-.27.28-.35.3-.32Z"/>
  <path class="cls-14" d="m130.64,218.11c.43-.31,1-.37,1.53-.32.79.06,1.56.33,2.27.67.56.27,1.22.59,1.51,1.13.33.61.46,1.06.38,1.74-.06.53-.21.86-.38,1.37-.17.51-.79,1.54-1.89,1.37l.02-.21c.17-.34.02-.77-.25-1.05-.27-.28-.65-.43-1.01-.59-.59-.25-1.19-.52-1.69-.91-.51-.39-.93-.91-1.06-1.52-.13-.61.07-1.3.59-1.68Z"/>
  <path class="cls-9" d="m130.64,218.11s-.15.17-.31.5c-.16.33-.27.9.03,1.49.29.6.93,1.14,1.78,1.53.43.21.89.35,1.41.63.49.24,1.13.9.78,1.72l.03-.11c0,.07,0,.14-.02.21l-.25-.31c.45.08.9-.13,1.22-.54.19-.25.31-.49.41-.81.11-.32.22-.61.27-.9.13-.6.05-1.13-.21-1.64-.2-.49-.64-.76-1.09-1.02-.46-.25-.89-.46-1.3-.6-.82-.3-1.54-.38-2.01-.33-.48.05-.71.22-.74.18-.03-.02.18-.27.7-.4.52-.13,1.29-.11,2.19.15.45.13.92.33,1.4.57.47.23,1.08.57,1.36,1.21.32.54.44,1.32.3,1.99-.06.35-.18.68-.29.99-.09.31-.27.7-.5.99-.38.53-1.12.89-1.78.75l-.27-.05.02-.26c0-.07.01-.14.02-.21v-.06s.03-.05.03-.05c.16-.31-.12-.77-.54-.98-.42-.23-.93-.42-1.36-.65-.89-.44-1.62-1.1-1.9-1.83-.31-.74-.1-1.42.14-1.75.25-.35.48-.42.49-.4Z"/>
  <path class="cls-14" d="m130.53,225.18c.57-.52,1.46-.55,2.24-.45.9.11,1.84.36,2.48.99.69.68.9,1.76.52,2.63s-2.22,1.48-3.2,1.49l.15-.5c-.6-.28-.97-.46-1.5-.85-.52-.4-.96-.92-1.13-1.53-.17-.62-.03-1.33.45-1.77Z"/>
  <path class="cls-9" d="m130.53,225.18c.07.04-.45.47-.35,1.4.09.93,1.14,1.92,2.64,2.5l.22.08-.07.24c-.04.16-.09.33-.14.5l-.27-.36c.76-.04,1.68-.31,2.41-.78.23-.15.42-.34.51-.53.11-.23.16-.49.17-.74.02-.51-.14-1-.41-1.38-.57-.76-1.53-1.02-2.27-1.16-.77-.15-1.4-.14-1.81-.02-.41.11-.6.28-.63.24-.02-.02.12-.26.56-.46.43-.2,1.13-.27,1.94-.17.79.1,1.88.3,2.65,1.25.36.47.58,1.08.56,1.73-.01.32-.07.65-.22.96-.17.35-.44.58-.71.77-.89.56-1.81.82-2.74.86h-.39s.12-.36.12-.36c.05-.17.1-.34.15-.5l.15.33c-.75-.34-1.45-.76-1.95-1.29-.5-.52-.78-1.15-.8-1.69-.02-.54.17-.94.35-1.16.18-.23.32-.29.34-.27Z"/>
  <path class="cls-14" d="m130.48,234.93c.86.22,1.83.18,2.6-.26.77-.43,1.3-1.3,1.18-2.15-.14-1.02-1.2-1.79-2.27-1.83-1.07-.04-2.1.54-2.77,1.35-.32.38-.58.86-.52,1.34.06.43.37.8.74,1.04.37.24.81.37,1.24.5"/>
  <path class="cls-9" d="m130.68,234.93s-.23.02-.63-.08c-.37-.11-1.03-.3-1.44-1.03-.21-.37-.19-.9.02-1.32.2-.43.51-.8.88-1.13.73-.66,1.88-1.17,3.09-.87.59.15,1.11.48,1.47.94.37.45.54,1.06.46,1.59-.17,1.09-1,1.76-1.71,2.01-.73.26-1.35.2-1.75.13-.4-.08-.61-.19-.6-.22,0-.12.93.21,2.19-.3.59-.25,1.23-.86,1.33-1.68.12-.81-.59-1.65-1.54-1.89-.94-.24-1.93.15-2.59.71-.68.56-1.14,1.31-.88,1.86.25.57.81.83,1.14.99.36.16.56.26.55.3Z"/>
  <path class="cls-14" d="m127.89,235.84c.46-.64,1.24-.55,2.04-.38.17,0,.34.03.49.11,0,0,0,0,0,0h0s.1.05.15.08c.27.18.47.45.62.73.3.52.49,1.14.29,1.71-.14.41-.47.74-.87.94-.87.43-2.03.17-2.64-.56s-.64-1.85-.08-2.62Z"/>
  <path class="cls-9" d="m127.89,235.84c.1.03-.41.68-.13,1.72.13.5.53,1.02,1.17,1.25.62.24,1.46.17,1.98-.36.41-.4.44-.97.25-1.48-.19-.51-.48-1-.84-1.17l-1.26-.6,1.38.13h0s-.07.48-.07.48h0s-.03-.01-.03-.01h-.02c-.13-.08-.26-.11-.38-.11h-.04s-.01,0-.01,0c-.64-.17-1.16-.22-1.49-.1-.33.11-.46.3-.5.26-.03-.01.03-.26.4-.49.37-.23,1.01-.23,1.68-.11h-.05c.2-.02.41.02.6.11l-.05-.02h0s-.07.48-.07.48h0s.12-.46.12-.46c.58.26.91.82,1.16,1.42.12.31.2.67.16,1.05-.04.39-.23.77-.51,1.04-.74.74-1.85.78-2.6.45-.8-.31-1.28-1.04-1.38-1.66-.12-.62.04-1.13.2-1.42.16-.3.32-.41.34-.39Z"/>
  <path class="cls-9" d="m55.19,221.63c-.15-.02.37-2.81,2.05-5.83,1.66-3.03,3.73-4.95,3.83-4.84.13.12-1.7,2.18-3.31,5.13-1.63,2.94-2.39,5.59-2.56,5.54Z"/>
</svg>