<?xml version="1.0" encoding="UTF-8"?>
<svg id="Capa_1" data-name="Capa 1" xmlns="http://www.w3.org/2000/svg" viewBox="0 0 769.22 785.5">
  <defs>
    <style>
      .cls-1 {
        fill: #ff735d;
      }

      .cls-1, .cls-2, .cls-3, .cls-4, .cls-5, .cls-6, .cls-7, .cls-8, .cls-9, .cls-10 {
        stroke-width: 0px;
      }

      .cls-2 {
        fill: #375a64;
      }

      .cls-3 {
        fill: #e1e1e1;
      }

      .cls-4 {
        fill: #ececec;
      }

      .cls-11 {
        opacity: .2;
      }

      .cls-6 {
        fill: #1a2e35;
      }

      .cls-7 {
        fill: #fff;
      }

      .cls-12 {
        opacity: .3;
      }

      .cls-8 {
        fill: #ff9c6a;
      }

      .cls-9 {
        fill: #fafafa;
      }

      .cls-10 {
        fill: #ffc19d;
      }
    </style>
  </defs>
  <g>
    <g>
      <path class="cls-4" d="m177.75,334.52c-4.96,12-6.01,25.58-2.94,38.2,10.04-7.12,21.75-19.45,25.99-31,4.24-11.55,5.13-23.73,2.08-35.65-11.08,6.77-20.16,16.46-25.12,28.46Z"/>
      <path class="cls-3" d="m181.41,354.64s.1-.74.42-2.06c.31-1.32.81-3.21,1.5-5.52,1.37-4.63,3.56-10.96,6.53-17.71,2.99-6.75,6.19-12.63,8.7-16.76,1.25-2.07,2.3-3.72,3.07-4.83.76-1.12,1.2-1.72,1.24-1.69.04.03-.32.68-1.01,1.84-.69,1.16-1.68,2.84-2.87,4.93-2.39,4.18-5.51,10.07-8.48,16.8-2.97,6.73-5.22,12.99-6.7,17.58-.74,2.29-1.33,4.15-1.71,5.45-.39,1.29-.63,2-.68,1.99Z"/>
    </g>
    <g>
      <path class="cls-4" d="m121.51,340.65c-4.96,12-6.01,25.58-2.94,38.2,10.04-7.12,21.75-19.45,25.99-31,4.24-11.55,4.89-24.4,1.84-36.32-11.08,6.77-19.92,17.13-24.88,29.13Z"/>
      <path class="cls-3" d="m125.17,360.77s.1-.74.42-2.06c.31-1.32.82-3.21,1.5-5.52,1.37-4.64,3.56-10.96,6.53-17.71,2.99-6.75,6.19-12.63,8.7-16.76,1.25-2.07,2.3-3.72,3.07-4.83.76-1.12,1.2-1.72,1.24-1.69.04.03-.32.68-1.01,1.84-.69,1.16-1.68,2.84-2.87,4.93-2.39,4.18-5.51,10.07-8.48,16.8-2.97,6.72-5.22,12.99-6.7,17.58-.74,2.29-1.33,4.15-1.71,5.45-.39,1.29-.63,2-.68,1.99Z"/>
    </g>
    <g>
      <path class="cls-4" d="m92.44,300.51c-9.3-9.06-15.64-21.12-17.81-33.92,12.04,2.57,27.67,9.26,36.13,18.2,8.47,8.93,14.14,20.47,16.06,32.63-12.85-1.84-25.08-7.85-34.38-16.91Z"/>
      <path class="cls-3" d="m87.84,280.58s.39.64,1.2,1.73c.8,1.09,2.02,2.62,3.56,4.48,3.09,3.72,7.6,8.66,13.01,13.68,5.42,5.02,10.68,9.15,14.62,11.95,1.97,1.4,3.59,2.5,4.73,3.22,1.14.72,1.78,1.11,1.81,1.07.03-.04-.56-.5-1.66-1.29-1.1-.79-2.67-1.94-4.59-3.39-3.85-2.9-9.04-7.07-14.43-12.07-5.38-5-9.93-9.87-13.11-13.49-1.59-1.81-2.86-3.29-3.73-4.33-.87-1.03-1.37-1.59-1.41-1.56Z"/>
    </g>
    <g>
      <path class="cls-4" d="m147.06,290.46c-9.3-9.06-15.64-21.12-17.81-33.92,12.04,2.57,27.67,9.26,36.13,18.2,8.47,8.93,14.14,20.47,16.06,32.63-12.85-1.84-25.08-7.85-34.38-16.91Z"/>
      <path class="cls-3" d="m142.46,270.54s.39.64,1.2,1.73c.8,1.09,2.02,2.62,3.56,4.48,3.09,3.72,7.6,8.66,13.01,13.68,5.42,5.02,10.68,9.15,14.62,11.96,1.97,1.4,3.59,2.5,4.73,3.22,1.14.72,1.78,1.11,1.81,1.07.03-.04-.56-.5-1.66-1.29-1.1-.79-2.67-1.94-4.59-3.39-3.85-2.9-9.04-7.07-14.43-12.07-5.38-5-9.93-9.87-13.11-13.49-1.59-1.81-2.86-3.29-3.73-4.33-.87-1.03-1.37-1.58-1.41-1.56Z"/>
    </g>
    <path class="cls-3" d="m241.24,311.6s-.52-.17-1.54-.41c-1.1-.25-2.58-.58-4.45-1-.98-.21-2.05-.44-3.22-.7-1.18-.23-2.48-.42-3.86-.66-2.78-.43-5.93-1.05-9.45-1.38-1.76-.2-3.6-.41-5.52-.63-1.92-.21-3.93-.28-6.01-.44-4.15-.36-8.6-.38-13.29-.47-9.37.04-19.67.62-30.38,2.09-10.71,1.56-20.77,3.85-29.78,6.4-4.47,1.39-8.75,2.64-12.64,4.13-1.95.72-3.86,1.35-5.65,2.09-1.78.74-3.5,1.45-5.13,2.13-3.3,1.3-6.15,2.76-8.7,3.94-1.27.61-2.46,1.15-3.53,1.7-1.05.57-2.02,1.09-2.9,1.56-1.68.92-3.01,1.65-4,2.19-.91.51-1.38.79-1.36.82.02.03.52-.2,1.45-.65,1.01-.5,2.36-1.18,4.07-2.03.89-.45,1.87-.95,2.93-1.49,1.08-.52,2.28-1.04,3.56-1.63,2.56-1.14,5.43-2.55,8.73-3.81,1.64-.66,3.35-1.35,5.14-2.07,1.79-.71,3.7-1.32,5.65-2.03,3.89-1.46,8.15-2.68,12.62-4.04,8.99-2.5,19.01-4.75,29.67-6.3,10.67-1.46,20.92-2.07,30.25-2.16,4.66.07,9.1.06,13.24.39,2.07.14,4.08.2,5.99.38,1.91.2,3.75.39,5.51.57,3.52.29,6.67.86,9.45,1.24,1.39.21,2.68.37,3.87.58,1.17.22,2.25.43,3.23.62,1.88.35,3.37.62,4.48.82,1.03.18,1.57.26,1.58.22Z"/>
    <g>
      <path class="cls-4" d="m68.37,331.18c-11.42,6.18-20.81,16.05-26.4,27.77,12.28.82,29.14-1.36,39.73-7.64,10.58-6.28,19.2-15.83,24.36-27.01-12.87-1.74-26.27.71-37.69,6.88Z"/>
      <path class="cls-3" d="m58.5,349.09s.55-.51,1.62-1.33c1.07-.83,2.66-1.97,4.65-3.34,3.99-2.73,9.68-6.26,16.25-9.61,6.58-3.35,12.78-5.89,17.33-7.51,2.28-.81,4.13-1.43,5.43-1.81,1.3-.39,2.02-.58,2.03-.53.01.05-.68.33-1.95.79-1.27.46-3.1,1.14-5.34,2.01-4.49,1.74-10.63,4.33-17.18,7.67-6.55,3.34-12.25,6.78-16.3,9.4-2.02,1.31-3.65,2.39-4.77,3.14-1.12.75-1.75,1.15-1.78,1.11Z"/>
    </g>
  </g>
  <g>
    <g>
      <path class="cls-4" d="m210.83,201.22c-14.22-2.81-29.32-.98-42.46,5.13,9.99,9.44,26.05,19.56,39.63,21.67,13.58,2.12,27.78.02,40.17-5.93-9.84-10.65-23.11-18.07-37.33-20.87Z"/>
      <path class="cls-3" d="m189.6,209.62c0-.05.84-.05,2.35,0,1.51.05,3.69.19,6.37.44,5.37.48,12.78,1.5,20.82,3.28,8.05,1.8,15.18,4.02,20.25,5.86,2.54.92,4.57,1.71,5.96,2.31,1.39.59,2.15.94,2.13.99-.02.05-.82-.2-2.24-.7-1.42-.51-3.48-1.22-6.03-2.07-5.1-1.7-12.23-3.83-20.24-5.62-8.01-1.78-15.37-2.87-20.71-3.49-2.67-.31-4.84-.54-6.34-.68-1.5-.15-2.33-.26-2.32-.31Z"/>
    </g>
    <g>
      <path class="cls-4" d="m236.66,253.8c-12.63.92-24.93,5.95-34.6,14.14,10.6,5.64,26.47,10.46,38.4,9.1,11.93-1.35,23.42-6.4,32.48-14.28-10.75-6.7-23.65-9.88-36.29-8.96Z"/>
      <path class="cls-3" d="m220.71,265.78s.69-.23,1.98-.54c1.28-.31,3.15-.69,5.47-1.11,4.64-.83,11.11-1.69,18.31-2.05,7.2-.35,13.72-.12,18.42.25,2.35.19,4.25.38,5.55.57,1.31.17,2.03.29,2.02.34s-.73.02-2.05-.08c-1.31-.1-3.21-.22-5.56-.35-4.69-.25-11.19-.4-18.36-.05-7.16.35-13.61,1.13-18.26,1.84-2.32.35-4.2.66-5.5.89-1.3.22-2.02.32-2.03.28Z"/>
    </g>
    <g>
      <path class="cls-4" d="m259.23,214.21c2.01-12.51,8.07-24.33,17.06-33.26,4.71,11.05,8.14,27.27,5.77,39.04-2.38,11.77-8.39,22.78-17.02,31.13-5.75-11.29-7.81-24.41-5.81-36.92Z"/>
      <path class="cls-3" d="m272.55,199.35s-.29.67-.7,1.92c-.42,1.25-.96,3.08-1.57,5.36-1.23,4.55-2.64,10.93-3.62,18.06-.96,7.14-1.3,13.66-1.33,18.38-.02,2.36.02,4.27.09,5.58.06,1.32.12,2.04.17,2.04.05,0,.08-.73.1-2.05.01-1.32.05-3.22.13-5.57.15-4.7.57-11.19,1.53-18.29.97-7.1,2.3-13.47,3.41-18.04.55-2.29,1.02-4.13,1.36-5.4.33-1.27.49-1.99.45-2Z"/>
    </g>
    <g>
      <path class="cls-4" d="m239.51,164.6c5.06-11.29,13.78-20.92,24.52-27.06,1.65,11.62.77,27.8-4.45,38.31-5.22,10.51-13.69,19.37-23.95,25.07-2.56-12.11-1.19-25.02,3.87-36.31Z"/>
      <path class="cls-3" d="m255.84,153.96s-.45.56-1.15,1.64c-.71,1.07-1.69,2.66-2.84,4.66-2.31,3.98-5.26,9.64-7.99,16.13-2.72,6.49-4.69,12.56-5.91,17-.61,2.22-1.06,4.03-1.33,5.29-.27,1.26-.41,1.96-.36,1.97.05.01.26-.67.61-1.91.35-1.24.87-3.02,1.53-5.22,1.33-4.4,3.37-10.41,6.08-16.88,2.72-6.46,5.58-12.13,7.78-16.16,1.1-2.02,2.01-3.64,2.65-4.75.64-1.12.97-1.75.93-1.77Z"/>
    </g>
    <path class="cls-3" d="m347.1,340.55s-.13-.15-.42-.41c-.33-.28-.75-.65-1.28-1.12-1.19-1-2.86-2.42-4.99-4.22-1.09-.91-2.3-1.92-3.62-3.03-1.29-1.15-2.69-2.4-4.19-3.74-2.99-2.7-6.47-5.68-10.09-9.24-1.83-1.75-3.75-3.59-5.75-5.5-1.98-1.93-3.96-4.03-6.05-6.15-4.23-4.2-8.45-8.97-12.98-13.91-8.83-10.08-18.12-21.52-27.07-34.14-8.87-12.67-16.53-25.28-22.97-37.03-3.07-5.96-6.12-11.55-8.54-17-1.25-2.7-2.52-5.29-3.63-7.82-1.07-2.55-2.09-5-3.07-7.34-2.04-4.64-3.53-8.98-4.94-12.75-.69-1.89-1.34-3.64-1.94-5.27-.53-1.64-1.01-3.14-1.44-4.49-.87-2.65-1.55-4.73-2.03-6.21-.23-.67-.41-1.2-.55-1.61-.13-.36-.2-.54-.22-.54-.02,0,.03.2.13.57.12.42.27.96.46,1.64.44,1.49,1.07,3.59,1.86,6.27.41,1.36.87,2.87,1.37,4.52.58,1.63,1.2,3.4,1.87,5.3,1.37,3.79,2.82,8.16,4.82,12.83.96,2.35,1.97,4.81,3.02,7.38,1.09,2.55,2.35,5.14,3.59,7.86,2.4,5.47,5.43,11.09,8.49,17.08,6.42,11.8,14.07,24.45,22.97,37.16,8.97,12.64,18.31,24.1,27.19,34.17,4.55,4.94,8.8,9.7,13.07,13.88,2.11,2.11,4.1,4.2,6.1,6.12,2.02,1.9,3.95,3.72,5.8,5.46,3.65,3.53,7.17,6.49,10.2,9.15,1.52,1.32,2.94,2.55,4.25,3.68,1.34,1.08,2.57,2.07,3.68,2.97,2.18,1.74,3.89,3.11,5.11,4.08.56.43,1,.78,1.34,1.04.31.23.47.34.48.33Z"/>
  </g>
  <g>
    <path class="cls-4" d="m121.97,226.36c13.02,1.9,26.87-4.12,34.37-14.92,1.49-2.15,2.74-5.08,1.29-7.25-1.54-2.32-4.98-2.11-7.66-1.38-11.26,3.08-21.09,11.07-26.42,21.47,5.39-7.98,8.33-17.58,8.33-27.21,0-3.67-.96-8.08-4.42-9.29-3.33-1.17-6.79,1.47-8.89,4.3-7.3,9.85-7,24.63.69,34.17-5.31-9.64-17.12-15.22-27.94-13.2-4.16.78-8.83,3.71-8.34,7.91.3,2.55,2.45,4.47,4.61,5.86,8.34,5.41,19.11,6.89,28.61,3.95-11.63,1.89-21.63,11.4-24.11,22.91-.79,3.68-.64,8.08,2.25,10.49,3.66,3.05,9.27,1.1,13.14-1.67,9.62-6.89,15.81-18.36,16.29-30.19.09,7.29,4.04,14.42,10.17,18.36,4.03,2.59,10.34,3.31,12.86-.76,2.42-3.9-.51-8.9-3.73-12.18-5.82-5.92-12.97-10.53-20.77-13.37"/>
    <path class="cls-3" d="m144.73,213.78c.11.39-6.25,1.91-13.05,5.99-6.85,4.01-11.23,8.85-11.52,8.57-.26-.16,3.82-5.53,10.87-9.67,7.02-4.2,13.68-5.2,13.7-4.89Z"/>
    <path class="cls-3" d="m126,204.29c.34.2-2.66,4.68-3.67,11.07-1.04,6.36-.35,11.68-.78,11.72-.26.07-1.56-5.28-.48-11.93,1.07-6.71,4.72-11.1,4.93-10.86Z"/>
    <path class="cls-3" d="m99.92,222.95c-.1-.28,5.02-1.8,11.42-.75,6.45,1,10.64,4.56,10.38,4.77-.2.33-4.46-2.58-10.59-3.52-6.09-1.02-11.15-.1-11.21-.51Z"/>
    <path class="cls-9" d="m116.96,229.95c-1.06-1.37-1.21-3.38-.36-4.9.85-1.51,2.64-2.44,4.37-2.25-.1,1.37.02,2.75.37,4.08-1.69.9-3.08,1.8-4.37,3.07"/>
    <path class="cls-3" d="m102.68,255.19c-.15-.04.16-1.99,1.22-5,1.04-3.01,2.94-7.04,5.76-11.02,2.84-3.98,6.02-7.09,8.52-9.06,2.5-1.98,4.24-2.92,4.33-2.79.26.32-6.3,4.75-11.81,12.59-5.59,7.77-7.62,15.43-8.02,15.29Z"/>
  </g>
  <g>
    <path class="cls-4" d="m206.05,130.54c14.39,5.66,31.86,2.48,43.34-7.88,2.28-2.06,4.49-5.08,3.42-7.96-1.14-3.06-5.14-3.75-8.4-3.63-13.72.51-27.11,7.02-35.99,17.5,8.3-7.69,14.24-17.9,16.83-28.92.98-4.2,1.07-9.5-2.57-11.81-3.5-2.23-8.16-.14-11.33,2.55-10.99,9.32-14.6,26.32-8.36,39.31-3.49-12.46-15.52-22.01-28.44-22.59-4.97-.22-11.1,1.88-11.66,6.82-.34,3,1.61,5.77,3.71,7.95,8.1,8.42,20.03,13.01,31.69,12.18-13.82-.95-27.81,7.26-33.74,19.77-1.89,4-2.89,9.08-.23,12.61,3.37,4.47,10.31,3.74,15.48,1.61,12.86-5.31,23.02-16.78,26.73-30.2-1.85,8.37.76,17.59,6.73,23.74,3.92,4.04,10.95,6.56,14.93,2.57,3.82-3.82,1.8-10.33-1.01-14.94-5.07-8.34-12.03-15.52-20.2-20.87"/>
    <path class="cls-3" d="m235.47,122.23c.02.47-7.66.51-16.55,3.36-8.91,2.76-15.23,7.13-15.48,6.73-.25-.26,5.85-5.31,15.03-8.16,9.16-2.93,17.06-2.28,17-1.93Z"/>
    <path class="cls-3" d="m216.58,106.36c.34.32-4.3,4.64-7.17,11.69-2.89,7-3.52,13.28-4.03,13.21-.32,0-.37-6.46,2.64-13.79,3.03-7.4,8.38-11.44,8.55-11.11Z"/>
    <path class="cls-3" d="m181.72,120.73c-.05-.34,6.23-.72,13.27,2.2,7.12,2.87,10.96,8.07,10.6,8.24-.32.32-4.42-4.15-11.18-6.86-6.7-2.79-12.74-3.1-12.69-3.58Z"/>
    <path class="cls-9" d="m199.36,133.3c-.85-1.85-.48-4.2.9-5.7,1.38-1.5,3.68-2.08,5.6-1.4-.48,1.54-.71,3.16-.67,4.77-2.17.58-4,1.24-5.82,2.34"/>
    <path class="cls-3" d="m176.25,158.37c-.16-.08.72-2.24,2.73-5.4,2-3.16,5.25-7.27,9.55-11.07,4.31-3.79,8.79-6.5,12.18-8.09,3.39-1.6,5.64-2.2,5.7-2.03.21.44-8.49,3.75-16.89,11.25-8.48,7.4-12.86,15.62-13.27,15.35Z"/>
  </g>
  <g>
    <g>
      <path class="cls-4" d="m175.09,551.98c-4.96-12-6.01-25.58-2.94-38.2,10.04,7.12,21.88,19.4,25.99,31,4.67,13.21,5.19,23.99,2.08,35.65-11.08-6.77-20.16-16.46-25.12-28.46Z"/>
      <path class="cls-3" d="m178.74,531.86s.1.74.42,2.06c.31,1.32.81,3.21,1.5,5.52,1.37,4.64,3.56,10.96,6.53,17.71,2.99,6.75,6.19,12.63,8.7,16.76,1.25,2.07,2.3,3.72,3.07,4.83.76,1.12,1.2,1.72,1.24,1.69.04-.03-.32-.68-1.01-1.84-.69-1.16-1.68-2.84-2.87-4.93-2.39-4.19-5.51-10.07-8.48-16.8-2.97-6.73-5.22-12.99-6.7-17.58-.75-2.29-1.33-4.15-1.71-5.45-.39-1.29-.63-2-.68-1.99Z"/>
    </g>
    <g>
      <path class="cls-4" d="m118.85,545.85c-4.96-12-6.01-25.58-2.94-38.2,10.04,7.12,21.75,19.45,25.99,31,4.24,11.55,4.89,24.4,1.84,36.32-11.08-6.77-19.92-17.13-24.88-29.13Z"/>
      <path class="cls-3" d="m122.5,525.73s.1.74.42,2.06c.31,1.32.82,3.21,1.5,5.52,1.37,4.64,3.56,10.96,6.53,17.71,2.99,6.75,6.19,12.63,8.7,16.76,1.25,2.07,2.3,3.72,3.07,4.83.76,1.12,1.2,1.72,1.24,1.69.04-.03-.32-.68-1.01-1.84-.69-1.16-1.68-2.84-2.87-4.93-2.39-4.18-5.51-10.07-8.48-16.8-2.97-6.72-5.22-12.99-6.7-17.58-.74-2.29-1.33-4.15-1.71-5.45-.39-1.29-.63-2-.68-1.99Z"/>
    </g>
    <g>
      <path class="cls-4" d="m89.78,585.99c-9.3,9.06-15.64,21.12-17.81,33.92,12.04-2.57,27.67-9.26,36.13-18.19,8.47-8.93,14.14-20.47,16.06-32.63-12.85,1.84-25.07,7.85-34.38,16.91Z"/>
      <path class="cls-3" d="m85.17,605.91s.39-.64,1.2-1.73c.8-1.09,2.02-2.62,3.56-4.48,3.09-3.72,7.6-8.66,13.01-13.68,5.42-5.02,10.68-9.15,14.62-11.95,1.97-1.4,3.59-2.5,4.73-3.22,1.14-.72,1.78-1.11,1.81-1.07.03.04-.56.5-1.66,1.29-1.1.79-2.67,1.94-4.59,3.39-3.85,2.9-9.04,7.07-14.43,12.07-5.38,5-9.93,9.87-13.11,13.49-1.59,1.81-2.86,3.29-3.73,4.33-.87,1.03-1.37,1.59-1.41,1.56Z"/>
    </g>
    <g>
      <path class="cls-4" d="m144.4,596.03c-9.3,9.06-15.64,21.12-17.81,33.92,12.04-2.57,27.67-9.26,36.13-18.2,8.47-8.93,14.14-20.47,16.06-32.63-12.85,1.84-25.07,7.85-34.38,16.91Z"/>
      <path class="cls-3" d="m139.8,615.96s.39-.64,1.2-1.73c.8-1.09,2.02-2.62,3.56-4.48,3.09-3.72,7.6-8.66,13.01-13.68,5.42-5.02,10.68-9.15,14.62-11.96,1.97-1.4,3.59-2.5,4.73-3.22,1.14-.72,1.78-1.11,1.81-1.07.03.04-.56.5-1.66,1.29-1.1.79-2.67,1.94-4.59,3.39-3.85,2.9-9.04,7.07-14.44,12.07-5.38,5-9.93,9.87-13.11,13.49-1.59,1.81-2.86,3.29-3.73,4.33-.87,1.03-1.37,1.58-1.41,1.56Z"/>
    </g>
    <path class="cls-3" d="m238.57,574.9s-.52.17-1.54.41c-1.1.25-2.58.58-4.45,1-.98.21-2.05.44-3.22.7-1.18.23-2.48.42-3.86.66-2.78.43-5.93,1.05-9.45,1.38-1.76.2-3.6.41-5.52.63-1.92.21-3.93.29-6.01.44-4.15.36-8.6.38-13.29.47-9.37-.04-19.67-.62-30.38-2.09-10.71-1.56-20.77-3.85-29.78-6.4-4.47-1.39-8.75-2.64-12.64-4.13-1.95-.72-3.86-1.35-5.65-2.09-1.78-.74-3.5-1.45-5.13-2.13-3.3-1.3-6.15-2.76-8.7-3.94-1.27-.61-2.46-1.15-3.53-1.7-1.05-.57-2.02-1.09-2.9-1.56-1.68-.92-3.01-1.65-4-2.19-.91-.51-1.38-.79-1.36-.82.02-.03.52.2,1.45.65,1.01.5,2.36,1.18,4.07,2.03.89.45,1.87.95,2.93,1.49,1.08.52,2.28,1.04,3.56,1.63,2.56,1.14,5.43,2.55,8.73,3.81,1.64.66,3.35,1.35,5.14,2.07,1.79.71,3.7,1.32,5.65,2.03,3.89,1.46,8.15,2.68,12.62,4.04,8.99,2.5,19.01,4.75,29.67,6.3,10.67,1.46,20.92,2.07,30.25,2.16,4.66-.07,9.1-.06,13.24-.39,2.07-.14,4.08-.2,5.99-.38,1.91-.2,3.75-.39,5.51-.57,3.52-.29,6.67-.86,9.45-1.24,1.39-.21,2.68-.38,3.87-.58,1.17-.22,2.25-.43,3.23-.62,1.88-.35,3.37-.62,4.48-.82,1.03-.18,1.57-.26,1.58-.22Z"/>
    <g>
      <path class="cls-4" d="m65.7,555.32c-11.42-6.18-20.81-16.05-26.4-27.77,12.28-.82,29.14,1.36,39.73,7.64,10.58,6.28,19.2,15.83,24.36,27.01-12.87,1.74-26.27-.71-37.69-6.88Z"/>
      <path class="cls-3" d="m55.83,537.4s.55.51,1.62,1.33c1.07.83,2.66,1.97,4.65,3.34,3.99,2.73,9.68,6.26,16.25,9.61,6.58,3.35,12.77,5.89,17.33,7.51,2.28.81,4.13,1.43,5.43,1.81,1.3.39,2.02.58,2.03.53.01-.05-.68-.33-1.95-.79-1.27-.46-3.1-1.14-5.34-2.01-4.49-1.74-10.63-4.33-17.18-7.67-6.55-3.34-12.25-6.78-16.3-9.4-2.02-1.31-3.65-2.39-4.77-3.14-1.12-.75-1.75-1.15-1.78-1.11Z"/>
    </g>
  </g>
  <g>
    <path class="cls-4" d="m79.35,671.53c13.02-1.9,26.87,4.12,34.37,14.92,1.49,2.15,2.74,5.08,1.29,7.25-1.54,2.32-4.98,2.11-7.66,1.38-11.26-3.08-21.09-11.07-26.42-21.47,5.39,7.98,8.33,17.58,8.33,27.21,0,3.67-.96,8.08-4.42,9.29-3.33,1.17-6.79-1.47-8.89-4.3-7.3-9.85-7-24.63.69-34.17-5.31,9.64-17.12,15.22-27.94,13.2-4.16-.78-8.83-3.71-8.34-7.91.3-2.55,2.45-4.47,4.61-5.86,8.34-5.41,19.11-6.89,28.61-3.95-11.63-1.89-21.63-11.4-24.11-22.91-.79-3.68-.64-8.08,2.25-10.49,3.66-3.05,9.27-1.1,13.14,1.67,9.62,6.89,15.81,18.36,16.29,30.19.09-7.29,4.04-14.42,10.17-18.36,4.03-2.59,10.34-3.31,12.86.76,2.42,3.9-.51,8.9-3.73,12.18-5.82,5.92-12.97,10.53-20.77,13.37"/>
    <path class="cls-3" d="m102.11,684.12c.11-.39-6.25-1.91-13.05-5.99-6.85-4.01-11.23-8.85-11.52-8.57-.26.16,3.82,5.53,10.87,9.67,7.02,4.2,13.68,5.2,13.7,4.89Z"/>
    <path class="cls-3" d="m83.39,693.6c.34-.2-2.66-4.68-3.67-11.07-1.04-6.36-.35-11.68-.78-11.72-.26-.07-1.56,5.28-.48,11.93,1.07,6.71,4.72,11.1,4.93,10.86Z"/>
    <path class="cls-3" d="m57.3,674.95c-.1.28,5.02,1.8,11.42.75,6.45-1,10.64-4.56,10.38-4.77-.2-.33-4.46,2.58-10.59,3.52-6.09,1.02-11.15.1-11.21.51Z"/>
    <path class="cls-9" d="m74.35,667.95c-1.06,1.37-1.21,3.38-.36,4.9.85,1.51,2.64,2.44,4.37,2.25-.1-1.37.02-2.75.37-4.08-1.69-.9-3.08-1.8-4.37-3.07"/>
    <path class="cls-3" d="m60.06,642.71c-.15.04.16,1.99,1.22,5,1.04,3.01,2.94,7.04,5.76,11.02,2.84,3.98,6.02,7.09,8.52,9.06,2.5,1.98,4.24,2.92,4.33,2.79.26-.32-6.3-4.75-11.81-12.59-5.59-7.77-7.62-15.43-8.02-15.29Z"/>
  </g>
  <g>
    <g>
      <g>
        <path class="cls-4" d="m102.36,468.55c-9.13,11.26-14.57,25.46-15.31,39.94,13.01-4.42,29.46-13.89,37.68-24.91,8.22-11.02,13-24.55,13.53-38.28-14.01,3.72-26.77,11.99-35.9,23.25Z"/>
        <path class="cls-3" d="m99.87,491.24s.35-.76,1.1-2.07c.75-1.31,1.89-3.17,3.36-5.43,2.94-4.53,7.29-10.6,12.63-16.88,5.35-6.28,10.64-11.55,14.64-15.17,2-1.81,3.65-3.24,4.82-4.19,1.17-.95,1.83-1.46,1.87-1.42.03.04-.56.63-1.67,1.65-1.11,1.02-2.7,2.5-4.65,4.36-3.89,3.72-9.1,9.03-14.42,15.27-5.31,6.25-9.72,12.25-12.77,16.68-1.53,2.22-2.74,4.02-3.57,5.28-.83,1.26-1.31,1.94-1.36,1.91Z"/>
      </g>
      <g>
        <path class="cls-4" d="m160.92,470.28c-5.09,11.6-6.39,24.83-3.67,37.2,9.94-6.74,21.62-18.52,25.99-29.7,4.38-11.18,5.28-23.7,2.55-35.39-10.94,6.38-19.79,16.29-24.88,27.9Z"/>
        <path class="cls-3" d="m164.06,489.98s.12-.72.45-2c.33-1.28.86-3.11,1.58-5.36,1.43-4.49,3.7-10.62,6.74-17.14,3.05-6.52,6.3-12.19,8.83-16.17,1.26-1.99,2.32-3.58,3.1-4.65.77-1.07,1.21-1.65,1.25-1.63.04.03-.33.66-1.02,1.77-.7,1.11-1.7,2.73-2.91,4.75-2.42,4.03-5.58,9.71-8.62,16.21-3.03,6.5-5.36,12.57-6.9,17.01-.77,2.22-1.38,4.03-1.78,5.28-.41,1.25-.66,1.94-.71,1.92Z"/>
      </g>
      <g>
        <path class="cls-4" d="m136.46,431.82c-10.12-7.62-17.74-18.5-21.43-30.62,11.97,1,27.92,5.54,37.22,13.14,9.3,7.6,16.22,18.06,19.57,29.59-12.67-.19-25.24-4.5-35.36-12.12Z"/>
        <path class="cls-3" d="m129.55,413.11s.46.57,1.37,1.52c.91.95,2.28,2.29,4,3.89,3.45,3.21,8.43,7.44,14.28,11.64,5.86,4.19,11.47,7.54,15.62,9.76,2.08,1.12,3.78,1.98,4.98,2.53,1.19.56,1.86.85,1.88.81.02-.04-.61-.41-1.76-1.04-1.16-.63-2.82-1.55-4.86-2.72-4.08-2.33-9.62-5.73-15.46-9.9-5.83-4.18-10.83-8.33-14.35-11.44-1.76-1.56-3.18-2.83-4.14-3.73-.97-.89-1.52-1.36-1.56-1.33Z"/>
      </g>
      <g>
        <path class="cls-4" d="m83.39,426.09c-7.62-9.75-12.05-21.96-12.47-34.33,11.04,3.97,24.94,12.3,31.79,21.83,6.85,9.53,10.73,21.16,10.97,32.89-11.9-3.39-22.68-10.64-30.3-20.39Z"/>
        <path class="cls-3" d="m81.6,406.68s.29.66.91,1.78c.62,1.13,1.57,2.74,2.79,4.69,2.44,3.91,6.07,9.16,10.53,14.6,4.47,5.44,8.91,10.02,12.27,13.17,1.68,1.58,3.07,2.82,4.05,3.65.98.83,1.54,1.27,1.57,1.24.03-.03-.47-.54-1.4-1.43-.93-.88-2.27-2.18-3.9-3.8-3.26-3.23-7.63-7.84-12.08-13.26-4.44-5.42-8.11-10.6-10.65-14.43-1.27-1.91-2.28-3.48-2.96-4.56-.69-1.08-1.09-1.67-1.13-1.65Z"/>
      </g>
      <path class="cls-3" d="m289.22,413.16s-.19.05-.55.18c-.4.16-.93.36-1.59.61-1.44.58-3.47,1.4-6.06,2.44-1.32.54-2.78,1.14-4.37,1.79-1.62.6-3.38,1.26-5.26,1.96-3.78,1.38-8.05,3.07-12.88,4.6-2.41.8-4.92,1.64-7.55,2.52-2.63.85-5.41,1.62-8.26,2.48-5.69,1.78-11.88,3.28-18.36,4.97-13.04,3.1-27.5,5.97-42.83,7.99-15.35,1.92-30.07,2.8-43.47,3.01-6.7-.07-13.07.01-19.02-.39-2.97-.16-5.85-.24-8.61-.45-2.75-.25-5.4-.49-7.92-.71-5.06-.36-9.59-1.07-13.58-1.59-1.99-.27-3.85-.52-5.56-.75-1.69-.3-3.24-.57-4.65-.82-2.75-.47-4.9-.84-6.44-1.11-.7-.11-1.25-.2-1.68-.26-.38-.05-.58-.07-.58-.06,0,.02.19.07.56.15.42.09.97.21,1.66.36,1.53.31,3.67.73,6.41,1.28,1.4.27,2.95.57,4.64.9,1.71.25,3.57.53,5.56.82,3.99.56,8.53,1.32,13.59,1.73,2.53.25,5.18.51,7.93.78,2.76.22,5.65.33,8.63.5,5.96.43,12.35.38,19.06.47,13.43-.16,28.19-1.02,43.58-2.95,15.37-2.02,29.87-4.93,42.92-8.08,6.49-1.72,12.69-3.25,18.38-5.07,2.85-.88,5.63-1.66,8.26-2.53,2.62-.9,5.14-1.76,7.54-2.58,4.83-1.58,9.09-3.31,12.86-4.74,1.88-.73,3.63-1.41,5.24-2.03,1.58-.68,3.03-1.3,4.34-1.86,2.56-1.11,4.57-1.99,5.99-2.61.64-.29,1.15-.52,1.55-.7.35-.16.52-.25.51-.27Z"/>
    </g>
    <g>
      <path class="cls-4" d="m37.64,439.76c11.73-10.08,17.08-27.01,13.28-42-.76-2.98-2.39-6.35-5.44-6.74-3.24-.42-5.72,2.79-7.14,5.73-5.96,12.37-6.46,27.25-1.34,39.99-2.92-10.93-9.17-20.96-17.71-28.39-3.25-2.83-7.9-5.38-11.65-3.25-3.61,2.06-3.94,7.15-3.04,11.2,3.11,14.07,16.45,25.21,30.85,25.75-12.65-2.73-26.71,3.44-33.26,14.59-2.52,4.29-3.52,10.69.58,13.5,2.49,1.71,5.85,1.27,8.76.44,11.23-3.23,20.86-11.64,25.57-22.33-7.29,11.77-6.58,27.98,1.72,39.07,2.65,3.54,6.67,6.8,11.04,6.1,5.53-.89,8.13-7.37,8.66-12.94,1.31-13.86-4.08-28.19-14.21-37.74,6.53,5.55,15.91,7.54,24.14,5.14,5.41-1.58,10.91-6.61,9.25-12-1.59-5.16-8.29-6.42-13.68-6.09-9.74.59-19.35,3.38-27.89,8.11"/>
      <path class="cls-3" d="m44.04,409.86c.42.2-3.13,7.02-4.76,16.2-1.72,9.17-.81,16.8-1.28,16.84-.35.11-1.96-7.65-.19-17.11,1.69-9.46,5.95-16.15,6.23-15.93Z"/>
      <path class="cls-3" d="m21.18,419.15c.44-.15,2.09,5.97,6.99,11.8,4.84,5.83,10.1,9.32,9.79,9.73-.14.29-5.88-2.69-10.95-8.78-5.13-6.13-6.2-12.75-5.83-12.75Z"/>
      <path class="cls-3" d="m17.6,456.68c-.33-.12,2.27-5.84,8.14-10.7,5.86-4.95,12.25-5.92,12.24-5.52.13.43-5.73,1.97-11.29,6.68-5.6,4.62-8.7,9.81-9.1,9.55Z"/>
      <path class="cls-9" d="m36.96,446.96c-2.04-.12-3.94-1.54-4.62-3.46-.69-1.92-.12-4.22,1.38-5.61,1.13,1.15,2.46,2.1,3.9,2.82-.5,2.19-.78,4.12-.65,6.24"/>
      <path class="cls-3" d="m48.32,479.11c-.15.1-1.64-1.68-3.5-4.94-1.86-3.25-3.98-8.04-5.33-13.62-1.34-5.59-1.64-10.81-1.46-14.55.17-3.75.69-6.01.86-5.99.49.02-.65,9.26,2.05,20.19,2.58,10.96,7.8,18.67,7.38,18.91Z"/>
    </g>
  </g>
  <g>
    <g>
      <path class="cls-4" d="m591.47,334.52c4.96,12,6.01,25.58,2.94,38.2-10.04-7.12-21.75-19.45-25.99-31-4.24-11.55-5.13-23.73-2.08-35.65,11.08,6.77,20.16,16.46,25.12,28.46Z"/>
      <path class="cls-3" d="m587.81,354.64s-.1-.74-.42-2.06c-.31-1.32-.81-3.21-1.5-5.52-1.37-4.63-3.56-10.96-6.53-17.71-2.99-6.75-6.19-12.63-8.7-16.76-1.25-2.07-2.3-3.72-3.07-4.83-.76-1.12-1.2-1.72-1.24-1.69-.04.03.32.68,1.01,1.84.69,1.16,1.68,2.84,2.87,4.93,2.39,4.18,5.51,10.07,8.48,16.8,2.97,6.73,5.22,12.99,6.7,17.58.74,2.29,1.33,4.15,1.71,5.45.39,1.29.63,2,.68,1.99Z"/>
    </g>
    <g>
      <path class="cls-4" d="m647.7,340.65c4.96,12,6.01,25.58,2.94,38.2-10.04-7.12-21.75-19.45-25.99-31-4.24-11.55-4.89-24.4-1.84-36.32,11.08,6.77,19.92,17.13,24.88,29.13Z"/>
      <path class="cls-3" d="m644.05,360.77s-.1-.74-.42-2.06c-.31-1.32-.82-3.21-1.5-5.52-1.37-4.64-3.56-10.96-6.53-17.71-2.99-6.75-6.19-12.63-8.7-16.76-1.25-2.07-2.3-3.72-3.07-4.83-.76-1.12-1.2-1.72-1.24-1.69-.04.03.32.68,1.01,1.84.69,1.16,1.68,2.84,2.87,4.93,2.39,4.18,5.51,10.07,8.48,16.8,2.97,6.72,5.22,12.99,6.7,17.58.74,2.29,1.33,4.15,1.71,5.45.39,1.29.63,2,.68,1.99Z"/>
    </g>
    <g>
      <path class="cls-4" d="m676.78,300.51c9.3-9.06,15.64-21.12,17.81-33.92-12.04,2.57-27.67,9.26-36.13,18.2-8.47,8.93-14.14,20.47-16.06,32.63,12.85-1.84,25.07-7.85,34.38-16.91Z"/>
      <path class="cls-3" d="m681.38,280.58s-.39.64-1.2,1.73c-.8,1.09-2.02,2.62-3.56,4.48-3.09,3.72-7.6,8.66-13.01,13.68-5.42,5.02-10.68,9.15-14.62,11.95-1.97,1.4-3.59,2.5-4.73,3.22-1.14.72-1.78,1.11-1.81,1.07-.03-.04.56-.5,1.66-1.29,1.1-.79,2.67-1.94,4.59-3.39,3.85-2.9,9.04-7.07,14.43-12.07,5.38-5,9.93-9.87,13.11-13.49,1.59-1.81,2.86-3.29,3.73-4.33.87-1.03,1.37-1.59,1.41-1.56Z"/>
    </g>
    <g>
      <path class="cls-4" d="m622.16,290.46c9.3-9.06,15.64-21.12,17.81-33.92-12.04,2.57-27.67,9.26-36.13,18.2-8.47,8.93-14.14,20.47-16.06,32.63,12.85-1.84,25.08-7.85,34.38-16.91Z"/>
      <path class="cls-3" d="m626.76,270.54s-.39.64-1.2,1.73c-.8,1.09-2.02,2.62-3.56,4.48-3.09,3.72-7.6,8.66-13.01,13.68-5.42,5.02-10.68,9.15-14.62,11.96-1.97,1.4-3.59,2.5-4.73,3.22-1.14.72-1.78,1.11-1.81,1.07-.03-.04.56-.5,1.66-1.29,1.1-.79,2.67-1.94,4.59-3.39,3.85-2.9,9.04-7.07,14.43-12.07,5.38-5,9.93-9.87,13.11-13.49,1.59-1.81,2.86-3.29,3.73-4.33.87-1.03,1.37-1.58,1.41-1.56Z"/>
    </g>
    <path class="cls-3" d="m527.98,311.6s.52-.17,1.54-.41c1.1-.25,2.58-.58,4.45-1,.98-.21,2.05-.44,3.22-.7,1.18-.23,2.48-.42,3.86-.66,2.78-.43,5.93-1.05,9.45-1.38,1.76-.2,3.6-.41,5.52-.63,1.92-.21,3.93-.28,6.01-.44,4.15-.36,8.6-.38,13.29-.47,9.37.04,19.67.62,30.38,2.09,10.71,1.56,20.77,3.85,29.78,6.4,4.47,1.39,8.75,2.64,12.64,4.13,1.95.72,3.86,1.35,5.65,2.09,1.78.74,3.5,1.45,5.13,2.13,3.3,1.3,6.15,2.76,8.7,3.94,1.27.61,2.46,1.15,3.53,1.7,1.05.57,2.02,1.09,2.9,1.56,1.68.92,3.01,1.65,4,2.19.91.51,1.38.79,1.36.82-.02.03-.52-.2-1.45-.65-1.01-.5-2.36-1.18-4.07-2.03-.89-.45-1.87-.95-2.93-1.49-1.08-.52-2.28-1.04-3.56-1.63-2.56-1.14-5.43-2.55-8.73-3.81-1.64-.66-3.35-1.35-5.14-2.07-1.79-.71-3.7-1.32-5.65-2.03-3.89-1.46-8.15-2.68-12.62-4.04-8.99-2.5-19.01-4.75-29.67-6.3-10.67-1.46-20.92-2.07-30.25-2.16-4.66.07-9.1.06-13.24.39-2.07.14-4.08.2-5.99.38-1.91.2-3.75.39-5.51.57-3.52.29-6.67.86-9.45,1.24-1.39.21-2.68.37-3.87.58-1.17.22-2.25.43-3.23.62-1.88.35-3.37.62-4.48.82-1.03.18-1.57.26-1.58.22Z"/>
    <g>
      <path class="cls-4" d="m700.85,331.18c11.42,6.18,20.81,16.05,26.4,27.77-12.28.82-29.14-1.36-39.73-7.64-10.58-6.28-19.2-15.83-24.36-27.01,12.87-1.74,26.27.71,37.69,6.88Z"/>
      <path class="cls-3" d="m710.72,349.09s-.55-.51-1.62-1.33c-1.07-.83-2.66-1.97-4.65-3.34-3.99-2.73-9.68-6.26-16.25-9.61-6.58-3.35-12.78-5.89-17.33-7.51-2.28-.81-4.13-1.43-5.43-1.81-1.3-.39-2.02-.58-2.03-.53-.01.05.68.33,1.95.79,1.27.46,3.1,1.14,5.34,2.01,4.49,1.74,10.63,4.33,17.18,7.67,6.55,3.34,12.25,6.78,16.3,9.4,2.02,1.31,3.65,2.39,4.77,3.14,1.12.75,1.75,1.15,1.78,1.11Z"/>
    </g>
  </g>
  <g>
    <g>
      <path class="cls-4" d="m568.29,178.73c13.68-4.79,28.88-5.13,42.76-.94-8.55,10.76-23.02,23.05-36.16,27.07-13.14,4.02-27.5,3.96-40.6-.18,8.23-11.93,20.32-21.16,34-25.95Z"/>
      <path class="cls-3" d="m590.49,184.04c-.01-.05-.84.07-2.32.34-1.49.26-3.62.71-6.25,1.33-5.25,1.24-12.44,3.29-20.15,6.2-7.71,2.92-14.46,6.13-19.22,8.67-2.38,1.27-4.28,2.34-5.57,3.13-1.29.78-1.99,1.23-1.97,1.28.03.05.78-.32,2.11-1.01,1.33-.7,3.27-1.7,5.68-2.9,4.81-2.41,11.57-5.52,19.24-8.43,7.68-2.89,14.81-5.02,20.01-6.39,2.6-.69,4.71-1.22,6.18-1.57,1.46-.36,2.27-.58,2.26-.64Z"/>
    </g>
    <g>
      <path class="cls-4" d="m550.17,234.44c12.64-.88,25.53,2.36,36.25,9.09-9.69,7.09-24.72,14.1-36.73,14.45-12,.35-24.09-3.02-34.18-9.53,9.69-8.15,22.01-13.13,34.65-14.01Z"/>
      <path class="cls-3" d="m567.66,244.04s-.72-.13-2.03-.25c-1.31-.12-3.22-.24-5.57-.32-4.71-.17-11.24-.1-18.41.56-7.17.68-13.6,1.82-18.2,2.86-2.3.52-4.15.98-5.42,1.35-1.27.36-1.96.58-1.95.62.01.05.73-.09,2.02-.37,1.28-.29,3.15-.68,5.45-1.13,4.61-.92,11.02-1.98,18.16-2.65,7.14-.66,13.64-.81,18.34-.76,2.35.02,4.25.06,5.57.1,1.32.04,2.05.03,2.05-.02Z"/>
    </g>
    <g>
      <path class="cls-4" d="m522.21,198.45c-3.76-12.1-11.44-22.94-21.6-30.5-3.1,11.6-4.2,28.15-.18,39.47,4.02,11.32,11.54,21.36,21.26,28.41,4.09-11.99,4.28-25.28.52-37.37Z"/>
      <path class="cls-3" d="m506.93,185.62s.39.62.97,1.81c.59,1.18,1.39,2.91,2.32,5.08,1.86,4.33,4.16,10.44,6.14,17.37,1.97,6.93,3.23,13.34,3.92,18,.35,2.33.59,4.23.7,5.54.13,1.31.17,2.04.12,2.05-.05,0-.18-.71-.39-2.01-.2-1.3-.51-3.18-.92-5.49-.82-4.63-2.14-10.99-4.1-17.89-1.97-6.9-4.18-13-5.93-17.37-.87-2.18-1.6-3.94-2.11-5.16-.51-1.21-.77-1.9-.73-1.92Z"/>
    </g>
    <g>
      <path class="cls-4" d="m534.71,146.55c-6.61-10.46-16.6-18.75-28.11-23.31.02,11.73,3.17,27.63,9.83,37.29,6.66,9.66,16.3,17.23,27.26,21.42.82-12.35-2.37-24.94-8.98-35.4Z"/>
      <path class="cls-3" d="m517.04,138.32s.52.49,1.37,1.46c.86.96,2.05,2.4,3.47,4.21,2.86,3.62,6.57,8.8,10.19,14.83,3.61,6.04,6.42,11.77,8.26,15.99.92,2.11,1.62,3.84,2.07,5.05.45,1.21.68,1.88.64,1.9-.04.02-.35-.62-.88-1.8-.52-1.18-1.29-2.87-2.26-4.95-1.94-4.16-4.81-9.83-8.4-15.85-3.6-6.01-7.24-11.21-9.99-14.89-1.37-1.84-2.5-3.32-3.3-4.33-.79-1.02-1.21-1.59-1.17-1.62Z"/>
    </g>
    <path class="cls-3" d="m453.13,335.96s.11-.17.36-.46c.28-.33.65-.75,1.11-1.29,1.03-1.16,2.49-2.8,4.34-4.88.95-1.06,2.01-2.23,3.15-3.51,1.11-1.32,2.32-2.76,3.62-4.29,2.58-3.09,5.6-6.54,8.68-10.58,1.57-1.99,3.21-4.08,4.91-6.26,1.69-2.19,3.35-4.55,5.12-6.94,3.6-4.75,7.1-10.08,10.87-15.61,7.31-11.23,14.89-23.87,21.97-37.63,6.99-13.8,12.78-27.36,17.5-39.91,2.19-6.33,4.42-12.3,6.05-18.03.85-2.85,1.75-5.59,2.48-8.26.7-2.68,1.36-5.24,2-7.7,1.36-4.88,2.22-9.39,3.09-13.32.42-1.97.81-3.8,1.17-5.49.29-1.69.55-3.25.79-4.65.48-2.75.86-4.9,1.13-6.43.13-.69.24-1.24.32-1.67.08-.38.12-.57.14-.56.02,0,0,.2-.04.58-.06.43-.13.99-.22,1.68-.23,1.54-.55,3.71-.95,6.47-.22,1.41-.45,2.97-.71,4.67-.34,1.7-.7,3.54-1.1,5.51-.82,3.95-1.63,8.47-2.96,13.38-.62,2.46-1.27,5.04-1.95,7.73-.72,2.68-1.6,5.42-2.44,8.29-1.6,5.76-3.81,11.75-5.98,18.11-4.68,12.59-10.47,26.2-17.47,40.04-7.09,13.79-14.71,26.45-22.08,37.68-3.8,5.53-7.34,10.85-10.97,15.59-1.79,2.39-3.46,4.74-5.17,6.92-1.73,2.17-3.39,4.24-4.97,6.23-3.11,4.01-6.18,7.44-8.8,10.5-1.32,1.52-2.55,2.94-3.68,4.25-1.17,1.26-2.25,2.42-3.22,3.46-1.91,2.03-3.41,3.63-4.48,4.76-.49.51-.88.91-1.18,1.22-.27.27-.41.41-.43.39Z"/>
  </g>
  <g>
    <path class="cls-4" d="m647.25,226.36c-13.02,1.9-26.87-4.12-34.37-14.92-1.49-2.15-2.74-5.08-1.29-7.25,1.54-2.32,4.98-2.11,7.66-1.38,11.26,3.08,21.09,11.07,26.42,21.47-5.39-7.98-8.33-17.58-8.33-27.21,0-3.67.96-8.08,4.42-9.29,3.33-1.17,6.79,1.47,8.89,4.3,7.3,9.85,7,24.63-.69,34.17,5.31-9.64,17.12-15.22,27.94-13.2,4.16.78,8.83,3.71,8.34,7.91-.3,2.55-2.45,4.47-4.61,5.86-8.34,5.41-19.11,6.89-28.61,3.95,11.63,1.89,21.63,11.4,24.11,22.91.79,3.68.64,8.08-2.25,10.49-3.66,3.05-9.27,1.1-13.14-1.67-9.62-6.89-15.81-18.36-16.29-30.19-.09,7.29-4.04,14.42-10.17,18.36-4.03,2.59-10.34,3.31-12.86-.76-2.42-3.9.51-8.9,3.73-12.18,5.82-5.92,12.97-10.53,20.77-13.37"/>
    <path class="cls-3" d="m624.49,213.78c-.11.39,6.25,1.91,13.05,5.99,6.85,4.01,11.23,8.85,11.52,8.57.26-.16-3.82-5.53-10.87-9.67-7.02-4.2-13.68-5.2-13.7-4.89Z"/>
    <path class="cls-3" d="m643.21,204.29c-.34.2,2.66,4.68,3.67,11.07,1.04,6.36.35,11.68.78,11.72.26.07,1.56-5.28.48-11.93-1.07-6.71-4.72-11.1-4.93-10.86Z"/>
    <path class="cls-3" d="m669.3,222.95c.1-.28-5.02-1.8-11.42-.75-6.45,1-10.64,4.56-10.38,4.77.2.33,4.46-2.58,10.59-3.52,6.09-1.02,11.15-.1,11.21-.51Z"/>
    <path class="cls-9" d="m652.25,229.95c1.06-1.37,1.21-3.38.36-4.9-.85-1.51-2.64-2.44-4.37-2.25.1,1.37-.02,2.75-.37,4.08,1.69.9,3.08,1.8,4.37,3.07"/>
    <path class="cls-3" d="m666.54,255.19c.15-.04-.16-1.99-1.22-5-1.04-3.01-2.94-7.04-5.76-11.02-2.84-3.98-6.02-7.09-8.52-9.06-2.5-1.98-4.24-2.92-4.33-2.79-.26.32,6.3,4.75,11.81,12.59,5.59,7.77,7.62,15.43,8.02,15.29Z"/>
  </g>
  <g>
    <path class="cls-4" d="m563.01,108.09c-13.44,7.64-31.19,6.97-44.02-1.66-2.55-1.72-5.17-4.39-4.51-7.39.7-3.19,4.55-4.44,7.81-4.79,13.65-1.44,27.83,3.11,38.1,12.23-9.31-6.44-16.63-15.7-20.75-26.24-1.57-4.01-2.4-9.25.87-12.06,3.15-2.7,8.06-1.29,11.57.92,12.2,7.67,18.18,23.98,13.84,37.73,1.69-12.83,12.25-23.99,24.96-26.39,4.88-.92,11.25.29,12.51,5.1.77,2.92-.78,5.94-2.54,8.39-6.83,9.48-17.99,15.71-29.65,16.54,13.54-2.89,28.56,3.24,36.2,14.79,2.44,3.69,4.15,8.58,2.01,12.45-2.7,4.9-9.68,5.17-15.1,3.78-13.49-3.44-25.16-13.35-30.74-26.11,3.02,8.02,1.74,17.52-3.3,24.46-3.31,4.56-9.91,8.04-14.41,4.66-4.32-3.24-3.24-9.97-1.12-14.93,3.84-8.97,9.71-17.07,17.04-23.52"/>
    <path class="cls-3" d="m532.71,104.03c.05.47,7.66-.58,16.85.98,9.21,1.47,16.09,4.9,16.28,4.47.22-.29-6.54-4.42-16.04-5.95-9.48-1.6-17.21.15-17.1.5Z"/>
    <path class="cls-3" d="m549.16,85.64c-.29.37,4.91,3.98,8.75,10.56,3.86,6.52,5.37,12.65,5.86,12.5.32-.04-.55-6.45-4.57-13.27-4.04-6.9-9.91-10.14-10.04-9.78Z"/>
    <path class="cls-3" d="m585.7,94.93c0-.35-6.27.17-12.82,4.06-6.64,3.85-9.7,9.54-9.33,9.66.36.27,3.78-4.73,10.1-8.38,6.23-3.71,12.17-4.88,12.06-5.34Z"/>
    <path class="cls-9" d="m570.02,109.88c.58-1.96-.12-4.22-1.7-5.52-1.57-1.29-3.94-1.54-5.74-.6.7,1.45,1.15,3.02,1.34,4.62,2.23.27,4.14.66,6.1,1.49"/>
    <path class="cls-3" d="m596.45,131.42c.14-.1-1.03-2.11-3.47-4.96-2.43-2.85-6.22-6.45-11.02-9.61-4.81-3.14-9.63-5.19-13.21-6.28-3.59-1.1-5.89-1.38-5.93-1.21-.15.47,8.94,2.51,18.32,8.74,9.45,6.12,14.94,13.64,15.31,13.32Z"/>
  </g>
  <g>
    <g>
      <path class="cls-4" d="m594.13,551.98c4.96-12,6.01-25.58,2.94-38.2-10.04,7.12-21.88,19.4-25.99,31-4.67,13.21-5.19,23.99-2.08,35.65,11.08-6.77,20.16-16.46,25.12-28.46Z"/>
      <path class="cls-3" d="m590.48,531.86s-.1.74-.42,2.06c-.31,1.32-.81,3.21-1.5,5.52-1.37,4.64-3.56,10.96-6.53,17.71-2.99,6.75-6.19,12.63-8.7,16.76-1.25,2.07-2.3,3.72-3.07,4.83-.76,1.12-1.2,1.72-1.24,1.69-.04-.03.32-.68,1.01-1.84.69-1.16,1.68-2.84,2.87-4.93,2.39-4.19,5.51-10.07,8.48-16.8,2.97-6.73,5.22-12.99,6.7-17.58.75-2.29,1.33-4.15,1.71-5.45.39-1.29.63-2,.68-1.99Z"/>
    </g>
    <g>
      <path class="cls-4" d="m650.37,545.85c4.96-12,6.01-25.58,2.94-38.2-10.04,7.12-21.75,19.45-25.99,31-4.24,11.55-4.89,24.4-1.84,36.32,11.08-6.77,19.92-17.13,24.88-29.13Z"/>
      <path class="cls-3" d="m646.71,525.73s-.1.74-.42,2.06c-.31,1.32-.82,3.21-1.5,5.52-1.37,4.64-3.56,10.96-6.53,17.71-2.99,6.75-6.19,12.63-8.7,16.76-1.25,2.07-2.3,3.72-3.07,4.83-.76,1.12-1.2,1.72-1.24,1.69-.04-.03.32-.68,1.01-1.84.69-1.16,1.68-2.84,2.87-4.93,2.39-4.18,5.51-10.07,8.48-16.8,2.97-6.72,5.22-12.99,6.7-17.58.74-2.29,1.33-4.15,1.71-5.45.39-1.29.63-2,.68-1.99Z"/>
    </g>
    <g>
      <path class="cls-4" d="m679.44,585.99c9.3,9.06,15.64,21.12,17.81,33.92-12.04-2.57-27.67-9.26-36.13-18.19-8.47-8.93-14.14-20.47-16.06-32.63,12.85,1.84,25.07,7.85,34.38,16.91Z"/>
      <path class="cls-3" d="m684.04,605.91s-.39-.64-1.2-1.73c-.8-1.09-2.02-2.62-3.56-4.48-3.09-3.72-7.6-8.66-13.01-13.68-5.42-5.02-10.68-9.15-14.62-11.95-1.97-1.4-3.59-2.5-4.73-3.22-1.14-.72-1.78-1.11-1.81-1.07-.03.04.56.5,1.66,1.29,1.1.79,2.67,1.94,4.59,3.39,3.85,2.9,9.04,7.07,14.43,12.07,5.38,5,9.93,9.87,13.11,13.49,1.59,1.81,2.86,3.29,3.73,4.33.87,1.03,1.37,1.59,1.41,1.56Z"/>
    </g>
    <g>
      <path class="cls-4" d="m624.82,596.03c9.3,9.06,15.64,21.12,17.81,33.92-12.04-2.57-27.67-9.26-36.13-18.2-8.47-8.93-14.14-20.47-16.06-32.63,12.85,1.84,25.07,7.85,34.38,16.91Z"/>
      <path class="cls-3" d="m629.42,615.96s-.39-.64-1.2-1.73c-.8-1.09-2.02-2.62-3.56-4.48-3.09-3.72-7.6-8.66-13.01-13.68-5.42-5.02-10.68-9.15-14.62-11.96-1.97-1.4-3.59-2.5-4.73-3.22-1.14-.72-1.78-1.11-1.81-1.07-.03.04.56.5,1.66,1.29,1.1.79,2.67,1.94,4.59,3.39,3.85,2.9,9.04,7.07,14.44,12.07,5.38,5,9.93,9.87,13.11,13.49,1.59,1.81,2.86,3.29,3.73,4.33.87,1.03,1.37,1.58,1.41,1.56Z"/>
    </g>
    <path class="cls-3" d="m530.64,574.9s.52.17,1.54.41c1.1.25,2.58.58,4.45,1,.98.21,2.05.44,3.22.7,1.18.23,2.48.42,3.86.66,2.78.43,5.93,1.05,9.45,1.38,1.76.2,3.6.41,5.52.63,1.92.21,3.93.29,6.01.44,4.15.36,8.6.38,13.29.47,9.37-.04,19.67-.62,30.38-2.09,10.71-1.56,20.77-3.85,29.78-6.4,4.47-1.39,8.75-2.64,12.64-4.13,1.95-.72,3.86-1.35,5.65-2.09,1.78-.74,3.5-1.45,5.13-2.13,3.3-1.3,6.15-2.76,8.7-3.94,1.27-.61,2.46-1.15,3.53-1.7,1.05-.57,2.02-1.09,2.9-1.56,1.68-.92,3.01-1.65,4-2.19.91-.51,1.38-.79,1.36-.82-.02-.03-.52.2-1.45.65-1.01.5-2.36,1.18-4.07,2.03-.89.45-1.87.95-2.93,1.49-1.08.52-2.28,1.04-3.56,1.63-2.56,1.14-5.43,2.55-8.73,3.81-1.64.66-3.35,1.35-5.14,2.07-1.79.71-3.7,1.32-5.65,2.03-3.89,1.46-8.15,2.68-12.62,4.04-8.99,2.5-19.01,4.75-29.67,6.3-10.67,1.46-20.92,2.07-30.25,2.16-4.66-.07-9.1-.06-13.24-.39-2.07-.14-4.08-.2-5.99-.38-1.91-.2-3.75-.39-5.51-.57-3.52-.29-6.67-.86-9.45-1.24-1.39-.21-2.68-.38-3.87-.58-1.17-.22-2.25-.43-3.23-.62-1.88-.35-3.37-.62-4.48-.82-1.03-.18-1.57-.26-1.58-.22Z"/>
    <g>
      <path class="cls-4" d="m703.52,555.32c11.42-6.18,20.81-16.05,26.4-27.77-12.28-.82-29.14,1.36-39.73,7.64-10.58,6.28-19.2,15.83-24.36,27.01,12.87,1.74,26.27-.71,37.69-6.88Z"/>
      <path class="cls-3" d="m713.38,537.4s-.55.51-1.62,1.33c-1.07.83-2.66,1.97-4.65,3.34-3.99,2.73-9.68,6.26-16.25,9.61-6.58,3.35-12.77,5.89-17.33,7.51-2.28.81-4.13,1.43-5.43,1.81-1.3.39-2.02.58-2.03.53-.01-.05.68-.33,1.95-.79,1.27-.46,3.1-1.14,5.34-2.01,4.49-1.74,10.63-4.33,17.18-7.67,6.55-3.34,12.25-6.78,16.3-9.4,2.02-1.31,3.65-2.39,4.77-3.14,1.12-.75,1.75-1.15,1.78-1.11Z"/>
    </g>
  </g>
  <g>
    <path class="cls-4" d="m689.87,671.53c-13.02-1.9-26.87,4.12-34.37,14.92-1.49,2.15-2.74,5.08-1.29,7.25,1.54,2.32,4.98,2.11,7.66,1.38,11.26-3.08,21.09-11.07,26.42-21.47-5.39,7.98-8.33,17.58-8.33,27.21,0,3.67.96,8.08,4.42,9.29,3.33,1.17,6.79-1.47,8.89-4.3,7.3-9.85,7-24.63-.69-34.17,5.31,9.64,17.12,15.22,27.94,13.2,4.16-.78,8.83-3.71,8.34-7.91-.3-2.55-2.45-4.47-4.61-5.86-8.34-5.41-19.11-6.89-28.61-3.95,11.63-1.89,21.63-11.4,24.11-22.91.79-3.68.64-8.08-2.25-10.49-3.66-3.05-9.27-1.1-13.14,1.67-9.62,6.89-15.81,18.36-16.29,30.19-.09-7.29-4.04-14.42-10.17-18.36-4.03-2.59-10.34-3.31-12.86.76-2.42,3.9.51,8.9,3.73,12.18,5.82,5.92,12.97,10.53,20.77,13.37"/>
    <path class="cls-3" d="m667.11,684.12c-.11-.39,6.25-1.91,13.05-5.99,6.85-4.01,11.23-8.85,11.52-8.57.26.16-3.82,5.53-10.87,9.67-7.02,4.2-13.68,5.2-13.7,4.89Z"/>
    <path class="cls-3" d="m685.83,693.6c-.34-.2,2.66-4.68,3.67-11.07,1.04-6.36.35-11.68.78-11.72.26-.07,1.56,5.28.48,11.93-1.07,6.71-4.72,11.1-4.93,10.86Z"/>
    <path class="cls-3" d="m711.92,674.95c.1.28-5.02,1.8-11.42.75-6.45-1-10.64-4.56-10.38-4.77.2-.33,4.46,2.58,10.59,3.52,6.09,1.02,11.15.1,11.21.51Z"/>
    <path class="cls-9" d="m694.87,667.95c1.06,1.37,1.21,3.38.36,4.9-.85,1.51-2.64,2.44-4.37,2.25.1-1.37-.02-2.75-.37-4.08,1.69-.9,3.08-1.8,4.37-3.07"/>
    <path class="cls-3" d="m709.16,642.71c.15.04-.16,1.99-1.22,5-1.04,3.01-2.94,7.04-5.76,11.02-2.84,3.98-6.02,7.09-8.52,9.06-2.5,1.98-4.24,2.92-4.33,2.79-.26-.32,6.3-4.75,11.81-12.59,5.59-7.77,7.62-15.43,8.02-15.29Z"/>
  </g>
  <g>
    <g>
      <g>
        <path class="cls-4" d="m666.85,468.55c9.13,11.26,14.57,25.46,15.31,39.94-13.01-4.42-29.46-13.89-37.68-24.91-8.22-11.02-13-24.55-13.53-38.28,14.01,3.72,26.77,11.99,35.9,23.25Z"/>
        <path class="cls-3" d="m669.34,491.24s-.35-.76-1.1-2.07c-.75-1.31-1.89-3.17-3.36-5.43-2.94-4.53-7.29-10.6-12.63-16.88-5.35-6.28-10.64-11.55-14.64-15.17-2-1.81-3.65-3.24-4.82-4.19-1.17-.95-1.83-1.46-1.87-1.42-.03.04.56.63,1.67,1.65,1.11,1.02,2.7,2.5,4.65,4.36,3.89,3.72,9.1,9.03,14.42,15.27,5.31,6.25,9.72,12.25,12.77,16.68,1.53,2.22,2.74,4.02,3.57,5.28.83,1.26,1.31,1.94,1.36,1.91Z"/>
      </g>
      <g>
        <path class="cls-4" d="m608.3,470.28c5.09,11.6,6.39,24.83,3.67,37.2-9.94-6.74-21.62-18.52-25.99-29.7-4.38-11.18-5.28-23.7-2.55-35.39,10.94,6.38,19.79,16.29,24.88,27.9Z"/>
        <path class="cls-3" d="m605.15,489.98s-.12-.72-.45-2c-.33-1.28-.86-3.11-1.58-5.36-1.43-4.49-3.7-10.62-6.74-17.14-3.05-6.52-6.3-12.19-8.83-16.17-1.26-1.99-2.32-3.58-3.1-4.65-.77-1.07-1.21-1.65-1.25-1.63-.04.03.33.66,1.02,1.77.7,1.11,1.7,2.73,2.91,4.75,2.42,4.03,5.58,9.71,8.62,16.21,3.03,6.5,5.36,12.57,6.9,17.01.77,2.22,1.38,4.03,1.78,5.28.41,1.25.66,1.94.71,1.92Z"/>
      </g>
      <g>
        <path class="cls-4" d="m632.75,431.82c10.12-7.62,17.74-18.5,21.43-30.62-11.97,1-27.92,5.54-37.22,13.14-9.3,7.6-16.22,18.06-19.57,29.59,12.67-.19,25.24-4.5,35.36-12.12Z"/>
        <path class="cls-3" d="m639.67,413.11s-.46.57-1.37,1.52c-.91.95-2.28,2.29-4,3.89-3.45,3.21-8.43,7.44-14.28,11.64-5.86,4.19-11.47,7.54-15.62,9.76-2.08,1.12-3.78,1.98-4.98,2.53-1.19.56-1.86.85-1.88.81-.02-.04.61-.41,1.76-1.04,1.16-.63,2.82-1.55,4.86-2.72,4.08-2.33,9.62-5.73,15.46-9.9,5.83-4.18,10.83-8.33,14.35-11.44,1.76-1.56,3.18-2.83,4.14-3.73.97-.89,1.52-1.36,1.56-1.33Z"/>
      </g>
      <g>
        <path class="cls-4" d="m685.83,426.09c7.62-9.75,12.05-21.96,12.47-34.33-11.04,3.97-24.94,12.3-31.79,21.83-6.85,9.53-10.73,21.16-10.97,32.89,11.9-3.39,22.68-10.64,30.3-20.39Z"/>
        <path class="cls-3" d="m687.61,406.68s-.29.66-.91,1.78c-.62,1.13-1.57,2.74-2.79,4.69-2.44,3.91-6.07,9.16-10.53,14.6-4.47,5.44-8.91,10.02-12.27,13.17-1.68,1.58-3.07,2.82-4.05,3.65-.98.83-1.54,1.27-1.57,1.24-.03-.03.47-.54,1.4-1.43.93-.88,2.27-2.18,3.9-3.8,3.26-3.23,7.63-7.84,12.08-13.26,4.44-5.42,8.11-10.6,10.65-14.43,1.27-1.91,2.28-3.48,2.96-4.56.69-1.08,1.09-1.67,1.13-1.65Z"/>
      </g>
      <path class="cls-3" d="m479.99,413.16s.19.05.55.18c.4.16.93.36,1.59.61,1.44.58,3.47,1.4,6.06,2.44,1.32.54,2.78,1.14,4.37,1.79,1.62.6,3.38,1.26,5.26,1.96,3.78,1.38,8.05,3.07,12.88,4.6,2.41.8,4.92,1.64,7.55,2.52,2.63.85,5.41,1.62,8.26,2.48,5.69,1.78,11.88,3.28,18.36,4.97,13.04,3.1,27.5,5.97,42.83,7.99,15.35,1.92,30.07,2.8,43.47,3.01,6.7-.07,13.07.01,19.02-.39,2.97-.16,5.85-.24,8.61-.45,2.75-.25,5.4-.49,7.92-.71,5.06-.36,9.59-1.07,13.58-1.59,1.99-.27,3.85-.52,5.56-.75,1.69-.3,3.24-.57,4.65-.82,2.75-.47,4.9-.84,6.44-1.11.7-.11,1.25-.2,1.68-.26.38-.05.58-.07.58-.06,0,.02-.19.07-.56.15-.42.09-.97.21-1.66.36-1.53.31-3.67.73-6.41,1.28-1.4.27-2.95.57-4.64.9-1.71.25-3.57.53-5.56.82-3.99.56-8.53,1.32-13.59,1.73-2.53.25-5.18.51-7.93.78-2.76.22-5.65.33-8.63.5-5.96.43-12.35.38-19.06.47-13.43-.16-28.19-1.02-43.58-2.95-15.37-2.02-29.87-4.93-42.92-8.08-6.49-1.72-12.69-3.25-18.38-5.07-2.85-.88-5.63-1.66-8.26-2.53-2.62-.9-5.14-1.76-7.54-2.58-4.83-1.58-9.09-3.31-12.86-4.74-1.88-.73-3.63-1.41-5.24-2.03-1.58-.68-3.03-1.3-4.34-1.86-2.56-1.11-4.57-1.99-5.99-2.61-.64-.29-1.15-.52-1.55-.7-.35-.16-.52-.25-.51-.27Z"/>
    </g>
    <g>
      <path class="cls-4" d="m731.58,439.76c-11.73-10.08-17.08-27.01-13.28-42,.76-2.98,2.39-6.35,5.44-6.74,3.24-.42,5.72,2.79,7.14,5.73,5.96,12.37,6.46,27.25,1.34,39.99,2.92-10.93,9.17-20.96,17.71-28.39,3.25-2.83,7.9-5.38,11.65-3.25,3.61,2.06,3.94,7.15,3.04,11.2-3.11,14.07-16.45,25.21-30.85,25.75,12.65-2.73,26.71,3.44,33.26,14.59,2.52,4.29,3.52,10.69-.58,13.5-2.49,1.71-5.85,1.27-8.76.44-11.23-3.23-20.86-11.64-25.57-22.33,7.29,11.77,6.58,27.98-1.72,39.07-2.65,3.54-6.67,6.8-11.04,6.1-5.53-.89-8.13-7.37-8.66-12.94-1.31-13.86,4.08-28.19,14.21-37.74-6.53,5.55-15.91,7.54-24.14,5.14-5.41-1.58-10.91-6.61-9.25-12,1.59-5.16,8.29-6.42,13.68-6.09,9.74.59,19.35,3.38,27.89,8.11"/>
      <path class="cls-3" d="m725.18,409.86c-.42.2,3.13,7.02,4.76,16.2,1.72,9.17.81,16.8,1.28,16.84.35.11,1.96-7.65.19-17.11-1.69-9.46-5.95-16.15-6.23-15.93Z"/>
      <path class="cls-3" d="m748.04,419.15c-.44-.15-2.09,5.97-6.99,11.8-4.84,5.83-10.1,9.32-9.79,9.73.14.29,5.88-2.69,10.95-8.78,5.13-6.13,6.2-12.75,5.83-12.75Z"/>
      <path class="cls-3" d="m751.62,456.68c.33-.12-2.27-5.84-8.14-10.7-5.86-4.95-12.25-5.92-12.24-5.52-.13.43,5.73,1.97,11.29,6.68,5.6,4.62,8.7,9.81,9.1,9.55Z"/>
      <path class="cls-9" d="m732.26,446.96c2.04-.12,3.94-1.54,4.62-3.46.69-1.92.12-4.22-1.38-5.61-1.13,1.15-2.46,2.1-3.9,2.82.5,2.19.78,4.12.65,6.24"/>
      <path class="cls-3" d="m720.89,479.11c.15.1,1.64-1.68,3.5-4.94,1.86-3.25,3.98-8.04,5.33-13.62,1.34-5.59,1.64-10.81,1.46-14.55-.17-3.75-.69-6.01-.86-5.99-.49.02.65,9.26-2.05,20.19-2.58,10.96-7.8,18.67-7.38,18.91Z"/>
    </g>
  </g>
  <path class="cls-6" d="m752.06,785.05c0,.25-160.6.45-358.67.45s-358.7-.2-358.7-.45,160.57-.45,358.7-.45,358.67.2,358.67.45Z"/>
  <path class="cls-6" d="m296.17.04c-19.41-.72-38.82,9.41-47.64,24.87-8.82,15.46-6.6,35.44,5.46,49.05-9.56,4.08-13.18,16.38-7.11,24.13,6.07,7.75,20.25,8.93,27.82,2.31-4.55,8.64.46,19.77,9.63,24.68,9.17,4.91,21.2,4.19,30.71-.18,9.51-4.37,16.76-11.93,22.23-20.13l4.06-76.42C333.97,12.29,315.58.76,296.17.04Z"/>
  <g>
    <path class="cls-6" d="m289.21,114.16c-8.11-9.79-7.56-25.64,1.19-34.86-5.19-6.07-3.74-15.76,1.09-22.12,4.83-6.36,12.21-10.16,19.34-13.77,3.33-18.41,23.39-31.98,41.71-28.23,8.98-14.25,29.07-17.14,45.39-13,3.99,1.01,7.98,2.36,12.09,2.2,3.02-.12,5.93-1.05,8.91-1.55,16.36-2.79,33.08,8.21,40.03,23.28,1.11,2.41,2.04,4.96,3.74,7,2.23,2.67,5.52,4.18,8.35,6.21,6.12,4.38,10.16,11.55,10.74,19.06.49,6.37-1.3,13.22,1.59,18.92,1.45,2.86,3.97,5.12,5.12,8.11,3.35,8.66-6.06,17.97-3.94,27.01.43,1.85,1.33,3.55,1.91,5.35,1.18,3.69.97,7.81-.59,11.36-1.2,2.74-3.21,5.28-3.28,8.27-.05,2.27,1.03,4.39,1.56,6.6,1.3,5.4-9.69,26.77-14.28,29.89l-140.32,6.19c-10.7-1.79-19.69-11.11-21.09-21.87-.23-1.79-.33-3.74-1.49-5.12-.99-1.18-2.54-1.68-3.92-2.35-9.21-4.53-10.74-16.91-10.14-27.15.08-1.43.18-2.91-.23-4.28-.6-2-2.17-3.53-3.5-5.14Z"/>
    <path class="cls-10" d="m329.43,112.95c-1.29-24.83,13.29-53.92,37.54-66.93,15.29-8.2,27.42-8.68,35.56-9.92,18.25-2.78,33.35,5.78,33.35,5.78,7.8,1.54,37.07,26.51,39.53,54.62,2.74,31.24,4.84,69.48,1.71,92.92-6.31,47.12-42.14,53.97-42.14,53.97,0-.07,6.09,77.75,6.09,77.75l-97.41-34.37-14.23-173.81Z"/>
    <path class="cls-8" d="m410.3,184.73c.12-2.3,1.22-4.41,2.72-5.91,3-3.02,7.69-3.66,11.33-1.55,3.64,2.11,4.4,6.11,4.11,10.7h0c-1.72,2.81-2.94,5.56-6.2,6.11-.51.09-1.02.14-1.53.17-2.49.13-5.09-.51-7.13-2.19-2.04-1.68-3.45-4.49-3.3-7.32Z"/>
    <path class="cls-6" d="m455.65,133.68c.19,3.18-2.34,5.96-5.66,6.22-3.31.26-6.15-2.1-6.34-5.28-.19-3.18,2.34-5.96,5.65-6.22,3.31-.26,6.16,2.1,6.35,5.28Z"/>
    <path class="cls-6" d="m465.07,114.77c-.73.8-5.37-2.46-11.85-2.29-6.47.08-11.15,3.53-11.87,2.76-.35-.34.37-1.78,2.4-3.34,2-1.55,5.44-3.09,9.48-3.18,4.04-.08,7.47,1.33,9.45,2.8,2.03,1.48,2.74,2.88,2.38,3.24Z"/>
    <path class="cls-6" d="m428.42,166.86c-.04-.37,3.97-1.16,10.47-2.16,1.65-.21,3.21-.58,3.46-1.71.36-1.21-.37-2.97-1.22-4.88-1.65-3.97-3.38-8.12-5.2-12.48-7.23-17.77-12.51-32.39-11.79-32.68.72-.29,7.16,13.88,14.39,31.65,1.74,4.38,3.41,8.56,5,12.56.67,1.86,1.8,3.97,1.02,6.47-.42,1.25-1.61,2.17-2.66,2.49-1.05.35-1.98.39-2.8.46-6.56.51-10.63.64-10.66.27Z"/>
    <path class="cls-8" d="m434.98,243.39s-31.74,2.82-63.48-15.22c0,0,17.54,32.68,64.42,27.13l-.93-11.92Z"/>
    <path class="cls-6" d="m460.18,88.98c-1.05,1.61-6.04.67-11.82,1.3-5.8.44-10.55,2.27-11.86.87-.58-.68.01-2.24,1.98-3.88,1.94-1.63,5.33-3.18,9.31-3.55,3.98-.36,7.58.55,9.77,1.8,2.22,1.26,3.07,2.68,2.62,3.46Z"/>
    <path class="cls-6" d="m385.33,137.34c.08,3.18,2.85,5.73,6.17,5.71,3.32-.03,5.94-2.62,5.86-5.8-.09-3.18-2.85-5.74-6.16-5.71-3.32.03-5.95,2.63-5.87,5.81Z"/>
    <path class="cls-6" d="m376.5,119.48c.79.74,5.14-2.91,11.61-3.3,6.45-.48,11.41,2.56,12.06,1.72.32-.37-.53-1.74-2.68-3.12-2.13-1.37-5.69-2.61-9.72-2.35-4.03.27-7.32,1.97-9.18,3.6-1.89,1.65-2.48,3.11-2.09,3.44Z"/>
    <path class="cls-6" d="m375.6,94.1c1.36,1.39,6.26-.44,12.26-.89,5.98-.63,11.14.3,12.22-1.31.47-.78-.42-2.2-2.73-3.45-2.27-1.25-6-2.16-10.12-1.79-4.12.37-7.61,1.92-9.6,3.56-2.03,1.64-2.63,3.2-2.02,3.88Z"/>
    <path class="cls-10" d="m338.08,157.25c-.09-3.5-4.34-11.64-7.8-12.09-9.25-1.21-25.85-.06-25.43,23.35.57,32.01,32.59,24.83,32.63,23.91.03-.72.93-23.1.6-35.17Z"/>
    <path class="cls-8" d="m328.43,180.88c-.14-.1-.55.4-1.48.85-.91.44-2.49.76-4.17.16-3.4-1.18-6.35-6.5-6.6-12.27-.13-2.91.43-5.7,1.42-8.01.94-2.36,2.42-4.02,4.12-4.35,1.69-.42,2.91.58,3.32,1.47.45.89.25,1.53.42,1.58.09.08.68-.55.4-1.86-.14-.63-.53-1.38-1.3-1.99-.78-.61-1.91-.91-3.1-.76-2.47.22-4.65,2.53-5.74,5.07-1.22,2.56-1.92,5.69-1.77,8.96.32,6.45,3.73,12.42,8.38,13.68,2.26.55,4.13-.17,5.08-.94.98-.81,1.13-1.53,1.02-1.58Z"/>
    <path class="cls-6" d="m482.52,96.76c-6.57-3.88-10.83-9.27-10.62-16.9-4.26,1.38-8.75-4.03-11.34-7.67-2.59-3.65-5.71-5.44-5.63-9.92.02-.88.05-1.82-.39-2.59-.68-1.21-2.21-1.57-3.55-1.95-6.88-1.96-12.56-7.66-14.49-14.54-6.78,3.17-14.37,4.62-21.84,4.17-3.19,4.89-8.99,7.96-14.83,7.85-5.84-.11-11.52-3.39-14.53-8.39-1.84,4.05-5.92,6.73-10.21,7.93-4.28,1.2-8.81,1.13-13.25,1.06,2.13,8.55-3.2,18.29-11.56,21.09-1.13.38-2.44.76-2.93,1.84-.52,1.13.11,2.41.58,3.55,2.98,7.25-1.65,16.6-9.21,18.64,5.34,3.93,5.03,13.33-.55,16.9-1.15.73-2.64,1.62-2.43,2.96.08.51.42.94.74,1.35,2.46,3.11,4.92,6.5,5.31,10.45.39,3.95-2.17,8.45-6.12,8.72,2.13,1.8,4.13,4.13,4.24,6.91.12,2.78-2.63,5.68-5.25,4.75-1.11-.4-17.13-3.13-17.85-4.07-9.36-12.06,1.68-25.93,2.2-41.2.51-15.26,5.46-30.16,12.75-43.58,3.06-5.63,6.55-11.08,10.98-15.71,5.04-5.28,11.17-9.39,17.27-13.4,7.96-5.23,16.15-10.46,25.37-12.88,17.17-4.51,35.27,1.31,51.56,8.35,6.2,2.68,12.38,5.58,17.64,9.81,6.29,5.06,11,11.82,15.13,18.76,5.97,10.03,10.98,20.89,12.41,32.47"/>
    <path class="cls-2" d="m488.51,85.41s-.35-1.31-1.81-3.39c-.71-1.05-1.7-2.26-2.64-3.83-.93-1.57-1.69-3.57-1.95-5.93-.32-2.35-.19-5.01-.07-7.92.13-2.9.26-6.13-.5-9.5-.73-3.35-2.18-6.81-4.47-9.97-1.14-1.58-2.5-3.08-4.05-4.43-1.55-1.37-3.35-2.5-5.15-3.63-1.79-1.14-3.6-2.37-4.97-4.07-1.37-1.7-2.25-3.81-3.19-5.94-1.89-4.31-4.58-8.5-8.1-12.17-3.5-3.66-7.72-6.95-12.65-9.21-2.43-1.22-5.08-2.01-7.78-2.69-2.74-.52-5.56-.9-8.44-.73-1.43.03-2.87.27-4.3.46-1.43.26-2.83.6-4.24.89-2.81.64-5.67.79-8.55.24-2.88-.49-5.72-1.45-8.69-2.1-2.96-.73-6.02-1.12-9.11-1.36-3.1-.23-6.24-.13-9.38.16-3.14.35-6.27,1.01-9.34,1.98-6.07,2.03-11.93,5.63-15.83,11.06-.38.54-.77,1.08-1.14,1.61l.5-.22c-9.74-1.97-19.77.91-27.41,6.3-7.69,5.38-13.27,13.5-14.86,22.32l.24-.33c-3.82,1.93-7.6,3.88-11.06,6.22-3.46,2.33-6.61,5.1-8.94,8.44-2.31,3.35-3.65,7.25-3.87,11.16-.23,3.89.87,7.87,3.35,10.74v-.54c-4.43,4.7-6.57,10.85-6.91,16.63-.34,5.8,1.02,11.41,3.75,15.81.63,1.14,1.46,2.12,2.21,3.11.81.95,1.63,1.83,2.28,2.8.66.96,1.1,2,1.22,3.11.14,1.1.05,2.22,0,3.32-.22,4.43-.01,8.52.67,12.14.68,3.61,1.82,6.76,3.4,9.16,1.54,2.42,3.44,4.05,5.12,5.06,1.68,1.05,3.15,1.43,3.98,2,.86.52,1.16.96,1.19.93,0,0-.27-.47-1.12-1.04-.82-.62-2.3-1.04-3.92-2.1-1.63-1.02-3.46-2.65-4.94-5.04-1.52-2.37-2.6-5.48-3.24-9.05-.64-3.58-.81-7.64-.56-12.02.06-1.1.16-2.24.02-3.43-.12-1.19-.61-2.37-1.3-3.37-.68-1.02-1.52-1.92-2.3-2.86-.73-.98-1.53-1.93-2.13-3.04-2.64-4.3-3.94-9.78-3.58-15.43.35-5.63,2.47-11.6,6.78-16.12l.25-.26-.24-.27c-2.32-2.7-3.35-6.45-3.12-10.17.21-3.73,1.52-7.5,3.75-10.71,2.25-3.21,5.33-5.91,8.73-8.19,3.41-2.3,7.15-4.22,10.97-6.14l.2-.1.04-.23c1.55-8.54,6.99-16.45,14.5-21.7,7.46-5.26,17.24-8.05,26.66-6.13l.31.06.2-.28c.37-.51.74-1.03,1.11-1.55,3.76-5.24,9.43-8.73,15.35-10.72,2.99-.95,6.06-1.6,9.14-1.94,3.09-.29,6.17-.4,9.22-.17,3.04.23,6.05.61,8.96,1.33,2.92.64,5.78,1.6,8.75,2.1,1.48.25,2.99.4,4.49.34,1.51-.05,2.97-.31,4.4-.6,1.43-.3,2.83-.64,4.22-.89,1.4-.18,2.79-.42,4.18-.45,2.79-.17,5.54.2,8.21.69,2.63.66,5.23,1.42,7.61,2.61,4.83,2.2,8.98,5.41,12.43,8.99,3.47,3.59,6.12,7.68,8,11.92.95,2.12,1.85,4.29,3.32,6.09,1.47,1.8,3.36,3.05,5.16,4.19,1.83,1.13,3.58,2.22,5.1,3.54,1.53,1.31,2.85,2.76,3.98,4.3,2.26,3.07,3.71,6.45,4.44,9.73.77,3.28.67,6.46.57,9.36-.1,2.91-.2,5.59.16,7.99.3,2.4,1.11,4.45,2.08,6.03.99,1.57,2,2.76,2.73,3.79.75,1.01,1.23,1.84,1.53,2.41.3.57.42.88.44.87Z"/>
    <path class="cls-2" d="m367.37,7.75c.05.07.83-.51,2.37-1.31,1.53-.79,3.87-1.79,6.92-2.22,3.03-.45,6.81-.29,10.56,1.25,3.73,1.53,7.39,4.41,9.81,8.41.69,1.15,1.3,2.37,1.69,3.58.38,1.2.46,2.48-.14,3.38l-.75,1.11,1.28-.4c3.52-1.1,7.19-.52,9.93.91,2.78,1.43,4.58,3.71,5.59,5.77,1.02,2.09,1.31,3.97,1.39,5.24.08,1.28,0,1.99.07,1.99.03,0,.07-.17.13-.51.06-.34.12-.84.12-1.5.01-1.31-.18-3.27-1.17-5.48-.97-2.19-2.82-4.67-5.75-6.24-2.88-1.57-6.78-2.25-10.59-1.09l.53.71c.85-1.28.68-2.88.28-4.18-.43-1.34-1.05-2.58-1.78-3.8-2.53-4.19-6.39-7.18-10.3-8.73-3.95-1.57-7.89-1.64-11-1.1-3.14.54-5.5,1.66-7,2.57-.75.46-1.31.85-1.67,1.15-.36.29-.54.46-.52.49Z"/>
    <path class="cls-2" d="m316.45,45.91s.35.46,1.15,1.11c.8.65,2.01,1.56,3.69,2.42,1.67.84,3.85,1.66,6.44,1.74,2.54.08,5.53-.58,7.88-2.62l-.71-.09c.32.42.64.85.97,1.29.35.42.75.82,1.13,1.23,2.42,2.37,5.33,3.96,8.13,4.76,2.8.83,5.47.98,7.65.75,2.19-.23,3.89-.82,5.01-1.29,1.1-.53,1.67-.89,1.64-.94-.07-.2-2.45,1.24-6.71,1.54-2.11.14-4.67-.08-7.33-.92-2.67-.81-5.42-2.35-7.71-4.59-.36-.39-.73-.77-1.07-1.16-.31-.41-.62-.82-.92-1.21l-.33-.43-.39.34c-2.1,1.85-4.85,2.51-7.23,2.49-2.41-.02-4.52-.72-6.18-1.47-3.31-1.56-5.01-3.1-5.11-2.96Z"/>
    <path class="cls-2" d="m300.35,76.05s0,.21.09.59c.12.37.32.92.75,1.53.82,1.23,2.61,2.71,5.25,3.29,2.65.61,5.9,0,9.11-1.24,1.61-.63,3.29-1.26,5-2.13,1.66-.87,3.46-2.11,4.31-4.15.06-.18.13-.36.19-.52l-.75.25c3.15,2.33,6.38,4.33,9.65,5.44,3.25,1.15,6.48,1.26,9.01.68,2.55-.55,4.41-1.69,5.47-2.67.54-.48.91-.91,1.13-1.22.22-.31.32-.48.3-.5-.07-.06-.55.57-1.66,1.43-1.09.85-2.91,1.85-5.36,2.29-2.44.47-5.48.3-8.59-.85-3.12-1.11-6.25-3.08-9.37-5.38l-.52-.39-.23.64c-.05.14-.1.28-.16.43-.69,1.69-2.27,2.83-3.86,3.67-1.61.84-3.3,1.5-4.87,2.14-3.14,1.26-6.19,1.89-8.66,1.4-2.48-.46-4.22-1.75-5.08-2.84-.9-1.1-1.05-1.93-1.15-1.89Z"/>
    <path class="cls-6" d="m409.11,178.74c.77-.52,3.94,4.77,10.72,5.83,6.78,1.07,12.07-2.89,12.55-2.17.27.29-.64,1.78-2.99,3.27-2.29,1.48-6.15,2.76-10.3,2.11-4.14-.66-7.17-3.02-8.64-5.09-1.52-2.09-1.72-3.76-1.33-3.94Z"/>
  </g>
  <path class="cls-10" d="m245.76,303.87s-38.87,12.18-47.27,61.97c-6.5,38.54-12.63,187.56-12.63,187.56,0,0-17.37,38.94-19,63.91-1.63,24.97-8.68,167.1-8.68,167.1h43.56s40.03-152.99,43.28-167.1c3.26-14.11,19.26-114.42,19.26-114.42l8.39-138.18-26.92-60.84Z"/>
  <path class="cls-10" d="m526.72,290.39c-6.68-2.28,51.74,8.35,59.94,60.93,6.03,38.61,14.94,186.36,14.94,186.36,0,0,17.37,38.94,19,63.91,1.63,24.97,17.32,182.82,17.32,182.82h-47.93s-44.29-168.71-47.55-182.82c-3.26-14.11-25.15-154.43-25.15-154.43l3.81-95.36,5.62-61.4Z"/>
  <path class="cls-10" d="m262.47,658.05s-26.47,59.47-31.82,126.36h145.38l-113.56-126.36Z"/>
  <path class="cls-10" d="m532.86,652.68l-103.66,131.73h144.09c-5.25-70.13-40.42-131.73-40.42-131.73Z"/>
  <path class="cls-10" d="m506.72,559.19l16.77-147.75,7-120.05-91.93-24.18h-95.47l-101.96,38.41,12.51,109c-2.32,3.12,25.11,162.03,25.11,162.03l-19.94,88.74,96.07,107.98,72.57,2.98,108.79-123.03-29.53-94.13Z"/>
  <path class="cls-2" d="m260.83,656.77s50.74,50.28,141.04,46.87c85.16-3.21,129.92-64.55,129.92-64.55,5.47,7.96,9.36,26.47,12.16,36.06,0,0-83.25,64.58-114.75,109.26h-58.8s-61.2-69.3-121.74-88.55c1.73-12.74,5.94-25.79,12.17-39.09Z"/>
  <path class="cls-8" d="m244.91,370.59s.15.44.36,1.31c.22.95.5,2.21.86,3.79.73,3.29,1.73,8.07,2.91,13.98,2.36,11.82,5.35,28.21,8.15,46.39,2.79,18.19,4.86,34.72,6.16,46.71.65,5.99,1.14,10.85,1.42,14.2.13,1.61.24,2.9.32,3.87.06.89.08,1.35.05,1.35s-.11-.46-.23-1.34c-.12-.96-.28-2.25-.48-3.85-.41-3.44-.99-8.26-1.71-14.17-1.46-11.96-3.63-28.47-6.42-46.64-2.8-18.17-5.69-34.56-7.89-46.41-1.1-5.85-1.99-10.62-2.63-14.03-.29-1.59-.52-2.86-.69-3.82-.15-.88-.21-1.34-.18-1.34Z"/>
  <path class="cls-8" d="m533.44,348.19s.02.41-.02,1.18c-.06.86-.13,1.98-.23,3.37-.21,2.92-.58,7.15-1.09,12.36-1.01,10.43-2.67,24.82-4.98,40.64-2.32,15.83-4.84,30.09-6.86,40.37-1,5.14-1.86,9.3-2.49,12.16-.31,1.36-.55,2.45-.74,3.29-.18.75-.29,1.14-.32,1.14s.02-.41.14-1.17c.15-.85.34-1.95.58-3.32.54-2.99,1.29-7.13,2.21-12.21,1.85-10.31,4.28-24.57,6.59-40.39,2.3-15.81,4.06-30.17,5.23-40.58.57-5.13,1.04-9.31,1.37-12.33.16-1.38.29-2.49.39-3.35.1-.77.17-1.17.2-1.16Z"/>
  <path class="cls-8" d="m324.37,648.87c-.25-.02.65-12.82,2.01-28.59,1.36-15.77,2.66-28.53,2.9-28.51s-.65,12.82-2.01,28.59c-1.36,15.77-2.66,28.53-2.9,28.51Z"/>
  <path class="cls-8" d="m467.5,626.6c-.13.01-.39-2.11-.83-5.53-.44-3.42-1.09-8.14-1.99-13.32-.9-5.18-1.87-9.85-2.6-13.22-.73-3.37-1.2-5.46-1.07-5.49.11-.03.79,2,1.68,5.34.89,3.34,1.96,8.01,2.86,13.22.9,5.21,1.45,9.96,1.73,13.41.28,3.45.32,5.59.2,5.6Z"/>
  <path class="cls-8" d="m404.82,622.44c.25.01.3,2.68.12,5.94-.18,3.27-.53,5.91-.78,5.9s-.3-2.68-.12-5.95c.18-3.27.53-5.91.78-5.9Z"/>
  <g>
    <g>
      <g>
        <g>
          <path class="cls-1" d="m394.49,350.68c-1.57-6.97-1.02-13.46-.29-34.02.77-21.7-1.13-68.52-1.13-68.52-5.95,4.48-12.11,4.46-18.46.49l2.48,37.44s-2.42,55.68-2.56,64.32c-.18,10.64-4.38,13.07-4.38,13.07l2.66,22.29,7.6-9.36s4.22-8.22,8.01-7.08c2.18.66,4.82,4.61,7.05,7.14,1.65,1.88,3.79,4.31,3.79,4.31l6.33-13.45s-9.51-9.65-11.08-16.63Z"/>
          <path class="cls-6" d="m393.82,264.04c.1.17-3.64,2.2-8.8,2.84-2.57.31-4.96.08-6.59-.4-1.64-.47-2.53-1.06-2.48-1.15.06-.13,1.02.24,2.63.53,1.6.31,3.86.42,6.35.12,4.97-.6,8.8-2.23,8.9-1.95Z"/>
          <path class="cls-6" d="m393.7,256.71c.13.19-3.8,2.21-9.12,2.35-2.64.08-5.02-.31-6.66-.85-1.65-.53-2.55-1.12-2.51-1.21.09-.23,4,1.42,9.14,1.17,5.12-.13,9.05-1.71,9.14-1.46Z"/>
          <path class="cls-6" d="m394.04,270.52c.06.09-.77.75-2.33,1.42-1.54.68-3.82,1.32-6.4,1.5-2.58.18-4.93-.14-6.55-.63-1.63-.48-2.52-1.06-2.47-1.15.06-.13,1.02.23,2.62.54,1.6.32,3.85.53,6.34.36,5.02-.29,8.68-2.25,8.79-2.03Z"/>
          <path class="cls-6" d="m394.17,276.92c.06.09-.77.74-2.3,1.42-1.53.69-3.79,1.33-6.35,1.54-2.56.2-4.9-.11-6.51-.6-1.62-.48-2.5-1.05-2.46-1.15.06-.13,1.01.23,2.6.53,1.59.32,3.83.51,6.29.33,4.98-.32,8.61-2.29,8.72-2.06Z"/>
          <path class="cls-6" d="m394.28,283.97c.06.09-.74.73-2.24,1.39-1.49.66-3.7,1.27-6.2,1.4-2.5.12-4.76-.26-6.31-.77-1.56-.5-2.41-1.06-2.37-1.15.09-.24,3.79,1.34,8.63,1.03,4.84-.18,8.37-2.13,8.48-1.89Z"/>
          <path class="cls-6" d="m394.37,291.38c.06.09-.75.74-2.29,1.37-1.53.64-3.8,1.17-6.33,1.21-5.14.12-8.92-1.94-8.77-2.13.09-.25,3.84,1.36,8.75,1.24,2.43-.04,4.61-.44,6.14-.91,1.53-.46,2.43-.9,2.5-.78Z"/>
          <path class="cls-6" d="m394.4,299.33c.05.09-.81.7-2.4,1.25-1.58.56-3.9.99-6.47.93-2.57-.07-4.86-.6-6.42-1.22-1.57-.61-2.41-1.23-2.36-1.32.1-.23,3.81,1.59,8.8,1.65,4.99.21,8.75-1.51,8.85-1.28Z"/>
          <path class="cls-6" d="m394.4,306.13c.15.19-3.67,2.35-8.92,2.44-2.59.06-4.94-.36-6.54-.96-1.61-.58-2.45-1.23-2.4-1.32.07-.13,1,.31,2.59.71,1.58.42,3.83.73,6.33.67,5.04-.08,8.84-1.78,8.94-1.54Z"/>
          <path class="cls-6" d="m394.3,313.33c.05.09-.84.69-2.45,1.25-1.61.57-3.95,1.03-6.56,1.03-2.61,0-4.95-.48-6.55-1.1-1.61-.6-2.46-1.25-2.41-1.34.07-.13,1.01.31,2.6.74,1.59.44,3.84.8,6.36.8,5.08.07,8.92-1.61,9.01-1.39Z"/>
          <path class="cls-6" d="m394.04,321.13c.05.09-.81.7-2.38,1.31-1.57.61-3.91,1.13-6.51.95-2.6-.18-4.84-.97-6.35-1.7-1.51-.74-2.34-1.37-2.29-1.46.13-.3,3.74,1.9,8.7,2.27,4.99.36,8.74-1.67,8.84-1.37Z"/>
          <path class="cls-6" d="m393.76,328.43c.05.09-.83.69-2.43,1.27-1.59.59-3.95,1.07-6.57.92-5.3-.34-8.9-2.92-8.76-3.04.12-.29,3.8,1.84,8.82,2.15,5.03.34,8.85-1.58,8.94-1.3Z"/>
          <path class="cls-6" d="m392.87,335.64c.05.1-.75.65-2.22,1.19-1.46.55-3.61,1.01-6.01.95-2.4-.07-4.52-.65-5.95-1.27-1.44-.62-2.21-1.21-2.15-1.31.11-.26,3.51,1.6,8.13,1.68,4.61.16,8.11-1.51,8.21-1.25Z"/>
          <path class="cls-6" d="m392.3,343.37c.05.1-.75.65-2.22,1.19-1.46.55-3.61,1.01-6.01.95-2.4-.07-4.52-.65-5.95-1.27-1.44-.62-2.21-1.21-2.15-1.31.11-.26,3.51,1.6,8.13,1.68,4.61.16,8.11-1.51,8.21-1.25Z"/>
          <path class="cls-6" d="m394.49,350.68c.15.2-4.01,2.31-9.58,2.21-2.76-.02-5.23-.53-6.93-1.15-1.7-.62-2.62-1.27-2.57-1.36.06-.13,1.07.31,2.76.75,1.69.45,4.08.84,6.74.86,5.37.1,9.49-1.56,9.58-1.32Z"/>
          <path class="cls-6" d="m396.82,356.9c.07.08-.92,1.11-2.85,2.38-1.91,1.24-4.87,2.77-8.5,2.96-3.57.16-6.75-.79-8.81-1.8-2.09-1.02-3.15-2-3.09-2.08.08-.12,1.26.67,3.34,1.5,2.07.83,5.12,1.64,8.52,1.49,3.37-.17,6.26-1.53,8.21-2.61,1.96-1.1,3.09-1.95,3.18-1.84Z"/>
        </g>
        <path class="cls-7" d="m383.7,256.89c-.03.25-1.28.31-2.8.15-1.52-.16-2.73-.5-2.7-.74.03-.25,1.28-.31,2.8-.15,1.52.16,2.73.5,2.7.74Z"/>
        <path class="cls-7" d="m383.78,265.59c-.02.25-1.11.36-2.43.26-1.32-.1-2.38-.38-2.36-.63.02-.25,1.11-.36,2.43-.26,1.32.1,2.38.38,2.36.63Z"/>
        <path class="cls-7" d="m382.47,272.15c-.02.25-.59.4-1.28.34-.69-.06-1.23-.3-1.21-.55.02-.25.59-.4,1.28-.34.69.06,1.23.3,1.21.55Z"/>
        <path class="cls-7" d="m383.12,277.84c.08.23-.51.63-1.34.62-.83,0-1.41-.42-1.32-.65.08-.24.67-.25,1.33-.25.67.01,1.25.04,1.33.28Z"/>
        <path class="cls-7" d="m383.21,284.61c-.07.24-.71.27-1.45.06-.73-.2-1.28-.56-1.21-.8.07-.24.71-.27,1.45-.06.73.2,1.28.56,1.21.8Z"/>
        <path class="cls-7" d="m383.84,291.87c.1.22-.75.77-1.95.66-1.19-.1-1.94-.8-1.8-1,.13-.22.92.03,1.88.11.96.1,1.77,0,1.87.23Z"/>
        <path class="cls-7" d="m383.93,298.95c.17.18-.62.98-1.91.94-1.29-.04-2.02-.89-1.85-1.06.16-.2.91.15,1.87.16.96.05,1.73-.25,1.88-.05Z"/>
        <path class="cls-7" d="m383.33,307.29c-.02.25-.8.37-1.73.28-.93-.09-1.67-.37-1.64-.61.02-.25.8-.37,1.73-.28.93.09,1.67.37,1.64.61Z"/>
        <path class="cls-7" d="m382.71,313.76c-.06.24-.78.28-1.61.09-.83-.19-1.47-.54-1.41-.78.06-.24.78-.28,1.61-.09.83.19,1.47.54,1.41.78Z"/>
        <path class="cls-7" d="m382.64,321.17c.04.24-.86.53-1.92.19-1.06-.34-1.62-1.1-1.45-1.27.17-.19.86.15,1.72.42.86.28,1.62.41,1.65.66Z"/>
        <path class="cls-7" d="m383.28,327.59c.06.23-.79.64-1.91.57-1.12-.07-1.91-.58-1.82-.8.09-.24.9-.15,1.88-.09.97.07,1.79.08,1.85.32Z"/>
        <path class="cls-7" d="m384.61,335.94c0,.24-1.09.46-2.39.13-1.3-.32-2.17-1.03-2.04-1.24.12-.22,1.09.08,2.26.37,1.17.3,2.17.49,2.17.74Z"/>
        <path class="cls-7" d="m384.16,343.95c-.05.24-.76.31-1.59.16-.83-.15-1.47-.48-1.43-.72.05-.24.76-.31,1.59-.16.83.15,1.47.48,1.43.72Z"/>
        <path class="cls-7" d="m384.26,351.2c.1.22-.64.72-1.65.53-1.01-.18-1.54-.9-1.37-1.07.17-.19.78.07,1.52.19.75.14,1.41.11,1.5.35Z"/>
        <path class="cls-7" d="m384.16,360.4c0,.24-.85.47-1.92.38-1.07-.08-1.89-.48-1.82-.72.06-.24.89-.25,1.9-.17,1.01.08,1.84.26,1.84.51Z"/>
      </g>
      <g class="cls-12">
        <path class="cls-5" d="m402.53,363.86s-6.86,7.28-7.7,11.9l4.27,4.83,5.89-13.88-2.46-2.85Z"/>
      </g>
      <g class="cls-12">
        <path class="cls-5" d="m372.43,360.71s7.47,8.85,7.97,15.68l-2.89,3.51-6.95-16.5,1.87-2.69Z"/>
      </g>
    </g>
    <path class="cls-1" d="m374.61,248.63s7.85-6.81,18.46-.49c0,0-4.9,4.19-9.37,4.24-5.17.06-9.09-3.75-9.09-3.75Z"/>
    <g class="cls-12">
      <path class="cls-5" d="m374.61,248.63s7.85-6.81,18.46-.49c0,0-4.9,4.19-9.37,4.24-5.17.06-9.09-3.75-9.09-3.75Z"/>
    </g>
  </g>
  <g>
    <path class="cls-1" d="m412.15,412.1c.65.83-3.44,35.85-3.44,35.85,0,0-4.54,2.9-5.35,19.02-.82,16.12.77,24.37,8.79,35.14,8.02,10.77,32.53,38.37,54.76,40.03,22.23,1.66,29.16,1.98,30.49-8.69,1.33-10.67-9.37-52.54-9.37-52.54l-20.84-55.94-55.04-12.87Z"/>
    <g class="cls-12">
      <path class="cls-5" d="m412.15,412.1c.65.83-3.44,35.85-3.44,35.85,0,0-4.54,2.9-5.35,19.02-.82,16.12.77,24.37,8.79,35.14,8.02,10.77,32.53,38.37,54.76,40.03,22.23,1.66,29.16,1.98,30.49-8.69,1.33-10.67-9.37-52.54-9.37-52.54l-20.84-55.94-55.04-12.87Z"/>
    </g>
    <path class="cls-1" d="m405.86,339.79c-1.66-6.12-2.37-12.47-1.83-18.79.77-9.02,3.98-19.62,14.62-20.93,18.92-2.32,43,21.12,54.1,35.34,11.1,14.23,28.4,50.52,31.34,88.55,2.93,38.03-6.69,109.5-6.69,109.5,0,0-2.73-4.07-7.87-11.84-5.14-7.77-36.43-17.35-39.51-32.19-3.08-14.84,2.08-28.89,2.08-28.89,0,0-3.95-2.11-5.79-15.45l-12.73-18.88s-4.87.23-10.78-3.11c-5.91-3.34-18.35-20.84-22.1-28.12-4.49-8.72-1.51-23.32,4-28.68,2.11-2.05,6.61-6.54,6.61-6.54l-5.43-19.97Z"/>
    <path class="cls-6" d="m445.92,488.86c-.03.05-.63-.26-1.69-.87-1.05-.61-2.56-1.52-4.42-2.66-1.91-1.19-4.1-2.55-6.5-4.04-2.44-1.51-5.14-3.15-8.14-4.48-3-1.33-6.04-2.19-8.86-2.32-2.82-.14-5.38.3-7.36,1.07-4.05,1.53-5.57,4.02-5.71,3.85-.02-.02.06-.17.24-.43.17-.27.47-.65.9-1.1.85-.88,2.27-2.06,4.33-2.9,2.04-.88,4.7-1.41,7.63-1.31,2.95.09,6.11.97,9.18,2.33,3.08,1.36,5.79,3.05,8.22,4.61,2.36,1.55,4.51,2.96,6.4,4.2,1.81,1.21,3.27,2.2,4.27,2.9,1,.7,1.53,1.11,1.5,1.17Z"/>
    <g class="cls-12">
      <path class="cls-5" d="m415.95,357.07c-7.3-11.12-11.07-24.69-9.65-37.92.25-2.36.71-4.79,2.13-6.69s4.06-3.07,6.23-2.13c2.11.91,2.89,3.39,3.78,5.52,3.55,8.45,4.95,16.9,5.05,25.66.04,3.28-.32,6.24-1.61,9.26-1.3,3.02-2.88,5.09-5.93,6.3"/>
    </g>
    <g class="cls-11">
      <path class="cls-7" d="m485.46,476.79l1.31.39,2.41-17.54,6.64,18.5,1.17-.83-6.66-20.71-17.56-32.37s-8.97-25.58-8.22-24.97c.75.61,11.38,11,11.38,11l10.5,26.53,1.05-.53s-7.76-23.23-7.01-22.62c.75.61,8.95,5.89,8.95,5.89l.83-.96-27.97-26.77-4.08-8.96,8.67,2.86,15.6,11.9.65-1.21-13.59-13.35-5.94-2.7,11.36-6.5,5.15-9.22-1.85-.17-5.51,7.03-13.36,6.32-17.22-7.49,5-4.66,22.85-1.7-.96-2.02-18.29-.26,13.62-10.6,9.57-6.41-1.37-.91-13.47,6.04-9.85,7.71,6.78-15.26,2.38-11.36-1.98-.18-3.09,11.56-5.03,10.85,2.43-20.77-1.99.31-3.23,21.55-4.35,6.33.71-16.62-6.57-7.6-1.44.58,5.44,8.67-3.77,20.65s-7.62,6.84-9.73,6.38c-2.11-.46-12.18-5.15-12.18-5.15l-3.6-6.4c-5.09,3.86-8.36,8.76-10.01,14.58l12.4,5.11c1.26.98,19.48,19.6,19.89,23.94.41,4.34-4.74,10.6-7.38,13.05l.82,2.77,7.38-7.13.26,11.87,2.94.27,1.1-12.01,11.55,15.05s-2.72,5.79-6.42,10.72l1.09,1.32,7.34-7.55,3.85,18.16,1.07-.41-1.7-17.72,11.16,16.36-2.7,29.63,1.38.13,4.75-22.98,1.4,35.12,1.31.12,1.87-20.55,7.76,33.01,1.01-.62s-3.48-19.63-3.67-20.34c.22.86,11.15,16.35,11.15,16.35l.59-.85-12.07-18.7-6.65-23.55,1.24-22.5,13.87,24.95-1.12,18.2Zm-29.62-50.07l-13.88-20.68,14.98,6.4.84-1.37-20.48-11.65-14.4-19.31,8.18-1.1,8.02-3.9,13.34,7.9,6.16,16.23,8.58,26.89.46,18.46-11.81-17.88Z"/>
    </g>
    <path class="cls-6" d="m489.17,521.27s-.11-.08-.29-.26c-.21-.21-.47-.47-.8-.8-.76-.64-1.91-1.57-3.54-2.6-3.21-2.12-8.19-4.77-14.33-8.42-3.06-1.84-6.42-3.93-9.86-6.49-1.71-1.29-3.47-2.68-5.15-4.27-.42-.4-.85-.8-1.27-1.2-.4-.44-.77-.92-1.16-1.38-.85-.89-1.39-2.01-2.01-3.09-.35-.53-.51-1.14-.75-1.73-.21-.6-.48-1.18-.65-1.8-.27-1.25-.69-2.5-.8-3.82-.45-2.6-.39-5.32-.3-8.08.39-5.51,1.5-11.21,3.45-16.93l.14.47c-1.12-.88-2.05-1.97-2.8-3.18-.73-1.23-1.29-2.56-1.75-3.93-.87-2.76-1.33-5.66-1.43-8.66l.07.24c-4.09-6.06-8.36-12.38-12.75-18.88l.33.19c-2.56-.35-4.98-1.07-7.49-1.8-1.23-.37-2.52-.73-3.75-1.37-1.2-.65-2.3-1.45-3.32-2.34-2.08-1.8-3.84-3.87-5.46-5.97-1.61-2.11-3.07-4.26-4.38-6.45l.06.08c-5.9-6.21-9.83-14.06-10.69-22.09-.52-4,.03-8.04,1.24-11.68,1.21-3.64,2.89-7.09,5.29-9.9,2.37-2.82,5.27-5.01,8.29-6.68.76-.42,1.53-.8,2.29-1.16.73-.35,1.43-.77,2.05-1.27,1.26-1,2.25-2.26,3.02-3.62,1.56-2.73,2.07-5.8,2.33-8.71.23-2.93.19-5.76-.04-8.44-.94-10.71-3.67-19.24-7.12-24.08-.9-1.16-1.92-2.05-2.98-2.42-1.06-.4-2.06-.17-2.75.14-1.4.67-1.87,1.43-1.9,1.38-.01,0,.1-.18.38-.48.28-.29.73-.7,1.45-1.06.7-.34,1.76-.61,2.9-.22,1.14.37,2.22,1.27,3.16,2.45,3.61,4.89,6.43,13.43,7.46,24.23.25,2.7.31,5.57.1,8.54-.24,2.95-.75,6.14-2.37,9.01-.8,1.42-1.85,2.77-3.18,3.84-.66.54-1.41,1-2.19,1.37-.75.36-1.5.73-2.24,1.15-2.94,1.65-5.76,3.79-8.05,6.53-2.31,2.71-3.93,6.08-5.11,9.65-1.17,3.58-1.69,7.43-1.17,11.33.84,7.81,4.7,15.48,10.48,21.57l.03.04.03.05c1.27,2.13,2.73,4.28,4.32,6.35,1.59,2.07,3.33,4.1,5.34,5.84.98.86,2.03,1.63,3.15,2.23,1.1.57,2.35.94,3.59,1.31,2.46.73,4.95,1.44,7.3,1.77l.22.03.11.16c4.38,6.5,8.64,12.83,12.72,18.89l.07.1v.14c.09,2.88.54,5.75,1.37,8.41.44,1.32.97,2.59,1.66,3.76.71,1.14,1.57,2.16,2.58,2.96l.24.19-.1.28c-1.93,5.6-3.05,11.27-3.46,16.69-.1,2.71-.17,5.38.25,7.93.1,1.29.5,2.5.76,3.72.16.6.42,1.17.62,1.75.23.57.38,1.17.72,1.67.6,1.05,1.11,2.13,1.92,2.98.37.45.72.91,1.11,1.34.42.4.84.8,1.25,1.2,1.65,1.58,3.38,2.97,5.07,4.27,3.4,2.57,6.72,4.68,9.76,6.55,6.09,3.7,11.04,6.42,14.22,8.62,1.61,1.07,2.75,2.04,3.49,2.72.68.74.99,1.16.99,1.16Z"/>
  </g>
  <g>
    <g>
      <path class="cls-1" d="m283.61,539.88s15.87,11.53,43.14.25c27.27-11.27,48.79-43.68,53.55-55.13,4.77-11.45-4.82-47.84-4.82-47.84l-60.92,27.36-30.9,65.05-.06,10.31Z"/>
      <g class="cls-12">
        <path class="cls-5" d="m283.61,539.88s15.87,11.53,43.14.25c27.27-11.27,48.79-43.68,53.55-55.13,4.77-11.45-4.82-47.84-4.82-47.84l-60.92,27.36-30.9,65.05-.06,10.31Z"/>
      </g>
    </g>
    <path class="cls-1" d="m364.19,349.78s8.93-48.19-17.71-47.21c-26.63.97-62.51,46.67-66.49,106.49-3.5,52.65-1.66,109.34.53,124.33.35,2.43,1.43,4.69,3.07,6.5h0s-1.36-7.98,19.22-16.95c20.58-8.96,56.01-17.66,64.52-30.4,8.51-12.74,7.26-31.27,7.26-31.27,0,0-4.12-18.88-.9-21.4,3.22-2.52,7.04-13.63,7.32-18.41.28-4.77,1.89-22.94-1.52-36.13-3.41-13.19-15.31-35.55-15.31-35.55Z"/>
    <g class="cls-11">
      <path class="cls-7" d="m324.63,411.67c-.57.53-.9.85-.9.85,0,0,.33-.31.9-.85Z"/>
    </g>
    <path class="cls-6" d="m380.64,424.14s-.04.4-.2,1.16c-.14.76-.41,1.88-.84,3.31-.41,1.44-1.05,3.17-1.96,5.14-.94,1.95-2.12,4.16-4.05,6.24l.04-.05c-.36.71-.33,1.78-.32,2.77.03,1.02.12,2.07.21,3.16.21,2.17.48,4.48.79,6.9.6,4.83,1.56,10.19,1.35,16.01-.15,5.79-1.43,12.06-4.52,17.82-1.51,2.87-3.35,5.69-5.76,8.13-2.36,2.48-5.26,4.39-8.18,6.29-10.16,6.1-20.78,9.89-30.3,13.44-9.56,3.5-18.27,6.39-25.34,9.37-7.01,3.08-12.25,6.63-14.99,9.93-1.4,1.62-2.19,3.1-2.57,4.15-.19.53-.29.94-.35,1.23-.05.28-.07.43-.08.43-.02,0-.03-.15,0-.44.03-.29.1-.72.27-1.27.34-1.09,1.1-2.63,2.48-4.31,2.71-3.43,7.97-7.1,15-10.28,7.09-3.08,15.77-6.02,25.31-9.56,9.49-3.59,20.09-7.41,30.12-13.43,2.87-1.87,5.73-3.76,8.02-6.15,2.32-2.33,4.13-5.08,5.62-7.9,3.04-5.63,4.31-11.74,4.49-17.44.35-11.48-3.07-21.21-1.7-29.11h0s.04-.05.04-.05c1.85-1.95,3.09-4.14,4.04-6.04.94-1.92,1.6-3.63,2.06-5.04.47-1.41.78-2.51.97-3.26.2-.75.32-1.13.34-1.12Z"/>
    <g class="cls-11">
      <path class="cls-7" d="m377.31,378.61l-2.24-5.5-3.96-9.65s-5.36,6.41-12.28,4.6c-6.92-1.82-9.98-5.64-13.16-18.67-3.18-13.03,2.39-14.79,3.14-15.61l-.45-1.62c-5.14,3.11-5.93,9.2-5.93,9.2,0,0-.35-2.09-2.94-7.25-2.59-5.16-18.12-8.17-18.12-8.17l-.67,1.22c6.65,1.56,15.07,6.24,16.55,9.65,1.05,2.43,4.55,14.58,4.55,14.58l-15.33-13.84-1.26,1.37s4.9,3.74,7.97,7.83c3.07,4.08,10.79,12.45,10.79,12.45l5.15,9.79s-3.99-.89-8.83-3.32c-4.84-2.43-6.17-2.64-10.33-7.73-4.16-5.09-15.9-16.22-15.9-16.22l-.98.92s11.94,15.18,14.12,18.57c2.53,3.93,11.19,9.27,11.19,9.27l-27.04,1.93.15,2.05,25,.25s-7.89,1.56-12.7,3.23c-13.19,4.58-26.68,12.97-26.68,12.97l.64,1.61,15.18-7.28c-3.02,3.29-9.18,13.37-9.18,13.37l1.41.8c9.36-16.44,23.59-19.84,23.59-19.84l-7.44,10.85,1.49.45,12.19-13.14,8.93-.63c-.33.27-1.07,1.34-2.68,5.11-2.28,5.34-19.72,22.14-19.72,22.14l1.67.34s17.48-17.62,18.44-17.9l-1.94,12.15,1.81.11c.42-8.71,9.5-23.03,9.5-23.03l18.5-2.24c-4.33,9.83-13.14,26.54-24.11,29.39,0,0-21.49,5.47-23.96,6.14-1.99.54-13.86.83-18.47.92-1.19.02-2.34-.37-3.26-1.12l-3.49-2.8s2.05,4.41,3.75,5.17c1.71.76,3.98,1.16,3.98,1.16l-7.85,10.69.95.78,9.81-10.77,11.93-1.12s-16.44,18.05-17.75,19.79-5.5,7.51-5.5,7.51l-12.52.59.06,1.39,10.45.3-9.3,13.46.91.63s13.48-15.68,15.57-18.85c0,0,.29,12.25-1.38,18.18-1.67,5.93-10.16,15.25-10.16,15.25l.46.83,10.1-10.91-.28,9.32,2.45-1.23s1.82-12.99,2.66-18.89c.84-5.89.63-15.88.63-15.88l15.95-18.82,4.74-3.01s-.2,10.6-1.99,14.03c-1.79,3.43-13.3,7.65-13.3,7.65l.15,1.45,6.63-1.41-8.01,14.05.68.82,15.41-19.82,1.69,11.24.9-.29,1.16-28.57,18.35-4.32s-11.51,16.27-15.34,18.22l.61,1.15s8.13-6.75,9.83-8.9c1.7-2.16-2.26,8-6.66,14.43-4.41,6.43-9.21,13.3-9.21,13.3,0,0-6.31,1.26-8.15.38l-.49,1.27,6.52.39s-2.48,3.3-3.02,3.6c-.54.3-13.37,4.09-13.37,4.09l.04.89,13.16-2.76-14.59,13.56.43.82,15.41-11.39s-2.01,7.43-3.16,9.28c-1.16,1.85-16.51,13.92-16.51,13.92,0,0-11.59,3.73-15.72,7.24l-.22,1.26s14.24-6.2,16.31-6.44c2.07-.24-2.79,8.44-2.79,8.44l-6.1,14.54,1.8-.08,5.24-11.45,1.62,14.09.89.32-.64-16.72s3.56-6.81,4.27-9.34c.71-2.52,1.1-3.1,1.1-3.1l11.18-9.52-2.67,10.92-3.6,8.75.62.39,4.5-9.35,3.11-10.53.46,6.9,1.35-.76-.73-9.66,3.49-11.1,1.13-4.76,10.02-14.17s-2.55,10.64-3.21,14.13c-.67,3.49-6.02,16.89-6.02,16.89l-4.05,13.34-5.59,16.59.24,8.02.98-.19.27-8.45,6.04-15.92,1.57,21.03.77-.51-.51-22.68,6.2-18.28,1.92-3.27.31,18.53-2.6,9.53c.86.65,5.04-10.62,5.04-10.62l-1.3-21.81,1.57-7.96s1.61-9.9,1.86-10.47c.25-.57,4.8-9.91,4.8-9.91l.07,10.38-2.37,14.37-.66,12.49-2.19,6.47.14,8.99.82-.18.42-8.74,1.98-5.08,1.48,13.91-.37,16.18.71-.14,1.89-15.87,2.86,4.99,1.22-.61-3.59-8.69-1.96-12.37,1.42-11,3.99,11.3,10.09,11.43.55-.7-5.68-8.2,7.1.91-.19-1.1-7.72-2.27-2.38-3.63-3.76-15.18s1.96-11.31,1.94-11.87c-.03-.55-.53-17.28-.53-17.28l7.08-5.45,3.85,14.22-1.98,25.7-1.15,7.94,1.26.36,2.72-16.43,3.3,18,1.1-.25-2.63-20.78,1.12-14.59-3.96-16.56,3.88-5.72s8.59-12.59,11.52-19.25Z"/>
    </g>
    <path class="cls-6" d="m381.03,421.46s-.01-.42.05-1.2c.08-.87.19-2,.32-3.4.18-2.96.53-7.24.25-12.53-.24-5.28-1.05-11.55-2.84-18.31-1.81-6.75-4.56-13.96-7.91-21.31-1.69-3.67-3.42-7.22-5.15-10.62-1.73-3.39-3.48-6.65-4.95-9.85-1.48-3.2-2.76-6.29-3.8-9.25-1.01-3-1.57-5.88-1.89-8.54-.62-5.33.01-9.69.8-12.56.41-1.44.82-2.52,1.14-3.24.33-.71.51-1.08.54-1.07.09.04-.63,1.53-1.34,4.39-.68,2.86-1.2,7.16-.51,12.4.36,2.6.95,5.45,1.97,8.36,1.07,2.92,2.36,5.98,3.85,9.15,1.48,3.17,3.24,6.4,4.99,9.8,1.74,3.41,3.49,6.96,5.18,10.65,3.36,7.38,6.11,14.65,7.89,21.47,1.77,6.83,2.52,13.17,2.68,18.49.2,5.33-.25,9.63-.53,12.59-.2,1.4-.37,2.52-.49,3.39-.12.77-.2,1.18-.23,1.17Z"/>
  </g>
</svg>