<?xml version="1.0" encoding="UTF-8"?>
<svg id="Capa_1" data-name="Capa 1" xmlns="http://www.w3.org/2000/svg" viewBox="0 0 479.49 790.88">
  <defs>
    <style>
      .cls-1 {
        fill: #e1e1e1;
      }

      .cls-1, .cls-2, .cls-3, .cls-4, .cls-5, .cls-6, .cls-7, .cls-8, .cls-9, .cls-10 {
        stroke-width: 0px;
      }

      .cls-3 {
        fill: #f5f5f5;
      }

      .cls-4 {
        fill: none;
      }

      .cls-5 {
        fill: #1a2e35;
      }

      .cls-6 {
        fill: #fff;
      }

      .cls-11 {
        opacity: .3;
      }

      .cls-7 {
        fill: #ff9c6a;
      }

      .cls-8 {
        fill: #fafafa;
      }

      .cls-9 {
        fill: #024873;
      }

      .cls-10 {
        fill: #ffc19d;
      }
    </style>
  </defs>
  <polygon class="cls-4" points="237.78 332.22 237.77 332.24 237.83 332.24 237.78 332.22"/>
  <polygon class="cls-4" points="237.62 332.23 237.75 332.24 237.66 332.19 237.62 332.23"/>
  <polygon class="cls-4" points="237.46 332.13 237.37 332.24 237.6 332.24 237.46 332.13"/>
  <polygon class="cls-4" points="237.27 332.1 237.3 332.08 237.25 332.07 237.27 332.1"/>
  <polygon class="cls-4" points="237.23 331.8 237.22 331.82 237.27 331.85 237.23 331.8"/>
  <polygon class="cls-4" points="237.73 332.1 237.7 332.13 237.74 332.16 237.73 332.1"/>
  <polygon class="cls-4" points="237.17 332.16 237.15 332.04 236.52 331.85 237.09 332.22 237.17 332.16"/>
  <polygon class="cls-4" points="237.19 332.05 237.18 332.16 237.26 332.11 237.19 332.05"/>
  <polygon class="cls-4" points="237.69 332.05 237.61 332.07 237.66 332.11 237.69 332.05"/>
  <polygon class="cls-4" points="237.63 332.18 237.59 332.17 237.61 332.22 237.63 332.18"/>
  <polygon class="cls-3" points="237.72 332.62 237.69 332.61 237.72 332.64 237.72 332.62"/>
  <polygon class="cls-3" points="237.28 332.28 237.26 332.33 237.19 332.28 237.21 332.42 237.23 332.4 237.22 332.42 237.34 332.38 237.28 332.34 237.32 332.29 237.36 332.3 237.34 332.27 237.37 332.24 237.18 332.24 237.28 332.28"/>
  <polygon class="cls-3" points="237.14 332.44 237.16 332.27 237.12 332.24 236.4 332.66 237.14 332.44"/>
  <polygon class="cls-3" points="237.76 332.33 237.71 332.36 237.75 332.41 237.76 332.33"/>
  <polygon class="cls-3" points="237.29 332.93 237.48 334.31 237.67 332.98 237.46 332.54 237.29 332.93"/>
  <polygon class="cls-3" points="237.69 332.38 237.66 332.39 237.7 332.4 237.69 332.38"/>
  <g>
    <g>
      <path class="cls-10" d="m147.39,324l-47.86-70.83,17.36-169.06,1.42.09c7.27-.1,25.61-16.91,28.36-22.6,2.75-5.69-3.13-48.33-4.29-48-11.66,3.39-10.27,16.7-10.27,16.7l-1.37-11.29c-3.46-16.51-15.47-9.08-15.47-9.08-5.39-10.43-16.23-2.2-16.23-2.2-2.99-8.84-11.28-1.06-11.28-1.06,0,0-.04-2.83-8.97-6.34-4.92-1.93-9.96,4.82-13.5,11.29-3.25,5.93-4.66,12.7-4.3,19.46l-4.66,49.15-39.23,199.53,105.55,149.05,68.64-69.46-43.92-35.36Z"/>
      <path class="cls-7" d="m105.12,65.59c-.14-.1,1.43-2.66,4.95-5.94,3.49-3.27,9.04-7.21,16.04-9.56,2.49-.86,4.98-1.46,7.3-1.84l-.66.8c-.03-5.4-.72-10.02-.86-13.4-.14-3.36.04-5.34.21-5.35.2,0,.37,1.97.78,5.26.4,3.27,1.31,7.94,1.45,13.44l.02.68-.68.13c-2.23.41-4.62,1.02-7.03,1.84-6.76,2.27-12.21,5.91-15.81,8.88-3.63,2.97-5.51,5.24-5.72,5.06Z"/>
      <path class="cls-7" d="m76.15,18.04c.1-.03.58.85,1.18,2.58.49,1.69,1.55,4.44.3,7.82-.62,1.73-2.43,2.84-2.79,4.32-.45,1.54.18,3.49,1.48,4.87,2.55,2.83,8.34,2.86,11.14-.63,1.39-1.74,1.89-4.05,2.08-6.27.18-2.25.17-4.5.15-6.61-.06-4.23-.41-8.04-.82-11.22-.36-3.18-.99-5.67-1.91-7.15-.9-1.49-1.83-1.98-1.74-2.1.01-.07,1.1.23,2.27,1.74,1.18,1.5,2.03,4.14,2.54,7.34.56,3.2,1.03,7.05,1.18,11.35.06,2.16.11,4.39-.06,6.78-.19,2.35-.69,5-2.4,7.17-3.58,4.34-10.33,4.21-13.55.63-1.57-1.75-2.34-4.15-1.67-6.3.33-1.07,1.07-1.9,1.67-2.51.61-.63,1.05-1.21,1.37-1.88,1.2-2.75.47-5.48.15-7.17-.4-1.74-.68-2.71-.56-2.75Z"/>
      <path class="cls-7" d="m87.45,38.04c.14-.04.31.71,1.11,1.7.77.98,2.36,2.13,4.57,2.39,2.19.32,4.85-.78,6.78-3.03,1.99-2.23,3.04-5.48,3.34-9.01.78-7.18-.86-13.56-2.51-17.98-1.65-4.43-3.32-6.88-3.1-7.03.15-.13,2.2,2.14,4.18,6.59,1.97,4.36,3.89,11.13,3.08,18.58-.3,3.71-1.52,7.39-3.85,9.87-2.24,2.51-5.51,3.72-8.08,3.17-2.56-.47-4.24-1.96-4.93-3.18-.73-1.23-.66-2.06-.59-2.06Z"/>
      <path class="cls-7" d="m101.62,38.97c.12-.06.46.53,1.31,1.31.83.78,2.32,1.68,4.34,1.94,2.01.28,4.49-.18,6.54-1.92,2.05-1.68,3.59-4.41,4.2-7.48,1.11-6.25-.98-12.13-1.69-16.35-.87-4.24-1.29-6.89-1.07-6.94.22-.05,1.05,2.5,2.21,6.67.56,2.09,1.29,4.55,1.87,7.4.56,2.83.97,6.12.3,9.54-.68,3.4-2.43,6.45-4.87,8.34-2.41,1.96-5.47,2.38-7.68,1.88-2.27-.45-3.85-1.65-4.61-2.65-.79-1.01-.92-1.72-.84-1.75Z"/>
      <path class="cls-7" d="m118.09,37.52c.12-.01.28.72.65,1.99.38,1.25.95,3.13,2.37,4.9,1.32,1.74,4.04,3.21,6.77,2.51,2.67-.73,4.39-4.14,4.14-7.56-.06-7.26-1-13.82-1.86-18.51-.86-4.7-1.66-7.56-1.42-7.64.19-.07,1.39,2.69,2.56,7.39,1.17,4.69,2.3,11.32,2.37,18.75.26,3.76-1.67,8.08-5.41,9.04-3.61.8-6.68-1.21-8.09-3.28-1.48-2.11-1.87-4.14-2.07-5.48-.18-1.36-.12-2.12-.02-2.13Z"/>
    </g>
    <path class="cls-7" d="m75.09,279.75c-.1-.06.85-1.93,2.69-4.79,1.84-2.85,4.6-6.66,8.03-10.55,3.44-3.89,6.88-7.1,9.49-9.27,2.61-2.18,4.35-3.36,4.42-3.26.09.12-1.49,1.49-3.96,3.78-2.47,2.29-5.8,5.55-9.21,9.4-3.4,3.85-6.23,7.56-8.2,10.29-1.97,2.74-3.14,4.47-3.27,4.4Z"/>
  </g>
  <polygon class="cls-9" points="244.24 396.28 145.43 308.65 64.4 374.58 179.27 516.18 244.24 396.28"/>
  <path class="cls-8" d="m81.06,391.61s.2-.32.65-.86c.53-.62,1.19-1.39,2-2.33,1.73-2.04,4.41-4.83,7.78-8.21,6.78-6.73,16.67-15.51,28.22-24.39,11.55-8.9,22.52-16.27,30.72-21.18,4.09-2.47,7.51-4.29,9.89-5.49,1.21-.58,2.16-1,2.8-1.28.64-.28.99-.41,1-.38.01.03-.3.22-.92.56-.71.38-1.61.86-2.71,1.44-2.32,1.31-5.67,3.21-9.71,5.75-8.08,5.04-18.96,12.48-30.48,21.36-11.52,8.86-21.45,17.53-28.34,24.11-3.42,3.31-6.17,6.02-7.98,7.97-.87.89-1.57,1.62-2.14,2.21-.5.5-.77.75-.8.73Z"/>
  <path class="cls-8" d="m172.36,333.3s-.3.25-.92.64c-.71.44-1.62.99-2.72,1.67-2.38,1.42-5.8,3.51-9.99,6.16-8.38,5.28-19.73,12.94-31.65,22.24-11.91,9.31-22.1,18.46-29.26,25.31-3.58,3.42-6.44,6.23-8.4,8.2-.93.91-1.68,1.65-2.28,2.24-.53.5-.82.76-.84.73-.02-.02.22-.32.7-.87.56-.62,1.27-1.4,2.15-2.37,1.87-2.05,4.66-4.94,8.19-8.43,7.05-6.99,17.19-16.25,29.14-25.59,11.95-9.32,23.4-16.91,31.89-22.05,4.24-2.57,7.72-4.58,10.17-5.9,1.15-.61,2.08-1.11,2.82-1.51.65-.33,1-.5,1.01-.47Z"/>
  <path class="cls-7" d="m102.11,64.76c-.21.24-4.54-4.24-11.28-7.6-6.71-3.43-12.88-4.26-12.81-4.57.01-.12,1.57-.07,4.03.44,2.45.5,5.8,1.53,9.23,3.26,3.43,1.74,6.24,3.81,8.1,5.49,1.86,1.68,2.83,2.9,2.74,2.98Z"/>
  <path class="cls-7" d="m120.24,84.83c.04.27-6.73,1.55-15.13,2.86-8.4,1.31-15.24,2.16-15.28,1.89-.04-.27,6.73-1.55,15.13-2.86,8.4-1.31,15.24-2.16,15.28-1.89Z"/>
  <g>
    <g>
      <g>
        <g>
          <path class="cls-10" d="m187.92,230.18c3.08-39.18,35.73-69.42,75.03-69.5h3.91c42.11,2.37,63.62,39.46,60.09,81.49l-7.55,194.18h-96.52l.85-63.2s-40.49-6.21-41.08-46.68c-.28-19.55,2.42-59.84,5.28-96.28Z"/>
          <path class="cls-7" d="m223.38,373.08s25.85,1.5,53-15.63c0,0-12.41,29.15-52.8,25.59l-.19-9.96Z"/>
        </g>
        <g>
          <g>
            <path class="cls-5" d="m196.66,261.15c.72.75,5.09-2.5,11.31-2.49,6.21-.09,10.78,3.1,11.46,2.34.33-.34-.4-1.7-2.39-3.14-1.96-1.44-5.3-2.83-9.17-2.81-3.87.03-7.13,1.46-9,2.93-1.91,1.47-2.55,2.84-2.2,3.17Z"/>
            <path class="cls-5" d="m258.32,258.05c.72.75,5.1-2.5,11.31-2.49,6.21-.09,10.78,3.1,11.46,2.34.33-.34-.4-1.7-2.39-3.14-1.96-1.44-5.3-2.83-9.17-2.81-3.87.03-7.13,1.46-9,2.93-1.9,1.47-2.55,2.84-2.2,3.17Z"/>
            <path class="cls-5" d="m235.32,297.17c.03-.35-3.84-1.01-10.1-1.8-1.59-.16-3.09-.47-3.36-1.56-.38-1.15.28-2.86,1.05-4.71,1.49-3.85,3.04-7.88,4.67-12.1,6.49-17.23,11.18-31.4,10.48-31.65-.7-.25-6.52,13.5-13.01,30.74-1.56,4.25-3.05,8.3-4.47,12.17-.6,1.81-1.63,3.86-.81,6.23.43,1.19,1.6,2.05,2.62,2.32,1.02.31,1.91.32,2.7.37,6.31.33,10.22.35,10.24,0Z"/>
            <path class="cls-5" d="m253.63,301.43c-1.01-.06-1.01,6.69-6.78,11.5-5.76,4.82-12.96,4.08-13.01,5.02-.09.42,1.61,1.31,4.64,1.38,2.98.1,7.33-.87,10.86-3.81,3.52-2.95,5.03-6.87,5.25-9.64.25-2.82-.5-4.49-.97-4.45Z"/>
          </g>
          <path class="cls-1" d="m258.26,232.72c.57,1.71,6.8,1.06,14.07,2.12,7.3.91,13.12,3.19,14.13,1.7.45-.72-.54-2.33-2.88-4.03-2.32-1.69-6.04-3.34-10.41-3.93-4.37-.59-8.39.01-11.08,1.03-2.7,1.01-4.09,2.31-3.84,3.12Z"/>
          <path class="cls-1" d="m195.18,235.71c1.36,1.39,6.58-.14,12.89-.3,6.3-.33,11.66.79,12.87-.7.53-.72-.33-2.13-2.68-3.43-2.32-1.3-6.18-2.34-10.51-2.17-4.33.17-8.07,1.5-10.24,2.98-2.21,1.48-2.92,2.95-2.32,3.63Z"/>
        </g>
      </g>
      <g>
        <path class="cls-10" d="m320.88,272.14c.69-.3,27.79-8.28,26.96,19.39-.83,27.67-28.44,21.13-28.46,20.34-.02-.79,1.5-39.73,1.5-39.73Z"/>
        <path class="cls-7" d="m325.72,301.63c.12-.08.47.35,1.28.75.78.39,2.14.68,3.6.18,2.96-.99,5.56-5.55,5.84-10.54.15-2.52-.31-4.93-1.14-6.94-.78-2.05-2.05-3.5-3.52-3.81-1.45-.38-2.52.47-2.88,1.24-.39.76-.24,1.32-.38,1.36-.08.07-.58-.48-.32-1.62.13-.55.47-1.19,1.14-1.7.68-.52,1.66-.77,2.69-.62,2.13.21,3.99,2.23,4.91,4.44,1.03,2.22,1.6,4.94,1.44,7.76-.34,5.57-3.35,10.7-7.39,11.74-1.96.45-3.57-.19-4.39-.86-.84-.71-.96-1.33-.87-1.38Z"/>
      </g>
    </g>
    <path class="cls-7" d="m226.21,221.19c.03-.14,1.88.16,4.84.7,2.97.53,7.05,1.31,11.6,1.84,4.55.53,8.69.59,11.68.38,2.99-.19,4.83-.51,4.86-.35.03.11-1.78.67-4.8,1.04-3.02.38-7.25.43-11.85-.1-4.6-.54-8.69-1.43-11.63-2.13-2.94-.71-4.73-1.25-4.7-1.38Z"/>
    <path class="cls-7" d="m226.9,212.87c.14-.27,5.45,2.58,12.56,4.45,7.11,1.92,13.13,2.08,13.11,2.39,0,.12-1.51.24-3.95.1-2.44-.14-5.8-.58-9.42-1.54-3.61-.96-6.75-2.25-8.93-3.34-2.19-1.09-3.44-1.95-3.38-2.05Z"/>
    <path class="cls-7" d="m253.49,299.06c-.02-.12.5-.35,1.4-.38.89-.03,2.16.22,3.35.93,1.19.71,2.01,1.7,2.41,2.5.41.8.45,1.37.33,1.41-.26.11-1.11-1.83-3.25-3.07-2.1-1.29-4.22-1.11-4.24-1.39Z"/>
    <path class="cls-7" d="m259.51,292.99c-.02-.1,1.56-.51,4.15-.21,2.56.28,6.15,1.48,9.1,4.23,2.95,2.75,4.4,6.24,4.87,8.77.49,2.56.19,4.17.09,4.16-.17,0-.12-1.59-.76-4-.62-2.39-2.09-5.63-4.86-8.21-2.77-2.57-6.11-3.82-8.54-4.26-2.45-.46-4.04-.31-4.05-.47Z"/>
    <path class="cls-1" d="m184.82,181.33c1.97-2.26,4.21-4.33,5.73-6.91,1.74-2.96,2.41-6.42,3.91-9.51,4.25-8.77,15.68-13.27,24.76-9.74,3.55-6.9,9.98-12.25,17.4-14.5,7.42-2.24,15.74-1.34,22.52,2.44,2.38,1.33,4.75,3.04,7.47,3.03,2.29-.01,4.36-1.26,6.47-2.16,6.54-2.79,14.41-2.25,20.5,1.43,6.09,3.67,10.25,10.37,10.84,17.46,5.89-1.19,12.35,1.01,16.29,5.54,3.53,4.06,4.9,9.85,3.72,15.09,8.32-3.11,18.63.29,23.38,7.83,4.84,7.68,3.31,18.74-3.42,24.83,4.51,2.92,5.8,9.41,3.76,14.39-2.05,4.97-6.75,8.47-11.8,10.31-1.44.52-2.91.92-4.41,1.24-1.49,4.69-2.94,9.3-3.94,13.7-1.72,7.58-5.03,30.49-5.03,30.49h0c-6.36-.02-8.72-5.08-7.75-11.37l1.19-24.66s-21.62-15.37-11.38-43.49c.83-1.13,2.14-4.32,2.24-7.74-1.76-9.77-10.93-8.19-16.38-7.52-5.45.68-10.46,3.29-15.23,6.03s-9.51,5.68-14.81,7.14c-8.56,2.35-17.78.57-25.99-2.8-4.76-1.95-9.65-4.49-14.76-3.87-10.82,1.32-16.5,15.81-27.37,16.71-7.31.61-13.88-6-14.97-13.26-1.09-7.26,2.24-14.59,7.07-20.13Z"/>
    <path class="cls-6" d="m186.31,179.66s-.12.43-.15,1.25c-.02.81.19,2.07,1.1,3.35.88,1.26,2.5,2.57,4.74,2.77,2.21.24,4.81-.57,7.08-2.27,2.29-1.71,4.17-4.3,6.1-7.15,1.95-2.8,4.09-6.08,7.63-8.15,3.53-2.03,8.06-2.47,12.35-1.42,4.32,1.05,8.33,3.52,11.91,6.54l-.78.28c1.11-5.75,5.14-11.18,10.9-13.8,5.39-2.46,11.66-2.04,16.58.46,2.5,1.23,4.56,3.1,6.3,5.03,1.77,1.92,3.35,3.92,5.14,5.58,1.76,1.68,3.8,2.95,6.02,3.39,2.22.44,4.46,0,6.55-.59,2.1-.59,4.11-1.33,6.15-1.79,2.03-.47,4.07-.56,5.97-.35,3.81.42,7.06,1.96,9.39,3.88,2.36,1.92,3.85,4.13,4.77,6.03.92,1.91,1.32,3.53,1.5,4.62.09.55.14.97.15,1.25.02.28.02.43,0,.43-.14.04-.1-2.4-1.99-6.13-.95-1.84-2.45-3.96-4.77-5.77-2.29-1.81-5.45-3.25-9.12-3.62-1.83-.18-3.77-.07-5.73.4-1.96.46-3.95,1.21-6.09,1.83-2.12.61-4.5,1.12-6.94.66-2.43-.46-4.65-1.85-6.47-3.58-3.7-3.39-6.45-8.1-11.26-10.41-4.68-2.37-10.66-2.76-15.74-.43-5.45,2.47-9.3,7.66-10.36,13.09l-.16.81-.62-.53c-3.5-2.98-7.38-5.37-11.51-6.39-4.09-1.03-8.4-.62-11.72,1.26-3.34,1.91-5.47,5.06-7.44,7.84-1.96,2.83-3.92,5.48-6.34,7.23-2.4,1.74-5.15,2.55-7.5,2.25-2.39-.26-4.09-1.72-4.96-3.06-.91-1.38-1.07-2.71-1-3.54.09-.85.32-1.24.32-1.24Z"/>
    <path class="cls-6" d="m316.86,234.54c.02-.09,1.03.22,2.89.42,1.84.15,4.62.16,7.73-.99,3.09-1.1,6.45-3.63,8.21-7.64.89-1.96,1.38-4.25,1.19-6.58-.17-2.32-1.11-4.66-2.66-6.59-1.96-2.46-4.8-4.04-7.6-4.38l-1.02-.12.76-.7c2.84-2.63,3.75-6.6,3.15-9.75-.57-3.23-2.71-5.54-4.75-6.78-2.07-1.28-4.06-1.61-5.38-1.68-1.34-.06-2.07.09-2.08.01,0-.03.17-.08.52-.16.35-.09.88-.16,1.57-.18,1.37-.03,3.46.22,5.69,1.49,2.18,1.23,4.56,3.65,5.25,7.14.7,3.39-.21,7.68-3.31,10.61l-.27-.82c3.08.34,6.15,2.06,8.26,4.71,1.68,2.07,2.69,4.61,2.86,7.13.19,2.52-.35,4.95-1.32,7.03-1.91,4.23-5.55,6.86-8.8,7.92-3.28,1.12-6.14.99-8.01.72-.94-.16-1.66-.34-2.13-.5-.47-.16-.72-.26-.71-.29Z"/>
  </g>
  <path class="cls-9" d="m117,788.44c-.01-.83,0,5.9,0,0-.01-47.52,18.25-154.72,18.25-154.72,2.05-15.08,43.74-206.65,43.74-206.65l45.22-20.11h0c6.61,14.57,23.71,21.11,38.36,14.67l59.2-26.01,84.82,46.85,17.56,104.67s-56.52,130.47-54.63,139.92c1.89,9.44-12.44,64.19-12.44,64.19l.49,37.52-240.59-.34Z"/>
  <g class="cls-11">
    <path class="cls-2" d="m187.48,724.39c11.62,16.79,18.94,28.66,35.76,34.25,32.26,10.71,42.65,4.81,58.33-3.46,12.96-6.84,21.67-22,30.31-33.84,22.53-30.84,33.09-48.88,53.15-79.44l8.3,5.82c-13.73,40.06-2.69,18.91-23.89,55.56-12.24,21.16-26,42.01-45.02,57.37-19.02,15.36-44.18,24.71-68.16,19.93-21.79-4.34-39.79-19.44-55.1-35.54-21.29-22.38-44.24-69.08-45.9-99.92.16,2.18,37.19,57.56,52.22,79.27Z"/>
  </g>
  <path class="cls-5" d="m155.57,536.02s.01-.32.13-.91c.15-.69.33-1.53.55-2.54.5-2.2,1.18-5.4,1.95-9.36,1.56-7.92,3.43-18.92,5.19-31.12,1.79-12.2,3.22-23.27,4.33-31.28.56-3.88,1.02-7.08,1.36-9.48.17-1.02.31-1.87.43-2.57.11-.59.18-.89.22-.89.03,0,.03.32-.02.91-.07.71-.15,1.56-.25,2.59-.27,2.4-.62,5.61-1.05,9.51-.93,8.03-2.25,19.12-4.04,31.33-1.76,12.21-3.75,23.22-5.48,31.12-.86,3.95-1.64,7.13-2.26,9.31-.29.99-.53,1.82-.73,2.5-.18.57-.28.86-.32.85Z"/>
  <path class="cls-5" d="m117,785.32s-.02-.49.04-1.41c.08-1.01.18-2.35.3-4.02.31-3.59.75-8.61,1.29-14.76,1.19-12.55,2.83-29.71,4.63-48.66,1.92-18.95,3.65-36.1,4.92-48.64.67-6.14,1.21-11.14,1.6-14.73.2-1.66.36-2.99.49-4,.12-.91.2-1.39.24-1.39.03,0,.02.49-.04,1.41-.08,1.01-.18,2.35-.3,4.02-.31,3.59-.75,8.61-1.29,14.76-1.19,12.55-2.83,29.71-4.63,48.67-1.92,18.94-3.65,36.09-4.92,48.63-.67,6.14-1.21,11.14-1.6,14.73-.2,1.66-.36,2.99-.49,4-.12.91-.2,1.39-.24,1.39Z"/>
  <path class="cls-8" d="m297.96,527.54s-.49.06-1.41.06c-1.02,0-2.36-.02-4.04-.03-3.51-.05-8.59-.18-14.86-.42-12.55-.48-29.88-1.34-48.97-3.07-19.09-1.73-36.33-4.07-48.57-7.01-6.12-1.45-10.98-3.07-14.18-4.56-3.19-1.54-4.63-2.9-4.63-2.9.08-.1,1.58,1.14,4.79,2.55,3.22,1.37,8.07,2.87,14.18,4.23,12.23,2.75,29.44,4.98,48.5,6.7,19.06,1.73,36.38,2.69,48.91,3.35,6.19.3,11.23.55,14.85.73,1.68.09,3.02.16,4.04.21.92.06,1.41.1,1.41.14Z"/>
  <path class="cls-8" d="m287.59,547.66s-.46.07-1.33.1c-.97.03-2.25.06-3.83.11-3.33.07-8.14.13-14.09.09-11.9-.05-28.36-.45-46.46-2.14-9.05-.88-17.63-2.05-25.4-3.35-7.75-1.43-14.71-2.84-20.45-4.44-2.89-.71-5.47-1.51-7.73-2.21-2.27-.67-4.2-1.31-5.76-1.9-1.49-.55-2.68-.99-3.6-1.33-.82-.31-1.24-.49-1.23-.53.01-.03.46.09,1.3.34.93.29,2.14.67,3.65,1.15,1.57.54,3.52,1.12,5.8,1.74,2.27.65,4.85,1.4,7.74,2.06,5.75,1.51,12.7,2.85,20.43,4.22,7.75,1.25,16.32,2.38,25.34,3.26,18.05,1.69,34.48,2.2,46.37,2.42,5.86.09,10.65.17,14.08.22,1.58.03,2.86.06,3.83.08.88.03,1.34.06,1.34.09Z"/>
  <path class="cls-5" d="m209.89,381.16c.1.15-2.8,2.07-7.07,5.7-2.14,1.8-4.56,4.09-7.12,6.76-2.52,2.7-5.15,5.8-7.66,9.25-2.48,3.47-4.59,6.94-6.36,10.19-1.73,3.27-3.14,6.29-4.17,8.89-2.1,5.19-3,8.55-3.18,8.5-.07-.02.12-.87.51-2.4.37-1.53,1.05-3.71,2.02-6.36.96-2.65,2.32-5.73,4.02-9.06,1.74-3.3,3.86-6.83,6.37-10.34,2.54-3.49,5.22-6.6,7.8-9.3,2.62-2.66,5.11-4.92,7.33-6.67,2.2-1.76,4.06-3.09,5.4-3.93,1.33-.85,2.08-1.29,2.11-1.23Z"/>
  <g>
    <g>
      <path class="cls-10" d="m48.52,463.21s-1.67-7.81-.61-9.85c1.06-2.04,4.49-4.23,4.49-4.23,0,0,1.75-12.47,4.52-16.36,3.11-4.38,15.2-3.84,15.2-3.84,0,0,2.19-2.9,3.99-5.78,1.8-2.88,26.6-4.81,30.96-4.68,4.36.13,5.88,11.9,5.88,11.9,0,0,9.39-1.77,11.03-.68,1.65,1.08,14.07,22.87,15.15,27.55,1.08,4.68-5.16,18.91-5.16,18.91-1.38,3.34-10.57,22.32-10.57,22.32l6.63,8.96,111.6,132.25s25.66-40.21,55.83-95.6c32.99-60.56,51.01-105.75,86.63-106.78l40.09,108.89c-8.39,20.48-117.19,187.21-134.3,203.1-17.11,15.89-36.79,21.12-72.55,8.29-26-9.33-119.3-177.5-138.1-211.78h0s-20.49-32.55-20.49-32.55l-15.19-27.94s-.22-10.27-.88-14.58c-.66-4.31,5.87-7.48,5.87-7.48Z"/>
      <path class="cls-7" d="m99.88,426.08c.03-.1,1.64,1.08,2.48,3.92.45,1.36.78,3.04,1.93,4.38,1.13,1.38,2.98,2.14,5.03,2.92,4.22,1.64,6.96,5.01,8.17,7.6.62,1.31.94,2.45,1.08,3.25.14.79.14,1.24.08,1.25-.18.04-.43-1.74-1.78-4.18-1.33-2.41-3.95-5.47-7.93-7.01-1.97-.76-4.09-1.63-5.35-3.26-1.29-1.61-1.53-3.44-1.89-4.76-.63-2.74-1.96-3.99-1.82-4.11Z"/>
      <path class="cls-7" d="m107,436.3c.07-.15.74.17,1.76-.07,1.01-.21,2.33-1.06,2.89-2.58.6-1.52.66-3.09.68-4.21.02-1.13-.02-1.84.12-1.87.12-.02.4.65.57,1.82.15,1.16.23,2.85-.47,4.62-.68,1.85-2.46,2.85-3.7,2.9-1.3.09-1.94-.54-1.86-.61Z"/>
      <path class="cls-7" d="m117.06,443.74c-.23.06-1.07-1.31-1.79-3.32-.33-1.03-.33-2.08-.16-2.77.17-.7.41-1.07.53-1.04.29.08-.06,1.69.57,3.52.66,1.84,1.15,3.53.85,3.61Z"/>
    </g>
    <path class="cls-7" d="m70.49,443.84c-.22.1-1.52-3.31-1.02-7.69.46-4.38,2.47-7.43,2.66-7.28.27.13-1.26,3.24-1.69,7.39-.48,4.15.33,7.51.04,7.58Z"/>
    <path class="cls-7" d="m53.49,458.19c-.24.09-1.21-1.97-1.47-4.73-.28-2.76.28-4.98.53-4.93.28.04.18,2.21.45,4.83.25,2.63.77,4.74.5,4.83Z"/>
    <path class="cls-7" d="m50,472.53c-.22.13-1.57-1.79-2.42-4.53-.86-2.74-.84-5.09-.58-5.11.28-.03.69,2.19,1.52,4.81.81,2.63,1.73,4.69,1.48,4.83Z"/>
  </g>
  <path class="cls-7" d="m237.09,701.53c-.06-.03.27-.88.93-2.38.34-.75.74-1.67,1.14-2.76.41-1.09.94-2.3,1.39-3.7.99-2.75,1.97-6.1,2.84-9.87.82-3.78,1.5-7.98,1.86-12.42.32-4.45.27-8.71.03-12.57-.3-3.85-.76-7.31-1.33-10.18-.23-1.45-.57-2.73-.82-3.87-.24-1.14-.5-2.11-.72-2.9-.42-1.59-.63-2.47-.56-2.5.06-.02.39.83.93,2.39.28.78.59,1.74.88,2.87.3,1.13.69,2.41.97,3.86.66,2.88,1.2,6.36,1.55,10.25.3,3.9.37,8.2.05,12.71-.36,4.5-1.08,8.75-1.95,12.55-.93,3.8-1.98,7.16-3.07,9.91-.49,1.39-1.07,2.6-1.53,3.67-.46,1.08-.91,1.98-1.3,2.71-.76,1.46-1.21,2.25-1.28,2.22Z"/>
  <path class="cls-7" d="m77.64,456.46c.18,0-.05,2.1.27,5.4.19,1.62.55,3.61,1.68,5.39.57.87,1.37,1.64,2.37,2.16.49.27,1.09.47,1.68.84.59.33,1.22,1,1.3,1.84.07,1.67-.96,2.65-1.07,3.69-.18.98.4,2,.94,2.94,1.09,1.9,2.27,3.49,3.35,4.75,2.16,2.53,3.81,3.81,3.71,3.94-.04.05-.5-.21-1.25-.78-.75-.57-1.81-1.46-2.97-2.7-1.17-1.23-2.44-2.82-3.61-4.75-.54-.93-1.32-2.08-1.11-3.56.23-1.36,1.16-2.44,1.05-3.41-.08-.98-1.34-1.36-2.45-1.94-1.15-.6-2.06-1.52-2.69-2.52-1.23-2.03-1.51-4.13-1.62-5.82-.1-1.71.02-3.08.13-4.01.11-.94.23-1.45.29-1.44Z"/>
  <path class="cls-7" d="m65.86,465.35c.19.03-.63,1.72.17,4.29.4,1.28,1.24,2.57,2.72,3.6.71.53,1.6,1.43,1.72,2.6.15,1.13-.15,2.2-.38,3.21-1.03,3.99.24,7.76,1.65,10,1.44,2.29,2.9,3.25,2.78,3.39-.03.05-.43-.14-1.06-.61-.64-.46-1.47-1.26-2.3-2.4-1.64-2.24-3.14-6.3-2.03-10.61.25-1.02.5-1.99.39-2.85-.08-.86-.65-1.47-1.34-2.04-1.51-1.09-2.51-2.72-2.82-4.11-.36-1.41-.22-2.6-.02-3.36.21-.77.46-1.14.51-1.11Z"/>
  <path class="cls-9" d="m399,437.94s42.92,17.7,34.56,83.42c-.69,5.46-2.3,10.77-4.79,15.68-12.6,24.86-55.7,109.92-56.29,111.34-.69,1.66-99.97-70.13-99.97-70.13,0,0,57.98-169.94,126.49-140.3Z"/>
  <path class="cls-5" d="m432.19,530.28s-.07.2-.25.58c-.2.4-.46.96-.8,1.67-.74,1.5-1.81,3.66-3.19,6.46-2.83,5.67-6.95,13.91-12.15,24.31-10.5,20.86-25.36,50.4-42.91,85.27l-.23.46-.42-.3c-22.84-16-48.39-33.91-75.29-52.76-8.46-5.94-16.79-11.78-24.7-17.33l-.36-.25.22-.38c6.71-11.96,12.87-23.77,18.34-35.34,5.45-11.58,10.21-22.93,15.33-33.44,5.09-10.52,10.34-20.25,15.41-29.22,4.75-9.18,10.84-16.77,16.96-22.96,6.15-6.17,12.48-11.08,18.81-13.91,6.29-2.89,12.16-4.15,16.94-4.66,4.8-.54,8.56-.28,11.06.02,1.25.16,2.2.32,2.83.47.63.13.95.22.95.22,0,0-.33-.03-.97-.13-.63-.12-1.58-.25-2.83-.38-2.5-.24-6.23-.44-11,.15-4.75.56-10.57,1.87-16.77,4.78-6.23,2.84-12.47,7.75-18.56,13.91-6.06,6.2-12.05,13.72-16.75,22.89-5.03,8.98-10.25,18.71-15.3,29.22-5.08,10.49-9.82,21.84-15.27,33.46-5.46,11.6-11.63,23.44-18.34,35.42l-.15-.64c7.91,5.55,16.24,11.39,24.71,17.32,26.88,18.88,52.42,36.81,75.25,52.83l-.66.16c17.68-34.8,32.66-64.29,43.23-85.11,5.3-10.36,9.49-18.55,12.38-24.2,1.44-2.77,2.55-4.92,3.32-6.4.37-.7.66-1.24.87-1.64.2-.37.32-.54.32-.54Z"/>
  <path class="cls-8" d="m390.2,608.1s-.38-.17-1.06-.57c-.76-.46-1.73-1.05-2.93-1.78-2.62-1.66-6.24-3.94-10.66-6.74-9.04-5.83-21.34-13.78-34.94-22.55-13.66-8.79-26.13-16.57-35.21-22.12-4.47-2.72-8.12-4.94-10.77-6.55-1.19-.74-2.16-1.33-2.92-1.8-.66-.42-1-.66-.98-.69s.39.15,1.08.51c.78.43,1.78.97,3.01,1.64,2.61,1.44,6.34,3.59,10.93,6.28,9.18,5.4,21.72,13.1,35.38,21.89,13.67,8.78,25.92,16.91,34.79,22.8,4.35,2.9,7.91,5.28,10.48,7,1.16.79,2.1,1.44,2.83,1.94.64.45.97.7.95.73Z"/>
  <path class="cls-8" d="m387.83,616.4s-.39-.15-1.08-.53c-.78-.44-1.77-1-3-1.69-2.69-1.57-6.41-3.73-10.95-6.38-9.29-5.52-21.95-13.05-35.94-21.36-13.93-8.41-26.54-16.02-35.79-21.61-4.48-2.76-8.13-5.01-10.79-6.64-1.19-.76-2.15-1.37-2.91-1.85-.66-.43-1-.67-.98-.7.02-.03.39.16,1.08.53.78.44,1.77,1,3,1.69,2.69,1.57,6.41,3.73,10.95,6.38,9.29,5.52,21.95,13.05,35.94,21.36,13.93,8.41,26.53,16.02,35.78,21.6,4.48,2.76,8.14,5.01,10.79,6.65,1.19.76,2.16,1.37,2.91,1.85.66.43,1,.67.98.7Z"/>
  <g>
    <path class="cls-2" d="m136.21,178.91l-.62,2c-.28.89-.97,1.58-1.86,1.86l-2,.62,2.01.68c.83.28,1.47.93,1.76,1.75l.71,2.04.79-2.14c.3-.81.95-1.44,1.76-1.71l1.93-.64-1.9-.64c-.79-.27-1.42-.87-1.73-1.65l-.85-2.18Z"/>
    <path class="cls-2" d="m200.57,87.96l-.62,2c-.28.89-.97,1.58-1.86,1.86l-2,.62,2.01.68c.83.28,1.47.93,1.76,1.75l.71,2.04.79-2.14c.3-.81.95-1.44,1.76-1.71l1.93-.64-1.9-.64c-.79-.27-1.42-.87-1.73-1.65l-.85-2.18Z"/>
    <path class="cls-2" d="m475.01,390.23l-.62,2c-.28.89-.97,1.58-1.86,1.86l-2,.62,2.01.68c.83.28,1.47.93,1.76,1.75l.71,2.04.79-2.14c.3-.81.95-1.44,1.76-1.71l1.93-.64-1.9-.64c-.79-.27-1.42-.87-1.73-1.65l-.85-2.18Z"/>
    <path class="cls-2" d="m463.95,248.89l-.62,2c-.28.89-.97,1.58-1.86,1.86l-2,.62,2.01.68c.83.28,1.47.93,1.76,1.75l.71,2.04.79-2.14c.3-.81.95-1.43,1.76-1.71l1.93-.64-1.9-.64c-.79-.27-1.42-.87-1.73-1.65l-.85-2.18Z"/>
    <path class="cls-2" d="m154.5,100.53l-2.55,8.18c-1.13,3.64-3.98,6.49-7.62,7.62l-8.2,2.56,8.24,2.8c3.38,1.15,6.05,3.8,7.22,7.18l2.9,8.38,3.23-8.76c1.22-3.31,3.88-5.88,7.23-6.99l7.9-2.61-7.79-2.64c-3.25-1.1-5.84-3.58-7.08-6.77l-3.49-8.96Z"/>
    <path class="cls-2" d="m420.38,307.95l-2.55,8.18c-1.13,3.64-3.98,6.49-7.62,7.62l-8.2,2.56,8.24,2.81c3.38,1.15,6.05,3.8,7.22,7.18l2.9,8.38,3.23-8.76c1.22-3.31,3.88-5.88,7.23-6.99l7.9-2.61-7.79-2.64c-3.25-1.1-5.84-3.58-7.08-6.77l-3.49-8.96Z"/>
    <path class="cls-2" d="m7.58,89.33l-1.05,3.38c-.47,1.5-1.64,2.68-3.14,3.15l-3.39,1.06,3.4,1.16c1.4.48,2.5,1.57,2.98,2.96l1.2,3.46,1.33-3.62c.5-1.37,1.6-2.43,2.99-2.89l3.26-1.08-3.22-1.09c-1.34-.45-2.41-1.48-2.92-2.79l-1.44-3.7Z"/>
    <path class="cls-2" d="m384.52,370.78l-1.05,3.38c-.47,1.5-1.64,2.68-3.14,3.15l-3.39,1.06,3.4,1.16c1.4.48,2.5,1.57,2.98,2.96l1.2,3.46,1.33-3.62c.5-1.37,1.6-2.43,2.99-2.89l3.26-1.08-3.22-1.09c-1.34-.45-2.41-1.48-2.92-2.79l-1.44-3.7Z"/>
  </g>
</svg>