<?xml version="1.0" encoding="UTF-8"?>
<svg id="Capa_1" data-name="Capa 1" xmlns="http://www.w3.org/2000/svg" viewBox="0 0 760.93 783.77">
  <defs>
    <style>
      .cls-1 {
        fill: #375a64;
      }

      .cls-1, .cls-2, .cls-3, .cls-4, .cls-5, .cls-6, .cls-7, .cls-8, .cls-9, .cls-10, .cls-11, .cls-12 {
        stroke-width: 0px;
      }

      .cls-2 {
        fill: #e1e1e1;
      }

      .cls-3 {
        fill: #ececec;
      }

      .cls-5 {
        fill: #f5f5f5;
      }

      .cls-6 {
        fill: #7c4236;
      }

      .cls-7 {
        fill: #1a2e35;
      }

      .cls-8 {
        fill: #fff;
      }

      .cls-13 {
        opacity: .3;
      }

      .cls-9 {
        fill: #ff9c6a;
      }

      .cls-10 {
        fill: #024873;
      }

      .cls-11 {
        fill: #c17560;
      }

      .cls-12 {
        fill: #ffc19d;
      }
    </style>
  </defs>
  <g>
    <g>
      <rect class="cls-2" x="12.92" y="0" width="170" height="246.41"/>
      <rect class="cls-5" x="4.4" y="0" width="170" height="246.41"/>
      <g>
        <rect class="cls-8" x="25.52" y="26.69" width="127.76" height="193.04"/>
        <path class="cls-2" d="m153.28,219.73s-.02-.33-.02-.94c0-.64-.01-1.55-.03-2.74-.01-2.43-.03-5.98-.05-10.59-.03-9.25-.07-22.73-.11-39.76-.05-34.04-.12-82.24-.21-139l.42.42c-39.03.01-82.28.02-127.74.04h-.02l.46-.46c-.04,72.82-.07,139.96-.09,193.03l-.37-.37c38.91.08,70.8.15,92.99.19,11.1.04,19.77.07,25.69.09,2.94.02,5.2.03,6.74.04,1.53.01,2.33.04,2.33.04,0,0-.75.03-2.25.04-1.53,0-3.76.02-6.68.04-5.9.02-14.54.05-25.61.09-22.25.05-54.22.11-93.22.19h-.37s0-.37,0-.37c-.03-53.07-.06-120.21-.09-193.03v-.46s.46,0,.46,0h.02c45.46.01,88.71.03,127.74.04h.42v.42c-.09,56.88-.16,105.17-.21,139.28-.05,16.99-.09,30.44-.11,39.67-.02,4.57-.04,8.1-.05,10.5-.01,1.17-.02,2.06-.03,2.69,0,.6-.02.89-.02.89Z"/>
      </g>
      <path class="cls-2" d="m174.88,0c.1.08-1.06,1.76-3.03,4.4-1.98,2.64-4.78,6.23-7.98,10.12-3.2,3.88-6.19,7.32-8.4,9.77-2.21,2.44-3.65,3.9-3.74,3.82-.1-.09,1.16-1.69,3.24-4.24,2.28-2.77,5.08-6.17,8.19-9.93,3.1-3.76,5.9-7.17,8.18-9.93,2.1-2.53,3.44-4.08,3.54-4Z"/>
      <g>
        <path class="cls-8" d="m153.93,219.11c6.34,10.09,13.84,19.46,22.28,27.87"/>
        <path class="cls-2" d="m176.22,246.97c-.08.09-1.6-1.23-3.88-3.53-2.28-2.3-5.31-5.61-8.41-9.48-3.09-3.87-5.66-7.55-7.4-10.29-1.74-2.73-2.69-4.5-2.59-4.57.12-.07,1.26,1.57,3.13,4.2,1.87,2.63,4.51,6.23,7.58,10.08,3.08,3.84,6.01,7.2,8.16,9.61,2.15,2.41,3.5,3.89,3.41,3.98Z"/>
      </g>
      <g>
        <path class="cls-8" d="m4.38,246.22c7.42-9.16,14.85-18.32,22.27-27.47"/>
        <path class="cls-2" d="m26.64,218.75c.2.16-4.63,6.44-10.77,14.03-6.15,7.59-11.3,13.61-11.49,13.45-.2-.16,4.63-6.44,10.78-14.03,6.15-7.59,11.29-13.61,11.49-13.45Z"/>
      </g>
      <path class="cls-2" d="m4.4,0c.2-.16,5.04,5.63,10.81,12.92,5.77,7.3,10.28,13.34,10.08,13.49-.2.16-5.04-5.63-10.81-12.92C8.71,6.2,4.2.16,4.4,0Z"/>
    </g>
    <g>
      <path class="cls-2" d="m109.5,123.46c0,5.8-4.7,10.5-10.5,10.5s-10.5-4.7-10.5-10.5,4.7-10.5,10.5-10.5,10.5,4.7,10.5,10.5Z"/>
      <path class="cls-2" d="m115.14,86.47c0,4.34-3.51,7.85-7.85,7.85s-7.85-3.51-7.85-7.85,3.52-7.85,7.85-7.85,7.85,3.51,7.85,7.85Z"/>
      <path class="cls-2" d="m84.58,98.55c0,3.14-2.54,5.68-5.68,5.68s-5.68-2.54-5.68-5.68,2.54-5.68,5.68-5.68,5.68,2.54,5.68,5.68Z"/>
      <path class="cls-2" d="m115.9,158.11c-1.38,1.38-3.62,1.38-5,0-1.38-1.38-1.38-3.62,0-5,1.38-1.38,3.62-1.38,5,0,1.38,1.38,1.38,3.62,0,5Z"/>
      <path class="cls-2" d="m68.06,130.14c0,3.14-2.54,5.68-5.68,5.68s-5.68-2.54-5.68-5.68,2.54-5.68,5.68-5.68,5.68,2.54,5.68,5.68Z"/>
      <path class="cls-2" d="m99,123.46c.35-.17,3.87,6.6,7.84,15.1,3.98,8.51,6.92,15.54,6.56,15.7-.35.17-3.86-6.59-7.84-15.1-3.98-8.5-6.92-15.53-6.56-15.7Z"/>
      <path class="cls-2" d="m98.16,124.53c.06.39-7.61,1.84-17.11,3.25-9.51,1.41-17.27,2.24-17.32,1.85-.06-.39,7.6-1.84,17.12-3.25,9.51-1.41,17.26-2.24,17.32-1.85Z"/>
      <path class="cls-2" d="m97.44,119.48c-.24.28-5.12-3.7-10.02-9.68-4.92-5.96-7.88-11.52-7.56-11.7.35-.22,3.8,4.93,8.65,10.8,4.82,5.89,9.21,10.27,8.93,10.57Z"/>
      <path class="cls-2" d="m107.29,86.47h-.04s.04.03.06,0v.03s-.02.26-.02.26l-.18,1.01c-.26,1.2-.53,2.42-.81,3.7-.72,3.12-1.76,7.41-2.97,12.13-2.43,9.45-4.45,17.08-4.81,17.01-.4-.08,1.01-7.9,3.44-17.36,1.2-4.73,2.41-8.99,3.37-12.04.48-1.53.91-2.76,1.24-3.59.17-.42.31-.74.44-.95.06-.11.12-.19.17-.24l.04-.04s.14.02.09.02c0,.03-.03.04-.03.04Z"/>
    </g>
  </g>
  <g>
    <g>
      <path class="cls-3" d="m47.36,626.8c-7.75-4-16.88-4.52-25.48-3.1-4.62.76-9.44,2.15-12.59,5.62-3.15,3.47-3.74,9.58-.13,12.57,2.15,1.78,5.15,2.05,7.94,2.01,6.74-.08,14.21-1.26,19.59,2.79,3.07,2.31,5.11,6.16,8.79,7.29,3.59,1.11,7.64-1.01,9.55-4.25,1.9-3.24,1.97-7.29,1.08-10.95,0,0-.93-7.96-8.74-11.99Z"/>
      <path class="cls-3" d="m65.12,592.51c-4.74,6.77-13.95,4.53-18.22.4-4.27-4.13-6.08-10.12-7.72-15.83-3.75-13.05-7.54-26.74-4.75-40.03.83-3.97,2.32-7.93,5.11-10.88,2.79-2.95,7.08-4.7,11.01-3.66,4.64,1.23,7.53,5.78,9.62,10.1,6.13,12.72,9.38,26.82,9.43,40.95.02,6.6-.75,13.51-4.48,18.96"/>
      <path class="cls-3" d="m78.14,602.23c-5.15-6.11-6.12-15.02-3.83-22.67,2.29-7.65,7.46-14.16,13.43-19.48,6.99-6.23,15.21-11.08,24.04-14.19,3.48-1.22,7.14-2.19,10.81-1.84,3.67.35,7.36,2.23,9.07,5.49,2.53,4.83.1,10.68-2.52,15.45-4.62,8.41-9.91,16.46-15.79,24.05-4.73,6.1-10.15,12.12-17.37,14.88-7.21,2.76-14.71,2.43-18.53-2.57"/>
      <path class="cls-2" d="m65.44,694.63c-.09,0-.23-1.09-.43-3.08-.22-2.24-.49-5.05-.82-8.4-.39-3.53-.91-7.74-1.89-12.31-.98-4.57-2.51-9.52-4.48-14.53-2.04-4.99-4.52-9.52-7.42-13.15-2.88-3.64-6.23-6.28-9.38-7.8-3.14-1.55-5.96-2.18-7.9-2.46-1.96-.2-3.06-.36-3.06-.44,0-.09,1.1-.1,3.12-.05,2,.13,4.93.64,8.24,2.14,3.32,1.47,6.87,4.15,9.9,7.87,3.05,3.7,5.62,8.34,7.69,13.42,2,5.11,3.51,10.11,4.44,14.77.93,4.66,1.36,8.91,1.64,12.47.27,3.56.37,6.45.42,8.45.04,2,.02,3.1-.06,3.11Z"/>
      <path class="cls-2" d="m64.86,688.17s-.07-.49-.08-1.43c0-1.07,0-2.42.01-4.08,0-3.54,0-8.67-.18-15-.31-12.66-1.4-26.29-3.51-45.49-1.99-18.06-4.67-39.08-7.49-52.75-.61-3.11-1.22-5.91-1.79-8.35-.55-2.46-1.01-4.57-1.47-6.28-.39-1.61-.7-2.93-.95-3.97-.2-.91-.29-1.4-.25-1.41.04-.01.21.45.5,1.34.31,1.03.7,2.32,1.18,3.91.53,1.7,1.06,3.8,1.68,6.24.64,2.44,1.31,5.23,1.98,8.33,2.79,12.38,5.75,29.69,7.88,48.95,2.11,19.25,3.06,36.78,3.14,49.47.08,6.35-.06,11.48-.22,15.03-.1,1.66-.18,3.01-.25,4.08-.07.93-.13,1.42-.17,1.42Z"/>
      <path class="cls-2" d="m64.78,654.37c-.09,0-.07-1.52.03-4.26.16-2.74.53-6.7,1.31-11.55.82-4.84,1.96-10.59,3.76-16.83.78-2.85,2.61-9.69,7.04-19.92,5.84-13.85,13.77-25.17,20.67-32.18,1.62-1.86,3.42-3.2,4.86-4.52.75-.63,1.41-1.26,2.08-1.76.68-.47,1.3-.9,1.89-1.3,2.27-1.55,3.54-2.37,3.59-2.3.2.28-5.09,3.39-11.77,10.5-6.65,7.09-14.36,18.34-20.15,32.07-3.23,7.45-5.48,14.09-7.08,19.73-1.85,6.18-3.07,11.87-4,16.66-.88,4.8-1.39,8.72-1.7,11.44-.25,2.72-.44,4.23-.52,4.22Z"/>
    </g>
    <polygon class="cls-2" points="97.45 714 94.07 760.41 34.45 760.41 31.06 714 97.45 714"/>
    <rect class="cls-2" x="23.95" y="695.71" width="79.26" height="18.29"/>
    <polygon class="cls-3" points="103.21 758.63 103.21 763.7 99.49 763.7 25.26 763.7 25.26 758.63 103.21 758.63"/>
    <polygon class="cls-2" points="95.84 772.63 99.49 763.7 28.1 763.7 32.36 772.63 95.84 772.63"/>
    <path class="cls-5" d="m32.17,729.17s.08.16.28.43c.24.31.53.7.89,1.18.85,1.08,2.01,2.57,3.47,4.44l.15.2.15-.21c2.18-3.02,5.1-7.05,8.53-11.8h-.49c2.54,3.59,5.36,7.6,8.4,11.89l.26.37.29-.35c3.1-3.69,6.47-7.69,9.96-11.85h-.57c.17.21.36.45.55.68,3.09,3.87,6.08,7.62,8.91,11.17l.3.37.27-.39c3.02-4.28,5.85-8.28,8.4-11.89l-.49.02c4.14,4.72,7.65,8.72,10.35,11.79l.18.21.14-.24c1.36-2.29,2.45-4.12,3.24-5.44.34-.59.61-1.07.83-1.45.18-.33.27-.51.25-.52-.02,0-.13.15-.35.46-.24.37-.55.83-.92,1.4-.83,1.3-1.97,3.1-3.4,5.35l.32-.03c-2.65-3.11-6.11-7.16-10.18-11.94l-.26-.3-.23.32c-2.58,3.6-5.43,7.58-8.48,11.84l.57-.02c-2.82-3.55-5.8-7.31-8.89-11.18-.19-.24-.38-.47-.55-.69l-.28-.36-.29.35c-3.49,4.17-6.84,8.18-9.94,11.88l.56.02c-3.07-4.28-5.92-8.26-8.48-11.84l-.25-.35-.24.35c-3.36,4.8-6.22,8.88-8.35,11.93h.3c-1.52-1.83-2.73-3.28-3.61-4.34-.39-.45-.71-.82-.97-1.12-.22-.25-.34-.37-.36-.36Z"/>
    <path class="cls-5" d="m30.23,713.69c0,.21,14.94.37,33.36.37s33.36-.17,33.36-.37-14.93-.37-33.36-.37-33.36.17-33.36.37Z"/>
    <path class="cls-5" d="m27.22,764.2c0,.21,16.23.37,36.26.37s36.26-.17,36.26-.37-16.23-.37-36.26-.37-36.26.17-36.26.37Z"/>
  </g>
  <path class="cls-7" d="m760.93,774.22c0,.25-170.35.46-380.45.46s-380.48-.21-380.48-.46,170.32-.46,380.48-.46,380.45.21,380.45.46Z"/>
  <g>
    <g>
      <g>
        <path class="cls-2" d="m141.83,42.66h463.58c12.54,0,22.72,10.18,22.72,22.72v685.05c0,12.54-10.18,22.72-22.72,22.72H141.83c-12.54,0-22.72-10.18-22.72-22.72V65.38c0-12.54,10.18-22.72,22.72-22.72Z"/>
        <path class="cls-7" d="m605.41,773.14s.53-.04,1.58-.1c.53,0,1.18-.1,1.95-.23.78-.09,1.67-.32,2.67-.59,1.98-.59,4.42-1.56,6.92-3.36,2.48-1.8,5.07-4.4,6.94-8,.95-1.79,1.64-3.84,2.12-6.04.44-2.22.43-4.61.42-7.12,0-5.02-.01-10.5-.02-16.44-.01-11.88-.03-25.59-.04-41.03-.03-61.74-.08-151.07-.15-261.46-.02-55.19-.04-115.65-.06-180.55,0-32.45-.02-66.01-.02-100.58,0-17.29,0-34.82-.01-52.6,0-8.89,0-17.84,0-26.84-.03-2.26.09-4.5-.36-6.67-.41-2.17-1.04-4.33-2.1-6.29-2.01-3.97-5.28-7.28-9.2-9.45-1.98-1.04-4.11-1.8-6.3-2.27-2.21-.43-4.45-.44-6.76-.43-4.59,0-9.19,0-13.81,0-9.23,0-18.52,0-27.86,0-18.68,0-37.58,0-56.68,0-38.2,0-77.2,0-116.9.01-79.41,0-161.63,0-245.84,0-5.17.02-10.28,1.83-14.26,5.12-3.96,3.29-6.71,7.97-7.66,13.01-.54,2.51-.36,5.11-.4,7.73v7.83c0,5.22,0,10.42,0,15.62,0,20.8,0,41.46,0,61.97,0,41.02,0,81.44,0,121.15,0,79.43-.02,156.04-.03,229.03-.02,72.98-.03,142.34-.04,207.24,0,8.11,0,16.16,0,24.13,0,3.99,0,7.95,0,11.91,0,1.98-.05,3.94.27,5.84.23,1.93.85,3.77,1.55,5.56,3.04,7.09,9.88,12.34,17.41,13.28,1.86.28,3.77.24,5.68.24,1.91,0,3.82,0,5.72,0,3.8,0,7.59,0,11.35,0,30.13.01,59.04.02,86.64.03,110.38.06,199.71.11,261.44.15,30.86.04,54.82.07,71.08.09,8.12.02,14.31.04,18.48.05,4.16.02,6.3.05,6.3.05,0,0-2.13.03-6.3.05-4.17.01-10.36.03-18.48.05-16.26.02-40.22.05-71.08.09-61.74.03-151.06.08-261.44.15-27.6,0-56.51.02-86.64.03-3.77,0-7.55,0-11.35,0-1.9,0-3.81,0-5.72,0-1.9,0-3.85.04-5.78-.25-7.78-.97-14.84-6.38-17.99-13.71-.73-1.84-1.37-3.75-1.61-5.74-.32-1.98-.27-3.99-.28-5.95,0-3.95,0-7.92,0-11.91,0-7.97,0-16.02,0-24.13-.01-64.91-.03-134.26-.04-207.24,0-72.98-.02-149.6-.03-229.03,0-39.71,0-80.13,0-121.15,0-20.51,0-41.17,0-61.97,0-5.2,0-10.41,0-15.62v-7.83c.04-2.59-.14-5.27.41-7.9.99-5.25,3.85-10.12,7.98-13.55,4.13-3.42,9.47-5.32,14.84-5.33,84.21,0,166.43,0,245.84,0,39.7,0,78.71,0,116.9.01,19.1,0,38,0,56.68,0,9.34,0,18.63,0,27.86,0,4.62,0,9.22,0,13.81,0,2.27,0,4.64,0,6.93.45,2.28.48,4.49,1.27,6.54,2.36,4.06,2.25,7.45,5.68,9.54,9.81,1.1,2.04,1.76,4.28,2.18,6.53.46,2.27.34,4.59.37,6.82,0,9.01,0,17.96,0,26.84,0,17.78,0,35.31-.01,52.6,0,34.57-.02,68.13-.02,100.58-.02,64.9-.04,125.36-.06,180.55-.06,110.38-.11,199.71-.15,261.46-.02,15.43-.03,29.14-.04,41.03,0,5.94-.02,11.43-.02,16.44,0,2.5,0,4.92-.45,7.16-.49,2.23-1.19,4.29-2.16,6.09-1.9,3.63-4.52,6.23-7.02,8.03-2.53,1.8-4.99,2.76-6.98,3.33-1.01.27-1.9.49-2.68.57-.78.12-1.43.21-1.96.21-1.05.05-1.59.06-1.59.06Z"/>
      </g>
      <path class="cls-7" d="m393.15,731.25c0,10.79-8.74,19.53-19.53,19.53s-19.53-8.74-19.53-19.53,8.74-19.53,19.53-19.53,19.53,8.74,19.53,19.53Z"/>
    </g>
    <path class="cls-7" d="m425.77,76.08h-103.96c-4,0-7.25-3.25-7.25-7.25h0c0-4,3.25-7.25,7.25-7.25h103.96c4,0,7.25,3.25,7.25,7.25h0c0,4-3.25,7.25-7.25,7.25Z"/>
    <rect class="cls-8" x="134.72" y="89.42" width="476.92" height="610.04"/>
  </g>
  <path class="cls-7" d="m612.12,700.95c0-3.63-.17-247.89-.41-610.04l.41.41c-142.33.01-304.94.03-476.86.05h-.05l.46-.46c-.03,226.21-.06,436.26-.08,610.04l-.38-.38c287.85.23,473.74.38,476.92.38-3.17,0-189.07.15-476.92.38h-.38s0-.38,0-.38c-.02-173.78-.05-383.83-.08-610.04v-.46s.46,0,.46,0h.05c171.92.02,334.53.03,476.86.05h.41v.41c-.25,362.16-.41,606.41-.41,610.04Z"/>
  <g>
    <path class="cls-1" d="m300.52,204.14c-6.36-7.72-4.41-24.23,2.45-31.49-4.07-4.78-1.7-13.67,2.09-18.68,3.79-5.01,14.64-9.11,14.64-9.11,2.61-14.5,18.16-24.2,32.53-21.25,7.04-11.23,25.24-11.46,38.04-8.2,3.13.8,6.26,1.86,9.48,1.73,2.36-.09,4.65-.82,6.98-1.22,12.83-2.2,25.94,6.47,31.39,18.34.87,1.9,1.6,3.91,2.93,5.51,1.75,2.11,4.33,3.29,6.55,4.89,4.8,3.45,7.97,9.1,8.42,15.01.39,5.02-1.02,10.42,1.25,14.91,1.14,2.25,3.11,4.03,4.02,6.39,2.63,6.82-4.75,14.16-3.09,21.28.34,1.45,1.04,2.79,1.5,4.22.93,2.91.76,6.15-.46,8.95-.94,2.16-2.52,4.16-2.57,6.51-.04,1.79.81,3.46,1.22,5.2,1.02,4.25-7.6,21.09-11.2,23.55l-100.53,24.21c-35.06-6.07-29.08-25.92-30.18-34.4-.18-1.41-.26-2.94-1.17-4.03-.78-.93-1.99-1.32-3.07-1.86-7.22-3.57-8.77-14.99-8.3-23.06.07-1.13.14-2.29-.18-3.37-.47-1.58-1.7-2.78-2.74-4.05Z"/>
    <path class="cls-12" d="m339.77,206.08c-.95-18.3,9.75-39.75,27.54-49.35,11.22-6.05,20.12-6.4,26.09-7.32,13.39-2.05,24.47,4.26,24.47,4.26,5.72,1.14,27.2,19.54,29,40.27,2.01,23.03,3.55,51.23,1.25,68.5-4.63,34.74-30.92,39.79-30.92,39.79,0-.05,4.47,57.32,4.47,57.32l-71.47-25.34-10.44-128.14Z"/>
    <path class="cls-9" d="m399.11,259c.09-1.69.9-3.25,2-4.36,2.2-2.22,5.64-2.7,8.31-1.14,2.67,1.55,3.23,4.51,3.01,7.89h0c-1.26,2.07-2.16,4.1-4.55,4.5-.37.06-.75.11-1.12.13-1.83.1-3.73-.37-5.23-1.61-1.5-1.24-2.53-3.31-2.42-5.4Z"/>
    <path class="cls-7" d="m432.38,221.36c.14,2.34-1.72,4.39-4.15,4.58-2.43.19-4.51-1.55-4.65-3.89-.14-2.34,1.72-4.39,4.14-4.58,2.43-.19,4.52,1.55,4.66,3.89Z"/>
    <path class="cls-7" d="m439.29,207.42c-.53.59-3.94-1.81-8.69-1.68-4.75.06-8.18,2.6-8.71,2.03-.26-.25.27-1.31,1.76-2.46,1.47-1.14,3.99-2.28,6.95-2.34,2.96-.06,5.48.98,6.94,2.06,1.49,1.09,2.01,2.13,1.75,2.39Z"/>
    <path class="cls-7" d="m412.4,245.82c-.03-.27,2.91-.86,7.69-1.59,1.21-.16,2.35-.43,2.54-1.26.26-.89-.27-2.19-.9-3.59-1.21-2.92-2.48-5.99-3.82-9.2-5.31-13.1-9.18-23.88-8.65-24.09.53-.21,5.26,10.24,10.56,23.34,1.28,3.23,2.5,6.31,3.67,9.26.49,1.37,1.32,2.93.75,4.77-.31.92-1.18,1.6-1.95,1.83-.77.26-1.45.29-2.05.34-4.81.38-7.8.47-7.82.2Z"/>
    <path class="cls-9" d="m417.21,302.24s-23.29,2.08-46.58-11.22c0,0,12.87,24.09,47.26,20l-.68-8.79Z"/>
    <path class="cls-7" d="m435.7,188.4c-.77,1.19-4.43.5-8.67.96-4.26.32-7.74,1.67-8.7.64-.43-.5,0-1.65,1.45-2.86,1.42-1.2,3.91-2.35,6.83-2.62,2.92-.27,5.56.4,7.17,1.33,1.63.93,2.26,1.98,1.92,2.55Z"/>
    <path class="cls-7" d="m380.79,224.06c.06,2.35,2.09,4.23,4.53,4.21,2.43-.02,4.36-1.93,4.3-4.28-.06-2.34-2.09-4.23-4.52-4.21-2.44.02-4.37,1.94-4.3,4.28Z"/>
    <path class="cls-7" d="m374.31,210.89c.58.54,3.77-2.15,8.52-2.43,4.74-.35,8.37,1.89,8.85,1.27.24-.27-.39-1.28-1.97-2.3-1.56-1.01-4.17-1.93-7.13-1.73-2.96.2-5.37,1.45-6.73,2.66-1.39,1.22-1.82,2.29-1.53,2.53Z"/>
    <path class="cls-7" d="m373.65,192.18c1,1.02,4.59-.33,8.99-.65,4.39-.46,8.18.22,8.96-.96.34-.57-.31-1.62-2-2.55-1.67-.92-4.4-1.59-7.42-1.32-3.02.27-5.58,1.42-7.04,2.62-1.49,1.21-1.93,2.36-1.48,2.86Z"/>
    <path class="cls-12" d="m346.12,238.74c-.07-2.58-3.18-8.58-5.72-8.92-6.79-.89-18.97-.05-18.66,17.22.42,23.6,23.91,18.31,23.94,17.63.02-.53.68-17.03.44-25.93Z"/>
    <path class="cls-9" d="m339.04,256.16c-.1-.07-.4.3-1.09.63-.67.32-1.83.56-3.06.12-2.5-.87-4.66-4.79-4.85-9.04-.1-2.15.31-4.2,1.04-5.91.69-1.74,1.78-2.96,3.02-3.21,1.24-.31,2.13.42,2.43,1.08.33.66.19,1.13.31,1.17.07.06.5-.4.29-1.37-.11-.47-.39-1.02-.95-1.46-.57-.45-1.4-.67-2.27-.56-1.81.16-3.41,1.86-4.21,3.74-.9,1.88-1.41,4.19-1.3,6.6.23,4.75,2.74,9.16,6.15,10.08,1.66.4,3.03-.12,3.73-.69.72-.59.83-1.13.75-1.17Z"/>
    <path class="cls-7" d="m447.61,202.96c-4.82-2.86-5.93-14.62-4.89-20.11,0,0-4.84-4.13-6.74-6.82-1.9-2.69-3.7-7.2-3.16-10.45h0s-2.88.07-3.85-.21c-5.05-1.44-9.22-5.65-10.63-10.72-2.99,4.9-9.12,5.68-16.02,3.08-2.34,3.6-6.6,5.87-10.88,5.79-4.28-.08-8.45-2.5-10.66-6.19-1.35,2.99-4.35,4.96-7.49,5.85-3.14.89-6.46.84-9.73.78,1.57,6.3-2.35,13.48-8.48,15.55-.83.28-1.79.56-2.15,1.36-.38.83.08,1.78.43,2.62,2.18,5.35-1.21,12.24-6.76,13.74,3.92,2.89,3.69,9.83-.4,12.46-.84.54-1.94,1.19-1.78,2.18.06.38.3.69.54.99,1.81,2.29,3.61,4.79,3.9,7.7.29,2.91-1.59,6.23-4.49,6.43,1.56,1.32,3.03,3.04,3.11,5.09.09,2.05-1.93,4.19-3.85,3.5-.82-.29-12.57-2.31-13.1-3-6.87-8.89-4.38-20.49-4-31.74.38-11.25,7.21-22.7,12.55-32.59,2.24-4.15,7.14-8.51,10.38-11.93,3.7-3.89,7.84-6.38,12.31-9.34,5.84-3.86,12.29-6.07,19.05-7.86,12.6-3.32,25.41-2.18,37.37,3.01,4.55,1.97,9.55,7.26,13.41,10.38,4.62,3.73,8.07,8.71,11.1,13.83,4.38,7.4,11.5,26.83,4.93,36.63"/>
    <path class="cls-7" d="m398.24,254.58c.56-.38,2.89,3.52,7.86,4.3,4.97.79,8.86-2.13,9.21-1.6.2.21-.47,1.31-2.19,2.41-1.68,1.09-4.52,2.04-7.56,1.56-3.04-.48-5.26-2.23-6.34-3.75-1.12-1.54-1.26-2.77-.98-2.91Z"/>
  </g>
  <path class="cls-12" d="m278.38,346.83s-28.52,8.98-34.68,45.69c-4.77,28.41-9.26,138.28-9.26,138.28,0,0-12.74,28.71-13.94,47.11-1.19,18.41-6.12,122.74-6.12,122.74l31.82.06s29.26-112.39,31.65-122.79c2.39-10.4,14.13-84.36,14.13-84.36l6.16-101.88-19.75-44.85Z"/>
  <path class="cls-12" d="m484.52,336.9c-4.9-1.68,37.96,6.15,43.98,44.92,4.42,28.47,10.96,137.39,10.96,137.39,0,0,12.74,28.71,13.94,47.11,1.19,18.41,12.68,134.66,12.68,134.66l-35.15-.03s-32.49-124.23-34.88-134.63c-2.39-10.4-18.46-113.85-18.46-113.85l2.8-70.3,4.13-45.27Z"/>
  <path class="cls-12" d="m290.64,607.95s-19.32,43.44-23.24,92.75l106.34.15-83.09-92.9Z"/>
  <path class="cls-12" d="m493.19,607.95s19.59,43.63,23.52,92.95l-106.62-.1,6.04-14.8,77.06-78.05Z"/>
  <path class="cls-12" d="m469.85,535.07l12.3-108.93,5.14-88.51-67.45-17.83h-70.05l-74.81,28.32,9.18,80.36c-1.7,2.3,21.2,107.02,21.2,107.02l-17.41,77.86,70.49,79.61,53.25,2.2,79.82-90.7-21.66-69.4Z"/>
  <path class="cls-10" d="m290.64,599.57s36.02,44.51,102.28,42c62.48-2.37,95.32-47.59,95.32-47.59,4.01,5.87,6.87,19.51,8.92,26.59,0,0-63.96,47.3-87.08,80.24l-36.36.05s-49.13-49.8-93.55-63.99c0-10.57,6.53-29.43,10.46-37.3Z"/>
  <path class="cls-9" d="m277.76,396.03s.11.33.26.96c.16.7.37,1.63.63,2.79.54,2.43,1.27,5.95,2.13,10.3,1.73,8.72,3.93,20.8,5.98,34.2,2.05,13.41,3.57,25.6,4.52,34.43.48,4.42.83,8,1.05,10.47.1,1.19.17,2.14.23,2.85.05.65.06,1,.04,1-.02,0-.08-.34-.17-.99-.09-.71-.21-1.66-.36-2.84-.3-2.53-.73-6.09-1.25-10.45-1.07-8.82-2.66-20.99-4.71-34.39-2.05-13.39-4.17-25.48-5.79-34.21-.8-4.32-1.46-7.83-1.93-10.34-.21-1.17-.38-2.11-.51-2.82-.11-.65-.16-.99-.13-.99Z"/>
  <path class="cls-9" d="m489.46,379.51s.02.3-.01.87c-.04.63-.1,1.46-.17,2.48-.16,2.15-.43,5.27-.8,9.11-.74,7.69-1.96,18.3-3.65,29.96-1.7,11.67-3.55,22.18-5.03,29.77-.74,3.79-1.36,6.85-1.83,8.96-.23,1-.41,1.81-.55,2.43-.13.55-.21.84-.23.84-.02,0,.01-.3.1-.86.11-.63.25-1.44.43-2.45.4-2.2.95-5.26,1.62-9,1.36-7.6,3.14-18.12,4.84-29.78,1.69-11.66,2.98-22.24,3.84-29.92.42-3.78.76-6.87,1.01-9.09.12-1.02.22-1.84.29-2.47.07-.56.12-.86.15-.86Z"/>
  <path class="cls-10" d="m286.12,444.39s13.91-13.47,39.1-14.05c.84-.02,1.68-.02,2.52-.01,14.66.22,28.76,5.75,40.19,14.99l15.33,12.38v16.15s-21.1,46.99-91.18,15.38l-5.96-44.83Z"/>
  <path class="cls-10" d="m481.04,445.11s-16.27-14.19-41.46-14.77c-.84-.02-1.68-.02-2.52-.01-15.04.22-29.44,6.18-40.82,16.07l-12.98,11.3v16.15s22,44.32,92.08,12.7l5.7-41.44Z"/>
  <g>
    <path class="cls-7" d="m384.23,449.46c.25.06.26,1.07.02,2.26-.24,1.19-.63,2.12-.88,2.08-.25-.04-.26-1.05-.02-2.26.24-1.21.64-2.14.88-2.08Z"/>
    <path class="cls-7" d="m390.24,434.19c.22.13-.51,1.81-1.48,3.85-.97,2.03-1.81,3.67-2.06,3.57-.23-.09.23-1.9,1.22-3.97.98-2.07,2.1-3.58,2.31-3.45Z"/>
    <path class="cls-7" d="m400.19,421.16c.18.19-.99,1.6-2.48,3.29-1.49,1.69-2.75,3.03-2.95,2.87-.2-.15.74-1.76,2.26-3.48,1.51-1.72,3-2.86,3.17-2.68Z"/>
    <path class="cls-7" d="m413.42,411.48c.12.23-1.41,1.25-3.31,2.45-1.91,1.19-3.49,2.12-3.65,1.92-.15-.2,1.21-1.48,3.16-2.7,1.94-1.22,3.69-1.89,3.8-1.67Z"/>
    <path class="cls-7" d="m428.82,405.85c.05.25-1.7.82-3.86,1.44-2.16.62-3.94,1.07-4.04.83-.09-.23,1.58-1.08,3.78-1.72,2.2-.64,4.07-.8,4.11-.56Z"/>
    <path class="cls-7" d="m441.34,404.58c0,.25-.99.49-2.2.53-1.21.04-2.21-.14-2.22-.4-.02-.25.96-.49,2.2-.53,1.23-.04,2.23.14,2.22.4Z"/>
  </g>
  <path class="cls-7" d="m437.03,410.04c-.12-.22,4.66-3.08,10.7-6.39l.13.86-.09-.02c-6.79-1.4-12.24-2.73-12.19-2.98.05-.25,5.59.68,12.38,2.08l.09.02,1.23.25-1.1.6c-6.04,3.31-11.02,5.8-11.14,5.58Z"/>
  <g>
    <path class="cls-7" d="m380.62,450.99c.25-.06.64.87.88,2.08.24,1.21.23,2.23-.02,2.26-.25.04-.65-.89-.88-2.08-.24-1.19-.23-2.2.02-2.26Z"/>
    <path class="cls-7" d="m374.61,435.73c.22-.13,1.33,1.38,2.31,3.45.99,2.07,1.46,3.88,1.22,3.97-.24.09-1.08-1.54-2.06-3.57-.97-2.03-1.7-3.72-1.48-3.85Z"/>
    <path class="cls-7" d="m364.66,422.7c.17-.18,1.66.96,3.17,2.68,1.52,1.72,2.46,3.33,2.26,3.48-.21.15-1.46-1.19-2.95-2.87-1.49-1.69-2.66-3.1-2.48-3.29Z"/>
    <path class="cls-7" d="m351.43,413.01c.11-.22,1.86.45,3.8,1.67,1.94,1.22,3.31,2.5,3.16,2.7-.15.21-1.74-.72-3.65-1.92-1.91-1.2-3.43-2.22-3.31-2.45Z"/>
    <path class="cls-7" d="m336.03,407.39c.05-.25,1.91-.08,4.11.56,2.2.63,3.87,1.48,3.78,1.72-.09.24-1.87-.21-4.04-.83-2.16-.63-3.91-1.19-3.86-1.44Z"/>
    <path class="cls-7" d="m323.51,406.12c0-.25.99-.43,2.22-.4,1.23.04,2.22.27,2.2.53s-1.02.43-2.22.4c-1.21-.04-2.19-.27-2.2-.53Z"/>
  </g>
  <path class="cls-7" d="m327.82,411.58c-.12.22-5.1-2.27-11.14-5.58l-1.1-.6,1.23-.25.09-.02c6.79-1.4,12.33-2.33,12.38-2.08.05.25-5.41,1.58-12.19,2.98l-.09.02.13-.86c6.04,3.31,10.82,6.16,10.7,6.39Z"/>
  <g>
    <path class="cls-7" d="m305.28,502.97c-.1.23-1.09,0-2.2-.54-1.11-.53-1.92-1.15-1.8-1.37.12-.23,1.1.02,2.2.54,1.1.52,1.9,1.14,1.8,1.37Z"/>
    <path class="cls-7" d="m322.02,507.94c-.04.25-2.02.14-4.4-.41-2.37-.55-4.2-1.32-4.13-1.56.08-.25,2,.13,4.34.66,2.34.54,4.23,1.05,4.19,1.3Z"/>
    <path class="cls-7" d="m339.46,508.82c.02.25-1.94.6-4.37.61-2.44.02-4.4-.31-4.38-.56.02-.26,1.97-.35,4.37-.37,2.4-.01,4.36.05,4.38.31Z"/>
    <path class="cls-7" d="m356.67,505.76c.07.24-1.75,1.02-4.12,1.58-2.37.56-4.35.69-4.4.44-.04-.25,1.84-.78,4.18-1.34,2.34-.55,4.26-.93,4.34-.68Z"/>
    <path class="cls-7" d="m372.71,498.84c.13.22-1.46,1.4-3.64,2.49-2.17,1.1-4.08,1.67-4.17,1.44-.1-.24,1.62-1.18,3.76-2.26,2.14-1.08,3.92-1.89,4.05-1.67Z"/>
    <path class="cls-7" d="m387.12,493.61c-.13.22-1.91-.7-3.97-2.05h0c1.13-.07.31-.02.56-.03h0s0,0,0,0h-.01s-.02.03-.02.03l-.04.04-.09.07-.18.14-.35.27c-.21.16-.43.33-.67.51-.43.32-.82.6-1.16.82-.68.44-1.13.67-1.21.57-.08-.1.24-.51.8-1.08.28-.29.63-.61,1.02-.96.22-.19.43-.37.62-.54l.33-.28.17-.14.09-.07.04-.04.02-.02h.01s0-.01,0-.01h0c.25-.02-.56.03.57-.03h0c2.04,1.33,3.58,2.59,3.45,2.81Z"/>
    <path class="cls-7" d="m403.5,501.78c-.09.24-2.05-.4-4.38-1.43-2.33-1.03-4.12-2.05-4-2.27.12-.23,2.08.41,4.38,1.43,2.3,1.02,4.09,2.04,4,2.27Z"/>
    <path class="cls-7" d="m421.1,506.85c-.05.25-2.09-.03-4.56-.62-2.47-.6-4.42-1.28-4.35-1.52.07-.24,2.12.03,4.56.62,2.45.59,4.39,1.27,4.35,1.52Z"/>
    <path class="cls-7" d="m439.32,508.74c0,.25-2.06.34-4.6.19-2.54-.15-4.58-.48-4.55-.73.03-.25,2.09-.34,4.6-.19,2.51.15,4.55.48,4.55.73Z"/>
    <path class="cls-7" d="m457.57,507.35c.04.25-1.97.7-4.49,1.01-2.53.31-4.59.35-4.6.1-.02-.25,1.99-.71,4.49-1.01,2.5-.3,4.56-.35,4.6-.1Z"/>
    <path class="cls-7" d="m470.74,504.17c.08.24-.82.72-2,1.06-1.18.35-2.19.43-2.25.18-.06-.25.83-.72,2-1.06,1.17-.34,2.18-.42,2.25-.18Z"/>
  </g>
  <path class="cls-7" d="m449.56,597.79c-.25.02-.89-5.06-1.44-11.43l.74.33c-.08.06-.16.13-.25.19-5.15,3.96-9.68,7.02-9.9,6.37-.03.12,1.05-.7,2.73-1.99,2-1.55,4.19-3.24,6.6-5.1.09-.07.17-.13.25-.19l.67-.52.07.85c.54,6.36.77,11.48.52,11.5Z"/>
  <path class="cls-7" d="m333.11,596.34c-.15.21-4.4-2.64-9.53-6.37l.74-.35v.14c-.18,3.2-.42,6.09-.7,8.18-.27,2.04-.61,3.47-.91,3.24.07.1.15-1.22.26-3.3.13-2.49.27-5.19.42-8.17v-.13s.05-.85.05-.85l.69.5c5.12,3.73,9.13,6.9,8.98,7.11Z"/>
  <g>
    <path class="cls-7" d="m329.97,600.29c-.22.13-.86-.65-1.44-1.74-.57-1.09-.85-2.06-.62-2.17.23-.11.87.67,1.44,1.74.56,1.07.84,2.05.62,2.17Z"/>
    <path class="cls-7" d="m341.4,614.75c-.17.18-1.84-1.08-3.58-2.98-1.74-1.9-2.86-3.68-2.66-3.83.2-.16,1.63,1.34,3.34,3.2,1.71,1.87,3.08,3.42,2.9,3.61Z"/>
    <path class="cls-7" d="m356.39,625.46c-.11.22-2.07-.54-4.25-1.89-2.19-1.35-3.75-2.75-3.61-2.95.15-.21,1.93.84,4.09,2.16,2.15,1.33,3.89,2.45,3.77,2.68Z"/>
    <path class="cls-7" d="m373.73,631.68c-.05.25-2.14.05-4.61-.65-2.48-.7-4.36-1.62-4.27-1.85.09-.24,2.09.28,4.52.97,2.43.69,4.41,1.28,4.36,1.54Z"/>
    <path class="cls-7" d="m392.1,632.62c.03.25-2.03.59-4.6.76-2.57-.03-4.65-.27-4.63-.52.02-.25,2.08-.43,4.6-.4,2.52-.16,4.59-.09,4.62.16Z"/>
    <path class="cls-7" d="m409.93,628.01c.1.23-1.73,1.25-4.17,2.07-2.44.83-4.51,1.13-4.57.89-.06-.25,1.88-.94,4.28-1.76,2.4-.81,4.36-1.44,4.47-1.2Z"/>
    <path class="cls-7" d="m425.77,618.61c.16.19-1.33,1.67-3.45,3.13-2.12,1.46-4.03,2.33-4.15,2.11-.13-.22,1.55-1.43,3.63-2.87,2.09-1.43,3.81-2.57,3.97-2.37Z"/>
    <path class="cls-7" d="m438.47,605.27c.21.14-.82,1.97-2.46,3.96-1.64,1.99-3.24,3.33-3.42,3.16-.19-.18,1.1-1.79,2.71-3.75,1.61-1.95,2.96-3.52,3.17-3.37Z"/>
    <path class="cls-7" d="m445.11,593.37c.24.1,0,1.08-.51,2.2-.52,1.12-1.12,1.93-1.35,1.82-.23-.12,0-1.1.51-2.2.51-1.1,1.11-1.91,1.35-1.81Z"/>
  </g>
  <path class="cls-9" d="m424.52,562.26s-.3-.02-.84-.15c-.64-.16-1.41-.36-2.35-.6-1.01-.28-2.25-.61-3.71-.91-1.46-.31-3.1-.74-4.96-1.02-1.85-.34-3.87-.69-6.06-.93-2.18-.33-4.53-.47-7-.67-4.95-.26-10.4-.26-16.1.21-5.69.53-11.07,1.48-15.89,2.6-2.4.63-4.69,1.18-6.78,1.88-2.12.62-4.05,1.32-5.8,1.97-1.78.6-3.32,1.31-4.7,1.87-1.39.55-2.55,1.09-3.5,1.54-.88.4-1.6.73-2.21,1-.51.22-.78.32-.8.29-.01-.03.23-.19.71-.46.58-.32,1.29-.7,2.13-1.16.93-.51,2.07-1.1,3.45-1.69,1.37-.61,2.9-1.36,4.68-2.01,1.75-.69,3.68-1.44,5.81-2.09,2.1-.74,4.4-1.32,6.81-1.97,4.85-1.18,10.27-2.16,16.01-2.69,5.75-.48,11.25-.45,16.23-.14,2.49.22,4.85.4,7.05.76,2.2.27,4.23.67,6.08,1.05,1.86.33,3.5.8,4.96,1.16,1.46.35,2.69.73,3.69,1.07.91.3,1.67.56,2.3.77.52.19.79.3.78.33Z"/>
  <path class="cls-9" d="m388.99,596c-.25.05-.82-1.8-1.28-4.13-.46-2.33-.62-4.26-.37-4.31.25-.05.82,1.8,1.28,4.13.46,2.33.62,4.26.37,4.31Z"/>
  <g>
    <path class="cls-7" d="m378.63,305.62c-.11.22-2.02-.48-4.04-1.94-2.03-1.45-3.31-3.05-3.13-3.22.19-.18,1.71,1.07,3.67,2.47,1.95,1.41,3.62,2.45,3.51,2.69Z"/>
    <path class="cls-7" d="m395.79,308.95c.03.23-1.95.71-4.44.58-2.49-.11-4.43-.75-4.37-.99.05-.26,2.01-.03,4.41.07,2.4.13,4.37.06,4.4.34Z"/>
    <path class="cls-7" d="m411.93,302.24c.16.19-1.25,1.65-3.4,2.92-2.14,1.28-4.1,1.82-4.19,1.59-.1-.24,1.65-1.15,3.72-2.38,2.07-1.22,3.7-2.33,3.87-2.13Z"/>
  </g>
  <path class="cls-7" d="m453.7,220.61s-.01-.24,0-.69c.03-.5.06-1.17.11-2.02.1-1.83.25-4.44.44-7.77.17-3.37.33-7.51.28-12.3-.05-4.79-.3-10.26-1.25-16.21-.98-5.92-2.54-12.42-5.77-18.71-3.13-6.32-7.87-12.4-14.16-17.25-6.25-4.88-13.89-8.62-22.24-10.83-8.35-2.24-17.44-2.77-26.53-1.67-18.29,2.22-34.4,11.31-45.27,22.83-10.86,11.71-16.36,25.59-18.44,37.38-2.11,11.89-1.1,21.78.18,28.37.69,3.3,1.33,5.84,1.9,7.53.25.82.44,1.46.59,1.94.13.44.18.67.17.67-.02,0-.1-.21-.26-.64-.17-.47-.39-1.11-.67-1.91-.63-1.67-1.33-4.21-2.08-7.51-1.39-6.6-2.52-16.55-.47-28.56,2.01-11.9,7.49-25.96,18.46-37.85,10.97-11.7,27.26-20.91,45.77-23.16,9.2-1.12,18.42-.57,26.88,1.71,8.46,2.25,16.19,6.06,22.53,11.03,6.38,4.94,11.18,11.15,14.33,17.58,3.24,6.41,4.78,12.98,5.73,18.95.91,6,1.11,11.5,1.12,16.31,0,4.81-.21,8.95-.44,12.32-.21,3.38-.45,5.99-.61,7.77-.09.85-.15,1.52-.2,2.02-.05.45-.08.69-.1.68Z"/>
  <g>
    <path class="cls-7" d="m315.01,513.73c-.24.07-.75-.81-1.12-1.96-.37-1.16-.48-2.17-.24-2.25.24-.08.74.8,1.12,1.96.38,1.17.49,2.17.24,2.25Z"/>
    <path class="cls-7" d="m319.24,531.21c-.25.04-.87-1.89-1.37-4.31-.51-2.42-.72-4.44-.47-4.5.25-.06.86,1.87,1.37,4.31.51,2.44.72,4.45.47,4.5Z"/>
    <path class="cls-7" d="m321.19,549.09c-.25,0-.61-1.98-.8-4.45-.19-2.47-.13-4.49.12-4.52.25-.03.61,1.96.8,4.45.19,2.49.13,4.51-.12,4.52Z"/>
    <path class="cls-7" d="m320.67,567.07c-.25-.03-.33-2.05-.17-4.52.16-2.47.5-4.46.75-4.46.25,0,.33,2.03.17,4.52-.16,2.49-.5,4.49-.75,4.46Z"/>
    <path class="cls-7" d="m317.56,584.77c-.25-.06-.03-2.08.49-4.49.52-2.42,1.14-4.34,1.39-4.3.25.04.03,2.05-.49,4.49-.52,2.44-1.15,4.37-1.39,4.3Z"/>
    <path class="cls-7" d="m311.88,601.83c-.23-.1.28-2.06,1.15-4.37.87-2.32,1.77-4.13,2.01-4.05.24.08-.27,2.04-1.15,4.37-.88,2.34-1.78,4.15-2.01,4.05Z"/>
    <path class="cls-7" d="m306.06,613.92c-.22-.12.06-1.1.62-2.17.57-1.08,1.21-1.86,1.44-1.74.23.11-.05,1.09-.62,2.17-.57,1.09-1.22,1.87-1.44,1.74Z"/>
  </g>
  <g>
    <path class="cls-7" d="m459.81,515.21c-.25-.07-.14-1.08.23-2.25.37-1.17.87-2.05,1.11-1.97.24.09.14,1.09-.23,2.25-.37,1.16-.87,2.04-1.11,1.97Z"/>
    <path class="cls-7" d="m456.89,531.32c-.25-.02-.22-1.86.07-4.12.29-2.26.74-4.05.99-4,.25.05.22,1.89-.07,4.12-.29,2.23-.73,4.02-.99,4Z"/>
    <path class="cls-7" d="m457.21,547.69c-.25.03-.59-1.78-.75-4.06-.16-2.27-.08-4.12.17-4.12.25,0,.59,1.81.75,4.06.16,2.24.08,4.09-.17,4.12Z"/>
    <path class="cls-7" d="m460.8,563.66c-.24.08-.97-1.62-1.63-3.8-.62-2.19-.81-4.04-.58-4.09.26-.06.85,1.68,1.46,3.85.65,2.15.98,3.97.74,4.05Z"/>
    <path class="cls-7" d="m467.2,578.75c-.23.12-1.19-1.46-2.16-3.52-.97-2.06-1.56-3.81-1.32-3.91.23-.1,1.2,1.48,2.16,3.52.96,2.04,1.55,3.79,1.32,3.91Z"/>
    <path class="cls-7" d="m475.3,593c-.22.13-1.33-1.34-2.49-3.29-1.16-1.95-1.92-3.63-1.7-3.76.22-.13,1.34,1.35,2.49,3.29,1.16,1.94,1.92,3.62,1.7,3.76Z"/>
    <path class="cls-7" d="m482.07,603.66c-.21.14-.92-.59-1.59-1.61-.66-1.03-1.03-1.98-.81-2.11.21-.14.92.59,1.59,1.62.66,1.03,1.03,1.98.81,2.11Z"/>
  </g>
  <g>
    <path class="cls-7" d="m480.6,455.59c-.23.11-.86-.67-1.42-1.76-.56-1.08-.83-2.06-.6-2.18.23-.12.86.67,1.42,1.76.56,1.09.83,2.07.6,2.18Z"/>
    <path class="cls-7" d="m487.84,471.57c-.24.1-1.2-1.63-2.15-3.85-.95-2.22-1.54-4.11-1.31-4.21.23-.11,1.2,1.62,2.15,3.85.96,2.23,1.54,4.12,1.31,4.21Z"/>
    <path class="cls-7" d="m493.8,488.06c-.24.08-1.07-1.72-1.85-4-.78-2.29-1.21-4.21-.97-4.3.24-.09,1.07,1.71,1.85,4,.78,2.3,1.22,4.22.97,4.3Z"/>
    <path class="cls-7" d="m498.47,504.97c-.25.06-.93-1.79-1.53-4.14-.6-2.34-.88-4.3-.64-4.36.25-.07.93,1.78,1.53,4.14.6,2.35.89,4.31.64,4.36Z"/>
    <path class="cls-7" d="m501.82,522.19c-.25.04-.79-1.86-1.21-4.24-.42-2.38-.55-4.35-.3-4.4.25-.05.79,1.85,1.21,4.24.42,2.39.55,4.36.3,4.4Z"/>
    <path class="cls-7" d="m503.82,539.61c-.25.02-.65-1.92-.88-4.32-.23-2.41-.21-4.38.04-4.41.25-.03.64,1.9.88,4.32.23,2.42.21,4.39-.04,4.41Z"/>
    <path class="cls-7" d="m504.46,557.14c-.25,0-.49-1.96-.54-4.38-.04-2.42.13-4.38.39-4.39s.49,1.95.53,4.38c.04,2.43-.13,4.39-.39,4.39Z"/>
    <path class="cls-7" d="m504.03,570.34c-.25-.02-.41-1.02-.34-2.24.06-1.22.32-2.2.58-2.19.25.01.41,1.01.34,2.24-.06,1.22-.32,2.2-.58,2.19Z"/>
  </g>
  <g>
    <path class="cls-7" d="m286.21,475.9c-.24-.08-.12-1.08.28-2.24.39-1.16.91-2.03,1.15-1.94.24.08.12,1.09-.28,2.24-.39,1.15-.91,2.02-1.15,1.94Z"/>
    <path class="cls-7" d="m280.61,493.65c-.24-.07.17-2.13.92-4.59.75-2.46,1.56-4.39,1.8-4.32.24.08-.17,2.13-.92,4.59-.75,2.46-1.55,4.39-1.8,4.32Z"/>
    <path class="cls-7" d="m275.72,511.61c-.25-.06.08-2.13.73-4.62.65-2.49,1.38-4.45,1.62-4.39.25.07-.08,2.14-.73,4.62-.65,2.48-1.38,4.45-1.62,4.39Z"/>
    <path class="cls-7" d="m271.61,529.77c-.25-.05-.01-2.13.52-4.65.54-2.52,1.18-4.51,1.43-4.45.25.06.01,2.14-.52,4.65-.54,2.51-1.18,4.5-1.43,4.45Z"/>
    <path class="cls-7" d="m268.4,548.11c-.25-.04-.12-2.13.29-4.67.41-2.54.95-4.57,1.2-4.52.25.04.12,2.13-.29,4.67-.41,2.53-.95,4.56-1.2,4.52Z"/>
    <path class="cls-7" d="m266.23,566.6c-.25-.02-.25-2.12.01-4.68.26-2.56.68-4.62.93-4.58.25.03.25,2.12-.01,4.68-.26,2.55-.67,4.61-.93,4.58Z"/>
    <path class="cls-7" d="m265.31,585.19c-.25,0-.4-2.09-.31-4.67.08-2.58.35-4.65.61-4.64.25.01.39,2.1.31,4.67-.08,2.56-.35,4.64-.61,4.64Z"/>
    <path class="cls-7" d="m265.86,603.8c-.25.02-.57-2.05-.7-4.62-.13-2.57-.03-4.67.22-4.67.25,0,.57,2.06.7,4.62.13,2.56.03,4.65-.22,4.67Z"/>
    <path class="cls-7" d="m267.4,617.47c-.25.04-.59-.91-.76-2.13-.17-1.21-.1-2.22.15-2.25s.59.92.76,2.13c.17,1.21.1,2.21-.15,2.25Z"/>
  </g>
  <g>
    <g>
      <g>
        <g>
          <path class="cls-1" d="m134.29,729.03l-.31,46.16,85.53.34c-.63-9.36-43.18-28.54-43.18-28.54l1.15-17.67-43.2-.29Z"/>
          <path class="cls-8" d="m149.56,742.63c-1.82.53-3.07,2.68-2.63,4.59.44,1.91,2.53,3.25,4.36,2.75,1.83-.5,3.41-3.03,2.76-4.88-.64-1.85-3.18-3.28-4.84-2.34"/>
          <path class="cls-7" d="m133.98,775.19l.05-7.37,81.23,1.81s4.71,2.82,4.26,5.9l-85.53-.34Z"/>
          <path class="cls-7" d="m185.43,751.47c.11.46-1.88,1.29-3.43,3.33-1.61,1.99-1.99,4.18-2.45,4.17-.43.08-.77-2.72,1.2-5.22,1.95-2.51,4.67-2.74,4.68-2.28Z"/>
          <path class="cls-7" d="m191.78,764.16c-.42.11-1.08-2.28.08-4.91,1.15-2.64,3.31-3.69,3.51-3.3.26.39-1.13,1.81-2.05,3.99-.97,2.15-1.09,4.17-1.55,4.22Z"/>
          <path class="cls-7" d="m177.19,734.72c-.19.44-2.31-.21-4.92,0-2.61.15-4.63,1.08-4.88.67-.27-.34,1.7-2.13,4.77-2.33,3.07-.22,5.25,1.29,5.02,1.66Z"/>
        </g>
        <path class="cls-7" d="m179.25,749.91c.07,0,.07-1.03-.47-2.79-.56-1.73-1.75-4.22-4.16-6.48-1.21-1.11-2.7-2.15-4.51-2.85-.88-.33-2.18-.61-3.25.22-.99.8-1.33,2.18-1.1,3.4,1.24,4.59,5.66,8.03,10.66,8.52,5.12.47,9.64-2.74,11.59-6.66.47-.99.91-1.99.98-3.17.02-.58-.05-1.23-.42-1.8-.36-.56-.97-.92-1.57-.99-1.2-.1-2.07.46-2.81.98-.71.57-1.3,1.13-1.86,1.72-2.2,2.35-3.39,4.73-4.03,6.4-.64,1.69-.76,2.69-.69,2.71.26.16,1.05-4.01,5.4-8.4,1.07-.99,2.44-2.38,3.86-2.26.63.09,1.02.7.93,1.55-.05.83-.45,1.76-.9,2.64-1.8,3.48-5.89,6.32-10.39,5.88-4.42-.36-8.5-3.68-9.52-7.34-.19-.86.07-1.75.62-2.21.51-.45,1.35-.38,2.15-.1,1.64.59,3.08,1.51,4.24,2.5,2.34,2.02,3.6,4.31,4.29,5.92.67,1.64.85,2.62.96,2.6Z"/>
      </g>
      <path class="cls-7" d="m94.74,438.22l7.13-9.53,87.03,2.4-12.49,154.84-7.75,149.26-45.14,1.58c-2.31-28.81-8.46-142.78-8.46-142.78h0l-7.74-60.2c-.87-3.81-4.07-22.8-7.35-38.01-1.89-8.74-9-31.49-5.22-57.55Z"/>
      <g>
        <g>
          <path class="cls-1" d="m133.95,717.81l-11.61,44.68,82.85,21.28c1.69-9.23-34.87-38.25-34.87-38.25l5.45-16.85-41.81-10.87Z"/>
          <path class="cls-8" d="m141.71,734.73c-1.9.07-3.63,1.84-3.68,3.81-.04,1.96,1.66,3.77,3.56,3.74,1.9-.04,4.04-2.1,3.87-4.05-.17-1.95-2.28-3.96-4.12-3.45"/>
          <path class="cls-7" d="m122.34,762.48l1.85-7.14,78.31,21.65s3.88,3.89,2.68,6.76l-82.85-21.28Z"/>
          <path class="cls-7" d="m178.04,752.09c0,.48-2.14.79-4.15,2.39-2.05,1.54-2.95,3.57-3.39,3.44-.44-.03-.08-2.83,2.44-4.77,2.51-1.96,5.19-1.51,5.1-1.06Z"/>
          <path class="cls-7" d="m181.09,765.95c-.43,0-.49-2.48,1.29-4.74,1.76-2.28,4.12-2.77,4.21-2.34.16.44-1.54,1.48-2.97,3.36-1.47,1.85-2.08,3.78-2.53,3.72Z"/>
          <path class="cls-7" d="m174.15,733.83c-.29.38-2.19-.77-4.77-1.21-2.57-.49-4.76-.09-4.89-.55-.18-.4,2.17-1.65,5.2-1.09,3.03.54,4.77,2.53,4.46,2.84Z"/>
        </g>
        <path class="cls-7" d="m172.43,749.07c.07.01.32-.98.23-2.82-.12-1.81-.66-4.52-2.45-7.3-.9-1.37-2.09-2.74-3.68-3.87-.77-.54-1.96-1.13-3.2-.58-1.16.53-1.82,1.79-1.9,3.02.08,4.75,3.52,9.17,8.25,10.88,4.85,1.72,10.02-.3,12.86-3.61.7-.84,1.37-1.7,1.73-2.83.17-.55.25-1.21.03-1.85-.21-.63-.71-1.13-1.28-1.35-1.14-.39-2.12-.07-2.96.26-.83.38-1.54.78-2.22,1.21-2.71,1.73-4.45,3.75-5.48,5.22-1.04,1.48-1.4,2.42-1.33,2.46.21.21,2-3.63,7.3-6.82,1.28-.7,2.95-1.71,4.29-1.24.59.24.81.92.53,1.73-.26.79-.87,1.59-1.51,2.34-2.6,2.93-7.26,4.68-11.52,3.16-4.2-1.43-7.34-5.66-7.43-9.45.03-.88.5-1.68,1.14-1.99.61-.31,1.41-.04,2.11.43,1.45.97,2.62,2.22,3.5,3.46,1.77,2.53,2.44,5.06,2.71,6.79.25,1.75.18,2.75.29,2.76Z"/>
      </g>
      <path class="cls-7" d="m190.2,438.22s38.04,147.28,39.09,161.16c1.05,13.88-51.75,139.74-51.75,139.74l-48.5-11.85,39.05-134.71s-20.62-44.62-20.16-45.94c1.21-3.47-9.56-90.45-9.56-90.45l51.84-17.97Z"/>
      <path class="cls-1" d="m228.5,602.74s-.1.22-.26.67c-.17.49-.4,1.15-.7,2-.61,1.8-1.5,4.4-2.63,7.74-2.28,6.73-5.66,16.49-10.04,28.58-8.73,24.18-21.72,57.6-37.72,94.83l.53-.26c-6.86-1.68-14.08-3.44-21.42-5.24-9.28-2.26-18.37-4.48-27.08-6.61l.33.57c10.87-37.53,20.43-70.56,27.29-94.24,3.38-11.81,6.09-21.28,7.97-27.85.91-3.24,1.61-5.76,2.11-7.51.22-.83.4-1.47.53-1.95.11-.44.16-.67.15-.67-.01,0-.09.21-.23.65-.15.47-.35,1.11-.6,1.93-.53,1.74-1.28,4.25-2.26,7.46-1.94,6.55-4.74,16-8.23,27.78-6.93,23.67-16.6,56.66-27.59,94.16l-.13.46.46.11c8.71,2.13,17.8,4.35,27.08,6.62,7.34,1.79,14.56,3.55,21.42,5.23l.38.09.15-.36c15.98-37.26,28.87-70.74,37.45-94.98,4.3-12.12,7.59-21.91,9.78-28.68,1.07-3.36,1.9-5.97,2.48-7.79.26-.86.47-1.53.62-2.03.13-.46.2-.69.18-.7Z"/>
    </g>
    <g>
      <path class="cls-7" d="m201.78,223.3c-.21-4.51,1.47-8.86,2.89-13.15,1.42-4.29,2.6-8.92,1.39-13.27-1.52-5.47-6.45-9.28-9.09-14.3-2.65-5.05-2.84-10.98-3.31-16.66-.47-5.69-1.43-11.7-5.2-15.99-4.77-5.42-17.25-6.4-23.14-2.22-.91,32.33-8.57,65.05-1.65,96.64,15.77.67,31.7-3.13,45.46-10.86-4.42-.9-7.15-5.68-7.36-10.19Z"/>
      <path class="cls-11" d="m132.88,254.56l-4.45-89.25c-.17-3.59,2.43-6.71,5.99-7.19l36.44-10.32c11.72-1.58,19.94,12.67,21.02,24.45,1.2,13.08,2.14,29.1.87,38.92-2.56,19.75-17.56,22.68-17.56,22.68.02,19.45.41,20.89.41,20.89l-7.42,15.3-35.29-15.49Z"/>
      <path class="cls-7" d="m187.49,188.57c.09,1.33-.97,2.5-2.36,2.61-1.38.11-2.58-.87-2.66-2.2-.08-1.33.97-2.5,2.36-2.61,1.39-.11,2.58.87,2.67,2.2Z"/>
      <path class="cls-7" d="m188.63,180.69c-.3.34-2.25-1.02-4.97-.94-2.71.05-4.66,1.5-4.97,1.17-.15-.14.15-.75,1-1.4.84-.65,2.27-1.31,3.96-1.35,1.69-.04,3.13.54,3.97,1.16.85.62,1.15,1.2,1,1.35Z"/>
      <path class="cls-7" d="m164.47,189.33c.09,1.33-.97,2.5-2.36,2.61-1.38.11-2.58-.87-2.66-2.2-.09-1.33.97-2.5,2.36-2.61,1.39-.11,2.58.87,2.67,2.2Z"/>
      <path class="cls-7" d="m161.97,181.95c-.3.34-2.26-1.02-4.97-.94-2.71.04-4.66,1.5-4.97,1.17-.15-.14.15-.75,1-1.4.84-.65,2.27-1.31,3.96-1.35,1.69-.04,3.13.54,3.97,1.16.85.62,1.15,1.2,1,1.35Z"/>
      <path class="cls-7" d="m172.39,201.79c-.02-.15,1.66-.49,4.38-.92.69-.09,1.34-.25,1.45-.72.15-.51-.16-1.24-.52-2.04-.7-1.66-1.43-3.4-2.2-5.22-3.06-7.43-5.29-13.55-4.99-13.67.3-.12,3.02,5.8,6.08,13.24.74,1.83,1.44,3.58,2.11,5.25.28.78.76,1.66.44,2.71-.17.52-.67.91-1.11,1.05-.44.15-.83.17-1.17.2-2.75.23-4.45.29-4.47.13Z"/>
      <path class="cls-6" d="m175.18,233.85s-13.2,1.23-26.53-6.28c0,0,7.01,13.83,26.63,11.43l-.1-5.15Z"/>
      <path class="cls-6" d="m172.17,208.26c-1.37-1.82-3.54-2.9-5.58-2.76-1.41.09-2.78.79-3.52,2.04-.74,1.26-.73,3.1.19,4.38,1.03,1.45,2.93,1.87,4.45,1.46,1.52-.42,2.76-1.5,3.93-2.58.32-.3.65-.61.83-1.04.18-.43.17-1-.15-1.37"/>
      <path class="cls-7" d="m164.46,203.9c.44-.04.53,2.91,3.11,4.93,2.58,2.03,5.71,1.61,5.74,2.02.05.18-.68.59-2.01.67-1.3.08-3.21-.28-4.79-1.52-1.57-1.24-2.28-2.93-2.42-4.14-.15-1.23.16-1.97.36-1.96Z"/>
      <path class="cls-2" d="m162.85,170.75c-.25.75-2.97.47-6.14.95-3.18.41-5.72,1.42-6.16.77-.2-.31.23-1.02,1.25-1.76,1.01-.74,2.63-1.47,4.54-1.73,1.91-.26,3.66,0,4.84.43,1.18.44,1.79,1,1.68,1.35Z"/>
      <path class="cls-7" d="m187.41,171.38c-.46.63-2.35.04-4.6.08-2.25-.05-4.14.53-4.6-.1-.2-.31.08-.93.9-1.54.8-.6,2.16-1.12,3.71-1.12,1.55,0,2.9.53,3.7,1.13.81.61,1.09,1.24.89,1.54Z"/>
      <path class="cls-7" d="m175.19,147.68c-3.37-8.08-10.68-9.79-18.51-10.62s-19.45,2.4-25.92,6.63c-5.05,3.3-10.72,7.48-14.35,12.16-3.48,4.48-5.03,9.6-7.18,14.77-3.35,8.04-3.14,16.94-3.61,25.56-.59,10.84-2.33,21.62-5.18,32.13-1.02,3.77-2.07,8.28,3.27,10.44.99.4,2.04.62,3.1.75,8.29,1,16.3,3.69,25.51,4.28h5.69c7.2-.01,10.88-4.65,10.64-10.53-.74-17.76-9.41-46.93-10.36-52.53,0,0-2.99-38.31,36.91-33.05Z"/>
      <path class="cls-7" d="m172.59,147.48c-2.55,1.8-3.72,5.02-4.14,8.12-.42,3.1-.24,6.26-.82,9.34-1.16,6.14-5.51,11.6-11.25,14.08-1.83.79-4.34,1.11-5.47-.53.22,4.34-2.55,8.67-6.57,10.29-2.91,1.17-6.18.99-9.24,1.67-3.06.68-6.28,2.79-6.44,5.93l-1.29-21.83,6.14-19.3,18.87-11.23,20.22,3.48Z"/>
      <path class="cls-8" d="m139.15,183.47s.74-.41,1.8-1.46c1.04-1.06,2.23-2.93,2.98-5.5.77-2.56,1.07-5.76,1.32-9.3.26-3.54.42-7.47,1.33-11.5.92-4.01,2.64-7.71,5.14-10.31,1.24-1.29,2.65-2.33,4.12-2.96,1.46-.65,2.94-.97,4.29-1.06,2.73-.18,4.9.64,6.15,1.46.33.19.59.41.81.59.23.18.41.35.54.5.27.29.41.44.4.45-.04.04-.56-.63-1.83-1.42-1.26-.77-3.39-1.53-6.06-1.32-2.64.19-5.79,1.37-8.19,3.99-2.43,2.56-4.12,6.19-5.03,10.16-.9,3.98-1.07,7.9-1.35,11.44-.27,3.54-.6,6.76-1.41,9.35-.78,2.6-2.03,4.48-3.13,5.53-1.11,1.04-1.9,1.36-1.9,1.36Z"/>
      <path class="cls-1" d="m122.75,180.84c-.01-.07,1.1,0,2.88-.72,1.77-.73,4.04-2.48,6.02-5.3.98-1.4,1.96-3.03,2.77-4.88.82-1.84,1.27-3.97,1.54-6.22.27-2.26.37-4.65.63-7.13.14-1.24.31-2.5.6-3.76.29-1.26.71-2.51,1.25-3.73,2.22-4.86,6.29-8.43,10.55-10.16,4.28-1.78,8.65-1.67,11.99-.81,3.39.84,5.83,2.37,7.34,3.55,1.52,1.2,2.19,2.05,2.19,2.05,0,0-.06-.04-.15-.13-.11-.1-.25-.23-.42-.39-.18-.18-.41-.39-.7-.62-.29-.23-.6-.52-1-.8-1.53-1.14-3.97-2.61-7.32-3.41-3.31-.81-7.6-.9-11.79.87-4.17,1.71-8.16,5.23-10.34,10-.53,1.19-.93,2.42-1.22,3.66-.29,1.24-.46,2.49-.6,3.72-.26,2.46-.37,4.86-.65,7.13-.28,2.27-.75,4.43-1.6,6.3-.83,1.87-1.83,3.49-2.84,4.91-2.03,2.83-4.36,4.58-6.18,5.28-.91.34-1.66.49-2.16.54-.24.02-.43.03-.58.04-.13,0-.2,0-.2,0Z"/>
      <path class="cls-1" d="m150.91,178.48s0,.06,0,.19c-.01.14-.03.32-.05.54-.03.24-.05.54-.11.88-.07.35-.15.75-.24,1.2-.26.88-.57,1.98-1.25,3.12-.65,1.14-1.62,2.35-2.98,3.35-2.7,2.06-6.84,3.01-11.32,2.8-2.25-.1-4.62-.45-7.01-1.09-2.39-.64-4.85-1.51-7.16-2.88l-.45-.26.52-.07c2.76-.4,5.56-1.24,8.22-2.55l.14-.07.11.35c-6.19,1.02-12.32-.36-17-3.05l-.34-.19.37-.12c3.93-1.27,7.42-2.98,10.09-5.11,2.68-2.11,4.42-4.67,5.26-7,.86-2.35.83-4.36.86-5.7-.05-.65-.09-1.17-.12-1.54,0-.16-.02-.29-.02-.4,0-.09,0-.14,0-.14,0,0,.01.04.03.13.01.11.03.23.05.4.04.37.1.89.17,1.54,0,1.34.07,3.38-.78,5.77-.83,2.37-2.58,5-5.28,7.16-2.69,2.17-6.21,3.91-10.16,5.21l.03-.31c4.63,2.63,10.68,3.99,16.77,2.98l1.27-.21-1.15.56-.14.07c-2.69,1.33-5.54,2.18-8.33,2.57l.07-.34c2.26,1.34,4.69,2.22,7.06,2.85,2.37.64,4.71,1,6.94,1.11,4.44.23,8.51-.69,11.17-2.67,1.34-.97,2.3-2.13,2.96-3.25.68-1.11,1.02-2.19,1.29-3.06.1-.44.19-.83.27-1.18.07-.34.1-.64.14-.87.04-.22.06-.4.09-.54.02-.12.03-.18.04-.18Z"/>
      <path class="cls-1" d="m110.55,232.22c-.1-.01,1.09-10.52,2.67-23.47,1.58-12.95,2.94-23.44,3.04-23.43.1.01-1.09,10.52-2.67,23.47-1.57,12.95-2.93,23.44-3.04,23.43Z"/>
    </g>
    <g>
      <g>
        <g>
          <g>
            <path class="cls-7" d="m297.42,228.15l-30.35,27.09c-1.41,1.16-1.38,3.19-.28,4.36h.06c1.09,1.15,2.83,1.27,4.05.24l30.16-27.25,2.87-6.24-6.51,1.79Z"/>
            <path class="cls-1" d="m300.98,227.17l1.71,1.85-1.64,3.58s-1.7.15-1.6-1.54c0,0-1.72.25-1.46-1.55,0,0-1.21-.06-.58-1.36l3.57-.98Z"/>
          </g>
          <path class="cls-11" d="m262.22,305.52l-1.01-.18,20.74-36.26-3.28-10.45s-3.8-14.89-.63-18.69c0,0,6.93-8.15,9.18-8.04,2.25.11,4.05.56,4.49,2.25,0,0,3.82-.45,4.83.79,1.01,1.24,1.8,2.7,1.8,2.7,0,0,4.16-.34,5.28,3.26,0,0,3.93,2.02,4.27,4.94.34,2.92-.79,16.52-2.02,20-1.24,3.48-5.84,10.79-7.19,21.58-1.35,10.79-6.1,17.79-10.33,33.56l-11.48,4.54-14.66-19.99Z"/>
          <g>
            <path class="cls-6" d="m296.55,247.72c.06.25,1.57-.03,3.12.71,1.57.72,2.31,2.06,2.54,1.94.25-.03-.21-1.85-2.15-2.78-1.96-.9-3.65-.09-3.51.13Z"/>
            <path class="cls-6" d="m290.12,244.06c.08.24,1.23-.02,2.32.61,1.1.61,1.46,1.73,1.71,1.68.12-.02.2-.35.05-.87-.14-.51-.57-1.19-1.31-1.61-.74-.42-1.54-.44-2.05-.3-.52.14-.77.38-.72.49Z"/>
            <path class="cls-6" d="m282.97,239.53c.07.25,1.43-.03,2.76.71,1.34.72,1.85,2.01,2.09,1.94.12-.03.16-.42-.06-.99-.21-.56-.74-1.3-1.59-1.76-.85-.46-1.75-.51-2.34-.38-.6.12-.9.37-.86.48Z"/>
            <path class="cls-6" d="m299.91,245.69c.22.13,1.07-.92,2.06-2.23.98-1.32,1.75-2.43,1.56-2.6-.18-.17-1.28.69-2.3,2.05-1.02,1.36-1.54,2.65-1.32,2.78Z"/>
            <path class="cls-6" d="m294.27,242.35c.25.09.9-1.13,1.97-2.39,1.05-1.28,2.14-2.14,2-2.36-.11-.22-1.53.36-2.71,1.77-1.18,1.41-1.49,2.91-1.26,2.98Z"/>
            <path class="cls-6" d="m287.76,238.47c.25.08.83-1.14,1.94-2.3,1.09-1.18,2.26-1.84,2.16-2.09-.07-.24-1.58.11-2.84,1.46-1.26,1.34-1.5,2.88-1.26,2.93Z"/>
          </g>
        </g>
        <g>
          <path class="cls-2" d="m101.29,272.87c-5.65,5.12-9.42,11.96-10.72,19.47-3.9,22.41-11.99,69.92-11.53,75.06.61,6.75,3.99,17.49,11.66,19.33s14.73,0,14.73,0l5.35-122.45-9.49,8.6Z"/>
          <path class="cls-2" d="m100.9,397.48l.11-120.16s1.73-4.91,8.77-12.12c3.24-3.31,18.58-13.99,18.58-13.99l1.29-7.94c4.92-3.82,13.72-6.26,19.94-6.18,20.23.26,32.5,9.32,32.5,9.32l1.99,7.83,9.87,2.81,16.04,65.67,5.66,89.34,16.63,182.24-147.85-3.38,4.37-119.35c.44-11.89,1.85-23.72,4.22-35.38l7.88-38.68Z"/>
          <path class="cls-2" d="m181.36,256.11s10.91.69,11.88.91c3.38.78,12.67,9.3,23.25,19.79,10.09,10.01,29.95,30.84,29.95,30.84,0,0,3.57-3.6,7.64,1.21l24.16-38.4s20.75-.1,24.45,17.66c0,0-12.92,32.35-18.83,42.19,0,0-21.87,36.29-39.14,29.72-15.78-6-35.56-22.06-38.35-25.49l-23.23-16.58s-21.5-31.71-14.47-46.88c7.03-15.17,12.67-14.99,12.67-14.99Z"/>
          <path class="cls-7" d="m184.08,254.23s-.2-.02-.56-.12c-.41-.11-.94-.25-1.58-.42-1.38-.35-3.38-.83-5.88-1.3-4.99-.98-11.97-1.91-19.71-2.43-7.75-.47-14.79-.43-19.85.06-2.53.22-4.57.53-5.96.79-.66.13-1.19.24-1.61.32-.37.07-.57.1-.57.08,0-.02.18-.07.55-.17.41-.11.94-.24,1.59-.41,1.39-.31,3.43-.68,5.97-.94,5.07-.57,12.14-.67,19.91-.2,7.76.52,14.75,1.5,19.74,2.57,2.5.52,4.49,1.05,5.86,1.45.64.21,1.16.37,1.56.5.36.12.54.19.53.21Z"/>
          <g class="cls-13">
            <path class="cls-4" d="m128.71,251.11c16.71,2.96,33.65.03,51.34,2.12-17.08-3.53-34.86-5.21-51.34-2.12"/>
          </g>
        </g>
        <path class="cls-7" d="m180.05,314.51s.14.14.42.37c.32.26.75.6,1.3,1.04,1.19.93,2.9,2.25,5.1,3.97,4.51,3.47,11.06,8.51,19.34,14.87l-.02-.02c5.63,5.13,12.49,10.7,20.66,16.16,4.1,2.7,8.55,5.36,13.45,7.65,1.21.6,2.49,1.1,3.76,1.63.62.29,1.34.45,2.01.67.7.15,1.41.27,2.13.33,2.89.18,5.8-.58,8.47-1.82,5.33-2.57,9.92-6.67,14.17-11.17,4.23-4.54,8.13-9.62,11.74-15.05,1.85-2.69,3.4-5.66,4.86-8.64,1.48-2.99,2.87-6.05,4.26-9.14,2.77-6.19,5.46-12.55,8.14-19.03,1.1-2.7,2.19-5.39,3.28-8.05l.06-.14-.03-.13c-.73-2.75-1.61-5.53-3.33-7.81-1.64-2.3-3.7-4.29-6.07-5.75-4.76-2.9-10.17-4.26-15.51-4.45h-.24s-.14.21-.14.21c-8.62,13.73-16.72,26.64-24.12,38.42l.64-.04c-.99-1.18-2.29-2.21-3.87-2.55-1.6-.31-3.2.27-4.34,1.33h.55c-7.77-7.96-14.87-15.23-21.16-21.68-3.14-3.21-6.08-6.22-8.8-9-2.76-2.73-5.33-5.2-7.67-7.4-4.69-4.4-8.5-7.7-11.27-9.74-1.38-1.03-2.51-1.71-3.31-2.1-.4-.2-.71-.32-.94-.37-.22-.06-.33-.09-.33-.08-.01.05.45.11,1.21.55.77.42,1.88,1.12,3.23,2.18,2.71,2.09,6.47,5.43,11.11,9.88,2.32,2.22,4.86,4.71,7.6,7.46,2.7,2.8,5.61,5.82,8.73,9.05,6.25,6.47,13.32,13.78,21.05,21.77l.26.27.29-.26c.95-.86,2.35-1.38,3.66-1.1,1.31.28,2.48,1.18,3.41,2.29l.35.42.29-.46c7.42-11.77,15.56-24.66,24.21-38.37l-.38.21c5.13.19,10.46,1.53,15.02,4.33,2.27,1.41,4.24,3.31,5.8,5.51,1.65,2.17,2.47,4.83,3.18,7.47l.02-.26c-1.08,2.66-2.18,5.34-3.27,8.04-2.67,6.47-5.36,12.82-8.12,19-1.38,3.09-2.77,6.14-4.24,9.12-1.47,2.98-2.96,5.87-4.79,8.54-3.58,5.4-7.45,10.44-11.63,14.95-4.19,4.47-8.72,8.52-13.88,11.02-2.58,1.21-5.35,1.93-8.07,1.77-.67-.06-1.34-.16-2-.3-.64-.21-1.28-.34-1.91-.63-1.26-.52-2.52-1-3.72-1.59-4.86-2.25-9.29-4.87-13.39-7.54-8.16-5.4-15.04-10.92-20.68-15.98h-.01s0-.02,0-.02c-8.34-6.28-14.94-11.25-19.49-14.67-2.24-1.67-3.98-2.96-5.19-3.86-.57-.41-1.01-.74-1.35-.98-.3-.22-.46-.32-.47-.31Z"/>
        <path class="cls-7" d="m170.14,301.38c.16-.1-1.76-2.74-3.61-7.59-1.83-4.76-3.43-12.11-1.32-19.74,1.08-3.76,3.02-7.04,5.26-9.58,2.26-2.54,4.76-4.38,7.07-5.51,4.65-2.32,8.04-2.07,7.99-2.31,0-.03-.2-.05-.59-.05-.38.02-.96-.04-1.69.07-1.47.12-3.59.6-6,1.7-2.41,1.09-5.05,2.94-7.42,5.53-2.36,2.59-4.4,5.98-5.52,9.9-1.07,3.91-1.21,7.84-.77,11.3.43,3.47,1.36,6.5,2.37,8.93,1.01,2.43,2.06,4.29,2.86,5.52.8,1.23,1.31,1.86,1.36,1.83Z"/>
        <path class="cls-7" d="m252.65,327.88c.21.08,1.78-4.09,2.15-9.52.4-5.43-.57-9.78-.79-9.73-.28.04.26,4.36-.13,9.66-.36,5.31-1.5,9.51-1.23,9.59Z"/>
        <path class="cls-7" d="m245.04,327.88c.21.08,1.78-4.09,2.15-9.52.4-5.43-.57-9.78-.79-9.73-.28.04.26,4.36-.13,9.66-.36,5.31-1.5,9.51-1.23,9.59Z"/>
      </g>
      <path class="cls-7" d="m101.01,282.77c-.25,0-.36,25.19-.23,56.25.13,31.08.43,56.26.69,56.26.25,0,.36-25.18.23-56.26-.13-31.06-.43-56.25-.69-56.25Z"/>
      <path class="cls-7" d="m201.73,594.28s.02-.24.02-.7c-.01-.51-.02-1.19-.04-2.05-.06-1.86-.14-4.51-.25-7.9-.26-6.9-.62-16.81-1.07-29.03-1-24.55-2.37-58.37-3.89-95.74-1.62-37.37-3.09-71.2-4.16-95.74-.58-12.21-1.04-22.11-1.37-29.01-.18-3.38-.32-6.03-.42-7.89-.06-.86-.1-1.54-.13-2.05-.03-.46-.06-.7-.08-.7-.02,0-.02.24-.02.7,0,.51.02,1.19.04,2.05.06,1.86.14,4.51.25,7.89.26,6.9.62,16.81,1.07,29.02,1,24.55,2.37,58.38,3.89,95.76,1.62,37.36,3.09,71.19,4.16,95.73.58,12.21,1.04,22.11,1.37,29.01.18,3.38.32,6.03.42,7.88.06.86.1,1.54.13,2.05.04.46.06.7.08.7Z"/>
      <path class="cls-7" d="m101.46,395.28c-.01.06.81.26,2.31.56,1.5.31,3.67.68,6.38,1.08,5.41.78,12.94,1.52,21.29,1.53,8.35,0,15.89-.73,21.29-1.52,2.7-.4,4.88-.78,6.38-1.09,1.5-.31,2.32-.51,2.31-.57s-.85.02-2.36.22c-1.51.21-3.7.49-6.4.8-5.41.63-12.91,1.25-21.21,1.25-8.3-.01-15.8-.64-21.21-1.26-2.56-.31-4.71-.58-6.4-.79-1.51-.19-2.35-.27-2.37-.21Z"/>
      <path class="cls-7" d="m128.36,251.2s-.14.04-.4.17c-.3.16-.68.35-1.13.59-.99.53-2.42,1.36-4.2,2.53-3.57,2.32-8.58,5.93-14.36,10.9-2.88,2.49-5.97,5.31-8.99,8.64-1.52,1.65-3,3.47-4.24,5.57-.67,1.04-1,2.23-1.5,3.37-.37,1.17-.78,2.36-1.14,3.57-2.78,9.7-4.94,20.56-7.06,31.97-2.06,11.43-3.77,22.36-5.05,32.34-.63,4.99-1.17,9.74-1.55,14.21-.32,4.47-.14,8.8,1.39,12.4,1.47,3.62,4.18,6.18,6.86,7.64,2.71,1.47,5.31,2.05,7.42,2.36,2.12.32,3.79.3,4.91.26.56-.02.99-.06,1.27-.1.29-.03.43-.07.43-.08,0-.04-.59.01-1.71,0-1.11-.02-2.77-.06-4.85-.43-2.07-.37-4.62-.99-7.22-2.46-2.58-1.46-5.13-3.94-6.51-7.44-1.43-3.48-1.58-7.67-1.23-12.08.41-4.44.97-9.18,1.63-14.16,1.32-9.96,3.06-20.87,5.11-32.29,2.11-11.39,4.25-22.25,6.97-31.9.35-1.2.75-2.37,1.11-3.53.47-1.1.8-2.28,1.42-3.25,1.17-2.01,2.61-3.81,4.1-5.45,2.96-3.31,6.01-6.15,8.85-8.66,5.7-5.01,10.63-8.69,14.13-11.09,1.74-1.21,3.14-2.09,4.09-2.67.44-.27.79-.49,1.09-.66.24-.15.36-.24.36-.25Z"/>
      <path class="cls-7" d="m100.9,397.48s-.09.3-.23.91c-.14.63-.34,1.52-.6,2.69-.52,2.4-1.28,5.91-2.27,10.46-.98,4.58-2.19,10.2-3.6,16.78-1.33,6.6-3.24,14.09-4.44,22.64-.6,4.27-1.07,8.78-1.33,13.52-.18,4.74-.36,9.68-.55,14.82-.36,10.29-.75,21.37-1.17,33.16-.82,23.58-1.74,49.96-2.73,78.42l-.02.44h.44c32.44.76,68.02,1.58,105.17,2.44,14.62.33,29,.66,42.68.97h.51s-.04-.5-.04-.5c-6.35-72.52-11.96-136.56-15.99-182.5-2.05-22.94-3.69-41.36-4.83-54.07-.58-6.32-1.04-11.22-1.34-14.57-.16-1.64-.28-2.9-.37-3.77-.09-.85-.15-1.28-.15-1.28,0,0,0,.44.07,1.29.07.87.16,2.13.29,3.78.27,3.35.67,8.25,1.19,14.58,1.07,12.72,2.62,31.14,4.55,54.09,3.95,45.95,9.45,110,15.68,182.53l.46-.5c-13.68-.31-28.06-.64-42.68-.98-37.15-.84-72.73-1.64-105.17-2.38l.42.45c.94-28.46,1.81-54.84,2.59-78.42.38-11.79.74-22.87,1.08-33.16.17-5.14.34-10.09.5-14.82.24-4.72.68-9.22,1.27-13.48,1.16-8.51,3.02-16.02,4.32-22.63,1.36-6.59,2.52-12.22,3.47-16.81.93-4.56,1.65-8.08,2.14-10.49.23-1.18.41-2.07.53-2.71.12-.61.16-.92.16-.92Z"/>
      <g>
        <path class="cls-2" d="m201.73,430.28h22.85s10.59,65.65-.89,69.94c-11.48,4.29-16.25-5.71-16.25-5.71l-5.71-64.23Z"/>
        <path class="cls-7" d="m201.73,430.28s0,.39.05,1.18c.06.87.15,2.04.26,3.53.25,3.18.61,7.7,1.06,13.33.97,11.53,2.33,27.62,3.9,46.23v.09s.04.06.04.06c.95,1.79,2.27,3.33,3.9,4.6,1.64,1.24,3.65,2.08,5.77,2.33,2.11.26,4.3-.02,6.33-.73.5-.15,1.05-.3,1.56-.64.51-.31.91-.73,1.28-1.17.72-.89,1.18-1.91,1.57-2.94,1.12-3.2,1.51-6.49,1.77-9.7.24-3.22.29-6.39.26-9.49-.08-6.2-.47-12.14-.96-17.75-1-11.2-2.36-21.06-3.63-28.99l-.04-.26h-.26c-7.14.07-12.87.13-16.89.17-1.89.03-3.38.06-4.46.07-.46.01-.83.02-1.13.03-.25.01-.37.02-.36.03s.16.02.43.03c.32,0,.71.02,1.19.03,1.1.02,2.62.04,4.54.07,3.98.04,9.64.1,16.69.17l-.3-.26c1.18,7.92,2.45,17.78,3.4,28.96.46,5.59.84,11.51.9,17.68.03,3.08-.03,6.23-.27,9.41-.26,3.17-.65,6.42-1.72,9.45-.72,1.93-1.8,3.82-3.83,4.19-1.93.68-3.98.94-5.93.7-3.96-.41-7.26-3.19-8.98-6.41l.04.15c-1.73-18.46-3.22-34.44-4.29-45.87-.56-5.67-1-10.21-1.32-13.41-.16-1.52-.28-2.73-.38-3.62-.09-.83-.15-1.27-.17-1.29Z"/>
      </g>
    </g>
  </g>
  <g>
    <g>
      <path class="cls-1" d="m470.07,264.88l23.56,6.84,29.09,31.71-6.01,14.49-9.43-8.82s-26.25-3.19-28.3-6.63c-2.05-3.44-.11-6.59-.11-6.59,0,0-1.32-3.82-.59-6.89.72-3.07,3.07-3.62,3.07-3.62,0,0-2.92-.97-1.89-4.51,1.02-3.55,3.52-4.35,3.52-4.35,0,0-15.89-6.2-17.38-8.12-.52-.67-.37-1.37.05-2,.95-1.43,2.78-1.98,4.43-1.51Z"/>
      <path class="cls-1" d="m527.8,293.26l-8.54-3.28-11.05-16.94-22.78-4.55s-3.69,1.9,1.89,8.03c5.58,6.13,12.83,4.42,12.83,4.42,0,0-.82,14.04,3.49,20.06,4.31,6.01,17.58,6.94,17.58,6.94l6.58-14.67Z"/>
      <path class="cls-7" d="m503.43,301.99s-.45-.42-1.06-1.33c-.62-.91-1.39-2.31-2.09-4.16-1.4-3.65-2.22-9.41-.22-15.28l.39.61c-.26-.03-.53-.05-.81-.08-3.08-.31-6.08-.77-8.61-1.9-2.55-1.08-4.43-2.96-5.4-4.81-1.01-1.85-1.17-3.63-.98-4.78.18-1.16.55-1.71.58-1.69.08.03-.16.62-.23,1.72-.07,1.09.18,2.73,1.19,4.42,1,1.69,2.74,3.37,5.17,4.35,2.41,1.03,5.31,1.46,8.37,1.76.28.03.55.06.81.08l.58.06-.19.55c-1.92,5.61-1.25,11.16-.04,14.77,1.2,3.67,2.7,5.6,2.54,5.7Z"/>
      <path class="cls-7" d="m482,286.03c.03-.06.84.24,2.34.66,1.5.45,3.69.99,6.38,1.83,1.34.43,2.82.93,4.3,1.76.73.42,1.54.97,1.98,1.92.45.95.25,2.11-.27,2.97-.52.88-1.29,1.6-2.25,2.07-.97.5-2.16.49-3.15.35-.51-.06-1-.13-1.5-.16-.55-.04-1.07-.15-1.59-.26-1.04-.23-2.06-.53-3.09-.85-.94-.29-1.86-.58-2.73-.86l.24-.88c2.01.57,3.67,1.59,5.28,2.51.79.46,1.57.91,2.34,1.36.75.43,1.56.74,2.31,1.29.74.52,1.36,1.38,1.4,2.33.03.47-.11.98-.4,1.36-.29.38-.66.62-1.03.8-1.46.64-2.9.79-4.19.78-2.59-.08-4.56-.74-5.9-1.16-1.33-.45-2.04-.76-2.02-.81.02-.06.77.13,2.12.48,1.35.32,3.33.87,5.8.86,1.22-.02,2.6-.23,3.86-.82.61-.3,1.04-.8.97-1.46-.05-.66-.47-1.28-1.1-1.71-.62-.45-1.44-.76-2.23-1.21-.77-.44-1.57-.89-2.37-1.34-1.59-.9-3.26-1.88-5.06-2.38l.24-.88c.88.27,1.81.56,2.75.86,1.02.31,2.02.61,3.01.84.49.11.99.21,1.46.25.53.04,1.04.11,1.53.18.99.14,1.88.14,2.66-.25.79-.37,1.47-.99,1.9-1.7.44-.71.57-1.53.26-2.21-.29-.68-.94-1.18-1.62-1.58-1.38-.81-2.81-1.33-4.12-1.8-2.64-.9-4.82-1.55-6.29-2.11-1.48-.54-2.25-.95-2.23-1Z"/>
      <path class="cls-7" d="m483.23,276.67c.02-.1,1.94.22,4.86,1.33,1.46.56,3.15,1.34,4.95,2.36.9.51,1.82,1.09,2.74,1.73.88.64,2.06,1.39,2.33,2.9.11.74-.23,1.49-.71,1.96-.48.49-1.1.78-1.69.92-1.19.27-2.29.2-3.33.14-2.07-.16-3.9-.49-5.42-.82-3.05-.64-4.85-1.42-4.8-1.54.04-.12,1.87.43,4.92.9,1.52.24,3.34.5,5.35.61.99.04,2.08.07,3.06-.17.95-.21,1.83-.99,1.71-1.89-.13-.91-1.06-1.67-1.93-2.27-.9-.64-1.79-1.22-2.66-1.74-1.74-1.04-3.37-1.86-4.77-2.49-2.81-1.25-4.65-1.79-4.61-1.94Z"/>
    </g>
    <path class="cls-2" d="m573.24,309.5l10.14-51.58c2.01-10.25,7.93-19.32,16.51-25.28l17.72-12.33-7.28,114.95-3.03,8.86c-7.3,18.13-25.59,16.15-42,9.23-.59-.25-1.17-.51-1.72-.78l-50.49-30.07,15.71-30.94,44.45,17.93Z"/>
  </g>
  <g>
    <g>
      <path class="cls-1" d="m640.48,701.54l11.26,39s-35.86,24.54-34.48,31.95l76.4-19.11-15.05-61.48-38.13,9.65Z"/>
      <path class="cls-2" d="m674.53,731.32c1.58.03,3.02,1.44,3.05,3.02.03,1.58-1.39,3.05-2.97,3.05-1.58,0-3.36-1.64-3.21-3.22.15-1.57,1.91-3.21,3.44-2.83"/>
      <path class="cls-7" d="m693.65,753.37l-1.76-6.14-72.59,20.62s-3.03,2.33-2.05,4.63l76.4-19.11Z"/>
      <path class="cls-7" d="m650.4,740.46c.11.37,2.01.07,4.15.81,2.16.68,3.51,2.06,3.81,1.83.33-.16-.79-2.25-3.39-3.1-2.59-.87-4.74.14-4.57.46Z"/>
      <path class="cls-7" d="m643.22,745.78c0,.38,1.78.61,3.44,1.87,1.7,1.21,2.45,2.84,2.81,2.73.37-.03.08-2.28-2.02-3.81-2.08-1.55-4.32-1.15-4.23-.8Z"/>
      <path class="cls-7" d="m641.06,756.5c.36,0,.41-2-1.06-3.8-1.46-1.81-3.42-2.18-3.5-1.83-.13.36,1.27,1.17,2.46,2.67,1.22,1.47,1.72,3.02,2.1,2.96Z"/>
      <path class="cls-7" d="m648.82,731.29c.24.3,1.82-.64,3.97-1.03,2.14-.43,3.95-.13,4.07-.5.15-.32-1.8-1.3-4.32-.82-2.52.47-3.98,2.09-3.72,2.34Z"/>
    </g>
    <g>
      <path class="cls-1" d="m667.26,710.72l1.77,40.55s-40.62,15.42-41.02,22.95l78.75-.61-.17-63.3-39.33.41Z"/>
      <path class="cls-2" d="m694.81,750.7c1.53.4,2.59,2.11,2.25,3.65-.34,1.54-2.07,2.64-3.6,2.26-1.53-.38-2.88-2.39-2.36-3.88.51-1.49,2.61-2.67,4.01-1.94"/>
      <path class="cls-7" d="m706.76,773.6l-.27-6.38-75.4,2.97s-3.49,1.55-3.08,4.02l78.75-.61Z"/>
      <path class="cls-7" d="m667.75,750.88c.02.38,1.94.54,3.84,1.77,1.93,1.17,2.92,2.83,3.28,2.68.35-.08-.24-2.37-2.57-3.81-2.31-1.46-4.64-.98-4.55-.63Z"/>
      <path class="cls-7" d="m659.52,754.36c-.08.37,1.59,1.01,2.9,2.63,1.37,1.58,1.71,3.33,2.09,3.31.36.06.61-2.2-1.07-4.17-1.66-1.99-3.92-2.14-3.93-1.77Z"/>
      <path class="cls-7" d="m654.91,764.28c.35.08.87-1.85-.13-3.94-.99-2.11-2.81-2.92-2.97-2.6-.21.32.96,1.44,1.76,3.17.84,1.72.96,3.34,1.34,3.37Z"/>
      <path class="cls-7" d="m668.37,741.59c.16.35,1.92-.2,4.1-.06,2.18.09,3.87.8,4.07.47.22-.28-1.44-1.69-4.01-1.81-2.56-.14-4.36,1.1-4.17,1.4Z"/>
    </g>
    <g>
      <path class="cls-7" d="m715.98,413.99v32.06l-8.61,124.91s5.36,60.6,8.65,94.8c2.86,29.71-1.81,81.44-1.81,81.44h-50.12l-17.93-172.53-11.13-107.6-19.36-48.97,100.33-4.12Z"/>
      <polygon class="cls-7" points="581.36 419.7 593.58 593.85 644.29 724.33 646.62 732.19 676.56 724.95 654.29 416.18 581.36 419.7"/>
      <path class="cls-1" d="m635.15,468.37s-.02.25-.02.72c.01.52.02,1.23.04,2.13.06,1.92.14,4.66.25,8.17.2,7.1.71,17.35,1.43,30.02,1.51,25.34,4.33,60.3,8.73,98.78,4.33,38.5,9.11,73.24,12.61,98.37,1.77,12.53,3.21,22.68,4.22,29.76.51,3.47.91,6.19,1.19,8.08.14.89.25,1.58.33,2.1.08.47.13.71.15.71.02,0,0-.25-.05-.72-.06-.52-.14-1.22-.24-2.11-.24-1.9-.58-4.63-1.02-8.11-.93-7.09-2.27-17.25-3.92-29.8-3.33-25.16-8-59.9-12.33-98.39-4.4-38.46-7.32-73.4-9-98.71-.8-12.66-1.41-22.91-1.73-30-.18-3.5-.33-6.24-.43-8.16-.06-.9-.1-1.6-.13-2.12-.04-.48-.06-.72-.08-.72Z"/>
      <path class="cls-1" d="m631.97,424.77c0,1.42,1.15,2.58,2.58,2.58s2.58-1.15,2.58-2.58-1.15-2.58-2.58-2.58-2.58,1.15-2.58,2.58Z"/>
      <path class="cls-1" d="m587.9,449.11c.07.08,1.54-1.07,3.53-3.31,1.99-2.24,4.42-5.67,6.3-9.86,1.87-4.2,2.81-8.29,3.16-11.27.35-2.98.22-4.84.12-4.84-.16,0-.26,1.84-.77,4.75-.5,2.91-1.52,6.88-3.36,10.99-1.85,4.1-4.13,7.51-5.96,9.82-1.83,2.32-3.13,3.62-3.03,3.74Z"/>
    </g>
    <path class="cls-7" d="m668.36,743.97c-.14,0-.27,2.52-.35,6.54l.21-.32c-2.85,1.22-6.57,2.86-10.61,4.7-4.56,2.07-8.67,3.99-11.63,5.43s-4.76,2.38-4.7,2.49c.05.12,1.95-.62,4.97-1.9,3.02-1.28,7.18-3.11,11.74-5.18,4.04-1.83,7.72-3.55,10.52-4.89l.21-.1v-.22c-.09-4.02-.22-6.54-.36-6.54Z"/>
  </g>
  <path class="cls-2" d="m676.3,197.34l4.59,9.89s44.51,21.83,44.36,24.04c0,0-2.85,84.31-3.32,145.71h0c4.11,31.52,10.84,186.2,10.84,186.2l-167.24-3.96,26.47-298.76,27.52-44.34,10.35-8.4,46.43-10.38Z"/>
  <path class="cls-7" d="m604.3,560.14s-.02-.24,0-.71c.02-.52.05-1.21.09-2.09.1-1.89.25-4.58.43-8.02.42-7.02,1.01-17.09,1.75-29.5,1.51-24.95,3.58-59.34,5.87-97.32,2.19-38,4.17-72.39,5.6-97.35.67-12.42,1.21-22.49,1.58-29.51.19-3.44.35-6.13.45-8.02.06-.88.11-1.57.14-2.09.04-.47.06-.71.08-.71.02,0,.02.24.02.71-.01.52-.03,1.21-.05,2.09-.06,1.89-.16,4.59-.27,8.03-.24,6.97-.7,17.06-1.28,29.53-1.18,24.93-3.05,59.35-5.32,97.37-2.26,38.01-4.48,72.41-6.15,97.31-.86,12.41-1.56,22.47-2.05,29.48-.26,3.44-.47,6.13-.61,8.01-.08.88-.14,1.57-.18,2.08-.05.47-.08.71-.1.71Z"/>
  <g class="cls-13">
    <path class="cls-4" d="m717.17,367.55c-2.53-2.1-5.62-3.36-8.61-4.71-17.65-7.98-33.16-19.94-49.95-29.59-16.79-9.66-35.89-17.17-55.12-14.88l-22.45,20.99c2.29,4.97,7.98,7.59,13.43,8.11,5.45.51,10.91-.65,16.36-1.13,5.46-.48,11.31-.17,15.85,2.89,4.79,3.23,7.27,8.91,11.42,12.92,4.99,4.82,11.96,6.85,18.64,8.72,14.19,3.98,28.38,7.95,42.57,11.93,4.25,1.19,8.68,2.4,13.04,1.66,4.36-.73,8.62-4,8.99-8.4.27-3.27-1.65-6.41-4.17-8.5Z"/>
  </g>
  <path class="cls-2" d="m690.17,264.35l8.9,61.36-38.82-15.45-15.09,41.63s49.02,21.54,74.3,25.3c12.23,1.82,29.32-13.12,28.1-28.26-3.17-39.27-14.36-107.85-14.36-107.85,0,0-7.96-16.31-21.51-14.45-5.24.72-9.1,3.6-12.09,6.72-10.7,11.17-9.42,30.99-9.42,30.99Z"/>
  <polyline class="cls-10" points="629.87 207.73 626.16 233.36 619.52 284.82 648.44 235.18 675.8 201.05 631.63 227.47 631.66 207.24"/>
  <path class="cls-7" d="m681.08,208.79s-.24.72-.79,2.01c-.62,1.4-1.45,3.25-2.47,5.55-2.24,4.86-5.32,11.58-8.98,19.52l-.11.25h-.28c-1.92,0-3.95.02-6.04.02l.29-.81c1.41,1.15,2.91,2.38,4.44,3.63l.41.33-.38.37c-2.69,2.63-5.51,5.4-8.42,8.24-10.52,10.21-20.04,19.44-27.05,26.24-3.42,3.26-6.23,5.92-8.27,7.87-.93.86-1.68,1.55-2.28,2.11-.53.47-.82.71-.84.69-.02-.02.22-.31.71-.83.57-.59,1.28-1.33,2.16-2.23,2-2,4.73-4.74,8.06-8.09,6.95-6.85,16.41-16.15,26.85-26.44,2.91-2.84,5.74-5.6,8.43-8.22l.03.7c-1.52-1.26-3.02-2.5-4.42-3.66l-.98-.81h1.27c2.09.01,4.12.02,6.04.03l-.39.25c3.78-7.88,6.98-14.55,9.29-19.38,1.11-2.26,2.02-4.08,2.69-5.45.64-1.26,1-1.92,1.04-1.9Z"/>
  <path class="cls-7" d="m619.52,284.82c-.07,0-.27-1.13-.58-3.19-.31-2.22-.73-5.17-1.23-8.73-.99-7.38-2.3-17.58-3.69-28.85-.44-3.64-.87-7.16-1.28-10.51l-.05-.41.4-.1c2.53-.6,4.95-1.18,7.25-1.72l.03.85c-2.61-.47-5.04-.9-7.29-1.31l-.48-.09.2-.44c1.96-4.26,3.59-7.78,4.79-10.41.55-1.13,1-2.07,1.37-2.83.32-.64.51-.98.55-.96.04.02-.09.38-.34,1.05-.32.79-.71,1.75-1.18,2.92-1.13,2.66-2.66,6.23-4.49,10.54l-.28-.53c2.25.37,4.69.77,7.31,1.2l2.08.34-2.05.51c-2.29.57-4.71,1.16-7.24,1.79l.35-.51c.42,3.34.85,6.87,1.31,10.5,1.39,11.27,2.59,21.49,3.41,28.89.38,3.58.69,6.54.92,8.77.2,2.07.27,3.22.21,3.23Z"/>
  <path class="cls-7" d="m644.2,421.78s.34,0,1.03.04c.76.05,1.78.12,3.08.2,2.79.2,6.76.49,11.78.85,10.27.79,24.82,1.91,42.2,3.24l.42.03-.04.42c-.68,7.94-1.42,16.55-2.19,25.65-.39,4.55-.8,9.22-1.21,14-.21,2.39-.42,4.8-.63,7.23-.09,1.2-.23,2.49-.58,3.72-.38,1.22-.94,2.4-1.67,3.46-2.33,3.36-6.12,5.32-9.93,6-3.84.53-7.56.6-11.25.6-7.36-.09-14.48-.72-21.09-2.31-1.65-.42-3.27-.9-4.81-1.57-.78-.31-1.52-.7-2.24-1.15-.37-.19-.68-.55-1.02-.81-.31-.3-.53-.67-.8-1-1.75-2.87-2.3-6.03-2.76-8.99-.84-5.98-.86-11.6-.83-16.7.16-10.21.89-18.45,1.44-24.12.28-2.84.54-5.04.73-6.53.1-.7.18-1.26.24-1.69.06-.37.11-.59.12-.57,0,.02.01.19-.02.58-.04.44-.08,1-.14,1.7-.13,1.56-.31,3.75-.55,6.54-.43,5.68-1.06,13.91-1.13,24.09.01,5.08.08,10.68.94,16.58.46,2.91,1.06,6.03,2.67,8.64.79,1.29,2.19,2.01,3.69,2.63,1.48.63,3.06,1.1,4.68,1.51,6.51,1.55,13.59,2.16,20.88,2.23,3.64,0,7.41-.09,11.08-.6,3.61-.64,7.16-2.5,9.3-5.6.67-.98,1.18-2.06,1.53-3.19.32-1.14.45-2.3.54-3.53.21-2.43.42-4.84.63-7.23.42-4.77.83-9.44,1.23-13.99.81-9.1,1.58-17.71,2.28-25.64l.39.46c-17.26-1.5-31.71-2.76-41.91-3.65-5.05-.46-9.05-.83-11.85-1.08-1.33-.13-2.38-.23-3.15-.31-.72-.08-1.1-.12-1.11-.14Z"/>
  <path class="cls-7" d="m709.13,342.54c-.3.07-.99-4.52-3.97-9.22-2.92-4.74-6.73-7.37-6.54-7.61.08-.22,4.31,2.15,7.36,7.1,3.1,4.92,3.38,9.76,3.15,9.73Z"/>
  <path class="cls-7" d="m733.2,241.09s.09.32.21.96c.12.68.29,1.62.5,2.84.42,2.54,1.03,6.21,1.8,10.92,1.53,9.49,3.66,23.24,6.05,40.26,1.18,8.51,2.44,17.85,3.64,27.88.59,5.02,1.18,10.21,1.72,15.57.29,2.68.5,5.4.76,8.16.17,1.36.12,2.82.12,4.24-.19,1.42-.32,2.86-.76,4.24-.3,1.42-.94,2.74-1.47,4.1-.69,1.29-1.32,2.62-2.18,3.82-.77,1.27-1.76,2.38-2.68,3.55-1.04,1.07-2.03,2.2-3.2,3.15-2.27,1.98-4.8,3.74-7.63,4.98-2.81,1.25-5.9,2.11-9.1,1.99-6.27-.65-12.33-2.32-18.51-4.03-6.15-1.78-12.3-3.84-18.5-6-13.59-4.84-26.63-10.07-39-15.41l-.4-.17.15-.42c5.33-14.67,10.41-28.62,15.13-41.62l.15-.42.41.16c14.2,5.68,27.24,10.9,38.79,15.52l-.48.38c-2.68-18.92-4.85-34.25-6.35-44.9-.72-5.28-1.29-9.39-1.68-12.23-.18-1.37-.31-2.43-.41-3.19-.09-.72-.11-1.09-.11-1.09,0,0,.09.36.21,1.08.12.75.29,1.81.51,3.17.43,2.83,1.06,6.94,1.87,12.2,1.58,10.64,3.86,25.96,6.67,44.86l.09.61-.57-.23c-11.56-4.58-24.63-9.75-38.85-15.38l.56-.25c-4.7,13.01-9.75,26.97-15.05,41.65l-.25-.59c12.34,5.32,25.38,10.54,38.94,15.36,6.18,2.16,12.32,4.22,18.44,5.99,6.11,1.7,12.26,3.37,18.28,4.01,3,.11,5.96-.69,8.68-1.9,2.73-1.19,5.2-2.9,7.41-4.82,1.14-.93,2.11-2.02,3.12-3.06.9-1.14,1.87-2.21,2.61-3.44.84-1.16,1.45-2.45,2.13-3.7.51-1.31,1.13-2.59,1.43-3.95.44-1.33.55-2.71.74-4.07,0-1.37.06-2.72-.11-4.11-.25-2.75-.46-5.47-.74-8.15-.52-5.35-1.1-10.55-1.67-15.56-1.17-10.03-2.39-19.37-3.53-27.88-2.3-17.03-4.33-30.79-5.74-40.3-.7-4.72-1.25-8.41-1.63-10.95-.17-1.22-.31-2.17-.41-2.85-.09-.64-.11-.98-.11-.98Z"/>
  <path class="cls-7" d="m713.92,227.56c.02.18-2.28.21-5.75,1.28-3.44,1.03-8.07,3.34-11.76,7.45-3.69,4.11-5.48,8.96-6.14,12.49-.69,3.56-.47,5.85-.65,5.86-.06,0-.17-.56-.24-1.59-.07-1.03-.05-2.54.22-4.38.5-3.65,2.26-8.74,6.1-13.02,3.84-4.28,8.71-6.57,12.29-7.46,1.8-.46,3.3-.65,4.33-.69,1.03-.04,1.61,0,1.61.06Z"/>
  <g class="cls-13">
    <path class="cls-4" d="m698,475.96c-4.5,11.73-16.28,12.44-28.93,10.59-11.92-1.74-23.38-4.25-24.26-7.66.31,6.23,4.9,11.01,10.61,13.5,5.71,2.49,12.1,2.84,18.32,2.57,6.52-.29,12.14,0,17.52-3.7,5.38-3.69,6.75-9.97,6.73-15.31Z"/>
  </g>
  <g>
    <path class="cls-7" d="m534.41,283.68l11.9,49.55c.66,2.75,3.11,4.69,7.06,5.78l67.54.23c2.72-1.07,5.63-4.56,4.93-8.33l-8.85-47.4c-.53-2.85-2.99-4.93-5.88-5l-71.19-1.64c-3.62-.08-6.35,3.29-5.5,6.81Z"/>
    <path class="cls-1" d="m605.56,293.68s14.96-.6,17.46-.02c2.51.57,34.71,21.41,34.71,21.41l-9.67,27.6-6.62-8.72s-8.47-.96-13.17-3.12c-4.69-2.17-10.19-4.51-10.19-4.51l-9.87,1.39-10.72.21s-3.68-1.84-.67-4.25c3.01-2.41,10.24-2.57,10.24-2.57l11.03-2.6s-12.67-.95-13.92-1.16c-1.25-.21-9.83,1.95-10.97,1.11-1.14-.83-1.65-2.78-.68-4.35.97-1.57,9.09-4.06,9.09-4.06l14.09-1.31-13.94-.34-7.57-.43s-2.06-1.5.63-3.75c2.69-2.25,13.6-3.76,13.6-3.76l11.22-1.02-11.37-1.19-7.5,1.38c-2.05.38-3.3-2.28-1.64-3.54,1.31-1,3.33-1.91,6.43-2.41Z"/>
  </g>
  <path class="cls-7" d="m592.53,254.74s-.08.52-.19,1.54c-.11,1.04-.27,2.56-.48,4.54-.4,4.02-.99,9.91-1.75,17.5-1.48,15.24-3.63,37.31-6.29,64.68-1.32,13.7-2.76,28.72-4.32,44.89-1.37,16.18-2.84,33.51-4.39,51.78-3.07,36.55-6.47,76.9-10.05,119.51l-.04.49h.49c7.52.19,15.55.38,23.65.57,51.73,1.21,100.67,2.35,143.59,3.35h.43s0-.4,0-.4c-.02-13.82-.84-27.03-1.44-39.63-.72-12.59-1.41-24.57-2.06-35.84-1.45-22.53-2.72-42.26-3.77-58.56-1.13-16.27-2.03-29.12-2.64-37.92-.33-4.37-.58-7.74-.75-10.03-.09-1.12-.16-1.98-.21-2.58-.05-.58-.09-.87-.09-.87,0,0,0,.3.03.87.03.6.08,1.46.14,2.58.14,2.3.35,5.66.62,10.04.56,8.8,1.37,21.65,2.41,37.93,1,16.3,2.2,36.04,3.58,58.57.62,11.27,1.29,23.25,1.98,35.84.58,12.59,1.37,25.83,1.37,39.57l.42-.4c-42.91-1.03-91.86-2.21-143.59-3.45-8.1-.19-16.13-.38-23.65-.56l.45.5c3.55-42.62,6.91-82.96,9.96-119.51,1.52-18.27,2.96-35.6,4.3-51.78,1.52-16.17,2.92-31.2,4.21-44.9,2.54-27.39,4.59-49.46,6-64.71.69-7.6,1.22-13.5,1.58-17.52.17-1.98.3-3.5.39-4.55.08-1.02.1-1.55.1-1.55Z"/>
  <g>
    <path class="cls-7" d="m600.09,132.92c3.1-3.37,6.87-6.56,7.93-11.02.98-4.1-.5-8.77,1.64-12.4,2.63-4.46,9.28-4.88,12.45-8.98,1.54-1.98,2.06-4.6,3.58-6.6,2.59-3.4,7.44-4.2,11.68-3.64s8.3,2.19,12.55,2.6c5.84.56,11.93-1.2,17.5.62,6.15,2.01,9.8,7.59,13.7,13.01l5.1,6.29c1.06,1.08,2.19,2.08,3.43,2.93,2.18,1.49,4.68,2.54,6.54,4.41,3.97,4,3.44,11.5-1.06,14.9,4.47,1.55,7.58,6.34,7.19,11.05-.22,2.59-1.36,5-2.2,7.47-.84,2.46-1.38,5.21-.4,7.63.98,2.41,3.98,4.13,6.28,2.91-.89,3.35-3.37,6.23-6.55,7.6,1.19,1.29,2.88,2.09,4.63,2.2-5.03,11.02-18.1,16.54-30.21,16.29-12.12-.26-23.59-5.16-34.71-9.97l-32.39-9.34c-2.85-.73-3.95-4.24-3.83-7.18.12-2.94.95-5.97-.03-8.75-1.34-3.8-5.66-5.91-7.06-9.69-1.6-4.29,1.13-8.96,4.24-12.33Z"/>
    <g>
      <g>
        <path class="cls-7" d="m676.46,164.73c2.56-7.31,5.09-14.67,6.35-22.31,1.26-7.64,1.21-15.63-1.32-22.95-.38-1.11-3.7-8.57-4.87-8.48-.84.06,1.15,7,.72,7.71-4.18,6.83-5.47,15.12-5,23.11.46,7.99,1.96,15.21,4.13,22.91"/>
        <path class="cls-12" d="m677.9,135.22c1.07-19.39-9.32-36.17-28.73-36.7l-1.8.06c-18.08.56-32.7,14.9-33.6,32.97-.83,16.81-1.54,35.39-1.15,44.38.81,18.61,19.52,20.93,19.52,20.93.04,0-.5,30.61-.5,30.61l44.48-26.17,1.78-66.08Z"/>
        <path class="cls-9" d="m632.14,196.86s11.76.33,24.02-7.92c0,0-5.49,15.29-24.12,14.19l.1-6.27Z"/>
        <path class="cls-7" d="m619.16,147.28c0,1.41,1.18,2.57,2.65,2.6,1.47.03,2.66-1.08,2.67-2.48,0-1.41-1.18-2.57-2.64-2.61-1.47-.03-2.66,1.08-2.67,2.48Z"/>
        <path class="cls-7" d="m617.99,139.15c.34.34,2.31-1.22,5.17-1.3,2.86-.12,5,1.28,5.3.92.15-.16-.21-.78-1.14-1.41-.92-.63-2.48-1.23-4.26-1.17-1.78.07-3.26.77-4.1,1.47-.86.7-1.14,1.34-.97,1.49Z"/>
        <path class="cls-7" d="m644.04,148.19c0,1.41,1.18,2.57,2.65,2.6,1.47.03,2.66-1.08,2.67-2.48,0-1.41-1.18-2.57-2.65-2.61-1.47-.03-2.66,1.08-2.67,2.48Z"/>
        <path class="cls-7" d="m646.05,139.44c.34.34,2.31-1.22,5.17-1.3,2.86-.12,5,1.29,5.3.93.15-.16-.2-.78-1.14-1.41-.92-.64-2.48-1.23-4.26-1.17-1.78.07-3.26.77-4.1,1.47-.86.7-1.14,1.34-.97,1.49Z"/>
        <path class="cls-7" d="m636.47,161.75c0-.16-1.78-.42-4.67-.69-.73-.05-1.43-.18-1.57-.67-.19-.52.09-1.32.42-2.18.63-1.79,1.29-3.67,1.99-5.63,2.76-8.01,4.73-14.6,4.4-14.7-.32-.11-2.82,6.3-5.58,14.32-.66,1.98-1.3,3.86-1.9,5.66-.25.84-.7,1.8-.29,2.88.21.54.76.92,1.23,1.03.47.13.88.12,1.25.13,2.91.07,4.71.02,4.71-.14Z"/>
        <path class="cls-7" d="m644.95,163.47c-.47-.01-.38,3.09-2.97,5.38-2.59,2.29-5.91,2.05-5.92,2.48-.04.2.76.58,2.15.58,1.37,0,3.36-.5,4.95-1.9,1.58-1.4,2.22-3.23,2.29-4.51.08-1.3-.29-2.06-.5-2.04Z"/>
        <path class="cls-7" d="m645.85,127.82c.31.77,3.15.31,6.52.61,3.38.23,6.11,1.13,6.54.42.19-.34-.31-1.06-1.42-1.78-1.11-.72-2.86-1.38-4.88-1.54-2.02-.16-3.86.22-5.07.75-1.22.53-1.82,1.17-1.69,1.53Z"/>
        <path class="cls-7" d="m618.87,129.6c.52.63,2.47-.1,4.84-.21,2.37-.19,4.39.3,4.83-.39.19-.34-.14-.98-1.04-1.57-.88-.59-2.34-1.04-3.97-.94-1.63.1-3.02.73-3.82,1.43-.82.69-1.07,1.37-.84,1.68Z"/>
        <path class="cls-12" d="m676.8,149.06c.31-.15,12.68-4.18,12.67,8.56-.01,12.74-12.8,10.1-12.83,9.74-.02-.37.16-18.3.16-18.3Z"/>
        <path class="cls-9" d="m680.54,162.53c.06-.04.22.16.6.33.37.17.99.28,1.66.04,1.35-.49,2.48-2.63,2.55-4.93.03-1.16-.21-2.26-.62-3.18-.39-.93-.99-1.58-1.67-1.71-.67-.16-1.15.25-1.31.61-.17.36-.09.61-.16.63-.04.03-.27-.21-.17-.74.05-.25.2-.55.5-.8.31-.25.76-.37,1.23-.32.98.07,1.87.97,2.32,1.98.5,1.01.8,2.25.77,3.55-.08,2.57-1.4,4.97-3.24,5.5-.9.23-1.64-.04-2.03-.34-.39-.32-.46-.6-.42-.62Z"/>
        <path class="cls-7" d="m622.22,110.52c-2.05-1.16,4.2-7.78,9.29-10.03,7.69-3.4,19.41-5.42,26.45-3.35,8.48,2.49,15.5,6.79,19.69,14.58,4.19,7.78,5.71,16.81,5.37,25.65-.1,2.7-.41,5.5-1.87,7.77-1.81,2.8-5.24,4.54-5.13,8.43.04,1.42-.38,2.85-1.36,3.88-2.36,2.46-5.19.1-6.47-2.25-2.75-5.02-3.01-10.98-3.2-16.7-.14-4.07-.26-8.22.93-12.11.64-2.12,1.67-4.11,2.19-6.27s.48-4.6-.84-6.37c-.22-.29-.57-.65-1.02-1.06-3.58-3.2-8.62-4.19-13.16-2.64-7.2,2.47-19.49,6.14-22.67,3.67-4.57-3.55-5.65-5.84-5.65-5.84l-2.56,2.65Z"/>
      </g>
      <path class="cls-7" d="m657.32,95.4c-6.98-2.41-14.95-2.37-21.54.97-3.5,1.77-6.67,4.62-7.77,8.39-1.1,3.76.47,8.42,4.08,9.93l.25.16c5.42,1.88,8.96,1.19,14.4-.63,4.58-1.53,8.66-4.31,13.25-5.82,4.87-1.61,10.23-1.71,15.16-.29-4.82-5.59-10.85-10.29-17.83-12.7Z"/>
    </g>
  </g>
</svg>