<?xml version="1.0" encoding="UTF-8"?>
<svg id="Capa_1" data-name="Capa 1" xmlns="http://www.w3.org/2000/svg" viewBox="0 0 776.73 469.43">
  <defs>
    <style>
      .cls-1 {
        fill: #7a7a7a;
      }

      .cls-1, .cls-2, .cls-3, .cls-4 {
        stroke: #1a2e35;
        stroke-linecap: round;
        stroke-linejoin: round;
      }

      .cls-5 {
        fill: #ff735d;
      }

      .cls-5, .cls-6, .cls-7, .cls-8, .cls-9, .cls-10, .cls-11 {
        stroke-width: 0px;
      }

      .cls-7 {
        opacity: .3;
      }

      .cls-12 {
        stroke-dasharray: 0 0 4.49 4.49;
      }

      .cls-12, .cls-13, .cls-2, .cls-14, .cls-15, .cls-16, .cls-17, .cls-18 {
        fill: none;
      }

      .cls-12, .cls-13, .cls-14, .cls-15, .cls-16, .cls-17, .cls-18 {
        stroke: #024873;
      }

      .cls-12, .cls-13, .cls-14, .cls-15, .cls-16, .cls-17, .cls-18, .cls-19 {
        stroke-miterlimit: 10;
      }

      .cls-8 {
        fill: #5ae4a7;
      }

      .cls-9, .cls-3 {
        fill: #1a2e35;
      }

      .cls-14 {
        stroke-dasharray: 0 0 4.03 4.03;
      }

      .cls-20 {
        opacity: .1;
      }

      .cls-10 {
        fill: #024873;
      }

      .cls-15 {
        stroke-dasharray: 0 0 4.03 4.03;
      }

      .cls-4 {
        fill: #fff;
      }

      .cls-16 {
        stroke-dasharray: 0 0 3.75 3.75;
      }

      .cls-17 {
        stroke-dasharray: 0 0 4.1 4.1;
      }

      .cls-18 {
        stroke-dasharray: 0 0 3.78 3.78;
      }

      .cls-19 {
        fill: #04c4d9;
        stroke: #000;
      }

      .cls-11 {
        fill: #bfd6d9;
      }
    </style>
  </defs>
  <line class="cls-2" x1="56.55" y1="446.51" x2="735.5" y2="446.51"/>
  <g>
    <path class="cls-8" d="m751.3,144.54c-12.93-40.52-36.02-75.86-74.56-95.61-51.5-26.39-116.72-27.04-176.65-6.81-34.19,11.54-65.75,30.93-96.56,50.69-27.38,17.57-59.55,44.39-91.21,50.07-42.86,7.68-133.12-54.59-209.55-37.41S-8.34,219.26,1.69,279.39c10.03,60.12,80.89,60.12,99.9,109.51,19.01,49.39,105.62,91.26,223.24,63.34,117.62-27.91,178.87-44.02,235.92-21.47,57.04,22.55,138.83,28.99,179.66-65.49,16.35-37.82,25.09-77.95,25.16-117.05.06-34.26-3.74-70.7-14.27-103.69Z"/>
    <path class="cls-11" d="m751.3,144.54c-12.93-40.52-36.02-75.86-74.56-95.61-51.5-26.39-116.72-27.04-176.65-6.81-34.19,11.54-65.75,30.93-96.56,50.69-27.38,17.57-59.55,44.39-91.21,50.07-42.86,7.68-133.12-54.59-209.55-37.41S-8.34,219.26,1.69,279.39c10.03,60.12,80.89,60.12,99.9,109.51,19.01,49.39,105.62,91.26,223.24,63.34,117.62-27.91,178.87-44.02,235.92-21.47,57.04,22.55,138.83,28.99,179.66-65.49,16.35-37.82,25.09-77.95,25.16-117.05.06-34.26-3.74-70.7-14.27-103.69Z"/>
    <g class="cls-20">
      <path class="cls-6" d="m657.8,279.68c.04.15,8.78-5.4,9.29-5.81,5.92-4.79,14.54-17.52,11.47-25.47-2.21-5.73-8.92-7.61-14.17-4.94-5.37,2.72-8.2,9.57-9.21,15.17-1.18,6.57,2.62,21.04,2.62,21.06Z"/>
      <path class="cls-6" d="m549.56,173.87c2.64,6.13,13.79,16.11,13.8,16.11.12.1,4.34-9.35,4.54-9.98,2.29-7.26,2.46-22.63-4.48-27.57-5.01-3.56-11.64-1.42-14.55,3.7-2.97,5.23-1.56,12.51.69,17.73Z"/>
      <path class="cls-6" d="m523.72,209.04c4,5.01,16.39,11.31,17.38,11.8-3.57,6.9-6.67,14.26-9.4,21.89-1.56,4.36-3.01,8.8-4.39,13.27.33-2.14.61-4.05.62-4.32.3-7.61-3.6-22.48-11.61-25.4-5.77-2.11-11.6,1.7-13.06,7.41-1.49,5.83,1.8,12.48,5.34,16.92,3.6,4.51,14.06,10.09,16.85,11.53-.51,1.72-1.05,3.43-1.56,5.15-2.44,8.26-4.83,16.52-7.43,24.55-.91,2.83-1.92,5.58-2.91,8.34.29-1.9.52-3.5.53-3.74.3-7.61-3.6-22.48-11.6-25.4-5.77-2.11-11.6,1.7-13.06,7.41-1.49,5.83,1.8,12.48,5.35,16.92,3.43,4.3,13.04,9.54,16.35,11.27-1.1,2.79-2.2,5.59-3.4,8.25-.86,1.8-1.56,3.58-2.52,5.34-.91,1.76-1.82,3.5-2.72,5.22-1.85,3.26-3.74,6.63-5.63,9.76-1.29,2.19-2.57,4.25-3.85,6.33.94-2.8,2.67-8.34,2.77-8.81,1.45-7.47-.15-22.76-7.62-26.87-5.38-2.96-11.72-.08-14.03,5.35-2.35,5.54-.11,12.6,2.72,17.53,3.12,5.43,13.94,13.26,15.3,14.23-2.13,3.43-4.23,6.75-6.26,9.85-7,10.74-13.24,19.42-17.69,25.44l4.22,3.95c.13-.18.25-.35.38-.54,4.37-6.19,10.5-15.11,17.35-26.13,2.17-3.48,4.43-7.24,6.7-11.12,1,.39,6.69,2.58,12.26,3.96-.04,6.43,4.34,18.11,4.92,19.61-3.67,1.69-7.25,3.3-10.66,4.77-11.77,5.1-21.77,8.9-28.81,11.46l4.63,4.34c6.83-2.7,15.84-6.41,26.23-11.18,3.73-1.7,7.68-3.6,11.72-5.58.94,1.34,8.7,12.25,14.11,15.42,4.9,2.87,11.95,5.17,17.51,2.87,5.44-2.26,8.38-8.58,5.46-13.98-4.04-7.5-19.32-9.23-26.8-7.85-.44.08-5.13,1.5-8.08,2.45,1.65-.82,3.25-1.6,4.94-2.46,3.34-1.68,6.63-3.46,10.17-5.37,1.68-.98,3.37-1.97,5.09-2.97,1.72-.95,3.41-2.18,5.14-3.27,3.95-2.62,7.83-5.46,11.68-8.42,1.48,2.92,6.9,13.23,11.33,16.83,4.41,3.58,11.03,6.92,16.87,5.48,5.72-1.41,9.58-7.21,7.52-12.99-2.86-8.03-17.7-12.05-25.31-11.82-.47.01-5.91.8-8.89,1.28,2.3-1.79,4.6-3.57,6.87-5.46,6.54-5.45,12.99-11.18,19.45-16.86,1.98-1.74,3.97-3.45,5.96-5.17.52,1.05,6.69,13.44,11.65,17.47,4.41,3.58,11.03,6.92,16.87,5.49,5.72-1.41,9.58-7.21,7.52-12.99-2.86-8.03-17.7-12.05-25.31-11.82-.57.02-8.4,1.15-10.38,1.54,4.38-3.79,8.78-7.52,13.26-11.03,6.18-4.85,12.52-9.26,18.97-13.08.24.49,6.62,13.45,11.71,17.58,4.41,3.58,11.03,6.92,16.87,5.49,5.72-1.41,9.58-7.21,7.52-12.99-2.86-8.03-17.7-12.05-25.31-11.82-.5.02-6.46.87-9.29,1.35-.09-.25-.07-.21-.16-.46,6.96-4.01,14.21-7.02,21.13-9.5,4.01-1.44,7.92-2.6,11.75-3.64.94,2.54,5.37,14.08,9.54,18.3,3.99,4.05,10.2,8.09,16.17,7.31,5.84-.77,10.31-6.11,8.9-12.09-1.96-8.3-16.27-13.92-23.86-14.52-.41-.03-4.64.1-7.73.24,1.74-.44,3.52-.93,5.19-1.32,6.27-1.48,12.11-2.46,17.28-3.28,2.95-.44,5.62-.78,8.12-1.08,2.22,2.01,11.28,9.98,16.82,11.78,5.41,1.75,12.78,2.48,17.72-.97,4.83-3.38,6.34-10.18,2.33-14.83-5.56-6.46-20.85-4.86-27.87-1.9-.61.26-9.62,5.35-9.51,5.45,0,0,.11.1.13.12-2.42.23-5,.51-7.82.87-5.2.71-11.08,1.56-17.41,2.91-6.33,1.34-13.17,2.97-20.21,5.33-7.07,2.36-14.38,5.21-21.54,9.12-.08.04-.16.1-.24.15,1.74-1.79,6.43-6.97,6.75-7.41,4.44-6.18,9.4-20.73,4.34-27.59-3.65-4.94-10.61-4.98-14.98-1.02-4.46,4.04-5.38,11.4-4.87,17.06.57,6.39,7.44,18.47,7.99,19.44-6.78,3.78-13.43,8.22-19.92,13.08-3.71,2.77-7.36,5.68-10.98,8.64,1.45-1.6,2.74-3.04,2.9-3.26,4.44-6.18,9.4-20.73,4.34-27.59-3.65-4.94-10.61-4.98-14.98-1.02-4.46,4.04-5.38,11.4-4.88,17.06.52,5.74,6.16,16.17,7.69,18.91-1.38,1.15-2.77,2.29-4.14,3.44-6.59,5.55-13.14,11.11-19.74,16.37-2.32,1.86-4.68,3.6-7.03,5.35,1.29-1.42,2.36-2.63,2.51-2.83,4.44-6.18,9.4-20.73,4.33-27.59-3.65-4.94-10.61-4.98-14.98-1.02-4.46,4.04-5.38,11.4-4.87,17.06.49,5.48,5.62,15.15,7.42,18.41-2.46,1.72-4.92,3.45-7.39,5-1.71,1.02-3.28,2.13-5.05,3.06-1.73.96-3.45,1.91-5.15,2.86-3.34,1.69-6.78,3.46-10.08,5.04-2.29,1.11-4.49,2.13-6.7,3.16,2.34-1.82,6.83-5.48,7.17-5.83,3.54-3.61,7.85-10.84,9.18-17.5.53-.53,1-1.1,1.42-1.72,3.29-4.89,2.25-11.78-3.16-14.68-7.51-4.03-21.21,2.96-26.69,8.24-.32.31-3.45,4.08-5.39,6.5.92-1.59,1.83-3.13,2.76-4.78,1.86-3.25,3.62-6.55,5.52-10.09.86-1.74,1.73-3.5,2.6-5.28.91-1.74,1.64-3.7,2.48-5.57,1.85-4.37,3.52-8.88,5.1-13.46,2.85,1.62,13.05,7.23,18.74,7.79,5.66.56,13.02-.31,17.1-4.73,3.99-4.33,4.01-11.3-.9-14.99-6.82-5.12-21.41-.29-27.63,4.11-.39.27-4.49,3.93-6.71,5.98.93-2.76,1.87-5.52,2.71-8.34,2.45-8.16,4.67-16.49,6.92-24.79.69-2.54,1.41-5.07,2.11-7.6,1.01.59,12.99,7.52,19.36,8.14,5.66.56,13.02-.31,17.1-4.73,3.99-4.33,4.01-11.3-.9-14.98-6.82-5.12-21.41-.29-27.63,4.11-.47.33-6.37,5.6-7.8,7.01,1.56-5.57,3.17-11.12,4.98-16.51,2.48-7.45,5.33-14.63,8.61-21.37.47.27,12.94,7.56,19.46,8.2,5.66.56,13.02-.31,17.1-4.73,3.99-4.33,4.01-11.3-.9-14.98-6.82-5.12-21.41-.29-27.63,4.1-.41.29-4.91,4.3-7.01,6.25-.21-.16-.17-.13-.39-.29,3.59-7.19,7.98-13.69,12.39-19.58,2.54-3.42,5.17-6.54,7.79-9.52,2.18,1.6,12.25,8.78,18.05,10,5.56,1.17,12.97,1.12,17.52-2.83,4.45-3.87,5.23-10.79.75-14.99-6.21-5.84-21.25-2.63-27.91,1.05-.36.2-3.82,2.64-6.31,4.46,1.2-1.33,2.42-2.72,3.6-3.97,4.41-4.7,8.74-8.73,12.61-12.27,2.21-1.99,4.26-3.75,6.18-5.38,2.96.45,14.91,2.1,20.53.54,5.48-1.52,12.03-4.98,14.24-10.58,2.16-5.48-.33-11.99-6.24-13.65-8.2-2.32-20.07,7.45-24.29,13.79-.36.55-5.08,9.77-4.92,9.79,0,0,.14.02.18.03-1.89,1.53-3.89,3.19-6.04,5.04-3.95,3.46-8.38,7.41-12.91,12.03-4.54,4.61-9.35,9.74-13.92,15.6-4.59,5.87-9.12,12.28-12.93,19.49-.04.08-.08.17-.12.25.46-2.45,1.52-9.36,1.54-9.9.3-7.61-3.6-22.48-11.61-25.4-5.77-2.11-11.6,1.7-13.06,7.41-1.49,5.83,1.8,12.48,5.35,16.92Z"/>
      <path class="cls-7" d="m549.56,173.87c2.64,6.13,13.79,16.11,13.8,16.11.12.1,4.34-9.35,4.54-9.98,2.29-7.26,2.46-22.63-4.48-27.57-5.01-3.56-11.64-1.42-14.55,3.7-2.97,5.23-1.56,12.51.69,17.73Z"/>
      <path class="cls-7" d="m657.8,279.68c.04.15,8.78-5.4,9.29-5.81,5.92-4.79,14.54-17.52,11.47-25.47-2.21-5.73-8.92-7.61-14.17-4.94-5.37,2.72-8.2,9.57-9.21,15.17-1.18,6.57,2.62,21.04,2.62,21.06Z"/>
      <path class="cls-7" d="m523.72,209.04c4,5.01,16.39,11.31,17.38,11.8-3.57,6.9-6.67,14.26-9.4,21.89-1.56,4.36-3.01,8.8-4.39,13.27.33-2.14.61-4.05.62-4.32.3-7.61-3.6-22.48-11.61-25.4-5.77-2.11-11.6,1.7-13.06,7.41-1.49,5.83,1.8,12.48,5.34,16.92,3.6,4.51,14.06,10.09,16.85,11.53-.51,1.72-1.05,3.43-1.56,5.15-2.44,8.26-4.83,16.52-7.43,24.55-.91,2.83-1.92,5.58-2.91,8.34.29-1.9.52-3.5.53-3.74.3-7.61-3.6-22.48-11.6-25.4-5.77-2.11-11.6,1.7-13.06,7.41-1.49,5.83,1.8,12.48,5.35,16.92,3.43,4.3,13.04,9.54,16.35,11.27-1.1,2.79-2.2,5.59-3.4,8.25-.86,1.8-1.56,3.58-2.52,5.34-.91,1.76-1.82,3.5-2.72,5.22-1.85,3.26-3.74,6.63-5.63,9.76-1.29,2.19-2.57,4.25-3.85,6.33.94-2.8,2.67-8.34,2.77-8.81,1.45-7.47-.15-22.76-7.62-26.87-5.38-2.96-11.72-.08-14.03,5.35-2.35,5.54-.11,12.6,2.72,17.53,3.12,5.43,13.94,13.26,15.3,14.23-2.13,3.43-4.23,6.75-6.26,9.85-7,10.74-13.24,19.42-17.69,25.44l4.22,3.95c.13-.18.25-.35.38-.54,4.37-6.19,10.5-15.11,17.35-26.13,2.17-3.48,4.43-7.24,6.7-11.12,1,.39,6.69,2.58,12.26,3.96-.04,6.43,4.34,18.11,4.92,19.61-3.67,1.69-7.25,3.3-10.66,4.77-11.77,5.1-21.77,8.9-28.81,11.46l4.63,4.34c6.83-2.7,15.84-6.41,26.23-11.18,3.73-1.7,7.68-3.6,11.72-5.58.94,1.34,8.7,12.25,14.11,15.42,4.9,2.87,11.95,5.17,17.51,2.87,5.44-2.26,8.38-8.58,5.46-13.98-4.04-7.5-19.32-9.23-26.8-7.85-.44.08-5.13,1.5-8.08,2.45,1.65-.82,3.25-1.6,4.94-2.46,3.34-1.68,6.63-3.46,10.17-5.37,1.68-.98,3.37-1.97,5.09-2.97,1.72-.95,3.41-2.18,5.14-3.27,3.95-2.62,7.83-5.46,11.68-8.42,1.48,2.92,6.9,13.23,11.33,16.83,4.41,3.58,11.03,6.92,16.87,5.48,5.72-1.41,9.58-7.21,7.52-12.99-2.86-8.03-17.7-12.05-25.31-11.82-.47.01-5.91.8-8.89,1.28,2.3-1.79,4.6-3.57,6.87-5.46,6.54-5.45,12.99-11.18,19.45-16.86,1.98-1.74,3.97-3.45,5.96-5.17.52,1.05,6.69,13.44,11.65,17.47,4.41,3.58,11.03,6.92,16.87,5.49,5.72-1.41,9.58-7.21,7.52-12.99-2.86-8.03-17.7-12.05-25.31-11.82-.57.02-8.4,1.15-10.38,1.54,4.38-3.79,8.78-7.52,13.26-11.03,6.18-4.85,12.52-9.26,18.97-13.08.24.49,6.62,13.45,11.71,17.58,4.41,3.58,11.03,6.92,16.87,5.49,5.72-1.41,9.58-7.21,7.52-12.99-2.86-8.03-17.7-12.05-25.31-11.82-.5.02-6.46.87-9.29,1.35-.09-.25-.07-.21-.16-.46,6.96-4.01,14.21-7.02,21.13-9.5,4.01-1.44,7.92-2.6,11.75-3.64.94,2.54,5.37,14.08,9.54,18.3,3.99,4.05,10.2,8.09,16.17,7.31,5.84-.77,10.31-6.11,8.9-12.09-1.96-8.3-16.27-13.92-23.86-14.52-.41-.03-4.64.1-7.73.24,1.74-.44,3.52-.93,5.19-1.32,6.27-1.48,12.11-2.46,17.28-3.28,2.95-.44,5.62-.78,8.12-1.08,2.22,2.01,11.28,9.98,16.82,11.78,5.41,1.75,12.78,2.48,17.72-.97,4.83-3.38,6.34-10.18,2.33-14.83-5.56-6.46-20.85-4.86-27.87-1.9-.61.26-9.62,5.35-9.51,5.45,0,0,.11.1.13.12-2.42.23-5,.51-7.82.87-5.2.71-11.08,1.56-17.41,2.91-6.33,1.34-13.17,2.97-20.21,5.33-7.07,2.36-14.38,5.21-21.54,9.12-.08.04-.16.1-.24.15,1.74-1.79,6.43-6.97,6.75-7.41,4.44-6.18,9.4-20.73,4.34-27.59-3.65-4.94-10.61-4.98-14.98-1.02-4.46,4.04-5.38,11.4-4.87,17.06.57,6.39,7.44,18.47,7.99,19.44-6.78,3.78-13.43,8.22-19.92,13.08-3.71,2.77-7.36,5.68-10.98,8.64,1.45-1.6,2.74-3.04,2.9-3.26,4.44-6.18,9.4-20.73,4.34-27.59-3.65-4.94-10.61-4.98-14.98-1.02-4.46,4.04-5.38,11.4-4.88,17.06.52,5.74,6.16,16.17,7.69,18.91-1.38,1.15-2.77,2.29-4.14,3.44-6.59,5.55-13.14,11.11-19.74,16.37-2.32,1.86-4.68,3.6-7.03,5.35,1.29-1.42,2.36-2.63,2.51-2.83,4.44-6.18,9.4-20.73,4.33-27.59-3.65-4.94-10.61-4.98-14.98-1.02-4.46,4.04-5.38,11.4-4.87,17.06.49,5.48,5.62,15.15,7.42,18.41-2.46,1.72-4.92,3.45-7.39,5-1.71,1.02-3.28,2.13-5.05,3.06-1.73.96-3.45,1.91-5.15,2.86-3.34,1.69-6.78,3.46-10.08,5.04-2.29,1.11-4.49,2.13-6.7,3.16,2.34-1.82,6.83-5.48,7.17-5.83,3.54-3.61,7.85-10.84,9.18-17.5.53-.53,1-1.1,1.42-1.72,3.29-4.89,2.25-11.78-3.16-14.68-7.51-4.03-21.21,2.96-26.69,8.24-.32.31-3.45,4.08-5.39,6.5.92-1.59,1.83-3.13,2.76-4.78,1.86-3.25,3.62-6.55,5.52-10.09.86-1.74,1.73-3.5,2.6-5.28.91-1.74,1.64-3.7,2.48-5.57,1.85-4.37,3.52-8.88,5.1-13.46,2.85,1.62,13.05,7.23,18.74,7.79,5.66.56,13.02-.31,17.1-4.73,3.99-4.33,4.01-11.3-.9-14.99-6.82-5.12-21.41-.29-27.63,4.11-.39.27-4.49,3.93-6.71,5.98.93-2.76,1.87-5.52,2.71-8.34,2.45-8.16,4.67-16.49,6.92-24.79.69-2.54,1.41-5.07,2.11-7.6,1.01.59,12.99,7.52,19.36,8.14,5.66.56,13.02-.31,17.1-4.73,3.99-4.33,4.01-11.3-.9-14.98-6.82-5.12-21.41-.29-27.63,4.11-.47.33-6.37,5.6-7.8,7.01,1.56-5.57,3.17-11.12,4.98-16.51,2.48-7.45,5.33-14.63,8.61-21.37.47.27,12.94,7.56,19.46,8.2,5.66.56,13.02-.31,17.1-4.73,3.99-4.33,4.01-11.3-.9-14.98-6.82-5.12-21.41-.29-27.63,4.1-.41.29-4.91,4.3-7.01,6.25-.21-.16-.17-.13-.39-.29,3.59-7.19,7.98-13.69,12.39-19.58,2.54-3.42,5.17-6.54,7.79-9.52,2.18,1.6,12.25,8.78,18.05,10,5.56,1.17,12.97,1.12,17.52-2.83,4.45-3.87,5.23-10.79.75-14.99-6.21-5.84-21.25-2.63-27.91,1.05-.36.2-3.82,2.64-6.31,4.46,1.2-1.33,2.42-2.72,3.6-3.97,4.41-4.7,8.74-8.73,12.61-12.27,2.21-1.99,4.26-3.75,6.18-5.38,2.96.45,14.91,2.1,20.53.54,5.48-1.52,12.03-4.98,14.24-10.58,2.16-5.48-.33-11.99-6.24-13.65-8.2-2.32-20.07,7.45-24.29,13.79-.36.55-5.08,9.77-4.92,9.79,0,0,.14.02.18.03-1.89,1.53-3.89,3.19-6.04,5.04-3.95,3.46-8.38,7.41-12.91,12.03-4.54,4.61-9.35,9.74-13.92,15.6-4.59,5.87-9.12,12.28-12.93,19.49-.04.08-.08.17-.12.25.46-2.45,1.52-9.36,1.54-9.9.3-7.61-3.6-22.48-11.61-25.4-5.77-2.11-11.6,1.7-13.06,7.41-1.49,5.83,1.8,12.48,5.35,16.92Z"/>
    </g>
    <g class="cls-20">
      <path class="cls-6" d="m86.97,279.68c-.04.15-8.78-5.4-9.29-5.81-5.92-4.79-14.54-17.52-11.47-25.47,2.21-5.73,8.92-7.61,14.17-4.94,5.37,2.72,8.2,9.57,9.21,15.17,1.18,6.57-2.62,21.04-2.62,21.06Z"/>
      <path class="cls-6" d="m195.21,173.87c-2.64,6.13-13.79,16.11-13.8,16.11-.12.1-4.34-9.35-4.54-9.98-2.29-7.26-2.46-22.63,4.48-27.57,5.01-3.56,11.64-1.42,14.55,3.7,2.97,5.23,1.56,12.51-.69,17.73Z"/>
      <path class="cls-6" d="m221.05,209.04c-4,5.01-16.39,11.31-17.38,11.8,3.57,6.9,6.67,14.26,9.4,21.89,1.56,4.36,3.01,8.8,4.39,13.27-.33-2.14-.61-4.05-.62-4.32-.3-7.61,3.6-22.48,11.61-25.4,5.77-2.11,11.6,1.7,13.06,7.41,1.49,5.83-1.8,12.48-5.34,16.92-3.6,4.51-14.06,10.09-16.85,11.53.51,1.72,1.05,3.43,1.56,5.15,2.44,8.26,4.83,16.52,7.43,24.55.91,2.83,1.92,5.58,2.91,8.34-.29-1.9-.52-3.5-.53-3.74-.3-7.61,3.6-22.48,11.6-25.4,5.77-2.11,11.6,1.7,13.06,7.41,1.49,5.83-1.8,12.48-5.35,16.92-3.43,4.3-13.04,9.54-16.35,11.27,1.1,2.79,2.2,5.59,3.4,8.25.86,1.8,1.56,3.58,2.52,5.34.91,1.76,1.82,3.5,2.72,5.22,1.85,3.26,3.74,6.63,5.63,9.76,1.29,2.19,2.57,4.25,3.85,6.33-.94-2.8-2.67-8.34-2.77-8.81-1.45-7.47.15-22.76,7.62-26.87,5.38-2.96,11.72-.08,14.03,5.35,2.35,5.54.11,12.6-2.72,17.53-3.12,5.43-13.94,13.26-15.3,14.23,2.13,3.43,4.23,6.75,6.26,9.85,7,10.74,13.24,19.42,17.69,25.44l-4.22,3.95c-.13-.18-.25-.35-.38-.54-4.37-6.19-10.5-15.11-17.35-26.13-2.17-3.48-4.43-7.24-6.7-11.12-1,.39-6.69,2.58-12.26,3.96.04,6.43-4.34,18.11-4.92,19.61,3.67,1.69,7.25,3.3,10.66,4.77,11.77,5.1,21.77,8.9,28.81,11.46l-4.63,4.34c-6.83-2.7-15.84-6.41-26.23-11.18-3.73-1.7-7.68-3.6-11.72-5.58-.94,1.34-8.7,12.25-14.11,15.42-4.9,2.87-11.95,5.17-17.51,2.87-5.44-2.26-8.38-8.58-5.46-13.98,4.04-7.5,19.32-9.23,26.8-7.85.44.08,5.13,1.5,8.08,2.45-1.65-.82-3.25-1.6-4.94-2.46-3.34-1.68-6.63-3.46-10.17-5.37-1.68-.98-3.37-1.97-5.09-2.97-1.72-.95-3.41-2.18-5.14-3.27-3.95-2.62-7.83-5.46-11.68-8.42-1.48,2.92-6.9,13.23-11.33,16.83-4.41,3.58-11.03,6.92-16.87,5.48-5.72-1.41-9.58-7.21-7.52-12.99,2.86-8.03,17.7-12.05,25.31-11.82.47.01,5.91.8,8.89,1.28-2.3-1.79-4.6-3.57-6.87-5.46-6.54-5.45-12.99-11.18-19.45-16.86-1.98-1.74-3.97-3.45-5.96-5.17-.52,1.05-6.69,13.44-11.65,17.47-4.41,3.58-11.03,6.92-16.87,5.49-5.72-1.41-9.58-7.21-7.52-12.99,2.86-8.03,17.7-12.05,25.31-11.82.57.02,8.4,1.15,10.38,1.54-4.38-3.79-8.78-7.52-13.26-11.03-6.18-4.85-12.52-9.26-18.97-13.08-.24.49-6.62,13.45-11.71,17.58-4.41,3.58-11.03,6.92-16.87,5.49-5.72-1.41-9.58-7.21-7.52-12.99,2.86-8.03,17.7-12.05,25.31-11.82.5.02,6.46.87,9.29,1.35.09-.25.07-.21.16-.46-6.96-4.01-14.21-7.02-21.13-9.5-4.01-1.44-7.92-2.6-11.75-3.64-.94,2.54-5.37,14.08-9.54,18.3-3.99,4.05-10.2,8.09-16.17,7.31-5.84-.77-10.31-6.11-8.9-12.09,1.96-8.3,16.27-13.92,23.86-14.52.41-.03,4.64.1,7.73.24-1.74-.44-3.52-.93-5.19-1.32-6.27-1.48-12.11-2.46-17.28-3.28-2.95-.44-5.62-.78-8.12-1.08-2.22,2.01-11.28,9.98-16.82,11.78-5.41,1.75-12.78,2.48-17.72-.97-4.83-3.38-6.33-10.18-2.33-14.83,5.56-6.46,20.85-4.86,27.87-1.9.61.26,9.62,5.35,9.51,5.45,0,0-.11.1-.13.12,2.42.23,5,.51,7.82.87,5.2.71,11.08,1.56,17.41,2.91,6.33,1.34,13.17,2.97,20.21,5.33,7.07,2.36,14.38,5.21,21.54,9.12.08.04.16.1.24.15-1.74-1.79-6.43-6.97-6.75-7.41-4.44-6.18-9.4-20.73-4.34-27.59,3.65-4.94,10.61-4.98,14.98-1.02,4.46,4.04,5.38,11.4,4.88,17.06-.57,6.39-7.44,18.47-7.99,19.44,6.78,3.78,13.43,8.22,19.92,13.08,3.71,2.77,7.36,5.68,10.98,8.64-1.45-1.6-2.74-3.04-2.9-3.26-4.44-6.18-9.4-20.73-4.34-27.59,3.65-4.94,10.61-4.98,14.98-1.02,4.46,4.04,5.38,11.4,4.88,17.06-.52,5.74-6.16,16.17-7.69,18.91,1.38,1.15,2.77,2.29,4.14,3.44,6.59,5.55,13.14,11.11,19.74,16.37,2.32,1.86,4.68,3.6,7.03,5.35-1.29-1.42-2.36-2.63-2.51-2.83-4.44-6.18-9.4-20.73-4.33-27.59,3.65-4.94,10.61-4.98,14.98-1.02,4.46,4.04,5.38,11.4,4.87,17.06-.49,5.48-5.62,15.15-7.42,18.41,2.46,1.72,4.92,3.45,7.39,5,1.71,1.02,3.28,2.13,5.05,3.06,1.73.96,3.45,1.91,5.15,2.86,3.34,1.69,6.78,3.46,10.08,5.04,2.29,1.11,4.49,2.13,6.7,3.16-2.34-1.82-6.83-5.48-7.17-5.83-3.54-3.61-7.85-10.84-9.18-17.5-.53-.53-1-1.1-1.42-1.72-3.29-4.89-2.25-11.78,3.16-14.68,7.51-4.03,21.21,2.96,26.69,8.24.32.31,3.45,4.08,5.39,6.5-.92-1.59-1.83-3.13-2.76-4.78-1.86-3.25-3.62-6.55-5.52-10.09-.86-1.74-1.73-3.5-2.6-5.28-.91-1.74-1.64-3.7-2.48-5.57-1.85-4.37-3.52-8.88-5.1-13.46-2.85,1.62-13.05,7.23-18.74,7.79-5.66.56-13.02-.31-17.1-4.73-3.99-4.33-4.01-11.3.9-14.99,6.82-5.12,21.41-.29,27.63,4.11.39.27,4.49,3.93,6.71,5.98-.93-2.76-1.87-5.52-2.71-8.34-2.45-8.16-4.67-16.49-6.92-24.79-.69-2.54-1.41-5.07-2.11-7.6-1.01.59-12.99,7.52-19.36,8.14-5.66.56-13.02-.31-17.1-4.73-3.99-4.33-4.01-11.3.9-14.98,6.82-5.12,21.41-.29,27.63,4.11.47.33,6.37,5.6,7.8,7.01-1.56-5.57-3.17-11.12-4.98-16.51-2.48-7.45-5.33-14.63-8.61-21.37-.47.27-12.94,7.56-19.46,8.2-5.66.56-13.02-.31-17.1-4.73-3.99-4.33-4.01-11.3.9-14.98,6.82-5.12,21.41-.29,27.63,4.1.41.29,4.91,4.3,7.01,6.25.21-.16.17-.13.39-.29-3.59-7.19-7.98-13.69-12.39-19.58-2.54-3.42-5.17-6.54-7.79-9.52-2.18,1.6-12.25,8.78-18.05,10-5.56,1.17-12.97,1.12-17.52-2.83-4.45-3.87-5.23-10.79-.75-14.99,6.21-5.84,21.25-2.63,27.91,1.05.36.2,3.82,2.64,6.31,4.46-1.2-1.33-2.42-2.72-3.6-3.97-4.41-4.7-8.74-8.73-12.61-12.27-2.21-1.99-4.26-3.75-6.18-5.38-2.96.45-14.91,2.1-20.53.54-5.48-1.52-12.03-4.98-14.24-10.58-2.16-5.48.33-11.99,6.24-13.65,8.2-2.32,20.07,7.45,24.29,13.79.36.55,5.08,9.77,4.92,9.79,0,0-.14.02-.18.03,1.89,1.53,3.89,3.19,6.04,5.04,3.95,3.46,8.38,7.41,12.91,12.03,4.54,4.61,9.35,9.74,13.92,15.6,4.59,5.87,9.12,12.28,12.93,19.49.04.08.08.17.12.25-.46-2.45-1.52-9.36-1.54-9.9-.3-7.61,3.6-22.48,11.61-25.4,5.77-2.11,11.6,1.7,13.06,7.41,1.49,5.83-1.8,12.48-5.35,16.92Z"/>
      <path class="cls-7" d="m195.21,173.87c-2.64,6.13-13.79,16.11-13.8,16.11-.12.1-4.34-9.35-4.54-9.98-2.29-7.26-2.46-22.63,4.48-27.57,5.01-3.56,11.64-1.42,14.55,3.7,2.97,5.23,1.56,12.51-.69,17.73Z"/>
      <path class="cls-7" d="m86.97,279.68c-.04.15-8.78-5.4-9.29-5.81-5.92-4.79-14.54-17.52-11.47-25.47,2.21-5.73,8.92-7.61,14.17-4.94,5.37,2.72,8.2,9.57,9.21,15.17,1.18,6.57-2.62,21.04-2.62,21.06Z"/>
      <path class="cls-7" d="m221.05,209.04c-4,5.01-16.39,11.31-17.38,11.8,3.57,6.9,6.67,14.26,9.4,21.89,1.56,4.36,3.01,8.8,4.39,13.27-.33-2.14-.61-4.05-.62-4.32-.3-7.61,3.6-22.48,11.61-25.4,5.77-2.11,11.6,1.7,13.06,7.41,1.49,5.83-1.8,12.48-5.34,16.92-3.6,4.51-14.06,10.09-16.85,11.53.51,1.72,1.05,3.43,1.56,5.15,2.44,8.26,4.83,16.52,7.43,24.55.91,2.83,1.92,5.58,2.91,8.34-.29-1.9-.52-3.5-.53-3.74-.3-7.61,3.6-22.48,11.6-25.4,5.77-2.11,11.6,1.7,13.06,7.41,1.49,5.83-1.8,12.48-5.35,16.92-3.43,4.3-13.04,9.54-16.35,11.27,1.1,2.79,2.2,5.59,3.4,8.25.86,1.8,1.56,3.58,2.52,5.34.91,1.76,1.82,3.5,2.72,5.22,1.85,3.26,3.74,6.63,5.63,9.76,1.29,2.19,2.57,4.25,3.85,6.33-.94-2.8-2.67-8.34-2.77-8.81-1.45-7.47.15-22.76,7.62-26.87,5.38-2.96,11.72-.08,14.03,5.35,2.35,5.54.11,12.6-2.72,17.53-3.12,5.43-13.94,13.26-15.3,14.23,2.13,3.43,4.23,6.75,6.26,9.85,7,10.74,13.24,19.42,17.69,25.44l-4.22,3.95c-.13-.18-.25-.35-.38-.54-4.37-6.19-10.5-15.11-17.35-26.13-2.17-3.48-4.43-7.24-6.7-11.12-1,.39-6.69,2.58-12.26,3.96.04,6.43-4.34,18.11-4.92,19.61,3.67,1.69,7.25,3.3,10.66,4.77,11.77,5.1,21.77,8.9,28.81,11.46l-4.63,4.34c-6.83-2.7-15.84-6.41-26.23-11.18-3.73-1.7-7.68-3.6-11.72-5.58-.94,1.34-8.7,12.25-14.11,15.42-4.9,2.87-11.95,5.17-17.51,2.87-5.44-2.26-8.38-8.58-5.46-13.98,4.04-7.5,19.32-9.23,26.8-7.85.44.08,5.13,1.5,8.08,2.45-1.65-.82-3.25-1.6-4.94-2.46-3.34-1.68-6.63-3.46-10.17-5.37-1.68-.98-3.37-1.97-5.09-2.97-1.72-.95-3.41-2.18-5.14-3.27-3.95-2.62-7.83-5.46-11.68-8.42-1.48,2.92-6.9,13.23-11.33,16.83-4.41,3.58-11.03,6.92-16.87,5.48-5.72-1.41-9.58-7.21-7.52-12.99,2.86-8.03,17.7-12.05,25.31-11.82.47.01,5.91.8,8.89,1.28-2.3-1.79-4.6-3.57-6.87-5.46-6.54-5.45-12.99-11.18-19.45-16.86-1.98-1.74-3.97-3.45-5.96-5.17-.52,1.05-6.69,13.44-11.65,17.47-4.41,3.58-11.03,6.92-16.87,5.49-5.72-1.41-9.58-7.21-7.52-12.99,2.86-8.03,17.7-12.05,25.31-11.82.57.02,8.4,1.15,10.38,1.54-4.38-3.79-8.78-7.52-13.26-11.03-6.18-4.85-12.52-9.26-18.97-13.08-.24.49-6.62,13.45-11.71,17.58-4.41,3.58-11.03,6.92-16.87,5.49-5.72-1.41-9.58-7.21-7.52-12.99,2.86-8.03,17.7-12.05,25.31-11.82.5.02,6.46.87,9.29,1.35.09-.25.07-.21.16-.46-6.96-4.01-14.21-7.02-21.13-9.5-4.01-1.44-7.92-2.6-11.75-3.64-.94,2.54-5.37,14.08-9.54,18.3-3.99,4.05-10.2,8.09-16.17,7.31-5.84-.77-10.31-6.11-8.9-12.09,1.96-8.3,16.27-13.92,23.86-14.52.41-.03,4.64.1,7.73.24-1.74-.44-3.52-.93-5.19-1.32-6.27-1.48-12.11-2.46-17.28-3.28-2.95-.44-5.62-.78-8.12-1.08-2.22,2.01-11.28,9.98-16.82,11.78-5.41,1.75-12.78,2.48-17.72-.97-4.83-3.38-6.33-10.18-2.33-14.83,5.56-6.46,20.85-4.86,27.87-1.9.61.26,9.62,5.35,9.51,5.45,0,0-.11.1-.13.12,2.42.23,5,.51,7.82.87,5.2.71,11.08,1.56,17.41,2.91,6.33,1.34,13.17,2.97,20.21,5.33,7.07,2.36,14.38,5.21,21.54,9.12.08.04.16.1.24.15-1.74-1.79-6.43-6.97-6.75-7.41-4.44-6.18-9.4-20.73-4.34-27.59,3.65-4.94,10.61-4.98,14.98-1.02,4.46,4.04,5.38,11.4,4.88,17.06-.57,6.39-7.44,18.47-7.99,19.44,6.78,3.78,13.43,8.22,19.92,13.08,3.71,2.77,7.36,5.68,10.98,8.64-1.45-1.6-2.74-3.04-2.9-3.26-4.44-6.18-9.4-20.73-4.34-27.59,3.65-4.94,10.61-4.98,14.98-1.02,4.46,4.04,5.38,11.4,4.88,17.06-.52,5.74-6.16,16.17-7.69,18.91,1.38,1.15,2.77,2.29,4.14,3.44,6.59,5.55,13.14,11.11,19.74,16.37,2.32,1.86,4.68,3.6,7.03,5.35-1.29-1.42-2.36-2.63-2.51-2.83-4.44-6.18-9.4-20.73-4.33-27.59,3.65-4.94,10.61-4.98,14.98-1.02,4.46,4.04,5.38,11.4,4.87,17.06-.49,5.48-5.62,15.15-7.42,18.41,2.46,1.72,4.92,3.45,7.39,5,1.71,1.02,3.28,2.13,5.05,3.06,1.73.96,3.45,1.91,5.15,2.86,3.34,1.69,6.78,3.46,10.08,5.04,2.29,1.11,4.49,2.13,6.7,3.16-2.34-1.82-6.83-5.48-7.17-5.83-3.54-3.61-7.85-10.84-9.18-17.5-.53-.53-1-1.1-1.42-1.72-3.29-4.89-2.25-11.78,3.16-14.68,7.51-4.03,21.21,2.96,26.69,8.24.32.31,3.45,4.08,5.39,6.5-.92-1.59-1.83-3.13-2.76-4.78-1.86-3.25-3.62-6.55-5.52-10.09-.86-1.74-1.73-3.5-2.6-5.28-.91-1.74-1.64-3.7-2.48-5.57-1.85-4.37-3.52-8.88-5.1-13.46-2.85,1.62-13.05,7.23-18.74,7.79-5.66.56-13.02-.31-17.1-4.73-3.99-4.33-4.01-11.3.9-14.99,6.82-5.12,21.41-.29,27.63,4.11.39.27,4.49,3.93,6.71,5.98-.93-2.76-1.87-5.52-2.71-8.34-2.45-8.16-4.67-16.49-6.92-24.79-.69-2.54-1.41-5.07-2.11-7.6-1.01.59-12.99,7.52-19.36,8.14-5.66.56-13.02-.31-17.1-4.73-3.99-4.33-4.01-11.3.9-14.98,6.82-5.12,21.41-.29,27.63,4.11.47.33,6.37,5.6,7.8,7.01-1.56-5.57-3.17-11.12-4.98-16.51-2.48-7.45-5.33-14.63-8.61-21.37-.47.27-12.94,7.56-19.46,8.2-5.66.56-13.02-.31-17.1-4.73-3.99-4.33-4.01-11.3.9-14.98,6.82-5.12,21.41-.29,27.63,4.1.41.29,4.91,4.3,7.01,6.25.21-.16.17-.13.39-.29-3.59-7.19-7.98-13.69-12.39-19.58-2.54-3.42-5.17-6.54-7.79-9.52-2.18,1.6-12.25,8.78-18.05,10-5.56,1.17-12.97,1.12-17.52-2.83-4.45-3.87-5.23-10.79-.75-14.99,6.21-5.84,21.25-2.63,27.91,1.05.36.2,3.82,2.64,6.31,4.46-1.2-1.33-2.42-2.72-3.6-3.97-4.41-4.7-8.74-8.73-12.61-12.27-2.21-1.99-4.26-3.75-6.18-5.38-2.96.45-14.91,2.1-20.53.54-5.48-1.52-12.03-4.98-14.24-10.58-2.16-5.48.33-11.99,6.24-13.65,8.2-2.32,20.07,7.45,24.29,13.79.36.55,5.08,9.77,4.92,9.79,0,0-.14.02-.18.03,1.89,1.53,3.89,3.19,6.04,5.04,3.95,3.46,8.38,7.41,12.91,12.03,4.54,4.61,9.35,9.74,13.92,15.6,4.59,5.87,9.12,12.28,12.93,19.49.04.08.08.17.12.25-.46-2.45-1.52-9.36-1.54-9.9-.3-7.61,3.6-22.48,11.61-25.4,5.77-2.11,11.6,1.7,13.06,7.41,1.49,5.83-1.8,12.48-5.35,16.92Z"/>
    </g>
    <g>
      <g>
        <g>
          <rect class="cls-4" x="648.96" y="291.09" width="59.93" height="54.26"/>
          <rect class="cls-4" x="654.07" y="295.94" width="46.93" height="44.55"/>
        </g>
        <path class="cls-4" d="m706.16,306.63c0,.77-.62,1.39-1.39,1.39s-1.39-.62-1.39-1.39.62-1.39,1.39-1.39,1.39.62,1.39,1.39Z"/>
        <path class="cls-4" d="m706.16,316.73c0,.77-.62,1.39-1.39,1.39s-1.39-.62-1.39-1.39.62-1.39,1.39-1.39,1.39.62,1.39,1.39Z"/>
        <path class="cls-4" d="m706.16,326.83c0,.77-.62,1.39-1.39,1.39s-1.39-.62-1.39-1.39.62-1.39,1.39-1.39,1.39.62,1.39,1.39Z"/>
      </g>
      <g>
        <rect class="cls-4" x="643.02" y="396.81" width="70.91" height="65.46"/>
        <rect class="cls-4" x="643.02" y="348.41" width="70.91" height="9.17"/>
        <rect class="cls-4" x="643.02" y="361.65" width="70.91" height="9.17"/>
        <rect class="cls-4" x="643.02" y="374.88" width="70.91" height="9.17"/>
        <rect class="cls-4" x="643.02" y="428.54" width="70.91" height="33.73"/>
        <rect class="cls-3" x="669.42" y="410.39" width="18.11" height="3.48"/>
        <rect class="cls-3" x="669.42" y="443.81" width="18.11" height="3.48"/>
      </g>
      <path class="cls-4" d="m643.21,465.3c.11-.3.18-.61.18-.95v-114.3h69.49v115c0,.09.02.17.03.25h5.32c0-.08.03-.17.03-.25v-117.68c0-1.48-1.2-2.68-2.68-2.68h-74.86c-1.48,0-2.68,1.2-2.68,2.68v116.99c0,.33.07.65.18.95h5.01Z"/>
    </g>
    <g>
      <path class="cls-2" d="m678.09,104.04c1.13-1.59,2.12-3.27,2.96-5.05,13.13-27.38-10.53-66.04-52.86-86.34-42.32-20.31-87.29-14.58-100.42,12.8-.23.47-.44.93-.64,1.42"/>
      <ellipse class="cls-2" cx="600.79" cy="68.73" rx="54.98" ry="85" transform="translate(278.92 580.67) rotate(-64.37)"/>
      <ellipse class="cls-2" cx="579.99" cy="31.87" rx="14.67" ry="22.67" transform="translate(300.36 541) rotate(-64.37)"/>
      <path class="cls-2" d="m588.86,98.83c-3.5,7.3-15.5,8.83-26.79,3.41-11.29-5.42-17.6-15.73-14.1-23.03,3.5-7.3,15.5-8.83,26.79-3.41,11.29,5.42,17.6,15.73,14.1,23.03Z"/>
      <path class="cls-2" d="m652.52,60.49c-3.5,7.3-15.5,8.83-26.79,3.41-11.29-5.42-17.6-15.73-14.1-23.03s15.5-8.83,26.79-3.41c11.29,5.42,17.6,15.73,14.1,23.03Z"/>
      <path class="cls-2" d="m636.6,119.37c-3.5,7.3-15.5,8.83-26.79,3.41-11.29-5.42-17.6-15.73-14.1-23.03,3.5-7.3,15.5-8.83,26.79-3.41,11.29,5.42,17.6,15.73,14.1,23.03Z"/>
      <path class="cls-2" d="m567.16,60.05c-3.5,7.3-15.5,8.83-26.79,3.41s-17.6-15.73-14.1-23.03c3.5-7.3,15.5-8.83,26.79-3.41,11.29,5.42,17.6,15.73,14.1,23.03Z"/>
      <ellipse class="cls-2" cx="650.16" cy="90.03" rx="14.67" ry="22.67" transform="translate(287.73 637.26) rotate(-64.37)"/>
    </g>
    <g>
      <path class="cls-2" d="m55.09,104.04c-1.13-1.59-2.12-3.27-2.96-5.05-13.13-27.38,10.53-66.04,52.86-86.34,42.32-20.31,87.29-14.58,100.42,12.8.23.47.44.93.64,1.42"/>
      <ellipse class="cls-2" cx="132.38" cy="68.73" rx="85" ry="54.98" transform="translate(-16.71 64.03) rotate(-25.63)"/>
      <path class="cls-2" d="m132.74,41.68c3.5,7.3,15.5,8.83,26.79,3.41s17.6-15.73,14.1-23.03c-3.5-7.3-15.5-8.83-26.79-3.41-11.29,5.42-17.6,15.73-14.1,23.03Z"/>
      <path class="cls-2" d="m144.31,98.83c3.5,7.3,15.5,8.83,26.79,3.41,11.29-5.42,17.6-15.73,14.1-23.03-3.5-7.3-15.5-8.83-26.79-3.41-11.29,5.42-17.6,15.73-14.1,23.03Z"/>
      <ellipse class="cls-2" cx="101.09" cy="50.68" rx="22.67" ry="14.67" transform="translate(-11.97 48.72) rotate(-25.63)"/>
      <path class="cls-2" d="m96.57,119.37c3.5,7.3,15.5,8.83,26.79,3.41,11.29-5.42,17.6-15.73,14.1-23.03-3.5-7.3-15.5-8.83-26.79-3.41-11.29,5.42-17.6,15.73-14.1,23.03Z"/>
      <ellipse class="cls-2" cx="186.46" cy="50.24" rx="22.67" ry="14.67" transform="translate(-3.39 85.61) rotate(-25.63)"/>
      <ellipse class="cls-2" cx="83.01" cy="90.03" rx="22.67" ry="14.67" transform="translate(-30.78 44.77) rotate(-25.63)"/>
    </g>
    <g>
      <path class="cls-4" d="m548.68,389.81c-23.84-16.27-78.9-22.15-94.51-27.12-15.61-4.97-30.35-11.75-35.55-28.48-5.2-16.73-.43-52.44-.43-52.44l-48.12,9.94-48.12-9.94s4.77,35.71-.43,52.44c-5.2,16.73-19.94,23.51-35.55,28.48-15.61,4.97-70.66,10.85-94.51,27.12-23.84,16.27-32.95,75.49-32.95,75.49h423.11s-9.1-59.22-32.95-75.49Z"/>
      <path class="cls-3" d="m370.73,315.86l9.41-13.45-21.1-12.97-37.09-7.67s3.43,25.69,1.29,43.7l47.48-9.62Z"/>
      <line class="cls-2" x1="340.64" y1="399.87" x2="350.13" y2="401.5"/>
      <line class="cls-2" x1="278.52" y1="389.2" x2="331.96" y2="398.38"/>
      <line class="cls-2" x1="447.79" y1="389.93" x2="389.2" y2="402.22"/>
    </g>
    <path class="cls-10" d="m516.25,128.83c0-10.35-5.94-19.62-7.77-29.73-2.22-12.31-10.02-20.39-19.56-28.15,0,0,.12-3.48-4.29-13.4-6.43-14.47-27.87-26.26-27.87-26.26-8.57-5.89-17.15-5.89-17.15-5.89,0,0-6.97-13.4-35.37-20.9-28.4-7.5-32.15-2.68-32.15-2.68,0,0-3.75-4.82-32.15,2.68-28.4,7.5-35.37,20.9-35.37,20.9,0,0-8.57,0-17.15,5.89,0,0-21.44,11.79-27.87,26.26-4.41,9.92-4.29,13.4-4.29,13.4-9.54,7.75-17.34,15.84-19.56,28.15-1.82,10.11-7.77,19.38-7.77,29.73s5.89,23.58,5.89,23.58c0,0-1.61,16.08,4.29,26.79,5.89,10.72,13.93,15,13.93,15,0,0-5.36,10.18,8.04,19.83,13.4,9.65,20.36,9.65,20.36,9.65,0,0-1.07,3.22,7.5,4.29s15-3.75,15-3.75c0,0-18.76-66.99-.54-98.07,18.22-31.08,44.48-43.94,54.12-45.01,9.65-1.07,15.54-1.07,15.54-1.07,0,0,5.89,0,15.54,1.07,9.65,1.07,35.9,13.93,54.12,45.01,18.22,31.08-.54,98.07-.54,98.07,0,0,6.43,4.82,15,3.75s7.5-4.29,7.5-4.29c0,0,6.97,0,20.36-9.65,13.4-9.65,8.04-19.83,8.04-19.83,0,0,8.04-4.29,13.93-15,5.89-10.72,4.29-26.79,4.29-26.79,0,0,5.89-13.4,5.89-23.58Z"/>
    <g>
      <path class="cls-2" d="m260.78,190.88s13.51,1.73,22.87-.69"/>
      <path class="cls-2" d="m239.65,151.04s26.33,6.58,37.07,4.16"/>
      <path class="cls-2" d="m258.71,74.13s14.9,23.56,31.18,29.1"/>
      <path class="cls-2" d="m314.44,50.92c3.3,7.05,7.33,14.1,11.47,17.67"/>
      <path class="cls-2" d="m306.51,30.83s1.79,5.57,4.64,12.56"/>
      <path class="cls-2" d="m437.12,31.52s-8.66,27.72-18.02,37.76"/>
      <path class="cls-2" d="m484.93,78.29s-22.17,18.71-33.95,22.17"/>
      <path class="cls-2" d="m502.95,153.12s-25.98,8.66-39.49,6.93"/>
      <path class="cls-2" d="m455.83,191.58s10.05,4.5,25.29,1.73"/>
    </g>
    <path class="cls-4" d="m293.49,112.4c-17.22,40.89-2.85,97.58,9.37,136,1.9,5.98,3.92,11.93,5.96,17.87,6.52,19.07,44.61,45.38,49.62,48.89,5.02,3.51,20.63,2.29,25.65-.21,5.02-2.51,38.64-33.12,44.16-46.67,5.52-13.55,29.44-95.25,26.09-120.94-6.02-46.17-29.61-56.86-55.7-64.89-26.09-8.03-59.72-4.52-77.78,7.53-13.1,8.73-21.85,9.32-27.37,22.41Z"/>
    <g>
      <line class="cls-2" x1="317.75" y1="180.59" x2="314.9" y2="185.89"/>
      <path class="cls-3" d="m343.43,189.15s-9.78,2.04-17.12,1.22c-7.34-.82-15.08-6.52-15.08-6.52,0,0-1.63,5.71,5.3,8.97,6.93,3.26,15.9,2.04,26.9-3.67Z"/>
    </g>
    <g>
      <line class="cls-2" x1="422.34" y1="180.59" x2="425.19" y2="185.89"/>
      <path class="cls-3" d="m396.66,189.15s9.78,2.04,17.12,1.22c7.34-.82,15.08-6.52,15.08-6.52,0,0,1.63,5.71-5.3,8.97-6.93,3.26-15.9,2.04-26.9-3.67Z"/>
    </g>
    <g>
      <path class="cls-2" d="m355.25,225.83s-2.04,8.15-.41,11.82c1.63,3.67,4.89,5.71,4.89,5.71"/>
      <path class="cls-2" d="m383.96,225.83s2.04,8.15.41,11.82-4.89,5.71-4.89,5.71"/>
      <path class="cls-2" d="m358.51,238.47s2.67-1.26,5.12,1.59c2.45,2.85,6.18,4.93,8.63,3.7,2.45-1.22,6.23-5.71,6.23-5.71,0,0,1.16-.96,2.89-.71"/>
    </g>
    <path class="cls-5" d="m345.14,264.46s6.41,5.18,11.83,10.35c5.42,5.18,12.32,5.42,17.5,4.93,5.18-.49,10.11-3.2,12.32-6.41,2.22-3.2,9.12-9.61,9.12-9.61l-50.77.74Z"/>
    <path class="cls-5" d="m402.08,260.03s-7.8,1.63-10.16.86c-4.82-1.57-12.63-2.5-15.46-2.83-2.36-.28-5.09.76-7.03,1.73-1.95-.97-4.67-2-7.03-1.73-2.92.34-11.14,1.42-15.91,2.98-2.12.69-8.48-.02-8.48-.02,0,0,6.34,3.03,8.48,3.5,4.88,1.06,13.55,2.89,17.79,3.4,1.03.12,1.92.21,2.71.27.26.05.98.15,2.45.13,1.47.03,2.19-.08,2.45-.13.79-.06,1.68-.15,2.71-.27,3.98-.48,11.86-2.12,16.85-3.2,2.65-.57,10.65-4.69,10.65-4.69Z"/>
    <path class="cls-9" d="m350.52,156.7s-25.07-3.76-33.91-2.99c-8.84.77-11.45,10.64-11.45,10.64,0,0,2.77-5.19,12.63-5.55,9.86-.36,26.11,4.41,31.45,3.21,5.34-1.21,8.16-1.7,6.25-3.76-1.91-2.06-4.98-1.54-4.98-1.54Z"/>
    <path class="cls-9" d="m389.86,156.7s25.07-3.76,33.91-2.99c8.84.77,11.45,10.64,11.45,10.64,0,0-2.77-5.19-12.63-5.55-9.86-.36-26.11,4.41-31.45,3.21-5.34-1.21-8.16-1.7-6.25-3.76,1.91-2.06,4.98-1.54,4.98-1.54Z"/>
    <g>
      <path class="cls-13" d="m358.1,148.76s-.69-.21-1.92-.55"/>
      <path class="cls-14" d="m352.3,147.14c-10.18-2.69-31.1-7.52-40.95-4.8-8.73,2.41-13.5,8.77-15.75,12.85"/>
      <path class="cls-13" d="m294.68,156.99c-.52,1.14-.75,1.85-.75,1.85"/>
    </g>
    <g>
      <path class="cls-13" d="m380.11,148.76s.69-.21,1.92-.55"/>
      <path class="cls-15" d="m385.91,147.14c10.18-2.69,31.1-7.52,40.95-4.8,8.73,2.41,13.5,8.77,15.75,12.85"/>
      <path class="cls-13" d="m443.52,156.99c.52,1.14.75,1.85.75,1.85"/>
    </g>
    <g>
      <path class="cls-13" d="m292.56,204.22s.57.45,1.61,1.18"/>
      <path class="cls-17" d="m297.61,207.6c9.69,5.71,31.64,15.02,51.19-2.82"/>
      <path class="cls-13" d="m350.29,203.36c.47-.46.93-.94,1.39-1.43"/>
    </g>
    <g>
      <path class="cls-13" d="m304.02,237.68s.62.42,1.74.97"/>
      <path class="cls-18" d="m309.26,240.05c4.12,1.29,10.31,2.07,17.21-1,9.34-4.15,19.98-16.39,24.64-22.15"/>
      <path class="cls-13" d="m352.3,215.43c.78-1,1.22-1.58,1.22-1.58"/>
    </g>
    <g>
      <path class="cls-13" d="m444.73,204.22s-.57.45-1.61,1.18"/>
      <path class="cls-17" d="m439.68,207.6c-9.69,5.71-31.64,15.02-51.19-2.82"/>
      <path class="cls-13" d="m387,203.36c-.47-.46-.93-.94-1.39-1.43"/>
    </g>
    <g>
      <path class="cls-13" d="m433.28,237.68s-.62.42-1.74.97"/>
      <path class="cls-18" d="m428.03,240.05c-4.12,1.29-10.31,2.07-17.21-1-9.34-4.15-19.98-16.39-24.64-22.15"/>
      <path class="cls-13" d="m384.99,215.43c-.78-1-1.22-1.58-1.22-1.58"/>
    </g>
    <g>
      <path class="cls-13" d="m349.55,306.51s.65.24,1.91.56"/>
      <path class="cls-16" d="m355.13,307.88c6.61,1.21,18.86,2.31,35.4-1.06"/>
      <path class="cls-13" d="m392.36,306.42c.64-.14,1.29-.29,1.95-.45"/>
    </g>
    <g>
      <line class="cls-13" x1="371.4" y1="282.14" x2="371.4" y2="284.14"/>
      <line class="cls-12" x1="371.4" y1="288.64" x2="371.4" y2="304.37"/>
      <line class="cls-13" x1="371.4" y1="306.62" x2="371.4" y2="308.62"/>
    </g>
    <path class="cls-11" d="m294.37,231.64c-1.66,0-3.18-1.02-3.64-2.58-13.86-46.96-12.63-83.23-.72-109.47,6.14-13.53,15.82-24.45,28.75-32.45,19.26-11.91,54.08-15.1,80.99-7.42,22.83,6.52,51.49,24.51,58.34,73.21,2.29,16.28-4.93,53.34-10.85,73.98-.54,1.87-2.61,2.98-4.62,2.49-2.02-.5-3.22-2.42-2.68-4.29,9.83-34.27,12.2-60.25,10.65-71.27-3.49-24.84-15.53-56.7-53.07-67.41-24.55-7.01-57.31-4.13-74.58,6.55-11.68,7.23-20.42,17.1-25.98,29.34-11.23,24.74-12.35,59.51,1.04,104.9.55,1.87-.63,3.8-2.65,4.31-.33.08-.67.13-1,.13Z"/>
    <path class="cls-3" d="m144.94,354.44s-1,5.34-1.19,7.06c-.19,1.73-2.87,4.42-5.17,5-2.31.58-5.19-.77-5.38-3.46-.19-2.69,4.42-9.18,4.42-9.18l7.33.58Z"/>
    <polygon class="cls-3" points="148.59 255.16 147.44 301.78 135.93 353.87 146 354.44 161.25 302.93 167.87 271.57 171.61 302.93 173.63 353.87 181.97 353.87 187.15 301.21 182.55 254.88 148.59 255.16"/>
    <path class="cls-4" d="m164.2,196.4l-5.08,4.09-.44,58.19h18.29l-4.58-57.54s-6.39-5.08-8.19-4.75Z"/>
    <path class="cls-4" d="m170,201.54s2.06,21.67,2.35,33.74c.29,12.07.58,57.15.58,57.15,0,0,5.52,1.45,8.14,1.02,2.62-.44,8.72-2.47,8.72-2.47l-7.56-60.93-.44-26.31-12.06-3.92.26,1.73Z"/>
    <path class="cls-4" d="m157.96,197.78l-14.1,6.98,1.6,37.07-3.92,50.46s7.7,1.31,11.05,1.31,8.87-.58,8.87-.58l.44-64.71.87-23.4.36-4.18-5.16-2.94Z"/>
    <g>
      <path class="cls-4" d="m171.01,171.38s3.05,3.25,3.86,4.98c.81,1.73.51,2.54,1.42,2.74.91.2,3.15.51,3.15,1.12s-1.73,3.05-1.73,3.05c0,0,.71,5.79.51,6.91-.2,1.12-6.3,2.44-6.3,2.44l-1.12,6.2s-.3,8.94-.61,10.67c-.3,1.73-1.73,7.32-1.73,7.32l-5.59-10.36-3.35-10.26-1.02-3.56-.81-2.54s2.34.51,4.47-1.83c2.13-2.34,4.47-6.81,5.79-10.26,1.32-3.45,1.52-7.32,1.52-7.32,0,0,.2-.61,1.52.71Z"/>
      <path class="cls-3" d="m167.65,184.99s1.22-.51,1.83-1.73c.61-1.22,0-3.66,0-3.66,0,0,2.03-2.24,2.03-5.49s-.3-6.71-5.39-7.42c-5.08-.71-12.19,1.42-14.94,7.42-2.74,6-1.32,11.89.71,14.43,2.03,2.54,6.91,6.2,10.77,4.98,3.86-1.22,4.98-8.54,4.98-8.54Z"/>
      <path class="cls-4" d="m169.38,185.5s-1.52-3.66-3.25-2.54-1.02,3.86.3,5.49c1.32,1.63,3.15,0,3.15,0"/>
      <path class="cls-9" d="m174.81,179.54c.11.55,0,1.04-.25,1.09s-.54-.35-.65-.9c-.11-.55,0-1.04.25-1.09s.54.35.65.9Z"/>
      <path class="cls-2" d="m177,185.5s-1.42.41-2.24-.61"/>
      <path class="cls-3" d="m153.33,190.38s-2.85-.61-3.76.2c-.91.81-3.15,3.35-1.52,6,1.63,2.64,6.91,4.88,7.93,4.37,1.02-.51,3.56-2.74,3.56-4.78s-.3-2.74-.3-2.74l-5.89-3.05Z"/>
      <polygon class="cls-4" points="158.81 195.56 163.08 203.79 159.12 211.21 155.15 200.74 158.81 195.56"/>
      <path class="cls-4" d="m170.7,204.7l4.67,5.08s-3.05-10.06-3.25-10.77-1.12-2.54-1.12-2.54l-.41,3.15.1,5.08Z"/>
    </g>
    <path class="cls-4" d="m220.53,240.32s-8.35,3.36-8.83,3.36-4.32.19-4.32.19l1.92-4.13.65-.18s1.17-1.17,2.23-1.36,8.35,2.11,8.35,2.11Z"/>
    <polygon class="cls-4" points="181.8 203.74 194.18 229.92 211.02 237.3 208 244.24 188.5 240.58 182.15 227.59 181.8 203.74"/>
    <rect class="cls-4" x="120.08" y="216.59" width="22.84" height="69.1" transform="translate(-71.72 448.78) rotate(-106.57)"/>
    <rect class="cls-4" x="123.9" y="216.59" width="15.2" height="69.1" transform="translate(-71.72 448.78) rotate(-106.57)"/>
    <rect class="cls-4" x="74.16" y="259.56" width="46.4" height="3.47" transform="translate(-125.33 429.11) rotate(-106.57)"/>
    <line class="cls-2" x1="243.79" y1="217.73" x2="302.94" y2="200.14"/>
    <polygon class="cls-19" points="224.16 218.64 226.86 227.7 247.74 218.04 246.93 215.32 224.16 218.64"/>
    <rect class="cls-4" x="210.7" y="218.05" width="21.08" height="12.78" transform="translate(69.19 500.48) rotate(-106.57)"/>
    <rect class="cls-19" x="165.7" y="196.28" width="27.61" height="81.15" transform="translate(3.67 476.44) rotate(-106.57)"/>
    <rect class="cls-4" x="142.56" y="227.3" width="27.61" height="32.88" transform="translate(-32.66 463.11) rotate(-106.57)"/>
    <rect class="cls-3" x="158.28" y="231.03" width="27.61" height="16.07" transform="translate(-7.99 472.16) rotate(-106.57)"/>
    <rect class="cls-1" x="158.28" y="235.5" width="27.61" height="7.11" transform="translate(-7.99 472.16) rotate(-106.57)"/>
    <line class="cls-2" x1="211.36" y1="236.2" x2="210.15" y2="232.15"/>
    <line class="cls-2" x1="206.76" y1="237.56" x2="205.56" y2="233.51"/>
    <line class="cls-2" x1="202.17" y1="238.93" x2="200.97" y2="234.88"/>
    <line class="cls-2" x1="197.58" y1="240.3" x2="196.38" y2="236.24"/>
    <line class="cls-2" x1="192.99" y1="241.66" x2="191.78" y2="237.61"/>
    <line class="cls-2" x1="188.4" y1="243.03" x2="187.19" y2="238.98"/>
    <g>
      <path class="cls-4" d="m150.84,251.27s4.65,3.05,5.38,3.49c.73.44,2.47,3.49,2.47,3.92s-.58,1.31-1.02,1.45c-.44.15-2.18-.15-2.18-.15,0,0-1.16,1.16-2.62,1.45-1.45.29-2.18.29-3.34,0-1.16-.29-4.07-5.38-4.07-5.38l5.38-4.8Z"/>
      <polyline class="cls-4" points="147.49 202.86 140.23 205.48 128.31 239.2 146.19 258.25 152.15 251.56 140.81 235.57 149.96 216.24"/>
    </g>
    <g>
      <path class="cls-4" d="m212.25,241.42s-.24,2.47.08,2.55c.32.08,1.12.16,1.2-.56.08-.72.58-2.05,0-2.63-1.04-1.04-1.28.64-1.28.64Z"/>
      <path class="cls-4" d="m214.28,240.32s-.29,2.97.1,3.07c.38.1,1.34.19,1.44-.67.1-.86.7-2.47,0-3.17-1.25-1.25-1.54.77-1.54.77Z"/>
      <path class="cls-4" d="m216.2,239.74s-.29,2.97.1,3.07c.38.1,1.34.19,1.44-.67.1-.86.7-2.47,0-3.17-1.25-1.25-1.53.77-1.53.77Z"/>
      <path class="cls-4" d="m218.22,239.55s-.29,2.97.1,3.07c.38.1,1.34.19,1.44-.67.1-.86.7-2.47,0-3.17-1.25-1.25-1.53.77-1.53.77Z"/>
    </g>
    <path class="cls-3" d="m181.97,353.87l6.95,3.99s6.92,1.15,7.3,1.73c.38.58-.77,2.31-.77,2.31h-23.06l1.23-8.02h8.35Z"/>
    <g>
      <rect class="cls-4" x="524.9" y="328.72" width="9.63" height="173.98" transform="translate(615.75 -252.13) rotate(59.22)"/>
      <rect class="cls-4" x="524.9" y="328.72" width="9.63" height="173.98" transform="translate(1161.06 181.59) rotate(121.53)"/>
      <rect class="cls-4" x="451.55" y="361.39" width="10.09" height="103.56"/>
      <rect class="cls-4" x="600.16" y="361.39" width="10.09" height="103.56"/>
      <rect class="cls-4" x="451.55" y="361.39" width="158.7" height="9.41"/>
    </g>
    <g>
      <rect class="cls-4" x="145.5" y="328.72" width="9.63" height="173.98" transform="translate(430.53 73.82) rotate(59.22)"/>
      <rect class="cls-4" x="145.5" y="328.72" width="9.63" height="173.98" transform="translate(583.25 504.98) rotate(121.53)"/>
      <rect class="cls-4" x="72.15" y="361.39" width="10.09" height="103.56"/>
      <rect class="cls-4" x="220.76" y="361.39" width="10.09" height="103.56"/>
      <rect class="cls-4" x="72.15" y="361.39" width="158.7" height="9.41"/>
    </g>
    <g>
      <path class="cls-4" d="m609.84,280.12s-3.85,2.43-4.28,4c-.43,1.57-1,2.85-1.28,3.28-.29.43-4.42,2-4.42,2.85s1,2.85,1,2.85c0,0-1.28,8.85-.86,9.13s3.71.71,3.71.71v4.71l11.99-.57.14-4.14s6.14-3.85,8.13-5.71c2-1.86,4-3.85,3.43-8.28-.57-4.42-5.42-11.56-10.13-11.84-4.71-.29-7.99-1.14-7.42,3Z"/>
      <path class="cls-3" d="m627.39,288.97c-.57-4.42-5.42-11.56-10.13-11.84-4.71-.29-7.99-1.14-7.42,3,0,0,2.28,2.43,2.28,3.85s-3.14,0-3.71,1.57,1.28,4.71,1.28,4.71c0,0-1.71,1.28-1.14,2.28.57,1,1.28,1.28,1.71.71.43-.57,1.71-1.28,3.57,0s-.71,4.71-1.86,5.28c-1.14.57-2.57.43-2.57.43,0,0,2.14,2.57,3.14,3.14.74.42,2.51.53,3.84.5,1.56-.99,5.95-3.84,7.58-5.35,2-1.86,4-3.85,3.42-8.28Z"/>
      <polygon class="cls-4" points="614.98 305.1 603.42 306.38 599.56 310.66 611.27 308.95 618.97 310.09 616.83 305.38 614.98 305.1"/>
      <g>
        <rect class="cls-4" x="575.72" y="314.62" width="18.98" height="28.97" transform="translate(-53.93 123.48) rotate(-11.52)"/>
        <rect class="cls-4" x="576.89" y="314.64" width="16.34" height="27.51" transform="translate(-53.79 123.44) rotate(-11.52)"/>
        <path class="cls-4" d="m583.64,313.19l-.09-.42c-.17-.85-1-1.4-1.85-1.22-.85.17-1.4,1-1.22,1.85l.09.42-2.24.46.51,2.52,7.41-1.51-.51-2.52-2.1.43Z"/>
      </g>
      <g>
        <path class="cls-4" d="m580.15,335.92s-.57-4-.57-5.14-1.86-4.28-2.71-5.57c-.86-1.28-1.14-4.28-2-4.71-.86-.43-1.57-.71-1.86.14-.29.86-.43,1.57-.43,1.57,0,0-2.28,3.14-2,3.85.29.71.29,4.28.71,4.99.43.71,4.14,4.14,4.14,4.14l.14,3,4.57-2.28Z"/>
        <line class="cls-2" x1="572.59" y1="322.22" x2="573.59" y2="326.22"/>
      </g>
      <path class="cls-3" d="m590.06,401.72s2.66,21.11,2.66,22.23,2.72,21.91,3,24.29c.28,2.38-1.54,5.46-1.26,7s.7,4.62.84,5.04c.14.42-5.46,3.64-7,4.06-1.54.42-1.26,2.38-.42,3.08.84.7,8.82,1.12,11.62,1.12s8.68.98,9.66-.14c.98-1.12,1.26-2.24,1.26-2.24,0,0,.84,2.24,3.08,1.96,2.24-.28,3.08,0,4.06-1.12s1.4-4.2.98-5.6c-.42-1.4-.56-2.52,0-4.34.56-1.82.56-2.94.56-6.86s.14-8.68,0-9.1c-.14-.42-.55-18.38-.55-18.8s3.6-23.09,3.6-23.09l-31.74-.56-.34,3.08Z"/>
      <g>
        <path class="cls-4" d="m601.99,309.09s-14.13,5.99-14.27,6.56c-.14.57-6.85,23.83-6.85,23.83l-1-4.57s-1.86,0-3.42,1.28c-1.57,1.28-3.28,4.42-3.28,4.42,0,0,4.42,18.27,5.14,18.84.71.57,3.71.57,4.99-.14,1.28-.71,5.99-7.99,5.99-7.99l-3.71,29.26-2.57,21.55s11.84,4.42,20.41,4.42,18.84-2.85,18.84-2.85l4.71-2.14s-.29-35.39-.43-39.82c-.14-4.42-.86-11.84-.86-11.84,0,0,.57,2.28,1.86,2.14,1.28-.14,4.85-2.14,5.28-5.14.43-3,.14-6.28-.71-8.56-.86-2.28-2-13.13-2-14.13s-1.86-8.99-2.71-10.13c-.86-1.14-8.42-4-8.42-4,0,0-2.71-3.71-16.98-1Z"/>
        <line class="cls-2" x1="625.68" y1="349.91" x2="627.82" y2="323.36"/>
        <polyline class="cls-2" points="589.29 351.33 589.86 331.93 588.72 321.65"/>
        <path class="cls-2" d="m619.83,336.35s-8.85,19.55-9.56,20.98"/>
        <line class="cls-2" x1="611.41" y1="351.19" x2="607.84" y2="359.61"/>
        <line class="cls-2" x1="580.87" y1="339.49" x2="577.16" y2="348.48"/>
      </g>
    </g>
    <line class="cls-2" x1="17.68" y1="465.3" x2="776.23" y2="465.3"/>
    <g>
      <g>
        <path class="cls-4" d="m529.99,266.4s2.58,5.69,3.12,6.64c.54.95-2.3,5.02-3.52,5.15-1.22.14-3.12-1.08-4.47-2.03-1.36-.95-2.98-7.46-2.58-8.54.41-1.08,7.46-1.22,7.46-1.22Z"/>
        <path class="cls-2" d="m525.61,271.16s-.06.71,1.54,1.77c1.59,1.06,4.43,1,4.43,1"/>
        <path class="cls-2" d="m531.22,275.53s-.65-1.54-1.48-1.54-1.77,1.95-1.77,2.6,1,1.48,1,1.48"/>
        <path class="cls-2" d="m527.92,273.46s-1.54.53-1.77,1.48c-.24.94.41,2.07.41,2.07"/>
        <path class="cls-2" d="m526.44,272.51s-1.95.53-1.83,2.48"/>
      </g>
      <path class="cls-3" d="m479.64,289.61s.01,24,.91,27.31c.89,3.32,5.36,32.39,5.36,32.39,0,0-1.79.64-1.79,1.28s.26,2.93.26,2.93c0,0-2.42,2.3-3.83,3.7s-2.93,1.4-3.19,2.68c-.25,1.28,1.02,1.91,1.02,1.91,0,0,7.01.89,10.33.89s9.31-.77,9.31-.77c0,0,.64-1.02.51-2.68s-1.4-5.99-1.4-5.99c0,0-.13-3.19-.13-4.59s-1.28-7.52-1.28-7.52l-.86-27.58,3.61-22,5.41.72s6.25,20.42,7.27,22.33c1.02,1.91,17.98,33.79,17.98,33.79,0,0-2.04.38-2.04,1.15s1.02,3.44,1.02,3.44c0,0-2.42,2.93-3.57,3.95s-2.81,1.66-2.17,2.55c.64.89,11.09,1.4,13.26,1.4s4.72-1.53,4.97-2.42c.26-.89-1.91-6.25-1.91-6.63s.13-3.32-.38-5.1c-.51-1.79-2.3-3.95-2.55-5.1-.25-1.15-10.97-34.94-10.97-34.94l-2.18-19.41-.38-2.3s-24.74,2.17-30.35,1.4c-5.61-.77-11.73-2.04-11.73-2.04l-.51,5.23Z"/>
      <path class="cls-4" d="m481.99,228.07s-2.67,21.33-2.46,25.32c.21,4,.21,17.43.21,20.2s-1.64,18.97-1.64,18.97l6.77,2.15,2.56-5.95v7.18s15.28.1,22.25-.92c6.97-1.03,15.79-5.02,19.38-7.69l-5.02-18.15s2.87.31,4.61-.21c1.74-.51,3.79-2.67,3.79-2.67,0,0-4.41-19.17-7.28-27.48-2.87-8.3-7.07-21.84-9.54-23.79-2.46-1.95-7.59-2.77-7.59-2.77,0,0-11.89-2.26-21.94,2.26,0,0-2.97,2.67-4.1,13.53Z"/>
      <g>
        <path class="cls-4" d="m487.02,185.72s-1.03,1.64-1.13,3.28c-.1,1.64.1,2.36-.72,3.69-.82,1.33-3.08,1.54-3.18,2.05-.1.51,1.33,2.87,1.33,2.87,0,0,.51,5.74.92,7.07.41,1.33,4.41,1.44,4.41,1.44l.62,5.13s5.13-2.15,9.64-2.67c4.51-.51,5.13-.51,5.13-.51,0,0-1.95-5.23-1.74-8.61.21-3.38,1.44-11.38-1.13-15.79-2.56-4.41-9.74-3.9-14.15,2.05Z"/>
        <path class="cls-4" d="m487.13,192.65c-.12.62-.39,1.09-.62,1.05-.23-.04-.32-.58-.2-1.2.12-.62.39-1.09.62-1.05.23.04.32.58.2,1.2Z"/>
        <path class="cls-4" d="m486.37,189.66s.97-1.6,1.94.97"/>
      </g>
      <path class="cls-3" d="m491.77,176.27c-1.98.82-3.6,2.32-4.54,4.74-1.64,4.2-.82,7.59,1.64,9.84,2.46,2.26,6.56,9.95,5.23,12.1-1.33,2.15-4,.92-4,.92,0,0,2.87,4.92,6.56,5.33s6.97-.51,9.84-2.36c2.87-1.85,7.59-7.18,7.69-12.92.08-4.43-1.22-9-3.92-12.55-3.78-4.97-12.67-7.51-18.5-5.11Z"/>
      <path class="cls-4" d="m485.27,212.48s3.59-4.61,12.61-4.82c9.02-.21,10.36,2.36,10.56,3.38.2,1.03.31,1.95.31,1.95,0,0-8.3-.82-13.43.31-5.13,1.13-6.87,1.44-6.87,1.44l-3.18-2.26Z"/>
      <g>
        <path class="cls-4" d="m447.54,169.79l17.04,1.81c.68.07,1.16.68,1.09,1.36h0c-.08.67-.68,1.15-1.34,1.08l-17.2-1.82-2.57-1.6,2.99-.83Z"/>
        <polygon class="cls-2" points="447.32 169.85 444.55 170.62 446.91 172.09 447.32 169.85"/>
        <polygon class="cls-2" points="446.24 170.15 444.55 170.62 446.03 171.54 446.24 170.15"/>
        <path class="cls-4" d="m464.58,171.61l-2.24-.24c-.26.58-.42,1.22-.42,1.9,0,.18.01.35.03.53l2.37.25c.67.07,1.27-.41,1.34-1.08.08-.68-.41-1.28-1.09-1.36Z"/>
      </g>
      <g>
        <path class="cls-4" d="m460.73,184.8s-.83-3.89-.97-5.21c-.14-1.32-1.25-4.58-1.25-4.58,0,0-.9-2.15-1.53-3.06-.68-.98-2.08-2.57-3.06-2.71-.97-.14-1.04-.14-1.46.21s-1.18.9-1.18.9c0,0-2.15.69-2.78,1.39s-1.39,3.26-1.39,3.47-1.04,1.67-.76,2.08c.28.42,2.99-1.67,2.99-1.67,0,0,1.6,4.03,2.01,5.07.42,1.04,3.2,3.61,3.2,3.61l1.6,4.79,4.58-4.31Z"/>
        <path class="cls-2" d="m451.29,170.35s1.04-.14,1.81.28c.76.42,1.25,1.53,1.25,1.53"/>
        <path class="cls-2" d="m448.51,171.74s1.81-.35,2.36-.07,1.53,1.32,1.53,1.32"/>
        <path class="cls-2" d="m447.12,175.21s.9-1.46,1.46-1.6,1.94.21,2.15.28"/>
      </g>
      <path class="cls-4" d="m495.22,216.79l-15.58-6.66-8.61-4.61-10.36-21.53-6.46,4s11.48,30.04,12.71,31.78c1.23,1.74,13.53,10.36,13.53,10.36l5.74,5.13"/>
      <polyline class="cls-2" points="524.03 269.18 517.39 244.21 514.75 222.9"/>
      <g>
        <path class="cls-2" d="m502.47,222.2s2.03,2.44,4.07,11.52"/>
        <path class="cls-2" d="m507.08,230.06s.95,2.98.95,7.19"/>
      </g>
      <path class="cls-2" d="m479.83,265.85s1.49.54,2.17.81c.68.27,4.47.68,4.47.68l-.14,2.44s-3.52.41-5.69-1.08"/>
    </g>
  </g>
</svg>