<?xml version="1.0" encoding="UTF-8"?>
<svg id="Capa_1" data-name="Capa 1" xmlns="http://www.w3.org/2000/svg" viewBox="0 0 732.82 735.54">
  <defs>
    <style>
      .cls-1, .cls-2 {
        opacity: .5;
      }

      .cls-3 {
        opacity: .6;
      }

      .cls-4 {
        fill: #375a64;
      }

      .cls-4, .cls-5, .cls-6, .cls-7, .cls-8, .cls-9, .cls-10, .cls-11, .cls-12, .cls-13, .cls-2, .cls-14, .cls-15, .cls-16, .cls-17, .cls-18 {
        stroke-width: 0px;
      }

      .cls-5 {
        fill: #e1e1e1;
      }

      .cls-6 {
        fill: #ececec;
      }

      .cls-7, .cls-16 {
        fill: #04c4d9;
      }

      .cls-8 {
        fill: #aa6550;
      }

      .cls-10 {
        fill: #f5f5f5;
      }

      .cls-11 {
        fill: #1a2e35;
      }

      .cls-12 {
        fill: #fff;
      }

      .cls-19 {
        opacity: .3;
      }

      .cls-13 {
        fill: #ff9c6a;
      }

      .cls-2, .cls-17 {
        fill: #191f40;
      }

      .cls-14 {
        fill: #024873;
      }

      .cls-15 {
        fill: #e8505b;
      }

      .cls-16 {
        opacity: .4;
      }

      .cls-18 {
        fill: #ffc19d;
      }
    </style>
  </defs>
  <path class="cls-5" d="m599.72,50.15c.11-.09,2.88,3.21,6.17,7.37,3.29,4.16,5.87,7.61,5.75,7.7-.11.09-2.87-3.21-6.17-7.37-3.29-4.16-5.87-7.61-5.75-7.7Z"/>
  <path class="cls-5" d="m620.53,81.09c0,.79-.64,1.43-1.43,1.43s-1.43-.64-1.43-1.43.64-1.43,1.43-1.43,1.43.64,1.43,1.43Z"/>
  <path class="cls-5" d="m110.7,55.42c.11-.09,2.88,3.21,6.17,7.37,3.29,4.16,5.87,7.61,5.75,7.7-.11.09-2.87-3.21-6.17-7.37-3.29-4.16-5.87-7.61-5.75-7.7Z"/>
  <path class="cls-16" d="m600.26,0c-73.2,0-132.53,59.34-132.53,132.57,0,12.5,1.72,24.61,5.01,36.09,1.75,6.29,3.99,12.39,6.62,18.28v.04c.91,4.42,1.39,8.99,1.39,13.67,0,37.48-30.38,67.82-67.86,67.82-25.74,0-48.15-14.33-59.63-35.5l-89.46-161.45C225.76,2.85,138.38-20.58,71.07,19.82l-3.69,2.19C2.88,60.69-19.02,143.72,17.95,209.2l257.5,455.81c36.89,65.33,119.04,89.5,185.44,54.51,47.24-24.86,74.11-73.09,74.11-122.88,0-22.7-5.59-45.77-17.4-67.09l-36.09-65.15c-.11-.18-.22-.37-.29-.51-1.54-2.56-3-5.16-4.35-7.82-.04-.04-.04-.07-.07-.15-9.14-17.88-14.3-38.17-14.3-59.63,0-72.54,58.79-131.33,131.33-131.33h.58c1.72,0,3.44.04,5.16.15h.69c73.2,0,132.57-59.34,132.57-132.53C732.82,59.34,673.45,0,600.26,0Z"/>
  <rect class="cls-5" x="565.64" y="49.59" width="97" height="140.59"/>
  <rect class="cls-10" x="559.28" y="50.15" width="97" height="140.59"/>
  <g>
    <rect class="cls-12" x="571.33" y="65.38" width="72.9" height="110.14"/>
    <path class="cls-5" d="m644.22,175.52s0-.19-.01-.54c0-.36,0-.88-.01-1.56,0-1.38-.02-3.41-.03-6.04-.02-5.28-.04-12.97-.07-22.69-.03-19.42-.07-46.92-.12-79.31l.24.24c-22.27,0-46.95.01-72.89.02h0l.26-.26c-.02,41.55-.04,79.86-.05,110.14l-.21-.21c22.2.05,40.4.08,53.06.11,6.33.02,11.28.04,14.66.05,1.68.01,2.97.02,3.85.02.87,0,1.33.02,1.33.02,0,0-.43.02-1.29.02-.87,0-2.15.01-3.81.02-3.37.01-8.3.03-14.61.05-12.69.03-30.93.06-53.19.11h-.21s0-.21,0-.21c-.01-30.28-.03-68.59-.05-110.14v-.26s.26,0,.26,0h0c25.94,0,50.62.02,72.89.02h.24v.24c-.05,32.45-.09,60.01-.12,79.47-.03,9.69-.05,17.37-.07,22.63-.01,2.61-.02,4.62-.03,5.99,0,.67-.01,1.18-.01,1.53,0,.34-.01.51-.01.51Z"/>
  </g>
  <g class="cls-1">
    <path class="cls-9" d="m625.52,89.22s-.04.07-.13.19c-.11.13-.24.3-.41.52-.19.22-.41.5-.64.85-.24.35-.53.74-.79,1.22-.58.93-1.15,2.15-1.69,3.6-.54,1.46-.99,3.18-1.32,5.11-.33,1.93-.54,4.07-.66,6.37-.13,2.3-.15,4.77-.27,7.37-.12,2.6-.34,5.34-.88,8.13-.28,1.39-.66,2.8-1.15,4.19-.5,1.38-1.16,2.74-1.96,4.03-1.61,2.58-3.89,4.6-6.33,6.07-2.46,1.45-5.04,2.44-7.54,3.19-2.5.76-4.92,1.3-7.17,1.81-2.25.51-4.35,1.01-6.23,1.56-1.88.55-3.55,1.16-4.97,1.79-1.43.62-2.59,1.3-3.51,1.89-.46.3-.86.57-1.19.83-.34.25-.63.47-.84.66-.21.17-.37.31-.51.42-.12.09-.18.14-.18.13,0,0,.05-.06.15-.16.13-.12.28-.27.48-.45.21-.2.49-.43.82-.69.33-.27.72-.56,1.18-.87.91-.62,2.07-1.32,3.5-1.97,1.42-.66,3.1-1.29,4.98-1.86,1.89-.57,3.98-1.09,6.23-1.62,2.25-.52,4.66-1.07,7.13-1.84,2.47-.76,5.03-1.74,7.44-3.17,2.4-1.44,4.62-3.42,6.19-5.94.78-1.26,1.42-2.59,1.92-3.95.48-1.37.85-2.75,1.14-4.13.54-2.76.77-5.48.9-8.07.13-2.59.16-5.06.31-7.38.14-2.31.36-4.46.72-6.41.35-1.94.83-3.67,1.39-5.14.57-1.46,1.16-2.68,1.77-3.61.28-.48.58-.87.83-1.21.24-.35.48-.62.67-.84.18-.2.33-.36.44-.49.1-.11.16-.16.16-.16Z"/>
    <path class="cls-9" d="m635.7,100.11s-.02.07-.09.21c-.08.16-.17.35-.29.6-.29.5-.72,1.26-1.44,2.1-.71.85-1.69,1.81-2.97,2.72-1.28.92-2.85,1.8-4.69,2.55-1.84.75-3.93,1.34-6.19,1.86-2.26.52-4.7.96-7.24,1.55-2.53.59-5.16,1.35-7.68,2.61-2.51,1.24-4.93,3.02-6.6,5.48-1.67,2.47-2.42,5.37-2.69,8.16-.27,2.81-.06,5.54.22,8.12.29,2.59.65,5.04.83,7.36.18,2.32.2,4.5-.05,6.47-.25,1.97-.73,3.71-1.35,5.17-.6,1.46-1.35,2.61-2.04,3.48-.69.87-1.36,1.43-1.8,1.8-.22.16-.4.28-.54.38-.12.08-.19.13-.19.12,0,0,.05-.06.17-.15.13-.11.3-.24.51-.41.42-.39,1.07-.96,1.73-1.84.66-.87,1.38-2.02,1.95-3.47.59-1.44,1.04-3.17,1.27-5.12.22-1.95.19-4.11,0-6.41-.19-2.3-.56-4.75-.86-7.35-.3-2.59-.52-5.35-.25-8.2.26-2.83,1.03-5.81,2.75-8.35,1.72-2.54,4.21-4.35,6.76-5.61,2.56-1.28,5.23-2.04,7.78-2.62,2.55-.58,4.99-1.01,7.25-1.52,2.26-.5,4.34-1.08,6.16-1.8,1.82-.73,3.39-1.58,4.67-2.47,1.28-.88,2.26-1.82,2.99-2.64.73-.82,1.18-1.55,1.49-2.04.13-.24.24-.42.32-.57.08-.13.12-.19.12-.19Z"/>
    <path class="cls-9" d="m609.83,136.01s-.81-.49-2.05-1.38c-1.23-.9-2.92-2.15-4.76-3.56-1.85-1.41-3.5-2.71-4.69-3.66-1.19-.95-1.9-1.57-1.87-1.61.03-.05.81.49,2.05,1.38s2.92,2.15,4.76,3.57c1.85,1.41,3.5,2.71,4.69,3.66s1.9,1.57,1.87,1.61Z"/>
    <path class="cls-9" d="m615.49,130.78s-.26-.13-.68-.42c-.42-.29-1.02-.72-1.75-1.26-1.47-1.08-3.48-2.59-5.69-4.27-2.21-1.69-4.19-3.23-5.62-4.37-.71-.57-1.28-1.03-1.67-1.36-.39-.33-.6-.52-.58-.54.02-.02.26.13.68.42.42.29,1.02.72,1.75,1.26,1.47,1.08,3.48,2.59,5.69,4.27,2.21,1.69,4.19,3.23,5.62,4.37.71.57,1.28,1.03,1.67,1.36.39.33.6.52.58.54Z"/>
    <path class="cls-9" d="m617.69,124.37s-.78-.46-1.97-1.32c-1.18-.86-2.8-2.07-4.58-3.42-1.77-1.36-3.36-2.6-4.5-3.52-1.14-.92-1.83-1.51-1.79-1.55.03-.05.78.46,1.97,1.32,1.18.86,2.8,2.07,4.58,3.42,1.77,1.36,3.36,2.6,4.5,3.52,1.14.92,1.83,1.51,1.79,1.55Z"/>
    <path class="cls-9" d="m619.31,117.09c-.07.09-1.65-1-3.53-2.44-1.88-1.44-3.35-2.68-3.28-2.77.07-.09,1.65,1,3.53,2.44,1.88,1.44,3.35,2.68,3.28,2.77Z"/>
    <path class="cls-9" d="m627.91,107.47c-.07.09-1.83-1.14-3.92-2.74-2.1-1.6-3.74-2.98-3.68-3.07.07-.09,1.83,1.14,3.93,2.74,2.1,1.6,3.74,2.98,3.68,3.07Z"/>
    <path class="cls-9" d="m635.14,103.45s-.78-.46-1.97-1.32c-1.18-.86-2.8-2.07-4.58-3.42-1.77-1.36-3.36-2.6-4.5-3.52s-1.83-1.51-1.79-1.55c.03-.05.78.46,1.97,1.32,1.18.86,2.8,2.07,4.58,3.42,1.77,1.36,3.36,2.6,4.5,3.52,1.14.92,1.83,1.51,1.79,1.55Z"/>
    <path class="cls-9" d="m603.08,138.32c-.07.09-1.83-1.14-3.92-2.74-2.1-1.6-3.74-2.98-3.68-3.07.07-.09,1.83,1.14,3.93,2.74,2.1,1.6,3.74,2.98,3.68,3.07Z"/>
    <path class="cls-9" d="m594.6,148.86c-.07.09-1.71-1.05-3.66-2.54-1.95-1.49-3.48-2.78-3.41-2.87.07-.09,1.71,1.05,3.66,2.54,1.95,1.49,3.48,2.78,3.41,2.87Z"/>
    <path class="cls-9" d="m594.3,157.14s-.8-.47-2.01-1.35c-1.21-.88-2.86-2.11-4.67-3.49-1.81-1.38-3.43-2.65-4.6-3.59-1.16-.94-1.87-1.54-1.83-1.58.03-.05.8.47,2.01,1.35,1.21.88,2.86,2.11,4.67,3.49,1.81,1.38,3.43,2.65,4.6,3.59,1.16.94,1.87,1.54,1.83,1.58Z"/>
  </g>
  <g>
    <path class="cls-12" d="m644.6,175.16c3.62,5.76,7.89,11.1,12.71,15.9"/>
    <path class="cls-5" d="m657.31,191.06s-.91-.7-2.22-2.02c-1.3-1.31-3.03-3.2-4.8-5.41-1.76-2.21-3.23-4.31-4.22-5.87-1-1.56-1.54-2.57-1.48-2.61.07-.04.72.9,1.79,2.4,1.07,1.5,2.57,3.55,4.33,5.75,1.75,2.19,3.43,4.11,4.66,5.48,1.23,1.37,2,2.22,1.94,2.27Z"/>
  </g>
  <g>
    <path class="cls-12" d="m559.26,190.63c4.24-5.23,8.47-10.45,12.71-15.68"/>
    <path class="cls-5" d="m571.97,174.96c.11.09-2.64,3.68-6.15,8-3.51,4.33-6.44,7.76-6.56,7.67-.11-.09,2.64-3.67,6.15-8,3.51-4.33,6.44-7.76,6.56-7.67Z"/>
  </g>
  <g>
    <g>
      <path class="cls-6" d="m606.57,359.6s-10.82-.78-9.83,23.5c1,24.28,3.47,37.22,3.47,37.22,0,0-.32,5.38-4.49,4.33-4.17-1.06-12.01-6.3-15.89-2.38-4.02,4.06-2.59,10.29,2.74,17.63,5.33,7.34,16.42,23.85,17.41,25.34.98,1.47,1.37,4.22-1.58,3.96-2.96-.26-22.91-7.03-25.55,2.63-2.64,9.66,15.57,27.67,17.52,29.67,1.95,2.01,2.06,3.27,1.27,4.49-.79,1.21-7.28-1.69-13.04-3.38-5.75-1.69-12.72-2.64-13.78,3.06-1.06,5.7,6.96,22.38,36.99,39.92l14.45,7.21,13.68-8.72c28.13-20.45,34.44-37.85,32.82-43.42-1.62-5.57-8.46-3.92-14.02-1.66-5.56,2.26-11.72,5.8-12.63,4.67-.91-1.13-.93-2.4.81-4.59,1.74-2.19,18.06-21.93,14.46-31.28-3.6-9.35-22.77-.62-25.69-.06-2.92.56-2.8-2.22-1.97-3.78.84-1.59,10.22-19.12,14.79-26.96,4.57-7.84,5.37-14.18.96-17.82-4.25-3.51-11.53,2.49-15.57,3.96-4.04,1.47-4.9-3.86-4.9-3.86,0,0,1.17-13.12-.27-37.38-1.44-24.26-12.39-22.3-12.39-22.3"/>
      <path class="cls-5" d="m607.43,381.35s.03.17.06.51c.03.36.07.85.12,1.49.09,1.34.22,3.26.39,5.73.33,4.98.76,12.19,1.25,21.1.99,17.82,2.15,42.45,3.34,69.66,1.19,27.21,2.28,51.85,3.17,69.67.45,8.89.82,16.1,1.07,21.11.12,2.47.22,4.4.29,5.74.03.64.05,1.13.06,1.49.01.34,0,.51,0,.51,0,0-.03-.17-.06-.51-.03-.36-.07-.85-.12-1.49-.09-1.34-.22-3.26-.39-5.73-.33-4.98-.76-12.19-1.25-21.1-.99-17.82-2.15-42.45-3.34-69.67-1.19-27.21-2.28-51.84-3.17-69.66-.45-8.89-.82-16.1-1.07-21.11-.12-2.47-.22-4.4-.29-5.74-.03-.64-.05-1.13-.06-1.49-.01-.34,0-.51,0-.51Z"/>
      <path class="cls-5" d="m590.52,430.04s.35.24.9.75c.56.5,1.34,1.26,2.29,2.2,1.91,1.89,4.47,4.57,7.24,7.57,2.71,2.97,5.17,5.65,7.07,7.73.84.91,1.56,1.69,2.15,2.33.51.55.78.87.75.89-.03.03-.35-.24-.9-.74-.55-.51-1.34-1.26-2.28-2.21-1.89-1.91-4.42-4.62-7.19-7.63-2.73-2.95-5.21-5.61-7.12-7.68-.85-.91-1.57-1.69-2.16-2.32-.51-.55-.77-.87-.75-.9Z"/>
      <path class="cls-5" d="m612.36,451.05c-.11-.11,5.17-5.64,11.8-12.36,6.63-6.72,12.09-12.08,12.2-11.97.11.11-5.17,5.64-11.8,12.36-6.63,6.72-12.09,12.08-12.19,11.97Z"/>
      <path class="cls-5" d="m612.3,492.92s.34-.26,1.01-.64c.77-.43,1.72-.96,2.83-1.59,2.38-1.34,5.67-3.2,9.22-5.39,3.56-2.18,6.71-4.26,8.99-5.78,1.06-.71,1.96-1.31,2.7-1.8.64-.42,1-.64,1.03-.61s-.3.31-.9.78c-.6.47-1.49,1.14-2.6,1.94-2.22,1.61-5.35,3.74-8.92,5.93-3.56,2.19-6.89,4-9.33,5.26-1.22.62-2.21,1.11-2.91,1.43-.7.32-1.09.48-1.11.45Z"/>
      <path class="cls-5" d="m588.36,478.26s.37.14,1,.47c.62.33,1.52.83,2.62,1.46,2.2,1.25,5.22,3.01,8.54,4.98,3.32,1.97,6.31,3.79,8.45,5.12,1.07.67,1.94,1.22,2.53,1.61.59.39.91.62.89.65-.02.03-.37-.14-1-.47-.62-.33-1.52-.83-2.62-1.46-2.2-1.25-5.22-3.01-8.54-4.98-3.32-1.97-6.3-3.79-8.45-5.12-1.07-.67-1.94-1.22-2.53-1.61-.59-.39-.91-.62-.89-.65Z"/>
      <path class="cls-5" d="m583.62,515.22s.47.19,1.27.61c.89.49,2.02,1.11,3.36,1.85,2.83,1.59,6.71,3.81,10.99,6.3,4.28,2.49,8.13,4.77,10.91,6.44,1.31.8,2.41,1.48,3.27,2.01.77.48,1.18.77,1.16.8-.02.03-.47-.19-1.27-.61-.89-.49-2.02-1.11-3.36-1.85-2.83-1.59-6.71-3.81-10.99-6.3-4.28-2.49-8.13-4.77-10.91-6.44-1.31-.8-2.41-1.48-3.27-2.01-.77-.48-1.18-.77-1.16-.8Z"/>
      <path class="cls-5" d="m613.96,532.6s.43-.33,1.26-.84c.92-.56,2.1-1.28,3.51-2.14,2.96-1.81,7.05-4.31,11.48-7.21,4.44-2.89,8.39-5.6,11.24-7.59,1.36-.94,2.49-1.73,3.38-2.35.8-.55,1.25-.84,1.28-.81.02.03-.39.38-1.15.98-.76.6-1.88,1.46-3.28,2.49-2.79,2.07-6.72,4.84-11.16,7.73-4.44,2.9-8.57,5.36-11.59,7.08-1.51.86-2.74,1.54-3.6,1.99-.86.45-1.34.69-1.36.65Z"/>
    </g>
    <g>
      <polygon class="cls-5" points="635.68 557.53 595.71 557.53 608.75 656.28 622.63 656.28 635.68 557.53"/>
      <path class="cls-10" d="m597.78,569.67s.04.14.21.35c.17.21.48.48.96.69.95.41,2.61.45,4.22-.52,1.61-.89,3.02-2.64,5.18-3.41,2.15-.82,4.8-.67,7.35.15,2.58.8,4.82,2.1,6.84,3.32,2.03,1.21,3.9,2.29,5.57,2.99,1.66.72,3.1,1.06,4.1,1.19.5.07.89.09,1.16.08.27,0,.4-.01.41-.03.02-.13-2.26-.11-5.48-1.65-1.61-.74-3.43-1.84-5.44-3.08-2.01-1.24-4.3-2.6-6.96-3.42-2.63-.85-5.46-1-7.76-.08-1.15.44-2.11,1.13-2.92,1.81-.82.67-1.55,1.31-2.29,1.77-1.46.94-3,.98-3.89.68-.92-.32-1.22-.86-1.27-.8Z"/>
      <path class="cls-10" d="m599.24,587.86c.05.03.32-.41.94-1.06.64-.63,1.68-1.46,3.19-2.02,1.5-.58,3.43-.92,5.56-.84,2.14.07,4.47.54,6.96.95,2.48.42,4.93.6,7.12.3,2.19-.28,4.09-.91,5.6-1.6,1.51-.69,2.63-1.45,3.37-2,.74-.56,1.09-.93,1.07-.96-.07-.11-1.62,1.27-4.62,2.54-1.5.62-3.36,1.19-5.49,1.43-2.13.26-4.48.07-6.95-.34-2.46-.4-4.83-.86-7.04-.9-2.21-.05-4.21.35-5.75,1.01-1.56.64-2.61,1.57-3.21,2.28-.29.37-.5.66-.6.89-.12.22-.17.33-.15.34Z"/>
      <path class="cls-10" d="m631.15,597.6s-.35-.28-1.1-.57c-.74-.29-1.88-.6-3.31-.71-1.43-.11-3.15-.02-5.01.29-1.86.3-3.86.82-5.96,1.26-2.1.44-4.12.74-5.95.67-1.83-.06-3.46-.46-4.73-1.02-2.57-1.13-3.49-2.77-3.58-2.67-.02.01.16.43.68,1.04.51.62,1.41,1.4,2.71,2.04,1.3.64,2.99,1.1,4.89,1.2,1.91.1,3.99-.19,6.11-.63,2.12-.45,4.11-.98,5.93-1.31,1.82-.33,3.49-.47,4.88-.42,2.8.09,4.4.94,4.44.82Z"/>
      <path class="cls-10" d="m602.77,611.29c.02.1,1.43-.89,3.88-.39,1.2.22,2.55.83,4.06,1.51,1.51.7,3.32,1.3,5.27,1.45,3.93.38,7.42-.89,9.56-2.22,1.1-.65,1.86-1.35,2.38-1.83.49-.52.74-.82.7-.85-.09-.1-1.14,1.09-3.31,2.28-2.14,1.18-5.51,2.33-9.27,1.97-3.78-.22-6.69-2.47-9.31-2.77-1.28-.19-2.35,0-3.01.26-.68.26-.96.56-.94.59Z"/>
      <path class="cls-10" d="m605,630.25c0,.07,1.34.07,3.33-.66,2.01-.67,4.5-2.21,7.4-3.37,1.46-.56,2.92-.9,4.25-.89,1.33,0,2.52.33,3.42.78,1.84.91,2.37,2.21,2.47,2.13.03-.01-.05-.34-.38-.84-.32-.5-.93-1.16-1.87-1.7-.94-.53-2.19-.93-3.62-.97-1.43-.04-2.98.31-4.49.88-3.01,1.2-5.42,2.78-7.34,3.55-1.9.82-3.18.99-3.16,1.09Z"/>
      <path class="cls-10" d="m606.96,639.06c-.02.08.94.43,2.53.82,1.59.4,3.83.82,6.33,1.07,2.5.24,4.77.26,6.41.19,1.64-.08,2.65-.23,2.64-.31-.01-.2-4.05-.02-8.99-.52-4.94-.47-8.87-1.43-8.92-1.24Z"/>
    </g>
  </g>
  <rect class="cls-5" x="75.12" y="55.42" width="97" height="140.59"/>
  <rect class="cls-10" x="70.26" y="55.42" width="97" height="140.59"/>
  <g>
    <rect class="cls-12" x="82.31" y="70.64" width="72.9" height="110.14"/>
    <path class="cls-5" d="m155.2,180.78s0-.19-.01-.54c0-.36,0-.88-.01-1.56,0-1.38-.02-3.41-.03-6.04-.02-5.28-.04-12.97-.07-22.69-.03-19.42-.07-46.92-.12-79.31l.24.24c-22.27,0-46.95.01-72.89.02h0l.26-.26c-.02,41.55-.04,79.86-.05,110.14l-.21-.21c22.2.05,40.4.08,53.06.11,6.33.02,11.28.04,14.66.05,1.68.01,2.97.02,3.85.02.87,0,1.33.02,1.33.02,0,0-.43.02-1.29.02-.87,0-2.15.01-3.81.02-3.37.01-8.3.03-14.61.05-12.69.03-30.93.06-53.19.11h-.21s0-.21,0-.21c-.01-30.28-.03-68.59-.05-110.14v-.26s.26,0,.26,0h0c25.94,0,50.62.02,72.89.02h.24v.24c-.05,32.45-.09,60.01-.12,79.47-.03,9.69-.05,17.37-.07,22.63-.01,2.61-.02,4.62-.03,5.99,0,.67-.01,1.18-.01,1.53,0,.34-.01.51-.01.51Z"/>
  </g>
  <g>
    <path class="cls-12" d="m155.58,180.43c3.62,5.76,7.89,11.1,12.71,15.9"/>
    <path class="cls-5" d="m168.29,196.33s-.91-.7-2.22-2.02c-1.3-1.31-3.03-3.2-4.8-5.41-1.76-2.21-3.23-4.31-4.22-5.87-1-1.56-1.54-2.57-1.48-2.61.07-.04.72.9,1.79,2.4,1.07,1.5,2.57,3.55,4.33,5.75,1.75,2.19,3.43,4.11,4.66,5.48,1.23,1.37,2,2.22,1.94,2.27Z"/>
  </g>
  <g>
    <path class="cls-12" d="m70.24,195.9c4.24-5.23,8.47-10.45,12.71-15.68"/>
    <path class="cls-5" d="m82.95,180.22c.11.09-2.64,3.68-6.15,8-3.51,4.33-6.44,7.76-6.56,7.67-.11-.09,2.64-3.67,6.15-8,3.51-4.33,6.44-7.76,6.56-7.67Z"/>
  </g>
  <path class="cls-11" d="m666.44,656.11c0,.2-140.02.36-312.71.36s-312.74-.16-312.74-.36,139.99-.36,312.74-.36,312.71.16,312.71.36Z"/>
  <g>
    <path class="cls-4" d="m503.6,611.88l.82,28.3s-28.49,10.34-28.85,15.58l54.93.38.53-44.15-27.43-.12Z"/>
    <path class="cls-11" d="m497.76,642.24c-.06.26,1.1.72,2,1.86.94,1.11,1.16,2.34,1.43,2.33.25.04.45-1.53-.7-2.92-1.14-1.41-2.71-1.53-2.72-1.27Z"/>
    <path class="cls-11" d="m494.43,649.11c.24.06.63-1.28-.05-2.75-.67-1.48-1.93-2.07-2.04-1.84-.15.22.66,1.01,1.19,2.23.57,1.21.64,2.34.9,2.37Z"/>
  </g>
  <g>
    <path class="cls-4" d="m599.75,611.9l5.74,28.27s28.49,10.34,28.85,15.58l-54.93.38-6.68-44.12,27.01-.12Z"/>
    <path class="cls-11" d="m612.16,642.23c.06.26-1.1.72-2,1.86-.94,1.11-1.16,2.34-1.43,2.33-.25.04-.45-1.53.7-2.92,1.14-1.41,2.71-1.53,2.72-1.27Z"/>
    <path class="cls-11" d="m615.48,649.1c-.24.06-.63-1.28.05-2.75.67-1.48,1.93-2.07,2.04-1.84.15.22-.66,1.01-1.19,2.23-.57,1.21-.64,2.34-.9,2.37Z"/>
  </g>
  <polygon class="cls-17" points="571.98 342.11 613.51 640.06 573.22 639.28 527.95 385.7 538.46 640.47 494.33 637.75 478.83 340.3 571.98 342.11"/>
  <g class="cls-19">
    <polygon class="cls-9" points="479.99 363.7 479.83 359.39 574.8 362.34 575.78 370.6 479.99 363.7"/>
  </g>
  <path class="cls-11" d="m510.53,638.93c-.2,0-3.13-59.29-6.54-132.43-3.42-73.16-6.03-132.46-5.83-132.47.2,0,3.12,59.27,6.54,132.44,3.42,73.14,6.03,132.45,5.83,132.46Z"/>
  <path class="cls-11" d="m594.22,636.55s-.06-.22-.13-.67c-.08-.47-.18-1.13-.31-1.97-.26-1.77-.65-4.32-1.14-7.6-.98-6.63-2.39-16.17-4.14-27.94-3.52-23.59-8.53-56.15-14.46-92.05-5.94-35.91-11.67-68.36-15.93-91.82-2.14-11.71-3.87-21.19-5.07-27.78-.59-3.26-1.05-5.8-1.37-7.56-.14-.84-.26-1.5-.34-1.97-.07-.44-.09-.68-.09-.68,0,0,.07.22.16.66.1.47.23,1.12.41,1.96.35,1.75.85,4.29,1.5,7.53,1.29,6.54,3.1,16.02,5.29,27.74,4.38,23.44,10.19,55.88,16.13,91.8,5.93,35.9,10.86,68.48,14.26,92.09,1.7,11.8,3.03,21.36,3.91,27.97.43,3.28.77,5.84,1,7.61.1.85.18,1.51.24,1.98.05.45.06.68.06.68Z"/>
  <path class="cls-17" d="m476.93,266.16s-20.8-4.96-21.49-5.83l17.11-44.06c2.39-6.16,6.42-11.61,11.86-15.37,2.48-1.71,5.2-3.1,8.1-4.08,11.12-3.78,20.21-3.12,20.21-3.12l28.88-1.53c8.97.53,16.64,3.16,22.79,6.31,9.74,4.99,17.24,13.46,21.39,23.58l12.95,32.35-32.67,6.83-1.24,34.76,14.94,66.62-104.25-3.41,4.66-91.26h0l-3.22-1.77Z"/>
  <g class="cls-19">
    <path class="cls-12" d="m459,254.57c-.03.1,5.37,1.86,12.05,3.93,6.69,2.07,12.13,3.68,12.16,3.58s-5.37-1.86-12.05-3.93c-6.69-2.07-12.13-3.68-12.16-3.58Z"/>
  </g>
  <path class="cls-11" d="m553.38,223.59s.22-.26.56-.76c.33-.5.84-1.21,1.49-2.07.65-.86,1.48-1.83,2.45-2.87.98-1.02,2.12-2.09,3.39-3.13,1.28-1.02,2.57-1.91,3.77-2.65,1.22-.73,2.34-1.34,3.32-1.79.97-.46,1.77-.8,2.33-1.02.56-.22.87-.36.86-.38,0-.02-.33.07-.91.25-.58.18-1.4.49-2.39.92-1,.43-2.15,1.01-3.39,1.74-1.23.74-2.54,1.62-3.83,2.66-1.28,1.04-2.42,2.14-3.41,3.18-.97,1.06-1.78,2.06-2.41,2.94-.63.88-1.11,1.62-1.4,2.15-.3.53-.46.82-.43.83Z"/>
  <path class="cls-11" d="m557.64,234.1c-.1.01.91,10.62,2.25,23.7,1.34,13.08,2.52,23.68,2.62,23.67.1-.01-.91-10.62-2.25-23.7-1.34-13.08-2.52-23.68-2.62-23.66Z"/>
  <path class="cls-11" d="m486.62,214.44c.06,0,.19-.83.46-2.15.28-1.33.74-3.14,1.43-5.09.7-1.95,1.5-3.64,2.13-4.84.63-1.2,1.06-1.93,1.01-1.96-.02-.01-.15.15-.37.46-.22.31-.52.78-.87,1.37-.69,1.18-1.54,2.88-2.25,4.84-.7,1.97-1.13,3.82-1.34,5.17-.11.68-.17,1.22-.2,1.61-.03.38-.03.59,0,.6Z"/>
  <path class="cls-11" d="m484.81,251.54s.09-.37.17-1.04c.09-.67.2-1.65.32-2.86.24-2.42.48-5.77.61-9.48.13-3.71.12-7.07.05-9.5-.03-1.21-.07-2.2-.11-2.88-.04-.68-.08-1.05-.1-1.05-.03,0-.04.38-.04,1.06,0,.75,0,1.71,0,2.88,0,2.43-.03,5.78-.16,9.48-.13,3.7-.34,7.05-.5,9.47-.08,1.16-.15,2.12-.2,2.87-.04.68-.06,1.05-.03,1.06Z"/>
  <path class="cls-12" d="m528.48,245.34c7.58.44,15.19.3,22.75-.42v2.96h-22.75v-2.53Z"/>
  <g class="cls-19">
    <path class="cls-12" d="m505.85,196.19s-.04.15-.09.45c-.05.32-.11.76-.2,1.31-.14,1.15-.34,2.83-.51,4.97-.34,4.27-.64,10.34-.74,17.51v.27s.24-.12.24-.12c4.54-2.21,9.62-4.61,14.92-7.25,10.09-5.05,19.22-9.62,25.85-12.94,3.28-1.66,5.94-3.01,7.81-3.96.9-.46,1.61-.83,2.12-1.09.22-.12.4-.22.55-.29.12-.07.18-.11.18-.11s-.07.02-.2.08c-.15.07-.33.15-.56.26-.51.25-1.23.59-2.15,1.03-1.88.92-4.56,2.24-7.87,3.85-6.65,3.3-15.79,7.83-25.9,12.84-5.29,2.64-10.37,5.06-14.89,7.28l.24.15c.08-7.16.33-13.23.61-17.5.13-2.14.3-3.82.41-4.97.06-.56.11-.99.15-1.32.03-.3.04-.45.03-.46Z"/>
  </g>
  <g class="cls-19">
    <path class="cls-12" d="m560.16,257.6s.13-.01.38-.06c.28-.07.63-.15,1.06-.25.97-.25,2.29-.58,3.89-.99,3.28-.84,7.82-1.99,12.84-3.21,5.02-1.21,9.58-2.26,12.89-3.02,1.61-.37,2.93-.67,3.91-.9.43-.1.78-.19,1.06-.26.24-.06.37-.1.36-.11,0-.01-.13,0-.38.04-.29.05-.64.11-1.07.19-.93.17-2.28.44-3.94.78-3.32.69-7.89,1.7-12.92,2.91-5.03,1.22-9.55,2.41-12.82,3.31-1.63.45-2.95.83-3.86,1.1-.42.13-.76.24-1.04.32-.24.08-.36.12-.36.14Z"/>
  </g>
  <g>
    <path class="cls-7" d="m509.83,190.81c-.03-.11-1.95.92-3.84,3.71-1.85,2.78-3.59,7.1-4.57,12.06-.48,2.48-.72,4.89-.83,7.07-.02,1.09-.05,2.14-.01,3.11.05.97.06,1.88.15,2.7.09.81.17,1.56.24,2.22.09.65.2,1.2.28,1.66.17.91.29,1.4.34,1.4.05,0,.03-.52-.05-1.43-.04-.47-.1-1.03-.15-1.66-.04-.66-.08-1.4-.13-2.21-.05-.82-.03-1.71-.06-2.67,0-.96.05-1.99.08-3.07.14-2.16.4-4.52.87-6.96.96-4.88,2.6-9.16,4.28-11.92.85-1.38,1.73-2.37,2.37-3.01.64-.64,1.06-.93,1.03-.98Z"/>
    <path class="cls-7" d="m542.14,191.01c-.07.06.53.79,1.5,2.16.98,1.37,2.24,3.47,3.35,6.25,1.13,2.78,1.96,6.27,2.48,10.22.52,3.94.74,8.35,1.03,12.96.24,4.6.25,9.01.26,13.01,0,4,0,7.61,0,10.66.02,3.04.08,5.49.17,7.19.09,1.7.19,2.63.26,2.63.08,0,.12-.94.17-2.64.04-1.73.11-4.17.18-7.18.08-3.03.18-6.64.23-10.66.05-4.01.07-8.43-.17-13.08-.29-4.63-.54-9.03-1.12-13.04-.59-4-1.52-7.57-2.77-10.37-1.23-2.82-2.63-4.9-3.73-6.21-1.1-1.31-1.8-1.94-1.85-1.9Z"/>
    <path class="cls-7" d="m494.35,250.43c.05,0,.1-.84.14-2.35.04-1.51.08-3.7.11-6.4.01-1.35.02-2.83.04-4.42.03-1.59-.03-3.3.1-5.05.13-1.73.58-3.57,1.81-4.96,1.2-1.4,3.05-2.35,5.01-2.37,1.96-.04,3.85.8,5.24,2.03,1.42,1.23,2.21,2.93,2.65,4.61.44,1.69.63,3.39.89,4.96.25,1.57.48,3.03.69,4.37.43,2.67.79,4.83,1.05,6.32.27,1.49.44,2.31.49,2.3.05,0-.02-.84-.2-2.34-.18-1.5-.46-3.67-.82-6.35-.18-1.34-.39-2.81-.6-4.38-.24-1.57-.4-3.26-.84-5.04-.44-1.75-1.28-3.63-2.82-4.98-1.5-1.34-3.55-2.27-5.73-2.23-2.18.03-4.23,1.09-5.55,2.64-1.37,1.57-1.83,3.59-1.95,5.39-.11,1.82-.03,3.51-.03,5.1.02,1.59.04,3.07.05,4.42.04,2.7.08,4.89.13,6.4.05,1.51.1,2.35.15,2.35Z"/>
    <path class="cls-7" d="m501.21,217.93c.23,2.49,1.03,5.28,2.76,7.09-1.51-.33-3.09-.3-4.59.09,1.08-2.16,1.25-4.76,1.22-7.18"/>
    <path class="cls-7" d="m494.33,234.1c.14.02.22-1.19,1.13-2.82.45-.81,1.13-1.7,2.07-2.47.93-.78,2.14-1.41,3.5-1.67,1.36-.23,2.72-.04,3.85.38,1.14.42,2.07,1.04,2.75,1.66,1.38,1.25,1.83,2.39,1.95,2.32.06,0-.21-1.26-1.59-2.7-.68-.71-1.65-1.43-2.87-1.92-1.21-.5-2.7-.74-4.22-.48-1.52.28-2.83,1-3.81,1.88-.99.87-1.67,1.86-2.09,2.75-.85,1.8-.73,3.07-.66,3.06Z"/>
  </g>
  <g>
    <path class="cls-18" d="m475.3,314.63c-4.23-.01-8.02-3.05-10.01-6.78s-2.5-8.07-2.69-12.3c-.52-11.19.86-22.47,4.07-33.2l18.55,3.24-5.05,49.96-4.87-.92Z"/>
    <g>
      <polygon class="cls-11" points="550.34 320.85 489.94 318.65 475.29 247.87 538.91 251.4 550.34 320.85"/>
      <path class="cls-4" d="m519.25,250.19l-.91-1.8-4.82-.35s-1.22-3.16-8.11-3.48c-6.18-.29-6.43,2.82-6.43,2.82h-3.33v1.52l23.6,1.31Z"/>
    </g>
    <g>
      <path class="cls-18" d="m485.57,298.04l-4.58-1.33c-.86-.25-1.77-.29-2.65-.12h0c-1.07.21-2.06.73-2.84,1.5-1.52,1.49-3.96,3.96-4.31,4.69-.51,1.08-.51,2.94,0,3.62s-1.12,4.21-.92,5.38c.2,1.17.51,2.35.92,2.84.41.49,0,2.16,1.02,3.43,1.02,1.27,1.94,2.05,1.94,2.05,0,0,12.58.59,13.8,0,1.23-.59,3.37-2.84,3.37-2.84,0,0,1.12-2.06-.61-2.25l7.16-2.74c.86-.33,1.37-1.29,1.04-2.15-.11-.3-.31-.55-.63-.69,0,0,3.21-1.02,3.96-1.34,1.49-.66,2.05-4.11-1.03-3.67-1.62.23-3.82.71-3.82.71,0,0,1.17-1.91-.47-3.04-1-.69-5.48.15-5.48.15l-5.89-4.2h0Z"/>
      <path class="cls-13" d="m483.98,316.92c0,.1,1.71.02,3.72-.56,2.02-.55,3.48-1.46,3.43-1.55-.05-.09-1.55.65-3.53,1.19-1.97.57-3.63.8-3.62.91Z"/>
      <path class="cls-13" d="m486.71,312.45c.03.1,2.64-.48,5.84-1.3,3.2-.82,5.77-1.56,5.75-1.66-.03-.1-2.64.48-5.84,1.3-3.2.82-5.77,1.56-5.75,1.66Z"/>
      <path class="cls-13" d="m485.22,308c.02.1,2.84-.47,6.28-1.28,3.45-.81,6.22-1.54,6.2-1.64-.02-.1-2.84.47-6.28,1.28-3.45.81-6.22,1.54-6.2,1.64Z"/>
      <path class="cls-13" d="m480.57,302.27s.61.24,1.61.51c.55.14,1.14.29,1.77.46.34.08.69.17,1.05.26.38.1.79.14,1.21.12.42-.02.81-.1,1.18-.19.36-.08.71-.16,1.06-.24.64-.15,1.23-.3,1.78-.43,1.01-.25,1.63-.44,1.62-.49-.01-.05-.65.04-1.68.23-.56.11-1.16.23-1.8.35-.68.12-1.42.34-2.18.4-.76.06-1.46-.21-2.15-.34-.64-.14-1.24-.26-1.8-.38-1.03-.21-1.67-.31-1.68-.26Z"/>
      <path class="cls-13" d="m479.76,304.68s-.21.13-.35.47c-.14.33-.22.86-.05,1.4.17.54.54.93.84,1.13.31.2.53.23.55.18.06-.09-.75-.48-1.04-1.42-.29-.94.14-1.72.04-1.76Z"/>
      <path class="cls-13" d="m480.02,309.54c-.09-.04-.37.46-.33,1.15.04.69.38,1.16.46,1.11.1-.05-.06-.53-.09-1.13-.04-.6.06-1.1-.04-1.13Z"/>
      <path class="cls-13" d="m479.95,314.82c-.09-.03-.28.31-.19.75.09.45.39.69.47.62.08-.07-.04-.35-.1-.69-.07-.35-.07-.65-.17-.68Z"/>
      <path class="cls-13" d="m478.58,301.98c0,.05.47.02,1.21-.06.42-.05.85-.11,1.29-.17.49-.08,1-.16,1.54-.08.49.07.98.37,1.37.62.39.27.74.56,1.07.75.66.4,1.15.43,1.16.4.02-.06-.43-.19-1.01-.61-.58-.41-1.3-1.26-2.53-1.52-.3-.04-.58-.04-.86-.02-.29.03-.53.09-.77.13-.44.08-.87.17-1.29.25-.73.15-1.18.27-1.17.32Z"/>
    </g>
    <path class="cls-13" d="m471.31,314.87s-.11-.33-.32-.9c-.2-.57-.52-1.42-.51-2.51,0-.54.11-1.13.27-1.75.15-.63.43-1.25.59-2,.18-.77-.05-1.58-.15-2.32-.1-.76.06-1.55.41-2.29.35-.74.83-1.4,1.31-2.03.49-.62.97-1.22,1.44-1.76.95-1.09,1.97-1.92,2.97-2.33,1-.42,1.9-.46,2.5-.38.6.08.91.24.93.21,0-.01-.07-.06-.22-.13-.15-.07-.38-.16-.69-.22-.61-.13-1.56-.13-2.62.28-1.07.39-2.15,1.25-3.13,2.34-.49.55-.98,1.14-1.48,1.77-.49.63-.99,1.31-1.36,2.09-.37.78-.55,1.66-.43,2.49.12.81.34,1.53.18,2.21-.13.68-.42,1.34-.56,1.98-.15.64-.25,1.25-.23,1.82.02,1.14.39,2,.63,2.56.26.57.43.86.45.85Z"/>
    <g>
      <path class="cls-18" d="m513.6,279.86l49.6,7.88-2.2-25.89,27.58-5.33,3.35,38.32.58,8.78c.39,5.95-2.33,11.68-7.2,15.13h0c-4.42,3.13-10.07,3.99-15.22,2.31l-10.66-3.47-51.98-18.49"/>
      <g>
        <path class="cls-18" d="m483.59,274.52c-.2-.86.53-1.65,1.41-1.66,2.8-.01,10.34.03,13.01.79,3.3.94,15.58,6.21,15.58,6.21l-5.21,19.23-18.86.2s-6.89-3.17-6.97-4.54c-.04-.7.17-2.57.17-2.57l-2.08-1.11c-3.1-1.97-1.11-5.74-1.11-5.74,0,0-2.13-1.2-2.25-3.36-.12-2.28,1.66-3.18,1.66-3.18,0,0-.86-3.04.73-3.86,1.59-.82,4.28.23,4.28.23-.19-.15-.31-.38-.37-.65Z"/>
        <path class="cls-13" d="m482.5,274.83s.2.1.58.2c.38.11.94.23,1.63.35,1.39.25,3.31.46,5.44.68,2.12.23,4.04.49,5.39.82,1.36.32,2.12.74,2.15.68.01-.02-.17-.14-.52-.33-.35-.18-.88-.4-1.56-.6-1.36-.4-3.29-.71-5.41-.94-2.13-.23-4.05-.39-5.44-.57-1.39-.17-2.23-.35-2.25-.29Z"/>
        <path class="cls-13" d="m478.96,278.68s.47.34,1.32.68c.85.35,2.07.71,3.44,1,1.37.29,2.62.47,3.52.59.91.12,1.47.17,1.48.12.02-.12-2.21-.51-4.92-1.07-1.36-.29-2.56-.61-3.43-.88-.86-.27-1.39-.48-1.41-.43Z"/>
        <path class="cls-13" d="m479.49,285.36c-.04.09,1.73.85,4.04,1.37,2.31.53,4.23.6,4.24.5.01-.11-1.88-.34-4.16-.86-2.28-.51-4.08-1.11-4.12-1.01Z"/>
        <path class="cls-13" d="m480.65,291.07c-.04.09,1.32.71,3.1,1.14,1.78.43,3.27.5,3.28.4.01-.11-1.44-.33-3.19-.76-1.75-.42-3.15-.88-3.19-.78Z"/>
        <path class="cls-13" d="m490.48,287.66s.19.17.58.2c.38.04.93-.05,1.43-.39.49-.35.75-.85.84-1.22.09-.37.04-.61,0-.61-.1-.03-.2.92-1.05,1.53-.85.6-1.78.39-1.79.49Z"/>
        <path class="cls-13" d="m490.88,293.62c-.02.1.74.15,1.38-.43.65-.57.69-1.33.59-1.32-.1-.02-.29.57-.84,1.05-.54.49-1.15.6-1.14.71Z"/>
        <path class="cls-13" d="m493.06,281.51c-.04.1.48.26.96-.1.48-.36.47-.91.36-.9-.1-.01-.23.35-.59.6-.34.27-.72.3-.74.4Z"/>
        <path class="cls-13" d="m513.6,279.86s-.05-.03-.15-.08c-.12-.05-.26-.12-.45-.21-.42-.19-1-.44-1.75-.77-1.53-.67-3.76-1.62-6.58-2.78-1.41-.57-2.96-1.2-4.66-1.84-.86-.3-1.73-.66-2.71-.84-.96-.18-1.97-.29-3-.37-2.06-.16-4.25-.23-6.53-.27-.57,0-1.15,0-1.73-.01-.29,0-.58,0-.88,0-.29-.01-.66.03-.94.19-.58.3-1,.99-.81,1.71.07.16.15.19.22.25.07.05.14.09.21.13.14.08.28.14.43.2.29.12.58.23.9.31.1.03.19-.03.22-.13.02-.09-.03-.19-.13-.22-.77-.22-1.55-.4-2.35-.52-.8-.12-1.63-.21-2.49-.09-.42.07-.87.2-1.22.53-.34.32-.52.77-.6,1.2-.16.88-.05,1.74.16,2.6l.09-.22c-.4.23-.75.54-1.04.92-.74.96-.91,2.25-.54,3.36.38,1.12,1.2,1.98,2.16,2.58l-.07-.24c-.49,1.03-.74,2.16-.6,3.28.13,1.13.87,2.12,1.78,2.69h.01c.7.38,1.4.75,2.08,1.12l-.09-.17c-.05.5-.1.99-.14,1.48-.02.25-.03.49-.04.74,0,.12,0,.25,0,.38.02.16.08.3.15.41.3.44.69.73,1.07,1.02.39.28.78.54,1.17.78,1.59.96,3.16,1.74,4.68,2.45.02,0,.04.01.06.01,5.71-.09,10.42-.16,13.73-.21,1.62-.03,2.9-.06,3.8-.08.42-.01.75-.02,1-.03.22,0,.34-.02.34-.03,0,0-.12-.01-.34-.02-.25,0-.58,0-1-.01-.9,0-2.18,0-3.8,0-3.31.02-8.02.05-13.73.08h.06c-1.5-.7-3.07-1.49-4.64-2.44-.39-.24-.78-.49-1.15-.77-.36-.28-.75-.58-.98-.93-.06-.09-.09-.18-.1-.25,0-.11,0-.23,0-.35,0-.24.02-.48.04-.72.04-.48.08-.97.14-1.47,0-.07-.03-.14-.09-.17-.68-.37-1.37-.74-2.08-1.12h.01c-.84-.53-1.49-1.4-1.61-2.43-.14-1.02.11-2.11.56-3.06.04-.09,0-.19-.07-.25-.87-.54-1.66-1.37-1.99-2.37-.33-.99-.17-2.18.49-3.02.26-.34.59-.63.92-.81.08-.04.11-.13.09-.22-.2-.79-.3-1.65-.15-2.42.08-.39.23-.75.49-1,.26-.25.64-.37,1.02-.43.78-.11,1.59-.03,2.38.08.79.12,1.56.3,2.3.51l.09-.35c-.27-.07-.57-.18-.84-.29-.14-.06-.27-.12-.4-.19-.12-.05-.25-.19-.29-.17,0-.24-.01-.52.12-.75.12-.23.31-.43.55-.55.24-.13.48-.16.78-.16.29,0,.59,0,.88,0,.58,0,1.16,0,1.73,0,2.28.03,4.45.09,6.51.24,1.02.08,2.02.18,2.97.35.94.16,1.82.52,2.67.81,1.7.62,3.26,1.23,4.67,1.79,2.8,1.14,5.05,2.04,6.62,2.68.76.31,1.35.55,1.77.72.19.07.34.13.46.18.1.04.16.06.16.05Z"/>
      </g>
      <path class="cls-13" d="m562.99,287.69c-.07.1,1.96,1.08,3.67,3.16,1.74,2.06,2.33,4.23,2.44,4.18.04-.01-.05-.56-.37-1.4-.32-.84-.91-1.95-1.79-3.02-.88-1.06-1.87-1.84-2.64-2.31-.77-.47-1.29-.66-1.31-.62Z"/>
    </g>
  </g>
  <g>
    <g>
      <g>
        <g>
          <g>
            <path class="cls-18" d="m498.23,134.33c1.02-13.02,11.87-23.06,24.93-23.09h1.3c13.99.79,21.14,13.11,19.96,27.07l-2.41,55.98c-.04.94-.6,1.78-1.45,2.18l-31.4,14.74.97-29.38s-13.45-2.06-13.65-15.51c-.09-6.49.8-19.88,1.75-31.99Z"/>
            <path class="cls-13" d="m510.01,181.81s8.59.5,17.61-5.19c0,0-4.12,9.68-17.54,8.5l-.06-3.31Z"/>
          </g>
          <g>
            <g>
              <g>
                <path class="cls-11" d="m501.49,144.85c-.03,1.01.8,1.88,1.86,1.93,1.06.05,1.94-.72,1.98-1.74.03-1.01-.8-1.88-1.85-1.93-1.06-.05-1.94.72-1.98,1.74Z"/>
                <path class="cls-11" d="m501.13,140.9c.24.25,1.69-.83,3.76-.83,2.06-.03,3.58,1.03,3.81.78.11-.11-.13-.56-.79-1.04-.65-.48-1.76-.94-3.05-.93-1.29,0-2.37.49-2.99.97-.63.49-.85.94-.73,1.05Z"/>
              </g>
              <g>
                <path class="cls-11" d="m520.88,145.35c-.03,1.01.8,1.88,1.86,1.93,1.06.05,1.94-.72,1.98-1.74.03-1.01-.8-1.88-1.85-1.93-1.06-.05-1.94.72-1.98,1.74Z"/>
                <path class="cls-11" d="m521.44,141.25c.24.25,1.69-.83,3.76-.83,2.06-.03,3.58,1.03,3.81.78.11-.11-.13-.56-.8-1.04-.65-.48-1.76-.94-3.05-.93-1.29,0-2.37.49-2.99.97-.63.49-.85.94-.73,1.05Z"/>
              </g>
              <path class="cls-11" d="m513.98,156.58c0-.12-1.28-.34-3.36-.6-.53-.05-1.03-.16-1.12-.52-.12-.38.09-.95.35-1.56.49-1.28,1.01-2.62,1.55-4.02,2.16-5.72,3.71-10.43,3.48-10.52-.23-.08-2.17,4.49-4.32,10.21-.52,1.41-1.01,2.76-1.49,4.04-.2.6-.54,1.28-.27,2.07.14.39.53.68.87.77.34.1.64.11.9.12,2.09.11,3.39.12,3.4,0Z"/>
              <path class="cls-11" d="m520.06,158c-.34-.02-.34,2.22-2.25,3.82-1.91,1.6-4.3,1.35-4.32,1.67-.03.14.53.43,1.54.46.99.03,2.43-.29,3.61-1.27,1.17-.98,1.67-2.28,1.74-3.2.08-.94-.17-1.49-.32-1.48Z"/>
            </g>
            <path class="cls-11" d="m520.89,133.15c.21.56,2.27.29,4.69.58,2.43.24,4.39.94,4.71.44.14-.24-.2-.77-.99-1.31-.78-.54-2.04-1.06-3.49-1.21-1.46-.16-2.79.08-3.67.44-.89.36-1.34.8-1.25,1.07Z"/>
            <path class="cls-11" d="m501.88,134.92c.36.47,1.79-.02,3.5-.05,1.71-.09,3.16.31,3.49-.18.15-.24-.08-.71-.72-1.15-.62-.44-1.67-.8-2.85-.76-1.18.04-2.19.47-2.79.95-.6.48-.8.97-.64,1.2Z"/>
          </g>
        </g>
        <g>
          <path class="cls-18" d="m542.4,148.27c.23-.1,9.23-2.75,8.96,6.44-.27,9.19-9.45,7.02-9.46,6.76,0-.26.5-13.2.5-13.2Z"/>
          <path class="cls-13" d="m544.01,158.07s.16.12.42.25c.26.13.71.23,1.2.06.98-.33,1.85-1.84,1.94-3.5.05-.84-.1-1.64-.38-2.31-.26-.68-.68-1.16-1.17-1.27-.48-.13-.84.16-.96.41-.13.25-.08.44-.13.45-.03.02-.19-.16-.11-.54.04-.18.16-.4.38-.57.23-.17.55-.25.89-.21.71.07,1.33.74,1.63,1.48.34.74.53,1.64.48,2.58-.11,1.85-1.11,3.56-2.45,3.9-.65.15-1.19-.06-1.46-.29-.28-.24-.32-.44-.29-.46Z"/>
        </g>
        <path class="cls-11" d="m536.38,120.94l-38.33.84c1.19-2.64,3.32-4.76,5.63-6.51,4.98-3.78,11.11-6.14,17.36-6.25,6.25-.11,18.98,7.51,23.51,11.82,3.62,3.45,3.6,6.43,3.6,6.43.58,4.97-2.21,10.62-3.31,15.5-.57,2.52-1.67,10.13-1.67,10.13h0c-2.11,0-2.9-1.69-2.58-3.78l.4-8.19s-7.18-5.11-3.78-14.45c.55-.74,1.71-4.16-.82-5.55Z"/>
      </g>
      <path class="cls-13" d="m528.33,150.02c.12.02.25-.07.27-.2.03-.14-.05-.26-.18-.29-.12-.02-.25.07-.27.2-.03.13.05.26.17.29Z"/>
      <path class="cls-13" d="m524.38,149.13c.12.02.25-.08.28-.24.03-.15-.04-.3-.17-.32-.12-.02-.25.08-.28.24-.03.15.04.3.17.32Z"/>
      <path class="cls-13" d="m521.72,149.07c.12.02.25-.14.27-.34.03-.2-.06-.38-.18-.4-.12-.02-.25.14-.27.34-.03.2.06.38.18.4Z"/>
      <path class="cls-13" d="m526.39,152.5c.13,0,.23-.07.23-.15,0-.08-.1-.15-.23-.15-.13,0-.23.07-.23.15,0,.08.1.15.23.15Z"/>
      <path class="cls-13" d="m522.77,151.66c.13.01.24-.1.25-.24.01-.14-.08-.27-.21-.28-.13-.01-.24.1-.25.24-.01.14.08.27.21.28Z"/>
      <path class="cls-13" d="m503.92,149.45c.12.02.25-.07.27-.21.03-.14-.05-.27-.17-.3-.12-.02-.25.07-.27.21-.03.14.05.27.17.3Z"/>
      <path class="cls-13" d="m501.23,149.21c.13.01.24-.11.25-.26.02-.16-.07-.3-.2-.31-.13-.01-.24.11-.25.26-.02.16.07.3.2.31Z"/>
      <path class="cls-13" d="m506.3,149.52c.12.02.24-.04.26-.15.02-.11-.06-.22-.18-.24-.12-.02-.24.04-.26.15-.02.11.06.22.18.24Z"/>
      <path class="cls-13" d="m504.31,152.21c.12.05.26-.02.31-.15.06-.13.01-.28-.1-.33-.11-.05-.26.02-.31.15-.06.13-.01.28.1.33Z"/>
      <path class="cls-13" d="m502.01,151.76c.12-.03.2-.14.17-.25-.03-.1-.15-.16-.27-.12-.12.03-.2.14-.17.25.03.1.15.16.27.12Z"/>
    </g>
    <path class="cls-11" d="m544.79,121.37c.98-3.36,0-7.1-2.15-9.85-2.16-2.75-5.68-4.38-9.17-4.24-1.79.07-3.57.58-5.35.39-3.32-.36-5.87-3.02-8.95-4.31-4.79-2.01-10.89-.18-13.78,4.14-1.17,1.74-1.93,3.89-3.72,4.99-1.54.95-3.49.87-5.23,1.39-3.51,1.06-5.91,4.78-5.73,8.44.18,3.66,2.75,7.01,6.12,8.45,3.37,1.43,7.39,1.03,10.59-.75,2.89-1.61,5.48-4.35,8.79-4.26,3.43.1,6.42,3.33,9.78,2.66,1.76-.35,3.12-1.71,4.41-2.96,1.29-1.25,2.78-2.52,4.57-2.63,1.79-.11,2.73,2.36,2.09,4.04l7.73-5.49"/>
    <path class="cls-4" d="m498.79,116.92s.02.05.06.13c.05.09.11.21.22.37.21.32.55.77,1.1,1.25.54.48,1.3.98,2.28,1.32.97.34,2.19.48,3.48.21,1.28-.27,2.62-.94,3.67-2.09,1.05-1.15,1.67-2.69,2.64-4.04.49-.68,1.09-1.28,1.86-1.68.76-.39,1.65-.57,2.54-.56.89.02,1.8.26,2.61.7.81.45,1.47,1.13,1.92,1.98.46.84.79,1.77,1.35,2.59.53.83,1.46,1.45,2.45,1.49.99.06,1.9-.31,2.68-.77.79-.46,1.44-1.08,2.04-1.68,1.18-1.19,2.35-2.38,3.8-2.71,1.44-.34,2.84.19,3.85.9,1.03.74,1.69,1.71,2.11,2.62.43.91.65,1.77.79,2.46.14.7.21,1.25.25,1.63.04.37.07.57.08.57,0,0,0-.05,0-.15,0-.1,0-.24-.02-.43-.02-.38-.07-.94-.19-1.65-.12-.71-.33-1.58-.74-2.52-.42-.94-1.09-1.96-2.15-2.74-1.04-.76-2.52-1.34-4.07-.99-1.57.34-2.79,1.59-3.97,2.76-.6.6-1.22,1.19-1.98,1.62-.74.44-1.6.77-2.47.71-.88-.04-1.67-.57-2.17-1.34-.52-.76-.85-1.68-1.33-2.56-.47-.89-1.21-1.65-2.07-2.12-.87-.47-1.83-.72-2.78-.74-.95-.01-1.89.19-2.71.61-.82.43-1.47,1.09-1.97,1.79-1,1.41-1.6,2.93-2.6,4.04-.98,1.1-2.27,1.76-3.49,2.04-1.23.28-2.41.16-3.36-.15-.96-.31-1.71-.78-2.25-1.23-1.09-.92-1.43-1.68-1.48-1.64Z"/>
    <path class="cls-4" d="m491.84,117.06s-.11.25-.16.74c-.05.48-.03,1.2.19,2.05.23.84.68,1.82,1.44,2.71.75.89,1.81,1.67,3.03,2.21,2.48,1.09,4.99.99,6.69.76.86-.12,1.54-.28,2.01-.4.47-.12.72-.21.71-.24-.01-.06-1.05.2-2.75.38-1.68.16-4.12.21-6.51-.83-1.18-.52-2.19-1.25-2.92-2.09-.73-.84-1.19-1.75-1.44-2.56-.5-1.63-.21-2.72-.29-2.72Z"/>
  </g>
  <g>
    <path class="cls-5" d="m557.26,265.16c-.13,1.53-.79,2.92-1.61,3.98-.82,1.07-2.49,2.11-3.84,2.04,0,0-3.36.29-5.17-2.59-1.64-2.61-2.04-8.03-.73-11.24.9-2.2,2.93-4.25,5.31-4.31,3.13-.07,5.09,2.19,5.76,4.47"/>
    <path class="cls-11" d="m556.99,257.52s-.07-.6-.58-1.53c-.25-.46-.62-1.01-1.17-1.54-.54-.53-1.29-1.02-2.21-1.3-.46-.14-.96-.23-1.49-.24-.52-.03-1.09.04-1.63.21-1.09.35-2.1,1.1-2.9,2.08-.81.97-1.41,2.21-1.71,3.55-.3,1.34-.4,2.77-.32,4.21.14,2.23.58,4.44,1.81,6.13.62.83,1.48,1.43,2.36,1.78.89.35,1.8.49,2.67.45h-.02c.72.03,1.36-.2,1.91-.47.56-.28,1.04-.63,1.44-1,.81-.77,1.25-1.63,1.57-2.34.31-.72.44-1.32.5-1.73.03-.2.04-.36.04-.47,0-.11,0-.16,0-.16-.05-.01-.05.89-.69,2.29-.33.68-.8,1.52-1.58,2.23-.39.35-.86.68-1.4.94-.53.25-1.14.45-1.78.42h0s-.02,0-.02,0c-1.6.06-3.55-.56-4.72-2.14-1.15-1.59-1.59-3.76-1.72-5.94-.15-2.81.32-5.65,1.92-7.53.76-.94,1.72-1.66,2.73-2.01.51-.17,1.02-.24,1.52-.22.5,0,.98.08,1.42.2.88.25,1.61.7,2.15,1.2.54.49.92,1.01,1.19,1.46.54.9.66,1.48.7,1.46Z"/>
    <path class="cls-5" d="m558.92,265.3c-.13,1.53-.79,2.92-1.61,3.98-.82,1.07-2.49,2.11-3.84,2.04,0,0-3.36.29-5.17-2.59-1.64-2.61-2.04-8.03-.73-11.24.9-2.2,2.93-4.25,5.31-4.31,3.13-.07,5.09,2.19,5.76,4.47"/>
    <path class="cls-11" d="m558.65,257.66s-.07-.6-.58-1.53c-.25-.46-.62-1.01-1.17-1.54-.54-.53-1.29-1.02-2.21-1.3-.46-.14-.96-.23-1.49-.24-.52-.03-1.09.04-1.63.21-1.09.35-2.1,1.1-2.9,2.08-.81.97-1.41,2.21-1.71,3.55-.3,1.34-.4,2.77-.32,4.21.14,2.23.58,4.44,1.81,6.13.62.83,1.48,1.43,2.36,1.78.89.35,1.8.49,2.67.45h-.02c.72.03,1.36-.2,1.91-.47.56-.28,1.04-.63,1.44-1,.81-.77,1.25-1.63,1.57-2.34.31-.72.44-1.32.5-1.73.03-.2.04-.36.04-.47,0-.11,0-.16,0-.16-.05-.01-.05.89-.69,2.29-.33.68-.8,1.52-1.58,2.23-.39.35-.86.68-1.4.94-.53.25-1.14.45-1.78.42h0s-.02,0-.02,0c-1.6.06-3.55-.56-4.72-2.14-1.15-1.59-1.59-3.76-1.72-5.94-.15-2.81.32-5.65,1.92-7.53.76-.94,1.72-1.66,2.73-2.01.51-.17,1.02-.24,1.52-.22.5,0,.98.08,1.42.2.88.25,1.61.7,2.15,1.2.54.49.92,1.01,1.19,1.46.54.9.66,1.48.7,1.46Z"/>
    <path class="cls-5" d="m555.91,256.86c1.55-.31,3.16.76,3.82,2.2.66,1.44.51,3.14,0,4.64-.26.76-.63,1.5-1.18,2.09-.55.59-1.31,1.01-2.12,1.03-1.18.04-2.25-.77-2.93-1.73-1.11-1.55-1.49-3.61-1-5.45.32-1.23,1.23-2.5,2.51-2.53"/>
    <path class="cls-11" d="m554.98,257.1s-.1-.02-.28,0c-.18.02-.46.08-.77.26-.62.35-1.34,1.2-1.63,2.45-.3,1.22-.27,2.81.44,4.35.35.76.86,1.52,1.59,2.09.71.58,1.75.95,2.74.66.98-.27,1.73-1,2.19-1.79.47-.8.74-1.64.91-2.46.34-1.64.06-3.26-.71-4.29-.76-1.05-1.79-1.49-2.48-1.58-.35-.06-.63-.03-.81,0-.18.04-.27.06-.27.08,0,.04.39-.07,1.06.07.65.13,1.6.59,2.29,1.59.69.98.93,2.51.59,4.07-.17.78-.45,1.6-.89,2.34-.44.73-1.12,1.38-1.98,1.62-.86.25-1.76-.06-2.42-.59-.68-.52-1.16-1.23-1.51-1.95-.69-1.45-.75-2.97-.49-4.15.24-1.19.88-2.02,1.45-2.38.57-.37.99-.33.98-.38Z"/>
    <path class="cls-11" d="m552.32,268.54c.06.01.13-.22.38-.51.24-.29.67-.61,1.21-.78.55-.17,1.1-.2,1.49-.23.4-.03.65-.06.65-.11,0-.05-.24-.11-.65-.15-.4-.03-.98-.05-1.61.14-.63.19-1.1.61-1.32.98-.22.38-.21.66-.16.66Z"/>
    <path class="cls-11" d="m551.76,255.89s.11.25.44.52c.33.26.86.54,1.5.65.64.11,1.23.04,1.63-.09.4-.13.61-.29.59-.33-.04-.1-.98.28-2.16.05-1.18-.2-1.93-.89-2-.81Z"/>
  </g>
  <path class="cls-11" d="m579.74,362.6c0,.2-23.43-.4-52.32-1.33-28.9-.93-52.31-1.84-52.3-2.04,0-.2,23.43.4,52.32,1.33,28.89.93,52.3,1.84,52.3,2.04Z"/>
  <g>
    <path class="cls-11" d="m358.9,612.36l11.92,27.26s-16.27,12.43-15.09,17.5l52.07-15.55-12.28-41.92-36.62,12.71Z"/>
    <path class="cls-11" d="m372.8,637.9c.02.26,1.25.37,2.43,1.19,1.21.78,1.77,1.88,2.02,1.79.25-.03-.02-1.57-1.51-2.56-1.48-1-3.01-.66-2.94-.42Z"/>
    <path class="cls-11" d="m371.65,645.36c.25-.01.22-1.39-.85-2.59-1.06-1.21-2.42-1.4-2.47-1.15-.08.25.91.77,1.78,1.77.89.98,1.28,2.03,1.54,1.98Z"/>
  </g>
  <g>
    <path class="cls-4" d="m383.67,612.48l1.05,27.99s-28.1,10.47-28.41,15.66l54.34-.09.15-43.68-27.14.12Z"/>
    <path class="cls-11" d="m378.14,642.57c-.06.26,1.09.71,1.99,1.83.94,1.09,1.17,2.31,1.43,2.3.25.04.43-1.51-.72-2.89-1.14-1.38-2.7-1.49-2.7-1.24Z"/>
    <path class="cls-11" d="m374.92,649.39c.24.06.61-1.27-.08-2.72-.67-1.46-1.93-2.03-2.04-1.81-.15.22.66,1,1.2,2.2.57,1.19.65,2.31.91,2.33Z"/>
  </g>
  <path class="cls-6" d="m337.27,209.04s-9.9,6.63-12.5,18.61c-2.05,9.42-7.65,59.16-7.65,59.16l-9.81,19.1,6.41,15.24h0c5.49.39,10.94-1.17,15.39-4.4l4.31-3.13,7.9-11.73-4.05-92.85Z"/>
  <path class="cls-17" d="m438.09,263.33l8.07-1.41s-17.01-46.98-27.13-51.58c-3.57-1.62-5.86-2.66-7.36-3.34v-.13s-12.12-4.95-12.12-4.95l-14.19-5.21h0s-.01,0-.01,0l-1.07-.39.45.43-28.43,1.82-2.22,1.68-14.59,7.63h0s-6.48,2.16-12.37,9.83c-5.89,7.67-14.5,46.85-14.5,46.85l19.07,7.84,4.75,31.64-12.11,60.43,103.88-1.98-22.47-62.78,3.49-31.35,28.88-5.04Z"/>
  <g class="cls-19">
    <path class="cls-9" d="m334.66,315.5c10.57,4.98,22.17,7.82,33.86,8.3,4.16.17,8.57-.02,12.07-2.26,1.48-.95,2.75-2.23,4.38-2.89,2.21-.88,4.69-.46,7.06-.2,5.5.6,11.11.23,16.48-1.08.81-.2,1.65-.44,2.22-1.04.57-.6.71-1.67.07-2.2-.38-.32-.93-.36-1.43-.39-24.71-1.23-49.43-2.47-74.14-3.7l-.57,5.44Z"/>
  </g>
  <path class="cls-11" d="m327.94,240.64c.19-.03,1.68,9.72,3.31,21.77,1.63,12.05,2.8,21.84,2.6,21.87-.19.03-1.68-9.72-3.31-21.78-1.63-12.05-2.8-21.84-2.6-21.87Z"/>
  <path class="cls-11" d="m366.87,232.35s-.41-.33-1.06-1.01c-.64-.68-1.56-1.68-2.68-2.93-1.15-1.3-2.46-2.78-3.9-4.4-1.45-1.67-3.09-3.48-4.63-5.55-1.53-2.07-2.78-4.24-3.5-6.38-.71-2.15-.91-4.21-.75-5.91.16-1.7.64-3.03,1.09-3.86.45-.84.81-1.23.84-1.21.15.06-1.24,1.79-1.42,5.11-.09,1.64.15,3.61.86,5.66.72,2.05,1.94,4.14,3.45,6.17,1.51,2.03,3.12,3.85,4.55,5.55,1.39,1.66,2.67,3.17,3.79,4.5,1.07,1.29,1.93,2.34,2.51,3.08.58.74.88,1.16.85,1.19Z"/>
  <path class="cls-11" d="m391.72,199.05s-.01.6-.17,1.66c-.22,1.05-.54,2.59-1.27,4.37-1.36,3.63-4.5,8.06-8.54,12.27-4.01,4.24-7.72,7.99-10.4,10.71-1.28,1.26-2.35,2.33-3.22,3.18-.77.74-1.21,1.13-1.25,1.1-.04-.03.34-.49,1.05-1.29.82-.9,1.84-2.02,3.05-3.34,2.73-2.89,6.3-6.67,10.25-10.85,4.02-4.19,7.14-8.46,8.59-11.98,1.51-3.48,1.76-5.87,1.9-5.84Z"/>
  <path class="cls-6" d="m408.44,268.5l3.29,18.39-43.85,6.46,2.53,20.17s54.15,2.96,60.12,1.64c7.55-1.67,13.34-10.73,13.15-23.96-.07-5.24-2.5-15.7-5.6-27.87l-29.65,5.17Z"/>
  <path class="cls-11" d="m413.74,208.45c0,.07-.96.1-2.58.61-1.61.52-3.89,1.63-5.99,3.82-2.12,2.15-3.91,5.45-4.58,9.41-.36,1.97-.44,4.09-.31,6.27.12,2.19.59,4.41,1.08,6.7,2.02,9.11,3.84,17.36,5.19,23.46.64,3.01,1.13,5.45,1.42,7.15.15.85.25,1.51.31,1.96.06.45.07.69.05.69-.06,0-.24-.92-.63-2.6-.41-1.78-.97-4.18-1.64-7.09-1.39-5.99-3.4-14.24-5.4-23.42-.49-2.29-.97-4.57-1.08-6.81-.13-2.23-.03-4.41.36-6.43.72-4.07,2.62-7.47,4.86-9.65,2.22-2.22,4.61-3.29,6.27-3.74.84-.22,1.51-.31,1.97-.34.46-.02.69-.03.7,0Z"/>
  <path class="cls-11" d="m428.19,362.5c0,.2-23.31.74-52.07,1.22-28.76.47-52.08.7-52.08.5,0-.2,23.31-.74,52.07-1.22,28.75-.47,52.07-.7,52.08-.5Z"/>
  <path class="cls-17" d="m331.1,354.2l-23.15,122.19c-2.63,13.91-1.16,28.28,4.24,41.37l49.1,118.89,38.71-24.68-39.68-117.62,25.14-104.12-8.22-43.69-46.15,7.65Z"/>
  <path class="cls-17" d="m350.07,385.17l17.7,140.5,3.05,113.95,44.05.68s-1.59-115.42-1.59-122.37v-113.79s6.32-8.85,8.85-13.91c2.53-5.06,0-30.34,0-30.34,0,0-9.4-19.23-44.88-13.34-35.49,5.88-27.18,38.63-27.18,38.63Z"/>
  <path class="cls-11" d="m370.82,639.62s-.03-.24-.06-.71c-.02-.5-.06-1.18-.1-2.07-.08-1.85-.19-4.53-.33-7.97-.25-6.95-.61-16.96-1.05-29.31-.41-12.39-.91-27.12-1.45-43.48-.29-8.18-.59-16.77-1.01-25.66-.45-8.89-.96-18.1-2.07-27.47-.54-4.69-1.24-9.3-2-13.83-.79-4.53-1.57-9-2.34-13.39-1.47-8.8-2.66-17.31-3.7-25.44-2.07-16.25-3.53-30.93-4.89-43.24-1.34-12.31-2.54-22.26-3.44-29.12-.46-3.41-.81-6.07-1.06-7.9-.11-.88-.2-1.56-.27-2.06-.06-.46-.07-.7-.07-.7,0,0,.06.23.14.69.08.49.19,1.17.34,2.05.29,1.8.71,4.46,1.19,7.89.99,6.86,2.27,16.8,3.67,29.1,1.43,12.3,2.94,26.97,5.04,43.21,1.05,8.12,2.26,16.62,3.74,25.41.77,4.39,1.55,8.85,2.35,13.39.76,4.54,1.46,9.17,2.01,13.87,1.11,9.4,1.62,18.62,2.06,27.52.42,8.9.7,17.49.97,25.68.49,16.36.93,31.1,1.3,43.49.35,12.36.63,22.37.82,29.32.08,3.44.15,6.12.19,7.97.01.89.02,1.58.03,2.07,0,.47-.01.71-.01.71Z"/>
  <path class="cls-11" d="m384.65,639.62c-.2.01-3.45-58.37-7.27-130.37-3.82-72.03-6.75-130.41-6.56-130.42.2-.01,3.45,58.36,7.27,130.39,3.82,72.01,6.75,130.4,6.56,130.41Z"/>
  <path class="cls-11" d="m399.76,369.56s-.27.46-.91,1.17c-.64.71-1.65,1.66-3.05,2.64-2.76,1.96-7.36,3.91-12.65,3.66-5.29-.27-9.68-2.66-12.23-4.89-1.3-1.11-2.21-2.16-2.77-2.93-.56-.77-.82-1.23-.79-1.25.11-.09,1.26,1.7,3.88,3.79,2.57,2.08,6.85,4.31,11.94,4.57,5.09.25,9.57-1.55,12.33-3.37,2.81-1.82,4.13-3.49,4.24-3.39Z"/>
  <path class="cls-11" d="m370.5,629.91s-.12-.21-.32-.64c-.21-.46-.49-1.09-.86-1.91-.75-1.72-1.84-4.2-3.23-7.39-2.78-6.46-6.79-15.76-11.74-27.23-4.9-11.53-10.73-25.25-17.21-40.48-6.4-15.27-13.53-32.01-20.49-49.81-.42-1.12-.84-2.24-1.26-3.35-.32-1.17-.65-2.35-.74-3.54-.31-2.37-.28-4.74-.22-7.07.17-4.67.7-9.24,1.29-13.71,1.26-8.93,2.87-17.48,4.54-25.6,3.37-16.22,6.96-30.7,10.06-42.83,3.11-12.13,5.8-21.9,7.7-28.64.96-3.34,1.71-5.95,2.23-7.75.26-.86.46-1.53.61-2.01.14-.45.23-.68.23-.68,0,0-.04.24-.16.7-.13.48-.31,1.16-.54,2.03-.49,1.81-1.19,4.43-2.1,7.78-1.81,6.76-4.43,16.55-7.48,28.69-3.04,12.14-6.57,26.63-9.9,42.84-1.65,8.11-3.25,16.65-4.49,25.56-.58,4.46-1.1,9.01-1.27,13.64-.06,2.31-.09,4.65.21,6.96.08,1.17.4,2.28.7,3.39.42,1.11.84,2.22,1.26,3.34,6.95,17.78,14.07,34.54,20.43,49.81,6.42,15.25,12.2,28.99,17.07,40.53,4.86,11.52,8.79,20.84,11.53,27.32,1.34,3.21,2.39,5.71,3.11,7.44.34.83.6,1.48.79,1.94.18.44.25.67.25.67Z"/>
  <path class="cls-11" d="m360.33,494.35c-.19.24-2.73-2.84-5.63-6.69-2.91-3.87-5.13-7.11-4.97-7.23.16-.12,2.63,2.93,5.54,6.8,1.46,1.93,2.75,3.7,3.66,5,.91,1.28,1.47,2.14,1.4,2.12Z"/>
  <g class="cls-19">
    <polygon class="cls-9" points="348.21 375.62 354.57 484.79 360.33 494.35 362.41 485.71 348.21 375.62"/>
  </g>
  <g class="cls-19">
    <polygon class="cls-9" points="329.18 364.34 328.31 368.93 422.85 368.93 422.37 362.61 329.18 364.34"/>
  </g>
  <g>
    <g>
      <polygon class="cls-11" points="261.27 286.89 324.62 310.36 378.02 318.52 314.53 287.57 261.27 286.89"/>
      <g>
        <path class="cls-18" d="m288.38,312.19c-.5-3.37-1.65-6.65-3.37-9.6-.34-.58-.7-1.15-.86-1.8s-.09-1.4.36-1.89c.81-.89,2.3-.49,3.3.18,2.07,1.39,3.45,3.62,4.27,5.97.81,2.35,1.11,4.85,1.39,7.32"/>
        <g>
          <path class="cls-18" d="m313.07,306.16h-3.15c-.62-.66-1.58-1.25-2.76-1.59-.73-.21-1.44.18-2.08.81,1.41-2.32,2.93-4.87,3.22-5.57.57-1.36-.68-2.38-2.72-2.38s-11,12.7-11,12.7c0,0,5.57-10.21,6.11-11.77,1.35-3.9-2.92-4.19-4.46-2.31-1.92,2.34-9.69,14.08-9.69,14.08,0,0-1.47,2.38-.45,4.65,1.02,2.27,3.97,1.36,3.97,1.36,0,0-.02,1.98,2.08,3.15,2.27,1.26,5.27-.2,5.27-.2l11.59,2.61s1.84-.19,4.19-.42c5.87-.58,10.59-5.08,11.45-10.92h0l-11.55-4.19Z"/>
          <path class="cls-13" d="m305.26,305.21c.13.08-1.41,2.51-3.41,5.41-1,1.46-1.93,2.76-2.61,3.69-.69.93-1.13,1.49-1.17,1.47-.04-.03.33-.64.96-1.61.63-.97,1.53-2.3,2.53-3.75,1-1.45,1.92-2.76,2.59-3.7.3-.41.56-.78.8-1.11.2-.26.29-.39.32-.39Z"/>
          <path class="cls-13" d="m304.57,318.14s.34-.76,1.03-1.9c.68-1.14,1.66-2.7,2.73-4.42.53-.86,1.05-1.68,1.47-2.44.44-.73.41-1.53.26-2.15-.34-1.26-1.05-1.8-.99-1.84.01-.02.19.1.45.38.25.28.58.74.79,1.4.2.64.26,1.56-.21,2.37-.42.79-.92,1.61-1.46,2.48-1.07,1.72-2.08,3.26-2.82,4.37-.74,1.1-1.2,1.78-1.24,1.76Z"/>
          <path class="cls-13" d="m310.66,319.29s.15-.73.62-1.81c.25-.57.53-1.21.83-1.89.3-.71.65-1.49.85-2.34.21-.82.07-1.7-.37-2.26-.21-.28-.53-.44-.83-.59-.3-.14-.6-.23-.86-.24-.52.03-.96.31-1.25.44-.29.15-.46.22-.48.19-.01-.02.13-.13.41-.32.14-.09.31-.2.52-.31.21-.1.46-.24.8-.26.32,0,.66.09.99.22.32.14.69.31.97.66.53.67.68,1.64.46,2.55-.22.9-.58,1.68-.9,2.39-.33.71-.64,1.33-.9,1.86-.53,1.05-.8,1.72-.85,1.7Z"/>
          <path class="cls-13" d="m312.79,308.33s.19.02.49.15c.31.13.73.35,1.21.71.95.7,2.08,2.04,2.49,3.85.4,1.81-.06,3.51-.62,4.55-.28.53-.57.91-.79,1.16-.22.25-.37.36-.38.34-.05-.04.46-.57.95-1.62.48-1.03.87-2.65.49-4.36-.38-1.71-1.42-3.01-2.3-3.73-.88-.74-1.57-1-1.54-1.06Z"/>
        </g>
        <path class="cls-13" d="m292.39,301.66c.08.06-1.09,1.94-2.62,4.2-1.53,2.26-2.84,4.05-2.92,4-.08-.06,1.09-1.94,2.62-4.2,1.53-2.26,2.84-4.05,2.92-4Z"/>
      </g>
    </g>
    <g>
      <path class="cls-18" d="m367.93,294.2l-7.24-1.64-6.95-6.55c-.84-.8-1.94-1.27-3.1-1.34l-12.66-.73c-1.26-.07-2.5.34-3.47,1.16l-9.05,7.65,39.47,19.24,5.42.48-2.41-18.27Z"/>
      <path class="cls-13" d="m346.08,290.82c-.01.06-.94-.11-2.44-.3-1.48-.16-3.65-.37-5.73.59-1.04.46-1.93,1.12-2.73,1.71-.8.6-1.52,1.16-2.15,1.58-.63.43-1.18.73-1.57.91-.39.17-.62.25-.63.23-.02-.05.83-.44,2.04-1.35.61-.45,1.3-1.02,2.1-1.64.8-.61,1.7-1.29,2.78-1.77,1.08-.51,2.22-.69,3.23-.72,1.02-.03,1.93.08,2.68.2.75.12,1.36.26,1.77.36.41.1.64.17.63.2Z"/>
      <path class="cls-13" d="m348.68,297.86c-.02.06-.52-.17-1.37-.26-.84-.1-2.04,0-3.26.45-1.22.45-2.24,1.08-2.98,1.53-.74.45-1.2.73-1.23.69-.03-.04.38-.39,1.09-.9.71-.5,1.73-1.19,3-1.66,1.27-.47,2.54-.54,3.42-.37.88.16,1.35.48,1.33.51Z"/>
      <path class="cls-13" d="m364.97,299.03c-.09.05-1.11-1.46-2.45-3.26-1.34-1.8-2.5-3.21-2.42-3.28.07-.06,1.36,1.25,2.71,3.07,1.36,1.81,2.25,3.42,2.16,3.47Z"/>
    </g>
    <path class="cls-15" d="m345.04,284.69l16.04-14.94c.69-.65.64-1.76-.11-2.34h0c-.59-.45-1.41-.42-1.96.08l-18.81,16.87"/>
    <g class="cls-19">
      <path class="cls-9" d="m345.04,284.69l16.04-14.94c.69-.65.64-1.76-.11-2.34h0c-.59-.45-1.41-.42-1.96.08l-18.81,16.87"/>
    </g>
  </g>
  <path class="cls-11" d="m342.03,142.27c-1.46-5.9.17-12.47,4.22-17.01,3.05-3.42,7.27-5.62,11.66-6.93,5.89-1.76,12.41-1.98,18.07.41s10.27,7.68,10.89,13.8c.28,2.78-.22,5.67.66,8.32.39,1.15,1.04,2.34.7,3.5-.3,1.07-1.4,1.77-2.5,1.9-1.1.13-2.21-.21-3.23-.65-3.48-1.49-6.36-4.06-9.17-6.59"/>
  <g>
    <path class="cls-18" d="m341.93,145.23c.56-8.66,6.33-19.27,14.95-18.34l26.93,6.87c2.62.28,4.59,2.52,4.53,5.16l-3.03,64.96c.06.01-.06-.01,0,0l-17.63,20.91s-11.27-13.11-11.97-17.08h0c-.07-.53-.2-.89-.2-1.34-.59-4.58-.11-8.92-.11-8.92h0c-.05-5.25-.04-7.4-.05-7.35,0,0-11.06-1.86-13.32-16.3-1.12-7.18-.74-18.95-.11-28.57Z"/>
    <g>
      <g>
        <g>
          <g>
            <path class="cls-11" d="m346.2,155.7c-.04.98.76,1.81,1.78,1.87,1.02.06,1.88-.69,1.91-1.66.04-.98-.76-1.82-1.78-1.87-1.02-.06-1.88.69-1.91,1.67Z"/>
            <path class="cls-11" d="m344.47,151.36c.23.24,1.63-.79,3.63-.78,1.99-.02,3.45,1.01,3.67.77.11-.11-.13-.54-.76-1.01-.63-.46-1.69-.91-2.93-.91-1.24,0-2.29.46-2.89.92-.61.47-.82.9-.71,1.01Z"/>
          </g>
          <g>
            <path class="cls-11" d="m365.78,155.7c-.04.98.76,1.81,1.78,1.87,1.02.06,1.88-.69,1.91-1.66.04-.98-.76-1.82-1.78-1.87-1.02-.06-1.88.69-1.91,1.67Z"/>
            <path class="cls-11" d="m364.05,151.78c.23.24,1.64-.79,3.63-.78,1.99-.02,3.45,1.01,3.67.77.11-.11-.12-.54-.76-1.01-.63-.46-1.69-.91-2.93-.91-1.24,0-2.29.46-2.89.93-.61.47-.82.9-.71,1.01Z"/>
          </g>
          <path class="cls-11" d="m356.79,166.53c0-.11-1.23-.33-3.23-.59-.51-.05-.99-.16-1.07-.5-.12-.37.09-.92.34-1.51.48-1.23.98-2.52,1.51-3.87,2.1-5.51,3.62-10.04,3.4-10.12-.22-.08-2.11,4.32-4.21,9.83-.51,1.36-.99,2.65-1.45,3.89-.19.58-.53,1.23-.27,2,.14.38.51.66.83.75.33.1.61.11.86.12,2.02.11,3.27.13,3.28.01Z"/>
          <path class="cls-13" d="m355.36,190.1s9.71.65,19.34-5.11c0,0-4.88,9.98-19.33,8.6l-.02-3.48Z"/>
          <path class="cls-13" d="m357.62,171.34c.72-.95,1.97-1.46,3.22-1.33.86.09,1.74.51,2.26,1.22.52.7.63,1.7.15,2.37-.54.75-1.66.93-2.61.65-.95-.27-1.77-.9-2.54-1.53-.21-.17-.43-.35-.57-.59-.13-.24-.16-.55,0-.74"/>
          <path class="cls-11" d="m362.65,167.93c-.32-.02-.33,2.14-2.19,3.67-1.85,1.54-4.16,1.29-4.17,1.59-.03.14.51.42,1.48.45.95.03,2.35-.27,3.48-1.2,1.13-.94,1.62-2.19,1.7-3.08.08-.9-.16-1.44-.3-1.43Z"/>
        </g>
        <path class="cls-11" d="m363.16,148.29c.2.54,2.18.29,4.52.58,2.34.24,4.23.93,4.54.44.14-.23-.19-.74-.95-1.27-.75-.53-1.96-1.03-3.36-1.18-1.4-.16-2.69.06-3.54.41-.86.34-1.29.77-1.21,1.03Z"/>
        <path class="cls-11" d="m345.21,145.6c.35.45,1.72-.01,3.37-.03,1.65-.08,3.05.31,3.37-.16.14-.23-.08-.68-.69-1.11-.6-.43-1.61-.78-2.74-.75-1.13.03-2.12.44-2.69.9-.58.46-.78.93-.62,1.15Z"/>
      </g>
      <path class="cls-11" d="m400.79,172.41c-3.74,1.54-7.08-9.99-10.51-12.13-3.44-2.14-6.89,5.17-7.16,1.13-.24-3.57.95-7.47-.89-10.53-2.44-4.05-8.81-4.2-11.27-8.23-1.43-2.34-1.16-5.46-2.71-7.73-1.46-2.13-4.16-3-6.72-3.4-2.55-.4-5.22-.5-7.53-1.66-2.3-1.17-4.12-3.86-3.25-6.29,10.82-.79,21.73-.28,32.42,1.51,2.48.41,5.11.98,6.88,2.77,1.87,1.89,2.35,4.72,2.73,7.35,1.88,12.84,6.13,24.38,8.01,37.22"/>
    </g>
  </g>
  <path class="cls-17" d="m341.69,147.14c.73-8.47,5.81-19.18,13.5-22.8,7.69-3.63,16.77-4.02,23.77.8,7.57,5.22,9.61,13.99,10.55,23.13.94,9.15-.49,12.44-2.61,21.39l-.92,19.7c5.29,6.03,12.2-.79,13.21-1.26s4.76-6.82,5.28-7.79c5.53-10.31-2.97-11.82-1.53-17.62,1.44-5.8,1.24-12.07-1.07-17.58-1.09-2.6-2.64-5-3.52-7.68-.96-2.92-1.11-6.09-2.32-8.92-1.36-3.18-3.98-5.71-6.97-7.44-2.99-1.73-6.35-2.73-9.72-3.49-7.8-1.75-12.98-4.76-20.49-2.01-7.51,2.75-12.75,6.71-16.25,16.5-1.35,3.77-1.71,11.15-.91,15.07"/>
  <path class="cls-11" d="m344.7,130.34s.14-.29.47-.81c.32-.52.86-1.26,1.62-2.14,1.51-1.76,4.02-4.14,7.78-6.02,3.72-1.87,8.79-3.18,14.32-2.37,5.48.75,11.35,3.55,15.57,8.43,4.24,4.9,6.12,10.97,7.03,16.36.89,5.44,1,10.45.54,14.6-.46,4.15-1.52,7.41-2.5,9.52-.48,1.06-.92,1.86-1.25,2.37-.33.52-.51.78-.53.77-.06-.04.63-1.12,1.52-3.25.89-2.12,1.87-5.35,2.25-9.46.39-4.1.24-9.06-.68-14.43-.94-5.32-2.81-11.25-6.93-16-4.09-4.74-9.79-7.48-15.13-8.25-5.38-.82-10.33.4-14.01,2.17-3.71,1.78-6.24,4.06-7.79,5.75-1.56,1.7-2.23,2.8-2.3,2.76Z"/>
  <path class="cls-11" d="m400.53,185.87c.06.06-.5.73-1.71,1.41-1.19.68-3.11,1.29-5.26,1.08-2.14-.21-3.91-1.18-4.95-2.08-1.06-.9-1.48-1.67-1.41-1.71.09-.07.64.56,1.72,1.31,1.07.75,2.73,1.58,4.71,1.77,1.98.19,3.77-.29,4.96-.83,1.2-.53,1.87-1.05,1.94-.96Z"/>
  <path class="cls-11" d="m394.51,177.9c-.16.13-1.41-1.25-3.18-2.68-1.76-1.44-3.36-2.38-3.27-2.57.07-.17,1.88.52,3.71,2.01,1.84,1.49,2.88,3.12,2.73,3.23Z"/>
  <path class="cls-11" d="m395.69,167.04c-.2,0-.08-1.82-1.42-3.43-1.29-1.65-3.1-1.91-3.06-2.11,0-.08.47-.16,1.2.03.73.19,1.68.73,2.41,1.63.73.91,1.06,1.95,1.09,2.7.04.76-.14,1.2-.22,1.18Z"/>
  <path class="cls-11" d="m395.36,161.42c-.18.09-.69-.61-1.52-1.21-.82-.61-1.64-.89-1.61-1.09,0-.19,1.05-.21,2.03.51.99.72,1.27,1.72,1.09,1.78Z"/>
  <path class="cls-11" d="m387.02,125.77c.07.19-.51.56-1.16,1.05-.66.49-1.17.94-1.34.82-.16-.11.16-.83.91-1.39.75-.57,1.53-.67,1.59-.48Z"/>
  <path class="cls-11" d="m384.93,125.14c.13.15-.14.59-.6,1-.46.4-.94.61-1.07.46-.13-.15.14-.59.6-1,.46-.4.94-.61,1.07-.46Z"/>
  <g>
    <path class="cls-18" d="m384.2,163.1c0-1.07,1.25-3.61,2.32-3.77,2.84-.44,7.94-.2,7.98,7,.04,9.84-9.85,7.85-9.87,7.57-.01-.22-.44-7.09-.43-10.81Z"/>
    <path class="cls-13" d="m387.61,170.16s.17.12.46.25c.28.13.77.22,1.28.02,1.04-.39,1.91-2.04,1.95-3.81.02-.9-.17-1.75-.49-2.45-.3-.72-.77-1.22-1.3-1.31-.52-.12-.89.2-1.01.47-.13.28-.07.47-.12.49-.03.03-.21-.16-.13-.57.04-.2.15-.43.38-.62.24-.19.58-.29.95-.25.76.05,1.45.74,1.8,1.52.39.78.63,1.73.61,2.74-.05,1.98-1.06,3.84-2.48,4.26-.69.18-1.27-.02-1.57-.25-.31-.24-.36-.46-.32-.48Z"/>
  </g>
  <g>
    <path class="cls-10" d="m378.97,169.06s-11.54,10.37-22.68,8.84c-11.14-1.53-15.02-8.84-15.02-8.84,0,0-1.76,10.66,3.17,15.93,5.46,5.84,7.98,7.46,19.58,5.43,11.6-2.02,17.88-15.14,17.88-15.14l-2.93-6.22Z"/>
    <path class="cls-10" d="m384.91,160.57c.16.11-1.06,2.17-2.72,4.61-1.67,2.44-3.15,4.32-3.31,4.21-.16-.11,1.06-2.17,2.73-4.61,1.67-2.43,3.15-4.32,3.31-4.21Z"/>
    <path class="cls-10" d="m386.67,174.21c0,.2-1.07.4-2.37.71-1.3.3-2.36.59-2.44.41-.08-.17.9-.79,2.28-1.1,1.37-.32,2.53-.21,2.53-.02Z"/>
    <path class="cls-11" d="m376.31,174.12s-.33.48-1.07,1.24c-.73.76-1.85,1.8-3.34,2.96-2.94,2.29-7.67,5.08-13.53,5.57-5.88.46-11.03-1.99-13.75-4.61-1.39-1.31-2.28-2.59-2.75-3.54-.48-.94-.65-1.51-.62-1.52.15-.1.91,2.23,3.71,4.68,2.71,2.44,7.71,4.71,13.36,4.28,5.66-.47,10.3-3.11,13.28-5.27,3.02-2.19,4.61-3.89,4.71-3.8Z"/>
    <path class="cls-11" d="m370.37,181.42c.05.06-.92.93-2.76,1.93-1.83,1-4.58,2.03-7.77,2.39-3.19.35-6.1-.03-8.11-.6-2.01-.56-3.15-1.2-3.12-1.26.05-.11,1.24.35,3.24.77,1.99.43,4.82.73,7.91.38,3.09-.35,5.78-1.27,7.62-2.13,1.85-.86,2.91-1.57,2.98-1.47Z"/>
  </g>
  <path class="cls-11" d="m196.61,116.74c1-4.76,4.41-7.26,8.92-9.08s9.91-1.25,13.94,1.48c2.69,1.83,4.87,4.57,8,5.47,5.15,1.48,10.86-2.63,15.83-.63,2.94,1.18,4.8,4.59,4.21,7.71-.59,3.11-3.58,5.6-6.75,5.61,3.36,1.02,4.65,5.67,2.88,8.71-1.76,3.04-5.66,4.37-9.15,3.91-3.49-.45-6.61-2.38-9.35-4.58-2.74-2.2-5.23-4.73-8.13-6.71-2.91-1.98-6.38-3.4-9.87-3.02-4.73.52-8.61,4.32-10.49,8.69-1.88,4.37-2.1,9.26-2.11,14.02,0,4.76.18,9.59-.98,14.2-.14.54-.35,1.15-.88,1.35-.76.28-1.46-.5-1.88-1.19-4.76-7.77-7.97-16.49-9.39-25.49-.83-5.23-.96-10.22,1.69-14.8,2.65-4.58,9.77-8.24,13.51-5.65"/>
  <g>
    <path class="cls-18" d="m189.51,147.95c-.24-.1-9.62-2.56-9.05,6.93.57,9.49,9.97,6.96,9.97,6.69,0-.27-.92-13.62-.92-13.62Z"/>
    <path class="cls-13" d="m187.32,158.14s-.16.13-.43.27c-.27.14-.73.26-1.23.1-1.02-.31-1.96-1.85-2.11-3.56-.08-.86.06-1.7.32-2.39.25-.71.67-1.22,1.17-1.34.49-.15.87.13,1,.39.14.26.09.45.15.46.03.02.19-.17.09-.56-.05-.19-.17-.4-.41-.57-.24-.17-.58-.25-.93-.19-.73.09-1.35.81-1.64,1.57-.33.77-.5,1.71-.41,2.68.18,1.91,1.26,3.64,2.66,3.95.68.13,1.22-.1,1.5-.34.28-.25.32-.47.28-.48Z"/>
  </g>
  <g>
    <path class="cls-18" d="m211.27,114.8c14.26-1,26.58,9.89,27.33,24.17.62,11.88,1.17,24.74,1.04,31.21-.28,13.89-14.19,15.94-14.19,15.94,0,0,.31,4.12.65,9.23.69,10.29-7.26,19.13-17.56,19.52h0c-10.1.38-18.6-7.5-18.98-17.61l-2.07-55.99c-.51-13.79,10.02-25.5,23.78-26.47h0Z"/>
    <path class="cls-13" d="m225.44,186.12s-8.54.44-17.82-5.49c0,0,4.2,10.11,18.07,8.97l-.25-3.47Z"/>
  </g>
  <g>
    <g>
      <g>
        <path class="cls-11" d="m233.94,148.75c.03,1.05-.84,1.94-1.93,1.99-1.09.05-2-.76-2.03-1.81-.03-1.05.83-1.94,1.93-1.99,1.09-.05,2,.76,2.03,1.81Z"/>
        <path class="cls-11" d="m235.2,143.89c-.25.26-1.74-.87-3.88-.88-2.13-.04-3.71,1.04-3.94.78-.11-.12.14-.58.83-1.07.68-.49,1.83-.96,3.15-.94,1.33.02,2.44.52,3.08,1.02.65.51.87.98.75,1.09Z"/>
      </g>
      <g>
        <path class="cls-11" d="m213.33,148.45c.03,1.05-.84,1.94-1.93,1.99-1.09.05-2-.76-2.03-1.8-.03-1.05.84-1.94,1.93-1.99,1.09-.05,2,.76,2.03,1.81Z"/>
        <path class="cls-11" d="m214.22,144.12c-.25.26-1.74-.87-3.88-.88-2.13-.04-3.71,1.04-3.94.78-.11-.12.14-.58.83-1.07.68-.49,1.82-.96,3.15-.94,1.33.02,2.44.52,3.08,1.02.65.51.87.98.75,1.09Z"/>
      </g>
      <path class="cls-11" d="m221.84,160.01c0-.12,1.32-.34,3.47-.6.55-.05,1.06-.16,1.16-.53.13-.39-.09-.98-.35-1.62-.5-1.32-1.03-2.71-1.58-4.16-2.19-5.93-3.77-10.8-3.53-10.89.24-.09,2.21,4.65,4.4,10.58.53,1.46,1.03,2.86,1.51,4.19.2.62.55,1.33.27,2.14-.15.41-.55.7-.9.79-.35.1-.66.11-.93.12-2.17.1-3.51.1-3.51-.02Z"/>
      <path class="cls-11" d="m215.54,161.44c.35-.02.33,2.3,2.3,3.96,1.97,1.67,4.44,1.43,4.45,1.75.03.15-.55.45-1.6.47-1.02.03-2.51-.31-3.72-1.33-1.2-1.02-1.71-2.37-1.78-3.32-.08-.97.18-1.54.34-1.53Z"/>
    </g>
    <path class="cls-11" d="m214.59,137.17c-.22.58-2.34.29-4.85.57-2.51.23-4.54.95-4.87.43-.15-.25.21-.79,1.03-1.35.81-.55,2.11-1.08,3.61-1.23,1.5-.15,2.88.1,3.79.48.92.38,1.38.84,1.28,1.11Z"/>
    <path class="cls-11" d="m234.91,137.51c-.38.48-1.85-.03-3.61-.07-1.77-.1-3.27.3-3.61-.21-.15-.25.09-.73.75-1.19.65-.45,1.73-.82,2.94-.77,1.21.05,2.26.5,2.88,1,.62.5.82,1,.65,1.24Z"/>
  </g>
  <path class="cls-11" d="m241.05,132.59c-2.7,3.9-13.4,2.32-18.75-1.7-3.74-2.81-7.04-4.96-11.59-6.07-3.06-.75-6.36.1-9.02,1.78-2.66,1.68-4.75,4.14-6.52,6.75,3.27,7.27,1.86,15.69.39,23.53-.16.87-.36,1.8-1.03,2.38-1.13.98-2.95.37-4.04-.64-1.76-1.63-2.54-4.04-3.1-6.37-1.28-5.31-1.74-10.86-.87-16.25.88-5.39,3.15-10.61,6.87-14.61,4.64-5,11.4-7.85,18.21-8.15,6.82-.3,13.64,1.86,19.32,5.64,2.63,1.75,5.09,3.92,6.57,6.72"/>
  <path class="cls-4" d="m185.9,611.43l.65,27.97s-28.21,10.05-28.6,15.23l54.28.7.78-43.62-27.11-.27Z"/>
  <g class="cls-3">
    <path class="cls-12" d="m203.36,637.26c1.05.3,1.76,1.49,1.5,2.55-.26,1.06-1.46,1.79-2.51,1.51-1.05-.28-1.95-1.69-1.57-2.71.37-1.02,1.84-1.81,2.79-1.28"/>
  </g>
  <g class="cls-3">
    <path class="cls-12" d="m212.22,655.32l-.09-4.4-52.01.98s-2.43,1.02-2.18,2.73l54.28.7Z"/>
  </g>
  <path class="cls-11" d="m185.67,639.11c0,.27,1.33.4,2.62,1.27,1.32.84,1.97,1.99,2.22,1.89.24-.05-.13-1.64-1.71-2.66-1.57-1.04-3.18-.74-3.13-.5Z"/>
  <path class="cls-11" d="m179.94,641.39c-.06.26,1.08.72,1.96,1.85.92,1.11,1.13,2.32,1.39,2.31.25.04.45-1.51-.68-2.89-1.12-1.4-2.67-1.53-2.68-1.28Z"/>
  <path class="cls-11" d="m176.62,648.16c.24.06.63-1.26-.04-2.72-.65-1.47-1.89-2.05-2.01-1.83-.15.22.64,1.01,1.17,2.21.55,1.19.61,2.31.88,2.34Z"/>
  <path class="cls-11" d="m186.23,632.72c.11.24,1.33-.11,2.83.01,1.5.09,2.66.61,2.8.38.16-.19-.97-1.19-2.73-1.3-1.76-.13-3.02.7-2.89.91Z"/>
  <path class="cls-11" d="m186.2,627.07c0,.11,1.04.29,2.72.02.83-.13,1.82-.39,2.86-.84.52-.22,1.05-.49,1.57-.81.25-.16.55-.32.83-.63.3-.27.47-.97.14-1.41-.27-.42-.76-.61-1.15-.62-.4-.02-.72.06-1.02.13-.61.14-1.18.33-1.7.56-1.04.46-1.89,1.04-2.53,1.61-1.27,1.15-1.72,2.13-1.63,2.19.12.09.74-.73,2.04-1.68.65-.47,1.47-.96,2.44-1.33.49-.19,1.01-.35,1.57-.46.58-.14,1.07-.14,1.21.12.05.1.06.14-.06.3-.13.15-.36.3-.61.46-.48.31-.97.57-1.45.8-.95.46-1.86.77-2.64.97-1.56.41-2.58.47-2.58.62Z"/>
  <path class="cls-11" d="m186.54,627.46c.09.04.63-.9.75-2.62.06-.85-.02-1.88-.33-2.98-.16-.55-.38-1.11-.67-1.66-.31-.54-.69-1.26-1.72-1.39-.54-.03-.99.39-1.14.74-.18.36-.22.68-.29.99-.11.63-.1,1.25-.03,1.83.16,1.16.62,2.12,1.12,2.82,1.04,1.42,2.14,1.75,2.17,1.66.09-.13-.83-.66-1.62-2.02-.39-.67-.74-1.55-.83-2.57-.05-.5-.03-1.04.07-1.57.09-.58.31-1.04.53-.98.27,0,.72.44.94.9.27.49.49.99.65,1.48.33.99.46,1.93.49,2.72.05,1.59-.24,2.58-.1,2.63Z"/>
  <path class="cls-4" d="m284.66,612.53l-1.05,27.96s28.06,10.46,28.37,15.65l-54.28-.09-.15-43.63,27.11.12Z"/>
  <g class="cls-3">
    <path class="cls-12" d="m266.82,638.11c-1.05.29-1.78,1.47-1.54,2.53s1.44,1.81,2.49,1.55c1.06-.27,1.97-1.66,1.61-2.68-.36-1.03-1.81-1.83-2.77-1.32"/>
  </g>
  <g class="cls-3">
    <path class="cls-12" d="m257.69,656.04l.16-4.4,51.99,1.73s2.41,1.06,2.14,2.76l-54.28-.09Z"/>
  </g>
  <path class="cls-11" d="m284.48,640.22c0,.27-1.33.38-2.64,1.23-1.33.82-2,1.96-2.25,1.86-.24-.05.15-1.64,1.75-2.64,1.59-1.02,3.19-.7,3.13-.45Z"/>
  <path class="cls-11" d="m290.17,642.58c.06.26-1.09.71-1.99,1.83-.94,1.09-1.16,2.3-1.43,2.29-.25.04-.43-1.51.72-2.88,1.14-1.38,2.7-1.49,2.7-1.24Z"/>
  <path class="cls-11" d="m293.4,649.4c-.24.06-.61-1.27.08-2.72.67-1.46,1.92-2.03,2.04-1.81.15.22-.66,1-1.2,2.2-.57,1.19-.65,2.3-.91,2.33Z"/>
  <path class="cls-11" d="m284.02,633.82c-.11.24-1.33-.13-2.83-.03-1.5.07-2.67.57-2.8.34-.15-.19.99-1.17,2.75-1.26,1.77-.11,3.01.74,2.88.95Z"/>
  <path class="cls-11" d="m284.12,628.17c0,.11-1.05.27-2.72-.02-.83-.15-1.81-.42-2.84-.88-.51-.23-1.04-.51-1.56-.83-.25-.16-.55-.32-.82-.64-.29-.28-.46-.98-.12-1.41.28-.42.77-.6,1.16-.6.4-.01.72.07,1.02.14.6.15,1.17.35,1.69.58,1.04.47,1.88,1.07,2.5,1.65,1.26,1.17,1.69,2.16,1.59,2.21-.12.09-.73-.74-2.01-1.71-.64-.48-1.45-.98-2.42-1.37-.49-.19-1.01-.36-1.56-.48-.57-.15-1.06-.16-1.21.1-.05.1-.06.14.06.3.12.16.36.31.6.47.48.31.96.59,1.43.82.95.47,1.85.79,2.63,1.01,1.55.44,2.58.51,2.57.65Z"/>
  <path class="cls-11" d="m283.78,628.55c-.09.04-.62-.91-.71-2.63-.04-.85.05-1.88.38-2.98.17-.54.4-1.1.7-1.65.32-.54.71-1.25,1.74-1.37.54-.02.98.4,1.13.76.18.37.21.68.28,1,.1.63.09,1.26,0,1.83-.17,1.16-.65,2.12-1.17,2.81-1.06,1.4-2.17,1.72-2.19,1.63-.09-.13.84-.64,1.65-1.99.4-.67.76-1.54.86-2.55.05-.5.05-1.04-.05-1.57-.08-.58-.3-1.04-.52-.98-.27,0-.73.43-.95.89-.28.49-.5.98-.68,1.47-.34.98-.49,1.92-.53,2.71-.08,1.59.2,2.59.06,2.63Z"/>
  <polygon class="cls-11" points="252.58 342.67 293.66 637.44 253.8 636.67 209.72 389.7 219.41 637.84 175.76 635.15 160.42 340.88 252.58 342.67"/>
  <path class="cls-17" d="m189.82,206.19l-.53-16.49s3.28,15.09,20.43,14.89c16.39-.19,16.09-13.29,16.09-13.29l.58,6.64v26.84l-10.69,43.79-13.66,1.73-15.09-59.86,2.86-4.26Z"/>
  <path class="cls-6" d="m224.29,200.91s-.06.13-.2.35c-.15.22-.33.57-.65.96-.59.81-1.6,1.89-3.05,2.96-1.45,1.07-3.4,2.04-5.7,2.68-2.3.63-4.96.87-7.7.53-2.73-.37-5.25-1.2-7.39-2.22-2.15-1.02-3.96-2.18-5.4-3.25-1.44-1.07-2.54-2.02-3.27-2.71-.37-.34-.64-.62-.83-.8-.19-.19-.28-.29-.27-.3s.12.08.32.25c.23.2.52.45.87.75.76.65,1.87,1.57,3.32,2.61,1.45,1.04,3.25,2.17,5.39,3.16,2.13.99,4.61,1.81,7.3,2.17,2.69.33,5.3.1,7.57-.5,2.27-.61,4.2-1.54,5.64-2.57,1.45-1.02,2.47-2.06,3.09-2.84.62-.77.92-1.24.95-1.22Z"/>
  <path class="cls-6" d="m213.33,426.96l.24-70.76-.3-92.38-23.22-56.79-.74-17.09-13.46,10.18s-19.6,67.47-19.91,65.13c-.3-2.34,4.74,59.94,4.74,59.94l-7.74,104.93,60.39-3.17Z"/>
  <path class="cls-6" d="m231.79,197.2c-3.95-6.9-6-6.19-6-6.19l.21,2.46v5.17s-1.87,22.19-1.87,22.19l-12.53,41.61,1.95,92.1,4.68,72.83,58.15-4.76-20.27-100.3,7.25-69.29-.51-38.17-31.06-17.65Z"/>
  <path class="cls-11" d="m198.72,349.38s-.24.54-.84,1.41c-.6.87-1.55,2.09-2.87,3.45-2.62,2.72-6.96,5.96-12.53,7.72-5.57,1.76-10.99,1.62-14.69.89-1.87-.35-3.34-.8-4.33-1.17-.99-.37-1.52-.63-1.5-.67.04-.13,2.22.77,5.91,1.34,3.67.58,8.96.64,14.39-1.08,5.44-1.72,9.73-4.81,12.39-7.4,2.7-2.59,3.95-4.58,4.06-4.5Z"/>
  <path class="cls-7" d="m186.79,362.67c-.18-.92-.38-1.86-.7-2.74l6.13-3.57s-4.99-3.66-11.88-3.28c-3.89.21-7.81,2.28-10.48,4.04-.76.35-1.45.79-2.01,1.36-.19.11-.38.23-.55.37-.29.23-.54.49-.77.77-.02.02-.04.03-.04.03h.01c-1.23,1.46-1.79,3.46-2.13,5.38-.73,4.11-.81,8.33-.24,12.46.22,1.57.83,3.45,2.38,3.76.93.18,1.83-.35,2.41-1.13.03,1.79.21,3.58.53,5.34.24,1.34.9,2.96,2.26,3,1.43.05,2.17-1.68,2.42-3.09.53-2.98.65-6.03.37-9.05.76,1.53.47,3.35.72,5.04s1.56,3.56,3.24,3.22c1.65-.33,2.16-2.4,2.33-4.08.45-4.39.89-8.79,1.34-13.18.91,1.47.86,3.33,1.54,4.93.67,1.59,2.82,2.86,4.07,1.67.81-.78.69-2.08.51-3.19-.45-2.69-.94-5.38-1.46-8.06Z"/>
  <path class="cls-11" d="m190.75,398.8s-.4.53-1.28,1.36c-.88.82-2.2,1.96-4.02,3.11-1.82,1.14-4.18,2.31-7.02,2.82-2.82.51-6.14.32-9.18-1.15-3.07-1.46-5.11-4.21-6.18-6.85-1.11-2.67-1.41-5.27-1.52-7.41-.09-2.15,0-3.88.08-5.08.08-1.19.16-1.85.21-1.85.14,0-.04,2.66.21,6.89.17,2.11.52,4.63,1.62,7.19,1.07,2.54,3,5.1,5.88,6.47,2.86,1.39,6.04,1.6,8.75,1.14,2.74-.46,5.05-1.54,6.87-2.6,3.63-2.19,5.46-4.16,5.56-4.04Z"/>
  <path class="cls-11" d="m256.3,350.19s-.29.27-.87.65c-.58.39-1.48.87-2.63,1.38-2.29,1.02-5.7,1.98-9.56,2.07-3.86.07-7.31-.75-9.64-1.68-1.17-.46-2.09-.9-2.68-1.27-.6-.36-.92-.57-.9-.62.06-.11,1.42.63,3.75,1.42,2.33.79,5.69,1.51,9.45,1.44,3.76-.08,7.09-.94,9.38-1.82,2.3-.88,3.63-1.68,3.69-1.57Z"/>
  <path class="cls-11" d="m213.54,360.41s-.05-.35-.07-1.01c-.02-.73-.04-1.7-.06-2.9-.03-2.6-.08-6.22-.14-10.67-.14-9.08-.34-21.49-.55-35.2-.23-13.72-.45-26.13-.6-35.2-.06-4.45-.1-8.07-.14-10.67,0-1.2,0-2.17,0-2.9,0-.66.02-1.01.05-1.01.02,0,.06.35.1,1.01.03.73.08,1.7.14,2.9.09,2.6.21,6.22.36,10.66.27,9.01.57,21.45.81,35.2.24,13.75.35,26.19.34,35.21-.01,4.51-.03,8.15-.08,10.67-.03,1.2-.05,2.17-.07,2.9-.02.66-.05,1.01-.07,1.01Z"/>
  <polygon class="cls-5" points="176.04 211.25 178.77 213.32 176.85 225.9 209.1 259.69 179.81 221.22 182.3 211.25 176.04 211.25"/>
  <path class="cls-6" d="m213.6,301.78l-49.5-14.51-1.64-37.6,13.58-49.53s-32.36,16.15-34.56,26.42c-2.2,10.27-7.51,35.25-8.08,53.3-.51,16.14-.58,26.93,3.11,32.08,6.2,8.66,32.73,14.28,59.2,12.98,18.63-.91,37.23-5.81,48.7-13"/>
  <path class="cls-11" d="m209.72,260.51s-.06-.06-.16-.18c-.11-.14-.26-.32-.44-.55-.4-.51-.96-1.23-1.68-2.15-1.46-1.9-3.55-4.61-6.13-7.96-5.16-6.76-12.27-16.06-20.12-26.34-.51-.67-1.01-1.33-1.51-1.99l-.05-.07.02-.08c.86-3.45,1.7-6.79,2.5-9.97l.16.21c-2.16,0-4.26,0-6.27,0h-.16s0-.16,0-.16c0-4.07.02-7.81.03-11.11v-.07s.05-.04.05-.04c4.08-3.1,7.41-5.63,9.73-7.39,1.14-.86,2.04-1.53,2.67-2,.3-.22.53-.39.7-.51.16-.11.24-.17.25-.16,0,0-.07.07-.22.2-.17.13-.39.32-.68.54-.62.49-1.5,1.18-2.63,2.06-2.31,1.79-5.61,4.35-9.66,7.49l.05-.11c0,3.31.02,7.04.03,11.11l-.16-.16c2.01,0,4.1,0,6.27,0h.22s-.05.21-.05.21c-.8,3.19-1.63,6.53-2.49,9.97l-.03-.15c.5.66,1.01,1.32,1.51,1.99,7.82,10.3,14.9,19.63,20.04,26.4,2.54,3.38,4.6,6.11,6.04,8.03.7.94,1.24,1.67,1.63,2.19.17.24.31.43.42.58.09.13.14.2.13.2Z"/>
  <path class="cls-6" d="m262.85,214.86s11.73,8.66,12.75,22.6c.83,11.32,2.72,42.31,3.06,49.06.53,10.51-7.65,35.11-28.95,28.14-12.77-4.18-59.97-20.22-59.97-20.22l3.14-20.04,56.02,3.34,1.11-46.73,12.84-16.15Z"/>
  <path class="cls-18" d="m192.24,276.7s-15.86-1.71-19.53-.83c-3.53.85-8.55,5.17-8.55,5.17l.07,6.26,25.51,7.13,2.5-17.74Z"/>
  <path class="cls-11" d="m212.14,261.8s.02-.08.07-.22c.06-.16.14-.36.24-.62.23-.56.54-1.36.95-2.37.85-2.07,2.06-5.04,3.55-8.69,1.51-3.67,3.31-8.03,5.3-12.87.5-1.21,1-2.46,1.62-3.69.6-1.24,1.3-2.46,2.03-3.69,1.49-2.44,3.18-4.87,5.03-7.27.91-1.18,1.84-2.33,2.79-3.43l-.03.18c-.67-1.71-1.33-3.39-1.98-5.02l-.07-.17.17-.06c2.89-.98,5.66-1.92,8.26-2.81l-.09.23c-3.83-6.4-7.07-11.81-9.37-15.64-1.13-1.9-2.1-3.41-3.13-4.04-.5-.31-.95-.43-1.25-.51-.3-.07-.46-.1-.46-.11,0,0,.16,0,.47.06.3.06.77.16,1.29.47.53.3,1.07.85,1.59,1.54.52.7,1.08,1.52,1.65,2.48,2.32,3.82,5.6,9.21,9.48,15.58l.1.17-.19.06c-2.6.89-5.37,1.84-8.26,2.83l.1-.22c.65,1.64,1.31,3.31,1.98,5.02l.04.1-.07.08c-.94,1.09-1.86,2.24-2.77,3.41-1.85,2.39-3.53,4.81-5.02,7.23-.73,1.22-1.43,2.43-2.02,3.66-.62,1.22-1.12,2.46-1.62,3.67-2.02,4.83-3.84,9.18-5.37,12.84-1.53,3.64-2.78,6.58-3.65,8.65-.43,1-.77,1.79-1.01,2.34-.11.25-.2.45-.27.61-.06.14-.1.2-.1.2Z"/>
  <path class="cls-11" d="m269.29,310.76s-.06.07-.2.21c-.15.14-.35.34-.6.59-.54.51-1.39,1.2-2.57,1.95-1.2.73-2.77,1.48-4.71,1.98-1.94.5-4.24.7-6.75.43-1.25-.14-2.55-.42-3.86-.82-1.32-.42-2.63-.93-4.02-1.42-2.77-1-5.74-2.05-8.86-3.15-6.25-2.19-13.15-4.53-20.41-6.92-14.53-4.77-27.77-8.79-37.37-11.66-4.79-1.42-8.67-2.57-11.38-3.37-1.33-.39-2.37-.7-3.09-.92-.34-.1-.61-.19-.8-.25-.18-.06-.27-.09-.27-.1,0,0,.1.02.28.06.2.05.47.12.81.21.73.2,1.77.49,3.11.86,2.7.75,6.6,1.86,11.41,3.26,9.62,2.81,22.88,6.79,37.41,11.57,7.26,2.38,14.16,4.74,20.41,6.94,3.12,1.11,6.09,2.16,8.85,3.18,1.38.49,2.72,1.02,4.01,1.44,1.3.4,2.58.68,3.81.83,2.47.28,4.76.11,6.67-.37,1.92-.47,3.49-1.2,4.69-1.9,1.19-.73,2.05-1.4,2.6-1.89.26-.24.47-.42.62-.56.14-.12.22-.19.22-.18Z"/>
  <path class="cls-11" d="m164.23,287.42c-.01.07-.89-.12-2.31-.06-.71.03-1.55.15-2.45.4-.89.27-1.84.68-2.76,1.26-1.83,1.17-3.08,2.74-3.83,3.94-.75,1.21-1.08,2.04-1.14,2.02-.02,0,.05-.22.19-.6.13-.38.39-.91.74-1.55.71-1.25,1.97-2.9,3.86-4.11.94-.6,1.93-1.01,2.86-1.27.93-.25,1.8-.34,2.53-.34.73,0,1.31.06,1.71.15.4.08.61.13.61.16Z"/>
  <path class="cls-11" d="m148.64,282.5s.01-.07.06-.18c.05-.11.15-.27.31-.44.31-.36.93-.72,1.76-.87.82-.17,1.83-.13,2.91,0,1.08.14,2.26.41,3.45.84,2.39.84,4.3,2.19,5.47,3.35.58.59,1,1.11,1.27,1.48.26.38.39.6.37.61-.06.04-.61-.82-1.81-1.92-1.19-1.09-3.08-2.37-5.42-3.2-1.16-.42-2.32-.69-3.37-.85-1.06-.16-2.03-.22-2.82-.08-.79.12-1.39.42-1.71.73-.33.3-.44.54-.47.52Z"/>
  <path class="cls-11" d="m167.12,239.32s-.1-.37-.23-1.02c-.1-.32-.25-.7-.4-1.15-.22-.42-.43-.92-.73-1.44-.6-1.03-1.46-2.18-2.52-3.36-1.1-1.14-2.37-2.34-3.87-3.4-2.98-2.14-6.11-3.4-8.45-3.88-1.18-.21-2.14-.36-2.81-.36-.67-.03-1.05-.06-1.05-.09,0-.02.37-.04,1.05-.05.68-.05,1.66.07,2.86.25,2.39.43,5.59,1.67,8.61,3.84,1.51,1.07,2.8,2.3,3.9,3.47,1.07,1.2,1.92,2.38,2.5,3.45.3.53.5,1.05.7,1.49.14.47.27.86.35,1.19.08.68.12,1.05.09,1.05Z"/>
  <path class="cls-11" d="m261.09,296.81s-.01-.08-.02-.24c0-.18,0-.41-.02-.7-.02-.62-.04-1.53-.13-2.7-.19-2.33-.59-5.74-1.99-9.69-.35-.98-.74-2.01-1.36-2.96-.6-.95-1.51-1.75-2.62-2.22-2.25-.97-4.96-.84-7.72-1-5.55-.23-11.65-.49-18.05-.76-14.92-.65-28.19-1.21-36.52-1.65l.11-.09c-.5,3.06-.9,5.49-1.18,7.18-.14.82-.25,1.45-.33,1.9-.04.2-.07.36-.09.49-.02.11-.04.16-.04.16s0-.06.01-.17c.02-.13.04-.29.06-.49.06-.45.16-1.09.27-1.91.25-1.69.62-4.12,1.08-7.19v-.09s.11,0,.11,0c8.37.35,21.62.9,36.52,1.52,6.4.28,12.5.54,18.05.79,1.39.07,2.74.1,4.06.21,1.32.11,2.61.33,3.76.84,1.16.5,2.12,1.35,2.73,2.34.63.98,1.02,2.03,1.36,3.03,1.38,3.99,1.74,7.42,1.89,9.76.07,1.17.07,2.09.07,2.71,0,.29-.01.53-.02.7,0,.16-.01.24-.02.24Z"/>
  <path class="cls-11" d="m250.41,252.96c.1,0,.18,5.43.18,12.12s-.08,12.12-.18,12.12-.17-5.42-.17-12.12.08-12.12.17-12.12Z"/>
  <path class="cls-11" d="m141.86,225.34s-.04.15-.14.45c-.09.3-.26.72-.4,1.31-.33,1.16-.74,2.9-1.2,5.17-.94,4.53-2.09,11.16-3.38,19.46-.64,4.15-1.33,8.72-2,13.66-.34,2.47-.55,5.04-.73,7.7-.18,2.66-.32,5.41-.42,8.23-.2,5.65-.32,11.63-.16,17.85.05,1.55.1,3.13.23,4.71.04.79.17,1.57.27,2.36.17.78.31,1.56.57,2.32.48,1.52,1.21,2.99,2.23,4.26,1.01,1.26,2.32,2.35,3.82,2.95h.02s0,.01,0,.01c3.1,1.6,6.5,2.76,9.97,3.81,3.48,1.04,7.07,1.88,10.72,2.63,8.16,1.67,16.26,2.65,24.07,2.93,3.91.12,7.75-.03,11.49-.3,3.74-.26,7.39-.65,10.93-1.17,7.07-1.02,13.66-2.59,19.61-4.56,5.96-1.96,11.26-4.35,15.86-6.8l.02.22c-9.23-3.27-16.64-5.89-21.75-7.7-2.54-.91-4.51-1.61-5.86-2.09-.66-.24-1.17-.42-1.51-.55-.34-.13-.51-.2-.51-.2,0,0,.18.05.52.17.35.12.86.29,1.53.52,1.35.47,3.33,1.15,5.88,2.03,5.12,1.79,12.54,4.37,21.79,7.6l.26.09-.24.13c-4.6,2.48-9.91,4.88-15.88,6.86-5.96,1.99-12.57,3.57-19.65,4.6-3.54.53-7.2.93-10.95,1.19-3.75.27-7.6.43-11.53.31-7.84-.28-15.95-1.26-24.13-2.93-3.66-.75-7.26-1.59-10.74-2.64-3.48-1.05-6.89-2.21-10.03-3.84h.03c-1.61-.63-2.94-1.75-3.98-3.05-1.04-1.31-1.79-2.81-2.28-4.37-.27-.77-.41-1.58-.58-2.37-.1-.8-.23-1.6-.27-2.39-.13-1.59-.18-3.16-.23-4.72-.16-6.23-.03-12.21.19-17.87.11-2.83.26-5.58.44-8.24.18-2.66.4-5.24.75-7.71.69-4.94,1.38-9.5,2.04-13.65,1.32-8.3,2.51-14.92,3.49-19.45.48-2.26.92-4,1.26-5.16.15-.59.34-1.01.43-1.31.11-.29.17-.44.17-.44Z"/>
  <path class="cls-5" d="m164.16,282.77c8.28-9.16,7.91-25.46,3.16-37.02-.44,12.53-1.92,23.63-3.05,35.81"/>
  <path class="cls-11" d="m167.34,248.09s.01.14,0,.4c-.02.3-.04.68-.07,1.14-.08,1.04-.19,2.46-.33,4.2-.3,3.59-.7,8.47-1.14,13.86-.42,5.39-.81,10.27-1.09,13.86-.13,1.74-.24,3.16-.32,4.2-.04.46-.07.84-.1,1.14-.03.26-.05.4-.06.4-.01,0-.02-.14-.01-.4,0-.3.02-.68.03-1.15.03-1,.11-2.43.21-4.21.2-3.55.54-8.46.98-13.88.44-5.41.89-10.31,1.24-13.85.18-1.74.33-3.16.44-4.19.06-.46.1-.84.14-1.14.04-.26.06-.4.07-.39Z"/>
  <g>
    <path class="cls-11" d="m187.75,231.53c.1,0,.18,3.18.18,7.11s-.08,7.11-.18,7.11-.18-3.18-.18-7.11.08-7.11.18-7.11Z"/>
    <g>
      <g>
        <path class="cls-5" d="m182.35,255.14c.12,1.45.75,2.76,1.52,3.77.78,1.01,2.36,2,3.63,1.93,0,0,3.18.27,4.89-2.45,1.55-2.47,1.93-7.6.69-10.63-.85-2.09-2.77-4.03-5.03-4.08-2.96-.07-4.81,2.07-5.45,4.23"/>
        <path class="cls-11" d="m182.61,247.91s.07-.56.55-1.45c.24-.44.59-.96,1.11-1.46.51-.5,1.22-.96,2.09-1.23.44-.13.91-.22,1.41-.22.49-.03,1.03.03,1.54.2,1.03.33,1.99,1.04,2.75,1.97.77.92,1.34,2.09,1.61,3.36.29,1.27.38,2.62.3,3.99-.14,2.11-.55,4.2-1.72,5.8-.59.78-1.4,1.35-2.23,1.68-.84.33-1.7.46-2.53.43h.02c-.68.03-1.28-.19-1.81-.45-.53-.27-.98-.59-1.36-.95-.76-.73-1.18-1.54-1.48-2.21-.29-.68-.41-1.25-.47-1.63-.03-.19-.04-.34-.04-.44,0-.1,0-.15,0-.15.05-.01.05.85.66,2.16.31.64.75,1.43,1.49,2.11.37.33.82.64,1.32.89.5.24,1.08.43,1.68.4h0s.02,0,.02,0c1.52.05,3.36-.53,4.47-2.02,1.09-1.5,1.5-3.56,1.63-5.62.14-2.66-.3-5.34-1.82-7.12-.72-.89-1.62-1.58-2.59-1.9-.48-.16-.97-.22-1.44-.21-.47,0-.93.08-1.34.19-.84.24-1.52.67-2.03,1.14-.51.47-.87.96-1.12,1.38-.51.85-.63,1.4-.67,1.38Z"/>
      </g>
      <g>
        <path class="cls-5" d="m180.78,255.28c.12,1.45.75,2.76,1.52,3.77.78,1.01,2.36,2,3.63,1.93,0,0,3.18.27,4.89-2.45,1.55-2.47,1.93-7.6.69-10.63-.85-2.09-2.77-4.03-5.03-4.08-2.96-.07-4.81,2.07-5.45,4.23"/>
        <path class="cls-11" d="m181.04,248.04s.07-.56.55-1.45c.24-.44.59-.96,1.11-1.46.51-.5,1.22-.96,2.09-1.23.44-.13.91-.22,1.41-.22.49-.03,1.03.03,1.54.2,1.03.33,1.99,1.04,2.75,1.97.77.92,1.34,2.09,1.61,3.36.29,1.27.38,2.62.3,3.99-.14,2.11-.55,4.2-1.72,5.8-.59.78-1.4,1.35-2.23,1.68-.84.33-1.7.46-2.53.43h.02c-.68.03-1.28-.19-1.81-.45-.53-.27-.98-.59-1.36-.95-.76-.73-1.18-1.54-1.48-2.21-.29-.68-.41-1.25-.47-1.63-.03-.19-.04-.34-.04-.44,0-.1,0-.15,0-.15.05-.01.05.84.66,2.16.31.64.75,1.43,1.49,2.11.37.33.82.64,1.32.89.5.24,1.08.43,1.68.4h0s.02,0,.02,0c1.52.05,3.36-.53,4.47-2.02,1.09-1.5,1.5-3.56,1.63-5.62.14-2.66-.3-5.34-1.82-7.12-.72-.89-1.62-1.58-2.59-1.9-.48-.16-.97-.22-1.44-.21-.47,0-.93.08-1.34.19-.84.24-1.52.67-2.03,1.14-.51.47-.87.96-1.13,1.38-.51.85-.63,1.4-.67,1.38Z"/>
      </g>
      <g>
        <path class="cls-5" d="m183.63,247.29c-1.47-.29-2.99.72-3.61,2.08-.62,1.36-.48,2.97,0,4.39.25.72.6,1.42,1.12,1.98s1.24.95,2.01.98c1.12.03,2.13-.73,2.78-1.64,1.05-1.47,1.41-3.41.95-5.16-.31-1.17-1.17-2.36-2.37-2.39"/>
        <path class="cls-11" d="m184.51,247.52s.09-.02.27,0c.17.02.43.08.73.25.59.33,1.26,1.14,1.54,2.31.29,1.16.25,2.66-.42,4.12-.33.72-.81,1.43-1.51,1.98-.67.55-1.66.9-2.59.62-.93-.26-1.63-.95-2.07-1.69-.44-.75-.7-1.55-.86-2.32-.32-1.55-.06-3.08.67-4.06.72-.99,1.69-1.41,2.35-1.49.33-.05.59-.02.77,0,.17.04.26.06.26.07,0,.04-.37-.07-1,.06-.62.12-1.52.55-2.17,1.5-.66.93-.88,2.37-.56,3.85.16.74.42,1.51.84,2.21.41.69,1.06,1.31,1.87,1.53.81.24,1.66-.05,2.29-.55.64-.5,1.1-1.17,1.43-1.85.65-1.37.71-2.81.47-3.92-.23-1.13-.84-1.91-1.37-2.25-.54-.35-.93-.31-.93-.36Z"/>
      </g>
      <path class="cls-11" d="m187.02,258.34c-.05.01-.13-.21-.36-.48-.23-.27-.63-.57-1.15-.74-.52-.16-1.04-.19-1.41-.22-.38-.03-.61-.06-.61-.11,0-.05.23-.1.61-.14.38-.03.93-.05,1.52.13.59.18,1.04.57,1.24.93.21.36.2.62.16.63Z"/>
      <path class="cls-11" d="m187.55,246.37s-.1.24-.42.49c-.31.25-.81.51-1.42.62-.6.11-1.17.04-1.54-.08-.38-.12-.58-.27-.56-.31.04-.1.93.26,2.04.05,1.12-.19,1.83-.84,1.9-.76Z"/>
    </g>
  </g>
  <g>
    <path class="cls-11" d="m233.76,198.2s.08.02.22.08c.14.06.35.16.6.31.51.29,1.22.75,2.01,1.44,1.59,1.35,3.44,3.74,4.33,6.85.93,3.05,1.43,5.9,1.65,7.97.12,1.04.18,1.88.22,2.46.03.58.04.9.02.91-.02,0-.08-.32-.15-.89-.09-.64-.2-1.46-.33-2.44-.28-2.06-.81-4.87-1.74-7.9-.87-3.04-2.64-5.39-4.16-6.76-1.52-1.4-2.71-1.95-2.67-2.02Z"/>
    <g>
      <path class="cls-11" d="m225.39,272.23c1.95-.07,3.51-2.02,5.45-1.91,1.45.08,2.68,1.49,2.56,2.93-.12,1.44-1.58,2.63-3.01,2.46-2.05-.24-3.24-2.64-5.25-3.1"/>
      <path class="cls-11" d="m241.91,273.89c-.58,0-1.19-.05-1.83-.15l.11-.66c2.41.39,4.43,0,6.01-1.17,1.99-1.46,3.27-4.08,3.81-7.78l.02-.14c.22-1.47.52-30.23.52-35.69,0-8.53-7.49-9.69-7.81-9.74-.3-.06-7.11-1.19-10.72,8.12-3.78,9.76-9.83,28.56-10.23,30.76-.05.27-.12.6-.21.99-.63,2.82-1.94,8.69,1.98,12.07,4.36,3.77,7.81,2.31,7.95,2.25l.28.61c-.16.07-3.96,1.71-8.67-2.35-4.22-3.64-2.85-9.78-2.2-12.73.08-.38.16-.7.2-.97.4-2.22,6.47-21.1,10.26-30.88,3.82-9.86,11.38-8.56,11.46-8.54.07,0,8.37,1.28,8.37,10.4,0,4.5-.3,34.23-.53,35.79l-.02.14c-.57,3.88-1.94,6.65-4.08,8.22-1.31.96-2.88,1.45-4.69,1.45Z"/>
    </g>
    <path class="cls-11" d="m250.9,233.79c-.09.03-.2-1.44-1.4-3.35-.6-.95-1.48-1.97-2.66-2.88-1.18-.89-2.65-1.66-4.32-2.04-3.36-.77-6.55.07-8.51,1.11-2.01,1.04-2.9,2.19-2.96,2.12,0,0,.04-.08.15-.21.11-.12.26-.32.5-.54.45-.45,1.18-1.04,2.19-1.6,1-.56,2.29-1.07,3.79-1.34,1.49-.27,3.2-.3,4.92.1,1.72.4,3.24,1.19,4.44,2.13,1.2.94,2.08,2.02,2.67,3,.58.99.9,1.88,1.04,2.5.09.31.11.56.14.72.02.17.03.25.02.26Z"/>
  </g>
  <path class="cls-11" d="m268.03,287.55c-.07.02-.19-1.16-.92-2.87-.72-1.69-2.18-3.93-4.56-5.47-1.18-.77-2.5-1.12-3.7-1.34-1.21-.2-2.32-.27-3.26-.34-.88-.06-1.62-.11-2.21-.15-.52-.05-.81-.09-.81-.11,0-.02.29-.03.82-.03.6.01,1.34.03,2.22.04.94.03,2.06.08,3.3.27,1.23.2,2.6.56,3.84,1.36,2.46,1.6,3.92,3.93,4.6,5.67.34.88.53,1.63.61,2.15.09.52.1.81.08.81Z"/>
  <path class="cls-18" d="m234.11,276.33s6.61-10.02,8.3-11.33,16.12-7.83,17.81-6.78c1.69,1.05.65,3.32.65,3.32,0,0,6.11-2.14,6.76-1.3s.78,2.27,0,3.44c0,0,3.38-.52,3.38.52s-.39,2.34-1.95,3.51c-1.56,1.17-11.71,7.93-12.52,9.79l-3.29-.2-19.15-.98Z"/>
  <path class="cls-8" d="m253.14,273.46s.08-.24.3-.63c.22-.39.58-.94,1.09-1.57,1-1.26,2.68-2.78,4.8-4.04,2.11-1.26,4.18-2.09,5.67-2.67.75-.28,1.36-.5,1.78-.64s.66-.21.67-.19c0,.02-.21.13-.62.31-.48.21-1.06.46-1.74.75-1.47.63-3.5,1.49-5.59,2.74-2.08,1.24-3.75,2.7-4.79,3.9-1.05,1.19-1.52,2.07-1.58,2.04Z"/>
  <path class="cls-8" d="m244.75,273.3s.09-.27.32-.74c.23-.46.56-1.13,1.02-1.94.46-.8,1.03-1.75,1.82-2.7.41-.47.82-.95,1.39-1.37.56-.38,1.15-.73,1.75-1.09,2.43-1.42,4.73-2.55,6.46-3.22.86-.34,1.58-.56,2.08-.7.51-.11.79-.17.79-.14.01.06-1.1.32-2.78,1.07-1.69.72-3.95,1.88-6.37,3.29-.6.36-1.19.71-1.74,1.07-.5.36-.94.85-1.33,1.3-.78.91-1.37,1.84-1.86,2.62-.44.74-.81,1.37-1.11,1.87-.26.44-.42.68-.44.67Z"/>
  <path class="cls-11" d="m94.55,616.88s.08-.23.27-.66c.22-.46.51-1.09.88-1.88.75-1.66,1.72-4.17,2.59-7.52,1.71-6.68,2.31-16.9-.22-29.03-1.18-6.07-3.07-12.59-5.38-19.5-2.28-6.92-4.93-14.26-7.09-22.2-2.14-7.92-3.82-16.51-3.5-25.52.33-9.03,3-18.04,5.94-27.01,2.93-8.98,5.97-17.77,6.88-26.6,1.03-8.82-.86-17.47-4.88-24.56-3.89-7.17-8.79-13.3-12.45-19.65-3.72-6.33-6.05-12.84-7.48-18.89-2.78-12.2-1.81-22.49-.47-29.26,1.44-6.81,3.05-10.33,3.05-10.33.02,0-.05.24-.18.69-.15.49-.36,1.15-.62,1.98-.54,1.74-1.24,4.34-1.9,7.74-1.22,6.76-2.08,16.97.76,29.04,1.46,5.99,3.8,12.41,7.51,18.65,3.65,6.27,8.57,12.38,12.54,19.63,4.1,7.17,6.07,16.11,5.03,25.06-.91,8.98-3.97,17.82-6.9,26.8-2.94,8.96-5.58,17.88-5.91,26.75-.33,8.87,1.31,17.38,3.42,25.26,2.13,7.9,4.74,15.24,6.99,22.18,2.28,6.93,4.16,13.5,5.3,19.61,2.46,12.22,1.76,22.54-.07,29.24-.93,3.36-1.96,5.87-2.77,7.51-.41.78-.73,1.39-.97,1.84-.22.41-.34.62-.36.61Z"/>
  <path class="cls-7" d="m82.56,419.03s-7.44-23.79,5.9-37.71c.47-.49,1.29-.26,1.41.41.71,3.93,1.6,15.89-7.32,37.3Z"/>
  <path class="cls-11" d="m87.02,389.24c.13.03-.09,1.7-.5,4.39-.49,3.02-1.06,6.57-1.7,10.49-.62,3.92-1.19,7.47-1.67,10.49-.41,2.69-.65,4.35-.79,4.34-.12,0-.11-1.7.13-4.42.25-2.72.73-6.46,1.4-10.56.67-4.1,1.39-7.8,1.97-10.46.58-2.66,1.02-4.29,1.15-4.27Z"/>
  <path class="cls-7" d="m91.3,475.13s4.55-24.5,22.86-30.57c.64-.21,1.26.38,1.06,1.02-1.21,3.81-6.02,14.8-23.91,29.55Z"/>
  <path class="cls-11" d="m109.17,450.88c.1.08-.87,1.46-2.49,3.64-1.85,2.44-4.01,5.31-6.41,8.48-2.38,3.17-4.54,6.05-6.38,8.49-1.62,2.18-2.61,3.54-2.73,3.47-.1-.06.7-1.55,2.19-3.85,1.49-2.29,3.66-5.37,6.18-8.68,2.51-3.31,4.87-6.25,6.63-8.33,1.76-2.08,2.91-3.32,3.01-3.23Z"/>
  <path class="cls-7" d="m86.35,536.6s-2.76-24.77,12.99-35.89c.55-.39,1.32,0,1.31.67-.05,3.99-1.46,15.91-14.3,35.22Z"/>
  <path class="cls-11" d="m96.41,508.21c.12.05-.41,1.65-1.33,4.21-1.06,2.87-2.3,6.25-3.67,9.97-1.36,3.73-2.59,7.1-3.64,9.98-.91,2.56-1.47,4.15-1.6,4.11-.12-.03.22-1.69.97-4.31.76-2.62,1.94-6.2,3.39-10.1,1.44-3.9,2.85-7.39,3.93-9.89,1.08-2.5,1.82-4.02,1.94-3.97Z"/>
  <path class="cls-7" d="m100.14,598.43s-1.88-24.85,14.27-35.41c.57-.37,1.32.04,1.29.72-.19,3.99-2.03,15.84-15.55,34.69Z"/>
  <path class="cls-11" d="m111.21,570.42c.12.05-.47,1.63-1.48,4.16-1.16,2.83-2.52,6.16-4.02,9.84-1.49,3.68-2.84,7.01-3.99,9.84-1,2.52-1.62,4.09-1.75,4.05-.12-.04.28-1.68,1.13-4.28.85-2.59,2.16-6.13,3.75-9.97,1.58-3.85,3.11-7.28,4.28-9.75,1.17-2.46,1.97-3.95,2.08-3.9Z"/>
  <path class="cls-7" d="m71.87,398.13s-22.09-11.54-22.52-30.82c-.02-.68.73-1.1,1.29-.71,3.28,2.27,12.38,10.09,21.24,31.53Z"/>
  <path class="cls-11" d="m53.93,373.94c.11-.07,1.14,1.26,2.75,3.45,1.79,2.48,3.9,5.39,6.23,8.61,2.34,3.21,4.45,6.11,6.25,8.59,1.61,2.19,2.62,3.54,2.52,3.62-.09.08-1.28-1.13-3.04-3.22-1.75-2.09-4.06-5.07-6.49-8.45-2.43-3.37-4.54-6.49-6.01-8.78-1.47-2.29-2.32-3.76-2.21-3.83Z"/>
  <path class="cls-7" d="m95.59,449.21s-22.75-10.17-24.35-29.39c-.06-.68.66-1.14,1.24-.79,3.42,2.07,12.97,9.32,23.11,30.18Z"/>
  <path class="cls-11" d="m76.22,426.15c.1-.08,1.22,1.19,2.96,3.28,1.94,2.37,4.22,5.15,6.74,8.22,2.53,3.06,4.81,5.83,6.76,8.19,1.74,2.08,2.83,3.37,2.73,3.46-.09.08-1.35-1.05-3.22-3.03-1.87-1.98-4.36-4.82-6.99-8.04-2.63-3.22-4.93-6.2-6.54-8.4-1.61-2.2-2.54-3.61-2.44-3.69Z"/>
  <path class="cls-7" d="m82.5,506.19s-15.62-19.42-8.29-37.26c.26-.63,1.11-.71,1.47-.14,2.1,3.4,7.3,14.21,6.83,37.4Z"/>
  <path class="cls-11" d="m75.76,476.84c.13-.02.54,1.61,1.14,4.27.65,2.99,1.41,6.5,2.26,10.38.85,3.88,1.63,7.38,2.29,10.37.6,2.65.99,4.29.85,4.33-.12.04-.72-1.54-1.49-4.16-.76-2.62-1.69-6.27-2.56-10.34-.88-4.06-1.56-7.77-1.99-10.46-.43-2.69-.62-4.37-.49-4.39Z"/>
  <path class="cls-7" d="m97.98,573.25s-22.58-10.55-23.86-29.8c-.04-.68.68-1.13,1.26-.77,3.38,2.12,12.81,9.54,22.6,30.57Z"/>
  <path class="cls-11" d="m78.99,549.86c.1-.08,1.2,1.21,2.9,3.33,1.9,2.4,4.13,5.22,6.6,8.33,2.47,3.1,4.71,5.91,6.62,8.31,1.71,2.11,2.77,3.42,2.67,3.51-.09.08-1.33-1.07-3.17-3.08-1.84-2.01-4.28-4.89-6.85-8.16-2.58-3.26-4.82-6.28-6.39-8.51-1.57-2.23-2.48-3.65-2.38-3.73Z"/>
  <path class="cls-11" d="m142.94,475.26s.03.19.03.55c-.01.43-.02.96-.04,1.59-.07,1.5-.16,3.52-.27,6.04-.29,5.31-.7,12.72-1.18,21.58v.02s0,.03,0,.03c-1.61,9.02-6.2,19.01-12.37,28.72-4.53,7.15-9.27,13.65-13.36,19.69-4.12,6.03-7.59,11.61-10.02,16.56-2.44,4.94-3.86,9.18-4.69,12.15-.4,1.49-.69,2.65-.87,3.44-.19.79-.3,1.21-.33,1.2-.03,0,.02-.43.15-1.24.11-.81.35-1.99.7-3.5.73-3.01,2.06-7.33,4.44-12.35,2.37-5.03,5.81-10.68,9.9-16.75,4.06-6.09,8.78-12.6,13.28-19.71,6.14-9.66,10.71-19.5,12.38-28.37v.05c.62-8.85,1.14-16.25,1.51-21.56.2-2.52.37-4.53.49-6.03.06-.63.12-1.15.16-1.59.04-.36.08-.54.1-.54Z"/>
  <g>
    <path class="cls-14" d="m129.5,531.94s9.56-23.01-2.47-38.09c-.42-.53-1.26-.37-1.45.28-1.07,3.85-3.04,15.68,3.91,37.81Z"/>
    <path class="cls-14" d="m127.76,501.87c.13-.01.42,1.65.76,4.35.34,2.7.72,6.45,1.01,10.6.3,4.15.44,7.92.44,10.64,0,2.73-.15,4.42-.27,4.42-.14,0-.23-1.68-.39-4.39-.2-3.05-.44-6.64-.71-10.6-.28-3.96-.53-7.55-.74-10.6-.17-2.72-.23-4.4-.1-4.42Z"/>
    <g class="cls-19">
      <path class="cls-14" d="m129.5,531.94s9.56-23.01-2.47-38.09c-.42-.53-1.26-.37-1.45.28-1.07,3.85-3.04,15.68,3.91,37.81Z"/>
    </g>
  </g>
  <g>
    <path class="cls-14" d="m99.89,587.4s7.66-23.71-5.55-37.77c-.46-.49-1.29-.27-1.42.39-.75,3.92-1.75,15.88,6.96,37.37Z"/>
    <path class="cls-14" d="m95.71,557.57c.13-.02.55,1.61,1.11,4.28.56,2.67,1.24,6.37,1.87,10.48.64,4.11,1.08,7.85,1.3,10.57.22,2.72.21,4.41.09,4.42-.14,0-.36-1.66-.75-4.35-.45-3.03-.98-6.58-1.57-10.51-.6-3.93-1.14-7.48-1.6-10.51-.39-2.69-.59-4.37-.46-4.39Z"/>
    <g class="cls-19">
      <path class="cls-14" d="m99.89,587.4s7.66-23.71-5.55-37.77c-.46-.49-1.29-.27-1.42.39-.75,3.92-1.75,15.88,6.96,37.37Z"/>
    </g>
  </g>
  <g>
    <path class="cls-14" d="m141.68,503.82s20.42-14.29,18.36-33.47c-.07-.67-.87-.99-1.37-.54-2.96,2.68-10.97,11.61-16.99,34.01Z"/>
    <g class="cls-19">
      <path class="cls-14" d="m141.68,503.82s20.42-14.29,18.36-33.47c-.07-.67-.87-.99-1.37-.54-2.96,2.68-10.97,11.61-16.99,34.01Z"/>
    </g>
    <path class="cls-14" d="m156.34,477.51c.12.06-.53,1.62-1.7,4.08-1.16,2.46-2.85,5.83-4.83,9.49-1.97,3.66-3.88,6.92-5.34,9.22-1.47,2.3-2.49,3.65-2.59,3.58-.11-.07.71-1.54,2.03-3.92,1.47-2.69,3.19-5.84,5.09-9.32,1.89-3.49,3.6-6.65,5.06-9.34,1.31-2.38,2.17-3.84,2.28-3.78Z"/>
  </g>
  <g>
    <path class="cls-14" d="m108.12,563.89s24.62-3.84,31.22-21.96c.23-.64-.34-1.27-.99-1.09-3.84,1.1-14.96,5.59-30.23,23.05Z"/>
    <g class="cls-19">
      <path class="cls-14" d="m108.12,563.89s24.62-3.84,31.22-21.96c.23-.64-.34-1.27-.99-1.09-3.84,1.1-14.96,5.59-30.23,23.05Z"/>
    </g>
    <path class="cls-14" d="m132.87,546.73c.08.1-1.19,1.22-3.32,2.92-2.13,1.7-5.13,3.97-8.51,6.39-3.38,2.42-6.53,4.5-8.86,5.92-2.33,1.42-3.85,2.18-3.91,2.07-.07-.12,1.32-1.07,3.55-2.63,2.5-1.77,5.43-3.84,8.67-6.13,3.24-2.3,6.17-4.38,8.66-6.16,2.23-1.56,3.64-2.49,3.72-2.39Z"/>
  </g>
  <polygon class="cls-4" points="78.98 609.21 86.05 655.54 114.25 655.49 123.76 609.21 78.98 609.21"/>
  <path class="cls-11" d="m119.62,627.08s-.07.07-.24.17c-.17.1-.4.26-.74.42-.67.33-1.73.74-3.15.94-1.42.19-3.23.16-5.19-.49-1.94-.63-4.06-1.89-5.58-4.05-.72-1.1-1.23-2.42-1.31-3.88-.11-1.42.45-3.14,1.91-3.98,1.46-.84,3.34-.54,4.73.39,1.45.94,2.3,2.59,2.7,4.25.41,1.69.45,3.45.35,5.23-.11,1.78-.44,3.61-1.14,5.35-.68,1.74-1.78,3.39-3.27,4.66-1.48,1.27-3.38,2.17-5.43,2.27-2.05.09-4.01-.62-5.65-1.64-1.65-1.03-3.05-2.34-4.21-3.81-1.16-1.46-2.03-3.22-2.13-5.09-.09-1.84.56-3.75,2-4.91,1.46-1.19,3.54-1.1,5-.31,1.5.76,2.62,2.2,2.88,3.78.54,3.18-1.31,6.05-3.57,7.33-2.31,1.32-4.82,1.36-6.81.98-2.02-.39-3.62-1.19-4.85-1.9-1.23-.72-2.12-1.38-2.72-1.84-.59-.46-.89-.72-.87-.74.02-.02.34.2.96.61.62.41,1.53,1.03,2.77,1.7,1.24.66,2.82,1.4,4.78,1.74,1.93.32,4.33.23,6.46-1.03,2.07-1.21,3.74-3.92,3.22-6.74-.24-1.38-1.23-2.63-2.56-3.29-1.31-.69-3.05-.73-4.25.26-1.21.97-1.8,2.67-1.71,4.31.1,1.66.89,3.28,1.99,4.66,1.11,1.39,2.47,2.65,4.02,3.62,1.55.96,3.36,1.6,5.21,1.52,1.84-.09,3.59-.9,4.96-2.08,1.39-1.18,2.41-2.71,3.07-4.36.67-1.65.99-3.4,1.11-5.12.11-1.72.06-3.44-.31-5.02-.37-1.56-1.14-3.04-2.39-3.86-1.22-.83-2.85-1.08-4.03-.4-1.2.68-1.71,2.1-1.64,3.4.06,1.32.51,2.57,1.17,3.6,1.39,2.04,3.4,3.3,5.26,3.94,1.87.66,3.63.74,5.01.6,2.81-.32,4.13-1.35,4.17-1.24Z"/>
  <path class="cls-2" d="m133.32,102.77c-4.56,0-8.26,3.7-8.26,8.26,0,.78.11,1.53.31,2.25.11.39.25.77.41,1.14h0c.06.28.09.56.09.85,0,2.34-1.89,4.23-4.23,4.23-1.6,0-3-.89-3.72-2.21l-5.57-10.06c-2.37-4.28-7.81-5.74-12.01-3.22l-.23.14c-4.02,2.41-5.38,7.58-3.08,11.66l16.04,28.4c2.3,4.07,7.42,5.58,11.55,3.4,2.94-1.55,4.62-4.55,4.62-7.66,0-1.41-.35-2.85-1.08-4.18l-2.25-4.06s-.01-.02-.02-.03c-.1-.16-.19-.32-.27-.49,0,0,0,0,0,0-.57-1.11-.89-2.38-.89-3.72,0-4.52,3.66-8.18,8.18-8.18h.04c.11,0,.21,0,.32,0h.04c4.56,0,8.26-3.7,8.26-8.26,0-4.56-3.7-8.26-8.26-8.26Z"/>
  <path class="cls-5" d="m168.56,54.93c.06.04-.6,1.01-1.73,2.51-1.13,1.51-2.73,3.56-4.55,5.77-1.83,2.22-3.53,4.18-4.79,5.57-1.26,1.39-2.08,2.23-2.13,2.18-.06-.05.66-.97,1.85-2.42,1.3-1.58,2.9-3.52,4.67-5.67,1.77-2.15,3.37-4.09,4.67-5.67,1.2-1.45,1.96-2.33,2.02-2.28Z"/>
  <path class="cls-5" d="m70.26,54.93c-.06.04.6,1.01,1.73,2.51,1.13,1.51,2.73,3.56,4.55,5.77,1.83,2.22,3.53,4.18,4.79,5.57,1.26,1.39,2.08,2.23,2.13,2.18.06-.05-.66-.97-1.85-2.42-1.3-1.58-2.9-3.52-4.67-5.67-1.77-2.15-3.37-4.09-4.67-5.67-1.2-1.45-1.96-2.33-2.02-2.28Z"/>
  <path class="cls-5" d="m657.56,49.67c.06.04-.6,1.01-1.73,2.51-1.13,1.51-2.73,3.56-4.55,5.77-1.83,2.22-3.53,4.18-4.79,5.57-1.26,1.39-2.08,2.23-2.13,2.18-.06-.05.66-.97,1.85-2.42,1.3-1.58,2.9-3.52,4.67-5.67,1.77-2.15,3.37-4.09,4.67-5.67,1.2-1.45,1.96-2.33,2.02-2.28Z"/>
  <path class="cls-5" d="m559.04,49.67c-.06.04.6,1.01,1.73,2.51,1.13,1.51,2.73,3.56,4.55,5.77,1.83,2.22,3.53,4.18,4.79,5.57,1.26,1.39,2.08,2.23,2.13,2.18.06-.05-.66-.97-1.85-2.42-1.3-1.58-2.9-3.52-4.67-5.67-1.77-2.15-3.37-4.09-4.67-5.67-1.2-1.45-1.96-2.33-2.02-2.28Z"/>
</svg>