<?xml version="1.0" encoding="UTF-8"?>
<svg id="Capa_1" data-name="Capa 1" xmlns="http://www.w3.org/2000/svg" viewBox="0 0 774.17 736.47">
  <defs>
    <style>
      .cls-1 {
        fill: #ff735d;
      }

      .cls-1, .cls-2, .cls-3, .cls-4, .cls-5, .cls-6, .cls-7, .cls-8, .cls-9, .cls-10, .cls-11, .cls-12, .cls-13, .cls-14 {
        stroke-width: 0px;
      }

      .cls-2 {
        fill: #375a64;
      }

      .cls-3 {
        fill: #e1e1e1;
      }

      .cls-4 {
        fill: #ececec;
      }

      .cls-5 {
        fill: #04c4d9;
      }

      .cls-7 {
        opacity: .3;
      }

      .cls-8 {
        fill: #f5f5f5;
      }

      .cls-9 {
        fill: #1a2e35;
      }

      .cls-10 {
        fill: #fff;
      }

      .cls-11 {
        fill: #ff9c6a;
      }

      .cls-12 {
        fill: #024873;
      }

      .cls-13 {
        fill: #c27460;
      }

      .cls-14 {
        fill: #ffc19d;
      }
    </style>
  </defs>
  <path class="cls-3" d="m0,735.69l51.78-105.78h664.18s54.68,104.02,58.21,105.78c3.53,1.76-774.16,0-774.16,0Z"/>
  <g>
    <polygon class="cls-3" points="229.67 14.64 229.67 142.8 45.6 142.8 38.97 15.53 229.67 14.64"/>
    <rect class="cls-4" x="67.5" y="-13.01" width="126.99" height="184.07" transform="translate(51.97 210.03) rotate(-90)"/>
    <g>
      <rect class="cls-10" x="58.9" y="31.31" width="144.2" height="95.44"/>
      <path class="cls-3" d="m203.1,31.31s-.25.02-.71.02c-.49,0-1.17.01-2.05.02-1.83.01-4.48.03-7.92.05-6.93.03-17,.06-29.72.11-25.43.05-61.42.12-103.8.21l.42-.42c.01,29.16.02,61.47.04,95.43h0s-.45-.44-.45-.44c54.4.03,104.55.07,144.2.09l-.36.36c.08-29.04.14-52.86.19-69.44.04-8.29.07-14.76.09-19.2.02-2.19.03-3.88.04-5.05.01-1.14.04-1.75.04-1.75,0,0,.03.56.04,1.67,0,1.15.02,2.81.04,4.98.02,4.42.05,10.87.09,19.12.05,16.64.11,40.53.19,69.66v.36s-.36,0-.36,0c-39.65.03-89.8.06-144.2.09h-.45s0-.45,0-.45h0c.01-33.97.03-66.28.04-95.44v-.42s.42,0,.42,0c42.49.08,78.58.16,104.08.21,12.68.05,22.72.09,29.62.11,3.4.02,6.03.04,7.84.05.86.01,1.53.02,2,.02.45,0,.66.02.66.02Z"/>
    </g>
    <path class="cls-3" d="m38.97,15.18c.08-.1,1.28.69,3.16,2.05,1.88,1.36,4.45,3.29,7.22,5.5,2.77,2.22,5.2,4.31,6.92,5.88,1.71,1.57,2.72,2.61,2.64,2.7-.17.19-4.6-3.46-10.12-7.87-5.53-4.41-9.97-8.06-9.81-8.26Z"/>
    <path class="cls-3" d="m223.04,15.53c.16.2-4.18,3.89-9.69,8.25-5.51,4.36-10.09,7.73-10.25,7.53-.16-.2,4.18-3.89,9.69-8.25,5.5-4.36,10.09-7.73,10.25-7.53Z"/>
    <g>
      <path class="cls-10" d="m222.89,142.54c-6.84-5.54-13.68-11.09-20.52-16.63"/>
      <path class="cls-3" d="m202.37,125.91c.16-.2,4.88,3.37,10.55,7.96,5.67,4.59,10.13,8.48,9.98,8.67s-4.88-3.37-10.55-7.96c-5.67-4.59-10.13-8.47-9.97-8.67Z"/>
    </g>
    <path class="cls-3" d="m38.97,142.53c-.16-.2,4.14-3.85,9.58-8.16,5.45-4.31,9.99-7.64,10.15-7.45.16.2-4.13,3.85-9.58,8.16-5.45,4.31-9.99,7.64-10.15,7.45Z"/>
    <rect class="cls-3" x="117.57" y="31.66" width="31.96" height="90.73" transform="translate(56.52 210.57) rotate(-90)"/>
  </g>
  <g>
    <rect class="cls-3" x="551.42" width="182.18" height="301.56"/>
    <rect class="cls-4" x="545.36" width="182.18" height="301.56"/>
    <rect class="cls-10" x="553.12" y="6.12" width="166.67" height="289.33"/>
    <g>
      <rect class="cls-4" x="584.85" y="43.71" width="102.49" height="214.14"/>
      <path class="cls-3" d="m584.85,182.08c-.24-20,17.75-39.53,37.56-42.32,9.45-1.33,19.48.54,28.31-3.08,15.75-6.46,20.77-27.39,36.62-33.6l.72,154.78h-103.21v-75.78Z"/>
    </g>
  </g>
  <path class="cls-9" d="m761.97,604.86c0,.24-170.59.44-380.97.44s-381.01-.2-381.01-.44,170.55-.44,381.01-.44,380.97.2,380.97.44Z"/>
  <path class="cls-1" d="m630.93,475.77c.53,1.31.76,2.74.66,4.16.33-1.67.98-3.27,1.89-4.71.34-.54.88-1.11,1.5-.96.62.16.81.93.84,1.57.06,1.75-.34,3.51-1.15,5.06,1.13-1.43,2.61-2.58,4.28-3.32.3-.13.65-.24.93-.07.32.2.33.66.28,1.03-.42,2.94-2.5,5.59-5.26,6.69l-.9.13c-1.93-.53-3.64-1.81-4.7-3.5-1.06-1.7-1.45-3.8-1.09-5.76.14-.75.57-1.62,1.33-1.63.68-.01,1.15.68,1.4,1.32Z"/>
  <path class="cls-2" d="m651.25,516.36c-2.1-1.52-6.06-2.97-8.61-3.47,1.81-6.17,1.91-12.83.24-19.04-.66-2.45-1.61-4.88-3.21-6.85-1.6-1.97-3.93-3.45-6.47-3.61-2.74-.17-5.36,1.25-7.19,3.33l-3.18,7.35c-.18,1.07-.32,2.15-.38,3.23-.39,7.11,1.24,14.31,4.64,20.57-3.31,3.65-6.9,9.95-5.82,17.25h37.75c.66-7-2.01-14.59-7.77-18.75Z"/>
  <path class="cls-9" d="m625.4,520.21s.08-.15.29-.41c.21-.25.48-.65.93-1.09.85-.91,2.24-2.1,4.19-3.2,1.94-1.1,4.49-2.04,7.45-2.38,2.94-.35,6.29-.02,9.47,1.32,3.15,1.39,5.7,3.6,7.46,5.98,1.78,2.38,2.85,4.88,3.38,7.05.54,2.17.63,4,.55,5.24,0,.62-.12,1.1-.15,1.42-.05.32-.08.49-.1.49-.17,0,.48-2.79-.69-7.05-.57-2.11-1.66-4.53-3.41-6.83-1.74-2.3-4.22-4.42-7.27-5.77-3.07-1.29-6.32-1.63-9.18-1.32-2.88.3-5.38,1.17-7.31,2.21-3.9,2.08-5.49,4.47-5.6,4.34Z"/>
  <path class="cls-9" d="m622.25,500c-.07,0-.13-.96-.07-2.5.07-1.54.26-3.7,1.02-5.97.76-2.27,2.06-4.1,3.23-5.14,1.17-1.06,2.11-1.4,2.13-1.34.05.09-.8.54-1.85,1.63-1.06,1.07-2.23,2.84-2.97,5.03-.74,2.19-.99,4.3-1.16,5.82-.16,1.52-.25,2.47-.34,2.47Z"/>
  <path class="cls-9" d="m644.08,530.31c-.1-.13,1.56-1.65,3.52-3.6,1.98-1.95,3.52-3.59,3.65-3.48.12.1-1.25,1.92-3.24,3.89-1.99,1.97-3.83,3.32-3.93,3.2Z"/>
  <path class="cls-9" d="m639.87,528.11c-.15-.04.12-1.71.61-3.74.49-2.03,1.02-3.65,1.17-3.61.15.04-.12,1.71-.61,3.74-.49,2.03-1.02,3.65-1.17,3.61Z"/>
  <path class="cls-9" d="m628.66,523.92c.13-.08,1.23,1.37,2.15,3.41.93,2.04,1.3,3.83,1.15,3.86-.16.05-.77-1.63-1.68-3.63-.9-2-1.76-3.56-1.63-3.65Z"/>
  <path class="cls-9" d="m640.78,506.29c-.13-.1,1.02-1.82,2.55-3.85,1.54-2.03,2.88-3.6,3.01-3.51.13.1-1.02,1.82-2.55,3.85-1.54,2.03-2.88,3.6-3.01,3.51Z"/>
  <path class="cls-9" d="m638.12,494.48c-.13-.09,1.16-2.21,2.89-4.73,1.73-2.52,3.23-4.49,3.36-4.4.13.09-1.16,2.21-2.89,4.73-1.73,2.52-3.23,4.49-3.36,4.4Z"/>
  <path class="cls-9" d="m633.86,497.58c.16,0,.4,1.78.54,4,.14,2.22.12,4.02-.03,4.03-.16.01-.4-1.78-.54-4-.14-2.22-.12-4.02.03-4.03Z"/>
  <path class="cls-9" d="m616.9,502.95c.07-.14,2.52,1,5.36,2.74,2.84,1.73,4.98,3.38,4.89,3.51-.09.13-2.36-1.3-5.18-3.02-2.82-1.72-5.13-3.08-5.06-3.23Z"/>
  <path class="cls-6" d="m630.49,513.11c1.83-1.07,4-1.41,6.12-1.51,2.2-.11,4.66.11,6.15,1.74v.08c-5.28-.38-11.45,1.43-15.5,4.84-.03-2.12,1.4-4.07,3.23-5.14Z"/>
  <path class="cls-1" d="m648.44,438.97c1.08-.29,2.22-.33,3.31-.13-1.27-.42-2.47-1.07-3.5-1.92-.39-.32-.79-.79-.61-1.26.18-.47.81-.55,1.31-.51,1.37.12,2.71.6,3.85,1.38-1.01-1.02-1.77-2.29-2.19-3.66-.07-.24-.13-.53.03-.73.19-.23.55-.2.83-.12,2.26.61,4.13,2.48,4.73,4.74l.02.72c-.6,1.46-1.76,2.68-3.18,3.34-1.43.67-3.1.78-4.61.31-.57-.18-1.21-.6-1.15-1.19.05-.54.64-.83,1.16-.97Z"/>
  <path class="cls-1" d="m724.58,390.72c.2,1.1.15,2.24-.15,3.31.52-1.23,1.27-2.37,2.21-3.33.35-.36.86-.72,1.31-.5.45.22.48.85.4,1.34-.23,1.36-.82,2.65-1.69,3.72,1.1-.92,2.43-1.57,3.83-1.88.25-.05.54-.08.73.09.22.21.15.56.05.84-.79,2.2-2.82,3.91-5.12,4.32l-.72-.04c-1.4-.72-2.52-1.97-3.07-3.45-.55-1.48-.52-3.16.08-4.62.23-.56.69-1.16,1.28-1.05.53.1.78.71.87,1.24Z"/>
  <path class="cls-2" d="m671.57,489.44c.56.02,1.08.09,1.62.14.98-10.78-2.29-21.73,1-32.04l-.44.56c-3.97.52-8.1.36-11.84-1.06-3.74-1.42-7.06-4.22-8.56-7.93-1.5-3.71-.94-8.32,1.82-11.21,3.73-3.9,10.31-3.7,14.99-1.01,4.52,2.59,7.68,6.95,10.66,11.23,1.57-1.23,3.29-2.26,5.16-2.96-5.2-7.16-10.24-14.69-11.88-23.34-1.8-9.47,1.74-20.69,10.53-24.64,7.49-3.37,16.87-.33,22.15,5.96.41.49.76,1.02,1.13,1.55l-.18-.51c1.3-3.29,3.87-6.1,7.12-7.49,3.25-1.39,7.16-1.28,10.22.49,3.06,1.77,5.12,5.23,5.02,8.77-.12,3.98-2.92,7.59-6.5,9.33-3.43,1.67-7.45,1.81-11.2,1.04.48,3.33.46,6.75-.06,10.06-1.17,7.53-4.53,14.54-8.52,21.05,1.1.75,2.15,1.57,3.07,2.54,6.78,7.1,7.22,18.5,3.66,27.66-3.55,9.15-13.18,15.91-19.86,23.1h0c2.87,4.85,4.38,10.65,5.13,16.1,2.32-4.86,7.51-8.34,12.93-8.3,2.91.02,6.18,1.32,7.08,4.09.79,2.44-.54,5.09-2.28,6.98-4.04,4.41-11.28,6.42-17.09,5.01l-.07-1.78c.37,7-.29,12.31-.29,12.31h-43.08s-11.51-46.79,18.57-45.67Z"/>
  <rect class="cls-12" x="603.62" y="535.11" width="101.93" height="18.07"/>
  <polygon class="cls-12" points="697.94 549.59 685.54 603.58 624.8 603.58 611.24 549.59 697.94 549.59"/>
  <path class="cls-9" d="m603.68,553.2c0,.2,22.99.36,51.34.36s51.35-.16,51.35-.36-22.99-.36-51.35-.36-51.34.16-51.34.36Z"/>
  <path class="cls-9" d="m663.58,491.21s.19-.13.59-.34c.39-.22.99-.47,1.79-.77,1.59-.56,4.06-1.06,7.09-.82,3.02.24,6.61,1.28,9.98,3.49,3.38,2.21,6.38,5.63,8.57,9.7,2.2,4.08,3.46,8.37,4.1,12.31.63,3.96.69,7.56.69,10.57-.02,3.01-.11,5.45-.17,7.13-.03.79-.06,1.43-.08,1.94-.02.44-.05.68-.07.67-.02,0-.04-.23-.05-.68,0-.5-.01-1.15-.02-1.94,0-1.76,0-4.17,0-7.12-.05-3-.16-6.59-.81-10.49-.67-3.89-1.92-8.11-4.09-12.12-2.16-4-5.09-7.35-8.36-9.53-3.28-2.18-6.77-3.24-9.73-3.53-2.97-.28-5.4.14-6.99.63-1.6.49-2.42.96-2.45.89Z"/>
  <path class="cls-9" d="m672.69,468.34s-.04-.17-.07-.51c-.01-.34-.08-.83-.06-1.48-.01-1.28.13-3.15.64-5.39.51-2.24,1.41-4.87,2.99-7.48.77-1.32,1.74-2.61,2.89-3.81,1.14-1.21,2.48-2.33,4.03-3.2,1.54-.88,3.18-1.49,4.81-1.85,1.64-.33,3.25-.42,4.78-.35,3.06.18,5.73.96,7.85,1.86,2.12.9,3.72,1.86,4.77,2.6.54.35.92.68,1.18.88.26.21.4.33.38.34-.03.04-.61-.36-1.69-1.04-1.08-.67-2.69-1.57-4.8-2.41-2.1-.84-4.73-1.57-7.72-1.71-1.49-.05-3.06.05-4.64.38-1.58.36-3.16.95-4.64,1.8-1.5.84-2.8,1.92-3.91,3.09-1.13,1.16-2.07,2.42-2.84,3.7-1.58,2.54-2.49,5.11-3.05,7.3-.55,2.2-.75,4.04-.81,5.31-.06,1.27-.04,1.98-.09,1.98Z"/>
  <path class="cls-9" d="m712.73,422.76c-.08,0-.22-1.32-.36-3.46-.08-1.07-.19-2.33-.43-3.72-.22-1.4-.58-2.88-1.22-4.37-1.24-3-2.77-5.55-3.94-7.33-1.18-1.78-2.07-2.76-2.01-2.82.03-.03.28.19.71.62.41.44.99,1.1,1.63,1.97,1.27,1.74,2.87,4.28,4.13,7.34.66,1.52,1.02,3.1,1.21,4.51.21,1.42.28,2.71.31,3.78.05,2.15.04,3.48-.04,3.48Z"/>
  <path class="cls-9" d="m707.17,519.63c.1-.12,1.42.85,2.94,2.17,1.52,1.32,2.66,2.48,2.56,2.6-.1.12-1.42-.85-2.94-2.17-1.52-1.32-2.66-2.48-2.56-2.6Z"/>
  <path class="cls-9" d="m710.79,516.03c-.02-.16,1.62-.45,3.65-.64,2.03-.2,3.69-.23,3.71-.07.02.16-1.62.45-3.65.64-2.03.2-3.69.23-3.71.07Z"/>
  <path class="cls-9" d="m708.04,509.67c-.11-.12.93-1.28,2.05-2.83,1.13-1.54,1.91-2.89,2.06-2.82.14.06-.44,1.57-1.6,3.16-1.16,1.6-2.41,2.61-2.51,2.49Z"/>
  <path class="cls-9" d="m703.22,506.75c.15.04-.14,1.9-.67,4.17-.52,2.27-1.07,4.08-1.23,4.04-.15-.04.14-1.9.67-4.17.52-2.27,1.07-4.08,1.23-4.04Z"/>
  <path class="cls-9" d="m700,521.32c-.11-.12.57-.9,1.52-1.75.95-.85,1.8-1.45,1.9-1.33s-.57.9-1.52,1.75c-.95.85-1.8,1.45-1.9,1.33Z"/>
  <path class="cls-9" d="m685.02,518.5c-.11-.11.71-1.16,1.85-2.34,1.13-1.18,2.15-2.05,2.26-1.94.11.11-.71,1.16-1.85,2.34-1.13,1.18-2.15,2.05-2.26,1.94Z"/>
  <path class="cls-9" d="m681.77,504.66c-.14-.08.48-1.34,1.38-2.8.9-1.47,1.74-2.59,1.87-2.51.14.08-.48,1.34-1.38,2.8-.9,1.47-1.74,2.59-1.87,2.51Z"/>
  <path class="cls-9" d="m672.23,493.4c.16,0,.31,1.61.33,3.59.03,1.99-.08,3.6-.24,3.6-.16,0-.31-1.61-.33-3.59-.03-1.99.08-3.6.24-3.6Z"/>
  <path class="cls-9" d="m652.22,497.22c.14-.09,1.31,1.47,2.85,3.32,1.53,1.86,2.84,3.31,2.72,3.43-.11.11-1.62-1.18-3.16-3.06-1.55-1.88-2.53-3.61-2.4-3.69Z"/>
  <path class="cls-9" d="m649.65,516.88c.03-.16,1.63.02,3.57.4,1.94.37,3.49.8,3.46.96s-1.63-.02-3.57-.4c-1.94-.37-3.49-.8-3.46-.96Z"/>
  <path class="cls-9" d="m670.41,523.73c-.14-.05.33-1.87,1.38-3.93,1.04-2.07,2.24-3.53,2.36-3.44.14.09-.83,1.67-1.85,3.7-1.03,2.02-1.73,3.73-1.89,3.67Z"/>
  <path class="cls-9" d="m663.49,514.3c-.16,0-.32-1.3-.35-2.9-.04-1.61.06-2.91.22-2.92.16,0,.32,1.3.35,2.91.04,1.61-.06,2.91-.22,2.92Z"/>
  <path class="cls-9" d="m685.83,530.92c-.14-.05.26-1.49,1.22-3.04.95-1.56,2.05-2.57,2.16-2.46.12.11-.75,1.26-1.67,2.76-.93,1.5-1.55,2.8-1.71,2.74Z"/>
  <path class="cls-9" d="m662.13,532.29c-.14.06-.84-1.19-1.55-2.8-.71-1.61-1.17-2.96-1.02-3.03.14-.06.84,1.19,1.55,2.8.71,1.61,1.17,2.96,1.02,3.03Z"/>
  <path class="cls-9" d="m698.97,488.46c0-.16,1.77-.23,3.95-.16,2.18.07,3.94.26,3.93.42,0,.16-1.77.23-3.95.16-2.18-.07-3.94-.26-3.93-.42Z"/>
  <path class="cls-9" d="m707.56,473.75c-.09-.13,1.6-1.49,3.79-3.04,2.18-1.55,4.03-2.7,4.12-2.57.09.13-1.6,1.49-3.79,3.04-2.18,1.55-4.03,2.7-4.12,2.57Z"/>
  <path class="cls-9" d="m706.67,454.86c-.07-.15,1.4-.92,3.09-2.04,1.69-1.12,2.97-2.17,3.09-2.05.11.11-1.03,1.38-2.77,2.53-1.74,1.16-3.35,1.71-3.41,1.57Z"/>
  <path class="cls-9" d="m697.04,448.19c-.15-.04.22-2.1.83-4.61.61-2.51,1.24-4.51,1.39-4.47.15.04-.22,2.1-.83,4.61-.61,2.51-1.24,4.51-1.39,4.47Z"/>
  <path class="cls-9" d="m680.95,443.42c.14-.08.98,1.16,1.87,2.77.9,1.61,1.51,2.98,1.37,3.05-.14.08-.98-1.16-1.87-2.77-.9-1.61-1.51-2.98-1.37-3.05Z"/>
  <path class="cls-9" d="m667.08,475.3c.11-.13,1.94,1.28,4.36,2.76,2.41,1.5,4.49,2.51,4.42,2.66-.05.14-2.27-.65-4.72-2.17-2.46-1.51-4.16-3.14-4.06-3.25Z"/>
  <path class="cls-9" d="m689.56,482.46c-.08-.13,1.15-1.05,2.76-2.04,1.61-.99,2.98-1.69,3.06-1.55.08.13-1.15,1.05-2.76,2.04-1.61.99-2.98,1.69-3.06,1.55Z"/>
  <path class="cls-9" d="m693.33,467.22c-.12-.13,1.34-1.55,2.69-3.63,1.37-2.07,2.09-3.98,2.25-3.92.14.03-.36,2.08-1.77,4.23-1.4,2.16-3.08,3.44-3.17,3.32Z"/>
  <path class="cls-9" d="m685.95,463.78c-.16,0-.21-1.66-.12-3.69.09-2.03.3-3.68.46-3.67.16,0,.21,1.66.12,3.7-.09,2.03-.3,3.68-.46,3.67Z"/>
  <path class="cls-9" d="m681.87,478.85c-.16.02-.48-1.65-.72-3.73-.24-2.08-.31-3.78-.15-3.8.16-.02.48,1.65.72,3.73.24,2.08.31,3.78.15,3.8Z"/>
  <path class="cls-9" d="m670.47,433.45c.16-.02.54,1.9,1.2,4.22.66,2.32,1.35,4.15,1.2,4.22-.14.07-1.08-1.7-1.75-4.06-.68-2.36-.8-4.36-.65-4.37Z"/>
  <path class="cls-9" d="m662.44,459.92c-.08-.15,1.48-1.1,3.29-2.42,1.82-1.32,3.2-2.51,3.32-2.39.11.11-1.13,1.51-2.98,2.85-1.85,1.35-3.56,2.1-3.63,1.96Z"/>
  <path class="cls-9" d="m651.53,451.79c0-.16,1.81-.39,4.02-.82,2.21-.42,3.98-.88,4.03-.73.05.14-1.67.86-3.93,1.29-2.25.43-4.12.4-4.12.25Z"/>
  <path class="cls-9" d="m662.15,442.72c.09-.13,1.11.37,2.3,1.13,1.18.76,2.07,1.48,1.99,1.61-.09.13-1.11-.37-2.29-1.13-1.18-.76-2.07-1.48-1.99-1.61Z"/>
  <path class="cls-9" d="m656.85,432.91c.09-.12,1.37.73,2.61,2.16,1.24,1.42,1.91,2.81,1.78,2.88-.14.09-1.01-1.13-2.21-2.51-1.2-1.38-2.28-2.41-2.18-2.54Z"/>
  <path class="cls-9" d="m649.63,442.25c.06-.15,1.69.38,3.71.92,2.02.55,3.7.9,3.67,1.06-.02.15-1.76.05-3.82-.51-2.07-.55-3.62-1.34-3.56-1.48Z"/>
  <path class="cls-9" d="m699.66,429.68c-.13-.1,1.45-2.24,3.26-4.96,1.81-2.72,3.17-5.01,3.31-4.93.13.07-1,2.5-2.83,5.25-1.82,2.75-3.62,4.74-3.73,4.65Z"/>
  <path class="cls-9" d="m696.44,418.25c-.16-.02-.04-1.93.27-4.27.31-2.34.68-4.22.84-4.2.16.02.04,1.93-.27,4.27-.31,2.34-.68,4.22-.84,4.2Z"/>
  <path class="cls-9" d="m685.33,420.03c.17-.03.64,2.17,1.73,4.69,1.08,2.53,2.36,4.37,2.23,4.48-.11.1-1.64-1.65-2.75-4.25-1.13-2.59-1.35-4.9-1.21-4.91Z"/>
  <path class="cls-9" d="m672.27,422.79c.13-.1,1.76,1.81,4.01,3.92,2.24,2.12,4.25,3.62,4.15,3.76-.08.13-2.27-1.19-4.55-3.34-2.29-2.14-3.73-4.25-3.61-4.33Z"/>
  <path class="cls-9" d="m677.32,399.08c.16-.03.67,2.38,1.57,5.27.89,2.89,1.83,5.17,1.68,5.24-.13.07-1.32-2.13-2.22-5.07-.91-2.93-1.17-5.42-1.02-5.44Z"/>
  <path class="cls-9" d="m692.37,391.27c.16,0,.4,1.88.54,4.22.14,2.34.13,4.25-.03,4.26-.16,0-.4-1.88-.54-4.22-.14-2.34-.13-4.25.03-4.26Z"/>
  <path class="cls-9" d="m723.41,411.33c.04-.16,1.47.09,3.23.23,1.77.15,3.22.13,3.23.29.02.15-1.45.43-3.28.28-1.83-.14-3.23-.66-3.19-.8Z"/>
  <path class="cls-9" d="m722.5,403.5c-.07-.14,1.92-1.34,4.45-2.68,2.53-1.34,4.64-2.32,4.71-2.18.07.14-1.92,1.34-4.45,2.68-2.53,1.34-4.64,2.32-4.71,2.18Z"/>
  <path class="cls-9" d="m714.1,403.78c-.15-.05.27-1.83.95-3.99.68-2.15,1.35-3.86,1.5-3.81.15.05-.27,1.83-.95,3.99-.68,2.15-1.35,3.86-1.5,3.81Z"/>
  <path class="cls-6" d="m690.59,500.75c-.08-4.09-2.35-8.27-5.74-10.54-3.39-2.28-9.5-2.5-11.91-.8,3.56-.04,7.58,1.49,10.44,3.6,2.86,2.11,5.27,4.75,7.2,7.74"/>
  <path class="cls-6" d="m703.88,448.19c-1.48-3.22-4.72-5.75-8.2-6.39-3.48-.64-8.41,1.3-9.73,3.48,2.81-1.26,6.54-1.44,9.54-.75,3,.69,5.83,1.95,8.39,3.66"/>
  <path class="cls-6" d="m712.67,416.93c1.38-2.38,1.59-5.4.56-7.94-1.03-2.55-3.03-3.8-5.67-4.56,2.7,3.92,4.83,7.9,5.03,12.65"/>
  <path class="cls-9" d="m658.29,493.69s-.45.42-1.16,1.25c-.71.83-1.67,2.11-2.61,3.82-1.73,3.48-3.29,8.78-3.74,14.75-.46,5.98.17,11.42.76,15.3.3,1.95.6,3.51.8,4.6.21,1.08.3,1.69.26,1.7-.04.01-.22-.58-.5-1.65-.28-1.07-.64-2.63-1-4.58-.71-3.88-1.42-9.37-.95-15.43.46-6.06,2.1-11.39,3.98-14.92,1.01-1.72,2.04-2.97,2.81-3.77.78-.8,1.32-1.12,1.34-1.09Z"/>
  <path class="cls-9" d="m705.55,535.11s-.11.02-.31.03c-.24,0-.54.02-.91.03-.84.01-2.01.03-3.5.05-3.08.02-7.46.05-12.86.09-10.9.02-25.88.05-42.43.08-16.32-.03-31.11-.06-41.92-.08l.2-.21c-.02,5.56-.04,10.07-.05,13.24-.02,1.53-.03,2.73-.04,3.6-.01.38-.02.69-.03.94,0,.21-.02.32-.03.32s-.02-.11-.03-.32c0-.24-.02-.55-.03-.94-.02-.87-.04-2.07-.07-3.6-.03-3.17-.08-7.68-.13-13.23v-.21s.2,0,.2,0c10.82-.02,25.61-.05,41.92-.08,16.55.03,31.53.06,42.43.08,5.4.04,9.78.07,12.86.09,1.49.02,2.66.04,3.5.05.37.01.67.02.91.03.2,0,.31.02.31.03Z"/>
  <g>
    <g>
      <g>
        <rect class="cls-9" x="139.85" y="237.34" width="4.98" height="48.1"/>
        <g>
          <rect class="cls-2" x="111.64" y="298.19" width="61.4" height="114.17"/>
          <rect class="cls-2" x="124.16" y="282.2" width="37.39" height="15.98"/>
        </g>
        <g>
          <rect class="cls-3" x="72.54" y="200.02" width="134.61" height="72.25"/>
          <path class="cls-9" d="m207.15,272.27s-.02-.46-.04-1.32c0-.89-.02-2.15-.04-3.79-.02-3.34-.05-8.21-.09-14.45-.04-12.51-.11-30.53-.19-52.7l.35.35c-35.69.03-82.93.07-134.6.11h0l.46-.46c-.01,25.52-.02,49.96-.03,72.25l-.43-.43c39.3.09,72.89.16,96.69.21,11.9.05,21.35.09,27.86.12,3.23.02,5.72.04,7.45.05.83.01,1.47.02,1.93.03.44,0,.67.03.67.03,0,0-.2.02-.62.03-.45,0-1.08.01-1.88.03-1.71.01-4.17.03-7.36.05-6.49.03-15.91.07-27.76.12-23.87.05-57.57.12-96.98.21h-.43s0-.43,0-.43c0-22.29-.02-46.73-.03-72.25v-.46s.46,0,.46,0h0c51.66.04,98.91.08,134.6.11h.35s0,.35,0,.35c-.08,22.26-.14,40.35-.19,52.91-.04,6.21-.07,11.05-.09,14.37-.02,1.61-.03,2.85-.04,3.72-.01.83-.04,1.24-.04,1.24Z"/>
        </g>
        <path class="cls-9" d="m172.77,298.19c0,.27-13.62.48-30.43.48s-30.43-.22-30.43-.48,13.62-.48,30.43-.48,30.43.22,30.43.48Z"/>
      </g>
      <rect class="cls-13" x="45.64" y="412.01" width="187.34" height="61.96"/>
      <polygon class="cls-13" points="52.44 604.79 65.97 473.97 84.12 473.97 62.99 604.86 52.44 604.79"/>
      <polygon class="cls-13" points="238.92 604.76 218.59 473.97 200.43 473.97 228.36 604.82 238.92 604.76"/>
      <rect class="cls-13" x="64.68" y="542.02" width="157.64" height="14.09"/>
      <path class="cls-9" d="m128.41,416.83c0,6.7,5.41,12.13,12.08,12.13s12.08-5.43,12.08-12.13h-24.17Z"/>
      <path class="cls-9" d="m232.47,473.83c0,.26-41.8.46-93.35.46s-93.36-.21-93.36-.46,41.79-.46,93.36-.46,93.35.21,93.35.46Z"/>
    </g>
    <path class="cls-9" d="m222.13,467.45s-.03-.32-.04-.92c-.01-.63-.03-1.51-.04-2.63-.02-2.34-.06-5.73-.1-10.07-.05-8.74-.13-21.36-.22-36.99l.41.32c-41.71.04-100.43.09-165.43.14-.54.41.71-.57.58-.46h0v6.6c0,2.19,0,4.38,0,6.55,0,4.34,0,8.63,0,12.87,0,8.47-.01,16.7-.02,24.6l-.57-.44c47.82.08,89.1.16,118.47.21,14.68.05,26.38.09,34.47.12,4,.02,7.1.04,9.25.06,1.03.01,1.82.02,2.41.03.54,0,.83.02.84.03.01,0-.25.02-.77.03-.57,0-1.34.02-2.34.03-2.13.01-5.19.03-9.13.06-8.06.03-19.72.07-34.34.12-29.47.05-70.89.12-118.86.21h-.57s0-.44,0-.44c0-7.91-.01-16.13-.02-24.6,0-4.23,0-8.53,0-12.87,0-2.17,0-4.35,0-6.55v-3.3s0-1.65,0-1.65v-1.63h0c-.13.08,1.13-.89.61-.48,65,.06,123.72.11,165.43.14h.42s0,.32,0,.32c-.09,15.72-.17,28.39-.22,37.18-.04,4.32-.08,7.68-.1,10-.02,1.1-.03,1.96-.04,2.58-.01.58-.04.85-.04.85Z"/>
  </g>
  <g>
    <g>
      <path class="cls-10" d="m440.79,113.71c-3.78-1.59-5.55-5.95-3.95-9.72,1.59-3.78,5.95-5.55,9.72-3.95,3.78,1.59,5.55,5.95,3.95,9.72-1.59,3.78-5.95,5.55-9.72,3.95Z"/>
      <path class="cls-9" d="m440.79,113.71c.03-.08.64.18,1.79.31,1.13.13,2.88.04,4.62-1,1.73-.99,3.35-3.12,3.45-5.78.17-2.61-1.43-5.6-4.27-6.76-2.82-1.22-6.07-.28-7.83,1.66-1.84,1.93-2.23,4.57-1.74,6.51.47,1.98,1.63,3.3,2.5,4.01.89.73,1.51.99,1.47,1.06-.01.04-.68-.1-1.69-.77-.99-.66-2.33-2-2.93-4.14-.63-2.09-.28-5.05,1.75-7.26,1.93-2.22,5.63-3.32,8.83-1.94,3.22,1.33,5.01,4.74,4.77,7.67-.17,2.99-2.05,5.31-3.98,6.32-1.96,1.06-3.85,1.04-5.01.79-1.19-.26-1.75-.64-1.73-.67Z"/>
    </g>
    <g>
      <path class="cls-10" d="m453.43,53.05c-9.16,28.69,6.67,59.37,35.35,68.54,28.69,9.16,59.37-6.67,68.54-35.35,9.16-28.69-6.67-59.37-35.35-68.54-28.69-9.16-59.37,6.67-68.54,35.35Z"/>
      <path class="cls-9" d="m453.43,53.05s.07-.29.25-.85c.21-.61.5-1.42.86-2.45.2-.54.41-1.15.65-1.81.27-.65.63-1.34.99-2.09.72-1.51,1.52-3.27,2.73-5.09,2.16-3.78,5.54-7.99,10.12-12.15,4.59-4.13,10.61-8.07,17.97-10.7,7.33-2.6,16.01-4.04,25.16-2.85,9.07,1.23,18.69,4.56,26.84,11.01,2.12,1.5,3.96,3.37,5.89,5.18,1.75,1.99,3.64,3.91,5.13,6.18,1.67,2.14,2.96,4.57,4.35,6.96,1.15,2.52,2.39,5.02,3.21,7.72,1.75,5.34,2.94,11.03,2.9,16.86.03,5.82-.83,11.72-2.58,17.44-1.89,5.68-4.6,10.98-8.01,15.71-3.35,4.78-7.62,8.73-12.14,12.06-2.23,1.73-4.7,3.05-7.1,4.43-2.52,1.14-4.97,2.37-7.58,3.15-2.53.98-5.19,1.46-7.76,2.06-2.63.36-5.21.81-7.81.81-10.38.53-20.16-2.34-28.26-6.59-8.14-4.33-14.38-10.54-18.84-16.91-4.47-6.42-7.09-13.11-8.44-19.14-1.32-6.04-1.63-11.43-1.2-15.76.06-2.18.44-4.08.72-5.73.15-.82.25-1.59.41-2.28.19-.67.36-1.29.52-1.85.3-1.05.54-1.88.72-2.5.17-.56.27-.84.29-.84.02,0-.04.3-.17.87-.15.63-.35,1.46-.61,2.52-.14.56-.29,1.18-.46,1.85-.14.69-.22,1.45-.35,2.27-.25,1.64-.58,3.53-.61,5.7-.35,4.3.03,9.62,1.39,15.58,1.4,5.94,4.04,12.52,8.48,18.8,4.44,6.24,10.61,12.31,18.62,16.52,7.97,4.14,17.58,6.91,27.74,6.36,2.54,0,5.08-.45,7.65-.81,2.52-.6,5.12-1.07,7.6-2.04,2.55-.77,4.95-1.98,7.41-3.1,2.34-1.36,4.75-2.66,6.94-4.35,4.41-3.27,8.59-7.14,11.86-11.81,3.32-4.62,5.97-9.82,7.83-15.37,1.71-5.6,2.55-11.36,2.53-17.05.04-5.7-1.12-11.28-2.82-16.5-.8-2.65-2.01-5.1-3.13-7.57-1.36-2.34-2.61-4.72-4.24-6.82-1.45-2.23-3.3-4.11-5.01-6.06-1.89-1.78-3.69-3.62-5.76-5.09-7.96-6.34-17.39-9.65-26.29-10.89-8.97-1.21-17.51.15-24.75,2.66-7.26,2.55-13.23,6.38-17.81,10.41-4.56,4.06-7.96,8.18-10.16,11.89-1.23,1.78-2.05,3.51-2.81,5-.37.74-.75,1.42-1.03,2.06-.25.65-.49,1.24-.7,1.77-.41,1.01-.73,1.81-.97,2.4-.23.54-.35.81-.37.81Z"/>
    </g>
  </g>
  <path class="cls-12" d="m522.47,66.26l-16.51-21.23-17.37,20.66c.11,0,3.95.07,9.01.15l-.35,28.41h16.01l.48-28.13c4.99.08,8.73.15,8.73.15Z"/>
  <path class="cls-14" d="m456.99,307.3l23.11,17.51,21.69-59.46,28.4,10.66s-11.85,68.97-16.04,82.97c-3.81,12.74-21.27,25.22-37.06,22.93-15.79-2.28-48.81-33.29-48.81-33.29l28.71-41.33Z"/>
  <path class="cls-14" d="m525.83,302.14s3.42-23.47,5.77-32.67c1.91-7.47.28-18.26.28-18.26,0,0,4.13-10.01-5.41-12.74,0,0-1.3-2.5-7.56-2.78,0,0,.19-2.29-4.94-3.56-.76-.19-1.57-.15-2.31.13l-1.9.73s-2.24-4.71-7.1-4.84c-6.82-.18-6.27,2.81-8.65,7.33-2.38,4.52-5.35,17.4-5.05,22.64.29,5.25,6.72,9.79,7.23,17.81.51,8.02-2.96,24.1-2.96,24.1l32.59,2.1Z"/>
  <rect class="cls-5" x="484.42" y="237.48" width="52.56" height="18.42" transform="translate(23.2 -43.16) rotate(4.95)"/>
  <path class="cls-5" d="m462.33,263.16l15.84,1.37c1.18.1,2.22-.77,2.33-1.95l3.24-37.41c.1-1.18-.77-2.22-1.95-2.33l-15.84-1.37c-1.18-.1-2.22.77-2.33,1.95-2.81,10.66-4.03,26.17-3.24,37.41-.1,1.18.77,2.22,1.95,2.33Z"/>
  <path class="cls-5" d="m489.44,235.81c-.28-.02-5.85-2.78-5.68-10.99l-15.51,1.98-2.98,34.41,15.22,1.36s1.42-7.63,5.31-8.8l6.6-10.18-2.96-7.78Z"/>
  <path class="cls-9" d="m483.76,224.82c.08.03-.17,1.06-.68,2.84s-1.27,4.3-2.2,7.29l.02-.09c-.19,2.59-.4,5.57-.58,8.73-.25,4.89-.59,9.37-.95,12.7v-.09c.35,1.99.61,3.61.78,4.73s.23,1.75.16,1.77c-.06.01-.25-.59-.52-1.7-.27-1.1-.64-2.7-1.07-4.68v-.04s0-.05,0-.05c.23-3.34.49-7.79.73-12.69.18-3.17.42-6.16.68-8.75v-.05s.02-.04.02-.04c1-2.97,1.87-5.45,2.5-7.19s1.04-2.72,1.12-2.7Z"/>
  <path class="cls-9" d="m480.52,234.83c-.02.24-4.26.07-9.47-.38-5.21-.45-9.41-1.01-9.39-1.25.02-.24,4.26-.07,9.47.38,5.21.45,9.41,1.01,9.39,1.25Z"/>
  <path class="cls-9" d="m479.04,256.26c-.02.24-4.4.06-9.78-.41-5.38-.47-9.73-1.04-9.71-1.28.02-.24,4.4-.06,9.78.41,5.38.47,9.73,1.04,9.71,1.28Z"/>
  <path class="cls-5" d="m560.69,230.01l-15.84-1.37c-1.18-.1-2.22.77-2.33,1.95l-3.24,37.41c-.1,1.18.77,2.22,1.95,2.33l15.84,1.37c1.18.1,2.22-.77,2.33-1.95,2.81-10.66,4.03-26.17,3.24-37.41.1-1.18-.77-2.22-1.95-2.33Z"/>
  <path class="cls-5" d="m533.57,257.36c.28.02,5.85,2.78,5.68,10.99l15.51-1.98,2.98-34.41-15.22-1.36s-1.62,7.95-5.51,9.13l-6.4,9.85,2.96,7.78Z"/>
  <path class="cls-9" d="m539.26,268.35c-.08-.03.17-1.06.68-2.84.51-1.78,1.27-4.3,2.2-7.29l-.02.09c.19-2.59.4-5.57.58-8.73.25-4.89.59-9.37.95-12.7v.09c-.35-1.99-.61-3.61-.78-4.73-.16-1.12-.23-1.75-.16-1.77.06-.01.25.59.52,1.7.27,1.1.64,2.7,1.07,4.68v.04s0,.05,0,.05c-.23,3.34-.49,7.79-.74,12.69-.18,3.17-.42,6.16-.68,8.75v.05s-.02.04-.02.04c-1,2.97-1.87,5.45-2.5,7.19s-1.04,2.72-1.12,2.7Z"/>
  <path class="cls-9" d="m542.5,258.34c.02-.24,4.26-.07,9.47.38,5.21.45,9.41,1.01,9.39,1.25-.02.24-4.26.07-9.47-.38-5.21-.45-9.41-1.01-9.39-1.25Z"/>
  <path class="cls-9" d="m543.98,236.91c.02-.24,4.4-.06,9.78.41,5.38.47,9.73,1.04,9.71,1.28-.02.24-4.4.06-9.78-.41-5.38-.47-9.73-1.04-9.71-1.28Z"/>
  <path class="cls-14" d="m490.31,261.25c-2.15-2.24-2.09-5.75-1.71-8.83.99-7.95,1.07-16.51,4.42-23.79,2.47-1.18,5.76.89,6.99,4.32,1.24,3.42-.11,9.93-.32,14.39,7.15,1.95,15.04,9.09,16.05,16.43"/>
  <path class="cls-11" d="m515.74,263.78c-.16.05-.29-2.55-2.64-6.08-1.15-1.75-2.83-3.7-5.09-5.5-2.24-1.81-5.08-3.52-8.43-4.47l-.31-.09v-.32c.13-2.55.52-5.19.71-7.94.14-2.71.39-5.72-1.3-8.05-.65-.94-1.51-1.73-2.49-2.19-.98-.47-2.09-.54-3-.12l.2-.21c-1.96,4.29-2.74,8.74-3.27,12.72-.52,4-.81,7.6-1.22,10.58-.45,2.96-.37,5.37.2,6.91.54,1.54,1.26,2.17,1.19,2.22-.02.02-.19-.13-.49-.46-.29-.33-.67-.87-.99-1.66-.68-1.57-.86-4.09-.47-7.08.33-2.98.56-6.58,1.03-10.61.49-4.02,1.24-8.55,3.24-12.99l.06-.14.14-.07c1.17-.56,2.6-.45,3.73.11,1.16.55,2.12,1.44,2.84,2.49.9,1.27,1.37,2.82,1.48,4.3.12,1.48.05,2.91-.05,4.31-.21,2.79-.61,5.43-.75,7.91l-.29-.4c3.49,1.03,6.38,2.83,8.64,4.72,2.28,1.89,3.95,3.93,5.07,5.76,1.12,1.83,1.73,3.44,1.98,4.58.17.56.18,1.01.23,1.3.04.3.04.45.02.46Z"/>
  <path class="cls-14" d="m526.3,246.23c.4.7.91,1.37,1.58,1.82.68.45,1.55.65,2.32.38,1.08-.38,1.67-1.52,2.08-2.59.48-1.27.87-2.6.9-3.96.03-1.36-.31-2.76-1.15-3.83-.84-1.07-2.23-1.75-3.57-1.56-1.35.19-2.55,1.36-2.59,2.72"/>
  <path class="cls-11" d="m525.86,239.2s-.15-.37.06-1c.21-.61.82-1.5,1.99-1.91,1.17-.42,2.78-.1,3.97,1,1.21,1.1,1.8,2.9,1.73,4.68-.08,1.81-.65,3.38-1.27,4.76-.34.69-.79,1.35-1.44,1.76-.64.42-1.41.47-2,.32-1.22-.31-1.86-1.14-2.2-1.66-.34-.54-.44-.88-.4-.91.06-.03.26.25.67.7.4.43,1.05,1.09,2.05,1.26.49.08,1.03,0,1.48-.32.46-.32.82-.86,1.11-1.49.54-1.3,1.06-2.85,1.13-4.45.06-1.59-.44-3.14-1.41-4.07-.96-.95-2.27-1.26-3.23-.99-.98.27-1.59.96-1.86,1.46-.28.52-.3.87-.37.87Z"/>
  <path class="cls-14" d="m526.18,238.1c.7,1.71.78,5.05.3,6.84-.29,1.06-.71,2.12-1.43,2.96-.72.83-1.8,1.42-2.91,1.32-1.1-.09-2.14-.99-2.2-2.09l-1.16-10.03"/>
  <path class="cls-11" d="m518.78,237.09c.12-.01.4,1.47.76,3.89.18,1.32.38,2.73.58,4.25.05.4.1.81.16,1.23l.08.63c.01.19.06.34.12.5.27.64,1,1.15,1.76,1.19.79.05,1.57-.32,2.15-.84.59-.52,1-1.22,1.29-1.93.62-1.43.75-2.83.78-4.04.07-2.41-.4-3.84-.3-3.88.12-.07.83,1.38.91,3.88.05,1.22-.02,2.79-.65,4.34-.31.78-.75,1.6-1.47,2.26-.7.64-1.68,1.14-2.78,1.08-1.1-.07-2.08-.75-2.5-1.73-.1-.24-.16-.52-.18-.76l-.07-.64c-.04-.42-.09-.83-.13-1.23-.14-1.52-.27-2.94-.4-4.26-.2-2.43-.27-3.94-.15-3.95Z"/>
  <path class="cls-14" d="m509.19,233.21c.15,3.19.75,6.36,1.79,9.38.47,1.35,1.03,2.69,1.89,3.83.86,1.14,2.06,2.08,3.45,2.41.77.18,1.63.16,2.29-.29.8-.54,1.11-1.57,1.16-2.54.22-3.84-.52-7.77-1.78-11.62"/>
  <path class="cls-11" d="m517.99,234.38c.05-.02.27.43.57,1.27.3.84.69,2.08,1.03,3.66.33,1.57.62,3.48.61,5.63-.02,1.02.05,2.32-.8,3.42-.41.55-1.11.9-1.78.97-.68.09-1.35-.04-1.97-.25-2.54-.94-3.89-3.28-4.64-5.24-.76-2.01-1.21-3.87-1.5-5.46-.28-1.59-.38-2.88-.41-3.78-.02-.9.02-1.39.08-1.4.14,0,.24,1.97.94,5.05.35,1.54.86,3.36,1.64,5.28.75,1.87,2.03,3.93,4.18,4.71,1.04.38,2.22.33,2.79-.43.62-.76.63-1.86.66-2.9.05-2.07-.16-3.95-.41-5.5-.53-3.12-1.14-5-1-5.05Z"/>
  <path class="cls-14" d="m500.57,231.77c.15,3.34.79,6.65,1.87,9.81.49,1.41,1.07,2.82,1.98,4.01.9,1.19,2.15,2.17,3.61,2.52.81.19,1.71.16,2.39-.3.83-.57,1.16-1.65,1.22-2.65.23-4.01-.54-8.13-1.86-12.16"/>
  <path class="cls-11" d="m509.77,232.99c.05-.02.28.45.59,1.34.31.88.72,2.18,1.07,3.83.35,1.65.64,3.64.64,5.89-.02,1.07.05,2.42-.83,3.57-.43.57-1.15.94-1.85,1.01-.71.09-1.4-.04-2.05-.26-2.65-.98-4.06-3.42-4.84-5.47-.8-2.1-1.27-4.05-1.57-5.71-.3-1.66-.4-3.02-.43-3.95-.03-.94.01-1.46.07-1.46.14,0,.24,2.06.97,5.29.37,1.61.9,3.52,1.71,5.53.79,1.96,2.13,4.12,4.39,4.95,1.09.4,2.34.34,2.94-.46.65-.8.67-1.96.69-3.04.05-2.17-.18-4.13-.44-5.76-.55-3.26-1.2-5.23-1.06-5.28Z"/>
  <path class="cls-9" d="m237.13,173.16c4.63-1.72,9.91-.57,14.89-1.03,9.36-.86,17-7.4,21.52-14.8,4.52-7.4,6.62-15.74,9.79-23.68,3.18-7.94,5.13-15.14,13.1-21.56,14.06-11.33,37.88-8.16,38.54,7.58l-9.64,12.77c5.87,21.28,3.92,44.24-5.48,64.5-1.86,4.02-4.26,8.18-8.5,10.3-4.24,2.12-10.74,1.05-12.28-3.07-5.37,5.43-10.95,10.93-18.11,14.31-7.16,3.38-16.35,4.25-23.15.34-6.8-3.91-9.44-13.42-3.93-18.73-8.16.31-16.99-2.17-21.56-8.22-4.57-6.06-2.75-15.89,4.8-18.71Z"/>
  <path class="cls-5" d="m342.78,112.32c-2.38-2.61-9.78-4.63-13.21-3.82-3.43.81-6.39,3.1-8.56,5.87-2.18,2.78-3.66,6.03-4.97,9.3-1.56,3.9-2.9,8.4-1.07,12.18,1.68,3.48,5.57,5.28,9.28,6.36,2.09.61,4.75.9,6.07-.83.59-.78.75-1.79.91-2.76,1.6-9.54,5.61-18.67,11.57-26.3Z"/>
  <path class="cls-9" d="m382.88,93.93c-12.56-2.18-23.63,2.62-34.26,9.66-10.63,7.05-18.65,17.71-23.31,29.58-4.9,12.5-6.14,26.59-2.45,39.51,3.68,12.92,12.48,24.5,24.43,30.63,16.32,8.37,37.25,5.55,51.92-5.46,14.67-11.01,23.1-29.27,23.87-47.59.53-12.63-2.44-25.55-9.46-36.06-7.02-10.51-18.25-18.38-30.74-20.27"/>
  <path class="cls-9" d="m346.97,136.54c1.86-4.8,1.16-10.18,1.91-15.27,1.64-11.22,5.83-21.39,16.31-25.73,9.75-4.03,26.52-1.89,38.22,1.94,8.03,2.63,15.57,7.18,20.9,13.73,7.08,8.69,9.54,20.94,6.36,31.69l-57.4-8.58c-5.39,4.43-10.92,8.93-17.45,11.39-1.92.72-3.98,1.26-6,.93-2.02-.33-3.98-1.71-4.45-3.7-.52-2.18.78-4.31,1.59-6.4Z"/>
  <path class="cls-14" d="m345.82,241.42l-.2-108.51c.11-4.86,3.92-8.83,8.77-9.13l50.18-10.43c15.97-1.01,25.71,19.02,26.04,35.02.36,17.77.1,39.49-2.56,52.63-5.36,26.42-25.88,28.93-25.88,28.93,0-.09-.02,1.02-.55,10.68,0,0-.72,19.97-23.07,17.66-14.55-1.5-32.72-16.84-32.72-16.84Z"/>
  <path class="cls-9" d="m423.19,171.53c-.01,1.8-1.55,3.28-3.44,3.3-1.88.02-3.4-1.42-3.39-3.23.01-1.8,1.55-3.28,3.43-3.3,1.88-.02,3.4,1.42,3.39,3.23Z"/>
  <path class="cls-9" d="m425.39,157.85c-.44.43-2.94-1.6-6.62-1.74-3.66-.2-6.44,1.57-6.82,1.11-.19-.21.28-.99,1.49-1.8,1.19-.8,3.2-1.54,5.48-1.44,2.29.11,4.17,1.03,5.24,1.94,1.09.91,1.44,1.73,1.22,1.93Z"/>
  <path class="cls-9" d="m390.97,169.09c-.01,1.8-1.55,3.28-3.43,3.3-1.88.02-3.4-1.42-3.39-3.22.01-1.8,1.55-3.28,3.43-3.3,1.88-.02,3.4,1.42,3.39,3.23Z"/>
  <path class="cls-9" d="m390.2,156.69c-.44.43-2.95-1.6-6.62-1.74-3.66-.2-6.44,1.57-6.82,1.11-.19-.21.27-.99,1.49-1.8,1.19-.8,3.19-1.55,5.48-1.44,2.29.11,4.17,1.03,5.24,1.94,1.09.91,1.44,1.73,1.22,1.92Z"/>
  <path class="cls-9" d="m401.48,186.38c0-.21,2.29-.51,6.01-.82.94-.06,1.84-.21,2.02-.84.25-.67-.1-1.69-.51-2.8-.78-2.31-1.61-4.72-2.47-7.26-3.42-10.32-5.85-18.8-5.43-18.93.42-.13,3.53,8.13,6.94,18.45.82,2.55,1.6,4.97,2.35,7.29.31,1.08.87,2.31.33,3.7-.28.69-.99,1.17-1.6,1.3-.61.16-1.14.15-1.6.15-3.73.04-6.04-.04-6.04-.25Z"/>
  <path class="cls-11" d="m402.17,229.92s-17.94.39-35.21-11.02c0,0,8.17,18.79,34.9,17.44l.32-6.42Z"/>
  <path class="cls-11" d="m399.55,195.16c-1.25-1.8-3.52-2.86-5.82-2.71-1.6.1-3.24.8-4.27,2.06-1.02,1.25-1.3,3.09-.48,4.36.93,1.44,2.99,1.84,4.76,1.42,1.77-.42,3.33-1.51,4.81-2.6.41-.3.83-.62,1.09-1.04.27-.42.34-.99.05-1.37"/>
  <path class="cls-9" d="m390.57,188.46c.6,0,.44,3.98,3.73,6.95,3.28,2.98,7.55,2.71,7.56,3.27.05.25-.98.73-2.77.71-1.76-.01-4.31-.69-6.32-2.51-2.01-1.82-2.8-4.17-2.87-5.82-.08-1.67.4-2.64.68-2.61Z"/>
  <path class="cls-9" d="m388.52,142.05c-.4.98-4.05.35-8.38.69-4.34.25-7.86,1.36-8.4.44-.24-.44.41-1.35,1.85-2.26,1.43-.91,3.69-1.73,6.29-1.91,2.6-.17,4.95.34,6.49,1.04,1.55.71,2.32,1.52,2.14,1.99Z"/>
  <path class="cls-9" d="m425.05,143.35c-.68.81-3.17-.17-6.21-.34-3.03-.28-5.64.32-6.19-.58-.24-.43.2-1.25,1.36-1.99,1.14-.74,3.02-1.3,5.11-1.15,2.09.16,3.86.99,4.89,1.89,1.04.9,1.35,1.78,1.05,2.17Z"/>
  <path class="cls-14" d="m351.27,177.79c.08-1.98-2.01-6.75-3.95-7.14-5.19-1.04-14.62-1.02-15.27,12.24-.89,18.13,17.49,15.28,17.55,14.77.04-.4,1.4-13.03,1.68-19.87Z"/>
  <path class="cls-11" d="m344.39,190.52c-.08-.06-.33.21-.87.42-.53.21-1.44.33-2.36-.07-1.88-.8-3.34-3.92-3.27-7.19.04-1.65.46-3.21,1.11-4.48.62-1.3,1.52-2.18,2.5-2.31.97-.18,1.62.44,1.82.96.22.52.08.88.18.91.05.05.4-.28.29-1.04-.06-.36-.25-.8-.66-1.17-.42-.37-1.05-.59-1.72-.55-1.4.03-2.72,1.25-3.44,2.65-.79,1.4-1.3,3.14-1.34,5-.06,3.66,1.64,7.17,4.22,8.06,1.26.39,2.34.06,2.91-.34.58-.42.7-.82.64-.86Z"/>
  <path class="cls-9" d="m416.23,112.55c-.64-2.42-3.7-3.12-6.19-3.27-17.88-1.05-35.66,3.13-52.75,8.49-5.78,1.81-11.71,3.87-16.17,7.97-5.98,5.51-8.44,14.03-8.34,22.15.1,8.13,1.67,14.73,4.01,22.52h7.41c2.48,2.1,4.98,4.23,6.87,6.87,1.89,2.64,3.13,5.89,2.76,9.11-.41,3.53-2.71,6.81-2.26,10.33.32,2.52,1.27,9.65,3.36,11.1l.47-7.86c.63-2.99,2.83-8.86,4.5-11.42,2.3-3.52,3.35-10.94,1.85-14.87-1.51-3.92-2.23-4.05-4.96-7.25-2.98-3.49-3.13-7.2-1.61-11.53,1.84-5.26,5.96-6.68,9.86-10.66,4.17-4.24,3.65-11.06,2.85-16.96,15.06,1.15,30.43-1.91,43.9-8.74,2.41-1.22,5.14-3.38,4.45-5.99Z"/>
  <path class="cls-2" d="m332.2,191.26s-.19-.14-.48-.46c-.3-.32-.7-.81-1.21-1.46-1-1.3-2.33-3.29-3.73-5.89-1.37-2.6-2.82-5.82-3.9-9.58-1.14-3.75-1.57-8.08-1.68-12.56-.13-8.99,1.03-17.09,2.39-22.81.7-2.86,1.47-5.12,2.1-6.64.3-.77.62-1.33.8-1.72.2-.39.31-.58.34-.57.07.03-.28.87-.83,2.4-.53,1.54-1.19,3.81-1.81,6.66-1.19,5.7-2.25,13.75-2.12,22.65.1,4.44.5,8.66,1.58,12.36,1.01,3.71,2.39,6.91,3.67,9.52,1.31,2.6,2.55,4.62,3.46,5.97.91,1.35,1.46,2.07,1.41,2.12Z"/>
  <path class="cls-9" d="m328.38,408.93s-48.24,36.41-23.54,105.97l-30.41,117.36c-19.31-2.15-37.34-3.78-51.64-3.94,0,0-8.3,46.62,5.22,63.12,0,0,47.76,1.9,76.35,2.74,30.57.89,57.41-41.7,74.29-77.7,16.88-35.99,37.14-91.26,46.52-106,9.38-14.75,27.99-55.93,27.99-55.93l-124.77-45.63Z"/>
  <path class="cls-9" d="m405.6,538.57c1.35-.03,22.11,11.62,58.83,4.43,36.72-7.19,65.07-13.83,65.07-13.83-1.48.85-9.7,15.67-12.34,29.21l62.89,5.96s11.87-47.61,14.36-68.81c2.48-21.2-13.45-40.59-37.68-43.67-24.24-3.07-100.07-16.58-100.07-16.58l-32.79,44.45-18.27,58.84Z"/>
  <path class="cls-14" d="m510.14,661.66s2.3-45.08,2.34-61.62c.07-27.27,4.68-41.66,4.68-41.66l62.89,5.96-28.97,101.38c-1.47,1.24-40.94-4.06-40.94-4.06Z"/>
  <path class="cls-2" d="m563.16,504.32c.05.03-.24.57-.81,1.53-.55.97-1.49,2.28-2.74,3.83-2.5,3.09-6.5,6.96-11.5,10.4-4.99,3.47-9.92,5.96-13.57,7.51-1.82.79-3.33,1.34-4.38,1.7-1.05.35-1.65.51-1.67.45-.05-.13,2.23-1.02,5.8-2.71,3.56-1.69,8.39-4.24,13.32-7.67,4.95-3.41,8.94-7.13,11.53-10.08,2.6-2.95,3.88-5.05,4.02-4.96Z"/>
  <path class="cls-2" d="m439.69,480.2c.05.03-.24.76-.81,2.06-.66,1.45-1.49,3.3-2.48,5.49-2.17,4.8-5.02,11.12-8.18,18.11-3.07,7.03-5.84,13.39-7.94,18.22-.96,2.21-1.77,4.06-2.41,5.52-.58,1.3-.93,2.01-.98,1.99-.06-.02.19-.77.67-2.11.48-1.34,1.22-3.26,2.15-5.63,1.87-4.74,4.57-11.23,7.72-18.34,3.15-7.1,6.16-13.46,8.42-18.02,1.13-2.28,2.06-4.12,2.73-5.38.67-1.26,1.06-1.94,1.12-1.91Z"/>
  <path class="cls-2" d="m282.31,661.44c-.11.04-.78-1.5-1.69-4.06-.91-2.56-2.02-6.14-3.01-10.17-.99-4.03-1.66-7.72-2.04-10.41-.38-2.69-.49-4.36-.38-4.38.13-.02.45,1.63.99,4.28.53,2.65,1.3,6.3,2.28,10.3.98,4,2,7.59,2.75,10.19.75,2.6,1.22,4.21,1.1,4.25Z"/>
  <polygon class="cls-2" points="284.46 593.52 304.38 646.28 318.46 631.33 292.45 562.69 284.46 593.52"/>
  <path class="cls-9" d="m497.41,698.32s3.4-17.3,5.86-26.76c0,0,3.21-7.91,5-10.3,1.79-2.39,45.58,4.3,45.59,4.54,0,.25,19.31,21.83,31.75,24.8,12.44,2.97,22.92,7.24,22.19,12.11-.73,4.87,8.61,8.86-18.13,7.97-26.74-.89-38.41-1.68-55.63-2.66-17.22-.97-33.78,1.48-35.77-4.1-1.99-5.58-.85-5.61-.85-5.61Z"/>
  <path class="cls-9" d="m534.23,703.09c5.96-12.51,13.04-24.48,21.12-35.74l12.25,10.36-17.61,27.53-4.7,5.09s-13.02-7.4-12.04-7.32"/>
  <path class="cls-2" d="m533.25,703.02c-.22,0,1.03.73,3.11,1.93,2.21,1.25,5.28,2.99,9.07,5.14l-.36.06c1.4-1.54,2.97-3.27,4.66-5.13l-.04.05c4.81-7.57,10.9-17.14,17.53-27.58l.09.57c-.46-.39-.95-.81-1.45-1.23-3.75-3.18-7.39-6.26-10.79-9.15l.62-.08c-7,9.7-12.32,18.64-15.88,25.1-1.79,3.23-3.15,5.85-4.09,7.64-.44.84-.8,1.52-1.08,2.06-.25.46-.39.7-.42.69-.02-.01.07-.27.28-.76.25-.56.57-1.26.95-2.12.85-1.84,2.15-4.49,3.87-7.77,3.44-6.55,8.69-15.57,15.67-25.34l.27-.37.35.3c3.41,2.88,7.05,5.95,10.81,9.12.5.42.99.84,1.45,1.23l.29.25-.21.32c-6.7,10.4-12.84,19.93-17.69,27.47l-.02.03-.02.02c-1.72,1.83-3.32,3.54-4.74,5.06l-.16.17-.2-.11c-3.84-2.24-6.89-4.07-8.95-5.37-1.03-.65-1.82-1.17-2.34-1.55-.26-.19-.45-.35-.57-.46-.05-.06-.11-.11-.11-.17.03-.04.08-.02.07-.02Z"/>
  <path class="cls-2" d="m531.01,703.07c-.19,0,.66-2.36-.6-5.86-.6-1.72-1.74-3.63-3.43-5.35-1.71-1.7-3.96-3.19-6.5-4.42-2.53-1.24-5.08-2.15-7.38-3.08-2.3-.92-4.33-1.79-6.1-2.3-3.56-.99-5.9-1.16-5.87-1.33,0-.06.59-.06,1.63.02,1.04.09,2.56.25,4.4.71,1.84.45,3.93,1.27,6.24,2.15,2.3.88,4.88,1.78,7.47,3.05,2.59,1.25,4.93,2.81,6.69,4.64,1.75,1.84,2.88,3.88,3.44,5.71.57,1.83.6,3.42.45,4.47-.15,1.06-.4,1.6-.44,1.58Z"/>
  <path class="cls-2" d="m584.13,690.21c.18.18-3.34,4.01-7.44,8.94-4.12,4.92-7.26,9.07-7.46,8.93-.1-.07.57-1.2,1.77-2.93,1.2-1.74,2.96-4.07,5.02-6.55,2.07-2.48,4.05-4.62,5.55-6.11,1.49-1.5,2.49-2.35,2.57-2.27Z"/>
  <path class="cls-8" d="m497.97,698.4s-1.54.04-2.45,2.73c-.91,2.69.06,7.51.26,9.54.2,2.03,2.7,6.5,11.26,6.89,8.56.39,38.65-1.21,49.3-1.34,10.65-.13,24.4.3,36-.73,11.61-1.03,15.35-2.66,16.54-5.06,1.2-2.4.79-8.49-1.18-7.97-1.97.52.5,3.74-3.53,5.1-4.03,1.36-7.66,1.93-16.64,1.39-8.98-.54-13.58.75-23.19-2.39-9.62-3.14-10.95-1.54-16.97-1.06-6.03.48-12.71-3.1-20.88-4.6-8.17-1.5-28.52-2.51-28.52-2.51Z"/>
  <path class="cls-14" d="m117.73,643.31s81.09-17.5,110-13.85c2.13.27.28,61.99.28,61.99l-112.86-8.71,2.58-39.43Z"/>
  <path class="cls-9" d="m104.29,619.82s15.91,7.59,24.46,12.33c0,0,6.86,5.08,8.73,7.4,1.87,2.33-15.5,43.08-15.74,43.02-.24-.06-25.94,13.27-31.92,24.58-5.97,11.31-12.72,20.4-17.25,18.48-4.54-1.92-10.72,6.13-3.21-19.54,7.51-25.68,11.19-36.78,16.41-53.22,5.22-16.44,6.97-33.09,12.87-33.63,5.9-.54,5.65.57,5.65.57Z"/>
  <path class="cls-9" d="m90.51,654.3c10.63,8.88,20.47,18.72,29.36,29.35l-13.09,9.29-22.28-23.91-3.76-5.82s10.4-10.77,10.09-9.84"/>
  <path class="cls-2" d="m90.82,653.37c.06-.21-.96.82-2.65,2.53-1.76,1.83-4.21,4.37-7.23,7.51l.04-.36c1.14,1.74,2.43,3.69,3.81,5.79l-.04-.05c6.13,6.55,13.89,14.82,22.35,23.84l-.57-.06c.49-.35,1.02-.72,1.55-1.1,4.01-2.84,7.91-5.6,11.54-8.18l-.08.61c-7.66-9.19-14.99-16.57-20.36-21.63-2.69-2.53-4.88-4.51-6.38-5.86-.7-.63-1.27-1.15-1.72-1.56-.39-.36-.58-.56-.57-.58.02-.02.24.14.66.46.48.38,1.08.86,1.82,1.45,1.57,1.28,3.82,3.2,6.56,5.68,5.49,4.97,12.92,12.29,20.64,21.48l.29.35-.37.27c-3.63,2.59-7.52,5.35-11.53,8.2-.53.38-1.06.75-1.55,1.1l-.31.22-.26-.28c-8.41-9.07-16.11-17.39-22.21-23.97l-.02-.02-.02-.02c-1.35-2.12-2.6-4.09-3.72-5.85l-.13-.2.16-.16c3.12-3.17,5.65-5.66,7.43-7.33.89-.84,1.59-1.47,2.08-1.88.25-.2.45-.35.59-.44.08-.04.13-.08.2-.06.03.04,0,.08,0,.07Z"/>
  <path class="cls-2" d="m91.33,651.19c.05-.19,2.13,1.22,5.82.88,1.81-.16,3.95-.78,6.03-1.99,2.08-1.23,4.08-3.04,5.89-5.19,1.83-2.15,3.35-4.39,4.82-6.38,1.47-1.99,2.81-3.75,3.75-5.34,1.85-3.2,2.59-5.42,2.75-5.36.05.02-.09.58-.43,1.58-.35.99-.88,2.42-1.78,4.09-.89,1.67-2.21,3.49-3.63,5.5-1.43,2-2.94,4.28-4.81,6.48-1.86,2.2-3.95,4.07-6.16,5.32-2.22,1.23-4.48,1.82-6.39,1.91-1.92.1-3.46-.27-4.44-.67-.99-.41-1.45-.79-1.43-.82Z"/>
  <path class="cls-2" d="m90.57,705.84c-.22.13-3.06-4.24-6.81-9.44-3.74-5.21-6.98-9.29-6.79-9.45.09-.08,1.02.85,2.4,2.45,1.38,1.6,3.21,3.88,5.1,6.49,1.88,2.62,3.47,5.07,4.54,6.89,1.08,1.82,1.66,2.99,1.56,3.05Z"/>
  <path class="cls-8" d="m104.08,620.35s.34-1.5-2.03-3.05c-2.38-1.55-7.29-1.81-9.31-2.12-2.01-.32-6.97,1-9.48,9.19-2.51,8.19-8.45,37.74-10.97,48.08-2.52,10.35-6.36,23.55-8.25,35.05-1.89,11.5-1.24,15.52.79,17.28,2.03,1.76,8.03,2.88,8.01.84-.02-2.04-3.75-.45-4.07-4.69-.32-4.24.04-7.9,2.79-16.46,2.76-8.57,2.65-13.33,8.08-21.87,5.43-8.53,4.21-10.22,5.25-16.18,1.04-5.96,6.16-11.54,9.65-19.08,3.49-7.54,9.53-27,9.53-27Z"/>
  <path class="cls-12" d="m405.24,243.83s52.48,35.87,60.19,55.27c7.71,19.4,2.78,48.4,1.43,56.17-1.35,7.77-6.25,17.69-4.75,36.22,1.5,18.52,1.83,72.14-7.77,79.61-9.61,7.46-40.4-7.22-66.25-9.66-25.84-2.44-90.57-.8-90.57-.8,0,0,1.49-32.34,35.75-60.6l11.36-25.68s-18.66-44.39-17.66-66.07c1-21.68,5.45-55.15,18.68-70.59,0,0,11.29-3.66,24.15-3.99,9.18-.23,35.46,10.12,35.46,10.12Z"/>
  <path class="cls-9" d="m420.81,393.52c-.01.06-.94-.11-2.58-.46-1.8-.38-4.16-.87-6.99-1.47-5.91-1.2-14.11-2.67-23.23-3.8-9.13-1.12-17.44-1.67-23.46-1.94-2.89-.11-5.3-.2-7.14-.27-1.69-.06-2.62-.12-2.62-.18,0-.06.93-.11,2.62-.16,1.69-.05,4.13-.06,7.15,0,6.04.11,14.39.57,23.55,1.69,9.16,1.13,17.37,2.7,23.25,4.06,2.94.68,5.31,1.28,6.94,1.74,1.63.45,2.52.73,2.5.79Z"/>
  <path class="cls-7" d="m393.06,500.25s4.59-49.75,1.15-69.77c-3.44-20.01-11.28-41.15-10.73-42.39.54-1.24,17.3-69.44,17.3-69.44l-26.46-2.21-24.43,84.4,43.18,99.41Z"/>
  <path class="cls-14" d="m329.14,306.98s1,66.2,1.97,77.44c.97,11.24,6.27,31.93,6.27,31.93l29.57,89.03,28.88-5.51s-11.31-82.33-16.14-97.56c-4.83-15.24-1.2-20.45,1.61-30.76,2.81-10.31,16.68-55.73,16.68-55.73,0,0-23.41-7.6-41.89-9.52-18.48-1.92-26.95.69-26.95.69Z"/>
  <rect class="cls-5" x="369.27" y="532.61" width="50.37" height="17.65" transform="translate(-13.63 10.2) rotate(-1.46)"/>
  <path class="cls-5" d="m349.15,522.85l15.23-.39c1.14-.03,2.08.87,2.11,2.01l.91,35.98c.03,1.14-.87,2.08-2.01,2.11l-15.23.39c-1.14.03-2.08-.87-2.11-2.01-2.06-10.36-2.33-25.27-.91-35.98-.03-1.14.87-2.08,2.01-2.11Z"/>
  <path class="cls-5" d="m373.49,550.6c-.26,0-5.76,2.32-6.08,10.18l-14.72-2.8-.84-33.09,14.64-.41s.92,7.38,4.57,8.73l5.72,10.12-3.29,7.27Z"/>
  <path class="cls-9" d="m367.41,560.78c-.08.02-.41-.95-.92-2.64-.51-1.7-1.19-4.12-1.98-7.02v-.04s-.01-.05-.01-.05c-.09-2.49-.16-5.36-.14-8.41.05-4.7.07-8.97.04-12.18v-.05s.01-.04.01-.04c1.06-3.73,1.78-6.03,1.9-6,.13.03-.37,2.4-1.27,6.17v-.09c.17,3.21.24,7.51.19,12.2-.02,3.04,0,5.9.04,8.38v-.09c.7,2.92,1.28,5.37,1.66,7.1.38,1.73.56,2.74.47,2.76Z"/>
  <path class="cls-9" d="m364.89,551.02c0,.24-4.05.54-9.06.67-5.01.13-9.07.04-9.08-.21,0-.24,4.05-.54,9.06-.67,5.01-.13,9.07-.04,9.08.21Z"/>
  <path class="cls-9" d="m364.73,530.43c0,.24-4.19.54-9.36.67-5.18.13-9.38.04-9.39-.2,0-.24,4.19-.54,9.36-.67,5.18-.13,9.38-.04,9.38.2Z"/>
  <path class="cls-5" d="m441.31,560.31l-15.23.39c-1.14.03-2.08-.87-2.11-2.01l-.91-35.98c-.03-1.14.87-2.08,2.01-2.11l15.23-.39c1.14-.03,2.08.87,2.11,2.01,2.06,10.36,2.33,25.27.91,35.98.03,1.14-.87,2.08-2.01,2.11Z"/>
  <path class="cls-5" d="m416.97,532.56c.26,0,5.76-2.32,6.08-10.18l14.72,2.8.84,33.09-14.64.41s-1.08-7.7-4.74-9.05l-5.55-9.8,3.29-7.27Z"/>
  <path class="cls-9" d="m423.04,522.38c.08-.02.41.95.92,2.64.51,1.7,1.19,4.12,1.98,7.02v.04s.01.05.01.05c.09,2.49.16,5.36.14,8.41-.05,4.7-.07,8.97-.04,12.18v.05s-.01.04-.01.04c-1.06,3.73-1.78,6.03-1.9,6-.13-.03.37-2.4,1.27-6.17v.09c-.17-3.21-.24-7.51-.19-12.2.02-3.04,0-5.9-.04-8.38v.09c-.7-2.92-1.28-5.37-1.66-7.1-.38-1.73-.56-2.74-.47-2.76Z"/>
  <path class="cls-9" d="m425.57,532.14c0-.24,4.05-.54,9.06-.67,5.01-.13,9.07-.04,9.08.21,0,.24-4.05.54-9.06.67-5.01.13-9.07.04-9.08-.21Z"/>
  <path class="cls-9" d="m425.72,552.73c0-.24,4.19-.54,9.36-.67,5.18-.13,9.38-.04,9.39.2,0,.24-4.19.54-9.36.67-5.18.13-9.38.04-9.38-.2Z"/>
  <path class="cls-12" d="m363.87,242.54c-19.02.48-33.62,21.22-36.24,48.69l-.64,21.26,73.78,6.17,1.1-22.84s8.27-54.45-38-53.28Z"/>
  <path class="cls-9" d="m363.87,242.54s.12-.02.36-.03c.28,0,.62-.01,1.07-.02.94.03,2.34-.11,4.15.1,3.59.22,9.03.96,15.04,4.13,2.95,1.64,5.96,3.96,8.58,7.08,2.64,3.1,4.78,7,6.36,11.38,1.61,4.38,2.59,9.27,3.07,14.43.47,5.17.46,10.63-.24,16.27v-.04c-.33,7.21-.7,14.88-1.07,22.85l-.02.44-.44-.04c-9.83-.82-20.27-1.69-31.02-2.58-15.07-1.27-29.53-2.49-42.76-3.6l-.39-.03v-.39c.21-6.37.41-12.51.59-18.38-.01-2.93.46-5.81.85-8.58.26-1.38.51-2.74.76-4.08.33-1.33.65-2.64.96-3.92,1.39-5.13,3.21-9.8,5.33-13.94,2.16-4.11,4.68-7.62,7.27-10.52,2.6-2.91,5.43-5,7.99-6.64,1.35-.7,2.58-1.4,3.78-1.88,1.23-.41,2.31-.91,3.34-1.13,1.03-.22,1.94-.42,2.74-.59.8-.11,1.48-.13,2.03-.18.52-.03.92-.06,1.24-.08.28-.01.42-.02.42,0,0,.01-.14.04-.42.07-.31.04-.72.09-1.23.15-.54.07-1.22.11-2.01.24-.79.19-1.69.41-2.7.65-1.02.24-2.08.75-3.28,1.18-1.18.49-2.39,1.21-3.71,1.91-2.51,1.65-5.28,3.75-7.82,6.64-2.53,2.89-4.99,6.37-7.1,10.46-2.07,4.1-3.84,8.75-5.2,13.83-.31,1.28-.62,2.58-.94,3.89-.24,1.33-.49,2.68-.74,4.05-.37,2.75-.83,5.56-.81,8.51-.17,5.87-.34,12-.52,18.36l-.38-.42c13.23,1.1,27.7,2.3,42.76,3.55,10.75.9,21.19,1.78,31.02,2.61l-.46.4c.39-7.96.77-15.63,1.13-22.84h0s0-.04,0-.04c1.32-11.09.36-21.69-2.67-30.36-1.54-4.33-3.61-8.18-6.18-11.23-2.54-3.08-5.48-5.38-8.37-7.03-5.89-3.18-11.26-3.99-14.83-4.29-1.8-.24-3.19-.15-4.13-.22-.44-.02-.79-.03-1.07-.04-.24-.01-.36-.03-.36-.04Z"/>
  <path class="cls-14" d="m364.26,497.27s5.17,22.13,6.3,31.16c.92,7.34,6.15,16.39,6.15,16.39,0,0-.18,10.37,9.28,9.47,0,0,2.03,1.77,7.72-.17,0,0,.71,1.81,6.85.62l4.35-2.25s-1,3.85,5.35,2.33c6.36-1.52,5.18-4.36,5.72-9.23.54-4.87-1.32-17.39-3.43-21.97-2.1-4.58-9.43-6.38-12.69-13.35-3.27-6.98-5.81-22.54-5.81-22.54l-29.81,9.55Z"/>
  <path class="cls-11" d="m388.5,545.67c.23.02.22,2.1-.54,4.52-.75,2.43-1.91,4.15-2.11,4.03-.22-.12.56-1.96,1.28-4.29.73-2.33,1.13-4.29,1.37-4.26Z"/>
  <path class="cls-11" d="m398.05,544.72c.22.05-.2,2.58-1.56,5.41-1.35,2.83-3.06,4.74-3.24,4.6-.2-.15,1.15-2.23,2.45-4.98,1.32-2.73,2.1-5.09,2.35-5.03Z"/>
  <path class="cls-11" d="m406.78,544.47c.24.05.01,1.94-.5,4.22-.51,2.28-1.12,4.08-1.35,4.03-.23-.05-.01-1.94.5-4.22.51-2.28,1.12-4.08,1.35-4.03Z"/>
</svg>