<?xml version="1.0" encoding="UTF-8"?>
<svg id="Capa_1" data-name="Capa 1" xmlns="http://www.w3.org/2000/svg" viewBox="0 0 773.12 466.93">
  <defs>
    <style>
      .cls-1 {
        fill: #375a64;
      }

      .cls-1, .cls-2, .cls-3, .cls-4, .cls-5, .cls-6, .cls-7, .cls-8, .cls-9, .cls-10, .cls-11, .cls-12, .cls-13, .cls-14, .cls-15 {
        stroke-width: 0px;
      }

      .cls-2 {
        fill: #e1e1e1;
      }

      .cls-3 {
        fill: #ececec;
      }

      .cls-4 {
        fill: #04c4d9;
      }

      .cls-5 {
        fill: #aa6550;
      }

      .cls-7 {
        fill: #f5f5f5;
      }

      .cls-8 {
        fill: #1a2e35;
      }

      .cls-9 {
        fill: #fff;
      }

      .cls-16 {
        opacity: .3;
      }

      .cls-10 {
        fill: #ff9c6a;
      }

      .cls-11 {
        fill: #fafafa;
      }

      .cls-12 {
        fill: #e8505b;
      }

      .cls-13 {
        fill: #191f40;
      }

      .cls-14 {
        fill: #b78876;
      }

      .cls-15 {
        fill: #ffc19d;
      }
    </style>
  </defs>
  <g>
    <path class="cls-7" d="m668.27,463.13c-27.67-16.95-35.77-51.02-36.59-82.03-.14-5.18-1.03-10.59,1.15-15.27,2.19-4.68,7.73-8.12,12.49-6.23,3.95,1.57,5.89,5.94,8.26,9.5,3.15,4.74,7.65,8.55,12.82,10.84,3.39,1.51,7.53,2.31,10.67.32,4.31-2.73,4.46-8.92,4.12-14.05-.64-9.57-1.28-19.15-1.91-28.72-.34-5.14-.67-10.38.63-15.36,1.3-4.97,4.56-9.72,9.37-11.38,4.81-1.66,11.02.79,12.36,5.76.56,2.07.26,4.27.53,6.39.27,2.12,1.41,4.42,3.47,4.9,2.09.48,4.06-1.1,5.5-2.7,4.99-5.51,8.19-12.41,11.15-19.26,2.96-6.85,5.82-13.85,10.29-19.8,4.47-5.95,10.86-10.84,18.19-11.7,7.34-.86,15.45,3.21,17.75,10.32,2.3,7.13-1.48,14.74-5.73,20.88-6.3,9.11-13.91,17.29-22.51,24.21-1.55,1.25-3.23,2.6-3.74,4.54-.91,3.49,2.54,6.7,5.99,7.62,3.91,1.04,8.04.4,12.07.63,4.04.23,8.48,1.74,10.23,5.43,2.42,5.13-1.64,10.9-5.74,14.76-8.22,7.74-17.76,14.04-28.07,18.54-3.7,1.61-7.6,3.06-10.49,5.9-2.89,2.84-4.45,7.57-2.39,11.08,2.06,3.51,6.86,4.39,10.77,3.41,3.91-.97,7.33-3.34,11.02-4.99,6.9-3.09,16.05-3.16,20.94,2.67,3.21,3.83,3.81,9.4,2.6,14.28-1.21,4.87-4.02,9.18-7.02,13.17-10.52,13.96-24.36,25.53-40.4,32.2-16.04,6.67-31.12,9.12-47.76,4.15"/>
    <path class="cls-2" d="m675.09,443.24c3.61-15.9,9.02-32.99,15.29-50.68,1.58-4.42,3.15-8.78,4.69-13.08,1.55-4.29,3.08-8.54,4.84-12.61,3.48-8.15,7.45-15.72,11.45-22.79,3.99-7.07,8.04-13.64,11.87-19.75,3.84-6.11,7.53-11.73,11.11-16.71,7.13-10,13.83-17.36,18.63-22.23,2.4-2.44,4.32-4.28,5.64-5.5.64-.58,1.13-1.04,1.51-1.39.34-.31.52-.46.54-.45.01.01-.15.19-.47.52-.36.36-.84.84-1.44,1.45-1.27,1.27-3.15,3.15-5.51,5.63-4.71,4.94-11.31,12.35-18.35,22.37-3.54,4.99-7.18,10.63-10.99,16.74-3.8,6.13-7.81,12.7-11.77,19.77-3.96,7.06-7.9,14.62-11.35,22.73-1.74,4.05-3.26,8.26-4.81,12.56-1.54,4.3-3.1,8.66-4.68,13.07-6.26,17.67-11.68,34.72-15.33,50.55"/>
    <path class="cls-2" d="m700.17,366.83c-.06.01-.28-.76-.63-2.16-.36-1.4-.8-3.45-1.32-5.99-1.04-5.07-2.23-12.13-3.51-19.91-1.28-7.79-2.57-14.8-3.68-19.85-.55-2.52-1.01-4.56-1.35-5.96-.33-1.41-.48-2.19-.42-2.21.06-.02.34.73.78,2.11.45,1.38,1.01,3.4,1.65,5.91,1.28,5.02,2.68,12.05,3.96,19.84,1.25,7.68,2.37,14.63,3.24,19.94.4,2.4.75,4.42,1.02,6.04.24,1.43.34,2.22.27,2.24Z"/>
    <path class="cls-2" d="m765.5,350.49c0,.07-.93.23-2.62.47-1.69.25-4.13.61-7.13,1.14-6.01,1.02-14.27,2.72-23.29,4.99-9.02,2.29-17.1,4.71-22.9,6.62-2.9.94-5.23,1.76-6.85,2.32-1.61.57-2.51.85-2.54.79-.02-.06.83-.46,2.41-1.14,1.58-.67,3.88-1.59,6.76-2.61,5.75-2.09,13.83-4.62,22.88-6.91,9.05-2.28,17.36-3.88,23.42-4.73,3.03-.45,5.49-.7,7.19-.84,1.71-.13,2.65-.17,2.66-.1Z"/>
    <path class="cls-2" d="m675.83,441.98s-.2-.25-.5-.78c-.34-.63-.76-1.39-1.27-2.32-1.1-2.02-2.61-4.99-4.43-8.68-3.64-7.38-8.36-17.72-13.4-29.21-5.05-11.49-9.66-21.87-13.15-29.31-1.71-3.62-3.11-6.59-4.15-8.8-.45-.96-.82-1.75-1.12-2.4-.25-.55-.36-.85-.33-.87.03-.01.2.25.5.78.34.63.76,1.39,1.27,2.32,1.1,2.02,2.61,4.99,4.43,8.68,3.64,7.38,8.36,17.72,13.41,29.22,5.05,11.49,9.66,21.87,13.14,29.31,1.71,3.61,3.11,6.59,4.15,8.8.45.96.82,1.75,1.12,2.4.25.55.36.85.33.87Z"/>
    <path class="cls-2" d="m761.91,408.39s-.28.17-.85.41c-.67.27-1.5.6-2.5,1.01-2.31.91-5.43,2.13-9.22,3.61-7.78,3.05-18.48,7.39-30.3,12.21-11.82,4.82-22.57,9.06-30.42,11.95-3.92,1.45-7.11,2.59-9.33,3.33-1.03.34-1.87.61-2.56.84-.59.18-.9.26-.91.23-.01-.03.28-.17.85-.41.67-.27,1.5-.6,2.5-1.01,2.31-.91,5.42-2.13,9.22-3.61,7.78-3.05,18.48-7.39,30.3-12.21,11.82-4.81,22.57-9.06,30.41-11.95,3.92-1.45,7.11-2.59,9.33-3.33,1.03-.34,1.87-.62,2.56-.84.59-.18.9-.26.91-.23Z"/>
  </g>
  <g>
    <path class="cls-7" d="m682,110.87c-4.72,11.81-12.28,30.92-15.74,39.69-1.02,2.59.24,5.51,2.83,6.54l32.28,12.86c2.59,1.03,5.53-.23,6.56-2.82l15.66-39.32c2.29-5.75-.51-12.27-6.26-14.56h0l2.3-5.78-21.14-8.42-2.18,5.47-.08-.03c-5.69-2.06-11.98.76-14.23,6.38Z"/>
    <polygon class="cls-2" points="698.19 99.79 697.15 102.42 717.99 111.59 719.33 108.21 698.19 99.79"/>
    <path class="cls-3" d="m699.18,94.81h22.09c1.65,0,2.99,1.34,2.99,2.99v6.37c0,1.07-.87,1.93-1.93,1.93h-24.21c-1.07,0-1.93-.87-1.93-1.93v-6.37c0-1.65,1.34-2.99,2.99-2.99Z" transform="translate(87.58 -255.67) rotate(21.72)"/>
    <path class="cls-2" d="m698.42,101.88c-.15-.06.65-2.45,1.8-5.33,1.15-2.89,2.2-5.17,2.36-5.11.15.06-.65,2.45-1.8,5.33-1.15,2.88-2.2,5.17-2.36,5.11Z"/>
    <path class="cls-2" d="m701.2,102.99c-.15-.06.65-2.45,1.8-5.33,1.15-2.89,2.2-5.17,2.36-5.11.15.06-.65,2.45-1.8,5.33-1.15,2.88-2.2,5.17-2.36,5.11Z"/>
    <path class="cls-2" d="m703.99,104.1c-.15-.06.65-2.45,1.8-5.33,1.15-2.89,2.2-5.17,2.36-5.11.15.06-.65,2.45-1.8,5.33-1.15,2.88-2.2,5.17-2.36,5.11Z"/>
    <path class="cls-2" d="m706.77,105.21c-.15-.06.65-2.45,1.8-5.33,1.15-2.89,2.2-5.17,2.36-5.11.15.06-.65,2.45-1.8,5.33-1.15,2.88-2.2,5.17-2.36,5.11Z"/>
    <path class="cls-2" d="m709.56,106.32c-.15-.06.65-2.45,1.8-5.33,1.15-2.89,2.2-5.17,2.36-5.11.15.06-.65,2.45-1.8,5.33-1.15,2.88-2.2,5.17-2.36,5.11Z"/>
    <path class="cls-2" d="m712.35,107.43c-.15-.06.65-2.45,1.8-5.33,1.15-2.89,2.2-5.17,2.36-5.11s-.65,2.45-1.8,5.33c-1.15,2.88-2.2,5.17-2.36,5.11Z"/>
    <path class="cls-2" d="m715.13,108.54c-.15-.06.65-2.45,1.8-5.33,1.15-2.89,2.2-5.17,2.36-5.11s-.65,2.45-1.8,5.33c-1.15,2.88-2.2,5.17-2.36,5.11Z"/>
    <path class="cls-2" d="m717.92,109.65c-.15-.06.65-2.45,1.8-5.33,1.15-2.89,2.2-5.17,2.36-5.11.15.06-.65,2.45-1.8,5.33-1.15,2.88-2.2,5.17-2.36,5.11Z"/>
    <g>
      <rect class="cls-3" x="680.49" y="124.18" width="32.6" height="21.57" rx="1.48" ry="1.48" transform="translate(99.39 -248.25) rotate(21.72)"/>
      <path class="cls-2" d="m706.47,148.83s.03-.13.11-.34c.09-.25.21-.56.35-.94.33-.86.78-2.05,1.34-3.54,1.19-3.07,2.87-7.4,4.91-12.65l.13.31c-7.32-2.9-16.55-6.55-26.57-10.52-.09.03.73-.32.38-.17h0s0,.01,0,.01v.02s-.02.04-.02.04l-.03.07-.06.14-.12.29-.23.58-.46,1.15c-.3.76-.61,1.52-.91,2.27-.6,1.5-1.19,2.99-1.77,4.44-1.16,2.91-2.29,5.71-3.35,8.37l-.15-.36c7.72,3.13,14.3,5.8,19,7.71,2.3.95,4.14,1.71,5.47,2.26.6.25,1.09.46,1.46.62.33.15.51.23.52.24s-.16-.04-.48-.16c-.37-.14-.85-.32-1.44-.54-1.32-.51-3.16-1.21-5.46-2.1-4.77-1.86-11.44-4.47-19.27-7.53l-.26-.1.1-.26c1.06-2.67,2.17-5.47,3.32-8.38.58-1.46,1.17-2.94,1.76-4.44.3-.75.6-1.51.9-2.27l.46-1.15.23-.58.12-.29.06-.14.03-.07v-.04s.02-.02.02-.02h0s0-.01,0-.01c-.35.15.47-.21.39-.17,10,4.01,19.22,7.7,26.52,10.63l.22.09-.09.22c-2.16,5.28-3.93,9.62-5.19,12.7-.6,1.45-1.09,2.6-1.44,3.44-.15.36-.28.65-.38.88-.09.2-.13.29-.14.28Z"/>
      <path class="cls-2" d="m707.05,135.43c-.06.15-4.15-1.33-9.13-3.32-4.98-1.98-8.97-3.72-8.91-3.87.06-.15,4.15,1.33,9.13,3.32,4.98,1.98,8.97,3.72,8.91,3.87Z"/>
      <path class="cls-2" d="m705.82,138.5c-.06.15-4.15-1.33-9.13-3.32-4.98-1.98-8.97-3.72-8.91-3.87s4.15,1.33,9.13,3.32c4.98,1.98,8.97,3.72,8.91,3.87Z"/>
      <path class="cls-2" d="m704.65,141.45c-.06.15-4.15-1.33-9.13-3.32-4.98-1.98-8.97-3.72-8.91-3.87.06-.15,4.15,1.33,9.13,3.32,4.98,1.98,8.97,3.72,8.91,3.87Z"/>
    </g>
    <path class="cls-2" d="m716.19,112.59c-.06.15-4.52-1.48-9.96-3.64-5.44-2.17-9.8-4.05-9.74-4.2s4.52,1.48,9.96,3.64c5.44,2.17,9.8,4.05,9.73,4.2Z"/>
    <path class="cls-9" d="m668.91,148.98s.19-.69.64-1.9c.5-1.3,1.15-3.02,1.95-5.1,1.67-4.3,4.01-10.22,6.64-16.75,1.32-3.26,2.57-6.36,3.72-9.2,1.14-2.82,2.46-5.35,4.19-6.98,1.71-1.64,3.58-2.34,4.88-2.49.65-.09,1.16-.04,1.5,0,.34.06.51.1.51.12,0,.06-.72-.1-1.98.11-1.24.21-3.01.95-4.61,2.56-1.62,1.6-2.87,4.06-3.98,6.88-1.13,2.84-2.37,5.95-3.68,9.21-2.62,6.53-5.03,12.43-6.8,16.69-.87,2.06-1.58,3.75-2.12,5.03-.51,1.18-.82,1.83-.85,1.82Z"/>
    <path class="cls-9" d="m705.18,169.74s-.48-.34-1.27-1.03c-.39-.35-.87-.77-1.46-1.23-.58-.46-1.22-1.02-1.99-1.56-1.49-1.13-3.34-2.37-5.47-3.62-2.15-1.22-4.57-2.44-7.22-3.51-2.65-1.04-5.26-1.83-7.66-2.41-2.41-.55-4.6-.93-6.46-1.13-.93-.13-1.77-.17-2.51-.24-.74-.07-1.38-.1-1.9-.11-1.05-.04-1.63-.09-1.63-.13,0-.04.58-.08,1.63-.11.53-.02,1.17-.03,1.92.01.75.03,1.6.04,2.54.15,1.88.15,4.11.48,6.54,1.01,2.43.56,5.07,1.34,7.75,2.39,2.67,1.08,5.12,2.33,7.27,3.59,2.13,1.29,3.98,2.58,5.45,3.76.75.57,1.38,1.15,1.95,1.64.57.48,1.03.93,1.4,1.31.74.74,1.14,1.17,1.11,1.2Z"/>
  </g>
  <g>
    <rect class="cls-2" x="35.75" y="175.3" width="104.11" height="143.02" rx="2.41" ry="2.41" transform="translate(-98.36 62.51) rotate(-25.7)"/>
    <rect class="cls-11" x="40.74" y="178.54" width="92.49" height="133.12" transform="translate(-97.7 61.98) rotate(-25.7)"/>
    <path class="cls-3" d="m75.94,178.78c-3.4-2.62-7.99-3.1-11.85-1.24l-2.55-5.07c-1.86-3.87-6.52-5.5-10.39-3.64h0c-3.87,1.86-5.5,6.52-3.64,10.39l2.56,5.32-1.77.89c-3.78,1.9-6.19,5.75-6.25,9.98l-.04,2.64,36.28-17.46-2.34-1.81Zm-19.36.83c-2.09,1-4.59.13-5.59-1.96-1-2.09-.13-4.59,1.96-5.59,2.09-1,4.59-.13,5.59,1.96,1,2.09.13,4.59-1.96,5.59Z"/>
    <path class="cls-2" d="m55.52,207.31c.07.15-4.93,2.7-11.17,5.71-6.24,3-11.36,5.32-11.43,5.17-.07-.15,4.93-2.7,11.17-5.71,6.24-3,11.36-5.32,11.43-5.17Z"/>
    <path class="cls-2" d="m45.65,216.75c.07.15-2.31,1.44-5.32,2.89-3.01,1.45-5.5,2.5-5.57,2.35-.07-.15,2.31-1.44,5.32-2.89,3.01-1.45,5.5-2.5,5.57-2.35Z"/>
    <path class="cls-2" d="m103.84,201.82c.07.15-13.95,7.05-31.31,15.4-17.37,8.36-31.5,15.02-31.58,14.87-.07-.15,13.95-7.04,31.32-15.41,17.36-8.36,31.5-15.01,31.57-14.87Z"/>
    <path class="cls-2" d="m106.73,207.81c.07.15-13.95,7.05-31.31,15.4-17.37,8.36-31.5,15.02-31.58,14.87-.07-.15,13.95-7.04,31.32-15.41,17.36-8.36,31.5-15.01,31.57-14.87Z"/>
    <path class="cls-2" d="m109.62,213.81c.07.15-13.95,7.05-31.31,15.4-17.37,8.36-31.5,15.02-31.58,14.87-.07-.15,13.95-7.04,31.32-15.41,17.36-8.36,31.5-15.01,31.57-14.87Z"/>
    <path class="cls-2" d="m112.5,219.81c.07.15-13.95,7.05-31.31,15.4-17.37,8.36-31.5,15.02-31.58,14.87-.07-.15,13.95-7.04,31.32-15.41,17.36-8.36,31.5-15.01,31.57-14.87Z"/>
    <path class="cls-2" d="m115.39,225.8c.07.15-13.95,7.05-31.31,15.4-17.37,8.36-31.5,15.02-31.58,14.87-.07-.15,13.95-7.04,31.32-15.41,17.36-8.36,31.5-15.01,31.57-14.87Z"/>
    <path class="cls-2" d="m118.28,231.8c.07.15-13.95,7.05-31.31,15.4-17.37,8.36-31.5,15.02-31.58,14.87-.07-.15,13.95-7.04,31.32-15.41,17.36-8.36,31.5-15.01,31.57-14.87Z"/>
    <path class="cls-2" d="m89.44,252.34s-.4.28-1.19.7c-.9.46-2.01,1.03-3.33,1.71-2.82,1.42-6.74,3.34-11.08,5.43-4.34,2.09-8.29,3.95-11.16,5.27-1.35.61-2.49,1.12-3.41,1.54-.81.35-1.27.53-1.29.49-.02-.04.4-.28,1.18-.7.9-.46,2.01-1.03,3.33-1.71,2.82-1.42,6.74-3.34,11.08-5.43,4.34-2.09,8.29-3.95,11.15-5.27,1.35-.61,2.49-1.12,3.41-1.54.81-.35,1.27-.53,1.29-.49Z"/>
    <path class="cls-2" d="m99.36,185.53c.07.15-2.13,1.35-4.91,2.69-2.78,1.34-5.09,2.3-5.17,2.16-.07-.15,2.13-1.35,4.91-2.69,2.78-1.34,5.09-2.3,5.17-2.16Z"/>
    <path class="cls-2" d="m81.43,272.29c.07.15-3.53,2.03-8.04,4.2-4.51,2.17-8.23,3.81-8.3,3.66-.07-.15,3.53-2.03,8.04-4.2,4.51-2.17,8.22-3.81,8.3-3.66Z"/>
    <path class="cls-2" d="m84.6,277.47c.07.15-3.59,2.06-8.17,4.27-4.59,2.21-8.36,3.88-8.43,3.73-.07-.15,3.59-2.06,8.17-4.27,4.59-2.21,8.36-3.88,8.43-3.73Z"/>
    <path class="cls-2" d="m128.41,248.67c.07.15-1.64,1.12-3.82,2.17-2.18,1.05-4.01,1.78-4.08,1.63-.07-.15,1.64-1.12,3.82-2.17,2.18-1.05,4.01-1.78,4.08-1.63Z"/>
    <path class="cls-2" d="m131.04,253.44c.07.15-1.64,1.12-3.82,2.17-2.18,1.05-4.01,1.78-4.08,1.63s1.64-1.12,3.82-2.17c2.18-1.05,4.01-1.78,4.08-1.63Z"/>
    <path class="cls-2" d="m79.73,286.86c.07.15-1.58,1.09-3.68,2.1-2.11,1.01-3.87,1.71-3.94,1.57-.07-.15,1.58-1.09,3.68-2.1,2.1-1.01,3.87-1.71,3.94-1.57Z"/>
    <path class="cls-2" d="m134.07,259.03c.07.15-1.15.89-2.73,1.65-1.58.76-2.92,1.26-2.99,1.11-.07-.15,1.15-.89,2.73-1.65,1.58-.76,2.92-1.26,2.99-1.11Z"/>
    <path class="cls-2" d="m77.82,303.68s.1-.09.32-.24c.26-.17.58-.38.97-.64.91-.58,2.15-1.38,3.71-2.38,3.27-2.05,7.84-4.93,13.32-8.36l.26-.16.11.29c.6,1.53.71,3.35.15,5.05-.52,1.7-1.83,3.3-3.67,3.97-1.79.67-3.99.58-5.68-.64-1.71-1.21-2.41-3.54-1.9-5.59.19-.77.56-1.5,1.1-2.08.13-.15.27-.29.43-.41.15-.13.3-.26.52-.36.2-.1.55-.14.8.03.24.15.36.35.45.53.71,1.33,1.09,2.8,1.17,4.24.08,1.45-.15,2.89-.66,4.2-.49,1.29-1.27,2.53-2.47,3.27-1.2.77-2.79.61-3.87-.09-1.11-.69-1.9-1.73-2.3-2.88-.75-2.32-.28-4.56.04-6.47l.07-.44.29.33c1.37,1.54,2,3.36,2.19,4.95.2,1.6-.05,3-.38,4.07-.35,1.08-.82,1.83-1.15,2.31-.17.24-.33.4-.43.52-.1.11-.15.17-.16.16-.08-.04.88-.93,1.52-3.06.29-1.05.5-2.41.27-3.96-.21-1.53-.85-3.26-2.16-4.7l.36-.11c-.29,1.92-.7,4.11.01,6.24.37,1.03,1.11,1.99,2.1,2.59.98.61,2.29.73,3.32.07,1.03-.64,1.76-1.78,2.22-3,.47-1.23.68-2.59.6-3.96-.07-1.37-.44-2.75-1.1-3.99-.08-.14-.17-.26-.24-.3-.07-.04-.13-.04-.25,0-.23.12-.54.38-.75.62-.46.51-.79,1.14-.96,1.82-.46,1.83.18,3.92,1.67,4.96,1.48,1.08,3.5,1.18,5.12.58,1.66-.6,2.85-2.03,3.35-3.61.53-1.57.44-3.27-.1-4.69l.38.12c-5.52,3.36-10.13,6.17-13.43,8.18-1.59.95-2.86,1.7-3.78,2.26-.41.23-.74.42-1.01.58-.23.13-.35.19-.36.17Z"/>
    <path class="cls-2" d="m137.38,274.76s-.01.39-.19,1.08c-.1.34-.24.77-.52,1.22-.28.44-.76.9-1.44,1.1-.34.1-.74.11-1.12-.04-.38-.14-.7-.42-.95-.74-.5-.66-.84-1.41-1.29-2.19-.86-1.58-1.82-3.32-2.85-5.2l.52-.12c-.09,2.63-.19,5.5-.3,8.51-.03.72-.05,1.42-.08,2.12l-.05,1.19-.52-1.07c-1.57-3.22-3.03-6.23-4.31-8.86l.48-.05c-.89,3.23-1.08,6.05-1.09,8,0,1.96.13,3.07.07,3.08-.03,0-.09-.27-.17-.79-.07-.52-.16-1.29-.2-2.28-.08-1.97.04-4.83.9-8.14l.17-.66.3.61c1.3,2.61,2.79,5.61,4.38,8.82l-.56.12c.03-.7.05-1.4.08-2.12.12-3.01.24-5.88.34-8.51l.04-1.03.48.91c1,1.89,1.93,3.65,2.77,5.25.43.78.77,1.57,1.2,2.16.42.61,1.08.87,1.66.7,1.21-.32,1.64-1.43,1.87-2.04.23-.66.33-1.03.36-1.02Z"/>
    <path class="cls-2" d="m137.26,270.46c.09.14-4.64,3.52-10.57,7.55-5.93,4.04-10.82,7.2-10.91,7.06-.09-.14,4.64-3.52,10.57-7.55,5.93-4.03,10.82-7.19,10.91-7.06Z"/>
    <path class="cls-2" d="m143.08,271.47c.11.13-3.36,3.29-7.75,7.06-4.39,3.77-8.04,6.73-8.14,6.61-.11-.13,3.36-3.28,7.75-7.06,4.39-3.77,8.03-6.73,8.14-6.61Z"/>
  </g>
  <g>
    <path class="cls-7" d="m185.04,24.32h-4.83l-10.54-14.68V0s-7.46-.46-6.58,12.16c.88,12.62-.07,9.41-.07,9.41,0,0-15.84.06-17.16,1.44-.96,1-1.39,16.74-1.56,25.27-.08,4.3,2.55,8.29,6.55,9.31.57.15,1.14.23,1.71.23,3.95,0,24.14-3.21,24.14-3.21h8.34v-30.28Z"/>
    <polygon class="cls-7" points="198.86 21.68 195.9 54.7 187.63 54.7 187.63 22.34 198.86 21.68"/>
  </g>
  <g>
    <g>
      <rect class="cls-13" x="300.79" y="89.97" width="7.57" height="33.94"/>
      <rect class="cls-13" x="300.79" y="89.97" width="7.57" height="33.94" transform="translate(197.63 411.52) rotate(-90)"/>
    </g>
    <path class="cls-13" d="m332.77,107.03s-.03-.16-.05-.46c-.02-.33-.06-.78-.1-1.34-.02-.3-.04-.63-.06-.99-.04-.36-.12-.75-.18-1.18-.14-.85-.27-1.84-.6-2.91-.5-2.18-1.53-4.76-3.15-7.48-1.63-2.72-3.97-5.55-7.16-7.96-3.18-2.38-7.19-4.41-11.81-5.23-4.6-.79-9.78-.64-14.72,1.23-1.26.4-2.44,1.02-3.65,1.61-1.15.7-2.36,1.34-3.43,2.21-1.14.78-2.13,1.76-3.18,2.7-.94,1.04-1.93,2.06-2.74,3.25-1.67,2.31-3.12,4.89-4,7.71-.91,2.81-1.4,5.8-1.44,8.83.04,3.04.53,6.02,1.44,8.84.88,2.83,2.34,5.4,4,7.72.81,1.18,1.8,2.2,2.74,3.25,1.04.94,2.04,1.92,3.18,2.7,1.07.87,2.28,1.51,3.43,2.21,1.21.58,2.4,1.21,3.65,1.61,4.94,1.88,10.13,2.02,14.72,1.23,4.63-.82,8.64-2.84,11.81-5.23,3.19-2.41,5.53-5.24,7.16-7.96,1.61-2.73,2.64-5.3,3.14-7.48.33-1.07.46-2.06.6-2.91.07-.43.14-.82.18-1.18.02-.36.04-.69.06-.99.04-.57.07-1.01.1-1.34.03-.3.04-.46.05-.46s.01.16,0,.46c0,.33-.02.78-.04,1.35-.01.3-.02.63-.04.99-.03.36-.1.76-.16,1.19-.12.86-.23,1.86-.55,2.94-.47,2.21-1.48,4.82-3.08,7.6-1.62,2.76-3.97,5.66-7.19,8.12-3.21,2.44-7.27,4.53-11.98,5.38-4.67.82-9.96.7-15-1.2-1.28-.41-2.49-1.04-3.73-1.63-1.18-.71-2.41-1.36-3.51-2.25-1.16-.8-2.18-1.79-3.25-2.75-.96-1.06-1.97-2.1-2.81-3.31-1.7-2.36-3.19-4.99-4.09-7.88-.93-2.87-1.44-5.92-1.48-9.02.04-3.1.54-6.15,1.48-9.02.9-2.89,2.39-5.51,4.09-7.87.83-1.21,1.84-2.25,2.81-3.31,1.06-.96,2.08-1.95,3.25-2.75,1.09-.89,2.33-1.54,3.51-2.24,1.24-.59,2.45-1.22,3.73-1.63,5.04-1.9,10.33-2.03,15-1.2,4.71.85,8.77,2.94,11.98,5.38,3.22,2.46,5.57,5.36,7.19,8.12,1.61,2.78,2.61,5.39,3.08,7.6.31,1.09.43,2.09.55,2.95.06.43.13.83.16,1.19.01.36.03.69.04.99.02.57.03,1.02.04,1.35,0,.3,0,.46,0,.46Z"/>
  </g>
  <path class="cls-4" d="m682.13,340.81s33.57-8,34.68-9.42l-27.61-71.11c-3.86-9.94-10.36-18.74-19.13-24.8-4.01-2.77-8.39-5-13.07-6.58-17.94-6.1-32.61-5.04-32.61-5.04l-46.61-2.47c-14.47.85-26.86,5.1-36.77,10.18-15.71,8.05-27.83,21.72-34.53,38.05l-20.9,52.22,52.72,11.02,2,56.09-7.95,77.4h145.59l-1.02-122.69h0l5.2-2.86Z"/>
  <path class="cls-9" d="m711.07,322.11c.05.16-8.66,3-19.45,6.34-10.79,3.35-19.58,5.93-19.63,5.77-.05-.16,8.66-3,19.45-6.34,10.79-3.35,19.58-5.93,19.63-5.77Z"/>
  <path class="cls-8" d="m558.76,272.11s-.35-.42-.9-1.22c-.53-.81-1.35-1.96-2.4-3.33-1.05-1.38-2.38-2.96-3.95-4.62-1.59-1.65-3.42-3.38-5.47-5.05-2.06-1.65-4.14-3.08-6.09-4.28-1.96-1.18-3.78-2.16-5.35-2.89-1.57-.74-2.86-1.3-3.77-1.64-.9-.36-1.4-.58-1.38-.62s.53.1,1.46.4c.93.28,2.26.78,3.86,1.48,1.61.69,3.47,1.63,5.46,2.8,1.98,1.19,4.09,2.62,6.18,4.29,2.07,1.69,3.91,3.45,5.5,5.13,1.56,1.71,2.88,3.32,3.89,4.75,1.02,1.42,1.79,2.61,2.26,3.46.48.85.74,1.33.7,1.35Z"/>
  <path class="cls-8" d="m551.88,289.08c.16.02-1.46,17.15-3.63,38.25-2.17,21.11-4.06,38.21-4.23,38.2-.16-.02,1.46-17.14,3.63-38.26,2.17-21.11,4.06-38.21,4.22-38.19Z"/>
  <path class="cls-8" d="m666.5,257.34c-.09.01-.3-1.33-.75-3.48-.45-2.14-1.19-5.08-2.31-8.22-1.13-3.14-2.42-5.88-3.44-7.82-1.01-1.94-1.71-3.11-1.63-3.16.03-.02.25.25.6.75.36.5.84,1.25,1.4,2.21,1.12,1.9,2.49,4.64,3.63,7.82,1.14,3.18,1.82,6.16,2.17,8.34.17,1.09.28,1.98.32,2.59.05.62.05.96.01.96Z"/>
  <path class="cls-8" d="m669.41,317.23s-.14-.6-.28-1.68c-.14-1.09-.32-2.67-.51-4.62-.38-3.9-.78-9.31-.99-15.3-.21-5.99-.19-11.41-.09-15.33.05-1.96.12-3.55.18-4.64.07-1.1.12-1.7.16-1.7.04,0,.06.61.07,1.7,0,1.21,0,2.77,0,4.64,0,3.92.05,9.33.26,15.3.21,5.97.54,11.37.81,15.28.13,1.87.24,3.43.32,4.63.07,1.09.09,1.7.05,1.71Z"/>
  <path class="cls-9" d="m598.93,307.21c-12.23.71-24.52.48-36.72-.69v4.77h36.72v-4.08Z"/>
  <path class="cls-9" d="m635.45,227.89s.06.24.14.72c.08.52.18,1.22.32,2.12.23,1.86.55,4.57.82,8.02.55,6.9,1.03,16.69,1.2,28.26v.44s-.39-.19-.39-.19c-7.32-3.56-15.53-7.44-24.07-11.71-16.28-8.15-31.01-15.52-41.72-20.88-5.3-2.68-9.59-4.86-12.61-6.39-1.45-.75-2.6-1.34-3.41-1.76-.36-.19-.65-.35-.88-.47-.2-.11-.3-.17-.29-.18,0,0,.11.03.32.12.24.11.53.25.91.42.83.4,1.99.96,3.47,1.66,3.04,1.49,7.37,3.61,12.7,6.22,10.73,5.32,25.49,12.64,41.8,20.72,8.54,4.27,16.73,8.16,24.03,11.75l-.39.25c-.12-11.55-.52-21.35-.98-28.24-.22-3.45-.49-6.17-.66-8.03-.1-.9-.18-1.6-.23-2.12-.05-.48-.07-.73-.05-.74Z"/>
  <path class="cls-9" d="m547.8,327s-.21-.02-.61-.1c-.46-.11-1.02-.25-1.71-.41-1.57-.4-3.69-.94-6.27-1.59-5.3-1.36-12.61-3.21-20.72-5.17-8.11-1.96-15.47-3.65-20.8-4.87-2.6-.6-4.74-1.09-6.31-1.45-.69-.17-1.25-.31-1.71-.42-.39-.1-.59-.16-.59-.19,0-.02.22,0,.61.07.46.08,1.04.18,1.73.31,1.5.28,3.67.71,6.35,1.26,5.36,1.11,12.73,2.74,20.85,4.7,8.11,1.96,15.42,3.88,20.69,5.35,2.64.73,4.76,1.34,6.23,1.78.68.21,1.23.38,1.68.52.38.13.58.2.58.22Z"/>
  <path class="cls-8" d="m629.04,219.21c.05-.17,3.15,1.49,6.2,5.99,2.99,4.49,5.8,11.46,7.38,19.47.78,4.01,1.17,7.89,1.34,11.42.02,1.77.08,3.45.02,5.01-.09,1.57-.1,3.03-.24,4.36-.14,1.31-.27,2.51-.39,3.58-.15,1.05-.32,1.94-.45,2.68-.27,1.46-.46,2.27-.54,2.25-.08-.01-.05-.84.08-2.32.07-.77.15-1.66.25-2.68.06-1.06.13-2.25.21-3.56.08-1.32.05-2.77.09-4.32.01-1.55-.08-3.21-.13-4.95-.23-3.48-.64-7.29-1.41-11.24-1.55-7.88-4.19-14.78-6.92-19.24-1.37-2.22-2.8-3.83-3.83-4.87-1.04-1.04-1.71-1.5-1.66-1.58Z"/>
  <path class="cls-8" d="m576.88,219.54c.11.1-.85,1.28-2.42,3.49-1.58,2.21-3.61,5.6-5.4,10.09-1.82,4.48-3.16,10.13-4.01,16.49-.84,6.36-1.19,13.47-1.66,20.91-.39,7.43-.41,14.54-.41,21,0,6.46,0,12.28,0,17.2-.04,4.9-.13,8.86-.27,11.6-.14,2.74-.3,4.25-.42,4.25-.13,0-.2-1.52-.28-4.25-.07-2.79-.17-6.73-.3-11.58-.12-4.89-.29-10.72-.38-17.2-.08-6.48-.11-13.61.28-21.11.47-7.46.87-14.58,1.81-21.05.95-6.45,2.45-12.21,4.47-16.74,1.99-4.54,4.24-7.91,6.01-10.02,1.77-2.12,2.91-3.14,2.98-3.07Z"/>
  <path class="cls-8" d="m654.01,315.44c-.08,0-.16-1.35-.23-3.79-.07-2.44-.13-5.97-.17-10.33-.02-2.19-.04-4.57-.06-7.13-.05-2.56.05-5.33-.15-8.14-.21-2.79-.94-5.76-2.93-8.01-1.94-2.26-4.93-3.79-8.09-3.82-3.17-.06-6.21,1.29-8.45,3.28-2.29,1.98-3.56,4.73-4.27,7.44-.71,2.73-1.01,5.47-1.43,8-.4,2.53-.77,4.89-1.12,7.05-.69,4.31-1.27,7.79-1.7,10.19-.43,2.4-.7,3.73-.78,3.71s.04-1.36.32-3.78c.29-2.42.74-5.92,1.32-10.25.3-2.17.62-4.53.97-7.07.38-2.53.64-5.26,1.35-8.13.71-2.83,2.07-5.86,4.56-8.04,2.42-2.17,5.72-3.66,9.25-3.6,3.52.04,6.82,1.75,8.95,4.25,2.21,2.53,2.95,5.8,3.14,8.69.18,2.94.04,5.66.05,8.23-.03,2.56-.06,4.95-.08,7.13-.06,4.36-.13,7.89-.21,10.33-.08,2.44-.16,3.79-.24,3.79Z"/>
  <path class="cls-8" d="m642.94,262.99c-.37,4.02-1.66,8.52-4.45,11.44,2.43-.53,4.99-.48,7.4.14-1.74-3.49-2.02-7.69-1.97-11.58"/>
  <path class="cls-8" d="m654.05,289.08c-.22.04-.35-1.92-1.82-4.55-.73-1.3-1.82-2.74-3.33-3.99-1.5-1.26-3.45-2.28-5.65-2.69-2.2-.37-4.39-.06-6.21.62-1.84.68-3.34,1.68-4.44,2.68-2.23,2.02-2.96,3.85-3.15,3.75-.1-.01.35-2.03,2.57-4.36,1.1-1.15,2.66-2.31,4.63-3.1,1.96-.8,4.36-1.19,6.82-.77,2.45.45,4.58,1.62,6.15,3.03,1.6,1.4,2.69,3,3.37,4.44,1.37,2.91,1.18,4.96,1.07,4.94Z"/>
  <path class="cls-15" d="m684.75,419.04c6.83-.02,12.94-4.92,16.15-10.95,3.22-6.03,4.03-13.03,4.35-19.85.84-18.06-1.39-36.26-6.57-53.58l-29.94,5.23,8.15,80.63,7.85-1.48Z"/>
  <polygon class="cls-8" points="563.65 429.09 661.14 425.53 684.78 311.3 582.1 317 563.65 429.09"/>
  <path class="cls-1" d="m613.83,315.04l1.47-2.91,7.78-.57s1.97-5.1,13.09-5.62c9.97-.47,10.37,4.55,10.37,4.55h5.37v2.45l-38.09,2.12Z"/>
  <path class="cls-15" d="m668.18,392.27l7.39-2.15c1.39-.41,2.86-.47,4.28-.19h0c1.73.34,3.32,1.18,4.58,2.42,2.45,2.41,6.39,6.39,6.95,7.58.82,1.74.83,4.74,0,5.85s1.81,6.79,1.48,8.69-.82,3.79-1.48,4.58c-.66.79,0,3.49-1.65,5.54-1.65,2.05-3.14,3.31-3.14,3.31,0,0-20.3.95-22.28,0-1.98-.95-5.45-4.58-5.45-4.58,0,0-1.82-3.32.99-3.63l-11.55-4.42c-1.39-.53-2.21-2.08-1.68-3.46.18-.48.5-.89,1.02-1.12,0,0-5.19-1.64-6.38-2.17-2.4-1.06-3.3-6.64,1.66-5.92,2.62.38,6.16,1.14,6.16,1.14,0,0-1.89-3.08.75-4.91,1.61-1.11,8.84.24,8.84.24l9.5-6.78h0Z"/>
  <path class="cls-10" d="m670.76,422.74c0,.16-2.76.04-6-.9-3.26-.89-5.62-2.36-5.53-2.5.08-.14,2.5,1.05,5.69,1.92,3.18.92,5.86,1.3,5.84,1.47Z"/>
  <path class="cls-10" d="m666.34,415.52c-.04.16-4.26-.78-9.42-2.1-5.16-1.32-9.32-2.52-9.27-2.68.04-.16,4.26.78,9.42,2.1,5.16,1.32,9.31,2.52,9.27,2.68Z"/>
  <path class="cls-10" d="m668.75,408.34c-.04.16-4.58-.76-10.14-2.07-5.56-1.3-10.04-2.49-10.01-2.65.04-.16,4.58.76,10.14,2.07,5.56,1.3,10.04,2.49,10.01,2.65Z"/>
  <path class="cls-10" d="m676.26,399.1c.02.08-.98.39-2.61.83-.89.23-1.84.48-2.86.74-.55.14-1.12.28-1.7.42-.61.16-1.28.23-1.95.19-.67-.04-1.31-.17-1.9-.31-.58-.13-1.15-.26-1.7-.39-1.03-.25-1.99-.48-2.88-.69-1.63-.41-2.64-.71-2.62-.79s1.05.07,2.71.37c.9.18,1.87.36,2.91.57,1.1.19,2.29.55,3.52.64,1.23.1,2.36-.34,3.48-.54,1.04-.22,2.01-.43,2.9-.62,1.66-.33,2.69-.5,2.71-.42Z"/>
  <path class="cls-10" d="m677.56,402.98c.06-.04.34.21.56.75.22.53.35,1.39.08,2.27-.28.88-.87,1.51-1.36,1.82-.49.32-.86.37-.89.3-.09-.14,1.2-.78,1.68-2.29.48-1.51-.22-2.78-.07-2.84Z"/>
  <path class="cls-10" d="m677.14,410.83c.14-.07.6.75.54,1.86-.06,1.11-.61,1.87-.74,1.79-.15-.08.1-.85.14-1.83.06-.97-.1-1.77.06-1.83Z"/>
  <path class="cls-10" d="m677.26,419.34c.15-.06.46.5.31,1.22-.14.72-.64,1.11-.75,1-.13-.11.06-.56.17-1.12.12-.56.11-1.05.27-1.1Z"/>
  <path class="cls-10" d="m679.47,398.63c-.02.08-.76.04-1.95-.1-.68-.09-1.37-.18-2.09-.27-.8-.13-1.61-.25-2.48-.12-.79.11-1.58.6-2.21.99-.64.43-1.19.9-1.72,1.22-1.07.64-1.86.7-1.87.64-.03-.1.7-.3,1.64-.99.93-.66,2.09-2.03,4.09-2.45.48-.06.94-.07,1.39-.03.47.05.85.14,1.25.2.71.14,1.4.27,2.07.4,1.18.24,1.9.44,1.88.52Z"/>
  <path class="cls-10" d="m691.2,419.43s.17-.53.52-1.46c.32-.93.84-2.3.82-4.05,0-.87-.17-1.82-.43-2.82-.24-1.01-.7-2.01-.96-3.22-.3-1.24.09-2.54.25-3.75.17-1.22-.1-2.5-.66-3.69-.56-1.2-1.33-2.26-2.11-3.27-.79-1-1.56-1.97-2.33-2.84-1.53-1.75-3.18-3.1-4.8-3.76-1.61-.68-3.07-.75-4.03-.61-.97.13-1.47.39-1.49.34,0-.02.11-.09.35-.21.24-.11.61-.25,1.11-.35.99-.22,2.52-.21,4.23.45,1.72.64,3.47,2.01,5.05,3.78.8.88,1.58,1.84,2.38,2.85.8,1.01,1.6,2.11,2.19,3.38.6,1.26.89,2.68.7,4.01-.19,1.31-.54,2.47-.29,3.57.22,1.1.67,2.16.9,3.2.25,1.03.4,2.02.38,2.94-.03,1.84-.63,3.22-1.02,4.13-.42.91-.7,1.39-.73,1.37Z"/>
  <path class="cls-15" d="m622.95,362.92l-80.04,12.71,3.56-41.78-44.51-8.6-5.41,61.85-.94,14.18c-.64,9.6,3.77,18.85,11.62,24.41h0c7.14,5.06,16.25,6.44,24.57,3.73l17.2-5.61,83.88-29.84"/>
  <path class="cls-15" d="m671.39,354.31c.32-1.38-.86-2.67-2.28-2.67-4.51-.02-16.69.05-21,1.27-5.32,1.51-25.15,10.02-25.15,10.02l8.41,31.04,30.44.32s11.12-5.11,11.26-7.32c.07-1.13-.28-4.14-.28-4.14l3.35-1.8c5-3.17,1.8-9.26,1.8-9.26,0,0,3.44-1.93,3.62-5.42.19-3.68-2.69-5.13-2.69-5.13,0,0,1.38-4.91-1.18-6.23-2.56-1.32-6.9.38-6.9.38.3-.24.5-.61.6-1.05Z"/>
  <path class="cls-10" d="m673.13,354.82s-.32.15-.93.33c-.61.17-1.51.37-2.63.56-2.24.4-5.35.74-8.78,1.1-3.43.37-6.51.79-8.69,1.32-2.19.51-3.41,1.19-3.46,1.1-.02-.04.27-.22.83-.54.57-.29,1.43-.64,2.52-.97,2.19-.65,5.3-1.14,8.74-1.51,3.44-.37,6.54-.64,8.78-.93,2.24-.28,3.6-.56,3.63-.47Z"/>
  <path class="cls-10" d="m678.86,361.03c.03.07-.76.54-2.14,1.09-1.37.56-3.34,1.15-5.55,1.61-2.21.46-4.22.76-5.68.95-1.46.19-2.37.27-2.38.19-.04-.19,3.56-.83,7.94-1.72,2.19-.46,4.14-.98,5.53-1.43,1.39-.44,2.24-.78,2.28-.7Z"/>
  <path class="cls-10" d="m677.99,371.81c.06.14-2.79,1.38-6.52,2.22-3.72.85-6.83.96-6.84.81-.02-.17,3.03-.55,6.71-1.39,3.68-.83,6.59-1.8,6.65-1.63Z"/>
  <path class="cls-10" d="m676.13,381.02c.06.15-2.13,1.15-5,1.84-2.87.7-5.28.8-5.29.64-.02-.17,2.32-.54,5.15-1.22,2.83-.68,5.08-1.42,5.14-1.26Z"/>
  <path class="cls-10" d="m660.26,375.51c.02.07-.31.27-.93.33-.61.06-1.51-.08-2.3-.64-.79-.56-1.22-1.37-1.36-1.96-.15-.6-.07-.98,0-.99.16-.04.33,1.49,1.7,2.46,1.37.97,2.87.63,2.88.79Z"/>
  <path class="cls-10" d="m659.62,385.13c.03.16-1.19.24-2.23-.7-1.05-.93-1.11-2.14-.95-2.13.17-.04.46.92,1.35,1.69.86.79,1.85.98,1.83,1.15Z"/>
  <path class="cls-10" d="m656.1,365.59c.06.16-.78.42-1.55-.17-.78-.58-.76-1.47-.59-1.45.17-.02.37.56.95.97.56.44,1.17.48,1.19.64Z"/>
  <path class="cls-10" d="m622.95,362.92s.08-.05.24-.13c.19-.09.43-.2.72-.34.68-.3,1.62-.72,2.82-1.25,2.47-1.07,6.07-2.62,10.62-4.48,2.27-.93,4.78-1.94,7.53-2.96,1.38-.48,2.79-1.07,4.37-1.36,1.56-.3,3.17-.46,4.84-.6,3.33-.26,6.85-.37,10.53-.43.92,0,1.85-.02,2.79-.02.47,0,.94,0,1.42,0,.46-.02,1.06.05,1.51.31.94.48,1.62,1.6,1.3,2.77-.11.25-.24.3-.35.4-.11.08-.23.15-.34.21-.23.12-.46.23-.69.33-.47.19-.93.36-1.45.5-.15.04-.31-.05-.35-.21-.04-.15.05-.31.2-.35,1.24-.35,2.49-.64,3.79-.85,1.3-.19,2.64-.33,4.01-.14.68.11,1.41.32,1.97.85.55.52.84,1.24.97,1.93.26,1.41.08,2.81-.26,4.19l-.15-.35c.65.36,1.21.87,1.68,1.48,1.19,1.54,1.46,3.64.88,5.43-.61,1.81-1.94,3.2-3.49,4.16l.12-.4c.79,1.67,1.2,3.49.97,5.3-.21,1.83-1.4,3.42-2.87,4.34h-.02c-1.14.62-2.25,1.22-3.36,1.8l.15-.28c.09.8.16,1.6.22,2.39.03.4.05.79.06,1.19,0,.2,0,.4,0,.61-.03.26-.13.49-.25.67-.49.72-1.12,1.18-1.73,1.65-.62.46-1.26.87-1.9,1.26-2.56,1.55-5.11,2.81-7.55,3.96-.03.02-.07.02-.1.02-9.22-.14-16.81-.26-22.15-.34-2.62-.06-4.68-.1-6.13-.13-.68-.02-1.21-.04-1.61-.05-.36-.02-.55-.03-.55-.04s.19-.02.55-.03c.4,0,.93-.01,1.61-.02,1.45,0,3.51,0,6.13,0,5.34.03,12.94.08,22.15.13l-.1.02c2.42-1.15,4.96-2.43,7.48-3.97.63-.39,1.25-.8,1.85-1.24.59-.44,1.2-.93,1.59-1.5.1-.14.14-.29.17-.41,0-.18,0-.37,0-.56,0-.38-.03-.77-.06-1.16-.06-.78-.14-1.57-.23-2.37-.01-.12.05-.23.15-.28,1.1-.59,2.22-1.19,3.35-1.8h-.02c1.36-.86,2.41-2.26,2.6-3.93.22-1.64-.18-3.4-.91-4.94-.07-.14-.02-.31.12-.4,1.41-.87,2.68-2.21,3.21-3.83.53-1.61.28-3.52-.78-4.88-.41-.54-.96-1.02-1.48-1.31-.13-.07-.18-.21-.15-.35.32-1.28.48-2.66.25-3.91-.12-.62-.37-1.21-.8-1.62-.42-.41-1.03-.6-1.65-.7-1.26-.18-2.57-.05-3.83.14-1.27.19-2.52.48-3.72.82l-.15-.56c.44-.12.92-.29,1.35-.47.22-.09.44-.19.64-.3.2-.08.4-.3.47-.28,0-.38.02-.84-.19-1.2-.19-.37-.5-.69-.88-.88-.39-.21-.77-.26-1.25-.25-.47,0-.95,0-1.41,0-.94,0-1.87,0-2.79.01-3.67.04-7.19.14-10.5.38-1.65.13-3.26.28-4.79.56-1.51.27-2.93.84-4.31,1.31-2.74.99-5.26,1.99-7.54,2.89-4.52,1.83-8.15,3.3-10.68,4.32-1.22.49-2.17.88-2.86,1.16-.3.12-.55.21-.74.29-.17.06-.26.09-.26.08Z"/>
  <path class="cls-10" d="m543.24,375.56c.11.17-3.16,1.74-5.92,5.1-2.81,3.33-3.76,6.82-3.94,6.75-.07-.02.08-.91.6-2.26.52-1.35,1.46-3.15,2.89-4.87,1.43-1.71,3.02-2.97,4.26-3.72,1.24-.76,2.09-1.06,2.12-1Z"/>
  <g>
    <g>
      <path class="cls-15" d="m647.75,128.06c-1.65-21.01-19.16-37.22-40.23-37.26h-2.09c-22.58,1.27-34.11,21.16-32.22,43.69l3.9,90.34c.07,1.52.97,2.87,2.34,3.52l50.67,23.78-1.57-47.41s21.71-3.33,22.02-25.03c.15-10.48-1.29-32.09-2.83-51.62Z"/>
      <path class="cls-10" d="m628.74,204.68s-13.86.81-28.42-8.38c0,0,6.65,15.63,28.31,13.72l.1-5.34Z"/>
    </g>
    <g>
      <g>
        <g>
          <path class="cls-8" d="m640.06,141.54c.06,1.64-1.29,3.03-2.99,3.12-1.7.09-3.13-1.16-3.19-2.8-.05-1.64,1.29-3.03,2.99-3.12,1.71-.09,3.14,1.17,3.19,2.8Z"/>
          <path class="cls-8" d="m643.07,138.67c-.38.4-2.73-1.34-6.06-1.34-3.33-.05-5.78,1.66-6.14,1.26-.18-.18.22-.91,1.28-1.68,1.05-.77,2.84-1.52,4.92-1.5,2.08.02,3.82.78,4.83,1.57,1.02.79,1.37,1.52,1.18,1.7Z"/>
        </g>
        <g>
          <path class="cls-8" d="m607.28,142.55c.05,1.64-1.29,3.03-2.99,3.12-1.7.09-3.13-1.16-3.19-2.8-.05-1.64,1.29-3.03,2.99-3.12,1.71-.09,3.14,1.17,3.19,2.8Z"/>
          <path class="cls-8" d="m610.29,139.22c-.39.4-2.73-1.34-6.07-1.34-3.33-.05-5.78,1.66-6.14,1.26-.18-.18.21-.91,1.28-1.68,1.05-.77,2.84-1.52,4.92-1.51,2.08.02,3.82.78,4.83,1.57,1.02.79,1.37,1.52,1.18,1.7Z"/>
        </g>
        <path class="cls-8" d="m622.34,163.98c-.02-.19,2.06-.54,5.42-.97.85-.09,1.66-.25,1.8-.83.2-.61-.15-1.53-.56-2.53-.8-2.06-1.63-4.22-2.5-6.49-3.48-9.24-5.99-16.83-5.62-16.97.37-.14,3.5,7.24,6.97,16.48.84,2.28,1.64,4.45,2.4,6.53.32.97.87,2.07.43,3.34-.23.64-.86,1.1-1.4,1.24-.55.17-1.03.17-1.45.2-3.38.17-5.48.19-5.49,0Z"/>
        <path class="cls-8" d="m612.52,166.26c.54-.03.54,3.59,3.63,6.16,3.09,2.58,6.95,2.19,6.97,2.69.05.23-.86.7-2.49.74-1.6.05-3.93-.47-5.82-2.04-1.89-1.58-2.69-3.68-2.82-5.17-.13-1.51.27-2.41.52-2.39Z"/>
      </g>
      <path class="cls-8" d="m611.18,126.16c-.33.91-3.66.47-7.57.93-3.92.38-7.08,1.52-7.6.71-.23-.39.32-1.24,1.6-2.12,1.27-.87,3.29-1.7,5.63-1.96,2.35-.25,4.5.13,5.92.71,1.44.58,2.16,1.3,2.01,1.73Z"/>
      <path class="cls-8" d="m641.86,129.01c-.59.76-2.88-.03-5.65-.08-2.76-.14-5.1.5-5.64-.3-.24-.38.13-1.14,1.16-1.86,1.01-.71,2.69-1.29,4.59-1.23,1.9.06,3.54.75,4.5,1.53.97.78,1.29,1.56,1.03,1.93Z"/>
    </g>
  </g>
  <g>
    <path class="cls-15" d="m576.46,150.56c-.37-.16-14.9-4.44-14.46,10.4.44,14.84,15.25,11.33,15.26,10.9.01-.43-.8-21.3-.8-21.3Z"/>
    <path class="cls-10" d="m573.87,166.37c-.07-.05-.25.19-.68.4-.42.21-1.15.36-1.93.1-1.58-.53-2.98-2.98-3.13-5.65-.08-1.35.17-2.64.61-3.72.42-1.1,1.1-1.88,1.88-2.04.78-.21,1.35.25,1.55.66.21.41.13.71.21.73.04.04.31-.26.17-.87-.07-.29-.25-.64-.61-.91-.36-.28-.89-.41-1.44-.33-1.14.11-2.14,1.2-2.63,2.38-.55,1.19-.86,2.65-.77,4.16.18,2.99,1.8,5.74,3.96,6.29,1.05.24,1.91-.1,2.35-.46.45-.38.52-.71.46-.74Z"/>
  </g>
  <path class="cls-8" d="m586.19,106.46l61.87,1.36c-1.92-4.27-5.36-7.69-9.09-10.51-8.04-6.1-17.92-9.91-28.01-10.08-10.09-.18-30.63,12.11-37.94,19.07-5.85,5.57-5.81,10.38-5.81,10.38-.93,8.02,3.56,17.14,5.35,25.01.92,4.06,2.7,16.35,2.7,16.35h0c3.41-.01,4.67-2.72,4.16-6.09l-.64-13.22s11.59-8.24,6.1-23.32c-.88-1.2-2.76-6.71,1.32-8.95Z"/>
  <path class="cls-10" d="m599.18,153.38c-.2.04-.4-.11-.44-.32-.04-.22.08-.43.28-.47.2-.04.4.11.44.32.04.22-.08.43-.28.47Z"/>
  <path class="cls-10" d="m605.55,151.94c-.2.04-.4-.13-.45-.38-.05-.25.07-.48.27-.52.2-.04.4.13.45.38.05.25-.07.48-.27.52Z"/>
  <path class="cls-10" d="m609.84,151.85c-.2.02-.4-.22-.44-.55-.04-.33.09-.62.29-.64.2-.03.4.22.44.55.04.33-.09.62-.29.64Z"/>
  <path class="cls-10" d="m602.3,157.38c-.2,0-.37-.11-.37-.24,0-.13.17-.23.37-.23.2,0,.37.11.37.24,0,.13-.17.23-.37.23Z"/>
  <path class="cls-10" d="m608.15,156.04c-.2.02-.38-.16-.4-.38-.02-.23.13-.43.33-.45.2-.02.38.16.4.39.02.23-.13.43-.33.45Z"/>
  <path class="cls-10" d="m638.57,152.47c-.2.04-.4-.11-.44-.34-.04-.23.08-.44.28-.48.2-.04.4.11.44.34.04.22-.08.44-.28.48Z"/>
  <path class="cls-10" d="m642.91,152.08c-.2.02-.39-.17-.41-.43-.02-.25.12-.48.32-.5.2-.02.39.17.41.43.02.25-.12.48-.32.5Z"/>
  <path class="cls-10" d="m634.73,152.57c-.2.04-.39-.07-.42-.25-.03-.17.1-.35.3-.39.2-.04.39.07.42.25.03.17-.1.35-.3.39Z"/>
  <path class="cls-10" d="m637.94,156.92c-.19.08-.41-.03-.51-.24s-.02-.46.17-.54c.19-.08.41.03.51.24s.02.46-.17.54Z"/>
  <path class="cls-10" d="m641.65,156.19c-.2-.05-.32-.23-.27-.4.05-.16.24-.25.44-.2.2.05.32.23.27.4-.05.16-.24.25-.44.2Z"/>
  <path class="cls-8" d="m572.61,107.14c-1.58-5.42,0-11.45,3.47-15.9,3.48-4.44,9.16-7.07,14.8-6.84,2.89.12,5.76.94,8.64.62,5.35-.58,9.48-4.88,14.44-6.96,7.74-3.25,17.58-.3,22.25,6.67,1.88,2.81,3.12,6.28,6,8.05,2.49,1.53,5.63,1.4,8.44,2.25,5.66,1.71,9.54,7.72,9.25,13.63-.29,5.91-4.43,11.32-9.88,13.63-5.44,2.32-11.93,1.67-17.1-1.21-4.67-2.6-8.85-7.03-14.19-6.87-5.53.16-10.36,5.38-15.79,4.3-2.84-.57-5.04-2.76-7.12-4.78-2.08-2.02-4.48-4.07-7.38-4.25-2.9-.17-4.4,3.81-3.37,6.52l-12.47-8.87"/>
  <path class="cls-1" d="m646.85,99.97s-.02.08-.1.22c-.08.14-.18.35-.36.6-.34.51-.89,1.24-1.77,2.01-.88.77-2.1,1.58-3.68,2.13-1.57.55-3.54.78-5.61.33-2.06-.43-4.23-1.51-5.92-3.37-1.69-1.86-2.69-4.34-4.27-6.52-.79-1.09-1.77-2.07-3-2.71-1.23-.62-2.66-.93-4.1-.9-1.44.03-2.91.42-4.21,1.13-1.3.73-2.38,1.83-3.1,3.19-.75,1.36-1.28,2.85-2.18,4.17-.86,1.34-2.36,2.35-3.96,2.41-1.59.09-3.07-.5-4.32-1.25-1.27-.74-2.33-1.75-3.29-2.72-1.91-1.93-3.79-3.85-6.13-4.37-2.32-.55-4.59.3-6.21,1.46-1.66,1.19-2.73,2.76-3.41,4.23-.69,1.48-1.05,2.85-1.28,3.98-.23,1.13-.34,2.02-.41,2.63-.07.6-.11.92-.13.92-.01,0-.01-.08-.01-.24,0-.16,0-.39.02-.7.03-.61.11-1.51.3-2.66.2-1.15.53-2.55,1.2-4.07.67-1.51,1.75-3.17,3.47-4.43,1.68-1.23,4.06-2.17,6.57-1.6,2.54.55,4.5,2.56,6.41,4.46.97.97,1.97,1.91,3.19,2.62,1.19.7,2.58,1.24,3.99,1.15,1.41-.07,2.7-.92,3.51-2.16.84-1.23,1.37-2.71,2.15-4.12.76-1.43,1.95-2.66,3.34-3.42,1.4-.76,2.95-1.17,4.49-1.2,1.53-.02,3.05.3,4.38.98,1.33.69,2.37,1.76,3.18,2.89,1.61,2.28,2.59,4.73,4.19,6.51,1.59,1.78,3.66,2.85,5.64,3.28,1.99.45,3.88.26,5.42-.24,1.54-.5,2.75-1.26,3.63-1.99,1.76-1.49,2.32-2.71,2.38-2.65Z"/>
  <path class="cls-1" d="m658.07,100.19s.17.41.25,1.19c.08.78.05,1.94-.31,3.31-.37,1.36-1.1,2.93-2.32,4.37-1.21,1.44-2.92,2.69-4.89,3.56-4,1.75-8.06,1.6-10.79,1.22-1.39-.2-2.49-.45-3.24-.65-.75-.2-1.16-.35-1.15-.38.02-.1,1.7.32,4.44.61,2.71.26,6.65.34,10.5-1.35,1.9-.84,3.54-2.02,4.72-3.37,1.18-1.35,1.92-2.83,2.33-4.13.81-2.63.33-4.39.47-4.39Z"/>
  <path class="cls-2" d="m552.49,339.21c.21,2.47,1.27,4.7,2.6,6.43,1.33,1.72,4.02,3.41,6.2,3.29,0,0,5.42.46,8.34-4.18,2.64-4.21,3.29-12.96,1.18-18.13-1.46-3.56-4.73-6.87-8.58-6.96-5.05-.12-8.21,3.53-9.29,7.22"/>
  <path class="cls-8" d="m552.93,326.87s.11-.96.93-2.47c.41-.75,1.01-1.63,1.89-2.48.88-.85,2.08-1.64,3.57-2.1.74-.22,1.55-.37,2.4-.38.84-.04,1.75.06,2.63.35,1.76.57,3.39,1.78,4.69,3.36,1.31,1.57,2.28,3.57,2.75,5.74.49,2.16.64,4.46.51,6.8-.23,3.59-.94,7.17-2.93,9.9-1.01,1.34-2.38,2.31-3.81,2.87-1.44.57-2.9.79-4.31.73h.03c-1.16.05-2.19-.33-3.09-.77-.9-.46-1.67-1.01-2.32-1.62-1.3-1.24-2.02-2.63-2.53-3.77-.5-1.16-.71-2.13-.8-2.79-.05-.33-.07-.58-.07-.76,0-.17,0-.26,0-.26.09-.02.08,1.44,1.12,3.69.53,1.09,1.29,2.45,2.54,3.59.64.57,1.39,1.09,2.25,1.51.86.4,1.85.73,2.87.68h0s.03,0,.03,0c2.59.09,5.73-.91,7.62-3.45,1.85-2.56,2.56-6.07,2.78-9.59.25-4.54-.51-9.11-3.1-12.15-1.23-1.52-2.77-2.69-4.41-3.24-.82-.28-1.65-.38-2.46-.36-.81,0-1.58.13-2.29.33-1.43.41-2.6,1.13-3.46,1.94-.88.8-1.49,1.64-1.92,2.35-.87,1.45-1.07,2.38-1.14,2.36Z"/>
  <path class="cls-2" d="m549.8,339.44c.21,2.47,1.27,4.7,2.6,6.43,1.33,1.72,4.02,3.41,6.2,3.29,0,0,5.42.46,8.34-4.18,2.64-4.21,3.29-12.96,1.18-18.13-1.46-3.56-4.73-6.87-8.58-6.96-5.05-.12-8.21,3.53-9.29,7.22"/>
  <path class="cls-8" d="m550.24,327.1s.11-.96.93-2.47c.41-.75,1.01-1.63,1.89-2.48.88-.85,2.08-1.64,3.57-2.1.74-.22,1.55-.37,2.4-.38.84-.04,1.75.06,2.63.35,1.76.57,3.39,1.78,4.69,3.36,1.31,1.57,2.28,3.57,2.75,5.74.49,2.16.64,4.46.51,6.8-.23,3.59-.94,7.17-2.93,9.9-1.01,1.34-2.38,2.31-3.81,2.87-1.44.57-2.9.79-4.31.73h.03c-1.16.05-2.19-.33-3.09-.77-.9-.46-1.67-1.01-2.32-1.62-1.3-1.24-2.02-2.63-2.53-3.77-.5-1.16-.71-2.13-.8-2.79-.05-.33-.07-.58-.07-.76,0-.17,0-.26,0-.26.09-.02.08,1.44,1.12,3.69.53,1.09,1.29,2.45,2.54,3.59.64.57,1.39,1.09,2.25,1.51.86.4,1.85.73,2.87.68h0s.03,0,.03,0c2.59.09,5.73-.91,7.62-3.45,1.85-2.56,2.56-6.07,2.78-9.59.25-4.54-.51-9.11-3.1-12.15-1.23-1.52-2.77-2.69-4.41-3.24-.82-.28-1.65-.38-2.46-.36-.81,0-1.58.13-2.29.33-1.43.41-2.6,1.13-3.46,1.94-.88.8-1.49,1.64-1.92,2.35-.87,1.45-1.07,2.38-1.14,2.36Z"/>
  <path class="cls-2" d="m554.67,325.81c-2.51-.5-5.1,1.22-6.16,3.55-1.06,2.33-.83,5.07.01,7.49.43,1.23,1.02,2.43,1.91,3.37s2.12,1.63,3.42,1.66c1.91.06,3.63-1.25,4.74-2.8,1.79-2.51,2.4-5.82,1.62-8.8-.52-1.99-1.99-4.03-4.04-4.08"/>
  <path class="cls-8" d="m556.17,326.2s.16-.04.46-.01c.3.03.74.14,1.24.42,1.01.56,2.16,1.94,2.62,3.95.49,1.97.43,4.54-.71,7.02-.57,1.22-1.39,2.45-2.57,3.38-1.15.93-2.82,1.53-4.43,1.06-1.58-.44-2.79-1.62-3.54-2.89-.76-1.28-1.2-2.64-1.47-3.96-.55-2.64-.1-5.26,1.15-6.93,1.23-1.69,2.88-2.4,4-2.54.57-.09,1.01-.04,1.31,0,.29.06.44.1.44.12,0,.07-.63-.12-1.71.11-1.06.21-2.59.94-3.7,2.56-1.12,1.59-1.51,4.05-.95,6.58.28,1.26.72,2.58,1.43,3.77.71,1.18,1.81,2.23,3.2,2.62,1.38.4,2.84-.09,3.91-.95,1.09-.85,1.88-1.99,2.43-3.15,1.11-2.34,1.21-4.79.79-6.7-.39-1.92-1.43-3.26-2.33-3.84-.92-.6-1.59-.54-1.58-.61Z"/>
  <path class="cls-8" d="m560.46,344.67c-.09.02-.22-.36-.61-.82-.38-.46-1.07-.98-1.96-1.26-.89-.28-1.77-.32-2.41-.37-.64-.05-1.05-.1-1.05-.18,0-.08.39-.18,1.05-.24.65-.05,1.59-.08,2.59.23,1.01.31,1.78.98,2.12,1.58.36.61.33,1.06.27,1.07Z"/>
  <path class="cls-8" d="m561.36,324.25c.05.05-.18.41-.71.83-.53.42-1.39.87-2.42,1.06-1.03.18-1.99.07-2.64-.14-.65-.21-.99-.46-.96-.53.06-.17,1.59.45,3.49.09,1.91-.32,3.12-1.44,3.23-1.3Z"/>
  <path class="cls-8" d="m245.27,123.59c.14-5-4.48-8.86-9.13-10.69-4.65-1.83-9.82-2.52-13.97-5.31-3.67-2.47-6.14-6.33-9.25-9.48-7.63-7.73-19.53-10.94-30.01-8.08-10.48,2.86-19.1,11.67-21.75,22.2-1.79,7.12-.57,15.53,5.04,20.26,6.51,5.49,16.16,4.27,24.51,2.56,8.34-1.71,17.79-3.39,24.75,1.51,4.2,2.95,6.61,7.76,9.18,12.21,2.57,4.45,5.79,8.99,10.65,10.66,4.86,1.67,11.45-1.22,11.64-6.35"/>
  <path class="cls-8" d="m244.93,126.33c-.55,4.19,2.48,7.94,5.5,10.9,3.02,2.96,6.43,6.09,6.96,10.28.62,4.9-2.95,9.72-1.91,14.54.66,3.06,3.04,5.42,4.48,8.2,2.03,3.9,2.13,8.62.89,12.84-1.24,4.22-3.23,13.64-6.16,16.92-8.11,9.07-21.02,16.89-32.87,19.61-11.85,2.72-24.17,2.74-36.31,1.99-9.94-.61-21.37-.15-29.65-13.83-4.29-7.08-6.41-16.5-8.69-24.46-1.96-6.85-3.66-14.19-1.62-21.02,1.19-3.98,3.58-7.52,4.76-11.5,1.46-4.98.93-10.3,1.52-15.46,1.28-11.16,8.2-21.53,18.02-26.98,9.82-5.45,22.28-5.84,32.43-1.02"/>
  <path class="cls-15" d="m156.58,143.51c.93-14.26,10.42-31.74,24.63-30.21l44.35,11.32c4.32.47,7.56,4.16,7.46,8.5l-4.99,107.01c.11.02.2.04.31.07,0,0-10.11,30.18-39.44,20.96-5.82-1.83-8.47-8.19-9.62-14.73l-.3.04c-.01-.78-.02-1.5-.03-2.24-.97-7.55-.17-14.69-.17-14.69h0c-.08-8.64-.07-12.18-.08-12.1,0,0-18.22-3.07-21.94-26.85-1.85-11.83-1.21-31.21-.18-47.06Z"/>
  <g>
    <g>
      <g>
        <path class="cls-8" d="m163.72,157.84c-.06,1.61,1.25,2.99,2.93,3.08,1.68.09,3.09-1.13,3.15-2.74.06-1.61-1.25-2.99-2.93-3.08-1.68-.09-3.09,1.13-3.15,2.74Z"/>
        <path class="cls-8" d="m160.76,153.6c.38.4,2.69-1.31,5.97-1.29,3.28-.03,5.68,1.66,6.04,1.26.18-.18-.21-.9-1.26-1.66-1.03-.76-2.79-1.51-4.83-1.5-2.04,0-3.76.76-4.75,1.52-1.01.77-1.35,1.49-1.17,1.67Z"/>
      </g>
      <g>
        <path class="cls-8" d="m195.98,157.84c-.06,1.61,1.25,2.99,2.93,3.08,1.68.09,3.09-1.13,3.15-2.74.06-1.61-1.25-2.99-2.93-3.08-1.68-.09-3.09,1.13-3.15,2.74Z"/>
        <path class="cls-8" d="m193.01,154.29c.38.4,2.69-1.31,5.97-1.29,3.28-.03,5.68,1.66,6.04,1.26.17-.18-.2-.9-1.26-1.66-1.03-.76-2.79-1.51-4.83-1.5-2.04,0-3.76.76-4.76,1.52-1.01.77-1.35,1.49-1.17,1.67Z"/>
      </g>
      <path class="cls-8" d="m181.05,178.59c.02-.19-2.02-.54-5.33-.97-.84-.09-1.63-.26-1.77-.83-.2-.61.16-1.51.56-2.48.79-2.03,1.62-4.15,2.49-6.37,3.46-9.08,5.97-16.54,5.6-16.68-.37-.14-3.47,7.11-6.93,16.19-.83,2.24-1.63,4.37-2.39,6.41-.32.95-.87,2.03-.44,3.29.22.63.84,1.08,1.38,1.23.54.16,1.01.18,1.42.2,3.33.19,5.39.21,5.4.02Z"/>
      <path class="cls-10" d="m178.7,217.42s15.99,1.07,31.86-8.42c0,0-8.04,16.44-31.83,14.16l-.03-5.74Z"/>
      <path class="cls-10" d="m182.42,186.51c1.18-1.56,3.25-2.41,5.31-2.18,1.42.16,2.86.85,3.72,2.01.86,1.16,1.04,2.81.25,3.91-.89,1.24-2.74,1.53-4.3,1.08-1.57-.45-2.91-1.48-4.19-2.51-.35-.28-.71-.58-.93-.97-.22-.39-.27-.9,0-1.22"/>
      <path class="cls-8" d="m190.7,180.89c-.53-.03-.55,3.53-3.6,6.05-3.05,2.53-6.84,2.12-6.87,2.62-.05.22.84.69,2.45.74,1.57.06,3.87-.44,5.74-1.98,1.86-1.55,2.67-3.61,2.79-5.07.14-1.49-.26-2.37-.5-2.35Z"/>
    </g>
    <path class="cls-8" d="m191.55,148.54c.32.89,3.6.48,7.45.95,3.86.4,6.96,1.53,7.47.73.23-.38-.31-1.22-1.56-2.09-1.24-.86-3.23-1.69-5.54-1.95-2.31-.26-4.43.1-5.83.67-1.41.57-2.13,1.27-1.99,1.69Z"/>
    <path class="cls-8" d="m161.99,144.11c.58.75,2.84-.02,5.56-.05,2.72-.13,5.02.51,5.55-.27.23-.38-.13-1.13-1.13-1.83-.99-.7-2.65-1.28-4.51-1.23-1.87.06-3.49.73-4.43,1.49-.96.76-1.28,1.53-1.03,1.89Z"/>
  </g>
  <path class="cls-8" d="m242.16,202.84c-6.54,1.32-13.66-.69-18.55-5.23-4.89-4.54-7.41-11.5-6.57-18.11.74-5.84,3.89-11.78,1.86-17.31-2.68-7.31-12.92-9.56-15.64-16.85-1.58-4.24-.16-9.2-1.95-13.35-1.68-3.91-5.79-6.15-9.79-7.6-4-1.45-8.29-2.44-11.65-5.05-3.36-2.61-5.45-7.54-3.29-11.2,17.74,2.13,35.22,6.37,51.95,12.62,3.88,1.45,7.96,3.19,10.25,6.64,2.43,3.65,2.31,8.36,2.11,12.74-1,21.35-1.99,42.7-2.99,64.05"/>
  <path class="cls-1" d="m240.67,211.02s.14-.07.38-.25c.29-.22.64-.48,1.06-.81.92-.72,2.27-1.79,3.94-3.26,1.66-1.48,3.65-3.36,5.59-5.88,1.92-2.51,3.8-5.77,4.45-9.79.71-3.9.19-8.82-3.07-12.51-1.6-1.81-3.66-3.16-5.54-4.72-1.91-1.53-3.5-3.47-4.32-5.89-1.76-4.85-.97-10.46-1.65-16.2-.75-5.71-2.79-11.6-6.74-16.38-1.97-2.37-4.34-4.41-7.05-5.76-2.7-1.42-5.62-2.01-8.32-2.81-2.73-.75-5.23-1.88-7.3-3.6-2.09-1.68-3.8-3.73-5.3-5.84-2.99-4.24-5.19-8.76-8.04-12.53-1.42-1.88-2.95-3.6-4.69-4.97-1.73-1.38-3.63-2.39-5.55-3.03-3.84-1.31-7.89-.88-10.56,1.05-2.64,2.01-3.6,4.9-3.75,7.12-.11,2.29.66,4,1.43,4.9.38.46.71.76.97.93.24.18.37.27.38.25.01-.01-.1-.13-.31-.33-.23-.19-.53-.51-.87-.97-.69-.91-1.36-2.56-1.19-4.74.2-2.12,1.2-4.86,3.69-6.67,2.51-1.75,6.34-2.12,9.98-.83,1.83.62,3.64,1.62,5.28,2.95,1.65,1.34,3.13,3.01,4.5,4.86,2.76,3.71,4.92,8.22,7.95,12.57,1.52,2.16,3.27,4.29,5.46,6.07,2.16,1.81,4.87,3.04,7.64,3.8,2.76.82,5.6,1.4,8.13,2.75,2.57,1.28,4.83,3.23,6.72,5.5,3.79,4.58,5.79,10.3,6.53,15.85.69,5.54-.11,11.24,1.77,16.4.88,2.57,2.66,4.73,4.64,6.27,1.95,1.59,3.97,2.91,5.48,4.59,3.05,3.4,3.62,8.03,2.98,11.81-.58,3.87-2.34,7.06-4.18,9.56-1.85,2.51-3.79,4.42-5.4,5.93-1.62,1.51-2.92,2.63-3.8,3.4-.88.77-1.33,1.18-1.31,1.21Z"/>
  <path class="cls-8" d="m245.01,213.96c4.89-4.72,13.24-.62,17.34,4.8,4.1,5.42,7.01,12.41,13.23,15.13,6.22,2.72,14.33.38,19.55,4.72,7.21,5.99,3.16,19.86,10.95,25.06,3.09,2.07,7.17,1.99,10.48,3.7,7.79,4.02,7.7,15.01,6.49,23.69-1.69,12.18-3.54,24.81-10.26,35.11-6.72,10.3-19.81,17.55-31.45,13.57-11.19-3.82-16.93-15.89-21.48-26.8-6.3-15.09-12.59-30.19-18.89-45.28-3.64-8.73-7.32-17.6-8.51-26.98-1.19-9.39.41-19.52,6.38-26.86"/>
  <path class="cls-12" d="m248.15,203.55c3.55-.43,6.26,3.92,5.33,7.38-.93,3.45-4.25,5.76-7.63,6.94-1.89.66-3.93,1.07-5.89.68-1.96-.39-3.83-1.69-4.46-3.59-.66-2-.15-3.35,1.63-4.46,2.34-1.46,3.71-2.61,5.55-3.63,2.82-1.56,2.65-1.76,5.47-3.32"/>
  <polygon class="cls-4" points="166.43 241.81 180.23 231.36 232.2 228.04 234.29 235.01 217.39 340.51 230.72 466.38 158.21 466.38 166.43 241.81"/>
  <path class="cls-6" d="m222.08,421.72c-1.66-1.77-4.38-4.21-6.8-4.26-17.36-.38-35.1-2.12-52.46-2.5l-1.39,51.44c4.15-7.32,8.08-14.94,9.18-23.29.48-3.65,1.09-8,4.42-9.56,1.88-.88,4.09-.54,6.13-.13,6.27,1.24,12.5,2.86,18.88,3.26,6.38.4,13.06-.53,18.42-4.02,1.84-1.2,3.54-2.74,4.41-4.76.86-2.02.72-4.57-.78-6.17Z"/>
  <path class="cls-4" d="m177.67,243.94l-1.61-15.09c-.28-2.66,1.66-5.03,4.33-5.27l47.85-4.32c1.3-.12,2.42.88,2.46,2.18l.54,17.95-13.86,23.51-14.24,4.53h-17.41l-10.02-10.7,1.96-12.8Z"/>
  <path class="cls-8" d="m224.18,233.64s-.69-.07-1.91-.2c-1.23-.12-3.01-.22-5.21-.09-2.2.13-4.81.49-7.66,1.1-2.86.6-5.96,1.44-9.25,2.24-3.29.8-6.47,1.45-9.42,1.68-2.94.24-5.64.03-7.81-.53-2.18-.53-3.82-1.36-4.87-2.03-.53-.34-.91-.63-1.16-.84-.25-.21-.37-.33-.36-.35.03-.04.57.38,1.64.99,1.07.59,2.71,1.35,4.85,1.81,2.14.49,4.77.65,7.67.39,2.9-.25,6.05-.91,9.33-1.71,3.28-.8,6.4-1.63,9.28-2.2,2.88-.59,5.52-.91,7.75-.99,2.23-.08,4.03.09,5.26.28.61.1,1.09.19,1.41.28.32.08.48.13.48.15Z"/>
  <g class="cls-16">
    <path class="cls-6" d="m178.81,236.01c-1.28,3.52-1.32,7.88,1.28,10.58,2.12,2.2,5.52,2.75,8.52,2.15,3-.6,5.69-2.17,8.32-3.74,6.59-3.92,13.28-7.98,20.76-9.64.48-.11.99-.22,1.34-.56s.44-1.01.04-1.29c-.18-.13-.4-.16-.62-.18-6.62-.66-13.19,1.21-19.68,2.66-6.49,1.46-13.42,2.49-19.67.23"/>
  </g>
  <path class="cls-8" d="m187.95,223.1c.05.09-.93.32-1.64,1.57-.76,1.21-.71,3.27-.65,5.5.12,4.47.86,8.03.69,8.07-.08.02-.36-.86-.65-2.31-.29-1.45-.57-3.48-.63-5.75-.02-1.13-.04-2.2.07-3.2.1-.99.39-1.9.83-2.54.43-.65.96-1.03,1.35-1.2.39-.18.64-.17.65-.14Z"/>
  <path class="cls-8" d="m200.6,236.22c-.19-.02.24-3.31-.34-7.3-.55-4-1.88-7.04-1.7-7.11.07-.03.49.69.98,1.94.49,1.25,1.02,3.05,1.31,5.08.29,2.04.28,3.91.15,5.25-.12,1.34-.33,2.15-.4,2.14Z"/>
  <path class="cls-8" d="m216,220.54c.06-.03.5.61.91,1.78.42,1.16.75,2.88.63,4.78-.13,1.9-.69,3.56-1.25,4.66-.57,1.11-1.08,1.68-1.14,1.64-.17-.08,1.58-2.65,1.8-6.34.28-3.68-1.13-6.46-.94-6.52Z"/>
  <path class="cls-3" d="m148.91,248.6s-16.31,10.93-20.6,30.66c-3.37,15.51-12.6,97.44-12.6,97.44l-16.16,31.47,10.55,25.1h0c9.04.64,18.01-1.93,25.35-7.25l7.1-5.15,13.02-19.32-6.67-152.94Z"/>
  <polygon class="cls-3" points="176.57 234.13 148.91 248.6 142.39 270.05 136.57 332.21 147.52 405.09 128.32 466.15 161.43 466.4 162.22 430.6 165.53 314.74 168.78 240.93 176.57 234.13"/>
  <path class="cls-8" d="m163.18,330.71s-.19-.29-.51-.86c-.34-.63-.8-1.47-1.37-2.54-.57-1.11-1.13-2.55-1.85-4.18-.34-.82-.62-1.73-.96-2.68-.33-.95-.7-1.96-.98-3.04-2.6-8.59-4.33-20.99-3.96-34.66.04-1.06.08-2.11.15-3.15v-.18s.18-.07.18-.07c1.65-.69,3.26-1.37,4.84-2.03l-.07.5c-1.66-1.34-3.28-2.63-4.83-3.88l-.1-.08v-.12c-.23-5.15,1.02-9.79,2.2-13.83,1.22-4.05,2.55-7.53,3.72-10.4,1.17-2.86,2.19-5.1,2.92-6.63.36-.76.65-1.34.85-1.73.2-.39.32-.59.33-.58.02,0-.07.22-.24.62-.19.45-.45,1.03-.77,1.77-.67,1.54-1.64,3.81-2.76,6.68-1.12,2.88-2.4,6.37-3.58,10.4-1.14,4.02-2.34,8.65-2.1,13.64l-.11-.2c1.56,1.25,3.18,2.54,4.84,3.87l.39.31-.46.19c-1.58.67-3.19,1.35-4.84,2.04l.18-.25c-.07,1.02-.11,2.07-.15,3.12-.36,13.61,1.29,25.96,3.77,34.53.26,1.09.62,2.09.93,3.04.33.95.59,1.86.91,2.69.68,1.63,1.21,3.07,1.74,4.2.53,1.08.96,1.94,1.27,2.58.28.59.43.91.41.92Z"/>
  <path class="cls-8" d="m141.48,374.25s-.11-.3-.27-.9c-.16-.65-.38-1.52-.65-2.61-.29-1.13-.61-2.52-.93-4.15-.33-1.63-.74-3.47-1.07-5.53-.36-2.06-.75-4.31-1.06-6.75-.37-2.43-.62-5.04-.92-7.79-.5-5.5-.83-11.57-.84-17.95.03-6.38.39-12.45.9-17.95.3-2.75.57-5.36.95-7.79.32-2.44.71-4.69,1.08-6.75.33-2.06.76-3.9,1.09-5.53.33-1.63.66-3.02.95-4.15.28-1.09.5-1.96.66-2.61.16-.59.25-.9.27-.9.02,0-.03.32-.15.93-.14.65-.32,1.53-.55,2.63-.25,1.14-.56,2.53-.85,4.16-.3,1.63-.69,3.47-1,5.53-.34,2.06-.71,4.31-1.01,6.74-.36,2.42-.6,5.03-.89,7.77-.49,5.49-.82,11.54-.85,17.9,0,6.36.32,12.41.79,17.9.28,2.74.51,5.35.86,7.77.29,2.43.65,4.69.98,6.74.3,2.06.69,3.91.98,5.54.29,1.63.58,3.03.83,4.17.23,1.1.41,1.98.54,2.63.12.6.17.92.15.93Z"/>
  <path class="cls-8" d="m148.96,430.21c.07.03-.4,1.12-1.34,2.78-.94,1.66-2.39,3.88-4.24,6.14-1.85,2.26-3.74,4.11-5.18,5.36-1.44,1.25-2.42,1.92-2.46,1.86-.06-.07.82-.86,2.18-2.18,1.36-1.32,3.18-3.2,5.01-5.43,1.83-2.23,3.31-4.39,4.34-5.98,1.03-1.59,1.62-2.61,1.7-2.56Z"/>
  <path class="cls-3" d="m276.04,246.83c11.81,4.58,20.58,14.72,23.38,27.07,9.04,39.88,24.53,92.93,24.77,110.05.31,21.8-9.22,36.72-21.66,39.47-9.84,2.18-99.03-2.71-99.03-2.71l-4.17-33.23,72.22-10.63-9.89-55.26,9.79-76.54,4.59,1.78Z"/>
  <path class="cls-3" d="m271.45,245.05l-19.97-8.16-21.05-12.33-.13,3.61h0c2.58,4.41,3.47,9.61,2.5,14.63l-17.52,91.39,3.97,66.77,8.15,65.44h63.34l-29.08-68.43,10.27-92.22-.48-60.7Z"/>
  <path class="cls-8" d="m289.95,423.97s-.14.03-.43.06c-.31.03-.74.07-1.28.12-1.12.12-2.79.11-4.94.17-4.3.02-10.54-.09-18.3-.35-15.52-.52-37.13-1.56-61.53-2.97h-.25s-.03-.26-.03-.26c-.5-3.96-1.02-8.13-1.56-12.37-.9-7.17-1.77-14.16-2.61-20.86l-.04-.28.28-.04c22.06-3.21,41.35-6.01,55.15-8.02,6.87-.97,12.38-1.76,16.19-2.3,1.87-.25,3.33-.45,4.35-.59.48-.06.85-.11,1.13-.14.25-.03.38-.04.39-.03s-.13.04-.38.08c-.28.05-.65.11-1.12.19-1.02.16-2.47.39-4.34.69-3.81.58-9.31,1.42-16.17,2.47-13.8,2.06-33.07,4.93-55.12,8.22l.25-.33c.84,6.69,1.72,13.69,2.62,20.86.53,4.24,1.05,8.41,1.55,12.37l-.28-.26c24.39,1.43,45.99,2.54,61.51,3.17,7.76.31,13.99.48,18.28.53,2.14-.02,3.81.02,4.93-.06.54-.03.96-.05,1.28-.07.29-.01.44-.01.44,0Z"/>
  <path class="cls-8" d="m261.08,316s.07.21.16.61c.09.47.21,1.06.35,1.77.3,1.63.7,3.83,1.2,6.53.97,5.6,2.3,13.18,3.76,21.57,1.4,8.4,2.67,16,3.6,21.6.42,2.71.77,4.92,1.02,6.56.1.72.18,1.31.25,1.79.05.41.07.63.05.63-.02,0-.08-.21-.17-.61-.1-.47-.21-1.05-.36-1.77-.3-1.62-.71-3.83-1.21-6.52-1-5.51-2.33-13.14-3.77-21.57-1.44-8.43-2.7-16.07-3.58-21.6-.42-2.71-.76-4.93-1.01-6.56-.1-.72-.17-1.32-.24-1.79-.04-.42-.06-.63-.04-.63Z"/>
  <path class="cls-8" d="m239.61,230.99s.04.07.08.22c.05.18.11.4.18.67.15.59.4,1.46.64,2.6.51,2.27,1.11,5.62,1.52,9.84.42,4.22.6,9.3.38,15.01-.2,5.7-.8,12.01-1.66,18.7l-.03.21-.21.04c-2.08.39-4.29.8-6.53,1.21l.22-.4c.37,1,.76,2.08,1.06,3.2,2.12,7.75,1.19,15.59-.75,22.15-1.97,6.62-4.97,12.1-7.67,16.52-2.72,4.42-5.19,7.82-6.88,10.17-.84,1.14-1.5,2.03-1.98,2.69-.21.28-.39.51-.53.69-.12.15-.19.23-.2.22s.04-.09.15-.26c.13-.19.29-.43.48-.72.46-.67,1.09-1.59,1.89-2.75,1.63-2.39,4.04-5.83,6.71-10.26,2.64-4.43,5.59-9.91,7.5-16.46,1.89-6.5,2.78-14.24.7-21.84-.29-1.09-.67-2.15-1.03-3.14l-.13-.34.35-.06c2.24-.41,4.45-.82,6.53-1.2l-.24.25c.87-6.67,1.5-12.96,1.73-18.64.25-5.68.12-10.75-.25-14.95-.36-4.2-.9-7.55-1.34-9.83-.2-1.15-.43-2.02-.54-2.62-.05-.27-.1-.5-.13-.68-.03-.15-.04-.23-.03-.24Z"/>
  <path class="cls-12" d="m239.61,324.73v-14.58s.19-3.6-2.84-2.84c-3.03.76-2.46,6.44-2.46,6.44,0,0-.57,22.15.76,21.97,1.33-.19,1.83-1.89,1.83-1.89v-8.52l2.71-.57Z"/>
  <path class="cls-8" d="m252.21,325.64c0,.16-3.5.3-7.81.3s-7.81-.13-7.81-.3,3.5-.3,7.81-.3,7.81.13,7.81.3Z"/>
  <path class="cls-8" d="m281.06,255.48s-.58.24-1.63.6c-1.05.39-2.56.97-4.33,1.87-3.53,1.8-8.14,5.06-11.72,9.99-.91,1.22-1.67,2.49-2.3,3.75-.58,1.29-1.06,2.59-1.39,3.86-.69,2.54-.99,4.9-1.16,6.89-.17,1.99-.2,3.61-.22,4.73-.01,1.12,0,1.74-.04,1.74-.04,0-.13-.61-.19-1.74-.06-1.12-.09-2.75.03-4.76.12-2.01.38-4.41,1.05-7,.32-1.3.79-2.63,1.39-3.97.65-1.32,1.43-2.62,2.35-3.86,3.65-5.02,8.39-8.29,12.01-10.01,1.82-.87,3.37-1.4,4.45-1.72,1.09-.3,1.7-.42,1.71-.38Z"/>
  <polygon class="cls-8" points="23.97 376.7 128.32 415.34 216.27 428.79 111.7 377.81 23.97 376.7"/>
  <path class="cls-15" d="m68.63,418.37c-.83-5.56-2.73-10.95-5.56-15.81-.56-.95-1.15-1.9-1.42-2.97-.27-1.07-.15-2.3.59-3.11,1.34-1.46,3.79-.81,5.43.29,3.41,2.28,5.69,5.96,7.03,9.84s1.82,7.99,2.3,12.06"/>
  <g>
    <path class="cls-15" d="m109.3,408.43h-5.19c-1.03-1.09-2.6-2.06-4.55-2.61-1.2-.34-2.37.29-3.43,1.34,2.32-3.82,4.82-8.03,5.3-9.18.93-2.24-1.12-3.92-4.48-3.92s-18.11,20.92-18.11,20.92c0,0,9.17-16.82,10.06-19.39,2.22-6.42-4.8-6.9-7.35-3.8-3.17,3.85-15.96,23.2-15.96,23.2,0,0-2.43,3.92-.75,7.66,1.68,3.73,6.54,2.24,6.54,2.24,0,0-.04,3.27,3.42,5.19,3.75,2.08,8.68-.33,8.68-.33l19.09,4.29s3.03-.31,6.91-.69c9.67-.96,17.44-8.37,18.86-17.98h0s-19.02-6.91-19.02-6.91Z"/>
    <path class="cls-10" d="m96.43,406.87c.21.13-2.32,4.13-5.62,8.92-1.65,2.4-3.18,4.55-4.31,6.08s-1.86,2.46-1.93,2.42c-.07-.05.54-1.06,1.59-2.66,1.04-1.6,2.51-3.78,4.16-6.18,1.65-2.4,3.16-4.55,4.27-6.1.49-.67.93-1.28,1.32-1.83.33-.44.47-.64.52-.65Z"/>
    <path class="cls-10" d="m95.29,428.16c-.08-.04.56-1.25,1.69-3.13,1.13-1.88,2.74-4.45,4.5-7.28.88-1.42,1.73-2.77,2.42-4.02.72-1.2.67-2.53.42-3.54-.56-2.08-1.73-2.97-1.63-3.04.02-.03.32.16.74.62.42.46.96,1.22,1.29,2.31.33,1.06.43,2.57-.34,3.91-.69,1.3-1.52,2.66-2.4,4.08-1.77,2.84-3.43,5.37-4.65,7.19-1.23,1.82-1.98,2.94-2.05,2.9Z"/>
    <path class="cls-10" d="m105.33,430.06c-.08-.02.24-1.2,1.01-2.98.42-.95.87-1.99,1.36-3.11.5-1.17,1.06-2.46,1.4-3.85.34-1.35.11-2.8-.6-3.73-.34-.46-.86-.73-1.36-.97-.49-.23-.99-.38-1.42-.4-.86.04-1.58.51-2.06.72-.48.24-.77.36-.79.32-.02-.04.22-.22.67-.52.23-.15.51-.33.86-.51.35-.17.75-.4,1.31-.42.54-.01,1.08.14,1.63.37.52.23,1.14.52,1.59,1.08.88,1.1,1.12,2.71.76,4.21-.36,1.48-.95,2.77-1.48,3.94-.54,1.17-1.06,2.2-1.48,3.06-.87,1.73-1.32,2.83-1.4,2.8Z"/>
    <path class="cls-10" d="m108.84,412s.31.04.81.25c.5.21,1.21.58,1.99,1.17,1.56,1.15,3.43,3.36,4.11,6.35.66,2.99-.09,5.78-1.02,7.49-.46.87-.94,1.51-1.31,1.91-.37.4-.6.59-.63.57-.09-.07.76-.94,1.56-2.66.8-1.69,1.44-4.36.81-7.17-.63-2.81-2.34-4.95-3.79-6.15-1.45-1.22-2.59-1.65-2.54-1.75Z"/>
  </g>
  <path class="cls-10" d="m75.23,401.02c.14.09-1.8,3.19-4.32,6.92-2.52,3.73-4.68,6.67-4.82,6.58s1.8-3.19,4.32-6.92c2.52-3.73,4.68-6.67,4.82-6.58Z"/>
  <path class="cls-15" d="m199.01,388.73l-11.93-2.7-11.46-10.79c-1.39-1.31-3.2-2.09-5.11-2.2l-20.85-1.2c-2.08-.12-4.13.56-5.72,1.91l-14.91,12.59,65.01,31.69,8.92.79-3.97-30.09Z"/>
  <path class="cls-10" d="m163.67,383.16c-.02.1-1.55-.19-4.02-.5-2.43-.27-6.01-.61-9.44.98-1.71.76-3.18,1.84-4.5,2.81-1.32.99-2.5,1.91-3.55,2.61-1.04.71-1.94,1.2-2.58,1.5-.64.29-1.02.41-1.03.37-.04-.09,1.37-.72,3.36-2.22,1-.74,2.15-1.68,3.46-2.7,1.32-1.01,2.8-2.12,4.59-2.92,1.77-.84,3.65-1.14,5.32-1.19,1.68-.05,3.18.14,4.42.34,1.24.2,2.23.43,2.91.6.68.17,1.05.28,1.04.32Z"/>
  <path class="cls-10" d="m167.95,394.76c-.04.09-.85-.28-2.25-.43-1.39-.16-3.35,0-5.36.75-2.01.74-3.69,1.78-4.91,2.52-1.22.75-1.98,1.2-2.03,1.13-.04-.07.63-.64,1.79-1.48,1.17-.83,2.84-1.95,4.94-2.73,2.1-.77,4.19-.88,5.63-.6,1.45.27,2.22.79,2.19.84Z"/>
  <path class="cls-10" d="m194.78,396.69c-.15.09-1.83-2.4-4.04-5.36-2.21-2.97-4.11-5.29-3.99-5.41.12-.11,2.24,2.06,4.46,5.05,2.23,2.99,3.7,5.64,3.56,5.72Z"/>
  <path class="cls-12" d="m161.95,373.07l26.43-24.62c1.14-1.06,1.05-2.9-.18-3.85h0c-.96-.74-2.32-.69-3.22.12l-30.99,27.79"/>
  <path class="cls-6" d="m161.95,373.07l26.43-24.62c1.14-1.06,1.05-2.9-.18-3.85h0c-.96-.74-2.32-.69-3.22.12l-30.99,27.79"/>
  <path class="cls-14" d="m377.88,135.9c-.41-.16-16.41-4.36-15.44,11.82.97,16.18,17.01,11.87,17.02,11.41,0-.47-1.57-23.23-1.57-23.23Z"/>
  <path class="cls-5" d="m374.14,153.29c-.07-.05-.27.21-.73.46-.45.24-1.24.44-2.1.17-1.75-.52-3.35-3.15-3.6-6.06-.13-1.47.09-2.89.55-4.08.42-1.21,1.14-2.09,1.99-2.29.84-.25,1.48.23,1.71.67.24.44.16.77.25.79.05.04.33-.29.16-.95-.09-.32-.3-.69-.7-.98-.41-.29-.99-.42-1.58-.32-1.24.16-2.3,1.38-2.79,2.69-.57,1.32-.85,2.92-.71,4.57.3,3.25,2.15,6.21,4.53,6.74,1.16.23,2.09-.17,2.55-.58.48-.43.54-.8.48-.82Z"/>
  <path class="cls-8" d="m418.29,78.08c8.22,0,16.59,0,26.89,5.37,6.49,3.39,10.54,8.76,13.92,15.26,2.59,4.97,4.12,11.48,3.83,17.08-.3,5.6-.32,9.51-2.55,14.65"/>
  <g>
    <g>
      <path class="cls-14" d="m415,79.35c24.33-1.7,45.35,16.87,46.62,41.23,1.06,20.27,1.99,42.2,1.77,53.24-.48,23.7-24.21,27.19-24.21,27.19,0,0,.52,7.03,1.11,15.74,1.18,17.56-12.38,32.63-29.96,33.29h0c-17.24.65-31.74-12.8-32.37-30.04l-3.53-95.51c-.87-23.53,17.08-43.51,40.57-45.15h0Z"/>
      <path class="cls-5" d="m439.18,201.02s-14.56.76-30.4-9.37c0,0,7.17,17.24,30.83,15.3l-.43-5.93Z"/>
    </g>
    <g>
      <g>
        <g>
          <path class="cls-8" d="m452.55,133.77c.05,1.79-1.42,3.3-3.29,3.39-1.86.08-3.42-1.29-3.46-3.08-.05-1.79,1.42-3.31,3.29-3.39,1.87-.09,3.42,1.29,3.47,3.08Z"/>
          <path class="cls-8" d="m455.83,128.98c-.42.44-2.97-1.48-6.61-1.5-3.64-.07-6.32,1.78-6.72,1.33-.19-.2.24-.99,1.41-1.83,1.15-.83,3.11-1.64,5.38-1.61,2.27.03,4.17.88,5.26,1.74,1.11.87,1.49,1.67,1.28,1.87Z"/>
        </g>
        <g>
          <path class="cls-8" d="m416.83,133.77c.05,1.79-1.43,3.3-3.29,3.39-1.86.09-3.42-1.29-3.46-3.08-.05-1.79,1.42-3.31,3.29-3.39,1.87-.09,3.42,1.29,3.47,3.08Z"/>
          <path class="cls-8" d="m420.03,129.37c-.42.44-2.98-1.48-6.61-1.5-3.64-.07-6.33,1.78-6.72,1.33-.19-.2.24-.99,1.41-1.83,1.15-.84,3.11-1.64,5.38-1.61,2.27.03,4.17.88,5.26,1.74,1.11.87,1.49,1.67,1.28,1.87Z"/>
        </g>
        <path class="cls-8" d="m433.03,156.49c-.01-.21,2.25-.58,5.92-1.02.93-.09,1.81-.27,1.97-.9.22-.67-.16-1.68-.6-2.76-.86-2.26-1.75-4.62-2.69-7.1-3.74-10.11-6.44-18.43-6.03-18.57.41-.15,3.77,7.93,7.51,18.04.9,2.49,1.76,4.87,2.58,7.15.34,1.06.94,2.26.45,3.65-.26.69-.94,1.19-1.54,1.35-.6.18-1.12.18-1.58.21-3.69.17-5.98.17-6-.04Z"/>
        <path class="cls-8" d="m422.29,158.92c.59-.03.57,3.92,3.93,6.76,3.36,2.84,7.57,2.43,7.6,2.98.05.25-.94.76-2.72.79-1.75.05-4.29-.53-6.35-2.27-2.05-1.74-2.92-4.04-3.04-5.66-.14-1.65.31-2.63.58-2.6Z"/>
      </g>
      <path class="cls-8" d="m421.08,115.11c-.37.99-4,.49-8.28.97-4.29.39-7.74,1.62-8.3.73-.25-.43.36-1.35,1.76-2.3,1.39-.95,3.6-1.84,6.17-2.1,2.57-.26,4.91.17,6.46.81,1.56.64,2.35,1.43,2.19,1.9Z"/>
      <path class="cls-8" d="m455.32,116.01c-.65.82-3.15-.06-6.17-.12-3.01-.17-5.58.51-6.16-.36-.25-.42.15-1.25,1.28-2.02,1.11-.77,2.95-1.39,5.02-1.32,2.07.08,3.86.85,4.91,1.7,1.06.86,1.4,1.71,1.12,2.12Z"/>
    </g>
  </g>
  <path class="cls-8" d="m374.71,131.9s1.03,5.48,1.31,7.95c.1.9-.02,10.94,2.42,11.45,2.1.43,6.27-1.48,8.12-5.63,1.86-4.15,5.39-14.12,5.01-18.65-.52-6.18-.81-12.46.43-18.54,1.24-6.08,4.14-12.01,9.03-15.83,4.89-3.82,11.93-5.16,17.47-2.38,3.42,1.72,5.98,4.76,9.17,6.88,2.87,1.91,6.37,3.05,9.77,2.54,3.41-.51,6.62-2.88,7.55-6.19,1.02-3.62-.85-7.58-3.74-9.97-2.89-2.4-6.64-3.49-10.32-4.23-10.22-2.03-21.06-1.63-30.77,2.15-9.71,3.77-18.33,11.02-22.48,20.58-4.8,11.05-4.24,17.83-2.97,29.87"/>
  <path class="cls-8" d="m428.88,133.92c-.09,0,.01-1.44-.62-3.9-.62-2.42-2.23-5.98-5.87-8.73-1.8-1.34-4.07-2.49-6.69-2.94-2.6-.44-5.53-.36-8.32.71-1.4.49-2.76,1.23-4,2.16-1.26.91-2.4,2.05-3.34,3.36-1.94,2.59-3.04,5.92-3.07,9.34.03,3.43,1.13,6.76,3.07,9.35.94,1.31,2.08,2.45,3.34,3.36,1.24.93,2.6,1.67,4,2.16,2.79,1.06,5.72,1.15,8.32.71,2.62-.46,4.89-1.6,6.69-2.94,3.64-2.75,5.25-6.31,5.87-8.73.63-2.47.52-3.91.62-3.9.01,0,.02.09.02.26,0,.21,0,.46,0,.77,0,.34-.02.76-.1,1.25-.06.49-.13,1.06-.3,1.68-.56,2.47-2.14,6.14-5.84,9.01-1.83,1.4-4.16,2.6-6.85,3.09-2.68.48-5.7.41-8.6-.68-1.46-.5-2.86-1.26-4.15-2.22-1.31-.94-2.49-2.11-3.47-3.47-2.02-2.68-3.17-6.14-3.2-9.69.03-3.56,1.18-7.01,3.2-9.69.98-1.36,2.17-2.53,3.47-3.47,1.29-.96,2.7-1.72,4.15-2.22,2.89-1.09,5.92-1.16,8.6-.68,2.69.49,5.02,1.69,6.85,3.09,3.7,2.87,5.28,6.54,5.84,9.01.18.62.24,1.19.3,1.68.08.49.1.91.1,1.25,0,.31,0,.56,0,.77,0,.17,0,.26-.02.26Z"/>
  <path class="cls-8" d="m470.6,133.92c-.09,0,.01-1.44-.62-3.9-.62-2.42-2.23-5.98-5.87-8.73-1.8-1.34-4.07-2.49-6.69-2.94-2.6-.44-5.53-.36-8.32.71-1.4.49-2.76,1.23-4,2.16-1.26.91-2.4,2.05-3.34,3.36-1.95,2.59-3.04,5.92-3.07,9.34.03,3.43,1.13,6.76,3.07,9.35.94,1.31,2.08,2.45,3.34,3.36,1.24.93,2.6,1.67,4,2.16,2.79,1.06,5.72,1.15,8.32.71,2.62-.46,4.89-1.6,6.69-2.94,3.64-2.75,5.25-6.31,5.87-8.73.63-2.47.52-3.91.62-3.9.01,0,.02.09.02.26,0,.21,0,.46,0,.77,0,.34-.02.76-.1,1.25-.06.49-.13,1.06-.3,1.68-.56,2.47-2.14,6.14-5.84,9.01-1.83,1.4-4.16,2.6-6.85,3.09-2.68.48-5.7.41-8.6-.68-1.46-.5-2.86-1.26-4.15-2.22-1.31-.94-2.49-2.11-3.47-3.47-2.02-2.68-3.17-6.14-3.2-9.69.03-3.56,1.18-7.01,3.2-9.69.98-1.36,2.17-2.53,3.47-3.47,1.29-.96,2.7-1.72,4.15-2.22,2.89-1.09,5.92-1.16,8.6-.68,2.69.49,5.02,1.69,6.85,3.09,3.7,2.87,5.28,6.54,5.84,9.01.18.62.24,1.19.3,1.68.08.49.1.91.1,1.25,0,.31,0,.56,0,.77,0,.17,0,.26-.02.26Z"/>
  <path class="cls-8" d="m438.77,132.2c-.05.08-.58-.21-1.49-.51-.9-.3-2.21-.56-3.65-.47-1.44.1-2.7.52-3.56.94-.86.42-1.34.78-1.41.71-.05-.05.35-.54,1.2-1.08.84-.54,2.18-1.07,3.72-1.17,1.54-.1,2.94.24,3.84.67.92.42,1.37.85,1.33.91Z"/>
  <path class="cls-8" d="m445.23,92.22c.23-1.23-.17-1.92.52-2.42.79-.57,2.28.93,2.83,1.53.17.19.73-.56.95-.7.17-.12.44-1.36.42-1.57-.1-.86-1.45-1.09-2.08-1.67-.63-.58-1.42-.98-2.23-1.27-.71-.25-1.59-.39-2.14.13-.42.39-.49,1.03-.48,1.6.02.57.09,1.15.32,1.67.23.52.62.99,1.14,1.22"/>
  <path class="cls-3" d="m373.83,119.3s11.62,4.26,17.67,6.82l-.34-5.94-16.9-6.69s-.43,4.41-.42,5.81Z"/>
  <path class="cls-3" d="m374.91,110.07c.06-.15,3.75,1.26,8.23,3.15,4.48,1.89,8.06,3.55,7.99,3.7-.06.15-3.75-1.26-8.23-3.15-4.48-1.89-8.06-3.55-7.99-3.7Z"/>
  <path class="cls-13" d="m378.41,235.25l-.9-28.12s5.59,25.74,34.85,25.4c27.97-.32,27.46-22.68,27.46-22.68l1,11.33v45.79l-18.24,74.7-23.29,2.96-25.75-102.11,4.88-7.27Z"/>
  <path class="cls-8" d="m437.22,226.25s-.1.22-.34.6c-.26.37-.56.97-1.11,1.63-1.01,1.39-2.72,3.23-5.21,5.04-2.48,1.83-5.81,3.49-9.73,4.57-3.92,1.07-8.46,1.49-13.13.91-4.66-.63-8.95-2.05-12.61-3.8-3.67-1.74-6.75-3.73-9.21-5.55-2.46-1.82-4.33-3.45-5.58-4.62-.63-.57-1.09-1.05-1.41-1.37-.32-.32-.48-.5-.46-.51s.2.13.54.42c.39.34.88.76,1.49,1.28,1.29,1.11,3.2,2.68,5.67,4.45,2.47,1.77,5.55,3.71,9.2,5.39,3.63,1.7,7.87,3.08,12.45,3.7,4.58.57,9.04.17,12.91-.85,3.87-1.04,7.16-2.63,9.63-4.38,2.48-1.74,4.22-3.51,5.27-4.84,1.07-1.32,1.58-2.12,1.63-2.09Z"/>
  <path class="cls-3" d="m416.91,466.32l-.42-132.74-37.69-96.88-1.27-29.16-22.97,17.37s-33.44,115.09-33.96,111.1c-.52-3.99-.01,130.29-.01,130.29h96.32Z"/>
  <path class="cls-8" d="m416.01,465.95c-.17,0-.3-29.91-.3-66.8s.13-66.8.3-66.8.3,29.9.3,66.8-.13,66.8-.3,66.8Z"/>
  <polygon class="cls-2" points="354.9 243.88 359.56 247.41 356.28 268.89 411.3 326.52 361.33 260.89 365.59 243.88 354.9 243.88"/>
  <path class="cls-3" d="m418.98,398.32l-84.44-24.76-2.8-64.14,23.16-84.5s-55.21,27.54-58.96,45.07c-3.76,17.53-12.81,60.13-13.78,90.93-.86,27.53-.99,45.94,5.3,54.73,18.01,25.17,136.67,29.67,184.08-.04"/>
  <path class="cls-8" d="m412.37,327.91s-.1-.1-.27-.31c-.19-.24-.44-.55-.76-.95-.68-.87-1.64-2.1-2.87-3.67-2.49-3.23-6.06-7.87-10.46-13.58-8.8-11.53-20.93-27.4-34.33-44.94-.87-1.14-1.73-2.27-2.58-3.39l-.09-.11.03-.14c1.48-5.88,2.91-11.57,4.27-17.01l.28.36c-3.69,0-7.26,0-10.69-.01h-.27s0-.27,0-.27c.02-6.95.03-13.32.04-18.96v-.11s.09-.07.09-.07c6.96-5.29,12.64-9.6,16.6-12.61,1.95-1.47,3.48-2.61,4.56-3.42.51-.37.9-.66,1.2-.88.27-.2.42-.29.42-.28,0,0-.12.12-.38.34-.29.23-.67.54-1.16.93-1.05.83-2.56,2.01-4.48,3.52-3.93,3.05-9.56,7.41-16.47,12.77l.09-.18c.01,5.64.03,12.01.04,18.96l-.27-.27c3.43,0,7,0,10.69-.01h.37s-.09.36-.09.36c-1.36,5.44-2.78,11.14-4.25,17.01l-.05-.25c.85,1.12,1.72,2.25,2.58,3.39,13.34,17.58,25.42,33.49,34.19,45.04,4.34,5.76,7.85,10.43,10.31,13.69,1.19,1.6,2.12,2.86,2.78,3.74.3.41.53.74.71.98.16.22.23.34.23.35Z"/>
  <path class="cls-3" d="m450.01,219.93c-6.74-11.78-10.23-10.55-10.23-10.55l.35,4.2v8.82s-3.18,37.85-3.18,37.85l-20.46,82.24.42,123.83h77.33l9.63-151.16-.87-65.12-52.99-30.11Z"/>
  <path class="cls-3" d="m503,250.04s20.02,14.78,21.75,38.55c1.41,19.31,4.64,72.18,5.22,83.69.91,17.93-13.05,59.9-49.39,48.01-21.79-7.13-102.31-34.5-102.31-34.5l5.36-34.19,95.57,5.69,1.9-79.71,21.9-27.54Z"/>
  <path class="cls-14" d="m382.54,355.54s-27.05-2.92-33.31-1.41c-6.02,1.45-14.59,8.82-14.59,8.82l.12,10.69,43.52,12.16,4.27-30.26Z"/>
  <path class="cls-8" d="m416.49,330.13s.03-.13.12-.37c.1-.27.24-.62.41-1.06.38-.96.93-2.31,1.62-4.04,1.44-3.54,3.51-8.59,6.05-14.82,2.58-6.26,5.65-13.7,9.05-21.95.86-2.06,1.71-4.2,2.77-6.3,1.02-2.12,2.22-4.19,3.46-6.29,2.54-4.16,5.43-8.31,8.59-12.39,1.56-2.01,3.13-3.97,4.76-5.85l-.05.3c-1.15-2.92-2.27-5.78-3.37-8.57l-.11-.28.29-.1c4.94-1.68,9.66-3.28,14.1-4.79l-.15.39c-6.54-10.92-12.07-20.15-15.98-26.68-1.93-3.24-3.59-5.82-5.34-6.89-.86-.53-1.63-.74-2.14-.87-.51-.12-.79-.17-.78-.19,0,0,.28,0,.8.1.52.1,1.31.28,2.21.8.91.52,1.82,1.44,2.71,2.63.89,1.19,1.84,2.6,2.81,4.23,3.96,6.51,9.56,15.71,16.18,26.58l.17.29-.32.11c-4.44,1.52-9.15,3.14-14.08,4.83l.18-.38c1.1,2.79,2.23,5.65,3.38,8.56l.07.17-.12.14c-1.61,1.86-3.18,3.82-4.73,5.82-3.15,4.07-6.02,8.2-8.56,12.33-1.24,2.08-2.44,4.14-3.45,6.24-1.06,2.08-1.9,4.19-2.77,6.25-3.45,8.24-6.55,15.66-9.17,21.91-2.62,6.2-4.74,11.23-6.23,14.75-.74,1.71-1.31,3.05-1.72,4-.19.43-.34.77-.46,1.03-.11.23-.17.35-.18.34Z"/>
  <path class="cls-8" d="m513.98,413.64s-.11.13-.34.35c-.25.24-.59.58-1.03,1-.92.86-2.37,2.04-4.39,3.33-2.05,1.24-4.73,2.52-8.04,3.37-3.3.86-7.24,1.19-11.52.73-2.14-.24-4.35-.71-6.59-1.4-2.24-.71-4.49-1.59-6.86-2.43-4.72-1.71-9.79-3.5-15.12-5.37-10.66-3.73-22.42-7.73-34.81-11.8-24.78-8.14-47.38-15-63.76-19.89-8.17-2.42-14.8-4.38-19.41-5.74-2.27-.67-4.04-1.2-5.28-1.57-.58-.18-1.03-.32-1.37-.42-.31-.1-.46-.15-.46-.16,0,0,.16.03.48.1.34.09.8.21,1.38.37,1.24.34,3.03.83,5.31,1.46,4.6,1.28,11.26,3.17,19.47,5.56,16.41,4.79,39.03,11.59,63.83,19.73,12.39,4.07,24.15,8.08,34.81,11.84,5.33,1.89,10.39,3.69,15.1,5.42,2.36.84,4.64,1.74,6.83,2.45,2.21.69,4.39,1.17,6.5,1.42,4.22.47,8.11.18,11.39-.64,3.28-.81,5.95-2.04,8-3.25,2.03-1.25,3.49-2.39,4.43-3.22.45-.4.81-.72,1.07-.95.24-.21.37-.32.38-.31Z"/>
  <path class="cls-8" d="m334.76,373.82c-.02.12-1.52-.2-3.94-.11-1.21.05-2.64.25-4.18.69-1.53.46-3.15,1.16-4.7,2.14-3.12,2-5.25,4.68-6.54,6.72-1.28,2.07-1.84,3.49-1.94,3.44-.04-.02.08-.38.32-1.02.23-.65.66-1.56,1.26-2.64,1.22-2.14,3.36-4.94,6.58-7.01,1.61-1.02,3.29-1.72,4.88-2.17,1.59-.43,3.08-.58,4.32-.58,1.24,0,2.24.11,2.92.26.68.13,1.05.23,1.04.27Z"/>
  <path class="cls-8" d="m308.16,365.44s.02-.11.11-.3c.09-.19.25-.46.53-.75.53-.61,1.59-1.22,3-1.49,1.41-.3,3.12-.23,4.96.01,1.85.24,3.86.7,5.88,1.43,4.07,1.44,7.33,3.73,9.33,5.71,1,1,1.71,1.89,2.16,2.53.44.65.66,1.02.63,1.05-.1.07-1.04-1.4-3.08-3.27-2.03-1.87-5.25-4.05-9.24-5.45-1.99-.71-3.95-1.18-5.76-1.45-1.81-.27-3.46-.37-4.81-.14-1.35.21-2.36.72-2.91,1.24-.56.51-.75.92-.8.89Z"/>
  <path class="cls-8" d="m339.68,291.78s-.18-.62-.39-1.74c-.17-.54-.42-1.2-.68-1.96-.37-.72-.73-1.58-1.25-2.45-1.03-1.77-2.48-3.73-4.3-5.73-1.87-1.95-4.05-3.99-6.59-5.8-5.08-3.65-10.42-5.79-14.42-6.62-2.01-.36-3.65-.62-4.8-.61-1.15-.05-1.78-.1-1.79-.15,0-.04.63-.07,1.79-.09,1.16-.08,2.83.12,4.88.43,4.08.73,9.54,2.85,14.69,6.55,2.58,1.83,4.78,3.92,6.65,5.91,1.82,2.05,3.27,4.07,4.27,5.89.51.9.85,1.79,1.19,2.54.24.79.46,1.47.6,2.03.14,1.16.2,1.79.16,1.79Z"/>
  <path class="cls-8" d="m500,389.85s-.02-.14-.03-.41c0-.3-.02-.7-.03-1.2-.03-1.05-.07-2.61-.23-4.6-.33-3.97-1.01-9.79-3.4-16.53-.59-1.68-1.27-3.44-2.32-5.05-1.03-1.62-2.57-2.98-4.47-3.79-3.84-1.66-8.47-1.44-13.17-1.7-9.47-.4-19.87-.84-30.79-1.29-25.45-1.11-48.08-2.06-62.3-2.82l.19-.15c-.86,5.22-1.54,9.37-2.01,12.24-.24,1.39-.43,2.47-.56,3.24-.06.34-.12.62-.16.83-.04.19-.06.28-.07.28,0,0,0-.1.02-.29.03-.22.06-.49.11-.84.11-.77.27-1.86.46-3.26.43-2.88,1.06-7.04,1.85-12.27l.02-.16h.17c14.28.6,36.89,1.54,62.31,2.6,10.92.48,21.32.93,30.79,1.34,2.37.12,4.67.17,6.92.36,2.24.2,4.45.57,6.42,1.44,1.98.85,3.61,2.31,4.66,4,1.08,1.68,1.74,3.47,2.33,5.16,2.35,6.81,2.97,12.67,3.23,16.65.12,2,.12,3.56.12,4.62-.01.5-.03.9-.03,1.2-.01.27-.02.41-.03.41Z"/>
  <path class="cls-8" d="m481.78,315.04c.17,0,.3,9.26.3,20.67s-.13,20.67-.3,20.67-.3-9.25-.3-20.67.13-20.67.3-20.67Z"/>
  <path class="cls-8" d="m296.6,267.92s-.07.26-.24.76c-.15.5-.45,1.23-.69,2.24-.56,1.99-1.26,4.95-2.05,8.82-1.6,7.73-3.57,19.04-5.77,33.2-1.1,7.08-2.26,14.87-3.41,23.3-.58,4.21-.95,8.59-1.25,13.13-.3,4.54-.54,9.23-.72,14.05-.35,9.64-.55,19.83-.27,30.45.08,2.65.18,5.33.4,8.03.07,1.35.29,2.68.46,4.03.28,1.32.53,2.67.98,3.96.82,2.6,2.07,5.1,3.8,7.26,1.72,2.14,3.97,4,6.52,5.02h.04s.01.02.01.02c5.29,2.73,11.09,4.72,17.01,6.5,5.93,1.78,12.06,3.21,18.28,4.49,13.92,2.84,27.73,4.51,41.07,5,6.67.2,13.22-.05,19.61-.51,6.39-.44,12.61-1.11,18.64-2,12.06-1.74,23.3-4.42,33.45-7.78,10.16-3.35,19.2-7.42,27.05-11.61l.03.37c-15.75-5.58-28.39-10.05-37.11-13.14-4.34-1.55-7.7-2.75-9.99-3.57-1.13-.41-1.99-.72-2.58-.94-.58-.21-.87-.34-.87-.34,0,0,.3.09.89.28.6.2,1.47.5,2.6.88,2.3.8,5.67,1.96,10.03,3.47,8.74,3.05,21.4,7.46,37.17,12.96l.44.15-.41.22c-7.85,4.23-16.91,8.33-27.09,11.71-10.18,3.39-21.45,6.09-33.53,7.85-6.04.9-12.28,1.58-18.68,2.03-6.4.47-12.97.73-19.66.53-13.38-.48-27.22-2.15-41.17-5-6.24-1.28-12.38-2.72-18.33-4.5-5.94-1.79-11.76-3.78-17.12-6.55l.05.02c-2.75-1.1-5.01-3-6.79-5.22-1.78-2.23-3.05-4.8-3.9-7.45-.46-1.32-.71-2.69-.99-4.04-.17-1.37-.39-2.73-.46-4.08-.22-2.71-.31-5.4-.39-8.06-.27-10.64-.05-20.83.32-30.48.18-4.83.44-9.52.75-14.06.31-4.54.69-8.94,1.29-13.16,1.17-8.42,2.36-16.21,3.48-23.29,2.26-14.16,4.28-25.46,5.95-33.18.82-3.86,1.56-6.83,2.16-8.81.26-1,.57-1.73.74-2.23.18-.5.29-.74.29-.74Z"/>
  <path class="cls-2" d="m334.64,365.89c14.12-15.63,13.5-43.43,5.4-63.16-.75,21.37-3.27,40.32-5.2,61.08"/>
  <path class="cls-8" d="m340.06,306.74s.02.24,0,.68c-.03.51-.08,1.16-.13,1.95-.14,1.77-.33,4.2-.56,7.17-.5,6.12-1.19,14.45-1.95,23.64-.72,9.2-1.37,17.53-1.85,23.65-.22,2.97-.41,5.4-.54,7.17-.07.79-.12,1.44-.17,1.95-.05.45-.08.68-.1.68-.02,0-.03-.24-.02-.68.01-.51.03-1.16.06-1.95.06-1.7.18-4.15.35-7.18.35-6.06.93-14.43,1.68-23.67.75-9.23,1.52-17.59,2.12-23.63.31-2.96.57-5.38.75-7.15.1-.79.18-1.43.24-1.94.06-.44.1-.67.12-.67Z"/>
  <path class="cls-8" d="m374.87,278.49c.16,0,.3,5.43.3,12.12s-.13,12.12-.3,12.12-.3-5.43-.3-12.12.13-12.12.3-12.12Z"/>
  <path class="cls-2" d="m365.67,318.77c.21,2.47,1.27,4.7,2.6,6.43s4.02,3.41,6.2,3.29c0,0,5.42.46,8.34-4.18,2.64-4.21,3.29-12.96,1.18-18.13-1.46-3.56-4.73-6.87-8.58-6.96-5.05-.12-8.21,3.53-9.29,7.22"/>
  <path class="cls-8" d="m366.12,306.43s.11-.96.93-2.47c.41-.75,1.01-1.63,1.89-2.48.88-.85,2.08-1.64,3.57-2.1.74-.22,1.55-.37,2.4-.38.84-.04,1.75.06,2.63.35,1.76.57,3.39,1.78,4.69,3.36,1.31,1.57,2.28,3.57,2.75,5.74.49,2.16.64,4.46.51,6.8-.23,3.59-.94,7.17-2.93,9.9-1.01,1.34-2.38,2.31-3.81,2.87-1.44.57-2.9.79-4.31.73h.03c-1.16.05-2.19-.33-3.09-.77-.9-.46-1.67-1.01-2.32-1.62-1.3-1.24-2.02-2.63-2.53-3.77-.5-1.16-.71-2.13-.8-2.79-.05-.33-.07-.58-.07-.76,0-.17,0-.26,0-.26.09-.02.08,1.44,1.12,3.69.53,1.09,1.29,2.45,2.54,3.59.64.57,1.39,1.09,2.25,1.51.86.4,1.85.73,2.87.68h0s.03,0,.03,0c2.59.09,5.73-.91,7.62-3.45,1.85-2.56,2.56-6.07,2.78-9.59.25-4.54-.51-9.11-3.1-12.15-1.23-1.52-2.77-2.69-4.41-3.24-.82-.28-1.65-.38-2.46-.36-.81,0-1.58.13-2.29.33-1.43.41-2.6,1.13-3.46,1.94-.88.8-1.49,1.64-1.92,2.35-.87,1.45-1.07,2.38-1.14,2.36Z"/>
  <path class="cls-2" d="m362.99,318.99c.21,2.47,1.27,4.7,2.6,6.43,1.33,1.72,4.02,3.41,6.2,3.29,0,0,5.42.46,8.34-4.18,2.64-4.21,3.29-12.96,1.18-18.13-1.46-3.56-4.73-6.87-8.58-6.96-5.05-.12-8.21,3.53-9.29,7.22"/>
  <path class="cls-8" d="m363.43,306.66s.11-.96.93-2.47c.41-.75,1.01-1.63,1.89-2.48.88-.85,2.08-1.64,3.57-2.1.74-.22,1.55-.37,2.4-.38.84-.04,1.75.06,2.63.35,1.76.57,3.39,1.78,4.69,3.36,1.31,1.57,2.28,3.57,2.75,5.74.49,2.16.64,4.46.51,6.8-.23,3.59-.94,7.17-2.93,9.9-1.01,1.34-2.38,2.31-3.81,2.87-1.44.57-2.9.79-4.31.73h.03c-1.16.05-2.19-.33-3.09-.77-.9-.46-1.67-1.01-2.32-1.62-1.3-1.24-2.02-2.63-2.53-3.77-.5-1.16-.71-2.13-.8-2.79-.05-.33-.07-.58-.07-.76,0-.17,0-.26,0-.26.09-.02.08,1.44,1.12,3.69.53,1.09,1.29,2.45,2.54,3.59.64.57,1.39,1.09,2.25,1.51.86.4,1.85.73,2.87.68h0s.03,0,.03,0c2.59.09,5.73-.91,7.62-3.45,1.85-2.56,2.56-6.07,2.78-9.59.25-4.54-.51-9.11-3.1-12.15-1.23-1.52-2.77-2.69-4.41-3.24-.82-.28-1.65-.38-2.46-.36-.81,0-1.58.13-2.29.33-1.43.41-2.6,1.13-3.46,1.94-.88.8-1.49,1.64-1.92,2.35-.87,1.45-1.07,2.38-1.14,2.36Z"/>
  <path class="cls-2" d="m367.86,305.36c-2.51-.5-5.1,1.22-6.16,3.55-1.06,2.33-.83,5.07.01,7.49.43,1.23,1.02,2.43,1.91,3.37s2.12,1.63,3.42,1.66c1.91.06,3.63-1.24,4.74-2.8,1.79-2.51,2.4-5.82,1.62-8.8-.52-1.99-1.99-4.03-4.04-4.08"/>
  <path class="cls-8" d="m369.35,305.76s.16-.04.46-.01c.3.03.74.14,1.24.42,1.01.56,2.16,1.94,2.62,3.95.49,1.97.43,4.54-.71,7.02-.57,1.22-1.39,2.45-2.57,3.38-1.15.93-2.82,1.53-4.43,1.06-1.58-.44-2.79-1.62-3.54-2.89-.76-1.28-1.2-2.64-1.47-3.96-.55-2.64-.1-5.26,1.15-6.93,1.23-1.69,2.88-2.4,4-2.54.57-.09,1.01-.04,1.31,0,.29.06.44.1.44.12,0,.07-.63-.12-1.71.11-1.06.21-2.59.94-3.7,2.56-1.12,1.59-1.51,4.05-.95,6.58.28,1.26.72,2.58,1.43,3.77.71,1.18,1.81,2.23,3.2,2.62,1.38.4,2.84-.09,3.91-.95,1.09-.85,1.88-1.99,2.43-3.15,1.11-2.34,1.21-4.79.79-6.7-.39-1.92-1.43-3.26-2.33-3.84-.92-.6-1.59-.54-1.58-.61Z"/>
  <path class="cls-8" d="m373.64,324.22c-.09.02-.22-.36-.61-.82-.38-.46-1.07-.98-1.96-1.26-.89-.28-1.77-.32-2.41-.37-.64-.05-1.05-.1-1.05-.18,0-.08.39-.18,1.05-.24.65-.05,1.59-.08,2.59.23,1.01.31,1.78.98,2.12,1.58.36.61.33,1.06.27,1.07Z"/>
  <path class="cls-8" d="m374.54,303.8c.05.05-.18.41-.71.83-.53.42-1.39.87-2.42,1.06-1.03.18-1.99.07-2.64-.14-.65-.21-.99-.46-.96-.53.06-.17,1.59.45,3.49.09,1.91-.32,3.12-1.44,3.23-1.3Z"/>
  <path class="cls-8" d="m453.37,221.63s.14.03.38.14c.24.11.59.27,1.02.53.87.49,2.09,1.28,3.44,2.46,2.71,2.31,5.87,6.39,7.38,11.68,1.59,5.2,2.44,10.07,2.81,13.6.2,1.77.31,3.2.37,4.19.06.99.07,1.54.03,1.55s-.13-.54-.26-1.52c-.15-1.1-.34-2.49-.56-4.16-.48-3.51-1.39-8.31-2.97-13.49-1.48-5.18-4.5-9.19-7.09-11.54-2.59-2.39-4.62-3.33-4.55-3.44Z"/>
  <path class="cls-8" d="m439.08,347.91c3.32-.13,5.98-3.44,9.3-3.27,2.46.13,4.57,2.55,4.36,5.01-.21,2.46-2.69,4.49-5.14,4.2-3.49-.41-5.53-4.5-8.96-5.28"/>
  <path class="cls-8" d="m467.28,350.74c-1,0-2.03-.09-3.11-.26l.18-1.13c4.11.66,7.56-.02,10.26-2,3.4-2.49,5.58-6.96,6.5-13.27l.04-.24c.38-2.5.89-51.57.9-60.88,0-14.55-12.77-16.54-13.32-16.61-.52-.1-12.13-2.03-18.29,13.86-6.45,16.64-16.76,48.72-17.44,52.48-.08.46-.21,1.03-.36,1.69-1.07,4.81-3.3,14.83,3.38,20.6,7.45,6.43,13.32,3.94,13.56,3.83l.47,1.05c-.27.12-6.75,2.92-14.78-4.01-7.2-6.22-4.87-16.68-3.75-21.71.14-.64.27-1.2.35-1.65.69-3.79,11.04-36,17.5-52.68,6.52-16.82,19.41-14.6,19.54-14.58.12.02,14.28,2.18,14.28,17.75,0,7.67-.51,58.4-.91,61.05l-.03.24c-.97,6.62-3.31,11.34-6.96,14.03-2.24,1.64-4.92,2.47-8.01,2.47Z"/>
  <path class="cls-8" d="m482.62,282.34c-.15.05-.34-2.45-2.39-5.72-1.02-1.62-2.53-3.37-4.53-4.91-2.01-1.53-4.53-2.83-7.37-3.48-5.73-1.32-11.18.11-14.52,1.89-3.42,1.78-4.95,3.73-5.05,3.62-.02-.01.07-.13.26-.35.2-.21.45-.55.86-.92.77-.77,2.02-1.77,3.73-2.72,1.71-.96,3.91-1.82,6.47-2.28,2.55-.47,5.46-.51,8.39.17,2.93.68,5.52,2.03,7.57,3.63,2.04,1.61,3.56,3.44,4.56,5.12,1,1.69,1.53,3.2,1.77,4.27.15.52.18.95.23,1.23.04.28.05.43.03.44Z"/>
  <path class="cls-8" d="m511.83,374.05c-.12.03-.32-1.98-1.57-4.89-1.24-2.88-3.72-6.71-7.78-9.34-2.01-1.31-4.26-1.91-6.31-2.28-2.07-.34-3.96-.47-5.56-.58-1.5-.1-2.76-.19-3.78-.26-.89-.08-1.38-.15-1.38-.19,0-.04.5-.05,1.39-.04,1.02.02,2.29.04,3.79.07,1.6.06,3.51.14,5.62.46,2.1.34,4.44.95,6.55,2.32,4.2,2.72,6.69,6.7,7.85,9.68.59,1.51.91,2.78,1.05,3.67.15.89.17,1.39.14,1.39Z"/>
  <path class="cls-14" d="m453.96,354.91s11.28-17.09,14.16-19.33c2.88-2.24,27.51-13.35,30.39-11.57s1.11,5.67,1.11,5.67c0,0,10.43-3.65,11.53-2.21,1.11,1.44,1.33,3.88,0,5.88,0,0,5.77-.89,5.77.89s-.67,3.99-3.33,5.99c-2.66,2-19.97,13.52-21.36,16.7l-5.61-.34-32.67-1.67Z"/>
  <path class="cls-5" d="m486.43,350.02s.14-.41.51-1.08c.38-.67.99-1.6,1.85-2.67,1.71-2.15,4.58-4.74,8.18-6.89,3.61-2.15,7.13-3.57,9.68-4.55,1.28-.49,2.32-.85,3.04-1.1.72-.24,1.13-.36,1.15-.32.01.04-.36.23-1.06.54-.82.35-1.81.78-2.97,1.27-2.5,1.07-5.97,2.55-9.53,4.67-3.55,2.12-6.4,4.6-8.17,6.65-1.79,2.04-2.6,3.53-2.69,3.47Z"/>
  <path class="cls-5" d="m472.12,349.74s.16-.47.55-1.26c.39-.79.96-1.93,1.74-3.3.78-1.37,1.76-2.99,3.11-4.6.69-.8,1.39-1.62,2.36-2.34.95-.64,1.95-1.24,2.99-1.86,4.15-2.43,8.07-4.35,11.01-5.49,1.47-.59,2.69-.96,3.54-1.19.86-.19,1.34-.28,1.35-.24.02.1-1.87.54-4.73,1.82-2.88,1.23-6.74,3.21-10.87,5.62-1.03.61-2.03,1.21-2.96,1.83-.85.62-1.61,1.46-2.27,2.21-1.34,1.56-2.34,3.13-3.17,4.46-.75,1.27-1.38,2.33-1.89,3.2-.45.76-.72,1.17-.75,1.15Z"/>
  <path class="cls-8" d="m773.12,466.63c0,.17-173.08.3-386.54.3s-386.58-.13-386.58-.3,173.05-.3,386.58-.3,386.54.13,386.54.3Z"/>
</svg>