<?xml version="1.0" encoding="UTF-8"?>
<svg id="Capa_1" data-name="Capa 1" xmlns="http://www.w3.org/2000/svg" viewBox="0 0 788.24 754.58">
  <defs>
    <style>
      .cls-1 {
        fill: #ad6359;
      }

      .cls-1, .cls-2, .cls-3, .cls-4, .cls-5, .cls-6, .cls-7, .cls-8, .cls-9, .cls-10, .cls-11, .cls-12 {
        stroke-width: 0px;
      }

      .cls-13 {
        fill: none;
        stroke: #c7c7c7;
        stroke-miterlimit: 10;
      }

      .cls-14 {
        opacity: .6;
      }

      .cls-2 {
        fill: #375a64;
      }

      .cls-3 {
        fill: #04c4d9;
      }

      .cls-4 {
        fill: #37474f;
      }

      .cls-5 {
        fill: #c7c7c7;
      }

      .cls-6 {
        fill: #1a2e35;
      }

      .cls-7 {
        fill: #fff;
      }

      .cls-8 {
        fill: #dbdbdb;
      }

      .cls-9 {
        fill: #ebebeb;
      }

      .cls-10, .cls-11 {
        opacity: .1;
      }

      .cls-10, .cls-12 {
        fill: #bfd6d9;
      }
    </style>
  </defs>
  <g>
    <path class="cls-9" d="m714.8,350.58l14.77-23.8-7.29-4.52c-2.14-1.33-3.31-3.75-3.09-6.27.12-1.39.16-2.79.13-4.19-.06-2.51,1.26-4.86,3.48-6.04l7.56-4.05-13.24-24.69-7.56,4.05c-2.22,1.19-4.89.99-6.96-.45-1.15-.8-2.34-1.54-3.56-2.21-2.21-1.21-3.59-3.52-3.51-6.04l.27-8.57-28-.87-.26,8.6c-.08,2.52-1.62,4.72-3.9,5.8-.62.29-1.23.6-1.84.93-.61.33-1.21.67-1.79,1.02-2.15,1.3-4.82,1.37-6.96.05l-7.34-4.55-14.77,23.8,7.3,4.53c2.14,1.33,3.3,3.76,3.08,6.27-.12,1.38-.17,2.78-.14,4.17.05,2.51-1.26,4.85-3.48,6.04l-7.56,4.05,13.24,24.69,7.56-4.05c2.21-1.19,4.89-.99,6.95.45,1.15.8,2.33,1.53,3.55,2.19,2.21,1.21,3.59,3.52,3.52,6.04l-.26,8.59,28,.87.27-8.6c.08-2.51,1.62-4.7,3.89-5.77.62-.29,1.24-.61,1.86-.94.61-.33,1.21-.67,1.79-1.02,2.16-1.31,4.84-1.38,6.99-.05l7.3,4.53Zm-23.71-17.68c-11.17,5.99-25.06,1.79-31.05-9.37-5.99-11.17-1.81-25.08,9.36-31.07,11.17-5.99,25.09-1.79,31.08,9.38,5.99,11.17,1.77,25.07-9.39,31.06Z"/>
    <g>
      <path class="cls-9" d="m125.74,447.95s19.89-32.34,19.89-32.34l.05.2c-3.47-2.14-6.94-4.24-10.4-6.42-2.57-1.8-4.04-4.98-3.83-8.11.42-3.05-.27-6.2.67-9.16.67-1.98,2.03-3.73,3.81-4.84,3.59-1.98,7.17-3.87,10.76-5.81l-.11.37-18-33.45s.44.13.44.13c-3.6,1.92-7.14,3.87-10.78,5.78-1.93.88-4.15,1.06-6.2.52-3-.85-5.26-3.16-8.05-4.49-2.77-1.57-4.66-4.59-4.75-7.79.08-4.12.24-8.15.35-12.23,0,0,.37.4.37.4l-37.95-1.13.45-.42c-.13,4.08-.21,8.11-.37,12.24-.27,3.23-2.39,6.14-5.26,7.56,0,0-2.71,1.37-2.71,1.37,0,0-2.64,1.51-2.64,1.51-2.78,1.62-6.38,1.78-9.23.21,0,0-10.42-6.42-10.42-6.42l.69-.16-20.05,32.24s-.15-.62-.15-.62c3.46,2.17,6.9,4.27,10.38,6.48,2.64,1.85,4.13,5.12,3.9,8.32-.44,3.07.23,6.23-.73,9.21-.68,2.02-2.08,3.78-3.89,4.91-3.62,1.98-7.19,3.86-10.78,5.79l.16-.53s17.91,33.5,17.91,33.5l-.46-.14c3.6-1.91,7.15-3.85,10.8-5.75,1.92-.87,4.15-1.05,6.18-.5,2.05.48,3.65,1.91,5.41,2.96,1.72,1.1,3.72,1.9,5.05,3.53,1.38,1.58,2.21,3.65,2.27,5.75-.09,4.11-.25,8.15-.37,12.22l-.27-.28s37.95,1.27,37.95,1.27l-.19.18.45-12.2c.43-4.67,3.97-6.92,7.85-8.62,3.52-2.26,7.46-3.91,11.48-1.69,0,0,10.36,6.46,10.36,6.46h0Zm0,0c-3.46-2.12-6.91-4.28-10.4-6.38-4.01-2.18-7.85-.5-11.35,1.77-1.79.97-3.75,1.67-5.15,3.15-1.42,1.42-2.34,3.34-2.51,5.33l-.35,12.19v.18s-.19,0-.19,0l-37.95-1.09h-.28s0-.28,0-.28l.34-12.19c-.08-2.97-1.83-5.79-4.41-7.25-2.72-1.29-4.98-3.56-7.89-4.41-1.9-.5-3.97-.34-5.75.48,0,0-10.74,5.76-10.74,5.76,0,0-.3.16-.3.16,0,0-.16-.3-.16-.3,0,0-17.99-33.45-17.99-33.45,0,0-.18-.34-.18-.34,0,0,.34-.18.34-.18l10.72-5.79c1.65-1.03,2.91-2.64,3.53-4.49.7-1.91.38-3.94.48-5.93.02-1.99.47-4-.12-5.94-.51-1.87-1.68-3.55-3.26-4.67l-10.35-6.43s-.38-.24-.38-.24l.24-.38s19.97-32.29,19.97-32.29.26-.42.26-.42c0,0,.42.26.42.26,0,0,10.36,6.42,10.36,6.42,2.55,1.41,5.8,1.27,8.3-.18,0,0,2.67-1.51,2.67-1.51l2.74-1.38c2.61-1.28,4.53-3.91,4.78-6.82,0,0,.4-12.18.4-12.18,0,0,.01-.44.01-.44,0,0,.44.01.44.01l37.95,1.23h.39s-.01.4-.01.4c-.12,4.06-.29,8.16-.38,12.18.06,1.95.83,3.86,2.12,5.34,2.05,2.23,5.09,3.23,7.46,5.09,2.44,1.66,5.72,1.98,8.4.74,3.66-1.91,7.36-3.93,11.04-5.88,0,0,.15.29.15.29l17.91,33.5s.13.24.13.24l-.24.13c-3.58,1.92-7.2,3.83-10.74,5.77-1.68,1.04-2.97,2.68-3.61,4.56-.91,2.9-.27,6.04-.7,9.03-.22,2.99,1.15,6.03,3.6,7.78,3.45,2.2,6.97,4.37,10.46,6.56.03.14-20.21,32.17-20.21,32.31h0Z"/>
      <path class="cls-9" d="m93.6,423.99c-24.52,13.07-52.63-9.86-44.87-36.53,4.74-16.53,22.92-26.27,39.3-21.06,26.54,8.3,30.01,44.4,5.57,57.59h0Zm0,0c19.36-10.32,21.95-37.52,4.8-51.21-16.7-13.68-42.68-5.8-48.85,14.92-8.01,26.27,19.73,49.18,44.05,36.29h0Z"/>
    </g>
    <path class="cls-9" d="m171.19,570.79l17-9.81-3.01-5.2c-.88-1.53-.8-3.41.17-4.89.53-.82,1.02-1.67,1.47-2.54.8-1.57,2.38-2.58,4.15-2.58h6.01v-19.63h-6.01c-1.76,0-3.35-1.01-4.15-2.58-.44-.88-.93-1.72-1.47-2.54-.96-1.48-1.05-3.36-.17-4.89l3.01-5.2-17-9.81-3.01,5.23c-.88,1.53-2.56,2.38-4.33,2.28-.48-.02-.96-.04-1.44-.04s-.97.01-1.44.04c-1.76.09-3.43-.75-4.31-2.27l-3.03-5.24-17,9.81,3.01,5.22c.88,1.53.8,3.41-.17,4.89-.53.81-1.02,1.66-1.47,2.53-.8,1.57-2.38,2.58-4.14,2.58h-6.01v19.63h6.01c1.76,0,3.35,1.01,4.14,2.58.44.87.93,1.71,1.47,2.53.97,1.48,1.05,3.36.17,4.89l-3.01,5.22,17,9.81,3.01-5.22c.88-1.53,2.56-2.37,4.32-2.28.48.02.97.04,1.46.04s.97-.01,1.44-.04c1.77-.09,3.45.75,4.33,2.28l3.01,5.21Zm-8.78-18.76c-8.88,0-16.07-7.19-16.07-16.07s7.19-16.08,16.07-16.08,16.08,7.21,16.08,16.08-7.21,16.07-16.08,16.07Z"/>
    <path class="cls-9" d="m294.67,64.63l-9.81-17-5.2,3.01c-1.53.88-3.41.8-4.89-.17-.82-.53-1.67-1.02-2.54-1.47-1.57-.8-2.58-2.38-2.58-4.15v-6.01h-19.63v6.01c0,1.76-1.01,3.35-2.58,4.15-.88.45-1.72.94-2.54,1.47-1.48.96-3.36,1.05-4.89.17l-5.2-3.01-9.81,17,5.23,3.01c1.53.88,2.38,2.56,2.29,4.33-.02.48-.04.96-.04,1.44s.01.97.04,1.44c.09,1.76-.75,3.43-2.27,4.31l-5.24,3.03,9.81,17,5.22-3.01c1.53-.88,3.41-.8,4.89.17.81.53,1.66,1.02,2.53,1.47,1.57.8,2.58,2.38,2.58,4.14v6.01h19.63v-6.01c0-1.76,1.01-3.35,2.58-4.14.87-.44,1.72-.93,2.53-1.47,1.48-.97,3.36-1.05,4.89-.17l5.22,3.01,9.81-17-5.22-3.01c-1.53-.88-2.37-2.56-2.28-4.32.02-.48.04-.97.04-1.46s-.01-.97-.04-1.44c-.09-1.77.75-3.45,2.28-4.33l5.21-3.01Zm-18.76,8.78c0,8.88-7.19,16.07-16.07,16.07s-16.08-7.19-16.08-16.07,7.21-16.08,16.08-16.08,16.07,7.21,16.07,16.08Z"/>
    <g>
      <path class="cls-9" d="m769.92,403.69l-10.14-16.5s.19.05.19.05l-5.51,3.08c-.98.49-2.12.64-3.19.44-1.58-.33-2.91-1.37-4.3-2.04-1.51-.69-2.68-2.15-2.84-3.83-.06-2.15-.03-4.22-.04-6.33l.27.27-20.06.05.32-.32c0,2.12.04,4.17-.01,6.34-.16,1.71-1.35,3.2-2.87,3.92,0,0-1.36.76-1.36.76l-1.38.77c-1.48.83-3.36.9-4.89.15,0,0-5.55-3.03-5.55-3.03,0,0,.52-.14.52-.14,0,0-9.98,16.6-9.98,16.6l-.16-.61,5.54,3.03c1.5.88,2.44,2.61,2.39,4.35-.02.78-.04,2.35,0,3.13.06,1.74-.88,3.48-2.39,4.37,0,0-5.52,3.07-5.52,3.07,0,0,.19-.69.19-.69l9.98,16.6s-.61-.16-.61-.16l5.55-3.03c1.03-.51,2.23-.65,3.34-.44.96.17,2.14.85,2.98,1.35.84.5,2.06,1.02,2.75,1.71.83.78,1.4,1.86,1.51,3.01.05,2.18,0,4.23.01,6.35l-.39-.39,20.06.05-.34.34c.02-2.12-.02-4.17.04-6.34.16-1.7,1.35-3.18,2.87-3.89,0,0,1.37-.75,1.37-.75,0,0,1.38-.77,1.38-.77,1.47-.8,3.32-.87,4.82-.12,0,0,5.53,3.05,5.53,3.05l-.37.1s10.1-16.53,10.1-16.53c0,0,.07.26.07.26l-5.49-3.08c-2.06-1.19-2.36-3.52-2.14-5.64-.2-2.11.15-4.42,2.18-5.56,0,0,5.53-3,5.53-3h0Zm0,0l-5.48,3.08c-1.99,1.16-2.27,3.39-2.05,5.49-.19,2.08.12,4.3,2.09,5.41,0,0,5.52,3,5.52,3,0,0,.17.09.17.09l-.1.16-9.94,16.62s-.14.23-.14.23l-.23-.13s-5.52-3.01-5.52-3.01c-1.95-1.01-3.9-.23-5.65.9-.76.46-1.99.99-2.61,1.61-.72.67-1.19,1.59-1.28,2.56-.04,2.03,0,4.18,0,6.27v.34s-.34,0-.34,0l-20.06.05h-.39c-.02-2.2.01-4.51-.04-6.65-.1-.95-.57-1.85-1.27-2.5-.63-.56-1.84-1.17-2.6-1.58,0,0-1.37-.76-1.37-.76-1.26-.69-2.87-.75-4.15-.1,0,0-5.5,3.04-5.5,3.04,0,0-.38.21-.38.21,0,0-.23-.37-.23-.37,0,0-10.06-16.55-10.06-16.55l-.27-.44.46-.25,5.5-3.02c1.23-.71,1.99-2.11,1.95-3.52,0,0-.04-1.58-.04-1.58,0,0,.04-1.58.04-1.58.05-1.42-.71-2.83-1.94-3.56,0,0-5.49-3.04-5.49-3.04l-.4-.22.24-.39,10.06-16.55s.19-.32.19-.32c0,0,.33.18.33.18,0,0,5.5,3.04,5.5,3.04.87.43,1.88.56,2.84.38,1.35-.27,2.85-1.37,4.15-2.02,1.33-.62,2.36-1.89,2.5-3.36.06-2.13.02-4.41.04-6.59,0,0,.32,0,.32,0l20.06.05s.27,0,.27,0v.27c0,2.09-.03,4.23,0,6.28.1.98.58,1.92,1.3,2.6.65.58,1.84,1.2,2.62,1.63,1.75,1.14,3.76,1.94,5.73.93,0,0,5.54-2.99,5.54-2.99l.12-.06s.07.11.07.11c0,0,9.9,16.65,9.9,16.65h0Z"/>
      <path class="cls-9" d="m750.74,412.26c-.04,14.27-17.99,20.94-28.19,11.51-6.82-6.01-6.81-17.02,0-23.03,10.2-9.44,28.14-2.74,28.18,11.53h0Zm0,0c-.16-14.09-17.78-20.36-27.6-10.9-6.28,5.6-6.3,16.18-.01,21.78,9.8,9.46,27.45,3.21,27.61-10.88h0Z"/>
    </g>
    <g>
      <g>
        <polygon class="cls-7" points="555.29 .86 555.29 130.35 573.47 130.35 573.47 161.76 604.88 130.35 777.25 130.35 777.25 .86 555.29 .86"/>
        <path class="cls-9" d="m555.29.86s.6,129.49.6,129.49l-.6-.6s18.18-.05,18.18-.05h.65s0,.65,0,.65c0,0,.09,31.41.09,31.41l-1.27-.53,31.33-31.49s.25-.25.25-.25c.25.14,172.43-.23,172.73-.13,0,0-.98.98-.98.98,0,0,.13-129.49.13-129.49,0,0,.85.85.85.85-55.33-.1-166.64-.6-221.96-.85h0Zm0,0C610.6.61,721.95.11,777.25,0c0,0,.85,0,.85,0,0,0,0,.86,0,.86,0,0,.13,129.49.13,129.49,0,0,0,.98,0,.98h-.98c.2-.35-174.57.42-171.77-.38,0,0-31.49,31.33-31.49,31.33l-1.27,1.27s0-1.79,0-1.79c0,0,.09-31.41.09-31.41,0,0,.65.65.65.65l-18.18-.05s-.6,0-.6,0c-.23-.43.77-129.58.6-130.09h0Z"/>
      </g>
      <g>
        <path class="cls-9" d="m708.23,65.6c0,5.81,4.71,10.52,10.52,10.52s10.52-4.71,10.52-10.52-4.71-10.52-10.52-10.52-10.52,4.71-10.52,10.52Z"/>
        <path class="cls-9" d="m655.75,65.6c0,5.81,4.71,10.52,10.52,10.52s10.52-4.71,10.52-10.52-4.71-10.52-10.52-10.52-10.52,4.71-10.52,10.52Z"/>
        <path class="cls-9" d="m603.27,65.6c0,5.81,4.71,10.52,10.52,10.52s10.52-4.71,10.52-10.52-4.71-10.52-10.52-10.52-10.52,4.71-10.52,10.52Z"/>
      </g>
    </g>
    <g>
      <g>
        <path class="cls-9" d="m136.52,150.56c-3.58,24.49-24.68,43.28-50.15,43.28-28,0-50.72-22.7-50.72-50.72s22.72-50.7,50.72-50.7v50.7l50.15,7.43Z"/>
        <path class="cls-8" d="m147.4,132.8c0,2.53-.19,5.01-.55,7.43l-50.15-7.43v-50.7c18.81,0,35.24,10.26,44,25.49,4.27,7.43,6.69,16.06,6.69,25.21Z"/>
      </g>
      <g>
        <line class="cls-13" x1="91.87" y1="161.83" x2="145.79" y2="161.83"/>
        <path class="cls-13" d="m149.57,165.61c-2.09,0-3.78-1.69-3.78-3.78s1.69-3.78,3.78-3.78,3.78,1.69,3.78,3.78-1.69,3.78-3.78,3.78Z"/>
        <rect class="cls-5" x="163.27" y="159" width="41.88" height="1.89"/>
        <rect class="cls-5" x="163.27" y="162.78" width="23.71" height="1.89"/>
      </g>
    </g>
    <g>
      <rect class="cls-9" x="572.35" y="489.29" width="14.29" height="101.7"/>
      <rect class="cls-9" x="596.92" y="513.91" width="14.29" height="77.08"/>
      <rect class="cls-9" x="621.48" y="552.45" width="14.29" height="38.54"/>
      <rect class="cls-9" x="646.05" y="530.44" width="14.29" height="60.56"/>
      <rect class="cls-9" x="670.61" y="507.32" width="14.29" height="83.67"/>
      <rect class="cls-9" x="695.17" y="493.72" width="14.29" height="97.27"/>
      <g>
        <path class="cls-9" d="m564.07,476.36l.17,28.66.08,28.66.11,57.32-.36-.36c13.13-.04,26.27-.05,39.4,0l39.4.08,39.4.08,39.4.21-39.4.21-39.4.08-39.4.08c-13.13.05-26.27.03-39.4,0h-.36s0-.36,0-.36l.11-57.32.08-28.66.17-28.66Z"/>
        <path class="cls-9" d="m560.91,482.11c1.05-.32,2.1-.39,3.15-.4,1.05.01,2.1.08,3.15.4-1.05.32-2.1.39-3.15.4-1.05-.01-2.1-.09-3.15-.4Z"/>
        <path class="cls-9" d="m560.91,490.82c1.05-.32,2.1-.39,3.15-.4,1.05.01,2.1.08,3.15.4-1.05.32-2.1.39-3.15.41-1.05-.01-2.1-.09-3.15-.41Z"/>
        <path class="cls-9" d="m560.91,499.53c1.05-.32,2.1-.39,3.15-.4,1.05.01,2.1.08,3.15.4-1.05.32-2.1.39-3.15.4-1.05-.01-2.1-.09-3.15-.4Z"/>
        <path class="cls-9" d="m560.91,508.24c1.05-.32,2.1-.39,3.15-.41,1.05.01,2.1.08,3.15.41-1.05.32-2.1.39-3.15.4-1.05-.01-2.1-.09-3.15-.4Z"/>
        <path class="cls-9" d="m560.91,516.96c1.05-.32,2.1-.39,3.15-.4,1.05.01,2.1.08,3.15.4-1.05.32-2.1.39-3.15.41-1.05-.01-2.1-.09-3.15-.41Z"/>
        <path class="cls-9" d="m560.91,525.67c1.05-.32,2.1-.39,3.15-.41,1.05.01,2.1.08,3.15.41-1.05.32-2.1.39-3.15.4-1.05-.01-2.1-.09-3.15-.4Z"/>
        <path class="cls-9" d="m560.91,534.38c1.05-.32,2.1-.39,3.15-.4,1.05.01,2.1.08,3.15.4-1.05.32-2.1.39-3.15.41-1.05-.01-2.1-.09-3.15-.41Z"/>
        <path class="cls-9" d="m560.91,543.09c1.05-.32,2.1-.39,3.15-.41,1.05.01,2.1.08,3.15.41-1.05.32-2.1.39-3.15.4-1.05-.01-2.1-.09-3.15-.4Z"/>
        <path class="cls-9" d="m560.91,551.8c1.05-.32,2.1-.39,3.15-.4,1.05.01,2.1.08,3.15.4-1.05.32-2.1.39-3.15.41-1.05-.01-2.1-.09-3.15-.41Z"/>
        <path class="cls-9" d="m560.91,560.52c1.05-.32,2.1-.39,3.15-.4,1.05.01,2.1.08,3.15.4-1.05.32-2.1.39-3.15.41-1.05-.01-2.1-.09-3.15-.41Z"/>
        <path class="cls-9" d="m560.91,569.23c1.05-.32,2.1-.39,3.15-.41,1.05.01,2.1.08,3.15.41-1.05.32-2.1.39-3.15.4-1.05-.01-2.1-.09-3.15-.4Z"/>
        <path class="cls-9" d="m560.91,577.94c1.05-.32,2.1-.39,3.15-.4,1.05.01,2.1.08,3.15.4-1.05.32-2.1.39-3.15.41-1.05-.01-2.1-.09-3.15-.41Z"/>
      </g>
    </g>
  </g>
  <g>
    <polygon class="cls-2" points="631.88 206.46 650.73 146.3 661.48 153.93 631.88 206.46"/>
    <polygon class="cls-2" points="646.68 221.11 698.01 208.58 700.89 222.74 646.68 221.11"/>
    <polygon class="cls-2" points="641.3 209.31 706.03 146.97 718.53 164.17 641.3 209.31"/>
  </g>
  <path class="cls-1" d="m645.91,754.11h-176.34c-3.31-9.81-6.43-19.42-9.37-28.81-3.62-11.6-6.63-22.8-8.98-33.43-.55-2.51-1.07-5.01-1.55-7.47-.94-4.82-1.76-9.52-2.4-14.06-3.29-22.82-2.81-41.78,1.87-54.64,4.16-11.49,11.68-18.11,22.88-18.24.44-.02.91-.02,1.35,0,.91.02,1.81.09,2.75.2,17.96,2.07,44.11,18.88,79.53,55.69,8.48,8.83,17.52,18.81,27.09,30.01,3.18,3.71,6.47,7.52,9.87,11.42,15.93,18.33,34.13,38.53,53.31,59.32Z"/>
  <path class="cls-12" d="m684.22,754.11h-233.4c-4.51-11.55-8.7-22.65-12.49-33.17-2.83-7.85-5.34-15.41-7.58-22.69-.91-2.96-1.77-5.88-2.57-8.74h-.02c-1.63-5.71-3.05-11.23-4.29-16.56-.79-3.36-1.52-6.63-2.14-9.85-.61-3.01-1.16-5.97-1.64-8.85-.31-1.92-.61-3.81-.87-5.67-.28-1.87-.5-3.7-.72-5.49-.33-2.85-.61-5.6-.79-8.3-.11-1.44-.2-2.86-.28-4.25,0-.24-.02-.48-.04-.72-.87-19.11,1.79-34.04,7.5-44.53,4.25-7.87,10.22-13.27,17.68-16.06.44-.2.89-.35,1.35-.5,8.8-2.9,19.55-2.4,31.95,1.66h.02c15.95,5.23,34.59,16.33,55.27,33.59,42.37,35.39,99.06,92.69,153.06,150.12Z"/>
  <path class="cls-6" d="m624.72,692.36c2.48,14.6,8.2,28.79,13.93,38.49,4.84,8.32,14.08,19.7,24.65,12.75,2.24-1.48,3.97-3.57,5.17-5.97-14.56-15.41-29.31-30.69-43.76-45.27Zm-51.06,61.75h21.86c-7.39-4.6-15.84-6.56-21.86,0Zm21.1-91.63c-12.84-12.6-25.39-24.54-37.18-35.26-3.1,4.32-3.83,10.61-3.01,17.37.15,2.86.52,5.82,1.07,8.78,2,10.96,6.32,21.86,9.44,27.48,3.64,6.76,10.2,18.31,19.42,18.16,3.6-.04,6.23-1.72,8.09-4.21,2.94-3.9,4.03-9.76,4.21-14.32.11-3.73-.59-10.42-2.05-18Z"/>
  <path class="cls-11" d="m523.75,754.11h-72.9c-4.53-11.55-8.72-22.65-12.49-33.17-2.83-7.85-5.36-15.41-7.59-22.69-.91-2.96-1.77-5.88-2.59-8.74-1.63-5.71-3.05-11.22-4.29-16.54l-.02-.02c-.79-3.36-1.52-6.63-2.14-9.85-.61-3.01-1.16-5.97-1.64-8.85-.31-1.92-.61-3.81-.87-5.67-.28-1.87-.5-3.7-.72-5.49-3.01-25.57-.55-44.96,6.47-57.76,1.28-2.37,2.73-4.51,4.32-6.43l5.43,10.07,14.41,26.74,18.98,35.2,6.87,12.75,1.77,3.27,26.98,50.04,14.21,26.37,5.8,10.77Z"/>
  <path class="cls-3" d="m520.22,754.11h-118.22c0-19.61.02-38.58.04-56.49.02-3.49.02-6.95.02-10.37.02-6.45.04-12.75.06-18.87.11-44.38.31-79.36.41-96.68v-.02c.06-7.67.09-11.88.09-11.88l-1.07-4.03-2.11-7.89s21.56,4.68,44.5,20.84c2.48,1.74,4.97,3.62,7.47,5.65,6.04,4.92,12.03,10.68,17.57,17.41.55.67,1.09,1.31,1.63,2,.94,1.2,1.87,2.42,2.77,3.68,1.03,1.39,2.03,2.81,2.99,4.29v.02c4.47,6.69,8.46,14.17,11.77,22.53,7.74,19.61,18.29,64.56,29.82,119.04.74,3.55,1.5,7.13,2.27,10.77Z"/>
  <path class="cls-9" d="m510.58,754.11H132.47c45.51-75.3,88.77-139.2,111.81-162.41,3.05-3.09,6.34-5.97,9.83-8.63,6.89-5.36,14.56-9.96,22.8-13.84,7.82-3.71,16.13-6.78,24.76-9.24,4.66-1.35,9.41-2.49,14.21-3.49,22.51-4.62,46.34-5.53,68.54-3.22h.02c5.84.61,11.55,1.44,17.09,2.49,15.37,2.9,29.45,7.45,41.04,13.45,3.12,1.61,6.08,3.33,8.81,5.16,6.5,4.34,11.86,9.24,15.78,14.67.59.83,1.2,1.74,1.79,2.73.39.65.78,1.31,1.16,2.01.63,1.15,1.26,2.37,1.88,3.66,1.5,3.1,3.01,6.65,4.53,10.64v.02c9.02,23.76,18.27,62.64,27.2,108.84,2.29,11.94,4.58,24.35,6.84,37.14Z"/>
  <path class="cls-5" d="m288.51,595.06c12.85,17.13,26.96,33.06,41.91,47.82,15.06,14.6,31.61,27.72,50.06,36.55,18.22,8.96,39.04,12.94,58.71,8.43,19.6-4.31,36.32-19.62,44.33-39.48-3.86,20.97-19.92,41-42.09,47.39-21.77,6.88-45.63,2.78-65.51-6.85-19.99-9.82-37.09-24.13-51.41-40.37-14.41-16.2-26.6-34.2-36-53.49Z"/>
  <path class="cls-3" d="m308.13,754.11H108.25c38.38-74.28,71.44-135.91,84.3-151.85,0,0,.02,0,.02-.02.76-.96,1.46-1.76,2.09-2.38,15.47-15.36,37.81-26.33,58.04-33.82,26.09-9.65,48.71-13.51,48.71-13.51,0,0,.09,2.61.28,7.47.35,9.85,1.05,28.9,1.9,53.99.09,2.55.18,5.16.28,7.82,1.24,36.03,2.79,82.86,4.27,132.3Z"/>
  <path class="cls-6" d="m292.15,650.64v-.02c-.13-.31-.28-.61-.42-.91-.18-.37-.39-.72-.59-1.05,0-.02-.02-.02-.04-.04-.22-.33-.46-.65-.72-.96v-.02c-.17-.2-.33-.39-.54-.57-.28-.28-.55-.52-.83-.76h-.02c-.28-.22-.57-.43-.87-.61-.2-.13-.41-.24-.61-.33-.61-.31-1.24-.54-1.9-.68-.11-.04-.24-.06-.35-.09h-.02c-1.94-.37-4.01-.13-6.08.48-4.58,1.31-9.17,4.4-12.23,6.63-4.45,3.27-8.83,7.11-12.93,11.4-1.37,1.42-2.7,2.9-3.99,4.42-.87,1.02-1.7,2.05-2.53,3.1-.83,1.03-1.63,2.11-2.42,3.2-6.26,8.68-11.12,18.42-13.4,28.49-.5,1.15-.98,2.27-1.4,3.42-.2.5-.39,1-.55,1.5-.15.43-.3.85-.43,1.28-.18.54-.33,1.07-.48,1.59-1.83,6.43-1.9,12.25,1.26,15.97.17.2.35.39.55.59.37.37.79.72,1.26,1.05h.02c1.15.83,2.57,1.46,4.25,1.9.2.06.41.09.63.11.2.06.41.09.61.11,1.81.22,3.68-.06,5.56-.67.52-.17,1.05-.37,1.59-.59l.02-.02c.63-.24,1.26-.55,1.88-.89.59-.3,1.18-.63,1.76-.98.52-.31,1.02-.63,1.53-.98,2.18-1.46,4.31-3.18,6.26-4.9.28-.24.54-.48.79-.72.24-.2.46-.41.7-.65.5-.44.98-.89,1.46-1.35.22-.2.44-.41.67-.63.79-.74,1.53-1.48,2.24-2.14.59-.59,1.15-1.13,1.64-1.61.96-.92,1.92-1.88,2.86-2.86.72-.74,1.42-1.48,2.12-2.25.81-.87,1.61-1.77,2.4-2.68s1.57-1.83,2.33-2.75v-.02c5.93-7.28,10.98-15.34,14.54-23.91,2.88-6.98,7.8-20.31,4.42-28.6Z"/>
  <path class="cls-1" d="m285.6,644.67v.02c-4.93,21.23-16.45,46.69-34.78,74.3-2.07,3.12-4.18,6.3-6.3,9.57l-.02.02c-5.27,8.09-10.74,16.63-16.33,25.54H63.62c52.27-51.98,133.82-177,196.78-180.16,29.03-1.46,33.65,34.3,25.2,70.72Z"/>
  <path class="cls-12" d="m298.02,612.57c-.06,10.94-1.98,23.65-5.88,38.05v.02c-.78,2.88-1.63,5.82-2.57,8.83-.37,1.16-.74,2.35-1.13,3.53-.59,1.79-1.2,3.62-1.85,5.49-.48,1.35-.96,2.72-1.46,4.08-.43,1.18-.87,2.4-1.33,3.6-.44,1.22-.91,2.44-1.39,3.68-1.87,4.93-3.86,10.05-5.99,15.3-.52,1.31-1.05,2.64-1.61,3.97-.54,1.33-1.09,2.68-1.64,4.03v.02c-6.56,15.91-14.08,33.06-22.27,50.94H58.99c.33-.33,57.8-75.77,102.98-123.84,41.58-44.24,89.71-72.51,114.95-61.04,12.71,5.78,19.98,18.72,20.99,37.86v.02c.09,1.76.15,3.57.11,5.45Z"/>
  <path class="cls-6" d="m291.72,649.71c-.18-.37-.39-.72-.59-1.05,0-.02-.02-.02-.04-.04-.22-.33-.46-.65-.72-.96v-.02c-.17-.2-.33-.39-.54-.57-.26-.28-.54-.54-.83-.76h-.02c-.28-.22-.57-.43-.87-.61-.2-.13-.41-.24-.61-.33-.61-.31-1.24-.54-1.9-.68v-.02c-.13-.04-.24-.06-.35-.07h-.02c-1.94-.37-4.01-.13-6.08.48-4.58,1.31-9.17,4.4-12.23,6.63-4.45,3.27-8.83,7.11-12.93,11.4-1.37,1.42-2.7,2.9-3.99,4.42-.87,1.02-1.7,2.05-2.53,3.1-.83,1.03-1.63,2.11-2.42,3.2-6.26,8.68-11.12,18.42-13.4,28.49-.5,1.15-.98,2.27-1.4,3.42-.2.5-.39,1-.55,1.5-.15.43-.3.85-.43,1.28-.18.54-.33,1.07-.48,1.59-1.83,6.43-1.9,12.25,1.26,15.97.17.2.35.39.55.59.37.37.79.72,1.26,1.05h.02c1.15.81,2.57,1.44,4.27,1.88.2.04.41.09.61.13.2.06.41.09.61.11,1.81.22,3.68-.06,5.56-.67.52-.17,1.05-.37,1.59-.59l.02-.02c.63-.24,1.26-.55,1.88-.89.59-.3,1.18-.63,1.76-.98.52-.31,1.02-.63,1.53-.98,2.18-1.46,4.31-3.18,6.26-4.9.28-.24.54-.48.79-.72.24-.2.46-.41.7-.65.5-.44.98-.89,1.46-1.35.22-.2.44-.41.67-.63.79-.74,1.53-1.48,2.24-2.14.59-.59,1.15-1.13,1.64-1.61.96-.92,1.92-1.88,2.86-2.86.72-.74,1.42-1.48,2.12-2.25.81-.87,1.61-1.77,2.4-2.68s1.57-1.83,2.33-2.75v-.02c.55-1.35,1.11-2.7,1.64-4.03.55-1.33,1.09-2.66,1.61-3.97,2.13-5.25,4.12-10.37,5.99-15.3.48-1.24.94-2.46,1.39-3.68.46-1.2.91-2.42,1.33-3.6.5-1.37.98-2.73,1.46-4.08.65-1.87,1.26-3.7,1.85-5.49.39-1.18.76-2.37,1.13-3.53.94-3.01,1.79-5.95,2.57-8.83v-.02c-.13-.31-.28-.61-.42-.91Z"/>
  <path class="cls-6" d="m256.74,750.27c-.67,1.28-1.33,2.57-2.01,3.84h-1.72c.91-1.46,1.83-2.9,2.75-4.36.37-.59,1.31-.13.98.52Z"/>
  <path class="cls-6" d="m631.2,322.53c-.17-.07-.33.17-.18.26,17.72,11.94,28.33,33.67,20.1,54.88-7.04,18.13-22.43,26.09-39.49,27.98,14.65-7.19,27.29-18.85,32.36-34.55,5.54-17.24.44-36.88-13.53-47.91,13.51-15.78,22.51-37.14,17.65-57.58-4.07-17.2-17.98-31.32-35.66-33.85,10.13-17.89,9.33-41.13-3.6-57.04-12.1-14.95-32.49-21.07-51.37-16.94,13.27-27.99-7.3-60.11-38.66-59.41,3.05-10.68-1.35-22.01-9.98-28.99-9.92-8.09-23.45-9.04-36.07-7.67-3.66-10.7-12.31-19.61-23.8-22.12-15.34-3.36-30.12,5.3-36.12,19.13-17.72-10.05-38.42-18.46-59.32-13.91-17.2,3.75-33.19,16.5-36.53,34.02-34.2-13.71-73.28,5.3-84.02,40.95-15.32-1.55-30.49,5.91-39.84,18.37-9.42,12.57-12.14,23.17-12.95,28.31-13.91-.33-26.72,8.78-31.65,21.8-4.86,12.81-1.76,25.09,4.36,36.18-.26,3.46-1.11,6.71-3.18,10.5-9.24,17.04-9.96,36.16-1.28,53.05-16.78,15.67-15.37,44.16,2.75,57.32-11.55,20.22-3.42,47.4,17.06,57.6-7.32,16.76-7.45,35.92.57,52.16,6.12,12.45,18.44,23.6,32.93,22.23-3.55,10.51,4.95,21.14,14.99,24.87,3.81,1.42,7.85,2.16,11.88,2.7,4.79.63,11.12.15,15.41,2.46,4.49,2.35,6.41,7.85,9.26,11.7,2.05,2.73,4.42,5.28,7.02,7.54,15.82,13.64,39.23,16.65,58.59,8.78,4.77-1.9,9.29-4.49,13.4-7.74,9.9,13.19,27.29,15.78,43.33,13.14,1.9-.31,3.79-.7,5.64-1.15,5.77-1.39,11.03-3.62,16.45-5.97,1.9-.83,3.73-1.57,5.56-2.13,2.99-.91,6.02-1.31,9.46-.76,3.36.55,6.54,1.85,9.9,2.42,11.42,1.92,21.23-3.55,30.29-9.98,7.93,9.72,17.46,15.32,27.44,17.54h.02c29.31,6.49,62.25-16.28,68.5-49.85,18.31,1.88,37.31-5.23,49.24-19.48l.02-.02c1.28-1.52,2.46-3.1,3.57-4.79,10.55-16.08,11.09-36.49,2.94-53.05v-.02s.02-.02,0-.04t0-.04c-.54-1.11-1.11-2.2-1.74-3.27.55.02,1.13.04,1.7.02,21.25.28,42.04-9.29,50.15-31.04,8.61-23.1-2.83-45.72-23.56-56.58ZM179.82,169.76s-4.34,2.03-6.34,3.25c-3.6,2.25-6.87,5.06-9.72,8.26-5.89,6.62-9.89,14.97-11.11,23.65-.55,3.9-.41,7.74.02,11.62.06.52.06.94.09,1.44-2.46-7.13-3.75-14.47-2.01-22.51,3.2-14.73,14.52-24.76,29.21-27.5-.11,1.07-.15,1.77-.15,1.77ZM448.38,42.39c11.12,2.64,17.17,10.46,20.31,19.83-.07,0-.15.02-.22.02-4.07-5.21-9.37-9.35-15.98-11.73-12.82-4.68-28.05-.87-36.96,9.7-.31-.18-.65-.35-.96-.54,7.63-12.05,17.91-21.05,33.82-17.28Zm32.73,494.74h-.02c-8.74-2-17.65-6.86-26.31-15.28.13-.09.28-.18.41-.28,8.39,5.89,17.65,9.26,27.03,10.35v.02c20.88,2.46,42.3-6.34,55.58-23.39-13.82,20.51-34.78,33.59-56.69,28.59Z"/>
  <g>
    <path class="cls-1" d="m439.89,672.39c-39.49,7.03-104.37-30.97-128.08-80.71-1.61-3.42,19.54-135,21.03-161.5l164,49.7s-19.46,54.65-21.76,100.88c-.15,3.87.03,7.48.53,10.94.03.5.14,1.12.14,1.82,2.21,20.85,2.3,72.05-35.86,78.87Z"/>
    <path class="cls-6" d="m475.58,591.73c0,.47.13,1.05.13,1.75-5.23.52-10.94.45-17.11.05-96.1-7.56-112.16-126.58-114.7-159.96l40.97,12.4,111.95,33.94s-19.48,54.66-21.71,100.89c-.19,3.84-.04,7.45.46,10.93Z"/>
  </g>
  <path class="cls-1" d="m305.77,247.66c-14.24,61.41,29.42,232.99,74.86,268.81,65.87,51.92,167.77,50.33,210.39-27.49,41.31-75.43-19.55-298.04-69.75-329.98-73.94-47.04-194.47-2.05-215.5,88.66Z"/>
  <g>
    <g>
      <path class="cls-6" d="m475.38,338.95c-.2-.42-.77.78-.63,1.25,3.25,11.48,5.04,25.18-4.47,31.63-.29.2-.12.77.26.62,12.33-4.98,9.77-23.14,4.85-33.49Z"/>
      <path class="cls-6" d="m462.03,329.44c-18.96,3.23-11.12,40.91,6.45,37.93,17.29-2.94,9.44-40.63-6.45-37.93Z"/>
    </g>
    <g>
      <path class="cls-6" d="m545.31,324.51c0-.47,1.03.36,1.11.84,2.06,11.75,6.4,24.86,17.77,26.54.35.05.44.65.04.67-13.27.87-18.85-16.6-18.92-28.06Z"/>
      <path class="cls-6" d="m553.2,310.14c18.48-5.34,27.79,32.02,10.67,36.96-16.85,4.87-26.16-32.49-10.67-36.96Z"/>
    </g>
    <path class="cls-6" d="m441.03,303.28c5.06-1.91,10.05-2.81,15.25-4.18,5.87-1.54,10.38-3.37,16.36-1.3,3.21,1.11,5.33,5.63,4.54,8.84-1.83,7.49-8.55,11.16-15.54,13.31-7.58,2.32-14.02,2.17-21.35-.81-7.11-2.89-5.93-13.35.74-15.86Z"/>
    <path class="cls-6" d="m562.83,280.72c-5.4.17-10.42-.58-15.78-.97-6.05-.44-10.91-.16-15.9-4.06-2.68-2.09-3.22-7.04-1.44-9.84,4.15-6.5,11.69-7.8,19-7.57,7.93.25,13.97,2.47,19.95,7.66,5.79,5.03,1.3,14.55-5.83,14.78Z"/>
    <path class="cls-6" d="m510.77,450.44c2.58,3.05,5.06,7.15,9.33,7.92,4.1.74,9.12-.67,13.04-1.78.39-.11.73.32.46.66-3.51,4.26-10.27,6.5-15.68,5.02-5.29-1.45-7.51-6.34-8.34-11.39-.12-.7.81-.87,1.19-.43Z"/>
    <path class="cls-6" d="m491.82,412.01c8.2,8.84,18.63,12.63,29.22,12.8,4.73.11,9.57-.58,14.2-1.85.92-.18,1.83-.45,2.64-.78.82-.25,1.56-.48,2.45-.83,1.31-.43,1.85-1.67,1.85-2.98l-.02-.08c-.08-.42-.15-.76-.32-1.16v-.09s-.21-1-.21-1c-1.32-8.9-4.57-22.21-4.57-22.21,3.52,1.05,21.33,5.55,20.25.97-9.06-37.89-19.14-80.03-36.16-115.82-.5-1.21-2.38-.58-2.05.66,7.27,36.76,20.95,72,28.85,108.81-5.62-1.07-14.86-3.25-19.48-2.34-1.19.59,6.72,25.62,7,29.67,0,0,.03.17,0,.44-14.54,4.53-26.55,2.02-42.76-5.41-.97-.5-1.75.43-.89,1.22Z"/>
  </g>
  <path class="cls-6" d="m576.16,225.14c-7.35-14.65-14.99-16.96-14.99-16.96,0,0-2.27-18.16-21.68-39.25-20.31-22.06-39.32-22.84-39.32-22.84,0,0-10.7-9.28-32.32-14.38-6.38-1.53-13.69-2.68-21.99-3.12-8.35-.44-33.11,2.42-40.36,6.49-8.33,4.71-18.29,1.29-27.46,2.33-8.48.91-16.76,3.68-24.21,8.02-6.15,3.55-11.83,8.17-16.69,13.73-2.81,3.25-5.17,6.82-7.61,10.5-4.03,6.04-8.3,8.52-14.49,11.23-13.23,5.89-23.36,17.31-28.4,32.63-2.92,8.89-3.51,18.03-2.64,27.66,1.07,11.64-10.38,18.68-13.6,29.25-.7,2.29-1.2,4.6-1.48,6.93-1.92,15.06,4.45,30.43,15.87,39.49-13.73,12.86-16.19,37.86-5.58,55.88,2.35,3.97,5.16,7.21,8.28,9.85.33.28.67.55,1,.81,1.92,1.52,3.97,2.83,6.1,3.95,6.39,3.38,13.53,5.14,20.58,6.12,2.59.35,5.14.41,7.67.2.81.02,1.61.02,2.4-.02,1.68-.06,3.33-.24,4.95-.54,2.27-.43,4.49-1.07,6.63-1.94,5.97-2.37,11.35-6.34,15.67-11.38,2.85-3.31,5.25-7.06,7.08-11.16,1.02-2.27,1.87-4.66,2.51-7.11,2.59-9.7,2.11-20.62-2.73-31.27v-.26s32.39,7.9,46.4-15.9c8.57-14.58,9.55-33.17,7.37-50.89,36.88,17,81.36-10.38,81.67-54.95,11.11,9.39,35.25,20.69,47.59,14.98,10.46,37.64,30.5,36.88,38.15,36.38.18,0,.37-.02.54-.06.96-.15,3.53-17.59-4.93-34.41Zm-218.29,136.97c-.87,2.48-1.96,4.86-3.23,7.11-1.76,3.12-3.88,6.01-6.3,8.59-.41.48-.85.94-1.31,1.39.39-.52.76-1.03,1.11-1.57,1.7-2.49,3.23-5.25,4.53-8.41.91-2.16,1.72-4.51,2.4-7.11,1.94-7.41,2.99-16.85,2.77-29.51,3.6,10.5,3.2,20.66.04,29.51Zm93.68-101.64c18.85-8.04,33.56-26.09,38.69-50.11-2.68,27.59-18.28,43.68-38.69,50.11Z"/>
  <path class="cls-7" d="m290.32,319c24.52,21.21,63.95,20.06,94.26,1.33,19.88-12.29,30.21-40.07,48.99-64.04,30.93-39.46,104.09-48.71,84.49-109.83-17.42-54.34-108.05-60.78-186.15-14.96-68.99,40.48-96.69,139.85-41.6,187.5Z"/>
  <g>
    <path class="cls-3" d="m515.44,353.98c-.39-1.48-.87-2.96-1.42-4.42v-.02c-.41-1.07-.83-2.14-1.31-3.18-7.67-17.15-23.41-28.57-41-31.38-8.94-1.42-18.39-.63-27.46,2.75-1.24.46-2.44.96-3.62,1.52-16.21,7.41-27.2,22.08-30.56,38.64-.48,2.37-.79,4.77-.96,7.21-.48,7.39.57,15.02,3.33,22.41,8.85,23.69,32.61,37.55,56.67,34.92,4.38-.46,8.78-1.5,13.12-3.1,4.03-1.5,7.76-3.44,11.18-5.75.74-.48,1.46-1,2.18-1.53,17.67-13.14,25.98-36.22,19.86-58.08Zm-35.77,58.56c-24.24,9.09-51.37-3.31-60.44-27.55-9.05-24.26,3.31-51.39,27.57-60.44,3.73-1.4,7.56-2.29,11.35-2.72,20.84-2.25,41.43,9.76,49.1,30.27,9.05,24.26-3.31,51.37-27.57,60.44Z"/>
    <path class="cls-3" d="m620.97,331.57c-3.18-13.91-10.14-26.13-19.62-34.39-4.97-4.34-10.33-7.35-15.82-8.94-5.28-1.53-10.72-1.74-16-.52-10.74,2.46-19.46,10.4-24.54,22.36-2.64,6.19-4.14,13.1-4.47,20.31v.02c-.11,2.37-.11,4.77.04,7.21.17,2.75.5,5.53,1,8.32.2,1.22.46,2.46.74,3.68,1.94,8.48,5.28,16.17,9.57,22.67,9.65,14.62,24.1,23.3,38.38,21.75,1.18-.13,2.33-.33,3.51-.59,3.53-.81,6.82-2.24,9.81-4.18,15.36-9.89,23.01-33.3,17.41-57.69Zm-18.13,49.24c-3.1,2.72-6.71,4.64-10.72,5.56-17.87,4.1-36.99-13.16-42.78-38.4-.68-3.05-1.16-6.08-1.42-9.09v-.02c-.09-.92-.15-1.87-.18-2.79v-.02c-.07-1.55-.07-3.09-.02-4.62v-.02c.22-6.62,1.53-12.88,3.92-18.5.39-.92.81-1.81,1.28-2.68,4.23-8.26,10.63-13.71,18.24-15.45.89-.2,1.79-.35,2.7-.46,4.6-.5,9.35.37,13.95,2.51,3.01,1.39,5.95,3.33,8.78,5.78,8.33,7.28,14.49,18.13,17.33,30.56,4.47,19.55-.37,38.29-11.07,47.62Z"/>
    <path class="cls-3" d="m513.64,356.09l-5.78-4.38c6.47-8.57,22.94-21.87,39.01-11.01l-4.06,6c-14.38-9.75-28.57,8.6-29.17,9.38Z"/>
    <path class="cls-3" d="m282.64,395.08l-6.61-2.98c1.4-3.08,14.07-30.19,30.1-33.67,14.99-3.2,101.7-.63,105.85-.46l-.31,7.24c-27.95-1.17-92.43-2.21-104,.3-10.58,2.29-21.65,22.12-25.03,29.57Z"/>
  </g>
  <g>
    <path class="cls-1" d="m357.92,386.4s-44.2-52.63-68.42-36.38c-24.22,16.25,12.5,94.96,43.37,103.43,30.87,8.48,39.27-19.95,39.27-19.95l-14.22-47.1Z"/>
    <path class="cls-6" d="m300.58,372.32c-.48,0-.52.68-.09.82,21.71,6.63,34.46,25.08,43.97,44.54-6.92-7.2-15.78-10.7-25.51-2.36-.51.44.09,1.25.67,1.07,8.42-2.6,14.75-1.66,21.15,4.7,4.54,4.5,7.89,10.41,11.33,15.77,1.15,1.79,4.44.49,3.54-1.61-.07-.15-.14-.31-.21-.47-1.84-26.77-25.92-62.31-54.85-62.46Z"/>
  </g>
  <path class="cls-6" d="m417.93,126.63v18.05c0,1.91-1.54,3.45-3.45,3.45h0c-1.07,0-2.05-.51-2.72-1.34-1.32-1.61-3.33-2.64-5.57-2.64-3.98,0-7.21,3.22-7.21,7.2s3.22,7.2,7.21,7.2c2.24,0,4.25-1.03,5.57-2.64.68-.82,1.66-1.34,2.72-1.34h0c1.91,0,3.45,1.54,3.45,3.45v18.05h-18.05c-1.91,0-3.45,1.54-3.45,3.45h0c0,1.07.51,2.05,1.34,2.72,1.61,1.32,2.64,3.33,2.64,5.57,0,3.98-3.22,7.21-7.2,7.21s-7.2-3.22-7.2-7.21c0-2.24,1.03-4.25,2.64-5.57.82-.68,1.34-1.66,1.34-2.72h0c0-1.91-1.54-3.45-3.45-3.45h-18.05v-18.05c0-1.91,1.54-3.45,3.45-3.45h0c1.07,0,2.05.51,2.72,1.34,1.32,1.61,3.33,2.64,5.57,2.64,3.98,0,7.21-3.22,7.21-7.2s-3.22-7.2-7.21-7.2c-2.24,0-4.25,1.03-5.57,2.64-.68.82-1.66,1.34-2.72,1.34h0c-1.91,0-3.45-1.54-3.45-3.45v-18.05h18.05c1.91,0,3.45-1.54,3.45-3.45h0c0-1.07-.51-2.05-1.34-2.72-1.61-1.32-2.64-3.33-2.64-5.57,0-3.98,3.22-7.21,7.2-7.21s7.2,3.22,7.2,7.21c0,2.24-1.03,4.25-2.64,5.57-.82.68-1.34,1.66-1.34,2.72h0c0,1.91,1.54,3.45,3.45,3.45h18.05Z"/>
  <path class="cls-7" d="m417.93,126.62h-18.05c-1.91,0-3.45-1.54-3.45-3.45h0c0-1.07.51-2.05,1.34-2.72,1.61-1.32,2.64-3.33,2.64-5.57,0-3.98-3.22-7.21-7.2-7.21s-7.2,3.22-7.2,7.21c0,2.24,1.03,4.25,2.64,5.57.82.68,1.34,1.66,1.34,2.72h0c0,1.91-1.54,3.45-3.45,3.45h-18.05v-18.05c0-1.91-1.54-3.45-3.45-3.45h0c-1.07,0-2.05.51-2.72,1.34-1.32,1.61-3.33,2.64-5.57,2.64-3.98,0-7.21-3.22-7.21-7.2s3.22-7.2,7.21-7.2c2.24,0,4.25,1.03,5.57,2.64.68.82,1.66,1.34,2.72,1.34h0c1.91,0,3.45-1.54,3.45-3.45v-18.05h18.05c1.91,0,3.45,1.54,3.45,3.45h0c0,1.07-.51,2.05-1.34,2.72-1.61,1.32-2.64,3.33-2.64,5.57,0,3.98,3.22,7.21,7.2,7.21s7.2-3.22,7.2-7.21c0-2.24-1.03-4.25-2.64-5.57-.82-.68-1.34-1.66-1.34-2.72h0c0-1.91,1.54-3.45,3.45-3.45h18.05v18.05c0,1.91,1.54,3.45,3.45,3.45h0c1.07,0,2.05-.51,2.72-1.34,1.32-1.61,3.33-2.64,5.57-2.64,3.98,0,7.21,3.22,7.21,7.2s-3.22,7.2-7.21,7.2c-2.24,0-4.25-1.03-5.57-2.64-.68-.82-1.66-1.34-2.72-1.34h0c-1.91,0-3.45,1.54-3.45,3.45v18.05Z"/>
  <path class="cls-7" d="m220.61,213.84h18.05c1.91,0,3.45,1.54,3.45,3.45h0c0,1.07-.51,2.05-1.34,2.72-1.61,1.32-2.64,3.33-2.64,5.57,0,3.98,3.22,7.21,7.2,7.21s7.2-3.22,7.2-7.21c0-2.24-1.03-4.25-2.64-5.57-.82-.68-1.34-1.66-1.34-2.72h0c0-1.91,1.54-3.45,3.45-3.45h18.05v18.05c0,1.91,1.55,3.45,3.45,3.45h0c1.07,0,2.05-.51,2.72-1.34,1.32-1.61,3.33-2.64,5.57-2.64,3.98,0,7.21,3.22,7.21,7.2s-3.22,7.2-7.21,7.2c-2.24,0-4.25-1.03-5.57-2.64-.68-.82-1.66-1.34-2.72-1.34h0c-1.91,0-3.45,1.54-3.45,3.45v18.05h-18.05c-1.91,0-3.45-1.54-3.45-3.45h0c0-1.07.51-2.05,1.34-2.72,1.61-1.32,2.64-3.33,2.64-5.57,0-3.98-3.22-7.21-7.2-7.21s-7.2,3.22-7.2,7.21c0,2.24,1.03,4.25,2.64,5.57.82.68,1.34,1.66,1.34,2.72h0c0,1.91-1.54,3.45-3.45,3.45h-18.05v-18.05c0-1.91-1.54-3.45-3.45-3.45h0c-1.07,0-2.05.51-2.72,1.34-1.32,1.61-3.33,2.64-5.57,2.64-3.98,0-7.21-3.22-7.21-7.2s3.22-7.2,7.21-7.2c2.24,0,4.25,1.03,5.57,2.64.68.82,1.66,1.34,2.72,1.34h0c1.91,0,3.45-1.54,3.45-3.45v-18.05Z"/>
  <path class="cls-6" d="m0,754.12c252.5-.61,535.74-.62,788.24,0-252.5.62-535.74.61-788.24,0h0Z"/>
  <path class="cls-12" d="m353.56,136.43c18.33,34.18,2.08,54.14,4.55,64.93,1.36,5.83,7.04,19.1,7.04,19.1l-33.02,23.01s-10.47-9.93-15.49-13.21c-9.25-6.07-33.62,2.28-59.33-26.76-16.9-19.07-24.14-62.73,10.79-87.09,34.94-24.35,73.38-2.44,85.44,20.01Z"/>
  <g>
    <rect class="cls-7" x="318.18" y="184.37" width="1.32" height="65.12" transform="translate(-59.44 291.92) rotate(-45.44)"/>
    <rect class="cls-7" x="344.21" y="166.23" width="1.32" height="65.12" transform="translate(-51.25 159.46) rotate(-24.29)"/>
    <path class="cls-7" d="m325.62,198.92c-3.5,2.44-8.7.53-11.49-.82-.2-.1-.4-.2-.59-.3-.17,1.73-.75,3-1.7,3.66-4.83,3.36-13.81-5.35-14.19-5.72l.46-.47c.09.09,8.97,8.7,13.34,5.65h0c.84-.59,1.34-1.79,1.45-3.45-3.66-2-7.1-4.89-8.99-7.6-1.95-2.8-2.03-5.04-.23-6.3h0c1.14-.79,2.39-.91,3.62-.33,3.23,1.51,5.83,7.55,6.23,12.24.05.57.07,1.11.05,1.62,4.28,2.25,8.86,3.24,11.67,1.28,2.1-1.47,3.07-4.58,2.71-8.76-.03-.39-.08-.78-.13-1.18-3.4-.72-6.91-3.4-9.19-6.68-2.49-3.58-2.72-6.72-.59-8.2.82-.57,1.79-.63,2.79-.16,3.21,1.51,6.61,8.14,7.58,14.5,1.58.25,3.14.01,4.53-.96h0c3.76-2.62-.39-14.6-.44-14.72l.62-.22c.18.51,4.36,12.58.19,15.48-1.44,1-3.1,1.3-4.82,1.06.04.34.08.67.11,1.01.27,3.13-.03,7.29-2.99,9.35h0Zm-7.21-24.82c-2.14,1.49-1.01,4.74.76,7.28,1.86,2.67,5.2,5.56,8.55,6.38-.99-6.02-4.22-12.38-7.17-13.76-.8-.38-1.5-.34-2.13.1Zm-14.36,10.01h0c-1.97,1.37-.6,3.96.39,5.38,1.81,2.59,5.01,5.31,8.47,7.25,0-.38-.02-.79-.05-1.21-.38-4.41-2.87-10.3-5.85-11.7-1.02-.48-2.01-.38-2.96.28Z"/>
  </g>
  <g>
    <rect class="cls-8" x="325.61" y="229.68" width="49.66" height="9.7" transform="translate(-71.16 242.52) rotate(-34.88)"/>
    <rect class="cls-8" x="332.06" y="238.93" width="49.66" height="9.7" transform="translate(-75.29 247.87) rotate(-34.88)"/>
    <rect class="cls-8" x="338.51" y="248.18" width="49.66" height="9.7" transform="translate(-79.43 253.22) rotate(-34.88)"/>
  </g>
  <path class="cls-7" d="m258.3,187.81c-10.6-16.65-11.49-42.41,4.59-55.93-11.02,16.75-9.59,37.34-4.59,55.93h0Z"/>
  <g>
    <path class="cls-8" d="m440.96,225.48c.72-3.02.85-6.07.4-9.05l5.59-2.38-2.6-7.69-5.99,1.52c-1.52-2.61-3.56-4.95-6.07-6.85l2.22-5.48-7.27-3.6-3.02,5.1c-3.12-.88-6.32-1.06-9.43-.67l-2.17-5.1-7.67,2.59,1.37,5.38c-2.83,1.58-5.32,3.75-7.35,6.43l-4.82-1.93-3.58,7.26,4.51,2.69c-.87,3.31-1.02,6.67-.49,9.92l-4.69,2,2.59,7.67,5.16-1.31c1.65,2.82,3.9,5.27,6.67,7.24l-1.98,4.87,7.27,3.6,2.85-4.8c3.19.75,6.44.83,9.55.28l2.2,5.17,7.69-2.58-1.47-5.78c2.59-1.61,4.9-3.74,6.74-6.31l5.53,2.21,3.58-7.24-5.32-3.18Zm-24.87,10.75c-9.04-1.29-15.34-9.67-14.05-18.72,1.29-9.06,9.68-15.36,18.72-14.07,9.06,1.29,15.36,9.68,14.07,18.74-1.29,9.04-9.67,15.34-18.73,14.05Z"/>
    <g>
      <path class="cls-8" d="m428.92,229.11l-3.06,2.32-5.66-7.48-2.07-2.73c.41-.16.81-.39,1.19-.67.72-.55,1.24-1.26,1.57-2.03l2.2,2.9,5.83,7.7Z"/>
      <path class="cls-8" d="m422.9,211.51c-2.8-3.65-8.04-4.35-11.7-1.54-3.65,2.8-4.35,8.04-1.54,11.7,2.52,3.29,7,4.17,10.54,2.29.4-.22.79-.46,1.16-.75.68-.52,1.26-1.13,1.73-1.8,2.06-2.9,2.09-6.92-.18-9.9Zm-3.59,9.04c-.37.29-.77.51-1.19.67-2.03.81-4.41.22-5.8-1.59-1.68-2.19-1.27-5.32.92-7,2.19-1.68,5.32-1.26,7,.93,1.12,1.47,1.31,3.36.64,4.96-.33.78-.85,1.49-1.57,2.03Z"/>
    </g>
  </g>
  <path class="cls-8" d="m303.13,277.16c1.33-1.71,2.28-3.61,2.85-5.63l4.23.1.56-5.63-4.24-.75c-.22-2.09-.84-4.16-1.89-6.09l2.98-2.84-3.58-4.37-3.38,2.37c-1.73-1.45-3.71-2.48-5.79-3.13l.08-3.86-5.61-.56-.68,3.81c-2.25.19-4.45.85-6.51,1.97l-2.51-2.61-4.36,3.58,2.09,3c-1.5,1.85-2.56,3.94-3.16,6.16l-3.55-.07-.56,5.61,3.65.65c.24,2.26.96,4.46,2.15,6.51l-2.65,2.52,3.58,4.37,3.19-2.23c1.81,1.39,3.85,2.37,5.98,2.92l-.09,3.91,5.62.57.73-4.09c2.1-.28,4.19-.97,6.09-2.07l2.88,2.99,4.35-3.57-2.46-3.55Zm-18.87-.31c-5.37-3.41-6.96-10.54-3.55-15.92,3.42-5.38,10.55-6.97,15.92-3.56,5.38,3.42,6.97,10.55,3.55,15.93-3.41,5.37-10.54,6.96-15.93,3.54Z"/>
  <path class="cls-12" d="m387.29,302.59c2.02-.78,3.81-1.92,5.34-3.36l3.58,2.26,3.37-4.54-3.25-2.83c.89-1.9,1.42-4,1.52-6.19l4.02-.9-.82-5.59-4.12.3c-.73-2.13-1.9-4.04-3.36-5.66l2.06-3.26-4.52-3.37-2.54,2.92c-2.02-.99-4.26-1.56-6.6-1.66l-.8-3.53-5.58.83.25,3.65c-2.24.81-4.22,2.06-5.88,3.65l-3.01-1.89-3.37,4.52,2.8,2.44c-.96,2.06-1.47,4.32-1.5,6.69l-3.57.8.82,5.59,3.88-.27c.84,2.12,2.08,4.02,3.63,5.58l-2.09,3.31,4.53,3.38,2.73-3.13c1.95.84,4.09,1.32,6.29,1.36l.93,4.04,5.57-.82-.29-4.31Zm-16.02-9.98c-2.85-5.69-.54-12.62,5.15-15.47,5.7-2.85,12.63-.55,15.48,5.14,2.85,5.7.55,12.63-5.15,15.49-5.69,2.85-12.62.54-15.48-5.16Z"/>
  <g>
    <path class="cls-4" d="m354.22,298.54c-.29-3.09-1.17-6.02-2.55-8.69l4.52-4.06-4.95-6.43-5.18,3.38c-2.28-1.98-4.97-3.53-7.96-4.51l.33-5.9-8.05-1.05-1.2,5.8c-3.23.18-6.32,1.05-9.13,2.42l-3.7-4.12-6.42,4.93,3.04,4.65c-2.16,2.41-3.82,5.27-4.87,8.46l-5.19-.27-1.04,8.03,5.14,1.08c.25,3.41,1.2,6.64,2.75,9.54l-3.79,3.41,4.93,6.42,4.46-2.91c2.47,2.13,5.4,3.73,8.66,4.69l-.29,5.25,8.05,1.05,1.14-5.46c3.26-.32,6.36-1.3,9.13-2.82l3.75,4.18,6.43-4.93-3.26-4.99c1.93-2.36,3.43-5.13,4.34-8.15l5.95.3,1.04-8.01-6.07-1.29Zm-20.05,18.23c-8.97,1.71-17.65-4.18-19.36-13.16-1.71-8.99,4.18-17.66,13.15-19.38,8.99-1.71,17.66,4.18,19.38,13.17,1.71,8.97-4.18,17.65-13.17,19.36Z"/>
    <g>
      <g class="cls-14">
        <path class="cls-2" d="m338.97,295.14c0,1.91-1.55,3.46-3.46,3.46s-3.46-1.55-3.46-3.46,1.55-3.46,3.46-3.46,3.46,1.55,3.46,3.46Z"/>
        <path class="cls-2" d="m341.49,304.67v1.26h-11.95v-1.26c0-3.29,2.68-5.96,5.99-5.96s5.96,2.68,5.96,5.96Z"/>
      </g>
      <g>
        <path class="cls-4" d="m330.12,297.22c0,1.91-1.55,3.46-3.46,3.46s-3.46-1.55-3.46-3.46,1.55-3.46,3.46-3.46,3.46,1.55,3.46,3.46Z"/>
        <path class="cls-4" d="m332.63,306.75v1.26h-11.95v-1.26c0-3.29,2.68-5.96,5.99-5.96s5.96,2.68,5.96,5.96Z"/>
      </g>
    </g>
  </g>
  <g>
    <path class="cls-12" d="m515.32,170.23l.9-6.91-8.09-1.88c.06-3.84-.47-7.59-1.49-11.13l7.27-3.92-2.67-6.44-7.94,2.43c-1.83-3.29-4.14-6.29-6.87-8.89l4.37-7.04-5.53-4.24-5.69,6.06c-3.16-1.92-6.65-3.35-10.37-4.25l.24-8.28-6.91-.9-1.88,8.09c-3.84-.06-7.59.47-11.13,1.51l-3.92-7.29-6.44,2.67,2.41,7.94c-3.28,1.83-6.27,4.16-8.87,6.87l-7.04-4.35-4.25,5.53,6.08,5.65c-1.92,3.2-3.37,6.66-4.25,10.39l-8.28-.23-.9,6.89,8.09,1.9c-.06,3.84.47,7.57,1.51,11.13l-7.3,3.92,2.69,6.44,7.94-2.41c1.83,3.28,4.16,6.27,6.85,8.87l-4.33,7.02,5.53,4.25,5.65-6.06c3.16,1.9,6.66,3.35,10.41,4.25l-.24,8.26,6.89.9,1.9-8.08c3.84.04,7.57-.49,11.13-1.52l3.92,7.29,6.44-2.67-2.43-7.94c3.29-1.83,6.29-4.14,8.89-6.87l7.04,4.37,4.22-5.53-6.04-5.67c1.88-3.16,3.33-6.66,4.25-10.39l8.26.24Zm-45.18,15.21c-13.54,0-24.51-10.97-24.51-24.51s10.97-24.51,24.51-24.51,24.51,10.97,24.51,24.51-10.97,24.51-24.51,24.51Z"/>
    <g>
      <path class="cls-12" d="m475.15,147.84c0,2.77-2.25,5.02-5.02,5.02s-5.02-2.25-5.02-5.02,2.25-5.02,5.02-5.02,5.02,2.25,5.02,5.02Z"/>
      <g>
        <rect class="cls-12" x="464.82" y="152.09" width="10.63" height="1.53"/>
        <rect class="cls-10" x="464.82" y="152.09" width="10.63" height="1.53"/>
      </g>
      <g>
        <rect class="cls-12" x="459.36" y="173.2" width="21.54" height="1.53"/>
        <rect class="cls-10" x="459.36" y="173.2" width="21.54" height="1.53"/>
      </g>
      <g>
        <rect class="cls-12" x="459.36" y="177.5" width="21.54" height="1.53"/>
        <rect class="cls-10" x="459.36" y="177.5" width="21.54" height="1.53"/>
      </g>
      <rect class="cls-12" x="460.17" y="174.73" width="19.94" height="2.77"/>
      <rect class="cls-12" x="465.8" y="153.63" width="8.68" height="1.53"/>
      <path class="cls-12" d="m478.95,173.2h-17.62s4.02-4.02,4.86-8.83c.7-4.06,1.04-9.21,1.04-9.21h5.82s.34,5.15,1.05,9.21c.83,4.81,4.85,8.83,4.85,8.83Z"/>
    </g>
  </g>
</svg>